%TF.GenerationSoftware,KiCad,Pcbnew,9.99.0-1075-gc528f3c605*%
%TF.CreationDate,2025-05-02T10:06:43+08:00*%
%TF.ProjectId,new_dc-dc,6e65775f-6463-42d6-9463-2e6b69636164,rev?*%
%TF.SameCoordinates,Original*%
%TF.FileFunction,Legend,Top*%
%TF.FilePolarity,Positive*%
%FSLAX46Y46*%
G04 Gerber Fmt 4.6, Leading zero omitted, Abs format (unit mm)*
G04 Created by KiCad (PCBNEW 9.99.0-1075-gc528f3c605) date 2025-05-02 10:06:43*
%MOMM*%
%LPD*%
G01*
G04 APERTURE LIST*
%ADD10C,0.150000*%
%ADD11C,0.120000*%
G04 APERTURE END LIST*
D10*
X154109580Y-108416666D02*
X154157200Y-108464285D01*
X154157200Y-108464285D02*
X154204819Y-108607142D01*
X154204819Y-108607142D02*
X154204819Y-108702380D01*
X154204819Y-108702380D02*
X154157200Y-108845237D01*
X154157200Y-108845237D02*
X154061961Y-108940475D01*
X154061961Y-108940475D02*
X153966723Y-108988094D01*
X153966723Y-108988094D02*
X153776247Y-109035713D01*
X153776247Y-109035713D02*
X153633390Y-109035713D01*
X153633390Y-109035713D02*
X153442914Y-108988094D01*
X153442914Y-108988094D02*
X153347676Y-108940475D01*
X153347676Y-108940475D02*
X153252438Y-108845237D01*
X153252438Y-108845237D02*
X153204819Y-108702380D01*
X153204819Y-108702380D02*
X153204819Y-108607142D01*
X153204819Y-108607142D02*
X153252438Y-108464285D01*
X153252438Y-108464285D02*
X153300057Y-108416666D01*
X153204819Y-107559523D02*
X153204819Y-107749999D01*
X153204819Y-107749999D02*
X153252438Y-107845237D01*
X153252438Y-107845237D02*
X153300057Y-107892856D01*
X153300057Y-107892856D02*
X153442914Y-107988094D01*
X153442914Y-107988094D02*
X153633390Y-108035713D01*
X153633390Y-108035713D02*
X154014342Y-108035713D01*
X154014342Y-108035713D02*
X154109580Y-107988094D01*
X154109580Y-107988094D02*
X154157200Y-107940475D01*
X154157200Y-107940475D02*
X154204819Y-107845237D01*
X154204819Y-107845237D02*
X154204819Y-107654761D01*
X154204819Y-107654761D02*
X154157200Y-107559523D01*
X154157200Y-107559523D02*
X154109580Y-107511904D01*
X154109580Y-107511904D02*
X154014342Y-107464285D01*
X154014342Y-107464285D02*
X153776247Y-107464285D01*
X153776247Y-107464285D02*
X153681009Y-107511904D01*
X153681009Y-107511904D02*
X153633390Y-107559523D01*
X153633390Y-107559523D02*
X153585771Y-107654761D01*
X153585771Y-107654761D02*
X153585771Y-107845237D01*
X153585771Y-107845237D02*
X153633390Y-107940475D01*
X153633390Y-107940475D02*
X153681009Y-107988094D01*
X153681009Y-107988094D02*
X153776247Y-108035713D01*
X146284819Y-105416666D02*
X145808628Y-105749999D01*
X146284819Y-105988094D02*
X145284819Y-105988094D01*
X145284819Y-105988094D02*
X145284819Y-105607142D01*
X145284819Y-105607142D02*
X145332438Y-105511904D01*
X145332438Y-105511904D02*
X145380057Y-105464285D01*
X145380057Y-105464285D02*
X145475295Y-105416666D01*
X145475295Y-105416666D02*
X145618152Y-105416666D01*
X145618152Y-105416666D02*
X145713390Y-105464285D01*
X145713390Y-105464285D02*
X145761009Y-105511904D01*
X145761009Y-105511904D02*
X145808628Y-105607142D01*
X145808628Y-105607142D02*
X145808628Y-105988094D01*
X145284819Y-105083332D02*
X145284819Y-104464285D01*
X145284819Y-104464285D02*
X145665771Y-104797618D01*
X145665771Y-104797618D02*
X145665771Y-104654761D01*
X145665771Y-104654761D02*
X145713390Y-104559523D01*
X145713390Y-104559523D02*
X145761009Y-104511904D01*
X145761009Y-104511904D02*
X145856247Y-104464285D01*
X145856247Y-104464285D02*
X146094342Y-104464285D01*
X146094342Y-104464285D02*
X146189580Y-104511904D01*
X146189580Y-104511904D02*
X146237200Y-104559523D01*
X146237200Y-104559523D02*
X146284819Y-104654761D01*
X146284819Y-104654761D02*
X146284819Y-104940475D01*
X146284819Y-104940475D02*
X146237200Y-105035713D01*
X146237200Y-105035713D02*
X146189580Y-105083332D01*
X161238095Y-108704819D02*
X161238095Y-109514342D01*
X161238095Y-109514342D02*
X161285714Y-109609580D01*
X161285714Y-109609580D02*
X161333333Y-109657200D01*
X161333333Y-109657200D02*
X161428571Y-109704819D01*
X161428571Y-109704819D02*
X161619047Y-109704819D01*
X161619047Y-109704819D02*
X161714285Y-109657200D01*
X161714285Y-109657200D02*
X161761904Y-109609580D01*
X161761904Y-109609580D02*
X161809523Y-109514342D01*
X161809523Y-109514342D02*
X161809523Y-108704819D01*
X162809523Y-109704819D02*
X162238095Y-109704819D01*
X162523809Y-109704819D02*
X162523809Y-108704819D01*
X162523809Y-108704819D02*
X162428571Y-108847676D01*
X162428571Y-108847676D02*
X162333333Y-108942914D01*
X162333333Y-108942914D02*
X162238095Y-108990533D01*
X157333333Y-115704819D02*
X157000000Y-115228628D01*
X156761905Y-115704819D02*
X156761905Y-114704819D01*
X156761905Y-114704819D02*
X157142857Y-114704819D01*
X157142857Y-114704819D02*
X157238095Y-114752438D01*
X157238095Y-114752438D02*
X157285714Y-114800057D01*
X157285714Y-114800057D02*
X157333333Y-114895295D01*
X157333333Y-114895295D02*
X157333333Y-115038152D01*
X157333333Y-115038152D02*
X157285714Y-115133390D01*
X157285714Y-115133390D02*
X157238095Y-115181009D01*
X157238095Y-115181009D02*
X157142857Y-115228628D01*
X157142857Y-115228628D02*
X156761905Y-115228628D01*
X158190476Y-115038152D02*
X158190476Y-115704819D01*
X157952381Y-114657200D02*
X157714286Y-115371485D01*
X157714286Y-115371485D02*
X158333333Y-115371485D01*
X164833333Y-115204819D02*
X164500000Y-114728628D01*
X164261905Y-115204819D02*
X164261905Y-114204819D01*
X164261905Y-114204819D02*
X164642857Y-114204819D01*
X164642857Y-114204819D02*
X164738095Y-114252438D01*
X164738095Y-114252438D02*
X164785714Y-114300057D01*
X164785714Y-114300057D02*
X164833333Y-114395295D01*
X164833333Y-114395295D02*
X164833333Y-114538152D01*
X164833333Y-114538152D02*
X164785714Y-114633390D01*
X164785714Y-114633390D02*
X164738095Y-114681009D01*
X164738095Y-114681009D02*
X164642857Y-114728628D01*
X164642857Y-114728628D02*
X164261905Y-114728628D01*
X165166667Y-114204819D02*
X165833333Y-114204819D01*
X165833333Y-114204819D02*
X165404762Y-115204819D01*
X165704819Y-106916666D02*
X165228628Y-107249999D01*
X165704819Y-107488094D02*
X164704819Y-107488094D01*
X164704819Y-107488094D02*
X164704819Y-107107142D01*
X164704819Y-107107142D02*
X164752438Y-107011904D01*
X164752438Y-107011904D02*
X164800057Y-106964285D01*
X164800057Y-106964285D02*
X164895295Y-106916666D01*
X164895295Y-106916666D02*
X165038152Y-106916666D01*
X165038152Y-106916666D02*
X165133390Y-106964285D01*
X165133390Y-106964285D02*
X165181009Y-107011904D01*
X165181009Y-107011904D02*
X165228628Y-107107142D01*
X165228628Y-107107142D02*
X165228628Y-107488094D01*
X164704819Y-106059523D02*
X164704819Y-106249999D01*
X164704819Y-106249999D02*
X164752438Y-106345237D01*
X164752438Y-106345237D02*
X164800057Y-106392856D01*
X164800057Y-106392856D02*
X164942914Y-106488094D01*
X164942914Y-106488094D02*
X165133390Y-106535713D01*
X165133390Y-106535713D02*
X165514342Y-106535713D01*
X165514342Y-106535713D02*
X165609580Y-106488094D01*
X165609580Y-106488094D02*
X165657200Y-106440475D01*
X165657200Y-106440475D02*
X165704819Y-106345237D01*
X165704819Y-106345237D02*
X165704819Y-106154761D01*
X165704819Y-106154761D02*
X165657200Y-106059523D01*
X165657200Y-106059523D02*
X165609580Y-106011904D01*
X165609580Y-106011904D02*
X165514342Y-105964285D01*
X165514342Y-105964285D02*
X165276247Y-105964285D01*
X165276247Y-105964285D02*
X165181009Y-106011904D01*
X165181009Y-106011904D02*
X165133390Y-106059523D01*
X165133390Y-106059523D02*
X165085771Y-106154761D01*
X165085771Y-106154761D02*
X165085771Y-106345237D01*
X165085771Y-106345237D02*
X165133390Y-106440475D01*
X165133390Y-106440475D02*
X165181009Y-106488094D01*
X165181009Y-106488094D02*
X165276247Y-106535713D01*
X152954819Y-111916666D02*
X152478628Y-112249999D01*
X152954819Y-112488094D02*
X151954819Y-112488094D01*
X151954819Y-112488094D02*
X151954819Y-112107142D01*
X151954819Y-112107142D02*
X152002438Y-112011904D01*
X152002438Y-112011904D02*
X152050057Y-111964285D01*
X152050057Y-111964285D02*
X152145295Y-111916666D01*
X152145295Y-111916666D02*
X152288152Y-111916666D01*
X152288152Y-111916666D02*
X152383390Y-111964285D01*
X152383390Y-111964285D02*
X152431009Y-112011904D01*
X152431009Y-112011904D02*
X152478628Y-112107142D01*
X152478628Y-112107142D02*
X152478628Y-112488094D01*
X152050057Y-111535713D02*
X152002438Y-111488094D01*
X152002438Y-111488094D02*
X151954819Y-111392856D01*
X151954819Y-111392856D02*
X151954819Y-111154761D01*
X151954819Y-111154761D02*
X152002438Y-111059523D01*
X152002438Y-111059523D02*
X152050057Y-111011904D01*
X152050057Y-111011904D02*
X152145295Y-110964285D01*
X152145295Y-110964285D02*
X152240533Y-110964285D01*
X152240533Y-110964285D02*
X152383390Y-111011904D01*
X152383390Y-111011904D02*
X152954819Y-111583332D01*
X152954819Y-111583332D02*
X152954819Y-110964285D01*
X148333333Y-109409580D02*
X148285714Y-109457200D01*
X148285714Y-109457200D02*
X148142857Y-109504819D01*
X148142857Y-109504819D02*
X148047619Y-109504819D01*
X148047619Y-109504819D02*
X147904762Y-109457200D01*
X147904762Y-109457200D02*
X147809524Y-109361961D01*
X147809524Y-109361961D02*
X147761905Y-109266723D01*
X147761905Y-109266723D02*
X147714286Y-109076247D01*
X147714286Y-109076247D02*
X147714286Y-108933390D01*
X147714286Y-108933390D02*
X147761905Y-108742914D01*
X147761905Y-108742914D02*
X147809524Y-108647676D01*
X147809524Y-108647676D02*
X147904762Y-108552438D01*
X147904762Y-108552438D02*
X148047619Y-108504819D01*
X148047619Y-108504819D02*
X148142857Y-108504819D01*
X148142857Y-108504819D02*
X148285714Y-108552438D01*
X148285714Y-108552438D02*
X148333333Y-108600057D01*
X148666667Y-108504819D02*
X149285714Y-108504819D01*
X149285714Y-108504819D02*
X148952381Y-108885771D01*
X148952381Y-108885771D02*
X149095238Y-108885771D01*
X149095238Y-108885771D02*
X149190476Y-108933390D01*
X149190476Y-108933390D02*
X149238095Y-108981009D01*
X149238095Y-108981009D02*
X149285714Y-109076247D01*
X149285714Y-109076247D02*
X149285714Y-109314342D01*
X149285714Y-109314342D02*
X149238095Y-109409580D01*
X149238095Y-109409580D02*
X149190476Y-109457200D01*
X149190476Y-109457200D02*
X149095238Y-109504819D01*
X149095238Y-109504819D02*
X148809524Y-109504819D01*
X148809524Y-109504819D02*
X148714286Y-109457200D01*
X148714286Y-109457200D02*
X148666667Y-109409580D01*
X151359580Y-112166666D02*
X151407200Y-112214285D01*
X151407200Y-112214285D02*
X151454819Y-112357142D01*
X151454819Y-112357142D02*
X151454819Y-112452380D01*
X151454819Y-112452380D02*
X151407200Y-112595237D01*
X151407200Y-112595237D02*
X151311961Y-112690475D01*
X151311961Y-112690475D02*
X151216723Y-112738094D01*
X151216723Y-112738094D02*
X151026247Y-112785713D01*
X151026247Y-112785713D02*
X150883390Y-112785713D01*
X150883390Y-112785713D02*
X150692914Y-112738094D01*
X150692914Y-112738094D02*
X150597676Y-112690475D01*
X150597676Y-112690475D02*
X150502438Y-112595237D01*
X150502438Y-112595237D02*
X150454819Y-112452380D01*
X150454819Y-112452380D02*
X150454819Y-112357142D01*
X150454819Y-112357142D02*
X150502438Y-112214285D01*
X150502438Y-112214285D02*
X150550057Y-112166666D01*
X150788152Y-111309523D02*
X151454819Y-111309523D01*
X150407200Y-111547618D02*
X151121485Y-111785713D01*
X151121485Y-111785713D02*
X151121485Y-111166666D01*
X146361905Y-102374819D02*
X146361905Y-101374819D01*
X146361905Y-101374819D02*
X146600000Y-101374819D01*
X146600000Y-101374819D02*
X146742857Y-101422438D01*
X146742857Y-101422438D02*
X146838095Y-101517676D01*
X146838095Y-101517676D02*
X146885714Y-101612914D01*
X146885714Y-101612914D02*
X146933333Y-101803390D01*
X146933333Y-101803390D02*
X146933333Y-101946247D01*
X146933333Y-101946247D02*
X146885714Y-102136723D01*
X146885714Y-102136723D02*
X146838095Y-102231961D01*
X146838095Y-102231961D02*
X146742857Y-102327200D01*
X146742857Y-102327200D02*
X146600000Y-102374819D01*
X146600000Y-102374819D02*
X146361905Y-102374819D01*
X147885714Y-102374819D02*
X147314286Y-102374819D01*
X147600000Y-102374819D02*
X147600000Y-101374819D01*
X147600000Y-101374819D02*
X147504762Y-101517676D01*
X147504762Y-101517676D02*
X147409524Y-101612914D01*
X147409524Y-101612914D02*
X147314286Y-101660533D01*
X144833333Y-109409580D02*
X144785714Y-109457200D01*
X144785714Y-109457200D02*
X144642857Y-109504819D01*
X144642857Y-109504819D02*
X144547619Y-109504819D01*
X144547619Y-109504819D02*
X144404762Y-109457200D01*
X144404762Y-109457200D02*
X144309524Y-109361961D01*
X144309524Y-109361961D02*
X144261905Y-109266723D01*
X144261905Y-109266723D02*
X144214286Y-109076247D01*
X144214286Y-109076247D02*
X144214286Y-108933390D01*
X144214286Y-108933390D02*
X144261905Y-108742914D01*
X144261905Y-108742914D02*
X144309524Y-108647676D01*
X144309524Y-108647676D02*
X144404762Y-108552438D01*
X144404762Y-108552438D02*
X144547619Y-108504819D01*
X144547619Y-108504819D02*
X144642857Y-108504819D01*
X144642857Y-108504819D02*
X144785714Y-108552438D01*
X144785714Y-108552438D02*
X144833333Y-108600057D01*
X145214286Y-108600057D02*
X145261905Y-108552438D01*
X145261905Y-108552438D02*
X145357143Y-108504819D01*
X145357143Y-108504819D02*
X145595238Y-108504819D01*
X145595238Y-108504819D02*
X145690476Y-108552438D01*
X145690476Y-108552438D02*
X145738095Y-108600057D01*
X145738095Y-108600057D02*
X145785714Y-108695295D01*
X145785714Y-108695295D02*
X145785714Y-108790533D01*
X145785714Y-108790533D02*
X145738095Y-108933390D01*
X145738095Y-108933390D02*
X145166667Y-109504819D01*
X145166667Y-109504819D02*
X145785714Y-109504819D01*
X149761905Y-114454819D02*
X149761905Y-113454819D01*
X149761905Y-113454819D02*
X150000000Y-113454819D01*
X150000000Y-113454819D02*
X150142857Y-113502438D01*
X150142857Y-113502438D02*
X150238095Y-113597676D01*
X150238095Y-113597676D02*
X150285714Y-113692914D01*
X150285714Y-113692914D02*
X150333333Y-113883390D01*
X150333333Y-113883390D02*
X150333333Y-114026247D01*
X150333333Y-114026247D02*
X150285714Y-114216723D01*
X150285714Y-114216723D02*
X150238095Y-114311961D01*
X150238095Y-114311961D02*
X150142857Y-114407200D01*
X150142857Y-114407200D02*
X150000000Y-114454819D01*
X150000000Y-114454819D02*
X149761905Y-114454819D01*
X150714286Y-113550057D02*
X150761905Y-113502438D01*
X150761905Y-113502438D02*
X150857143Y-113454819D01*
X150857143Y-113454819D02*
X151095238Y-113454819D01*
X151095238Y-113454819D02*
X151190476Y-113502438D01*
X151190476Y-113502438D02*
X151238095Y-113550057D01*
X151238095Y-113550057D02*
X151285714Y-113645295D01*
X151285714Y-113645295D02*
X151285714Y-113740533D01*
X151285714Y-113740533D02*
X151238095Y-113883390D01*
X151238095Y-113883390D02*
X150666667Y-114454819D01*
X150666667Y-114454819D02*
X151285714Y-114454819D01*
X160083333Y-102359580D02*
X160035714Y-102407200D01*
X160035714Y-102407200D02*
X159892857Y-102454819D01*
X159892857Y-102454819D02*
X159797619Y-102454819D01*
X159797619Y-102454819D02*
X159654762Y-102407200D01*
X159654762Y-102407200D02*
X159559524Y-102311961D01*
X159559524Y-102311961D02*
X159511905Y-102216723D01*
X159511905Y-102216723D02*
X159464286Y-102026247D01*
X159464286Y-102026247D02*
X159464286Y-101883390D01*
X159464286Y-101883390D02*
X159511905Y-101692914D01*
X159511905Y-101692914D02*
X159559524Y-101597676D01*
X159559524Y-101597676D02*
X159654762Y-101502438D01*
X159654762Y-101502438D02*
X159797619Y-101454819D01*
X159797619Y-101454819D02*
X159892857Y-101454819D01*
X159892857Y-101454819D02*
X160035714Y-101502438D01*
X160035714Y-101502438D02*
X160083333Y-101550057D01*
X160654762Y-101883390D02*
X160559524Y-101835771D01*
X160559524Y-101835771D02*
X160511905Y-101788152D01*
X160511905Y-101788152D02*
X160464286Y-101692914D01*
X160464286Y-101692914D02*
X160464286Y-101645295D01*
X160464286Y-101645295D02*
X160511905Y-101550057D01*
X160511905Y-101550057D02*
X160559524Y-101502438D01*
X160559524Y-101502438D02*
X160654762Y-101454819D01*
X160654762Y-101454819D02*
X160845238Y-101454819D01*
X160845238Y-101454819D02*
X160940476Y-101502438D01*
X160940476Y-101502438D02*
X160988095Y-101550057D01*
X160988095Y-101550057D02*
X161035714Y-101645295D01*
X161035714Y-101645295D02*
X161035714Y-101692914D01*
X161035714Y-101692914D02*
X160988095Y-101788152D01*
X160988095Y-101788152D02*
X160940476Y-101835771D01*
X160940476Y-101835771D02*
X160845238Y-101883390D01*
X160845238Y-101883390D02*
X160654762Y-101883390D01*
X160654762Y-101883390D02*
X160559524Y-101931009D01*
X160559524Y-101931009D02*
X160511905Y-101978628D01*
X160511905Y-101978628D02*
X160464286Y-102073866D01*
X160464286Y-102073866D02*
X160464286Y-102264342D01*
X160464286Y-102264342D02*
X160511905Y-102359580D01*
X160511905Y-102359580D02*
X160559524Y-102407200D01*
X160559524Y-102407200D02*
X160654762Y-102454819D01*
X160654762Y-102454819D02*
X160845238Y-102454819D01*
X160845238Y-102454819D02*
X160940476Y-102407200D01*
X160940476Y-102407200D02*
X160988095Y-102359580D01*
X160988095Y-102359580D02*
X161035714Y-102264342D01*
X161035714Y-102264342D02*
X161035714Y-102073866D01*
X161035714Y-102073866D02*
X160988095Y-101978628D01*
X160988095Y-101978628D02*
X160940476Y-101931009D01*
X160940476Y-101931009D02*
X160845238Y-101883390D01*
X161954819Y-105666666D02*
X161954819Y-106142856D01*
X161954819Y-106142856D02*
X160954819Y-106142856D01*
X161954819Y-104809523D02*
X161954819Y-105380951D01*
X161954819Y-105095237D02*
X160954819Y-105095237D01*
X160954819Y-105095237D02*
X161097676Y-105190475D01*
X161097676Y-105190475D02*
X161192914Y-105285713D01*
X161192914Y-105285713D02*
X161240533Y-105380951D01*
X143204819Y-112416666D02*
X142728628Y-112749999D01*
X143204819Y-112988094D02*
X142204819Y-112988094D01*
X142204819Y-112988094D02*
X142204819Y-112607142D01*
X142204819Y-112607142D02*
X142252438Y-112511904D01*
X142252438Y-112511904D02*
X142300057Y-112464285D01*
X142300057Y-112464285D02*
X142395295Y-112416666D01*
X142395295Y-112416666D02*
X142538152Y-112416666D01*
X142538152Y-112416666D02*
X142633390Y-112464285D01*
X142633390Y-112464285D02*
X142681009Y-112511904D01*
X142681009Y-112511904D02*
X142728628Y-112607142D01*
X142728628Y-112607142D02*
X142728628Y-112988094D01*
X143204819Y-111464285D02*
X143204819Y-112035713D01*
X143204819Y-111749999D02*
X142204819Y-111749999D01*
X142204819Y-111749999D02*
X142347676Y-111845237D01*
X142347676Y-111845237D02*
X142442914Y-111940475D01*
X142442914Y-111940475D02*
X142490533Y-112035713D01*
X163859580Y-110166666D02*
X163907200Y-110214285D01*
X163907200Y-110214285D02*
X163954819Y-110357142D01*
X163954819Y-110357142D02*
X163954819Y-110452380D01*
X163954819Y-110452380D02*
X163907200Y-110595237D01*
X163907200Y-110595237D02*
X163811961Y-110690475D01*
X163811961Y-110690475D02*
X163716723Y-110738094D01*
X163716723Y-110738094D02*
X163526247Y-110785713D01*
X163526247Y-110785713D02*
X163383390Y-110785713D01*
X163383390Y-110785713D02*
X163192914Y-110738094D01*
X163192914Y-110738094D02*
X163097676Y-110690475D01*
X163097676Y-110690475D02*
X163002438Y-110595237D01*
X163002438Y-110595237D02*
X162954819Y-110452380D01*
X162954819Y-110452380D02*
X162954819Y-110357142D01*
X162954819Y-110357142D02*
X163002438Y-110214285D01*
X163002438Y-110214285D02*
X163050057Y-110166666D01*
X163954819Y-109214285D02*
X163954819Y-109785713D01*
X163954819Y-109499999D02*
X162954819Y-109499999D01*
X162954819Y-109499999D02*
X163097676Y-109595237D01*
X163097676Y-109595237D02*
X163192914Y-109690475D01*
X163192914Y-109690475D02*
X163240533Y-109785713D01*
X148609580Y-105666666D02*
X148657200Y-105714285D01*
X148657200Y-105714285D02*
X148704819Y-105857142D01*
X148704819Y-105857142D02*
X148704819Y-105952380D01*
X148704819Y-105952380D02*
X148657200Y-106095237D01*
X148657200Y-106095237D02*
X148561961Y-106190475D01*
X148561961Y-106190475D02*
X148466723Y-106238094D01*
X148466723Y-106238094D02*
X148276247Y-106285713D01*
X148276247Y-106285713D02*
X148133390Y-106285713D01*
X148133390Y-106285713D02*
X147942914Y-106238094D01*
X147942914Y-106238094D02*
X147847676Y-106190475D01*
X147847676Y-106190475D02*
X147752438Y-106095237D01*
X147752438Y-106095237D02*
X147704819Y-105952380D01*
X147704819Y-105952380D02*
X147704819Y-105857142D01*
X147704819Y-105857142D02*
X147752438Y-105714285D01*
X147752438Y-105714285D02*
X147800057Y-105666666D01*
X147704819Y-104761904D02*
X147704819Y-105238094D01*
X147704819Y-105238094D02*
X148181009Y-105285713D01*
X148181009Y-105285713D02*
X148133390Y-105238094D01*
X148133390Y-105238094D02*
X148085771Y-105142856D01*
X148085771Y-105142856D02*
X148085771Y-104904761D01*
X148085771Y-104904761D02*
X148133390Y-104809523D01*
X148133390Y-104809523D02*
X148181009Y-104761904D01*
X148181009Y-104761904D02*
X148276247Y-104714285D01*
X148276247Y-104714285D02*
X148514342Y-104714285D01*
X148514342Y-104714285D02*
X148609580Y-104761904D01*
X148609580Y-104761904D02*
X148657200Y-104809523D01*
X148657200Y-104809523D02*
X148704819Y-104904761D01*
X148704819Y-104904761D02*
X148704819Y-105142856D01*
X148704819Y-105142856D02*
X148657200Y-105238094D01*
X148657200Y-105238094D02*
X148609580Y-105285713D01*
X153333333Y-107109580D02*
X153285714Y-107157200D01*
X153285714Y-107157200D02*
X153142857Y-107204819D01*
X153142857Y-107204819D02*
X153047619Y-107204819D01*
X153047619Y-107204819D02*
X152904762Y-107157200D01*
X152904762Y-107157200D02*
X152809524Y-107061961D01*
X152809524Y-107061961D02*
X152761905Y-106966723D01*
X152761905Y-106966723D02*
X152714286Y-106776247D01*
X152714286Y-106776247D02*
X152714286Y-106633390D01*
X152714286Y-106633390D02*
X152761905Y-106442914D01*
X152761905Y-106442914D02*
X152809524Y-106347676D01*
X152809524Y-106347676D02*
X152904762Y-106252438D01*
X152904762Y-106252438D02*
X153047619Y-106204819D01*
X153047619Y-106204819D02*
X153142857Y-106204819D01*
X153142857Y-106204819D02*
X153285714Y-106252438D01*
X153285714Y-106252438D02*
X153333333Y-106300057D01*
X153666667Y-106204819D02*
X154333333Y-106204819D01*
X154333333Y-106204819D02*
X153904762Y-107204819D01*
X156261905Y-107954819D02*
X156261905Y-106954819D01*
X156261905Y-106954819D02*
X156500000Y-106954819D01*
X156500000Y-106954819D02*
X156642857Y-107002438D01*
X156642857Y-107002438D02*
X156738095Y-107097676D01*
X156738095Y-107097676D02*
X156785714Y-107192914D01*
X156785714Y-107192914D02*
X156833333Y-107383390D01*
X156833333Y-107383390D02*
X156833333Y-107526247D01*
X156833333Y-107526247D02*
X156785714Y-107716723D01*
X156785714Y-107716723D02*
X156738095Y-107811961D01*
X156738095Y-107811961D02*
X156642857Y-107907200D01*
X156642857Y-107907200D02*
X156500000Y-107954819D01*
X156500000Y-107954819D02*
X156261905Y-107954819D01*
X157690476Y-107288152D02*
X157690476Y-107954819D01*
X157452381Y-106907200D02*
X157214286Y-107621485D01*
X157214286Y-107621485D02*
X157833333Y-107621485D01*
X142666666Y-101454819D02*
X142666666Y-102169104D01*
X142666666Y-102169104D02*
X142619047Y-102311961D01*
X142619047Y-102311961D02*
X142523809Y-102407200D01*
X142523809Y-102407200D02*
X142380952Y-102454819D01*
X142380952Y-102454819D02*
X142285714Y-102454819D01*
X143047619Y-101454819D02*
X143666666Y-101454819D01*
X143666666Y-101454819D02*
X143333333Y-101835771D01*
X143333333Y-101835771D02*
X143476190Y-101835771D01*
X143476190Y-101835771D02*
X143571428Y-101883390D01*
X143571428Y-101883390D02*
X143619047Y-101931009D01*
X143619047Y-101931009D02*
X143666666Y-102026247D01*
X143666666Y-102026247D02*
X143666666Y-102264342D01*
X143666666Y-102264342D02*
X143619047Y-102359580D01*
X143619047Y-102359580D02*
X143571428Y-102407200D01*
X143571428Y-102407200D02*
X143476190Y-102454819D01*
X143476190Y-102454819D02*
X143190476Y-102454819D01*
X143190476Y-102454819D02*
X143095238Y-102407200D01*
X143095238Y-102407200D02*
X143047619Y-102359580D01*
X163954819Y-115166666D02*
X163478628Y-115499999D01*
X163954819Y-115738094D02*
X162954819Y-115738094D01*
X162954819Y-115738094D02*
X162954819Y-115357142D01*
X162954819Y-115357142D02*
X163002438Y-115261904D01*
X163002438Y-115261904D02*
X163050057Y-115214285D01*
X163050057Y-115214285D02*
X163145295Y-115166666D01*
X163145295Y-115166666D02*
X163288152Y-115166666D01*
X163288152Y-115166666D02*
X163383390Y-115214285D01*
X163383390Y-115214285D02*
X163431009Y-115261904D01*
X163431009Y-115261904D02*
X163478628Y-115357142D01*
X163478628Y-115357142D02*
X163478628Y-115738094D01*
X163383390Y-114595237D02*
X163335771Y-114690475D01*
X163335771Y-114690475D02*
X163288152Y-114738094D01*
X163288152Y-114738094D02*
X163192914Y-114785713D01*
X163192914Y-114785713D02*
X163145295Y-114785713D01*
X163145295Y-114785713D02*
X163050057Y-114738094D01*
X163050057Y-114738094D02*
X163002438Y-114690475D01*
X163002438Y-114690475D02*
X162954819Y-114595237D01*
X162954819Y-114595237D02*
X162954819Y-114404761D01*
X162954819Y-114404761D02*
X163002438Y-114309523D01*
X163002438Y-114309523D02*
X163050057Y-114261904D01*
X163050057Y-114261904D02*
X163145295Y-114214285D01*
X163145295Y-114214285D02*
X163192914Y-114214285D01*
X163192914Y-114214285D02*
X163288152Y-114261904D01*
X163288152Y-114261904D02*
X163335771Y-114309523D01*
X163335771Y-114309523D02*
X163383390Y-114404761D01*
X163383390Y-114404761D02*
X163383390Y-114595237D01*
X163383390Y-114595237D02*
X163431009Y-114690475D01*
X163431009Y-114690475D02*
X163478628Y-114738094D01*
X163478628Y-114738094D02*
X163573866Y-114785713D01*
X163573866Y-114785713D02*
X163764342Y-114785713D01*
X163764342Y-114785713D02*
X163859580Y-114738094D01*
X163859580Y-114738094D02*
X163907200Y-114690475D01*
X163907200Y-114690475D02*
X163954819Y-114595237D01*
X163954819Y-114595237D02*
X163954819Y-114404761D01*
X163954819Y-114404761D02*
X163907200Y-114309523D01*
X163907200Y-114309523D02*
X163859580Y-114261904D01*
X163859580Y-114261904D02*
X163764342Y-114214285D01*
X163764342Y-114214285D02*
X163573866Y-114214285D01*
X163573866Y-114214285D02*
X163478628Y-114261904D01*
X163478628Y-114261904D02*
X163431009Y-114309523D01*
X163431009Y-114309523D02*
X163383390Y-114404761D01*
D11*
%TO.C,C6*%
X151940000Y-108509420D02*
X151940000Y-108790580D01*
X152960000Y-108509420D02*
X152960000Y-108790580D01*
%TO.C,R3*%
X143877500Y-104012742D02*
X143877500Y-104487258D01*
X144922500Y-104012742D02*
X144922500Y-104487258D01*
D10*
%TO.C,U1*%
X155025000Y-108825000D02*
X159175000Y-108825000D01*
X155025000Y-113975000D02*
X159175000Y-113975000D01*
D11*
X154600000Y-108900000D02*
X154360000Y-108570000D01*
X154840000Y-108570000D01*
X154600000Y-108900000D01*
G36*
X154600000Y-108900000D02*
G01*
X154360000Y-108570000D01*
X154840000Y-108570000D01*
X154600000Y-108900000D01*
G37*
%TO.C,R4*%
X154562742Y-114577500D02*
X155037258Y-114577500D01*
X154562742Y-115622500D02*
X155037258Y-115622500D01*
%TO.C,R7*%
X164627500Y-112262742D02*
X164627500Y-112737258D01*
X165672500Y-112262742D02*
X165672500Y-112737258D01*
%TO.C,R6*%
X164627500Y-109162742D02*
X164627500Y-109637258D01*
X165672500Y-109162742D02*
X165672500Y-109637258D01*
%TO.C,R2*%
X151877500Y-114162742D02*
X151877500Y-114637258D01*
X152922500Y-114162742D02*
X152922500Y-114637258D01*
%TO.C,C3*%
X147140000Y-109761252D02*
X147140000Y-108338748D01*
X149860000Y-109761252D02*
X149860000Y-108338748D01*
%TO.C,C4*%
X150440000Y-109434420D02*
X150440000Y-109715580D01*
X151460000Y-109434420D02*
X151460000Y-109715580D01*
%TO.C,D1*%
X145615000Y-102615000D02*
X145615000Y-104085000D01*
X145615000Y-104085000D02*
X147900000Y-104085000D01*
X147900000Y-102615000D02*
X145615000Y-102615000D01*
%TO.C,C2*%
X143590000Y-109761252D02*
X143590000Y-108338748D01*
X146310000Y-109761252D02*
X146310000Y-108338748D01*
%TO.C,D2*%
X147275000Y-113235000D02*
X149560000Y-113235000D01*
X149560000Y-111765000D02*
X147275000Y-111765000D01*
X149560000Y-113235000D02*
X149560000Y-111765000D01*
%TO.C,C8*%
X156140000Y-104561252D02*
X156140000Y-103138748D01*
X158860000Y-104561252D02*
X158860000Y-103138748D01*
%TO.C,L1*%
X159690000Y-102940000D02*
X160490000Y-102940000D01*
X159690000Y-108060000D02*
X159690000Y-102940000D01*
X159690000Y-108060000D02*
X160490000Y-108060000D01*
X164310000Y-102940000D02*
X163510000Y-102940000D01*
X164310000Y-108060000D02*
X163510000Y-108060000D01*
X164310000Y-108060000D02*
X164310000Y-102940000D01*
%TO.C,R1*%
X144562742Y-111977500D02*
X145037258Y-111977500D01*
X144562742Y-113022500D02*
X145037258Y-113022500D01*
%TO.C,C1*%
X161090000Y-111640580D02*
X161090000Y-111359420D01*
X162110000Y-111640580D02*
X162110000Y-111359420D01*
%TO.C,C5*%
X149140000Y-104511252D02*
X149140000Y-103088748D01*
X151860000Y-104511252D02*
X151860000Y-103088748D01*
%TO.C,C7*%
X152640000Y-103138748D02*
X152640000Y-104561252D01*
X155360000Y-103138748D02*
X155360000Y-104561252D01*
%TO.C,D4*%
X159360000Y-106400000D02*
X155350000Y-106400000D01*
X159360000Y-108400000D02*
X155350000Y-108400000D01*
X159360000Y-108400000D02*
X159360000Y-106400000D01*
%TO.C,J3*%
X139120000Y-101850000D02*
X140450000Y-101850000D01*
X139120000Y-103180000D02*
X139120000Y-101850000D01*
X139120000Y-104450000D02*
X139120000Y-112130000D01*
X139120000Y-104450000D02*
X141780000Y-104450000D01*
X139120000Y-112130000D02*
X141780000Y-112130000D01*
X141780000Y-104450000D02*
X141780000Y-112130000D01*
%TO.C,R8*%
X162977500Y-112687258D02*
X162977500Y-112212742D01*
X164022500Y-112687258D02*
X164022500Y-112212742D01*
%TD*%
M02*
