M48
; DRILL file {KiCad 9.99.0-1075-gc528f3c605} date 2025-05-02T10:06:45+0800
; FORMAT={-:-/ absolute / inch / decimal}
; #@! TF.CreationDate,2025-05-02T10:06:45+08:00
; #@! TF.GenerationSoftware,Kicad,Pcbnew,9.99.0-1075-gc528f3c605
; #@! TF.FileFunction,Plated,1,6,PTH
FMAT,2
INCH
; #@! TA.AperFunction,Plated,PTH,ViaDrill
T1C0.0118
; #@! TA.AperFunction,Plated,PTH,ComponentDrill
T2C0.0118
; #@! TA.AperFunction,Plated,PTH,ComponentDrill
T3C0.0394
%
G90
G05
T1
X5.5738Y-4.4065
X5.5827Y-4.0157
X5.5827Y-4.0512
X5.5827Y-4.0827
X5.5906Y-4.1732
X5.5906Y-4.2126
X5.5906Y-4.252
X5.6024Y-4.3504
X5.6181Y-4.0157
X5.6181Y-4.0512
X5.6181Y-4.0827
X5.6181Y-4.4291
X5.6299Y-4.1732
X5.6299Y-4.2126
X5.6299Y-4.252
X5.6683Y-4.4291
X5.6732Y-4.0157
X5.685Y-4.1368
X5.7067Y-4.2352
X5.7067Y-4.3514
X5.7402Y-4.0157
X5.748Y-4.1437
X5.748Y-4.1831
X5.7795Y-4.3504
X5.7874Y-4.1437
X5.7874Y-4.1831
X5.815Y-4.0157
X5.8268Y-4.1437
X5.8268Y-4.1831
X5.8465Y-4.2352
X5.8465Y-4.3514
X5.8607Y-4.4291
X5.9055Y-4.0787
X5.9252Y-4.0285
X5.9252Y-4.1447
X5.9429Y-4.3445
X5.9685Y-4.1496
X5.9685Y-4.1969
X5.9724Y-4.0787
X6.0Y-4.3622
X6.002Y-4.0335
X6.002Y-4.247
X6.0315Y-4.1496
X6.0315Y-4.1969
X6.0394Y-4.0787
X6.063Y-4.0305
X6.063Y-4.1467
X6.0787Y-4.3608
X6.1102Y-4.0787
X6.1161Y-4.2283
X6.1225Y-4.5271
X6.1614Y-4.2126
X6.1614Y-4.252
X6.1811Y-4.5374
X6.1929Y-4.0787
X6.2008Y-4.0305
X6.2008Y-4.1467
X6.2008Y-4.2126
X6.2008Y-4.252
X6.2205Y-4.5374
X6.2598Y-4.5374
X6.2913Y-4.0276
X6.2992Y-4.5374
X6.3386Y-4.5374
X6.3583Y-4.3608
X6.378Y-4.5374
X6.3809Y-4.0837
X6.437Y-4.3947
X6.501Y-4.2037
X6.502Y-4.2746
T2
X6.1614Y-4.315
X6.1614Y-4.3622
X6.1614Y-4.4134
X6.1614Y-4.4567
X6.2087Y-4.315
X6.2087Y-4.3622
X6.2087Y-4.4134
X6.2087Y-4.4567
T3
X5.5295Y-4.0622
X5.5295Y-4.1622
X5.5295Y-4.2622
X5.5295Y-4.3622
M30
