%TF.GenerationSoftware,KiCad,Pcbnew,9.99.0-1075-gc528f3c605*%
%TF.CreationDate,2025-05-02T10:06:43+08:00*%
%TF.ProjectId,new_dc-dc,6e65775f-6463-42d6-9463-2e6b69636164,rev?*%
%TF.SameCoordinates,Original*%
%TF.FileFunction,Copper,L1,Top*%
%TF.FilePolarity,Positive*%
%FSLAX46Y46*%
G04 Gerber Fmt 4.6, Leading zero omitted, Abs format (unit mm)*
G04 Created by KiCad (PCBNEW 9.99.0-1075-gc528f3c605) date 2025-05-02 10:06:43*
%MOMM*%
%LPD*%
G01*
G04 APERTURE LIST*
G04 Aperture macros list*
%AMRoundRect*
0 Rectangle with rounded corners*
0 $1 Rounding radius*
0 $2 $3 $4 $5 $6 $7 $8 $9 X,Y pos of 4 corners*
0 Add a 4 corners polygon primitive as box body*
4,1,4,$2,$3,$4,$5,$6,$7,$8,$9,$2,$3,0*
0 Add four circle primitives for the rounded corners*
1,1,$1+$1,$2,$3*
1,1,$1+$1,$4,$5*
1,1,$1+$1,$6,$7*
1,1,$1+$1,$8,$9*
0 Add four rect primitives between the rounded corners*
20,1,$1+$1,$2,$3,$4,$5,0*
20,1,$1+$1,$4,$5,$6,$7,0*
20,1,$1+$1,$6,$7,$8,$9,0*
20,1,$1+$1,$8,$9,$2,$3,0*%
G04 Aperture macros list end*
%TA.AperFunction,SMDPad,CuDef*%
%ADD10RoundRect,0.225000X-0.250000X0.225000X-0.250000X-0.225000X0.250000X-0.225000X0.250000X0.225000X0*%
%TD*%
%TA.AperFunction,SMDPad,CuDef*%
%ADD11RoundRect,0.200000X-0.275000X0.200000X-0.275000X-0.200000X0.275000X-0.200000X0.275000X0.200000X0*%
%TD*%
%TA.AperFunction,SMDPad,CuDef*%
%ADD12R,1.550000X0.600000*%
%TD*%
%TA.AperFunction,ComponentPad*%
%ADD13C,0.600000*%
%TD*%
%TA.AperFunction,SMDPad,CuDef*%
%ADD14R,2.600000X3.100000*%
%TD*%
%TA.AperFunction,SMDPad,CuDef*%
%ADD15R,2.950000X4.500000*%
%TD*%
%TA.AperFunction,SMDPad,CuDef*%
%ADD16RoundRect,0.200000X-0.200000X-0.275000X0.200000X-0.275000X0.200000X0.275000X-0.200000X0.275000X0*%
%TD*%
%TA.AperFunction,SMDPad,CuDef*%
%ADD17RoundRect,0.250000X1.100000X-0.325000X1.100000X0.325000X-1.100000X0.325000X-1.100000X-0.325000X0*%
%TD*%
%TA.AperFunction,SMDPad,CuDef*%
%ADD18RoundRect,0.218750X-0.218750X-0.256250X0.218750X-0.256250X0.218750X0.256250X-0.218750X0.256250X0*%
%TD*%
%TA.AperFunction,SMDPad,CuDef*%
%ADD19RoundRect,0.218750X0.218750X0.256250X-0.218750X0.256250X-0.218750X-0.256250X0.218750X-0.256250X0*%
%TD*%
%TA.AperFunction,SMDPad,CuDef*%
%ADD20R,2.500000X1.500000*%
%TD*%
%TA.AperFunction,SMDPad,CuDef*%
%ADD21RoundRect,0.225000X0.250000X-0.225000X0.250000X0.225000X-0.250000X0.225000X-0.250000X-0.225000X0*%
%TD*%
%TA.AperFunction,SMDPad,CuDef*%
%ADD22RoundRect,0.250000X-1.100000X0.325000X-1.100000X-0.325000X1.100000X-0.325000X1.100000X0.325000X0*%
%TD*%
%TA.AperFunction,SMDPad,CuDef*%
%ADD23RoundRect,0.225000X0.225000X0.375000X-0.225000X0.375000X-0.225000X-0.375000X0.225000X-0.375000X0*%
%TD*%
%TA.AperFunction,ComponentPad*%
%ADD24R,1.700000X1.700000*%
%TD*%
%TA.AperFunction,ComponentPad*%
%ADD25O,1.700000X1.700000*%
%TD*%
%TA.AperFunction,SMDPad,CuDef*%
%ADD26RoundRect,0.200000X0.275000X-0.200000X0.275000X0.200000X-0.275000X0.200000X-0.275000X-0.200000X0*%
%TD*%
%TA.AperFunction,ViaPad*%
%ADD27C,0.600000*%
%TD*%
%TA.AperFunction,Conductor*%
%ADD28C,0.600000*%
%TD*%
%TA.AperFunction,Conductor*%
%ADD29C,0.800000*%
%TD*%
%TA.AperFunction,Conductor*%
%ADD30C,0.200000*%
%TD*%
G04 APERTURE END LIST*
D10*
%TO.P,C6,1*%
%TO.N,24V{slash}3A*%
X152450000Y-107875000D03*
%TO.P,C6,2*%
%TO.N,Net-(U1-BOOT)*%
X152450000Y-109425000D03*
%TD*%
D11*
%TO.P,R3,1*%
%TO.N,Net-(D1-K)*%
X144400000Y-103425000D03*
%TO.P,R3,2*%
%TO.N,GND*%
X144400000Y-105075000D03*
%TD*%
D12*
%TO.P,U1,1,BOOT*%
%TO.N,Net-(U1-BOOT)*%
X154400000Y-109495000D03*
%TO.P,U1,2,VIN*%
%TO.N,VCC*%
X154400000Y-110765000D03*
%TO.P,U1,3,EN*%
%TO.N,unconnected-(U1-EN-Pad3)*%
X154400000Y-112035000D03*
%TO.P,U1,4,RT/YNC*%
%TO.N,Net-(U1-RT{slash}YNC)*%
X154400000Y-113305000D03*
%TO.P,U1,5,FB*%
%TO.N,Net-(U1-FB)*%
X159800000Y-113305000D03*
%TO.P,U1,6,SS/PGOOD*%
%TO.N,Net-(U1-SS{slash}PGOOD)*%
X159800000Y-112035000D03*
%TO.P,U1,7,GND*%
%TO.N,GND*%
X159800000Y-110765000D03*
%TO.P,U1,8,SW*%
%TO.N,Net-(D4-K)*%
X159800000Y-109495000D03*
D13*
%TO.P,U1,9,EP*%
%TO.N,GND*%
X156500000Y-109600000D03*
X156500000Y-110800000D03*
X156500000Y-112100000D03*
X156500000Y-113200000D03*
D14*
X157100000Y-111400000D03*
D15*
X157100000Y-111400000D03*
D13*
X157700000Y-109600000D03*
X157700000Y-110800000D03*
X157700000Y-112100000D03*
X157700000Y-113200000D03*
%TD*%
D16*
%TO.P,R4,1*%
%TO.N,Net-(R2-Pad2)*%
X153975000Y-115100000D03*
%TO.P,R4,2*%
%TO.N,GND*%
X155625000Y-115100000D03*
%TD*%
D11*
%TO.P,R7,1*%
%TO.N,Net-(R6-Pad2)*%
X165150000Y-111675000D03*
%TO.P,R7,2*%
%TO.N,Net-(U1-FB)*%
X165150000Y-113325000D03*
%TD*%
%TO.P,R6,1*%
%TO.N,24V{slash}3A*%
X165150000Y-108575000D03*
%TO.P,R6,2*%
%TO.N,Net-(R6-Pad2)*%
X165150000Y-110225000D03*
%TD*%
%TO.P,R2,1*%
%TO.N,Net-(U1-RT{slash}YNC)*%
X152400000Y-113575000D03*
%TO.P,R2,2*%
%TO.N,Net-(R2-Pad2)*%
X152400000Y-115225000D03*
%TD*%
D17*
%TO.P,C3,1*%
%TO.N,VCC*%
X148500000Y-110525000D03*
%TO.P,C3,2*%
%TO.N,GND*%
X148500000Y-107575000D03*
%TD*%
D10*
%TO.P,C4,1*%
%TO.N,GND*%
X150950000Y-108800000D03*
%TO.P,C4,2*%
%TO.N,VCC*%
X150950000Y-110350000D03*
%TD*%
D18*
%TO.P,D1,1,K*%
%TO.N,Net-(D1-K)*%
X146312500Y-103350000D03*
%TO.P,D1,2,A*%
%TO.N,24V{slash}3A*%
X147887500Y-103350000D03*
%TD*%
D17*
%TO.P,C2,1*%
%TO.N,VCC*%
X144950000Y-110525000D03*
%TO.P,C2,2*%
%TO.N,GND*%
X144950000Y-107575000D03*
%TD*%
D19*
%TO.P,D2,1,K*%
%TO.N,GND*%
X148862500Y-112500000D03*
%TO.P,D2,2,A*%
%TO.N,Net-(D2-A)*%
X147287500Y-112500000D03*
%TD*%
D17*
%TO.P,C8,1*%
%TO.N,GND*%
X157500000Y-105325000D03*
%TO.P,C8,2*%
%TO.N,24V{slash}3A*%
X157500000Y-102375000D03*
%TD*%
D20*
%TO.P,L1,1,1*%
%TO.N,Net-(D4-K)*%
X162000000Y-107350000D03*
%TO.P,L1,2,2*%
%TO.N,24V{slash}3A*%
X162000000Y-103650000D03*
%TD*%
D16*
%TO.P,R1,1*%
%TO.N,VCC*%
X143975000Y-112500000D03*
%TO.P,R1,2*%
%TO.N,Net-(D2-A)*%
X145625000Y-112500000D03*
%TD*%
D21*
%TO.P,C1,1*%
%TO.N,Net-(U1-SS{slash}PGOOD)*%
X161600000Y-112275000D03*
%TO.P,C1,2*%
%TO.N,GND*%
X161600000Y-110725000D03*
%TD*%
D17*
%TO.P,C5,1*%
%TO.N,GND*%
X150500000Y-105275000D03*
%TO.P,C5,2*%
%TO.N,24V{slash}3A*%
X150500000Y-102325000D03*
%TD*%
D22*
%TO.P,C7,1*%
%TO.N,24V{slash}3A*%
X154000000Y-102375000D03*
%TO.P,C7,2*%
%TO.N,GND*%
X154000000Y-105325000D03*
%TD*%
D23*
%TO.P,D4,1,K*%
%TO.N,Net-(D4-K)*%
X158650000Y-107400000D03*
%TO.P,D4,2,A*%
%TO.N,GND*%
X155350000Y-107400000D03*
%TD*%
D24*
%TO.P,J3,1,Pin_1*%
%TO.N,24V{slash}3A*%
X140450000Y-103180000D03*
D25*
%TO.P,J3,2,Pin_2*%
%TO.N,GND*%
X140450000Y-105720000D03*
%TO.P,J3,3,Pin_3*%
X140450000Y-108260000D03*
%TO.P,J3,4,Pin_4*%
%TO.N,VCC*%
X140450000Y-110800000D03*
%TD*%
D26*
%TO.P,R8,1*%
%TO.N,Net-(U1-FB)*%
X163500000Y-113275000D03*
%TO.P,R8,2*%
%TO.N,GND*%
X163500000Y-111625000D03*
%TD*%
D27*
%TO.N,24V{slash}3A*%
X165150000Y-108575000D03*
X165125000Y-106775000D03*
X159800000Y-102300000D03*
X162075000Y-103725000D03*
X150500000Y-102325000D03*
X154000000Y-102375000D03*
X157500000Y-102375000D03*
X157300000Y-103600000D03*
X155200000Y-103600000D03*
X153400000Y-103600000D03*
X151700000Y-103600000D03*
X150000000Y-103600000D03*
X147700000Y-102000000D03*
X145800000Y-102000000D03*
X144100000Y-102000000D03*
X142700000Y-102000000D03*
X141800000Y-102000000D03*
X142700000Y-103700000D03*
X141800000Y-103700000D03*
X142700000Y-102900000D03*
X141800000Y-102900000D03*
%TO.N,VCC*%
X152400000Y-110800000D03*
X146800000Y-110500000D03*
X142300000Y-110500000D03*
X142700000Y-112500000D03*
X141575000Y-111925000D03*
X143975000Y-112500000D03*
X154400000Y-110765000D03*
X150950000Y-110350000D03*
X148500000Y-110525000D03*
X144950000Y-110525000D03*
%TO.N,GND*%
X161500000Y-110765000D03*
X162000000Y-115250000D03*
X148862500Y-112500000D03*
X155512500Y-114987500D03*
X157500000Y-105325000D03*
X143000000Y-108000000D03*
X158000000Y-115250000D03*
X148000000Y-106250000D03*
X142000000Y-106000000D03*
X161000000Y-115250000D03*
X144400000Y-105075000D03*
X155350000Y-107400000D03*
X153200000Y-106600000D03*
X147000000Y-105250000D03*
X146000000Y-105250000D03*
X148000000Y-105250000D03*
X142000000Y-107000000D03*
X156500000Y-107000000D03*
X144950000Y-107575000D03*
X146000000Y-106250000D03*
X151600000Y-105400000D03*
X153200000Y-105400000D03*
X150500000Y-105275000D03*
X159000000Y-115250000D03*
X147000000Y-106250000D03*
X151600000Y-106600000D03*
X143000000Y-107000000D03*
X157000000Y-115250000D03*
X154000000Y-105325000D03*
X160000000Y-115250000D03*
X143000000Y-106000000D03*
X142000000Y-108000000D03*
X157500000Y-107000000D03*
X163500000Y-111625000D03*
X148500000Y-107575000D03*
X156500000Y-108000000D03*
X157500000Y-108000000D03*
%TO.N,24V{slash}3A*%
X152450000Y-102450000D03*
X152450000Y-107875000D03*
%TD*%
D28*
%TO.N,24V{slash}3A*%
X165125000Y-106775000D02*
X162075000Y-103725000D01*
X162075000Y-103725000D02*
X162000000Y-103650000D01*
D29*
%TO.N,VCC*%
X142700000Y-112500000D02*
X142150000Y-112500000D01*
X141575000Y-111925000D02*
X140450000Y-110800000D01*
D28*
%TO.N,GND*%
X159800000Y-110765000D02*
X161500000Y-110765000D01*
D30*
X155625000Y-115100000D02*
X155512500Y-114987500D01*
X154849000Y-114324000D02*
X150686500Y-114324000D01*
D28*
X161500000Y-110765000D02*
X161560000Y-110765000D01*
X161560000Y-110765000D02*
X161600000Y-110725000D01*
X159800000Y-110765000D02*
X157735000Y-110765000D01*
X162600000Y-110725000D02*
X163500000Y-111625000D01*
D30*
X155512500Y-114987500D02*
X154849000Y-114324000D01*
D28*
X157735000Y-110765000D02*
X157700000Y-110800000D01*
D30*
X150686500Y-114324000D02*
X148862500Y-112500000D01*
D28*
X161600000Y-110725000D02*
X162600000Y-110725000D01*
D29*
%TO.N,VCC*%
X142150000Y-112500000D02*
X141575000Y-111925000D01*
X143975000Y-112500000D02*
X142700000Y-112500000D01*
D28*
%TO.N,24V{slash}3A*%
X165150000Y-108575000D02*
X165150000Y-106800000D01*
X165150000Y-106800000D02*
X165125000Y-106775000D01*
%TO.N,Net-(U1-BOOT)*%
X152520000Y-109495000D02*
X152450000Y-109425000D01*
X154400000Y-109495000D02*
X152520000Y-109495000D01*
%TO.N,Net-(D1-K)*%
X146312500Y-103350000D02*
X144475000Y-103350000D01*
X144475000Y-103350000D02*
X144400000Y-103425000D01*
%TO.N,Net-(U1-RT{slash}YNC)*%
X152670000Y-113305000D02*
X152400000Y-113575000D01*
X154400000Y-113305000D02*
X152670000Y-113305000D01*
%TO.N,Net-(R6-Pad2)*%
X165150000Y-110225000D02*
X165150000Y-111675000D01*
%TO.N,Net-(U1-FB)*%
X159820000Y-113325000D02*
X159800000Y-113305000D01*
X165150000Y-113325000D02*
X159820000Y-113325000D01*
%TO.N,Net-(R2-Pad2)*%
X153850000Y-115225000D02*
X153975000Y-115100000D01*
X152400000Y-115225000D02*
X153850000Y-115225000D01*
%TO.N,Net-(D2-A)*%
X145625000Y-112500000D02*
X147287500Y-112500000D01*
%TO.N,Net-(U1-SS{slash}PGOOD)*%
X161360000Y-112035000D02*
X161600000Y-112275000D01*
X159800000Y-112035000D02*
X161360000Y-112035000D01*
%TD*%
%TA.AperFunction,Conductor*%
%TO.N,Net-(D4-K)*%
G36*
X160684678Y-106624867D02*
G01*
X160734421Y-106673932D01*
X160750000Y-106734105D01*
X160750000Y-107100000D01*
X161876000Y-107100000D01*
X161943039Y-107119685D01*
X161988794Y-107172489D01*
X162000000Y-107224000D01*
X162000000Y-107350000D01*
X162126000Y-107350000D01*
X162193039Y-107369685D01*
X162238794Y-107422489D01*
X162250000Y-107474000D01*
X162250000Y-108100000D01*
X162616984Y-108100000D01*
X162684023Y-108119685D01*
X162729778Y-108172489D01*
X162739722Y-108241647D01*
X162710697Y-108305203D01*
X162663769Y-108338834D01*
X160610591Y-109175315D01*
X160584769Y-109185835D01*
X160537984Y-109195000D01*
X160050000Y-109195000D01*
X160050000Y-109200000D01*
X159550000Y-109200000D01*
X159550000Y-109195000D01*
X159196868Y-109195000D01*
X159129829Y-109175315D01*
X159084074Y-109122511D01*
X159073578Y-109084254D01*
X159069091Y-109042516D01*
X159018797Y-108907671D01*
X159018796Y-108907670D01*
X159018796Y-108907669D01*
X158932546Y-108792454D01*
X158887554Y-108758773D01*
X158853649Y-108720047D01*
X158839052Y-108693955D01*
X158810889Y-108643611D01*
X158422570Y-108135809D01*
X158408794Y-108100000D01*
X160750000Y-108100000D01*
X161750000Y-108100000D01*
X161750000Y-107600000D01*
X160750000Y-107600000D01*
X160750000Y-108100000D01*
X158408794Y-108100000D01*
X158397484Y-108070599D01*
X158400073Y-108058083D01*
X158400000Y-108058083D01*
X158400000Y-107999435D01*
X158900000Y-107999435D01*
X158962786Y-107986946D01*
X158962790Y-107986944D01*
X159037215Y-107937215D01*
X159086944Y-107862790D01*
X159086946Y-107862786D01*
X159099999Y-107797164D01*
X159100000Y-107797162D01*
X159100000Y-107650000D01*
X158900000Y-107650000D01*
X158900000Y-107999435D01*
X158400000Y-107999435D01*
X158400000Y-107524000D01*
X158419685Y-107456961D01*
X158472489Y-107411206D01*
X158524000Y-107400000D01*
X158650000Y-107400000D01*
X158650000Y-107274000D01*
X158669685Y-107206961D01*
X158722489Y-107161206D01*
X158774000Y-107150000D01*
X159100000Y-107150000D01*
X159100000Y-107002837D01*
X159099999Y-107002835D01*
X159086946Y-106937213D01*
X159086945Y-106937210D01*
X159073237Y-106916694D01*
X159052360Y-106850016D01*
X159070845Y-106782636D01*
X159122824Y-106735947D01*
X159166639Y-106724185D01*
X160616307Y-106610485D01*
X160684678Y-106624867D01*
G37*
%TD.AperFunction*%
%TD*%
%TA.AperFunction,Conductor*%
%TO.N,GND*%
G36*
X146851679Y-104418921D02*
G01*
X146865861Y-104429535D01*
X146953605Y-104505567D01*
X146953608Y-104505568D01*
X146953609Y-104505569D01*
X147047853Y-104548610D01*
X147084482Y-104565338D01*
X147151521Y-104585023D01*
X147151525Y-104585024D01*
X147293941Y-104605500D01*
X147293944Y-104605500D01*
X149097528Y-104605500D01*
X149164567Y-104625185D01*
X149210322Y-104677989D01*
X149220266Y-104747147D01*
X149200630Y-104798391D01*
X149164505Y-104852455D01*
X149164503Y-104852459D01*
X149150000Y-104925371D01*
X149150000Y-105025000D01*
X151850000Y-105025000D01*
X151850000Y-104925373D01*
X151849999Y-104925371D01*
X151835496Y-104852459D01*
X151835494Y-104852455D01*
X151799370Y-104798391D01*
X151778492Y-104731714D01*
X151796976Y-104664333D01*
X151848955Y-104617643D01*
X151902472Y-104605500D01*
X152634658Y-104605500D01*
X152701697Y-104625185D01*
X152747452Y-104677989D01*
X152757396Y-104747147D01*
X152728371Y-104810703D01*
X152722339Y-104817181D01*
X152719760Y-104819759D01*
X152664505Y-104902455D01*
X152664503Y-104902459D01*
X152650000Y-104975371D01*
X152650000Y-105075000D01*
X155350000Y-105075000D01*
X155350000Y-104975373D01*
X155349999Y-104975371D01*
X155335496Y-104902459D01*
X155335494Y-104902455D01*
X155280239Y-104819759D01*
X155277661Y-104817181D01*
X155273836Y-104810176D01*
X155273455Y-104809606D01*
X155273506Y-104809571D01*
X155244176Y-104755858D01*
X155249160Y-104686166D01*
X155291032Y-104630233D01*
X155356496Y-104605816D01*
X155365342Y-104605500D01*
X156134658Y-104605500D01*
X156201697Y-104625185D01*
X156247452Y-104677989D01*
X156257396Y-104747147D01*
X156228371Y-104810703D01*
X156222339Y-104817181D01*
X156219760Y-104819759D01*
X156164505Y-104902455D01*
X156164503Y-104902459D01*
X156150000Y-104975371D01*
X156150000Y-105075000D01*
X158850000Y-105075000D01*
X158850000Y-104975373D01*
X158849999Y-104975371D01*
X158835496Y-104902459D01*
X158835494Y-104902455D01*
X158780239Y-104819759D01*
X158777661Y-104817181D01*
X158773836Y-104810176D01*
X158773455Y-104809606D01*
X158773506Y-104809571D01*
X158744176Y-104755858D01*
X158749160Y-104686166D01*
X158791032Y-104630233D01*
X158856496Y-104605816D01*
X158865342Y-104605500D01*
X159126000Y-104605500D01*
X159193039Y-104625185D01*
X159238794Y-104677989D01*
X159250000Y-104729500D01*
X159250000Y-105725936D01*
X159230315Y-105792975D01*
X159184790Y-105835112D01*
X158986520Y-105941874D01*
X158918161Y-105956325D01*
X158852841Y-105931525D01*
X158811298Y-105875347D01*
X158806722Y-105805627D01*
X158824631Y-105763802D01*
X158835495Y-105747542D01*
X158835496Y-105747540D01*
X158849999Y-105674628D01*
X158850000Y-105674626D01*
X158850000Y-105575000D01*
X157750000Y-105575000D01*
X157750000Y-105900000D01*
X158572452Y-105900000D01*
X158639491Y-105919685D01*
X158685246Y-105972489D01*
X158695190Y-106041647D01*
X158666165Y-106105203D01*
X158631242Y-106133177D01*
X158481284Y-106213924D01*
X158331328Y-106294669D01*
X158285150Y-106308847D01*
X158277295Y-106309649D01*
X158277292Y-106309650D01*
X158116305Y-106362996D01*
X158116294Y-106363001D01*
X157971959Y-106452029D01*
X157971955Y-106452032D01*
X157852032Y-106571955D01*
X157852029Y-106571959D01*
X157763001Y-106716294D01*
X157762996Y-106716305D01*
X157709651Y-106877290D01*
X157699500Y-106976647D01*
X157699500Y-107823337D01*
X157699501Y-107823355D01*
X157709650Y-107922707D01*
X157709651Y-107922710D01*
X157762996Y-108083694D01*
X157763001Y-108083705D01*
X157852029Y-108228040D01*
X157852032Y-108228044D01*
X157917240Y-108293252D01*
X157947011Y-108341170D01*
X157950000Y-108350000D01*
X158409341Y-108950677D01*
X158434428Y-109015887D01*
X158420276Y-109084308D01*
X158371380Y-109134217D01*
X158310841Y-109150000D01*
X157350000Y-109150000D01*
X157350000Y-109336688D01*
X156850000Y-109334672D01*
X156850000Y-109150000D01*
X155778491Y-109150000D01*
X155711452Y-109130315D01*
X155665697Y-109077511D01*
X155662309Y-109069333D01*
X155618797Y-108952671D01*
X155618793Y-108952664D01*
X155532547Y-108837455D01*
X155532544Y-108837452D01*
X155417335Y-108751206D01*
X155417328Y-108751202D01*
X155282482Y-108700908D01*
X155282483Y-108700908D01*
X155222883Y-108694501D01*
X155222881Y-108694500D01*
X155222873Y-108694500D01*
X155222865Y-108694500D01*
X153407892Y-108694500D01*
X153340853Y-108674815D01*
X153295098Y-108622011D01*
X153285154Y-108552853D01*
X153302354Y-108505403D01*
X153361998Y-108408705D01*
X153361997Y-108408705D01*
X153362003Y-108408697D01*
X153415349Y-108247708D01*
X153425500Y-108148345D01*
X153425499Y-107797164D01*
X154900000Y-107797164D01*
X154913053Y-107862786D01*
X154913055Y-107862790D01*
X154962784Y-107937215D01*
X155037209Y-107986944D01*
X155037213Y-107986946D01*
X155099999Y-107999435D01*
X155600000Y-107999435D01*
X155662786Y-107986946D01*
X155662790Y-107986944D01*
X155737215Y-107937215D01*
X155786944Y-107862790D01*
X155786946Y-107862786D01*
X155799999Y-107797164D01*
X155800000Y-107797162D01*
X155800000Y-107650000D01*
X155600000Y-107650000D01*
X155600000Y-107999435D01*
X155099999Y-107999435D01*
X155100000Y-107999434D01*
X155100000Y-107650000D01*
X154900000Y-107650000D01*
X154900000Y-107797164D01*
X153425499Y-107797164D01*
X153425499Y-107601656D01*
X153425305Y-107599761D01*
X153415349Y-107502292D01*
X153415348Y-107502289D01*
X153362003Y-107341303D01*
X153361999Y-107341297D01*
X153361998Y-107341294D01*
X153272970Y-107196959D01*
X153272967Y-107196955D01*
X153153044Y-107077032D01*
X153153040Y-107077029D01*
X153032754Y-107002835D01*
X154900000Y-107002835D01*
X154900000Y-107150000D01*
X155100000Y-107150000D01*
X155600000Y-107150000D01*
X155800000Y-107150000D01*
X155800000Y-107002837D01*
X155799999Y-107002835D01*
X155786946Y-106937213D01*
X155786944Y-106937209D01*
X155737215Y-106862784D01*
X155662792Y-106813056D01*
X155662789Y-106813055D01*
X155600000Y-106800564D01*
X155600000Y-107150000D01*
X155100000Y-107150000D01*
X155100000Y-106800564D01*
X155037210Y-106813055D01*
X155037207Y-106813056D01*
X154962784Y-106862784D01*
X154913055Y-106937209D01*
X154913053Y-106937213D01*
X154900000Y-107002835D01*
X153032754Y-107002835D01*
X153008705Y-106988001D01*
X153008699Y-106987998D01*
X153008697Y-106987997D01*
X152974445Y-106976647D01*
X152847709Y-106934651D01*
X152748346Y-106924500D01*
X152151662Y-106924500D01*
X152151644Y-106924501D01*
X152052292Y-106934650D01*
X152052289Y-106934651D01*
X151891305Y-106987996D01*
X151891294Y-106988001D01*
X151746959Y-107077029D01*
X151746955Y-107077032D01*
X151627032Y-107196955D01*
X151627029Y-107196959D01*
X151538001Y-107341294D01*
X151537996Y-107341305D01*
X151484651Y-107502290D01*
X151474500Y-107601647D01*
X151474500Y-108148337D01*
X151474502Y-108148357D01*
X151484949Y-108250633D01*
X151472179Y-108319325D01*
X151424298Y-108370209D01*
X151356508Y-108387129D01*
X151292702Y-108366337D01*
X151287789Y-108363054D01*
X151287786Y-108363053D01*
X151222163Y-108350000D01*
X151200000Y-108350000D01*
X151200000Y-108676000D01*
X151180315Y-108743039D01*
X151127511Y-108788794D01*
X151076000Y-108800000D01*
X150950000Y-108800000D01*
X150950000Y-108926000D01*
X150930315Y-108993039D01*
X150877511Y-109038794D01*
X150826000Y-109050000D01*
X150475564Y-109050000D01*
X150488053Y-109112786D01*
X150488054Y-109112789D01*
X150490012Y-109115719D01*
X150492314Y-109123073D01*
X150492728Y-109124071D01*
X150492638Y-109124108D01*
X150510889Y-109182396D01*
X150492404Y-109249776D01*
X150440425Y-109296466D01*
X150386409Y-109308608D01*
X140855257Y-109270178D01*
X140788297Y-109250223D01*
X140742756Y-109197235D01*
X140733091Y-109128037D01*
X140762372Y-109064599D01*
X140808306Y-109031617D01*
X140852629Y-109013258D01*
X140991839Y-108920241D01*
X140991847Y-108920235D01*
X141110235Y-108801847D01*
X141110241Y-108801839D01*
X141203259Y-108662628D01*
X141203259Y-108662627D01*
X141249912Y-108549999D01*
X150475564Y-108549999D01*
X150475565Y-108550000D01*
X150700000Y-108550000D01*
X150700000Y-108350000D01*
X150677837Y-108350000D01*
X150612213Y-108363053D01*
X150612209Y-108363055D01*
X150537784Y-108412784D01*
X150488055Y-108487209D01*
X150488053Y-108487213D01*
X150475564Y-108549999D01*
X141249912Y-108549999D01*
X141255762Y-108535876D01*
X141266480Y-108510000D01*
X140883012Y-108510000D01*
X140915925Y-108452993D01*
X140950000Y-108325826D01*
X140950000Y-108194174D01*
X140915925Y-108067007D01*
X140883012Y-108010000D01*
X141266480Y-108010000D01*
X141266479Y-108009999D01*
X141231117Y-107924628D01*
X143600000Y-107924628D01*
X143614503Y-107997540D01*
X143614505Y-107997544D01*
X143669760Y-108080239D01*
X143752455Y-108135494D01*
X143752459Y-108135496D01*
X143825371Y-108149999D01*
X143825374Y-108150000D01*
X144700000Y-108150000D01*
X145200000Y-108150000D01*
X146074626Y-108150000D01*
X146074628Y-108149999D01*
X146147540Y-108135496D01*
X146147544Y-108135494D01*
X146230239Y-108080239D01*
X146285494Y-107997544D01*
X146285496Y-107997540D01*
X146299999Y-107924628D01*
X147150000Y-107924628D01*
X147164503Y-107997540D01*
X147164505Y-107997544D01*
X147219760Y-108080239D01*
X147302455Y-108135494D01*
X147302459Y-108135496D01*
X147375371Y-108149999D01*
X147375374Y-108150000D01*
X148250000Y-108150000D01*
X148750000Y-108150000D01*
X149624626Y-108150000D01*
X149624628Y-108149999D01*
X149697540Y-108135496D01*
X149697544Y-108135494D01*
X149780239Y-108080239D01*
X149835494Y-107997544D01*
X149835496Y-107997540D01*
X149849999Y-107924628D01*
X149850000Y-107924626D01*
X149850000Y-107825000D01*
X148750000Y-107825000D01*
X148750000Y-108150000D01*
X148250000Y-108150000D01*
X148250000Y-107825000D01*
X147150000Y-107825000D01*
X147150000Y-107924628D01*
X146299999Y-107924628D01*
X146300000Y-107924626D01*
X146300000Y-107825000D01*
X145200000Y-107825000D01*
X145200000Y-108150000D01*
X144700000Y-108150000D01*
X144700000Y-107825000D01*
X143600000Y-107825000D01*
X143600000Y-107924628D01*
X141231117Y-107924628D01*
X141203259Y-107857372D01*
X141203259Y-107857371D01*
X141193341Y-107842528D01*
X141110241Y-107718160D01*
X141110235Y-107718152D01*
X140991844Y-107599761D01*
X140852632Y-107506743D01*
X140852622Y-107506738D01*
X140700000Y-107443519D01*
X140700000Y-107826988D01*
X140642993Y-107794075D01*
X140515826Y-107760000D01*
X140384174Y-107760000D01*
X140257007Y-107794075D01*
X140200000Y-107826988D01*
X140200000Y-107443519D01*
X140047377Y-107506738D01*
X140047367Y-107506743D01*
X139908155Y-107599761D01*
X139789764Y-107718152D01*
X139789758Y-107718160D01*
X139696740Y-107857371D01*
X139696740Y-107857372D01*
X139633520Y-108009999D01*
X139633520Y-108010000D01*
X140016988Y-108010000D01*
X139984075Y-108067007D01*
X139950000Y-108194174D01*
X139950000Y-108325826D01*
X139984075Y-108452993D01*
X140016988Y-108510000D01*
X139633520Y-108510000D01*
X139696740Y-108662627D01*
X139696740Y-108662628D01*
X139789758Y-108801839D01*
X139789764Y-108801847D01*
X139908152Y-108920235D01*
X139908160Y-108920241D01*
X140047371Y-109013259D01*
X140047375Y-109013260D01*
X140083717Y-109028314D01*
X140138121Y-109072154D01*
X140160186Y-109138448D01*
X140142907Y-109206148D01*
X140091770Y-109253759D01*
X140035765Y-109266874D01*
X139173500Y-109263397D01*
X139106540Y-109243442D01*
X139060999Y-109190454D01*
X139050000Y-109139398D01*
X139050000Y-107225371D01*
X143600000Y-107225371D01*
X143600000Y-107325000D01*
X144700000Y-107325000D01*
X145200000Y-107325000D01*
X146300000Y-107325000D01*
X146300000Y-107225373D01*
X146299999Y-107225371D01*
X147150000Y-107225371D01*
X147150000Y-107325000D01*
X148250000Y-107325000D01*
X148750000Y-107325000D01*
X149850000Y-107325000D01*
X149850000Y-107225373D01*
X149849999Y-107225371D01*
X149835496Y-107152459D01*
X149835494Y-107152455D01*
X149780239Y-107069760D01*
X149697544Y-107014505D01*
X149697540Y-107014503D01*
X149624627Y-107000000D01*
X148750000Y-107000000D01*
X148750000Y-107325000D01*
X148250000Y-107325000D01*
X148250000Y-107000000D01*
X147375373Y-107000000D01*
X147302459Y-107014503D01*
X147302455Y-107014505D01*
X147219760Y-107069760D01*
X147164505Y-107152455D01*
X147164503Y-107152459D01*
X147150000Y-107225371D01*
X146299999Y-107225371D01*
X146285496Y-107152459D01*
X146285494Y-107152455D01*
X146230239Y-107069760D01*
X146147544Y-107014505D01*
X146147540Y-107014503D01*
X146074627Y-107000000D01*
X145200000Y-107000000D01*
X145200000Y-107325000D01*
X144700000Y-107325000D01*
X144700000Y-107000000D01*
X143825373Y-107000000D01*
X143752459Y-107014503D01*
X143752455Y-107014505D01*
X143669760Y-107069760D01*
X143614505Y-107152455D01*
X143614503Y-107152459D01*
X143600000Y-107225371D01*
X139050000Y-107225371D01*
X139050000Y-105469999D01*
X139633520Y-105469999D01*
X139633520Y-105470000D01*
X140016988Y-105470000D01*
X139984075Y-105527007D01*
X139950000Y-105654174D01*
X139950000Y-105785826D01*
X139984075Y-105912993D01*
X140016988Y-105970000D01*
X139633520Y-105970000D01*
X139696740Y-106122627D01*
X139696740Y-106122628D01*
X139789758Y-106261839D01*
X139789764Y-106261847D01*
X139908152Y-106380235D01*
X139908160Y-106380241D01*
X140047372Y-106473259D01*
X140199999Y-106536479D01*
X140200000Y-106536479D01*
X140200000Y-106153012D01*
X140257007Y-106185925D01*
X140384174Y-106220000D01*
X140515826Y-106220000D01*
X140642993Y-106185925D01*
X140700000Y-106153012D01*
X140700000Y-106536479D01*
X140852627Y-106473259D01*
X140852628Y-106473259D01*
X140991839Y-106380241D01*
X140991847Y-106380235D01*
X141110235Y-106261847D01*
X141110241Y-106261839D01*
X141203259Y-106122628D01*
X141203259Y-106122627D01*
X141266480Y-105970000D01*
X140883012Y-105970000D01*
X140915925Y-105912993D01*
X140950000Y-105785826D01*
X140950000Y-105654174D01*
X140942083Y-105624628D01*
X149150000Y-105624628D01*
X149164503Y-105697540D01*
X149164505Y-105697544D01*
X149219760Y-105780239D01*
X149302455Y-105835494D01*
X149302459Y-105835496D01*
X149375371Y-105849999D01*
X149375374Y-105850000D01*
X150250000Y-105850000D01*
X150750000Y-105850000D01*
X151624626Y-105850000D01*
X151624628Y-105849999D01*
X151697540Y-105835496D01*
X151697544Y-105835494D01*
X151780239Y-105780239D01*
X151835494Y-105697544D01*
X151835496Y-105697540D01*
X151840053Y-105674628D01*
X152650000Y-105674628D01*
X152664503Y-105747540D01*
X152664505Y-105747544D01*
X152719760Y-105830239D01*
X152802455Y-105885494D01*
X152802459Y-105885496D01*
X152875371Y-105899999D01*
X152875374Y-105900000D01*
X153750000Y-105900000D01*
X154250000Y-105900000D01*
X155124626Y-105900000D01*
X155124628Y-105899999D01*
X155197540Y-105885496D01*
X155197544Y-105885494D01*
X155280239Y-105830239D01*
X155335494Y-105747544D01*
X155335496Y-105747540D01*
X155349999Y-105674628D01*
X156150000Y-105674628D01*
X156164503Y-105747540D01*
X156164505Y-105747544D01*
X156219760Y-105830239D01*
X156302455Y-105885494D01*
X156302459Y-105885496D01*
X156375371Y-105899999D01*
X156375374Y-105900000D01*
X157250000Y-105900000D01*
X157250000Y-105575000D01*
X156150000Y-105575000D01*
X156150000Y-105674628D01*
X155349999Y-105674628D01*
X155350000Y-105674626D01*
X155350000Y-105575000D01*
X154250000Y-105575000D01*
X154250000Y-105900000D01*
X153750000Y-105900000D01*
X153750000Y-105575000D01*
X152650000Y-105575000D01*
X152650000Y-105674628D01*
X151840053Y-105674628D01*
X151849999Y-105624628D01*
X151850000Y-105624626D01*
X151850000Y-105525000D01*
X150750000Y-105525000D01*
X150750000Y-105850000D01*
X150250000Y-105850000D01*
X150250000Y-105525000D01*
X149150000Y-105525000D01*
X149150000Y-105624628D01*
X140942083Y-105624628D01*
X140915925Y-105527007D01*
X140883012Y-105470000D01*
X141266480Y-105470000D01*
X141266479Y-105469999D01*
X141212279Y-105339150D01*
X141212268Y-105339123D01*
X141206418Y-105325000D01*
X143931027Y-105325000D01*
X143936604Y-105353035D01*
X143980808Y-105419191D01*
X144046965Y-105463396D01*
X144046966Y-105463397D01*
X144105297Y-105474999D01*
X144105301Y-105475000D01*
X144150000Y-105475000D01*
X144650000Y-105475000D01*
X144694699Y-105475000D01*
X144694702Y-105474999D01*
X144753033Y-105463397D01*
X144753034Y-105463396D01*
X144819192Y-105419191D01*
X144828842Y-105404750D01*
X144828843Y-105404748D01*
X144863395Y-105353035D01*
X144868973Y-105325000D01*
X144650000Y-105325000D01*
X144650000Y-105475000D01*
X144150000Y-105475000D01*
X144150000Y-105325000D01*
X143931027Y-105325000D01*
X141206418Y-105325000D01*
X141203257Y-105317369D01*
X141110241Y-105178160D01*
X141110235Y-105178152D01*
X140991844Y-105059761D01*
X140852629Y-104966741D01*
X140852625Y-104966739D01*
X140700000Y-104903519D01*
X140700000Y-105286988D01*
X140642993Y-105254075D01*
X140515826Y-105220000D01*
X140384174Y-105220000D01*
X140257007Y-105254075D01*
X140200000Y-105286988D01*
X140200000Y-104903519D01*
X140047377Y-104966738D01*
X140047367Y-104966743D01*
X139908155Y-105059761D01*
X139789764Y-105178152D01*
X139789758Y-105178160D01*
X139696740Y-105317371D01*
X139696740Y-105317372D01*
X139633520Y-105469999D01*
X139050000Y-105469999D01*
X139050000Y-104825000D01*
X143931027Y-104825000D01*
X144150000Y-104825000D01*
X144650000Y-104825000D01*
X144868972Y-104825000D01*
X144863395Y-104796964D01*
X144819191Y-104730808D01*
X144753034Y-104686603D01*
X144753033Y-104686602D01*
X144694702Y-104675000D01*
X144650000Y-104675000D01*
X144650000Y-104825000D01*
X144150000Y-104825000D01*
X144150000Y-104675000D01*
X144105297Y-104675000D01*
X144046966Y-104686602D01*
X144046965Y-104686603D01*
X143980808Y-104730808D01*
X143936604Y-104796964D01*
X143931027Y-104825000D01*
X139050000Y-104825000D01*
X139050000Y-104682561D01*
X139069685Y-104615522D01*
X139122489Y-104569767D01*
X139191647Y-104559823D01*
X139210158Y-104564549D01*
X139210293Y-104564090D01*
X139214537Y-104565336D01*
X139214541Y-104565338D01*
X139281580Y-104585023D01*
X139281584Y-104585024D01*
X139424000Y-104605500D01*
X139424003Y-104605500D01*
X139476000Y-104605500D01*
X139547942Y-104600355D01*
X139582877Y-104595332D01*
X139653398Y-104579987D01*
X139674636Y-104570284D01*
X139682482Y-104567021D01*
X139684708Y-104566183D01*
X139737510Y-104548610D01*
X139746121Y-104543075D01*
X139758432Y-104538443D01*
X139780683Y-104536786D01*
X139802091Y-104530499D01*
X141111281Y-104530499D01*
X141162792Y-104541704D01*
X141214541Y-104565338D01*
X141281580Y-104585023D01*
X141281584Y-104585024D01*
X141424000Y-104605500D01*
X141424003Y-104605500D01*
X143373735Y-104605500D01*
X143373739Y-104605500D01*
X143474377Y-104595381D01*
X143522764Y-104585551D01*
X143619383Y-104555594D01*
X143742518Y-104481168D01*
X143796561Y-104436884D01*
X143796567Y-104436876D01*
X143799779Y-104433838D01*
X143801572Y-104435733D01*
X143851608Y-104404465D01*
X143885006Y-104399874D01*
X146784640Y-104399252D01*
X146851679Y-104418921D01*
G37*
%TD.AperFunction*%
%TD*%
%TA.AperFunction,Conductor*%
%TO.N,24V{slash}3A*%
G36*
X159546452Y-101508234D02*
G01*
X162611226Y-102644612D01*
X162652013Y-102659735D01*
X162708027Y-102701498D01*
X162732570Y-102766916D01*
X162717850Y-102835217D01*
X162668540Y-102884717D01*
X162608903Y-102900000D01*
X162250000Y-102900000D01*
X162250000Y-103526000D01*
X162230315Y-103593039D01*
X162177511Y-103638794D01*
X162126000Y-103650000D01*
X161874000Y-103650000D01*
X161806961Y-103630315D01*
X161761206Y-103577511D01*
X161750000Y-103526000D01*
X161750000Y-102900000D01*
X160750000Y-102900000D01*
X160740023Y-102909976D01*
X160730315Y-102943039D01*
X160677511Y-102988794D01*
X160626000Y-103000000D01*
X159600000Y-103000000D01*
X159600000Y-103976000D01*
X159580315Y-104043039D01*
X159527511Y-104088794D01*
X159476000Y-104100000D01*
X147293941Y-104100000D01*
X147226902Y-104080315D01*
X147181147Y-104027511D01*
X147171203Y-103958353D01*
X147176290Y-103936831D01*
X147180840Y-103923163D01*
X147187549Y-103912287D01*
X147240436Y-103752685D01*
X147241692Y-103740384D01*
X147246010Y-103727417D01*
X147258452Y-103709499D01*
X147266694Y-103689298D01*
X147277990Y-103681364D01*
X147285863Y-103670028D01*
X147306018Y-103661681D01*
X147323872Y-103649143D01*
X147337663Y-103648576D01*
X147350417Y-103643295D01*
X147371885Y-103647170D01*
X147393683Y-103646275D01*
X147405592Y-103653255D01*
X147419175Y-103655707D01*
X147435139Y-103670572D01*
X147453962Y-103681605D01*
X147466763Y-103697695D01*
X147511040Y-103763959D01*
X147583396Y-103812307D01*
X147637500Y-103823068D01*
X147637500Y-103823067D01*
X148137500Y-103823067D01*
X148191600Y-103812308D01*
X148191601Y-103812308D01*
X148263959Y-103763959D01*
X148312307Y-103691601D01*
X148312309Y-103691597D01*
X148325000Y-103627799D01*
X148325000Y-103600000D01*
X148137500Y-103600000D01*
X148137500Y-103823067D01*
X147637500Y-103823067D01*
X147637500Y-103100000D01*
X148137500Y-103100000D01*
X148324999Y-103100000D01*
X148324999Y-103072206D01*
X148312307Y-103008396D01*
X148312306Y-103008394D01*
X148263960Y-102936040D01*
X148191601Y-102887692D01*
X148191597Y-102887690D01*
X148137500Y-102876929D01*
X148137500Y-103100000D01*
X147637500Y-103100000D01*
X147637500Y-102876931D01*
X147583396Y-102887692D01*
X147511040Y-102936040D01*
X147466763Y-103002305D01*
X147413151Y-103047110D01*
X147343826Y-103055817D01*
X147280798Y-103025662D01*
X147244079Y-102966219D01*
X147241302Y-102951362D01*
X147240437Y-102947325D01*
X147240436Y-102947315D01*
X147187549Y-102787713D01*
X147187545Y-102787707D01*
X147187544Y-102787704D01*
X147117797Y-102674628D01*
X149150000Y-102674628D01*
X149164503Y-102747540D01*
X149164505Y-102747544D01*
X149219760Y-102830239D01*
X149302455Y-102885494D01*
X149302459Y-102885496D01*
X149375371Y-102899999D01*
X149375374Y-102900000D01*
X150250000Y-102900000D01*
X150750000Y-102900000D01*
X151624626Y-102900000D01*
X151624628Y-102899999D01*
X151697540Y-102885496D01*
X151697544Y-102885494D01*
X151780239Y-102830239D01*
X151835494Y-102747544D01*
X151835496Y-102747540D01*
X151840053Y-102724628D01*
X152650000Y-102724628D01*
X152664503Y-102797540D01*
X152664505Y-102797544D01*
X152719760Y-102880239D01*
X152802455Y-102935494D01*
X152802459Y-102935496D01*
X152875371Y-102949999D01*
X152875374Y-102950000D01*
X153750000Y-102950000D01*
X154250000Y-102950000D01*
X155124626Y-102950000D01*
X155124628Y-102949999D01*
X155197540Y-102935496D01*
X155197544Y-102935494D01*
X155280239Y-102880239D01*
X155335494Y-102797544D01*
X155335496Y-102797540D01*
X155349999Y-102724628D01*
X156150000Y-102724628D01*
X156164503Y-102797540D01*
X156164505Y-102797544D01*
X156219760Y-102880239D01*
X156302455Y-102935494D01*
X156302459Y-102935496D01*
X156375371Y-102949999D01*
X156375374Y-102950000D01*
X157250000Y-102950000D01*
X157750000Y-102950000D01*
X158624626Y-102950000D01*
X158624628Y-102949999D01*
X158697540Y-102935496D01*
X158697544Y-102935494D01*
X158780239Y-102880239D01*
X158835494Y-102797544D01*
X158835496Y-102797540D01*
X158849999Y-102724628D01*
X158850000Y-102724626D01*
X158850000Y-102625000D01*
X157750000Y-102625000D01*
X157750000Y-102950000D01*
X157250000Y-102950000D01*
X157250000Y-102625000D01*
X156150000Y-102625000D01*
X156150000Y-102724628D01*
X155349999Y-102724628D01*
X155350000Y-102724626D01*
X155350000Y-102625000D01*
X154250000Y-102625000D01*
X154250000Y-102950000D01*
X153750000Y-102950000D01*
X153750000Y-102625000D01*
X152650000Y-102625000D01*
X152650000Y-102724628D01*
X151840053Y-102724628D01*
X151849999Y-102674628D01*
X151850000Y-102674626D01*
X151850000Y-102575000D01*
X150750000Y-102575000D01*
X150750000Y-102900000D01*
X150250000Y-102900000D01*
X150250000Y-102575000D01*
X149150000Y-102575000D01*
X149150000Y-102674628D01*
X147117797Y-102674628D01*
X147099283Y-102644612D01*
X147099280Y-102644608D01*
X146980391Y-102525719D01*
X146980387Y-102525716D01*
X146837295Y-102437455D01*
X146837289Y-102437452D01*
X146837287Y-102437451D01*
X146677685Y-102384564D01*
X146677683Y-102384563D01*
X146579181Y-102374500D01*
X146579174Y-102374500D01*
X146045826Y-102374500D01*
X146045818Y-102374500D01*
X145947316Y-102384563D01*
X145947315Y-102384564D01*
X145868219Y-102410773D01*
X145787715Y-102437450D01*
X145787704Y-102437455D01*
X145638462Y-102529510D01*
X145637098Y-102527299D01*
X145583561Y-102548905D01*
X145571433Y-102549500D01*
X144880715Y-102549500D01*
X144843827Y-102543886D01*
X144802196Y-102530914D01*
X144786746Y-102529510D01*
X144731616Y-102524500D01*
X144068384Y-102524500D01*
X144049145Y-102526248D01*
X143997807Y-102530913D01*
X143835393Y-102581522D01*
X143689811Y-102669530D01*
X143569530Y-102789811D01*
X143481522Y-102935393D01*
X143430913Y-103097807D01*
X143430714Y-103100000D01*
X143424500Y-103168384D01*
X143424500Y-103681616D01*
X143425961Y-103697695D01*
X143430913Y-103752192D01*
X143430913Y-103752194D01*
X143430914Y-103752196D01*
X143481522Y-103914606D01*
X143481523Y-103914608D01*
X143481524Y-103914610D01*
X143484600Y-103921445D01*
X143482625Y-103922333D01*
X143497692Y-103979414D01*
X143476169Y-104045886D01*
X143422126Y-104090170D01*
X143373739Y-104100000D01*
X141424000Y-104100000D01*
X141356961Y-104080315D01*
X141311206Y-104027511D01*
X141300000Y-103976000D01*
X141300000Y-103430000D01*
X140883012Y-103430000D01*
X140915925Y-103372993D01*
X140950000Y-103245826D01*
X140950000Y-103114174D01*
X140915925Y-102987007D01*
X140883012Y-102930000D01*
X141300000Y-102930000D01*
X141300000Y-102330000D01*
X140700000Y-102330000D01*
X140700000Y-102746988D01*
X140642993Y-102714075D01*
X140515826Y-102680000D01*
X140384174Y-102680000D01*
X140257007Y-102714075D01*
X140200000Y-102746988D01*
X140200000Y-102330000D01*
X139600000Y-102330000D01*
X139600000Y-102930000D01*
X140016988Y-102930000D01*
X139984075Y-102987007D01*
X139950000Y-103114174D01*
X139950000Y-103245826D01*
X139984075Y-103372993D01*
X140016988Y-103430000D01*
X139600000Y-103430000D01*
X139600000Y-103976000D01*
X139597449Y-103984685D01*
X139598738Y-103993647D01*
X139587759Y-104017687D01*
X139580315Y-104043039D01*
X139573474Y-104048966D01*
X139569713Y-104057203D01*
X139547478Y-104071492D01*
X139527511Y-104088794D01*
X139516996Y-104091081D01*
X139510935Y-104094977D01*
X139476000Y-104100000D01*
X139424000Y-104100000D01*
X139356961Y-104080315D01*
X139311206Y-104027511D01*
X139300000Y-103976000D01*
X139300000Y-101975371D01*
X149150000Y-101975371D01*
X149150000Y-102075000D01*
X150250000Y-102075000D01*
X150750000Y-102075000D01*
X151850000Y-102075000D01*
X151850000Y-102025371D01*
X152650000Y-102025371D01*
X152650000Y-102125000D01*
X153750000Y-102125000D01*
X154250000Y-102125000D01*
X155350000Y-102125000D01*
X155350000Y-102025373D01*
X155349999Y-102025371D01*
X156150000Y-102025371D01*
X156150000Y-102125000D01*
X157250000Y-102125000D01*
X157750000Y-102125000D01*
X158850000Y-102125000D01*
X158850000Y-102025373D01*
X158849999Y-102025371D01*
X158835496Y-101952459D01*
X158835494Y-101952455D01*
X158780239Y-101869760D01*
X158697544Y-101814505D01*
X158697540Y-101814503D01*
X158624627Y-101800000D01*
X157750000Y-101800000D01*
X157750000Y-102125000D01*
X157250000Y-102125000D01*
X157250000Y-101800000D01*
X156375373Y-101800000D01*
X156302459Y-101814503D01*
X156302455Y-101814505D01*
X156219760Y-101869760D01*
X156164505Y-101952455D01*
X156164503Y-101952459D01*
X156150000Y-102025371D01*
X155349999Y-102025371D01*
X155335496Y-101952459D01*
X155335494Y-101952455D01*
X155280239Y-101869760D01*
X155197544Y-101814505D01*
X155197540Y-101814503D01*
X155124627Y-101800000D01*
X154250000Y-101800000D01*
X154250000Y-102125000D01*
X153750000Y-102125000D01*
X153750000Y-101800000D01*
X152875373Y-101800000D01*
X152802459Y-101814503D01*
X152802455Y-101814505D01*
X152719760Y-101869760D01*
X152664505Y-101952455D01*
X152664503Y-101952459D01*
X152650000Y-102025371D01*
X151850000Y-102025371D01*
X151850000Y-101975373D01*
X151849999Y-101975371D01*
X151835496Y-101902459D01*
X151835494Y-101902455D01*
X151780239Y-101819760D01*
X151697544Y-101764505D01*
X151697540Y-101764503D01*
X151624627Y-101750000D01*
X150750000Y-101750000D01*
X150750000Y-102075000D01*
X150250000Y-102075000D01*
X150250000Y-101750000D01*
X149375373Y-101750000D01*
X149302459Y-101764503D01*
X149302455Y-101764505D01*
X149219760Y-101819760D01*
X149164505Y-101902455D01*
X149164503Y-101902459D01*
X149150000Y-101975371D01*
X139300000Y-101975371D01*
X139300000Y-101624500D01*
X139319685Y-101557461D01*
X139372489Y-101511706D01*
X139424000Y-101500500D01*
X159503343Y-101500500D01*
X159546452Y-101508234D01*
G37*
%TD.AperFunction*%
%TD*%
%TA.AperFunction,Conductor*%
%TO.N,GND*%
G36*
X157350000Y-113650000D02*
G01*
X158421509Y-113650000D01*
X158488548Y-113669685D01*
X158534303Y-113722489D01*
X158537691Y-113730667D01*
X158581202Y-113847328D01*
X158581206Y-113847335D01*
X158667452Y-113962544D01*
X158667455Y-113962547D01*
X158782664Y-114048793D01*
X158782671Y-114048797D01*
X158815044Y-114060871D01*
X158917517Y-114099091D01*
X158977127Y-114105500D01*
X159104138Y-114105499D01*
X159171176Y-114125183D01*
X159191818Y-114141818D01*
X159350000Y-114300000D01*
X162976000Y-114300000D01*
X163043039Y-114319685D01*
X163088794Y-114372489D01*
X163100000Y-114424000D01*
X163100000Y-116176000D01*
X163080315Y-116243039D01*
X163027511Y-116288794D01*
X162976000Y-116300000D01*
X155324000Y-116300000D01*
X155256961Y-116280315D01*
X155211206Y-116227511D01*
X155200000Y-116176000D01*
X155200000Y-115685256D01*
X155219685Y-115618217D01*
X155272489Y-115572462D01*
X155296768Y-115568971D01*
X155875000Y-115568971D01*
X155903035Y-115563395D01*
X155903038Y-115563394D01*
X155969191Y-115519191D01*
X156013396Y-115453034D01*
X156013397Y-115453033D01*
X156024999Y-115394702D01*
X156025000Y-115394699D01*
X156025000Y-115350000D01*
X155875000Y-115350000D01*
X155875000Y-115568971D01*
X155296768Y-115568971D01*
X155341647Y-115562518D01*
X155348190Y-115563638D01*
X155375000Y-115568970D01*
X155375000Y-114850000D01*
X155875000Y-114850000D01*
X156025000Y-114850000D01*
X156025000Y-114805301D01*
X156024999Y-114805297D01*
X156013397Y-114746966D01*
X156013396Y-114746965D01*
X155969191Y-114680808D01*
X155903035Y-114636604D01*
X155875000Y-114631027D01*
X155875000Y-114850000D01*
X155375000Y-114850000D01*
X155375000Y-114662092D01*
X155285210Y-114632520D01*
X155282218Y-114630456D01*
X155278601Y-114630133D01*
X155253680Y-114610775D01*
X155227693Y-114592852D01*
X155226292Y-114589499D01*
X155223423Y-114587271D01*
X155212922Y-114557506D01*
X155200753Y-114528385D01*
X155201386Y-114524807D01*
X155200178Y-114521381D01*
X155200000Y-114514743D01*
X155200000Y-114513276D01*
X155209232Y-114466326D01*
X155352768Y-114115460D01*
X155396366Y-114060871D01*
X155409925Y-114053746D01*
X155409544Y-114053048D01*
X155417326Y-114048797D01*
X155417331Y-114048796D01*
X155532546Y-113962546D01*
X155618796Y-113847331D01*
X155662309Y-113730667D01*
X155704180Y-113674733D01*
X155769644Y-113650316D01*
X155778491Y-113650000D01*
X156850000Y-113650000D01*
X156850000Y-113550000D01*
X157350000Y-113550000D01*
X157350000Y-113650000D01*
G37*
%TD.AperFunction*%
%TD*%
%TA.AperFunction,Conductor*%
%TO.N,VCC*%
G36*
X150443273Y-109877485D02*
G01*
X150489250Y-109930096D01*
X150499484Y-109999212D01*
X150491233Y-110029535D01*
X150488054Y-110037208D01*
X150475564Y-110099999D01*
X150475565Y-110100000D01*
X151424435Y-110100000D01*
X151428828Y-110094647D01*
X151486573Y-110055311D01*
X151556417Y-110053440D01*
X151616186Y-110089626D01*
X151622232Y-110097635D01*
X151622554Y-110097381D01*
X151627029Y-110103041D01*
X151627031Y-110103043D01*
X151627032Y-110103044D01*
X151746956Y-110222968D01*
X151746958Y-110222969D01*
X151746959Y-110222970D01*
X151891294Y-110311998D01*
X151891297Y-110311999D01*
X151891303Y-110312003D01*
X152052292Y-110365349D01*
X152151655Y-110375500D01*
X152748344Y-110375499D01*
X152748352Y-110375498D01*
X152748355Y-110375498D01*
X152802760Y-110369940D01*
X152847708Y-110365349D01*
X152964550Y-110326631D01*
X153028393Y-110322853D01*
X153525853Y-110424606D01*
X153587584Y-110457324D01*
X153613611Y-110503611D01*
X153625000Y-110515000D01*
X154276000Y-110515000D01*
X154343039Y-110534685D01*
X154388794Y-110587489D01*
X154400000Y-110639000D01*
X154400000Y-110891000D01*
X154380315Y-110958039D01*
X154327511Y-111003794D01*
X154276000Y-111015000D01*
X153625000Y-111015000D01*
X153625000Y-111034063D01*
X153605315Y-111101102D01*
X153552511Y-111146857D01*
X153505506Y-111157981D01*
X149800587Y-111292705D01*
X149732877Y-111275470D01*
X149685233Y-111224363D01*
X149672783Y-111155612D01*
X149699479Y-111091043D01*
X149727192Y-111065684D01*
X149780239Y-111030239D01*
X149835494Y-110947544D01*
X149835496Y-110947540D01*
X149849999Y-110874628D01*
X149850000Y-110874626D01*
X149850000Y-110775000D01*
X147150000Y-110775000D01*
X147150000Y-110874628D01*
X147164503Y-110947540D01*
X147164505Y-110947544D01*
X147219760Y-111030239D01*
X147237632Y-111042181D01*
X147282438Y-111095792D01*
X147291147Y-111165117D01*
X147260993Y-111228145D01*
X147201551Y-111264865D01*
X147167177Y-111269274D01*
X146296154Y-111258274D01*
X146229369Y-111237745D01*
X146184284Y-111184367D01*
X146175215Y-111115088D01*
X146205040Y-111051904D01*
X146228832Y-111031180D01*
X146230240Y-111030239D01*
X146285494Y-110947544D01*
X146285496Y-110947540D01*
X146299999Y-110874628D01*
X146300000Y-110874626D01*
X146300000Y-110775000D01*
X143600000Y-110775000D01*
X143600000Y-110874628D01*
X143614503Y-110947540D01*
X143614505Y-110947544D01*
X143670206Y-111030907D01*
X143691084Y-111097585D01*
X143672599Y-111164965D01*
X143620620Y-111211655D01*
X143565538Y-111223788D01*
X141389885Y-111196310D01*
X141323100Y-111175780D01*
X141278015Y-111122403D01*
X141269038Y-111053829D01*
X141266480Y-111050000D01*
X140883012Y-111050000D01*
X140915925Y-110992993D01*
X140950000Y-110865826D01*
X140950000Y-110734174D01*
X140915925Y-110607007D01*
X140911880Y-110600000D01*
X150475564Y-110600000D01*
X150488053Y-110662786D01*
X150488055Y-110662790D01*
X150537784Y-110737215D01*
X150612209Y-110786944D01*
X150612213Y-110786946D01*
X150677835Y-110799999D01*
X150677838Y-110800000D01*
X150700000Y-110800000D01*
X151200000Y-110800000D01*
X151222162Y-110800000D01*
X151222164Y-110799999D01*
X151287786Y-110786946D01*
X151287790Y-110786944D01*
X151362215Y-110737215D01*
X151411944Y-110662790D01*
X151411946Y-110662786D01*
X151424435Y-110600000D01*
X151200000Y-110600000D01*
X151200000Y-110800000D01*
X150700000Y-110800000D01*
X150700000Y-110600000D01*
X150475564Y-110600000D01*
X140911880Y-110600000D01*
X140883012Y-110550000D01*
X141266480Y-110550000D01*
X141266479Y-110549999D01*
X141203259Y-110397372D01*
X141203259Y-110397371D01*
X141110241Y-110258160D01*
X141110235Y-110258152D01*
X140991847Y-110139764D01*
X140991843Y-110139761D01*
X140968887Y-110124422D01*
X140924082Y-110070809D01*
X140915375Y-110001484D01*
X140945530Y-109938457D01*
X141004973Y-109901738D01*
X141037249Y-109897322D01*
X143526052Y-109886864D01*
X143593172Y-109906267D01*
X143639148Y-109958878D01*
X143649382Y-110027994D01*
X143629674Y-110079752D01*
X143614505Y-110102453D01*
X143614503Y-110102459D01*
X143600000Y-110175371D01*
X143600000Y-110275000D01*
X146300000Y-110275000D01*
X146300000Y-110175373D01*
X146299999Y-110175371D01*
X146285496Y-110102459D01*
X146285495Y-110102455D01*
X146262356Y-110067826D01*
X146241478Y-110001149D01*
X146259962Y-109933769D01*
X146311941Y-109887078D01*
X146364934Y-109874936D01*
X147086046Y-109871906D01*
X147153166Y-109891309D01*
X147199142Y-109943920D01*
X147209376Y-110013036D01*
X147189669Y-110064794D01*
X147164504Y-110102456D01*
X147164503Y-110102459D01*
X147150000Y-110175371D01*
X147150000Y-110275000D01*
X149850000Y-110275000D01*
X149850000Y-110175373D01*
X149849999Y-110175371D01*
X149835496Y-110102459D01*
X149835493Y-110102452D01*
X149802418Y-110052951D01*
X149781540Y-109986274D01*
X149800025Y-109918894D01*
X149852004Y-109872204D01*
X149904997Y-109860062D01*
X150376154Y-109858082D01*
X150443273Y-109877485D01*
G37*
%TD.AperFunction*%
%TD*%
M02*
