M48
; DRILL file {KiCad 9.99.0-701-g151cb01795} date 2025-04-05T01:47:38+0800
; FORMAT={-:-/ absolute / inch / decimal}
; #@! TF.CreationDate,2025-04-05T01:47:38+08:00
; #@! TF.GenerationSoftware,Kicad,Pcbnew,9.99.0-701-g151cb01795
; #@! TF.FileFunction,Plated,1,6,PTH
FMAT,2
INCH
; #@! TA.AperFunction,Plated,PTH,ViaDrill
T1C0.0118
; #@! TA.AperFunction,Plated,PTH,ComponentDrill
T2C0.0295
; #@! TA.AperFunction,Plated,PTH,ComponentDrill
T3C0.0394
; #@! TA.AperFunction,Plated,PTH,ComponentDrill
T4C0.0866
%
G90
G05
T1
X5.5502Y-3.9036
X5.5597Y-4.4289
X5.57Y-3.773
X5.6122Y-4.0401
X5.6136Y-4.3756
X5.6177Y-3.8406
X5.618Y-4.56
X5.6215Y-4.6195
X5.6231Y-4.0986
X5.6233Y-4.8116
X5.6258Y-4.2855
X5.636Y-3.7115
X5.636Y-3.7725
X5.6364Y-3.9388
X5.644Y-4.4644
X5.676Y-4.38
X5.6843Y-4.6836
X5.6843Y-4.8116
X5.6868Y-4.1615
X5.6868Y-4.2855
X5.7337Y-3.7413
X5.7412Y-4.3679
X5.7412Y-4.4979
X5.7417Y-3.8406
X5.7417Y-3.9686
X5.7433Y-4.8116
X5.7458Y-4.2855
X5.7792Y-4.1949
X5.8022Y-4.3679
X5.8022Y-4.4331
X5.8028Y-3.8406
X5.8028Y-3.906
X5.8041Y-4.0326
X5.8042Y-4.552
X5.8043Y-4.8116
X5.8068Y-4.2855
X5.808Y-3.694
X5.8088Y-4.6115
X5.81Y-4.101
X5.8136Y-3.7691
X5.8478Y-4.3428
X5.852Y-3.768
X5.8678Y-4.7506
X5.8683Y-4.2245
X5.9146Y-4.6594
X5.922Y-3.836
X5.9314Y-3.754
X5.943Y-3.907
X5.9575Y-4.4364
X5.98Y-3.94
X6.0038Y-4.2847
X6.004Y-3.87
X6.0049Y-4.0429
X6.018Y-4.356
X6.0195Y-4.5709
X6.0277Y-4.6234
X6.029Y-4.8134
X6.0296Y-3.941
X6.0648Y-4.1567
X6.0648Y-4.2847
X6.0797Y-4.3616
X6.09Y-4.8134
X6.092Y-4.6854
X6.1113Y-3.7527
X6.1264Y-3.976
X6.1285Y-4.036
X6.138Y-4.356
X6.138Y-4.488
X6.149Y-4.8134
X6.1641Y-4.1913
X6.1872Y-3.8468
X6.1895Y-3.904
X6.192Y-4.0936
X6.198Y-4.356
X6.2Y-3.786
X6.2006Y-4.548
X6.206Y-4.414
X6.21Y-4.8134
X6.2185Y-4.19
X6.2479Y-4.7874
X6.2483Y-4.2217
X6.2686Y-4.7292
X6.288Y-4.46
X6.318Y-4.806
X6.354Y-4.139
X6.384Y-3.9325
X6.3866Y-4.3174
X6.3984Y-4.6935
X6.4Y-4.092
X6.4004Y-4.2725
X6.4409Y-4.4664
X6.4409Y-4.5314
X6.445Y-3.928
X6.4617Y-4.6935
X6.462Y-4.2725
X6.5022Y-4.4664
X6.5022Y-4.5314
X6.524Y-4.2075
X6.524Y-4.2725
X6.5249Y-4.6935
X6.562Y-4.3115
X6.5636Y-4.5314
X6.564Y-4.466
X6.5749Y-4.4169
X6.586Y-4.2075
X6.586Y-4.2725
X6.5882Y-4.6935
X6.62Y-4.808
X6.6249Y-4.4664
X6.6249Y-4.5314
X6.6334Y-4.4164
X6.648Y-4.2725
X6.6515Y-4.6935
X6.652Y-4.092
X6.712Y-4.2095
X6.712Y-4.2705
X6.7147Y-4.6935
X6.7729Y-4.3344
X6.776Y-4.2705
X6.778Y-4.6935
X6.779Y-4.807
X6.7889Y-4.3924
X6.7889Y-4.5739
X6.854Y-4.604
X6.862Y-4.192
X6.868Y-4.2608
X6.8858Y-4.3701
X6.897Y-4.604
X6.9173Y-4.3701
X6.94Y-4.604
X6.9488Y-4.3701
X7.017Y-4.468
X7.019Y-4.702
X7.0549Y-3.8719
X7.0559Y-4.3914
X7.06Y-4.468
X7.062Y-4.702
X7.103Y-4.468
X7.1049Y-3.8719
X7.105Y-4.702
X7.1059Y-4.3914
X7.1549Y-3.8719
X7.1559Y-4.3914
X7.183Y-4.704
X7.185Y-4.472
X7.2049Y-3.8719
X7.2059Y-4.3914
X7.226Y-4.704
X7.228Y-4.472
X7.242Y-4.136
X7.269Y-4.704
X7.271Y-4.472
X7.2829Y-3.8722
X7.2839Y-4.3914
X7.3329Y-3.8722
X7.3339Y-4.3914
X7.353Y-4.472
X7.353Y-4.704
X7.3829Y-3.8722
X7.3839Y-4.3914
X7.396Y-4.472
X7.396Y-4.704
X7.4329Y-3.8722
X7.4339Y-4.3914
X7.439Y-4.472
X7.439Y-4.704
T2
X5.432Y-3.8916
X5.432Y-3.9703
X5.432Y-4.049
X5.432Y-4.1278
X5.432Y-4.2065
X5.432Y-4.2853
X5.432Y-4.364
X5.432Y-4.4427
X5.432Y-4.5215
X5.432Y-4.6002
X5.432Y-4.679
X6.7677Y-3.7559
X6.8465Y-3.7559
X6.9252Y-3.7559
X7.0039Y-3.7559
X7.0827Y-3.7559
X7.1614Y-3.7559
T3
X6.896Y-4.83
X6.996Y-4.83
X7.096Y-4.83
X7.196Y-4.83
T4
X6.3019Y-3.7434
X6.52Y-3.744
X7.4Y-4.83
X7.4099Y-3.7534
M30
