%TF.GenerationSoftware,KiCad,Pcbnew,9.99.0-701-g151cb01795*%
%TF.CreationDate,2025-04-05T01:47:37+08:00*%
%TF.ProjectId,battery,62617474-6572-4792-9e6b-696361645f70,rev?*%
%TF.SameCoordinates,Original*%
%TF.FileFunction,Paste,Top*%
%TF.FilePolarity,Positive*%
%FSLAX46Y46*%
G04 Gerber Fmt 4.6, Leading zero omitted, Abs format (unit mm)*
G04 Created by KiCad (PCBNEW 9.99.0-701-g151cb01795) date 2025-04-05 01:47:37*
%MOMM*%
%LPD*%
G01*
G04 APERTURE LIST*
G04 Aperture macros list*
%AMRoundRect*
0 Rectangle with rounded corners*
0 $1 Rounding radius*
0 $2 $3 $4 $5 $6 $7 $8 $9 X,Y pos of 4 corners*
0 Add a 4 corners polygon primitive as box body*
4,1,4,$2,$3,$4,$5,$6,$7,$8,$9,$2,$3,0*
0 Add four circle primitives for the rounded corners*
1,1,$1+$1,$2,$3*
1,1,$1+$1,$4,$5*
1,1,$1+$1,$6,$7*
1,1,$1+$1,$8,$9*
0 Add four rect primitives between the rounded corners*
20,1,$1+$1,$2,$3,$4,$5,0*
20,1,$1+$1,$4,$5,$6,$7,0*
20,1,$1+$1,$6,$7,$8,$9,0*
20,1,$1+$1,$8,$9,$2,$3,0*%
%AMOutline4P*
0 Free polygon, 4 corners , with rotation*
0 The origin of the aperture is its center*
0 number of corners: always 4*
0 $1 to $8 corner X, Y*
0 $9 Rotation angle, in degrees counterclockwise*
0 create outline with 4 corners*
4,1,4,$1,$2,$3,$4,$5,$6,$7,$8,$1,$2,$9*%
G04 Aperture macros list end*
%ADD10R,2.400000X1.000000*%
%ADD11RoundRect,0.100000X-0.100000X0.275000X-0.100000X-0.275000X0.100000X-0.275000X0.100000X0.275000X0*%
%ADD12RoundRect,0.125000X-0.125000X0.250000X-0.125000X-0.250000X0.125000X-0.250000X0.125000X0.250000X0*%
%ADD13RoundRect,0.375000X-0.375000X0.375000X-0.375000X-0.375000X0.375000X-0.375000X0.375000X0.375000X0*%
%ADD14RoundRect,0.100000X0.100000X-0.275000X0.100000X0.275000X-0.100000X0.275000X-0.100000X-0.275000X0*%
%ADD15RoundRect,0.125000X0.125000X-0.250000X0.125000X0.250000X-0.125000X0.250000X-0.125000X-0.250000X0*%
%ADD16RoundRect,0.375000X0.375000X-0.375000X0.375000X0.375000X-0.375000X0.375000X-0.375000X-0.375000X0*%
%ADD17RoundRect,0.200000X0.275000X-0.200000X0.275000X0.200000X-0.275000X0.200000X-0.275000X-0.200000X0*%
%ADD18RoundRect,0.150000X-0.587500X-0.150000X0.587500X-0.150000X0.587500X0.150000X-0.587500X0.150000X0*%
%ADD19RoundRect,0.225000X-0.225000X-0.375000X0.225000X-0.375000X0.225000X0.375000X-0.225000X0.375000X0*%
%ADD20RoundRect,0.250000X-1.425000X0.362500X-1.425000X-0.362500X1.425000X-0.362500X1.425000X0.362500X0*%
%ADD21Outline4P,-2.150000X-1.800000X2.150000X-0.800000X2.150000X0.800000X-2.150000X1.800000X180.000000*%
%ADD22Outline4P,-2.150000X-1.800000X2.150000X-0.800000X2.150000X0.800000X-2.150000X1.800000X0.000000*%
%ADD23RoundRect,0.200000X-0.275000X0.200000X-0.275000X-0.200000X0.275000X-0.200000X0.275000X0.200000X0*%
%ADD24RoundRect,0.100000X0.100000X-0.637500X0.100000X0.637500X-0.100000X0.637500X-0.100000X-0.637500X0*%
%ADD25RoundRect,0.218750X0.218750X0.256250X-0.218750X0.256250X-0.218750X-0.256250X0.218750X-0.256250X0*%
%ADD26R,0.300000X0.850000*%
%ADD27RoundRect,0.218750X-0.256250X0.218750X-0.256250X-0.218750X0.256250X-0.218750X0.256250X0.218750X0*%
%ADD28R,0.850000X0.300000*%
%ADD29RoundRect,0.218750X0.256250X-0.218750X0.256250X0.218750X-0.256250X0.218750X-0.256250X-0.218750X0*%
%ADD30R,1.000000X2.400000*%
G04 APERTURE END LIST*
D10*
%TO.C,L3*%
X157175200Y-99198400D03*
X157175200Y-103798400D03*
%TD*%
D11*
%TO.C,Q4*%
X184986900Y-98354800D03*
X186256900Y-98354800D03*
X187526900Y-98354800D03*
X188796900Y-98354800D03*
D12*
X184986900Y-104159800D03*
X186256900Y-104159800D03*
X187526900Y-104159800D03*
X188796900Y-104159800D03*
D13*
X186041900Y-102754800D03*
X187741900Y-102754800D03*
X186041900Y-101054800D03*
X187741900Y-101054800D03*
%TD*%
D14*
%TO.C,Q5*%
X188822300Y-111541600D03*
X187552300Y-111541600D03*
X186282300Y-111541600D03*
X185012300Y-111541600D03*
D15*
X188822300Y-105736600D03*
X187552300Y-105736600D03*
X186282300Y-105736600D03*
X185012300Y-105736600D03*
D16*
X187767300Y-107141600D03*
X186067300Y-107141600D03*
X187767300Y-108841600D03*
X186067300Y-108841600D03*
%TD*%
D17*
%TO.C,R5*%
X170554227Y-119215400D03*
X170554227Y-120865400D03*
%TD*%
D18*
%TO.C,Q1*%
X176322200Y-107274400D03*
X174447200Y-108224400D03*
X174447200Y-106324400D03*
%TD*%
D17*
%TO.C,R8*%
X165733307Y-119215400D03*
X165733307Y-120865400D03*
%TD*%
%TO.C,R7*%
X172161200Y-119215400D03*
X172161200Y-120865400D03*
%TD*%
D19*
%TO.C,D2*%
X176850000Y-103300000D03*
X173550000Y-103300000D03*
%TD*%
D17*
%TO.C,R23*%
X162519360Y-119215400D03*
X162519360Y-120865400D03*
%TD*%
%TO.C,R17*%
X164126333Y-119215400D03*
X164126333Y-120865400D03*
%TD*%
D20*
%TO.C,R12*%
X179380966Y-113492900D03*
X179380966Y-119417900D03*
%TD*%
D21*
%TO.C,D1*%
X168960400Y-103936800D03*
D22*
X162560400Y-103936800D03*
%TD*%
D17*
%TO.C,R1*%
X167340280Y-119215400D03*
X167340280Y-120865400D03*
%TD*%
D20*
%TO.C,R13*%
X183563500Y-113543700D03*
X183563500Y-119468700D03*
%TD*%
D17*
%TO.C,R4*%
X168947253Y-119215400D03*
X168947253Y-120865400D03*
%TD*%
D23*
%TO.C,R10*%
X172438300Y-116177400D03*
X172438300Y-114527400D03*
%TD*%
D20*
%TO.C,R14*%
X187836234Y-113543700D03*
X187836234Y-119468700D03*
%TD*%
D24*
%TO.C,U1*%
X162218900Y-110952900D03*
X162868900Y-110952900D03*
X163518900Y-110952900D03*
X164168900Y-110952900D03*
X164818900Y-110952900D03*
X165468900Y-110952900D03*
X166118900Y-110952900D03*
X166768900Y-110952900D03*
X167418900Y-110952900D03*
X168068900Y-110952900D03*
X168718900Y-110952900D03*
X169368900Y-110952900D03*
X170018900Y-110952900D03*
X170668900Y-110952900D03*
X170668900Y-116677900D03*
X170018900Y-116677900D03*
X169368900Y-116677900D03*
X168718900Y-116677900D03*
X168068900Y-116677900D03*
X167418900Y-116677900D03*
X166768900Y-116677900D03*
X166118900Y-116677900D03*
X165468900Y-116677900D03*
X164818900Y-116677900D03*
X164168900Y-116677900D03*
X163518900Y-116677900D03*
X162868900Y-116677900D03*
X162218900Y-116677900D03*
%TD*%
D20*
%TO.C,R11*%
X175130700Y-116914200D03*
X175130700Y-110989200D03*
%TD*%
D16*
%TO.C,Q3*%
X180276100Y-108841600D03*
X181976100Y-108841600D03*
X180276100Y-107141600D03*
X181976100Y-107141600D03*
D15*
X179221100Y-105736600D03*
X180491100Y-105736600D03*
X181761100Y-105736600D03*
X183031100Y-105736600D03*
D14*
X179221100Y-111541600D03*
X180491100Y-111541600D03*
X181761100Y-111541600D03*
X183031100Y-111541600D03*
%TD*%
D25*
%TO.C,D4*%
X162128100Y-99771200D03*
X163703100Y-99771200D03*
%TD*%
D23*
%TO.C,R15*%
X172438300Y-113129400D03*
X172438300Y-111479400D03*
%TD*%
D13*
%TO.C,Q2*%
X181950700Y-101046000D03*
X180250700Y-101046000D03*
X181950700Y-102746000D03*
X180250700Y-102746000D03*
D12*
X183005700Y-104151000D03*
X181735700Y-104151000D03*
X180465700Y-104151000D03*
X179195700Y-104151000D03*
D11*
X183005700Y-98346000D03*
X181735700Y-98346000D03*
X180465700Y-98346000D03*
X179195700Y-98346000D03*
%TD*%
D26*
%TO.C,U9*%
X144203428Y-99106100D03*
X143703428Y-99106100D03*
X143203428Y-99106100D03*
X142703428Y-99106100D03*
X142703428Y-101006100D03*
X143203428Y-101006100D03*
X143703428Y-101006100D03*
X144203428Y-101006100D03*
%TD*%
D27*
%TO.C,D8*%
X158707328Y-105655600D03*
X158707328Y-107230600D03*
%TD*%
%TO.C,D14*%
X149054828Y-105726800D03*
X149054828Y-107301800D03*
%TD*%
D26*
%TO.C,U7*%
X154559628Y-112420600D03*
X154059628Y-112420600D03*
X153559628Y-112420600D03*
X153059628Y-112420600D03*
X153059628Y-114320600D03*
X153559628Y-114320600D03*
X154059628Y-114320600D03*
X154559628Y-114320600D03*
%TD*%
%TO.C,U4*%
X155546428Y-107433000D03*
X156046428Y-107433000D03*
X156546428Y-107433000D03*
X157046428Y-107433000D03*
X157046428Y-105533000D03*
X156546428Y-105533000D03*
X156046428Y-105533000D03*
X155546428Y-105533000D03*
%TD*%
D10*
%TO.C,L2*%
X152396500Y-102730600D03*
X152396500Y-107330600D03*
%TD*%
%TO.C,L4*%
X142711328Y-115998200D03*
X142711328Y-120598200D03*
%TD*%
%TO.C,L9*%
X147529428Y-103763300D03*
X147529428Y-99163300D03*
%TD*%
D28*
%TO.C,U2*%
X144658000Y-94234000D03*
X144658000Y-94734000D03*
X144658000Y-95234000D03*
X144658000Y-95734000D03*
X146558000Y-95734000D03*
X146558000Y-95234000D03*
X146558000Y-94734000D03*
X146558000Y-94234000D03*
%TD*%
D26*
%TO.C,U5*%
X144354528Y-112420600D03*
X143854528Y-112420600D03*
X143354528Y-112420600D03*
X142854528Y-112420600D03*
X142854528Y-114320600D03*
X143354528Y-114320600D03*
X143854528Y-114320600D03*
X144354528Y-114320600D03*
%TD*%
%TO.C,U6*%
X145903656Y-120662800D03*
X146403656Y-120662800D03*
X146903656Y-120662800D03*
X147403656Y-120662800D03*
X147403656Y-118762800D03*
X146903656Y-118762800D03*
X146403656Y-118762800D03*
X145903656Y-118762800D03*
%TD*%
D10*
%TO.C,L5*%
X147543256Y-117132500D03*
X147543256Y-112532500D03*
%TD*%
D26*
%TO.C,U10*%
X145843128Y-107453400D03*
X146343128Y-107453400D03*
X146843128Y-107453400D03*
X147343128Y-107453400D03*
X147343128Y-105553400D03*
X146843128Y-105553400D03*
X146343128Y-105553400D03*
X145843128Y-105553400D03*
%TD*%
D10*
%TO.C,L7*%
X157697328Y-116605100D03*
X157697328Y-112005100D03*
%TD*%
D27*
%TO.C,D10*%
X149041256Y-119090000D03*
X149041256Y-120665000D03*
%TD*%
%TO.C,D12*%
X159221328Y-118546800D03*
X159221328Y-120121800D03*
%TD*%
D29*
%TO.C,D9*%
X141216928Y-114069500D03*
X141216928Y-112494500D03*
%TD*%
D26*
%TO.C,U3*%
X154039700Y-99126000D03*
X153539700Y-99126000D03*
X153039700Y-99126000D03*
X152539700Y-99126000D03*
X152539700Y-101026000D03*
X153039700Y-101026000D03*
X153539700Y-101026000D03*
X154039700Y-101026000D03*
%TD*%
D29*
%TO.C,D7*%
X150952900Y-100813500D03*
X150952900Y-99238500D03*
%TD*%
D30*
%TO.C,L1*%
X150658800Y-95351600D03*
X155258800Y-95351600D03*
%TD*%
D10*
%TO.C,L6*%
X152895228Y-116099800D03*
X152895228Y-120699800D03*
%TD*%
D26*
%TO.C,U8*%
X156056828Y-120823000D03*
X156556828Y-120823000D03*
X157056828Y-120823000D03*
X157556828Y-120823000D03*
X157556828Y-118923000D03*
X157056828Y-118923000D03*
X156556828Y-118923000D03*
X156056828Y-118923000D03*
%TD*%
D29*
%TO.C,D13*%
X140976228Y-100726800D03*
X140976228Y-99151800D03*
%TD*%
%TO.C,D11*%
X151320428Y-114259700D03*
X151320428Y-112684700D03*
%TD*%
D27*
%TO.C,D6*%
X148640800Y-94132400D03*
X148640800Y-95707400D03*
%TD*%
D10*
%TO.C,L8*%
X142551028Y-102617700D03*
X142551028Y-107217700D03*
%TD*%
M02*
