%TF.GenerationSoftware,KiCad,Pcbnew,9.99.0-701-g151cb01795*%
%TF.CreationDate,2025-04-05T01:47:37+08:00*%
%TF.ProjectId,battery,62617474-6572-4792-9e6b-696361645f70,rev?*%
%TF.SameCoordinates,Original*%
%TF.FileFunction,Legend,Top*%
%TF.FilePolarity,Positive*%
%FSLAX46Y46*%
G04 Gerber Fmt 4.6, Leading zero omitted, Abs format (unit mm)*
G04 Created by KiCad (PCBNEW 9.99.0-701-g151cb01795) date 2025-04-05 01:47:37*
%MOMM*%
%LPD*%
G01*
G04 APERTURE LIST*
%ADD10C,0.150000*%
%ADD11C,0.120000*%
G04 APERTURE END LIST*
D10*
X157754819Y-101866666D02*
X157754819Y-102342856D01*
X157754819Y-102342856D02*
X156754819Y-102342856D01*
X156754819Y-101628570D02*
X156754819Y-101009523D01*
X156754819Y-101009523D02*
X157135771Y-101342856D01*
X157135771Y-101342856D02*
X157135771Y-101199999D01*
X157135771Y-101199999D02*
X157183390Y-101104761D01*
X157183390Y-101104761D02*
X157231009Y-101057142D01*
X157231009Y-101057142D02*
X157326247Y-101009523D01*
X157326247Y-101009523D02*
X157564342Y-101009523D01*
X157564342Y-101009523D02*
X157659580Y-101057142D01*
X157659580Y-101057142D02*
X157707200Y-101104761D01*
X157707200Y-101104761D02*
X157754819Y-101199999D01*
X157754819Y-101199999D02*
X157754819Y-101485713D01*
X157754819Y-101485713D02*
X157707200Y-101580951D01*
X157707200Y-101580951D02*
X157659580Y-101628570D01*
X176090476Y-97754819D02*
X176090476Y-98469104D01*
X176090476Y-98469104D02*
X176042857Y-98611961D01*
X176042857Y-98611961D02*
X175947619Y-98707200D01*
X175947619Y-98707200D02*
X175804762Y-98754819D01*
X175804762Y-98754819D02*
X175709524Y-98754819D01*
X177090476Y-98754819D02*
X176519048Y-98754819D01*
X176804762Y-98754819D02*
X176804762Y-97754819D01*
X176804762Y-97754819D02*
X176709524Y-97897676D01*
X176709524Y-97897676D02*
X176614286Y-97992914D01*
X176614286Y-97992914D02*
X176519048Y-98040533D01*
X177709524Y-97754819D02*
X177804762Y-97754819D01*
X177804762Y-97754819D02*
X177900000Y-97802438D01*
X177900000Y-97802438D02*
X177947619Y-97850057D01*
X177947619Y-97850057D02*
X177995238Y-97945295D01*
X177995238Y-97945295D02*
X178042857Y-98135771D01*
X178042857Y-98135771D02*
X178042857Y-98373866D01*
X178042857Y-98373866D02*
X177995238Y-98564342D01*
X177995238Y-98564342D02*
X177947619Y-98659580D01*
X177947619Y-98659580D02*
X177900000Y-98707200D01*
X177900000Y-98707200D02*
X177804762Y-98754819D01*
X177804762Y-98754819D02*
X177709524Y-98754819D01*
X177709524Y-98754819D02*
X177614286Y-98707200D01*
X177614286Y-98707200D02*
X177566667Y-98659580D01*
X177566667Y-98659580D02*
X177519048Y-98564342D01*
X177519048Y-98564342D02*
X177471429Y-98373866D01*
X177471429Y-98373866D02*
X177471429Y-98135771D01*
X177471429Y-98135771D02*
X177519048Y-97945295D01*
X177519048Y-97945295D02*
X177566667Y-97850057D01*
X177566667Y-97850057D02*
X177614286Y-97802438D01*
X177614286Y-97802438D02*
X177709524Y-97754819D01*
X184966666Y-120654819D02*
X184966666Y-121369104D01*
X184966666Y-121369104D02*
X184919047Y-121511961D01*
X184919047Y-121511961D02*
X184823809Y-121607200D01*
X184823809Y-121607200D02*
X184680952Y-121654819D01*
X184680952Y-121654819D02*
X184585714Y-121654819D01*
X185585714Y-121083390D02*
X185490476Y-121035771D01*
X185490476Y-121035771D02*
X185442857Y-120988152D01*
X185442857Y-120988152D02*
X185395238Y-120892914D01*
X185395238Y-120892914D02*
X185395238Y-120845295D01*
X185395238Y-120845295D02*
X185442857Y-120750057D01*
X185442857Y-120750057D02*
X185490476Y-120702438D01*
X185490476Y-120702438D02*
X185585714Y-120654819D01*
X185585714Y-120654819D02*
X185776190Y-120654819D01*
X185776190Y-120654819D02*
X185871428Y-120702438D01*
X185871428Y-120702438D02*
X185919047Y-120750057D01*
X185919047Y-120750057D02*
X185966666Y-120845295D01*
X185966666Y-120845295D02*
X185966666Y-120892914D01*
X185966666Y-120892914D02*
X185919047Y-120988152D01*
X185919047Y-120988152D02*
X185871428Y-121035771D01*
X185871428Y-121035771D02*
X185776190Y-121083390D01*
X185776190Y-121083390D02*
X185585714Y-121083390D01*
X185585714Y-121083390D02*
X185490476Y-121131009D01*
X185490476Y-121131009D02*
X185442857Y-121178628D01*
X185442857Y-121178628D02*
X185395238Y-121273866D01*
X185395238Y-121273866D02*
X185395238Y-121464342D01*
X185395238Y-121464342D02*
X185442857Y-121559580D01*
X185442857Y-121559580D02*
X185490476Y-121607200D01*
X185490476Y-121607200D02*
X185585714Y-121654819D01*
X185585714Y-121654819D02*
X185776190Y-121654819D01*
X185776190Y-121654819D02*
X185871428Y-121607200D01*
X185871428Y-121607200D02*
X185919047Y-121559580D01*
X185919047Y-121559580D02*
X185966666Y-121464342D01*
X185966666Y-121464342D02*
X185966666Y-121273866D01*
X185966666Y-121273866D02*
X185919047Y-121178628D01*
X185919047Y-121178628D02*
X185871428Y-121131009D01*
X185871428Y-121131009D02*
X185776190Y-121083390D01*
X190941957Y-101350038D02*
X190894338Y-101445276D01*
X190894338Y-101445276D02*
X190799100Y-101540514D01*
X190799100Y-101540514D02*
X190656242Y-101683371D01*
X190656242Y-101683371D02*
X190608623Y-101778609D01*
X190608623Y-101778609D02*
X190608623Y-101873847D01*
X190846719Y-101826228D02*
X190799100Y-101921466D01*
X190799100Y-101921466D02*
X190703861Y-102016704D01*
X190703861Y-102016704D02*
X190513385Y-102064323D01*
X190513385Y-102064323D02*
X190180052Y-102064323D01*
X190180052Y-102064323D02*
X189989576Y-102016704D01*
X189989576Y-102016704D02*
X189894338Y-101921466D01*
X189894338Y-101921466D02*
X189846719Y-101826228D01*
X189846719Y-101826228D02*
X189846719Y-101635752D01*
X189846719Y-101635752D02*
X189894338Y-101540514D01*
X189894338Y-101540514D02*
X189989576Y-101445276D01*
X189989576Y-101445276D02*
X190180052Y-101397657D01*
X190180052Y-101397657D02*
X190513385Y-101397657D01*
X190513385Y-101397657D02*
X190703861Y-101445276D01*
X190703861Y-101445276D02*
X190799100Y-101540514D01*
X190799100Y-101540514D02*
X190846719Y-101635752D01*
X190846719Y-101635752D02*
X190846719Y-101826228D01*
X190180052Y-100540514D02*
X190846719Y-100540514D01*
X189799100Y-100778609D02*
X190513385Y-101016704D01*
X190513385Y-101016704D02*
X190513385Y-100397657D01*
X191050057Y-110795238D02*
X191002438Y-110890476D01*
X191002438Y-110890476D02*
X190907200Y-110985714D01*
X190907200Y-110985714D02*
X190764342Y-111128571D01*
X190764342Y-111128571D02*
X190716723Y-111223809D01*
X190716723Y-111223809D02*
X190716723Y-111319047D01*
X190954819Y-111271428D02*
X190907200Y-111366666D01*
X190907200Y-111366666D02*
X190811961Y-111461904D01*
X190811961Y-111461904D02*
X190621485Y-111509523D01*
X190621485Y-111509523D02*
X190288152Y-111509523D01*
X190288152Y-111509523D02*
X190097676Y-111461904D01*
X190097676Y-111461904D02*
X190002438Y-111366666D01*
X190002438Y-111366666D02*
X189954819Y-111271428D01*
X189954819Y-111271428D02*
X189954819Y-111080952D01*
X189954819Y-111080952D02*
X190002438Y-110985714D01*
X190002438Y-110985714D02*
X190097676Y-110890476D01*
X190097676Y-110890476D02*
X190288152Y-110842857D01*
X190288152Y-110842857D02*
X190621485Y-110842857D01*
X190621485Y-110842857D02*
X190811961Y-110890476D01*
X190811961Y-110890476D02*
X190907200Y-110985714D01*
X190907200Y-110985714D02*
X190954819Y-111080952D01*
X190954819Y-111080952D02*
X190954819Y-111271428D01*
X189954819Y-109938095D02*
X189954819Y-110414285D01*
X189954819Y-110414285D02*
X190431009Y-110461904D01*
X190431009Y-110461904D02*
X190383390Y-110414285D01*
X190383390Y-110414285D02*
X190335771Y-110319047D01*
X190335771Y-110319047D02*
X190335771Y-110080952D01*
X190335771Y-110080952D02*
X190383390Y-109985714D01*
X190383390Y-109985714D02*
X190431009Y-109938095D01*
X190431009Y-109938095D02*
X190526247Y-109890476D01*
X190526247Y-109890476D02*
X190764342Y-109890476D01*
X190764342Y-109890476D02*
X190859580Y-109938095D01*
X190859580Y-109938095D02*
X190907200Y-109985714D01*
X190907200Y-109985714D02*
X190954819Y-110080952D01*
X190954819Y-110080952D02*
X190954819Y-110319047D01*
X190954819Y-110319047D02*
X190907200Y-110414285D01*
X190907200Y-110414285D02*
X190859580Y-110461904D01*
X171054819Y-123566666D02*
X170578628Y-123899999D01*
X171054819Y-124138094D02*
X170054819Y-124138094D01*
X170054819Y-124138094D02*
X170054819Y-123757142D01*
X170054819Y-123757142D02*
X170102438Y-123661904D01*
X170102438Y-123661904D02*
X170150057Y-123614285D01*
X170150057Y-123614285D02*
X170245295Y-123566666D01*
X170245295Y-123566666D02*
X170388152Y-123566666D01*
X170388152Y-123566666D02*
X170483390Y-123614285D01*
X170483390Y-123614285D02*
X170531009Y-123661904D01*
X170531009Y-123661904D02*
X170578628Y-123757142D01*
X170578628Y-123757142D02*
X170578628Y-124138094D01*
X170054819Y-122661904D02*
X170054819Y-123138094D01*
X170054819Y-123138094D02*
X170531009Y-123185713D01*
X170531009Y-123185713D02*
X170483390Y-123138094D01*
X170483390Y-123138094D02*
X170435771Y-123042856D01*
X170435771Y-123042856D02*
X170435771Y-122804761D01*
X170435771Y-122804761D02*
X170483390Y-122709523D01*
X170483390Y-122709523D02*
X170531009Y-122661904D01*
X170531009Y-122661904D02*
X170626247Y-122614285D01*
X170626247Y-122614285D02*
X170864342Y-122614285D01*
X170864342Y-122614285D02*
X170959580Y-122661904D01*
X170959580Y-122661904D02*
X171007200Y-122709523D01*
X171007200Y-122709523D02*
X171054819Y-122804761D01*
X171054819Y-122804761D02*
X171054819Y-123042856D01*
X171054819Y-123042856D02*
X171007200Y-123138094D01*
X171007200Y-123138094D02*
X170959580Y-123185713D01*
X177204761Y-106250057D02*
X177109523Y-106202438D01*
X177109523Y-106202438D02*
X177014285Y-106107200D01*
X177014285Y-106107200D02*
X176871428Y-105964342D01*
X176871428Y-105964342D02*
X176776190Y-105916723D01*
X176776190Y-105916723D02*
X176680952Y-105916723D01*
X176728571Y-106154819D02*
X176633333Y-106107200D01*
X176633333Y-106107200D02*
X176538095Y-106011961D01*
X176538095Y-106011961D02*
X176490476Y-105821485D01*
X176490476Y-105821485D02*
X176490476Y-105488152D01*
X176490476Y-105488152D02*
X176538095Y-105297676D01*
X176538095Y-105297676D02*
X176633333Y-105202438D01*
X176633333Y-105202438D02*
X176728571Y-105154819D01*
X176728571Y-105154819D02*
X176919047Y-105154819D01*
X176919047Y-105154819D02*
X177014285Y-105202438D01*
X177014285Y-105202438D02*
X177109523Y-105297676D01*
X177109523Y-105297676D02*
X177157142Y-105488152D01*
X177157142Y-105488152D02*
X177157142Y-105821485D01*
X177157142Y-105821485D02*
X177109523Y-106011961D01*
X177109523Y-106011961D02*
X177014285Y-106107200D01*
X177014285Y-106107200D02*
X176919047Y-106154819D01*
X176919047Y-106154819D02*
X176728571Y-106154819D01*
X178109523Y-106154819D02*
X177538095Y-106154819D01*
X177823809Y-106154819D02*
X177823809Y-105154819D01*
X177823809Y-105154819D02*
X177728571Y-105297676D01*
X177728571Y-105297676D02*
X177633333Y-105392914D01*
X177633333Y-105392914D02*
X177538095Y-105440533D01*
X166454819Y-123766666D02*
X165978628Y-124099999D01*
X166454819Y-124338094D02*
X165454819Y-124338094D01*
X165454819Y-124338094D02*
X165454819Y-123957142D01*
X165454819Y-123957142D02*
X165502438Y-123861904D01*
X165502438Y-123861904D02*
X165550057Y-123814285D01*
X165550057Y-123814285D02*
X165645295Y-123766666D01*
X165645295Y-123766666D02*
X165788152Y-123766666D01*
X165788152Y-123766666D02*
X165883390Y-123814285D01*
X165883390Y-123814285D02*
X165931009Y-123861904D01*
X165931009Y-123861904D02*
X165978628Y-123957142D01*
X165978628Y-123957142D02*
X165978628Y-124338094D01*
X165883390Y-123195237D02*
X165835771Y-123290475D01*
X165835771Y-123290475D02*
X165788152Y-123338094D01*
X165788152Y-123338094D02*
X165692914Y-123385713D01*
X165692914Y-123385713D02*
X165645295Y-123385713D01*
X165645295Y-123385713D02*
X165550057Y-123338094D01*
X165550057Y-123338094D02*
X165502438Y-123290475D01*
X165502438Y-123290475D02*
X165454819Y-123195237D01*
X165454819Y-123195237D02*
X165454819Y-123004761D01*
X165454819Y-123004761D02*
X165502438Y-122909523D01*
X165502438Y-122909523D02*
X165550057Y-122861904D01*
X165550057Y-122861904D02*
X165645295Y-122814285D01*
X165645295Y-122814285D02*
X165692914Y-122814285D01*
X165692914Y-122814285D02*
X165788152Y-122861904D01*
X165788152Y-122861904D02*
X165835771Y-122909523D01*
X165835771Y-122909523D02*
X165883390Y-123004761D01*
X165883390Y-123004761D02*
X165883390Y-123195237D01*
X165883390Y-123195237D02*
X165931009Y-123290475D01*
X165931009Y-123290475D02*
X165978628Y-123338094D01*
X165978628Y-123338094D02*
X166073866Y-123385713D01*
X166073866Y-123385713D02*
X166264342Y-123385713D01*
X166264342Y-123385713D02*
X166359580Y-123338094D01*
X166359580Y-123338094D02*
X166407200Y-123290475D01*
X166407200Y-123290475D02*
X166454819Y-123195237D01*
X166454819Y-123195237D02*
X166454819Y-123004761D01*
X166454819Y-123004761D02*
X166407200Y-122909523D01*
X166407200Y-122909523D02*
X166359580Y-122861904D01*
X166359580Y-122861904D02*
X166264342Y-122814285D01*
X166264342Y-122814285D02*
X166073866Y-122814285D01*
X166073866Y-122814285D02*
X165978628Y-122861904D01*
X165978628Y-122861904D02*
X165931009Y-122909523D01*
X165931009Y-122909523D02*
X165883390Y-123004761D01*
X172754819Y-123666666D02*
X172278628Y-123999999D01*
X172754819Y-124238094D02*
X171754819Y-124238094D01*
X171754819Y-124238094D02*
X171754819Y-123857142D01*
X171754819Y-123857142D02*
X171802438Y-123761904D01*
X171802438Y-123761904D02*
X171850057Y-123714285D01*
X171850057Y-123714285D02*
X171945295Y-123666666D01*
X171945295Y-123666666D02*
X172088152Y-123666666D01*
X172088152Y-123666666D02*
X172183390Y-123714285D01*
X172183390Y-123714285D02*
X172231009Y-123761904D01*
X172231009Y-123761904D02*
X172278628Y-123857142D01*
X172278628Y-123857142D02*
X172278628Y-124238094D01*
X171754819Y-123333332D02*
X171754819Y-122666666D01*
X171754819Y-122666666D02*
X172754819Y-123095237D01*
X174817505Y-101639019D02*
X174817505Y-100639019D01*
X174817505Y-100639019D02*
X175055600Y-100639019D01*
X175055600Y-100639019D02*
X175198457Y-100686638D01*
X175198457Y-100686638D02*
X175293695Y-100781876D01*
X175293695Y-100781876D02*
X175341314Y-100877114D01*
X175341314Y-100877114D02*
X175388933Y-101067590D01*
X175388933Y-101067590D02*
X175388933Y-101210447D01*
X175388933Y-101210447D02*
X175341314Y-101400923D01*
X175341314Y-101400923D02*
X175293695Y-101496161D01*
X175293695Y-101496161D02*
X175198457Y-101591400D01*
X175198457Y-101591400D02*
X175055600Y-101639019D01*
X175055600Y-101639019D02*
X174817505Y-101639019D01*
X175769886Y-100734257D02*
X175817505Y-100686638D01*
X175817505Y-100686638D02*
X175912743Y-100639019D01*
X175912743Y-100639019D02*
X176150838Y-100639019D01*
X176150838Y-100639019D02*
X176246076Y-100686638D01*
X176246076Y-100686638D02*
X176293695Y-100734257D01*
X176293695Y-100734257D02*
X176341314Y-100829495D01*
X176341314Y-100829495D02*
X176341314Y-100924733D01*
X176341314Y-100924733D02*
X176293695Y-101067590D01*
X176293695Y-101067590D02*
X175722267Y-101639019D01*
X175722267Y-101639019D02*
X176341314Y-101639019D01*
X162954819Y-124142857D02*
X162478628Y-124476190D01*
X162954819Y-124714285D02*
X161954819Y-124714285D01*
X161954819Y-124714285D02*
X161954819Y-124333333D01*
X161954819Y-124333333D02*
X162002438Y-124238095D01*
X162002438Y-124238095D02*
X162050057Y-124190476D01*
X162050057Y-124190476D02*
X162145295Y-124142857D01*
X162145295Y-124142857D02*
X162288152Y-124142857D01*
X162288152Y-124142857D02*
X162383390Y-124190476D01*
X162383390Y-124190476D02*
X162431009Y-124238095D01*
X162431009Y-124238095D02*
X162478628Y-124333333D01*
X162478628Y-124333333D02*
X162478628Y-124714285D01*
X162050057Y-123761904D02*
X162002438Y-123714285D01*
X162002438Y-123714285D02*
X161954819Y-123619047D01*
X161954819Y-123619047D02*
X161954819Y-123380952D01*
X161954819Y-123380952D02*
X162002438Y-123285714D01*
X162002438Y-123285714D02*
X162050057Y-123238095D01*
X162050057Y-123238095D02*
X162145295Y-123190476D01*
X162145295Y-123190476D02*
X162240533Y-123190476D01*
X162240533Y-123190476D02*
X162383390Y-123238095D01*
X162383390Y-123238095D02*
X162954819Y-123809523D01*
X162954819Y-123809523D02*
X162954819Y-123190476D01*
X161954819Y-122857142D02*
X161954819Y-122238095D01*
X161954819Y-122238095D02*
X162335771Y-122571428D01*
X162335771Y-122571428D02*
X162335771Y-122428571D01*
X162335771Y-122428571D02*
X162383390Y-122333333D01*
X162383390Y-122333333D02*
X162431009Y-122285714D01*
X162431009Y-122285714D02*
X162526247Y-122238095D01*
X162526247Y-122238095D02*
X162764342Y-122238095D01*
X162764342Y-122238095D02*
X162859580Y-122285714D01*
X162859580Y-122285714D02*
X162907200Y-122333333D01*
X162907200Y-122333333D02*
X162954819Y-122428571D01*
X162954819Y-122428571D02*
X162954819Y-122714285D01*
X162954819Y-122714285D02*
X162907200Y-122809523D01*
X162907200Y-122809523D02*
X162859580Y-122857142D01*
X173910666Y-119546019D02*
X173910666Y-120260304D01*
X173910666Y-120260304D02*
X173863047Y-120403161D01*
X173863047Y-120403161D02*
X173767809Y-120498400D01*
X173767809Y-120498400D02*
X173624952Y-120546019D01*
X173624952Y-120546019D02*
X173529714Y-120546019D01*
X174815428Y-119879352D02*
X174815428Y-120546019D01*
X174577333Y-119498400D02*
X174339238Y-120212685D01*
X174339238Y-120212685D02*
X174958285Y-120212685D01*
X164754819Y-124142857D02*
X164278628Y-124476190D01*
X164754819Y-124714285D02*
X163754819Y-124714285D01*
X163754819Y-124714285D02*
X163754819Y-124333333D01*
X163754819Y-124333333D02*
X163802438Y-124238095D01*
X163802438Y-124238095D02*
X163850057Y-124190476D01*
X163850057Y-124190476D02*
X163945295Y-124142857D01*
X163945295Y-124142857D02*
X164088152Y-124142857D01*
X164088152Y-124142857D02*
X164183390Y-124190476D01*
X164183390Y-124190476D02*
X164231009Y-124238095D01*
X164231009Y-124238095D02*
X164278628Y-124333333D01*
X164278628Y-124333333D02*
X164278628Y-124714285D01*
X164754819Y-123190476D02*
X164754819Y-123761904D01*
X164754819Y-123476190D02*
X163754819Y-123476190D01*
X163754819Y-123476190D02*
X163897676Y-123571428D01*
X163897676Y-123571428D02*
X163992914Y-123666666D01*
X163992914Y-123666666D02*
X164040533Y-123761904D01*
X163754819Y-122857142D02*
X163754819Y-122190476D01*
X163754819Y-122190476D02*
X164754819Y-122619047D01*
X179954819Y-117149057D02*
X179478628Y-117482390D01*
X179954819Y-117720485D02*
X178954819Y-117720485D01*
X178954819Y-117720485D02*
X178954819Y-117339533D01*
X178954819Y-117339533D02*
X179002438Y-117244295D01*
X179002438Y-117244295D02*
X179050057Y-117196676D01*
X179050057Y-117196676D02*
X179145295Y-117149057D01*
X179145295Y-117149057D02*
X179288152Y-117149057D01*
X179288152Y-117149057D02*
X179383390Y-117196676D01*
X179383390Y-117196676D02*
X179431009Y-117244295D01*
X179431009Y-117244295D02*
X179478628Y-117339533D01*
X179478628Y-117339533D02*
X179478628Y-117720485D01*
X179954819Y-116196676D02*
X179954819Y-116768104D01*
X179954819Y-116482390D02*
X178954819Y-116482390D01*
X178954819Y-116482390D02*
X179097676Y-116577628D01*
X179097676Y-116577628D02*
X179192914Y-116672866D01*
X179192914Y-116672866D02*
X179240533Y-116768104D01*
X179050057Y-115815723D02*
X179002438Y-115768104D01*
X179002438Y-115768104D02*
X178954819Y-115672866D01*
X178954819Y-115672866D02*
X178954819Y-115434771D01*
X178954819Y-115434771D02*
X179002438Y-115339533D01*
X179002438Y-115339533D02*
X179050057Y-115291914D01*
X179050057Y-115291914D02*
X179145295Y-115244295D01*
X179145295Y-115244295D02*
X179240533Y-115244295D01*
X179240533Y-115244295D02*
X179383390Y-115291914D01*
X179383390Y-115291914D02*
X179954819Y-115863342D01*
X179954819Y-115863342D02*
X179954819Y-115244295D01*
X166190705Y-100125019D02*
X166190705Y-99125019D01*
X166190705Y-99125019D02*
X166428800Y-99125019D01*
X166428800Y-99125019D02*
X166571657Y-99172638D01*
X166571657Y-99172638D02*
X166666895Y-99267876D01*
X166666895Y-99267876D02*
X166714514Y-99363114D01*
X166714514Y-99363114D02*
X166762133Y-99553590D01*
X166762133Y-99553590D02*
X166762133Y-99696447D01*
X166762133Y-99696447D02*
X166714514Y-99886923D01*
X166714514Y-99886923D02*
X166666895Y-99982161D01*
X166666895Y-99982161D02*
X166571657Y-100077400D01*
X166571657Y-100077400D02*
X166428800Y-100125019D01*
X166428800Y-100125019D02*
X166190705Y-100125019D01*
X167714514Y-100125019D02*
X167143086Y-100125019D01*
X167428800Y-100125019D02*
X167428800Y-99125019D01*
X167428800Y-99125019D02*
X167333562Y-99267876D01*
X167333562Y-99267876D02*
X167238324Y-99363114D01*
X167238324Y-99363114D02*
X167143086Y-99410733D01*
X168154819Y-123566666D02*
X167678628Y-123899999D01*
X168154819Y-124138094D02*
X167154819Y-124138094D01*
X167154819Y-124138094D02*
X167154819Y-123757142D01*
X167154819Y-123757142D02*
X167202438Y-123661904D01*
X167202438Y-123661904D02*
X167250057Y-123614285D01*
X167250057Y-123614285D02*
X167345295Y-123566666D01*
X167345295Y-123566666D02*
X167488152Y-123566666D01*
X167488152Y-123566666D02*
X167583390Y-123614285D01*
X167583390Y-123614285D02*
X167631009Y-123661904D01*
X167631009Y-123661904D02*
X167678628Y-123757142D01*
X167678628Y-123757142D02*
X167678628Y-124138094D01*
X168154819Y-122614285D02*
X168154819Y-123185713D01*
X168154819Y-122899999D02*
X167154819Y-122899999D01*
X167154819Y-122899999D02*
X167297676Y-122995237D01*
X167297676Y-122995237D02*
X167392914Y-123090475D01*
X167392914Y-123090475D02*
X167440533Y-123185713D01*
X183954819Y-117149057D02*
X183478628Y-117482390D01*
X183954819Y-117720485D02*
X182954819Y-117720485D01*
X182954819Y-117720485D02*
X182954819Y-117339533D01*
X182954819Y-117339533D02*
X183002438Y-117244295D01*
X183002438Y-117244295D02*
X183050057Y-117196676D01*
X183050057Y-117196676D02*
X183145295Y-117149057D01*
X183145295Y-117149057D02*
X183288152Y-117149057D01*
X183288152Y-117149057D02*
X183383390Y-117196676D01*
X183383390Y-117196676D02*
X183431009Y-117244295D01*
X183431009Y-117244295D02*
X183478628Y-117339533D01*
X183478628Y-117339533D02*
X183478628Y-117720485D01*
X183954819Y-116196676D02*
X183954819Y-116768104D01*
X183954819Y-116482390D02*
X182954819Y-116482390D01*
X182954819Y-116482390D02*
X183097676Y-116577628D01*
X183097676Y-116577628D02*
X183192914Y-116672866D01*
X183192914Y-116672866D02*
X183240533Y-116768104D01*
X182954819Y-115863342D02*
X182954819Y-115244295D01*
X182954819Y-115244295D02*
X183335771Y-115577628D01*
X183335771Y-115577628D02*
X183335771Y-115434771D01*
X183335771Y-115434771D02*
X183383390Y-115339533D01*
X183383390Y-115339533D02*
X183431009Y-115291914D01*
X183431009Y-115291914D02*
X183526247Y-115244295D01*
X183526247Y-115244295D02*
X183764342Y-115244295D01*
X183764342Y-115244295D02*
X183859580Y-115291914D01*
X183859580Y-115291914D02*
X183907200Y-115339533D01*
X183907200Y-115339533D02*
X183954819Y-115434771D01*
X183954819Y-115434771D02*
X183954819Y-115720485D01*
X183954819Y-115720485D02*
X183907200Y-115815723D01*
X183907200Y-115815723D02*
X183859580Y-115863342D01*
X169754819Y-123566666D02*
X169278628Y-123899999D01*
X169754819Y-124138094D02*
X168754819Y-124138094D01*
X168754819Y-124138094D02*
X168754819Y-123757142D01*
X168754819Y-123757142D02*
X168802438Y-123661904D01*
X168802438Y-123661904D02*
X168850057Y-123614285D01*
X168850057Y-123614285D02*
X168945295Y-123566666D01*
X168945295Y-123566666D02*
X169088152Y-123566666D01*
X169088152Y-123566666D02*
X169183390Y-123614285D01*
X169183390Y-123614285D02*
X169231009Y-123661904D01*
X169231009Y-123661904D02*
X169278628Y-123757142D01*
X169278628Y-123757142D02*
X169278628Y-124138094D01*
X169088152Y-122709523D02*
X169754819Y-122709523D01*
X168707200Y-122947618D02*
X169421485Y-123185713D01*
X169421485Y-123185713D02*
X169421485Y-122566666D01*
X171557142Y-118354819D02*
X171223809Y-117878628D01*
X170985714Y-118354819D02*
X170985714Y-117354819D01*
X170985714Y-117354819D02*
X171366666Y-117354819D01*
X171366666Y-117354819D02*
X171461904Y-117402438D01*
X171461904Y-117402438D02*
X171509523Y-117450057D01*
X171509523Y-117450057D02*
X171557142Y-117545295D01*
X171557142Y-117545295D02*
X171557142Y-117688152D01*
X171557142Y-117688152D02*
X171509523Y-117783390D01*
X171509523Y-117783390D02*
X171461904Y-117831009D01*
X171461904Y-117831009D02*
X171366666Y-117878628D01*
X171366666Y-117878628D02*
X170985714Y-117878628D01*
X172509523Y-118354819D02*
X171938095Y-118354819D01*
X172223809Y-118354819D02*
X172223809Y-117354819D01*
X172223809Y-117354819D02*
X172128571Y-117497676D01*
X172128571Y-117497676D02*
X172033333Y-117592914D01*
X172033333Y-117592914D02*
X171938095Y-117640533D01*
X173128571Y-117354819D02*
X173223809Y-117354819D01*
X173223809Y-117354819D02*
X173319047Y-117402438D01*
X173319047Y-117402438D02*
X173366666Y-117450057D01*
X173366666Y-117450057D02*
X173414285Y-117545295D01*
X173414285Y-117545295D02*
X173461904Y-117735771D01*
X173461904Y-117735771D02*
X173461904Y-117973866D01*
X173461904Y-117973866D02*
X173414285Y-118164342D01*
X173414285Y-118164342D02*
X173366666Y-118259580D01*
X173366666Y-118259580D02*
X173319047Y-118307200D01*
X173319047Y-118307200D02*
X173223809Y-118354819D01*
X173223809Y-118354819D02*
X173128571Y-118354819D01*
X173128571Y-118354819D02*
X173033333Y-118307200D01*
X173033333Y-118307200D02*
X172985714Y-118259580D01*
X172985714Y-118259580D02*
X172938095Y-118164342D01*
X172938095Y-118164342D02*
X172890476Y-117973866D01*
X172890476Y-117973866D02*
X172890476Y-117735771D01*
X172890476Y-117735771D02*
X172938095Y-117545295D01*
X172938095Y-117545295D02*
X172985714Y-117450057D01*
X172985714Y-117450057D02*
X173033333Y-117402438D01*
X173033333Y-117402438D02*
X173128571Y-117354819D01*
X185466666Y-93254819D02*
X185466666Y-93969104D01*
X185466666Y-93969104D02*
X185419047Y-94111961D01*
X185419047Y-94111961D02*
X185323809Y-94207200D01*
X185323809Y-94207200D02*
X185180952Y-94254819D01*
X185180952Y-94254819D02*
X185085714Y-94254819D01*
X185847619Y-93254819D02*
X186514285Y-93254819D01*
X186514285Y-93254819D02*
X186085714Y-94254819D01*
X188154819Y-117149057D02*
X187678628Y-117482390D01*
X188154819Y-117720485D02*
X187154819Y-117720485D01*
X187154819Y-117720485D02*
X187154819Y-117339533D01*
X187154819Y-117339533D02*
X187202438Y-117244295D01*
X187202438Y-117244295D02*
X187250057Y-117196676D01*
X187250057Y-117196676D02*
X187345295Y-117149057D01*
X187345295Y-117149057D02*
X187488152Y-117149057D01*
X187488152Y-117149057D02*
X187583390Y-117196676D01*
X187583390Y-117196676D02*
X187631009Y-117244295D01*
X187631009Y-117244295D02*
X187678628Y-117339533D01*
X187678628Y-117339533D02*
X187678628Y-117720485D01*
X188154819Y-116196676D02*
X188154819Y-116768104D01*
X188154819Y-116482390D02*
X187154819Y-116482390D01*
X187154819Y-116482390D02*
X187297676Y-116577628D01*
X187297676Y-116577628D02*
X187392914Y-116672866D01*
X187392914Y-116672866D02*
X187440533Y-116768104D01*
X187488152Y-115339533D02*
X188154819Y-115339533D01*
X187107200Y-115577628D02*
X187821485Y-115815723D01*
X187821485Y-115815723D02*
X187821485Y-115196676D01*
X160098719Y-114577304D02*
X160908242Y-114577304D01*
X160908242Y-114577304D02*
X161003480Y-114529685D01*
X161003480Y-114529685D02*
X161051100Y-114482066D01*
X161051100Y-114482066D02*
X161098719Y-114386828D01*
X161098719Y-114386828D02*
X161098719Y-114196352D01*
X161098719Y-114196352D02*
X161051100Y-114101114D01*
X161051100Y-114101114D02*
X161003480Y-114053495D01*
X161003480Y-114053495D02*
X160908242Y-114005876D01*
X160908242Y-114005876D02*
X160098719Y-114005876D01*
X161098719Y-113005876D02*
X161098719Y-113577304D01*
X161098719Y-113291590D02*
X160098719Y-113291590D01*
X160098719Y-113291590D02*
X160241576Y-113386828D01*
X160241576Y-113386828D02*
X160336814Y-113482066D01*
X160336814Y-113482066D02*
X160384433Y-113577304D01*
X176554819Y-114742857D02*
X176078628Y-115076190D01*
X176554819Y-115314285D02*
X175554819Y-115314285D01*
X175554819Y-115314285D02*
X175554819Y-114933333D01*
X175554819Y-114933333D02*
X175602438Y-114838095D01*
X175602438Y-114838095D02*
X175650057Y-114790476D01*
X175650057Y-114790476D02*
X175745295Y-114742857D01*
X175745295Y-114742857D02*
X175888152Y-114742857D01*
X175888152Y-114742857D02*
X175983390Y-114790476D01*
X175983390Y-114790476D02*
X176031009Y-114838095D01*
X176031009Y-114838095D02*
X176078628Y-114933333D01*
X176078628Y-114933333D02*
X176078628Y-115314285D01*
X176554819Y-113790476D02*
X176554819Y-114361904D01*
X176554819Y-114076190D02*
X175554819Y-114076190D01*
X175554819Y-114076190D02*
X175697676Y-114171428D01*
X175697676Y-114171428D02*
X175792914Y-114266666D01*
X175792914Y-114266666D02*
X175840533Y-114361904D01*
X176554819Y-112838095D02*
X176554819Y-113409523D01*
X176554819Y-113123809D02*
X175554819Y-113123809D01*
X175554819Y-113123809D02*
X175697676Y-113219047D01*
X175697676Y-113219047D02*
X175792914Y-113314285D01*
X175792914Y-113314285D02*
X175840533Y-113409523D01*
X178176157Y-108736838D02*
X178128538Y-108832076D01*
X178128538Y-108832076D02*
X178033300Y-108927314D01*
X178033300Y-108927314D02*
X177890442Y-109070171D01*
X177890442Y-109070171D02*
X177842823Y-109165409D01*
X177842823Y-109165409D02*
X177842823Y-109260647D01*
X178080919Y-109213028D02*
X178033300Y-109308266D01*
X178033300Y-109308266D02*
X177938061Y-109403504D01*
X177938061Y-109403504D02*
X177747585Y-109451123D01*
X177747585Y-109451123D02*
X177414252Y-109451123D01*
X177414252Y-109451123D02*
X177223776Y-109403504D01*
X177223776Y-109403504D02*
X177128538Y-109308266D01*
X177128538Y-109308266D02*
X177080919Y-109213028D01*
X177080919Y-109213028D02*
X177080919Y-109022552D01*
X177080919Y-109022552D02*
X177128538Y-108927314D01*
X177128538Y-108927314D02*
X177223776Y-108832076D01*
X177223776Y-108832076D02*
X177414252Y-108784457D01*
X177414252Y-108784457D02*
X177747585Y-108784457D01*
X177747585Y-108784457D02*
X177938061Y-108832076D01*
X177938061Y-108832076D02*
X178033300Y-108927314D01*
X178033300Y-108927314D02*
X178080919Y-109022552D01*
X178080919Y-109022552D02*
X178080919Y-109213028D01*
X177080919Y-108451123D02*
X177080919Y-107832076D01*
X177080919Y-107832076D02*
X177461871Y-108165409D01*
X177461871Y-108165409D02*
X177461871Y-108022552D01*
X177461871Y-108022552D02*
X177509490Y-107927314D01*
X177509490Y-107927314D02*
X177557109Y-107879695D01*
X177557109Y-107879695D02*
X177652347Y-107832076D01*
X177652347Y-107832076D02*
X177890442Y-107832076D01*
X177890442Y-107832076D02*
X177985680Y-107879695D01*
X177985680Y-107879695D02*
X178033300Y-107927314D01*
X178033300Y-107927314D02*
X178080919Y-108022552D01*
X178080919Y-108022552D02*
X178080919Y-108308266D01*
X178080919Y-108308266D02*
X178033300Y-108403504D01*
X178033300Y-108403504D02*
X177985680Y-108451123D01*
X161761905Y-98754819D02*
X161761905Y-97754819D01*
X161761905Y-97754819D02*
X162000000Y-97754819D01*
X162000000Y-97754819D02*
X162142857Y-97802438D01*
X162142857Y-97802438D02*
X162238095Y-97897676D01*
X162238095Y-97897676D02*
X162285714Y-97992914D01*
X162285714Y-97992914D02*
X162333333Y-98183390D01*
X162333333Y-98183390D02*
X162333333Y-98326247D01*
X162333333Y-98326247D02*
X162285714Y-98516723D01*
X162285714Y-98516723D02*
X162238095Y-98611961D01*
X162238095Y-98611961D02*
X162142857Y-98707200D01*
X162142857Y-98707200D02*
X162000000Y-98754819D01*
X162000000Y-98754819D02*
X161761905Y-98754819D01*
X163190476Y-98088152D02*
X163190476Y-98754819D01*
X162952381Y-97707200D02*
X162714286Y-98421485D01*
X162714286Y-98421485D02*
X163333333Y-98421485D01*
X172754819Y-109742857D02*
X172278628Y-110076190D01*
X172754819Y-110314285D02*
X171754819Y-110314285D01*
X171754819Y-110314285D02*
X171754819Y-109933333D01*
X171754819Y-109933333D02*
X171802438Y-109838095D01*
X171802438Y-109838095D02*
X171850057Y-109790476D01*
X171850057Y-109790476D02*
X171945295Y-109742857D01*
X171945295Y-109742857D02*
X172088152Y-109742857D01*
X172088152Y-109742857D02*
X172183390Y-109790476D01*
X172183390Y-109790476D02*
X172231009Y-109838095D01*
X172231009Y-109838095D02*
X172278628Y-109933333D01*
X172278628Y-109933333D02*
X172278628Y-110314285D01*
X172754819Y-108790476D02*
X172754819Y-109361904D01*
X172754819Y-109076190D02*
X171754819Y-109076190D01*
X171754819Y-109076190D02*
X171897676Y-109171428D01*
X171897676Y-109171428D02*
X171992914Y-109266666D01*
X171992914Y-109266666D02*
X172040533Y-109361904D01*
X171754819Y-107885714D02*
X171754819Y-108361904D01*
X171754819Y-108361904D02*
X172231009Y-108409523D01*
X172231009Y-108409523D02*
X172183390Y-108361904D01*
X172183390Y-108361904D02*
X172135771Y-108266666D01*
X172135771Y-108266666D02*
X172135771Y-108028571D01*
X172135771Y-108028571D02*
X172183390Y-107933333D01*
X172183390Y-107933333D02*
X172231009Y-107885714D01*
X172231009Y-107885714D02*
X172326247Y-107838095D01*
X172326247Y-107838095D02*
X172564342Y-107838095D01*
X172564342Y-107838095D02*
X172659580Y-107885714D01*
X172659580Y-107885714D02*
X172707200Y-107933333D01*
X172707200Y-107933333D02*
X172754819Y-108028571D01*
X172754819Y-108028571D02*
X172754819Y-108266666D01*
X172754819Y-108266666D02*
X172707200Y-108361904D01*
X172707200Y-108361904D02*
X172659580Y-108409523D01*
X178050057Y-100495238D02*
X178002438Y-100590476D01*
X178002438Y-100590476D02*
X177907200Y-100685714D01*
X177907200Y-100685714D02*
X177764342Y-100828571D01*
X177764342Y-100828571D02*
X177716723Y-100923809D01*
X177716723Y-100923809D02*
X177716723Y-101019047D01*
X177954819Y-100971428D02*
X177907200Y-101066666D01*
X177907200Y-101066666D02*
X177811961Y-101161904D01*
X177811961Y-101161904D02*
X177621485Y-101209523D01*
X177621485Y-101209523D02*
X177288152Y-101209523D01*
X177288152Y-101209523D02*
X177097676Y-101161904D01*
X177097676Y-101161904D02*
X177002438Y-101066666D01*
X177002438Y-101066666D02*
X176954819Y-100971428D01*
X176954819Y-100971428D02*
X176954819Y-100780952D01*
X176954819Y-100780952D02*
X177002438Y-100685714D01*
X177002438Y-100685714D02*
X177097676Y-100590476D01*
X177097676Y-100590476D02*
X177288152Y-100542857D01*
X177288152Y-100542857D02*
X177621485Y-100542857D01*
X177621485Y-100542857D02*
X177811961Y-100590476D01*
X177811961Y-100590476D02*
X177907200Y-100685714D01*
X177907200Y-100685714D02*
X177954819Y-100780952D01*
X177954819Y-100780952D02*
X177954819Y-100971428D01*
X177050057Y-100161904D02*
X177002438Y-100114285D01*
X177002438Y-100114285D02*
X176954819Y-100019047D01*
X176954819Y-100019047D02*
X176954819Y-99780952D01*
X176954819Y-99780952D02*
X177002438Y-99685714D01*
X177002438Y-99685714D02*
X177050057Y-99638095D01*
X177050057Y-99638095D02*
X177145295Y-99590476D01*
X177145295Y-99590476D02*
X177240533Y-99590476D01*
X177240533Y-99590476D02*
X177383390Y-99638095D01*
X177383390Y-99638095D02*
X177954819Y-100209523D01*
X177954819Y-100209523D02*
X177954819Y-99590476D01*
X142454819Y-98261904D02*
X143264342Y-98261904D01*
X143264342Y-98261904D02*
X143359580Y-98214285D01*
X143359580Y-98214285D02*
X143407200Y-98166666D01*
X143407200Y-98166666D02*
X143454819Y-98071428D01*
X143454819Y-98071428D02*
X143454819Y-97880952D01*
X143454819Y-97880952D02*
X143407200Y-97785714D01*
X143407200Y-97785714D02*
X143359580Y-97738095D01*
X143359580Y-97738095D02*
X143264342Y-97690476D01*
X143264342Y-97690476D02*
X142454819Y-97690476D01*
X143454819Y-97166666D02*
X143454819Y-96976190D01*
X143454819Y-96976190D02*
X143407200Y-96880952D01*
X143407200Y-96880952D02*
X143359580Y-96833333D01*
X143359580Y-96833333D02*
X143216723Y-96738095D01*
X143216723Y-96738095D02*
X143026247Y-96690476D01*
X143026247Y-96690476D02*
X142645295Y-96690476D01*
X142645295Y-96690476D02*
X142550057Y-96738095D01*
X142550057Y-96738095D02*
X142502438Y-96785714D01*
X142502438Y-96785714D02*
X142454819Y-96880952D01*
X142454819Y-96880952D02*
X142454819Y-97071428D01*
X142454819Y-97071428D02*
X142502438Y-97166666D01*
X142502438Y-97166666D02*
X142550057Y-97214285D01*
X142550057Y-97214285D02*
X142645295Y-97261904D01*
X142645295Y-97261904D02*
X142883390Y-97261904D01*
X142883390Y-97261904D02*
X142978628Y-97214285D01*
X142978628Y-97214285D02*
X143026247Y-97166666D01*
X143026247Y-97166666D02*
X143073866Y-97071428D01*
X143073866Y-97071428D02*
X143073866Y-96880952D01*
X143073866Y-96880952D02*
X143026247Y-96785714D01*
X143026247Y-96785714D02*
X142978628Y-96738095D01*
X142978628Y-96738095D02*
X142883390Y-96690476D01*
X159054819Y-109738094D02*
X158054819Y-109738094D01*
X158054819Y-109738094D02*
X158054819Y-109499999D01*
X158054819Y-109499999D02*
X158102438Y-109357142D01*
X158102438Y-109357142D02*
X158197676Y-109261904D01*
X158197676Y-109261904D02*
X158292914Y-109214285D01*
X158292914Y-109214285D02*
X158483390Y-109166666D01*
X158483390Y-109166666D02*
X158626247Y-109166666D01*
X158626247Y-109166666D02*
X158816723Y-109214285D01*
X158816723Y-109214285D02*
X158911961Y-109261904D01*
X158911961Y-109261904D02*
X159007200Y-109357142D01*
X159007200Y-109357142D02*
X159054819Y-109499999D01*
X159054819Y-109499999D02*
X159054819Y-109738094D01*
X158483390Y-108595237D02*
X158435771Y-108690475D01*
X158435771Y-108690475D02*
X158388152Y-108738094D01*
X158388152Y-108738094D02*
X158292914Y-108785713D01*
X158292914Y-108785713D02*
X158245295Y-108785713D01*
X158245295Y-108785713D02*
X158150057Y-108738094D01*
X158150057Y-108738094D02*
X158102438Y-108690475D01*
X158102438Y-108690475D02*
X158054819Y-108595237D01*
X158054819Y-108595237D02*
X158054819Y-108404761D01*
X158054819Y-108404761D02*
X158102438Y-108309523D01*
X158102438Y-108309523D02*
X158150057Y-108261904D01*
X158150057Y-108261904D02*
X158245295Y-108214285D01*
X158245295Y-108214285D02*
X158292914Y-108214285D01*
X158292914Y-108214285D02*
X158388152Y-108261904D01*
X158388152Y-108261904D02*
X158435771Y-108309523D01*
X158435771Y-108309523D02*
X158483390Y-108404761D01*
X158483390Y-108404761D02*
X158483390Y-108595237D01*
X158483390Y-108595237D02*
X158531009Y-108690475D01*
X158531009Y-108690475D02*
X158578628Y-108738094D01*
X158578628Y-108738094D02*
X158673866Y-108785713D01*
X158673866Y-108785713D02*
X158864342Y-108785713D01*
X158864342Y-108785713D02*
X158959580Y-108738094D01*
X158959580Y-108738094D02*
X159007200Y-108690475D01*
X159007200Y-108690475D02*
X159054819Y-108595237D01*
X159054819Y-108595237D02*
X159054819Y-108404761D01*
X159054819Y-108404761D02*
X159007200Y-108309523D01*
X159007200Y-108309523D02*
X158959580Y-108261904D01*
X158959580Y-108261904D02*
X158864342Y-108214285D01*
X158864342Y-108214285D02*
X158673866Y-108214285D01*
X158673866Y-108214285D02*
X158578628Y-108261904D01*
X158578628Y-108261904D02*
X158531009Y-108309523D01*
X158531009Y-108309523D02*
X158483390Y-108404761D01*
X149454819Y-110514285D02*
X148454819Y-110514285D01*
X148454819Y-110514285D02*
X148454819Y-110276190D01*
X148454819Y-110276190D02*
X148502438Y-110133333D01*
X148502438Y-110133333D02*
X148597676Y-110038095D01*
X148597676Y-110038095D02*
X148692914Y-109990476D01*
X148692914Y-109990476D02*
X148883390Y-109942857D01*
X148883390Y-109942857D02*
X149026247Y-109942857D01*
X149026247Y-109942857D02*
X149216723Y-109990476D01*
X149216723Y-109990476D02*
X149311961Y-110038095D01*
X149311961Y-110038095D02*
X149407200Y-110133333D01*
X149407200Y-110133333D02*
X149454819Y-110276190D01*
X149454819Y-110276190D02*
X149454819Y-110514285D01*
X149454819Y-108990476D02*
X149454819Y-109561904D01*
X149454819Y-109276190D02*
X148454819Y-109276190D01*
X148454819Y-109276190D02*
X148597676Y-109371428D01*
X148597676Y-109371428D02*
X148692914Y-109466666D01*
X148692914Y-109466666D02*
X148740533Y-109561904D01*
X148788152Y-108133333D02*
X149454819Y-108133333D01*
X148407200Y-108371428D02*
X149121485Y-108609523D01*
X149121485Y-108609523D02*
X149121485Y-107990476D01*
X152838095Y-109854819D02*
X152838095Y-110664342D01*
X152838095Y-110664342D02*
X152885714Y-110759580D01*
X152885714Y-110759580D02*
X152933333Y-110807200D01*
X152933333Y-110807200D02*
X153028571Y-110854819D01*
X153028571Y-110854819D02*
X153219047Y-110854819D01*
X153219047Y-110854819D02*
X153314285Y-110807200D01*
X153314285Y-110807200D02*
X153361904Y-110759580D01*
X153361904Y-110759580D02*
X153409523Y-110664342D01*
X153409523Y-110664342D02*
X153409523Y-109854819D01*
X153790476Y-109854819D02*
X154457142Y-109854819D01*
X154457142Y-109854819D02*
X154028571Y-110854819D01*
X155438095Y-108254819D02*
X155438095Y-109064342D01*
X155438095Y-109064342D02*
X155485714Y-109159580D01*
X155485714Y-109159580D02*
X155533333Y-109207200D01*
X155533333Y-109207200D02*
X155628571Y-109254819D01*
X155628571Y-109254819D02*
X155819047Y-109254819D01*
X155819047Y-109254819D02*
X155914285Y-109207200D01*
X155914285Y-109207200D02*
X155961904Y-109159580D01*
X155961904Y-109159580D02*
X156009523Y-109064342D01*
X156009523Y-109064342D02*
X156009523Y-108254819D01*
X156914285Y-108588152D02*
X156914285Y-109254819D01*
X156676190Y-108207200D02*
X156438095Y-108921485D01*
X156438095Y-108921485D02*
X157057142Y-108921485D01*
X153054819Y-105197266D02*
X153054819Y-105673456D01*
X153054819Y-105673456D02*
X152054819Y-105673456D01*
X152150057Y-104911551D02*
X152102438Y-104863932D01*
X152102438Y-104863932D02*
X152054819Y-104768694D01*
X152054819Y-104768694D02*
X152054819Y-104530599D01*
X152054819Y-104530599D02*
X152102438Y-104435361D01*
X152102438Y-104435361D02*
X152150057Y-104387742D01*
X152150057Y-104387742D02*
X152245295Y-104340123D01*
X152245295Y-104340123D02*
X152340533Y-104340123D01*
X152340533Y-104340123D02*
X152483390Y-104387742D01*
X152483390Y-104387742D02*
X153054819Y-104959170D01*
X153054819Y-104959170D02*
X153054819Y-104340123D01*
X143454819Y-118464866D02*
X143454819Y-118941056D01*
X143454819Y-118941056D02*
X142454819Y-118941056D01*
X142788152Y-117702961D02*
X143454819Y-117702961D01*
X142407200Y-117941056D02*
X143121485Y-118179151D01*
X143121485Y-118179151D02*
X143121485Y-117560104D01*
X148154819Y-101666666D02*
X148154819Y-102142856D01*
X148154819Y-102142856D02*
X147154819Y-102142856D01*
X148154819Y-101285713D02*
X148154819Y-101095237D01*
X148154819Y-101095237D02*
X148107200Y-100999999D01*
X148107200Y-100999999D02*
X148059580Y-100952380D01*
X148059580Y-100952380D02*
X147916723Y-100857142D01*
X147916723Y-100857142D02*
X147726247Y-100809523D01*
X147726247Y-100809523D02*
X147345295Y-100809523D01*
X147345295Y-100809523D02*
X147250057Y-100857142D01*
X147250057Y-100857142D02*
X147202438Y-100904761D01*
X147202438Y-100904761D02*
X147154819Y-100999999D01*
X147154819Y-100999999D02*
X147154819Y-101190475D01*
X147154819Y-101190475D02*
X147202438Y-101285713D01*
X147202438Y-101285713D02*
X147250057Y-101333332D01*
X147250057Y-101333332D02*
X147345295Y-101380951D01*
X147345295Y-101380951D02*
X147583390Y-101380951D01*
X147583390Y-101380951D02*
X147678628Y-101333332D01*
X147678628Y-101333332D02*
X147726247Y-101285713D01*
X147726247Y-101285713D02*
X147773866Y-101190475D01*
X147773866Y-101190475D02*
X147773866Y-100999999D01*
X147773866Y-100999999D02*
X147726247Y-100904761D01*
X147726247Y-100904761D02*
X147678628Y-100857142D01*
X147678628Y-100857142D02*
X147583390Y-100809523D01*
X141838095Y-94554819D02*
X141838095Y-95364342D01*
X141838095Y-95364342D02*
X141885714Y-95459580D01*
X141885714Y-95459580D02*
X141933333Y-95507200D01*
X141933333Y-95507200D02*
X142028571Y-95554819D01*
X142028571Y-95554819D02*
X142219047Y-95554819D01*
X142219047Y-95554819D02*
X142314285Y-95507200D01*
X142314285Y-95507200D02*
X142361904Y-95459580D01*
X142361904Y-95459580D02*
X142409523Y-95364342D01*
X142409523Y-95364342D02*
X142409523Y-94554819D01*
X142838095Y-94650057D02*
X142885714Y-94602438D01*
X142885714Y-94602438D02*
X142980952Y-94554819D01*
X142980952Y-94554819D02*
X143219047Y-94554819D01*
X143219047Y-94554819D02*
X143314285Y-94602438D01*
X143314285Y-94602438D02*
X143361904Y-94650057D01*
X143361904Y-94650057D02*
X143409523Y-94745295D01*
X143409523Y-94745295D02*
X143409523Y-94840533D01*
X143409523Y-94840533D02*
X143361904Y-94983390D01*
X143361904Y-94983390D02*
X142790476Y-95554819D01*
X142790476Y-95554819D02*
X143409523Y-95554819D01*
X142938095Y-110054819D02*
X142938095Y-110864342D01*
X142938095Y-110864342D02*
X142985714Y-110959580D01*
X142985714Y-110959580D02*
X143033333Y-111007200D01*
X143033333Y-111007200D02*
X143128571Y-111054819D01*
X143128571Y-111054819D02*
X143319047Y-111054819D01*
X143319047Y-111054819D02*
X143414285Y-111007200D01*
X143414285Y-111007200D02*
X143461904Y-110959580D01*
X143461904Y-110959580D02*
X143509523Y-110864342D01*
X143509523Y-110864342D02*
X143509523Y-110054819D01*
X144461904Y-110054819D02*
X143985714Y-110054819D01*
X143985714Y-110054819D02*
X143938095Y-110531009D01*
X143938095Y-110531009D02*
X143985714Y-110483390D01*
X143985714Y-110483390D02*
X144080952Y-110435771D01*
X144080952Y-110435771D02*
X144319047Y-110435771D01*
X144319047Y-110435771D02*
X144414285Y-110483390D01*
X144414285Y-110483390D02*
X144461904Y-110531009D01*
X144461904Y-110531009D02*
X144509523Y-110626247D01*
X144509523Y-110626247D02*
X144509523Y-110864342D01*
X144509523Y-110864342D02*
X144461904Y-110959580D01*
X144461904Y-110959580D02*
X144414285Y-111007200D01*
X144414285Y-111007200D02*
X144319047Y-111054819D01*
X144319047Y-111054819D02*
X144080952Y-111054819D01*
X144080952Y-111054819D02*
X143985714Y-111007200D01*
X143985714Y-111007200D02*
X143938095Y-110959580D01*
X145738095Y-121854819D02*
X145738095Y-122664342D01*
X145738095Y-122664342D02*
X145785714Y-122759580D01*
X145785714Y-122759580D02*
X145833333Y-122807200D01*
X145833333Y-122807200D02*
X145928571Y-122854819D01*
X145928571Y-122854819D02*
X146119047Y-122854819D01*
X146119047Y-122854819D02*
X146214285Y-122807200D01*
X146214285Y-122807200D02*
X146261904Y-122759580D01*
X146261904Y-122759580D02*
X146309523Y-122664342D01*
X146309523Y-122664342D02*
X146309523Y-121854819D01*
X147214285Y-121854819D02*
X147023809Y-121854819D01*
X147023809Y-121854819D02*
X146928571Y-121902438D01*
X146928571Y-121902438D02*
X146880952Y-121950057D01*
X146880952Y-121950057D02*
X146785714Y-122092914D01*
X146785714Y-122092914D02*
X146738095Y-122283390D01*
X146738095Y-122283390D02*
X146738095Y-122664342D01*
X146738095Y-122664342D02*
X146785714Y-122759580D01*
X146785714Y-122759580D02*
X146833333Y-122807200D01*
X146833333Y-122807200D02*
X146928571Y-122854819D01*
X146928571Y-122854819D02*
X147119047Y-122854819D01*
X147119047Y-122854819D02*
X147214285Y-122807200D01*
X147214285Y-122807200D02*
X147261904Y-122759580D01*
X147261904Y-122759580D02*
X147309523Y-122664342D01*
X147309523Y-122664342D02*
X147309523Y-122426247D01*
X147309523Y-122426247D02*
X147261904Y-122331009D01*
X147261904Y-122331009D02*
X147214285Y-122283390D01*
X147214285Y-122283390D02*
X147119047Y-122235771D01*
X147119047Y-122235771D02*
X146928571Y-122235771D01*
X146928571Y-122235771D02*
X146833333Y-122283390D01*
X146833333Y-122283390D02*
X146785714Y-122331009D01*
X146785714Y-122331009D02*
X146738095Y-122426247D01*
X146933333Y-111554819D02*
X146457143Y-111554819D01*
X146457143Y-111554819D02*
X146457143Y-110554819D01*
X147742857Y-110554819D02*
X147266667Y-110554819D01*
X147266667Y-110554819D02*
X147219048Y-111031009D01*
X147219048Y-111031009D02*
X147266667Y-110983390D01*
X147266667Y-110983390D02*
X147361905Y-110935771D01*
X147361905Y-110935771D02*
X147600000Y-110935771D01*
X147600000Y-110935771D02*
X147695238Y-110983390D01*
X147695238Y-110983390D02*
X147742857Y-111031009D01*
X147742857Y-111031009D02*
X147790476Y-111126247D01*
X147790476Y-111126247D02*
X147790476Y-111364342D01*
X147790476Y-111364342D02*
X147742857Y-111459580D01*
X147742857Y-111459580D02*
X147695238Y-111507200D01*
X147695238Y-111507200D02*
X147600000Y-111554819D01*
X147600000Y-111554819D02*
X147361905Y-111554819D01*
X147361905Y-111554819D02*
X147266667Y-111507200D01*
X147266667Y-111507200D02*
X147219048Y-111459580D01*
X145461905Y-108554819D02*
X145461905Y-109364342D01*
X145461905Y-109364342D02*
X145509524Y-109459580D01*
X145509524Y-109459580D02*
X145557143Y-109507200D01*
X145557143Y-109507200D02*
X145652381Y-109554819D01*
X145652381Y-109554819D02*
X145842857Y-109554819D01*
X145842857Y-109554819D02*
X145938095Y-109507200D01*
X145938095Y-109507200D02*
X145985714Y-109459580D01*
X145985714Y-109459580D02*
X146033333Y-109364342D01*
X146033333Y-109364342D02*
X146033333Y-108554819D01*
X147033333Y-109554819D02*
X146461905Y-109554819D01*
X146747619Y-109554819D02*
X146747619Y-108554819D01*
X146747619Y-108554819D02*
X146652381Y-108697676D01*
X146652381Y-108697676D02*
X146557143Y-108792914D01*
X146557143Y-108792914D02*
X146461905Y-108840533D01*
X147652381Y-108554819D02*
X147747619Y-108554819D01*
X147747619Y-108554819D02*
X147842857Y-108602438D01*
X147842857Y-108602438D02*
X147890476Y-108650057D01*
X147890476Y-108650057D02*
X147938095Y-108745295D01*
X147938095Y-108745295D02*
X147985714Y-108935771D01*
X147985714Y-108935771D02*
X147985714Y-109173866D01*
X147985714Y-109173866D02*
X147938095Y-109364342D01*
X147938095Y-109364342D02*
X147890476Y-109459580D01*
X147890476Y-109459580D02*
X147842857Y-109507200D01*
X147842857Y-109507200D02*
X147747619Y-109554819D01*
X147747619Y-109554819D02*
X147652381Y-109554819D01*
X147652381Y-109554819D02*
X147557143Y-109507200D01*
X147557143Y-109507200D02*
X147509524Y-109459580D01*
X147509524Y-109459580D02*
X147461905Y-109364342D01*
X147461905Y-109364342D02*
X147414286Y-109173866D01*
X147414286Y-109173866D02*
X147414286Y-108935771D01*
X147414286Y-108935771D02*
X147461905Y-108745295D01*
X147461905Y-108745295D02*
X147509524Y-108650057D01*
X147509524Y-108650057D02*
X147557143Y-108602438D01*
X147557143Y-108602438D02*
X147652381Y-108554819D01*
X158154819Y-114566666D02*
X158154819Y-115042856D01*
X158154819Y-115042856D02*
X157154819Y-115042856D01*
X157154819Y-114328570D02*
X157154819Y-113661904D01*
X157154819Y-113661904D02*
X158154819Y-114090475D01*
X148185714Y-123054819D02*
X148185714Y-122054819D01*
X148185714Y-122054819D02*
X148423809Y-122054819D01*
X148423809Y-122054819D02*
X148566666Y-122102438D01*
X148566666Y-122102438D02*
X148661904Y-122197676D01*
X148661904Y-122197676D02*
X148709523Y-122292914D01*
X148709523Y-122292914D02*
X148757142Y-122483390D01*
X148757142Y-122483390D02*
X148757142Y-122626247D01*
X148757142Y-122626247D02*
X148709523Y-122816723D01*
X148709523Y-122816723D02*
X148661904Y-122911961D01*
X148661904Y-122911961D02*
X148566666Y-123007200D01*
X148566666Y-123007200D02*
X148423809Y-123054819D01*
X148423809Y-123054819D02*
X148185714Y-123054819D01*
X149709523Y-123054819D02*
X149138095Y-123054819D01*
X149423809Y-123054819D02*
X149423809Y-122054819D01*
X149423809Y-122054819D02*
X149328571Y-122197676D01*
X149328571Y-122197676D02*
X149233333Y-122292914D01*
X149233333Y-122292914D02*
X149138095Y-122340533D01*
X150328571Y-122054819D02*
X150423809Y-122054819D01*
X150423809Y-122054819D02*
X150519047Y-122102438D01*
X150519047Y-122102438D02*
X150566666Y-122150057D01*
X150566666Y-122150057D02*
X150614285Y-122245295D01*
X150614285Y-122245295D02*
X150661904Y-122435771D01*
X150661904Y-122435771D02*
X150661904Y-122673866D01*
X150661904Y-122673866D02*
X150614285Y-122864342D01*
X150614285Y-122864342D02*
X150566666Y-122959580D01*
X150566666Y-122959580D02*
X150519047Y-123007200D01*
X150519047Y-123007200D02*
X150423809Y-123054819D01*
X150423809Y-123054819D02*
X150328571Y-123054819D01*
X150328571Y-123054819D02*
X150233333Y-123007200D01*
X150233333Y-123007200D02*
X150185714Y-122959580D01*
X150185714Y-122959580D02*
X150138095Y-122864342D01*
X150138095Y-122864342D02*
X150090476Y-122673866D01*
X150090476Y-122673866D02*
X150090476Y-122435771D01*
X150090476Y-122435771D02*
X150138095Y-122245295D01*
X150138095Y-122245295D02*
X150185714Y-122150057D01*
X150185714Y-122150057D02*
X150233333Y-122102438D01*
X150233333Y-122102438D02*
X150328571Y-122054819D01*
X158285714Y-122754819D02*
X158285714Y-121754819D01*
X158285714Y-121754819D02*
X158523809Y-121754819D01*
X158523809Y-121754819D02*
X158666666Y-121802438D01*
X158666666Y-121802438D02*
X158761904Y-121897676D01*
X158761904Y-121897676D02*
X158809523Y-121992914D01*
X158809523Y-121992914D02*
X158857142Y-122183390D01*
X158857142Y-122183390D02*
X158857142Y-122326247D01*
X158857142Y-122326247D02*
X158809523Y-122516723D01*
X158809523Y-122516723D02*
X158761904Y-122611961D01*
X158761904Y-122611961D02*
X158666666Y-122707200D01*
X158666666Y-122707200D02*
X158523809Y-122754819D01*
X158523809Y-122754819D02*
X158285714Y-122754819D01*
X159809523Y-122754819D02*
X159238095Y-122754819D01*
X159523809Y-122754819D02*
X159523809Y-121754819D01*
X159523809Y-121754819D02*
X159428571Y-121897676D01*
X159428571Y-121897676D02*
X159333333Y-121992914D01*
X159333333Y-121992914D02*
X159238095Y-122040533D01*
X160190476Y-121850057D02*
X160238095Y-121802438D01*
X160238095Y-121802438D02*
X160333333Y-121754819D01*
X160333333Y-121754819D02*
X160571428Y-121754819D01*
X160571428Y-121754819D02*
X160666666Y-121802438D01*
X160666666Y-121802438D02*
X160714285Y-121850057D01*
X160714285Y-121850057D02*
X160761904Y-121945295D01*
X160761904Y-121945295D02*
X160761904Y-122040533D01*
X160761904Y-122040533D02*
X160714285Y-122183390D01*
X160714285Y-122183390D02*
X160142857Y-122754819D01*
X160142857Y-122754819D02*
X160761904Y-122754819D01*
X141554819Y-111638094D02*
X140554819Y-111638094D01*
X140554819Y-111638094D02*
X140554819Y-111399999D01*
X140554819Y-111399999D02*
X140602438Y-111257142D01*
X140602438Y-111257142D02*
X140697676Y-111161904D01*
X140697676Y-111161904D02*
X140792914Y-111114285D01*
X140792914Y-111114285D02*
X140983390Y-111066666D01*
X140983390Y-111066666D02*
X141126247Y-111066666D01*
X141126247Y-111066666D02*
X141316723Y-111114285D01*
X141316723Y-111114285D02*
X141411961Y-111161904D01*
X141411961Y-111161904D02*
X141507200Y-111257142D01*
X141507200Y-111257142D02*
X141554819Y-111399999D01*
X141554819Y-111399999D02*
X141554819Y-111638094D01*
X141554819Y-110590475D02*
X141554819Y-110399999D01*
X141554819Y-110399999D02*
X141507200Y-110304761D01*
X141507200Y-110304761D02*
X141459580Y-110257142D01*
X141459580Y-110257142D02*
X141316723Y-110161904D01*
X141316723Y-110161904D02*
X141126247Y-110114285D01*
X141126247Y-110114285D02*
X140745295Y-110114285D01*
X140745295Y-110114285D02*
X140650057Y-110161904D01*
X140650057Y-110161904D02*
X140602438Y-110209523D01*
X140602438Y-110209523D02*
X140554819Y-110304761D01*
X140554819Y-110304761D02*
X140554819Y-110495237D01*
X140554819Y-110495237D02*
X140602438Y-110590475D01*
X140602438Y-110590475D02*
X140650057Y-110638094D01*
X140650057Y-110638094D02*
X140745295Y-110685713D01*
X140745295Y-110685713D02*
X140983390Y-110685713D01*
X140983390Y-110685713D02*
X141078628Y-110638094D01*
X141078628Y-110638094D02*
X141126247Y-110590475D01*
X141126247Y-110590475D02*
X141173866Y-110495237D01*
X141173866Y-110495237D02*
X141173866Y-110304761D01*
X141173866Y-110304761D02*
X141126247Y-110209523D01*
X141126247Y-110209523D02*
X141078628Y-110161904D01*
X141078628Y-110161904D02*
X140983390Y-110114285D01*
X152690476Y-97762295D02*
X152690476Y-98409914D01*
X152690476Y-98409914D02*
X152728571Y-98486104D01*
X152728571Y-98486104D02*
X152766666Y-98524200D01*
X152766666Y-98524200D02*
X152842857Y-98562295D01*
X152842857Y-98562295D02*
X152995238Y-98562295D01*
X152995238Y-98562295D02*
X153071428Y-98524200D01*
X153071428Y-98524200D02*
X153109523Y-98486104D01*
X153109523Y-98486104D02*
X153147619Y-98409914D01*
X153147619Y-98409914D02*
X153147619Y-97762295D01*
X153452380Y-97762295D02*
X153947618Y-97762295D01*
X153947618Y-97762295D02*
X153680952Y-98067057D01*
X153680952Y-98067057D02*
X153795237Y-98067057D01*
X153795237Y-98067057D02*
X153871428Y-98105152D01*
X153871428Y-98105152D02*
X153909523Y-98143247D01*
X153909523Y-98143247D02*
X153947618Y-98219438D01*
X153947618Y-98219438D02*
X153947618Y-98409914D01*
X153947618Y-98409914D02*
X153909523Y-98486104D01*
X153909523Y-98486104D02*
X153871428Y-98524200D01*
X153871428Y-98524200D02*
X153795237Y-98562295D01*
X153795237Y-98562295D02*
X153566666Y-98562295D01*
X153566666Y-98562295D02*
X153490475Y-98524200D01*
X153490475Y-98524200D02*
X153452380Y-98486104D01*
X150409524Y-98662295D02*
X150409524Y-97862295D01*
X150409524Y-97862295D02*
X150600000Y-97862295D01*
X150600000Y-97862295D02*
X150714286Y-97900390D01*
X150714286Y-97900390D02*
X150790476Y-97976580D01*
X150790476Y-97976580D02*
X150828571Y-98052771D01*
X150828571Y-98052771D02*
X150866667Y-98205152D01*
X150866667Y-98205152D02*
X150866667Y-98319438D01*
X150866667Y-98319438D02*
X150828571Y-98471819D01*
X150828571Y-98471819D02*
X150790476Y-98548009D01*
X150790476Y-98548009D02*
X150714286Y-98624200D01*
X150714286Y-98624200D02*
X150600000Y-98662295D01*
X150600000Y-98662295D02*
X150409524Y-98662295D01*
X151133333Y-97862295D02*
X151666667Y-97862295D01*
X151666667Y-97862295D02*
X151323809Y-98662295D01*
X152792133Y-94754819D02*
X152315943Y-94754819D01*
X152315943Y-94754819D02*
X152315943Y-93754819D01*
X153649276Y-94754819D02*
X153077848Y-94754819D01*
X153363562Y-94754819D02*
X153363562Y-93754819D01*
X153363562Y-93754819D02*
X153268324Y-93897676D01*
X153268324Y-93897676D02*
X153173086Y-93992914D01*
X153173086Y-93992914D02*
X153077848Y-94040533D01*
X153654819Y-118566466D02*
X153654819Y-119042656D01*
X153654819Y-119042656D02*
X152654819Y-119042656D01*
X152654819Y-117804561D02*
X152654819Y-117995037D01*
X152654819Y-117995037D02*
X152702438Y-118090275D01*
X152702438Y-118090275D02*
X152750057Y-118137894D01*
X152750057Y-118137894D02*
X152892914Y-118233132D01*
X152892914Y-118233132D02*
X153083390Y-118280751D01*
X153083390Y-118280751D02*
X153464342Y-118280751D01*
X153464342Y-118280751D02*
X153559580Y-118233132D01*
X153559580Y-118233132D02*
X153607200Y-118185513D01*
X153607200Y-118185513D02*
X153654819Y-118090275D01*
X153654819Y-118090275D02*
X153654819Y-117899799D01*
X153654819Y-117899799D02*
X153607200Y-117804561D01*
X153607200Y-117804561D02*
X153559580Y-117756942D01*
X153559580Y-117756942D02*
X153464342Y-117709323D01*
X153464342Y-117709323D02*
X153226247Y-117709323D01*
X153226247Y-117709323D02*
X153131009Y-117756942D01*
X153131009Y-117756942D02*
X153083390Y-117804561D01*
X153083390Y-117804561D02*
X153035771Y-117899799D01*
X153035771Y-117899799D02*
X153035771Y-118090275D01*
X153035771Y-118090275D02*
X153083390Y-118185513D01*
X153083390Y-118185513D02*
X153131009Y-118233132D01*
X153131009Y-118233132D02*
X153226247Y-118280751D01*
X156138095Y-121854819D02*
X156138095Y-122664342D01*
X156138095Y-122664342D02*
X156185714Y-122759580D01*
X156185714Y-122759580D02*
X156233333Y-122807200D01*
X156233333Y-122807200D02*
X156328571Y-122854819D01*
X156328571Y-122854819D02*
X156519047Y-122854819D01*
X156519047Y-122854819D02*
X156614285Y-122807200D01*
X156614285Y-122807200D02*
X156661904Y-122759580D01*
X156661904Y-122759580D02*
X156709523Y-122664342D01*
X156709523Y-122664342D02*
X156709523Y-121854819D01*
X157328571Y-122283390D02*
X157233333Y-122235771D01*
X157233333Y-122235771D02*
X157185714Y-122188152D01*
X157185714Y-122188152D02*
X157138095Y-122092914D01*
X157138095Y-122092914D02*
X157138095Y-122045295D01*
X157138095Y-122045295D02*
X157185714Y-121950057D01*
X157185714Y-121950057D02*
X157233333Y-121902438D01*
X157233333Y-121902438D02*
X157328571Y-121854819D01*
X157328571Y-121854819D02*
X157519047Y-121854819D01*
X157519047Y-121854819D02*
X157614285Y-121902438D01*
X157614285Y-121902438D02*
X157661904Y-121950057D01*
X157661904Y-121950057D02*
X157709523Y-122045295D01*
X157709523Y-122045295D02*
X157709523Y-122092914D01*
X157709523Y-122092914D02*
X157661904Y-122188152D01*
X157661904Y-122188152D02*
X157614285Y-122235771D01*
X157614285Y-122235771D02*
X157519047Y-122283390D01*
X157519047Y-122283390D02*
X157328571Y-122283390D01*
X157328571Y-122283390D02*
X157233333Y-122331009D01*
X157233333Y-122331009D02*
X157185714Y-122378628D01*
X157185714Y-122378628D02*
X157138095Y-122473866D01*
X157138095Y-122473866D02*
X157138095Y-122664342D01*
X157138095Y-122664342D02*
X157185714Y-122759580D01*
X157185714Y-122759580D02*
X157233333Y-122807200D01*
X157233333Y-122807200D02*
X157328571Y-122854819D01*
X157328571Y-122854819D02*
X157519047Y-122854819D01*
X157519047Y-122854819D02*
X157614285Y-122807200D01*
X157614285Y-122807200D02*
X157661904Y-122759580D01*
X157661904Y-122759580D02*
X157709523Y-122664342D01*
X157709523Y-122664342D02*
X157709523Y-122473866D01*
X157709523Y-122473866D02*
X157661904Y-122378628D01*
X157661904Y-122378628D02*
X157614285Y-122331009D01*
X157614285Y-122331009D02*
X157519047Y-122283390D01*
X141454819Y-98214285D02*
X140454819Y-98214285D01*
X140454819Y-98214285D02*
X140454819Y-97976190D01*
X140454819Y-97976190D02*
X140502438Y-97833333D01*
X140502438Y-97833333D02*
X140597676Y-97738095D01*
X140597676Y-97738095D02*
X140692914Y-97690476D01*
X140692914Y-97690476D02*
X140883390Y-97642857D01*
X140883390Y-97642857D02*
X141026247Y-97642857D01*
X141026247Y-97642857D02*
X141216723Y-97690476D01*
X141216723Y-97690476D02*
X141311961Y-97738095D01*
X141311961Y-97738095D02*
X141407200Y-97833333D01*
X141407200Y-97833333D02*
X141454819Y-97976190D01*
X141454819Y-97976190D02*
X141454819Y-98214285D01*
X141454819Y-96690476D02*
X141454819Y-97261904D01*
X141454819Y-96976190D02*
X140454819Y-96976190D01*
X140454819Y-96976190D02*
X140597676Y-97071428D01*
X140597676Y-97071428D02*
X140692914Y-97166666D01*
X140692914Y-97166666D02*
X140740533Y-97261904D01*
X140454819Y-96357142D02*
X140454819Y-95738095D01*
X140454819Y-95738095D02*
X140835771Y-96071428D01*
X140835771Y-96071428D02*
X140835771Y-95928571D01*
X140835771Y-95928571D02*
X140883390Y-95833333D01*
X140883390Y-95833333D02*
X140931009Y-95785714D01*
X140931009Y-95785714D02*
X141026247Y-95738095D01*
X141026247Y-95738095D02*
X141264342Y-95738095D01*
X141264342Y-95738095D02*
X141359580Y-95785714D01*
X141359580Y-95785714D02*
X141407200Y-95833333D01*
X141407200Y-95833333D02*
X141454819Y-95928571D01*
X141454819Y-95928571D02*
X141454819Y-96214285D01*
X141454819Y-96214285D02*
X141407200Y-96309523D01*
X141407200Y-96309523D02*
X141359580Y-96357142D01*
X149785714Y-111354819D02*
X149785714Y-110354819D01*
X149785714Y-110354819D02*
X150023809Y-110354819D01*
X150023809Y-110354819D02*
X150166666Y-110402438D01*
X150166666Y-110402438D02*
X150261904Y-110497676D01*
X150261904Y-110497676D02*
X150309523Y-110592914D01*
X150309523Y-110592914D02*
X150357142Y-110783390D01*
X150357142Y-110783390D02*
X150357142Y-110926247D01*
X150357142Y-110926247D02*
X150309523Y-111116723D01*
X150309523Y-111116723D02*
X150261904Y-111211961D01*
X150261904Y-111211961D02*
X150166666Y-111307200D01*
X150166666Y-111307200D02*
X150023809Y-111354819D01*
X150023809Y-111354819D02*
X149785714Y-111354819D01*
X151309523Y-111354819D02*
X150738095Y-111354819D01*
X151023809Y-111354819D02*
X151023809Y-110354819D01*
X151023809Y-110354819D02*
X150928571Y-110497676D01*
X150928571Y-110497676D02*
X150833333Y-110592914D01*
X150833333Y-110592914D02*
X150738095Y-110640533D01*
X152261904Y-111354819D02*
X151690476Y-111354819D01*
X151976190Y-111354819D02*
X151976190Y-110354819D01*
X151976190Y-110354819D02*
X151880952Y-110497676D01*
X151880952Y-110497676D02*
X151785714Y-110592914D01*
X151785714Y-110592914D02*
X151690476Y-110640533D01*
X149054819Y-98238094D02*
X148054819Y-98238094D01*
X148054819Y-98238094D02*
X148054819Y-97999999D01*
X148054819Y-97999999D02*
X148102438Y-97857142D01*
X148102438Y-97857142D02*
X148197676Y-97761904D01*
X148197676Y-97761904D02*
X148292914Y-97714285D01*
X148292914Y-97714285D02*
X148483390Y-97666666D01*
X148483390Y-97666666D02*
X148626247Y-97666666D01*
X148626247Y-97666666D02*
X148816723Y-97714285D01*
X148816723Y-97714285D02*
X148911961Y-97761904D01*
X148911961Y-97761904D02*
X149007200Y-97857142D01*
X149007200Y-97857142D02*
X149054819Y-97999999D01*
X149054819Y-97999999D02*
X149054819Y-98238094D01*
X148054819Y-96809523D02*
X148054819Y-96999999D01*
X148054819Y-96999999D02*
X148102438Y-97095237D01*
X148102438Y-97095237D02*
X148150057Y-97142856D01*
X148150057Y-97142856D02*
X148292914Y-97238094D01*
X148292914Y-97238094D02*
X148483390Y-97285713D01*
X148483390Y-97285713D02*
X148864342Y-97285713D01*
X148864342Y-97285713D02*
X148959580Y-97238094D01*
X148959580Y-97238094D02*
X149007200Y-97190475D01*
X149007200Y-97190475D02*
X149054819Y-97095237D01*
X149054819Y-97095237D02*
X149054819Y-96904761D01*
X149054819Y-96904761D02*
X149007200Y-96809523D01*
X149007200Y-96809523D02*
X148959580Y-96761904D01*
X148959580Y-96761904D02*
X148864342Y-96714285D01*
X148864342Y-96714285D02*
X148626247Y-96714285D01*
X148626247Y-96714285D02*
X148531009Y-96761904D01*
X148531009Y-96761904D02*
X148483390Y-96809523D01*
X148483390Y-96809523D02*
X148435771Y-96904761D01*
X148435771Y-96904761D02*
X148435771Y-97095237D01*
X148435771Y-97095237D02*
X148483390Y-97190475D01*
X148483390Y-97190475D02*
X148531009Y-97238094D01*
X148531009Y-97238094D02*
X148626247Y-97285713D01*
X156836166Y-93354819D02*
X156836166Y-94069104D01*
X156836166Y-94069104D02*
X156788547Y-94211961D01*
X156788547Y-94211961D02*
X156693309Y-94307200D01*
X156693309Y-94307200D02*
X156550452Y-94354819D01*
X156550452Y-94354819D02*
X156455214Y-94354819D01*
X157740928Y-93354819D02*
X157550452Y-93354819D01*
X157550452Y-93354819D02*
X157455214Y-93402438D01*
X157455214Y-93402438D02*
X157407595Y-93450057D01*
X157407595Y-93450057D02*
X157312357Y-93592914D01*
X157312357Y-93592914D02*
X157264738Y-93783390D01*
X157264738Y-93783390D02*
X157264738Y-94164342D01*
X157264738Y-94164342D02*
X157312357Y-94259580D01*
X157312357Y-94259580D02*
X157359976Y-94307200D01*
X157359976Y-94307200D02*
X157455214Y-94354819D01*
X157455214Y-94354819D02*
X157645690Y-94354819D01*
X157645690Y-94354819D02*
X157740928Y-94307200D01*
X157740928Y-94307200D02*
X157788547Y-94259580D01*
X157788547Y-94259580D02*
X157836166Y-94164342D01*
X157836166Y-94164342D02*
X157836166Y-93926247D01*
X157836166Y-93926247D02*
X157788547Y-93831009D01*
X157788547Y-93831009D02*
X157740928Y-93783390D01*
X157740928Y-93783390D02*
X157645690Y-93735771D01*
X157645690Y-93735771D02*
X157455214Y-93735771D01*
X157455214Y-93735771D02*
X157359976Y-93783390D01*
X157359976Y-93783390D02*
X157312357Y-93831009D01*
X157312357Y-93831009D02*
X157264738Y-93926247D01*
X143054819Y-105466666D02*
X143054819Y-105942856D01*
X143054819Y-105942856D02*
X142054819Y-105942856D01*
X142483390Y-104990475D02*
X142435771Y-105085713D01*
X142435771Y-105085713D02*
X142388152Y-105133332D01*
X142388152Y-105133332D02*
X142292914Y-105180951D01*
X142292914Y-105180951D02*
X142245295Y-105180951D01*
X142245295Y-105180951D02*
X142150057Y-105133332D01*
X142150057Y-105133332D02*
X142102438Y-105085713D01*
X142102438Y-105085713D02*
X142054819Y-104990475D01*
X142054819Y-104990475D02*
X142054819Y-104799999D01*
X142054819Y-104799999D02*
X142102438Y-104704761D01*
X142102438Y-104704761D02*
X142150057Y-104657142D01*
X142150057Y-104657142D02*
X142245295Y-104609523D01*
X142245295Y-104609523D02*
X142292914Y-104609523D01*
X142292914Y-104609523D02*
X142388152Y-104657142D01*
X142388152Y-104657142D02*
X142435771Y-104704761D01*
X142435771Y-104704761D02*
X142483390Y-104799999D01*
X142483390Y-104799999D02*
X142483390Y-104990475D01*
X142483390Y-104990475D02*
X142531009Y-105085713D01*
X142531009Y-105085713D02*
X142578628Y-105133332D01*
X142578628Y-105133332D02*
X142673866Y-105180951D01*
X142673866Y-105180951D02*
X142864342Y-105180951D01*
X142864342Y-105180951D02*
X142959580Y-105133332D01*
X142959580Y-105133332D02*
X143007200Y-105085713D01*
X143007200Y-105085713D02*
X143054819Y-104990475D01*
X143054819Y-104990475D02*
X143054819Y-104799999D01*
X143054819Y-104799999D02*
X143007200Y-104704761D01*
X143007200Y-104704761D02*
X142959580Y-104657142D01*
X142959580Y-104657142D02*
X142864342Y-104609523D01*
X142864342Y-104609523D02*
X142673866Y-104609523D01*
X142673866Y-104609523D02*
X142578628Y-104657142D01*
X142578628Y-104657142D02*
X142531009Y-104704761D01*
X142531009Y-104704761D02*
X142483390Y-104799999D01*
X140327619Y-109178933D02*
X141041904Y-109178933D01*
X141041904Y-109178933D02*
X141184761Y-109226552D01*
X141184761Y-109226552D02*
X141280000Y-109321790D01*
X141280000Y-109321790D02*
X141327619Y-109464647D01*
X141327619Y-109464647D02*
X141327619Y-109559885D01*
X141327619Y-108178933D02*
X141327619Y-108750361D01*
X141327619Y-108464647D02*
X140327619Y-108464647D01*
X140327619Y-108464647D02*
X140470476Y-108559885D01*
X140470476Y-108559885D02*
X140565714Y-108655123D01*
X140565714Y-108655123D02*
X140613333Y-108750361D01*
X162466666Y-93154819D02*
X162466666Y-93869104D01*
X162466666Y-93869104D02*
X162419047Y-94011961D01*
X162419047Y-94011961D02*
X162323809Y-94107200D01*
X162323809Y-94107200D02*
X162180952Y-94154819D01*
X162180952Y-94154819D02*
X162085714Y-94154819D01*
X162990476Y-94154819D02*
X163180952Y-94154819D01*
X163180952Y-94154819D02*
X163276190Y-94107200D01*
X163276190Y-94107200D02*
X163323809Y-94059580D01*
X163323809Y-94059580D02*
X163419047Y-93916723D01*
X163419047Y-93916723D02*
X163466666Y-93726247D01*
X163466666Y-93726247D02*
X163466666Y-93345295D01*
X163466666Y-93345295D02*
X163419047Y-93250057D01*
X163419047Y-93250057D02*
X163371428Y-93202438D01*
X163371428Y-93202438D02*
X163276190Y-93154819D01*
X163276190Y-93154819D02*
X163085714Y-93154819D01*
X163085714Y-93154819D02*
X162990476Y-93202438D01*
X162990476Y-93202438D02*
X162942857Y-93250057D01*
X162942857Y-93250057D02*
X162895238Y-93345295D01*
X162895238Y-93345295D02*
X162895238Y-93583390D01*
X162895238Y-93583390D02*
X162942857Y-93678628D01*
X162942857Y-93678628D02*
X162990476Y-93726247D01*
X162990476Y-93726247D02*
X163085714Y-93773866D01*
X163085714Y-93773866D02*
X163276190Y-93773866D01*
X163276190Y-93773866D02*
X163371428Y-93726247D01*
X163371428Y-93726247D02*
X163419047Y-93678628D01*
X163419047Y-93678628D02*
X163466666Y-93583390D01*
D11*
%TO.C,L3*%
X159375200Y-104298400D02*
X158675200Y-104298400D01*
X159375200Y-98698400D02*
X159375200Y-104298400D01*
X158675200Y-98698400D02*
X159375200Y-98698400D01*
X154975200Y-104298400D02*
X155675200Y-104298400D01*
X154975200Y-98698400D02*
X155675200Y-98698400D01*
X154975200Y-98698400D02*
X154975200Y-104298400D01*
%TO.C,J10*%
X184260000Y-97510000D02*
X184260000Y-96260000D01*
X183960000Y-97210000D02*
X183960000Y-92490000D01*
X183960000Y-95900000D02*
X183350000Y-95900000D01*
X183960000Y-94600000D02*
X183350000Y-94600000D01*
X183960000Y-92490000D02*
X169840000Y-92490000D01*
X183350000Y-96600000D02*
X183350000Y-93100000D01*
X183350000Y-93100000D02*
X170450000Y-93100000D01*
X183010000Y-97510000D02*
X184260000Y-97510000D01*
X182500000Y-97410000D02*
X182500000Y-97210000D01*
X182200000Y-97410000D02*
X182500000Y-97410000D01*
X182200000Y-97310000D02*
X182500000Y-97310000D01*
X182200000Y-97210000D02*
X182200000Y-97410000D01*
X181400000Y-97210000D02*
X181400000Y-96600000D01*
X181400000Y-96600000D02*
X183350000Y-96600000D01*
X181000000Y-93600000D02*
X180800000Y-93600000D01*
X181000000Y-93100000D02*
X181000000Y-93600000D01*
X180900000Y-93100000D02*
X180900000Y-93600000D01*
X180800000Y-93600000D02*
X180800000Y-93100000D01*
X179000000Y-93600000D02*
X178800000Y-93600000D01*
X179000000Y-93100000D02*
X179000000Y-93600000D01*
X178900000Y-93100000D02*
X178900000Y-93600000D01*
X178800000Y-93600000D02*
X178800000Y-93100000D01*
X177000000Y-93600000D02*
X176800000Y-93600000D01*
X177000000Y-93100000D02*
X177000000Y-93600000D01*
X176900000Y-93100000D02*
X176900000Y-93600000D01*
X176800000Y-93600000D02*
X176800000Y-93100000D01*
X175000000Y-93600000D02*
X174800000Y-93600000D01*
X175000000Y-93100000D02*
X175000000Y-93600000D01*
X174900000Y-93100000D02*
X174900000Y-93600000D01*
X174800000Y-93600000D02*
X174800000Y-93100000D01*
X173000000Y-93600000D02*
X172800000Y-93600000D01*
X173000000Y-93100000D02*
X173000000Y-93600000D01*
X172900000Y-93100000D02*
X172900000Y-93600000D01*
X172800000Y-93600000D02*
X172800000Y-93100000D01*
X172400000Y-96600000D02*
X172400000Y-97210000D01*
X170450000Y-96600000D02*
X172400000Y-96600000D01*
X170450000Y-93100000D02*
X170450000Y-96600000D01*
X169840000Y-97210000D02*
X183960000Y-97210000D01*
X169840000Y-95900000D02*
X170450000Y-95900000D01*
X169840000Y-94600000D02*
X170450000Y-94600000D01*
X169840000Y-92490000D02*
X169840000Y-97210000D01*
%TO.C,Q4*%
X189642170Y-98363178D02*
X189312170Y-98123178D01*
X189642170Y-97883178D01*
X189642170Y-98363178D01*
G36*
X189642170Y-98363178D02*
G01*
X189312170Y-98123178D01*
X189642170Y-97883178D01*
X189642170Y-98363178D01*
G37*
X189576900Y-104314800D02*
X189576900Y-98634800D01*
X184206900Y-104314800D02*
X184206900Y-98194800D01*
%TO.C,Q5*%
X184497030Y-111773222D02*
X184167030Y-112013222D01*
X184167030Y-111533222D01*
X184497030Y-111773222D01*
G36*
X184497030Y-111773222D02*
G01*
X184167030Y-112013222D01*
X184167030Y-111533222D01*
X184497030Y-111773222D01*
G37*
X189602300Y-105581600D02*
X189602300Y-111701600D01*
X184232300Y-105581600D02*
X184232300Y-111261600D01*
%TO.C,R5*%
X171076727Y-120277658D02*
X171076727Y-119803142D01*
X170031727Y-120277658D02*
X170031727Y-119803142D01*
%TO.C,Q1*%
X174222200Y-105764400D02*
X173982200Y-105434400D01*
X174462200Y-105434400D01*
X174222200Y-105764400D01*
G36*
X174222200Y-105764400D02*
G01*
X173982200Y-105434400D01*
X174462200Y-105434400D01*
X174222200Y-105764400D01*
G37*
X175384700Y-105714400D02*
X176034700Y-105714400D01*
X175384700Y-105714400D02*
X174734700Y-105714400D01*
X175384700Y-108834400D02*
X176034700Y-108834400D01*
X175384700Y-108834400D02*
X174734700Y-108834400D01*
%TO.C,R8*%
X166255807Y-120277658D02*
X166255807Y-119803142D01*
X165210807Y-120277658D02*
X165210807Y-119803142D01*
%TO.C,R7*%
X172683700Y-120277658D02*
X172683700Y-119803142D01*
X171638700Y-120277658D02*
X171638700Y-119803142D01*
%TO.C,D2*%
X172840000Y-102300000D02*
X176850000Y-102300000D01*
X172840000Y-102300000D02*
X172840000Y-104300000D01*
X172840000Y-104300000D02*
X176850000Y-104300000D01*
%TO.C,R23*%
X163041860Y-120277658D02*
X163041860Y-119803142D01*
X161996860Y-120277658D02*
X161996860Y-119803142D01*
%TO.C,J4*%
X184108400Y-121352000D02*
X184108400Y-122682000D01*
X182778400Y-121352000D02*
X184108400Y-121352000D01*
X181508400Y-121352000D02*
X173828400Y-121352000D01*
X181508400Y-121352000D02*
X181508400Y-124012000D01*
X173828400Y-121352000D02*
X173828400Y-124012000D01*
X181508400Y-124012000D02*
X173828400Y-124012000D01*
%TO.C,R17*%
X164648833Y-120277658D02*
X164648833Y-119803142D01*
X163603833Y-120277658D02*
X163603833Y-119803142D01*
%TO.C,R12*%
X177670966Y-114278336D02*
X177670966Y-118632464D01*
X181090966Y-114278336D02*
X181090966Y-118632464D01*
%TO.C,D1*%
X160150400Y-100686800D02*
X170160400Y-100686800D01*
X160150400Y-107186800D02*
X160150400Y-100686800D01*
X160150400Y-107186800D02*
X170160400Y-107186800D01*
%TO.C,R1*%
X167862780Y-120277658D02*
X167862780Y-119803142D01*
X166817780Y-120277658D02*
X166817780Y-119803142D01*
%TO.C,R13*%
X181853500Y-114329136D02*
X181853500Y-118683264D01*
X185273500Y-114329136D02*
X185273500Y-118683264D01*
%TO.C,R4*%
X169469753Y-120277658D02*
X169469753Y-119803142D01*
X168424753Y-120277658D02*
X168424753Y-119803142D01*
%TO.C,R10*%
X172960800Y-115115142D02*
X172960800Y-115589658D01*
X171915800Y-115115142D02*
X171915800Y-115589658D01*
%TO.C,R14*%
X186126234Y-114329136D02*
X186126234Y-118683264D01*
X189546234Y-114329136D02*
X189546234Y-118683264D01*
%TO.C,U1*%
X161758900Y-116715400D02*
X161428900Y-116955400D01*
X161428900Y-116475400D01*
X161758900Y-116715400D01*
G36*
X161758900Y-116715400D02*
G01*
X161428900Y-116955400D01*
X161428900Y-116475400D01*
X161758900Y-116715400D01*
G37*
X171403900Y-111505400D02*
X171128900Y-111505400D01*
X161483900Y-111505400D02*
X161758900Y-111505400D01*
X171403900Y-113815400D02*
X171403900Y-111505400D01*
X171403900Y-113815400D02*
X171403900Y-116125400D01*
X161483900Y-113815400D02*
X161483900Y-111505400D01*
X161483900Y-113815400D02*
X161483900Y-116125400D01*
X171403900Y-116125400D02*
X171128900Y-116125400D01*
X161483900Y-116125400D02*
X161758900Y-116125400D01*
%TO.C,R11*%
X176840700Y-111774636D02*
X176840700Y-116128764D01*
X173420700Y-111774636D02*
X173420700Y-116128764D01*
%TO.C,Q3*%
X178441100Y-105581600D02*
X178441100Y-111261600D01*
X183811100Y-105581600D02*
X183811100Y-111701600D01*
X178705830Y-111773222D02*
X178375830Y-112013222D01*
X178375830Y-111533222D01*
X178705830Y-111773222D01*
G36*
X178705830Y-111773222D02*
G01*
X178375830Y-112013222D01*
X178375830Y-111533222D01*
X178705830Y-111773222D01*
G37*
%TO.C,D4*%
X164400600Y-99036200D02*
X162115600Y-99036200D01*
X164400600Y-100506200D02*
X164400600Y-99036200D01*
X162115600Y-100506200D02*
X164400600Y-100506200D01*
%TO.C,R15*%
X172960800Y-112067142D02*
X172960800Y-112541658D01*
X171915800Y-112067142D02*
X171915800Y-112541658D01*
%TO.C,Q2*%
X178415700Y-104306000D02*
X178415700Y-98186000D01*
X183785700Y-104306000D02*
X183785700Y-98626000D01*
X183850970Y-98354378D02*
X183520970Y-98114378D01*
X183850970Y-97874378D01*
X183850970Y-98354378D01*
G36*
X183850970Y-98354378D02*
G01*
X183520970Y-98114378D01*
X183850970Y-97874378D01*
X183850970Y-98354378D01*
G37*
%TO.C,U9*%
X142343428Y-99056100D02*
X142343428Y-101056100D01*
X144563428Y-99056100D02*
X144563428Y-101056100D01*
X144823428Y-98496100D02*
X144543428Y-98496100D01*
X144543428Y-98216100D01*
X144823428Y-98496100D01*
G36*
X144823428Y-98496100D02*
G01*
X144543428Y-98496100D01*
X144543428Y-98216100D01*
X144823428Y-98496100D01*
G37*
%TO.C,D8*%
X157972328Y-104958100D02*
X157972328Y-107243100D01*
X159442328Y-104958100D02*
X157972328Y-104958100D01*
X159442328Y-107243100D02*
X159442328Y-104958100D01*
%TO.C,D14*%
X148319828Y-105029300D02*
X148319828Y-107314300D01*
X149789828Y-105029300D02*
X148319828Y-105029300D01*
X149789828Y-107314300D02*
X149789828Y-105029300D01*
%TO.C,U7*%
X152699628Y-112370600D02*
X152699628Y-114370600D01*
X154919628Y-112370600D02*
X154919628Y-114370600D01*
X155179628Y-111810600D02*
X154899628Y-111810600D01*
X154899628Y-111530600D01*
X155179628Y-111810600D01*
G36*
X155179628Y-111810600D02*
G01*
X154899628Y-111810600D01*
X154899628Y-111530600D01*
X155179628Y-111810600D01*
G37*
%TO.C,U4*%
X155186428Y-107483000D02*
X155186428Y-105483000D01*
X157406428Y-107483000D02*
X157406428Y-105483000D01*
X155206428Y-108323000D02*
X154926428Y-108043000D01*
X155206428Y-108043000D01*
X155206428Y-108323000D01*
G36*
X155206428Y-108323000D02*
G01*
X154926428Y-108043000D01*
X155206428Y-108043000D01*
X155206428Y-108323000D01*
G37*
%TO.C,L2*%
X150196500Y-102230600D02*
X150896500Y-102230600D01*
X150196500Y-107830600D02*
X150196500Y-102230600D01*
X150896500Y-107830600D02*
X150196500Y-107830600D01*
X154596500Y-102230600D02*
X153896500Y-102230600D01*
X154596500Y-107830600D02*
X153896500Y-107830600D01*
X154596500Y-107830600D02*
X154596500Y-102230600D01*
%TO.C,L4*%
X140511328Y-115498200D02*
X141211328Y-115498200D01*
X140511328Y-121098200D02*
X140511328Y-115498200D01*
X141211328Y-121098200D02*
X140511328Y-121098200D01*
X144911328Y-115498200D02*
X144211328Y-115498200D01*
X144911328Y-121098200D02*
X144211328Y-121098200D01*
X144911328Y-121098200D02*
X144911328Y-115498200D01*
%TO.C,L9*%
X145329428Y-98663300D02*
X145329428Y-104263300D01*
X145329428Y-98663300D02*
X146029428Y-98663300D01*
X145329428Y-104263300D02*
X146029428Y-104263300D01*
X149029428Y-98663300D02*
X149729428Y-98663300D01*
X149729428Y-98663300D02*
X149729428Y-104263300D01*
X149729428Y-104263300D02*
X149029428Y-104263300D01*
%TO.C,U2*%
X144608000Y-93874000D02*
X146608000Y-93874000D01*
X144608000Y-96094000D02*
X146608000Y-96094000D01*
X144048000Y-93894000D02*
X143768000Y-93894000D01*
X144048000Y-93614000D01*
X144048000Y-93894000D01*
G36*
X144048000Y-93894000D02*
G01*
X143768000Y-93894000D01*
X144048000Y-93614000D01*
X144048000Y-93894000D01*
G37*
%TO.C,U5*%
X142494528Y-112370600D02*
X142494528Y-114370600D01*
X144714528Y-112370600D02*
X144714528Y-114370600D01*
X144974528Y-111810600D02*
X144694528Y-111810600D01*
X144694528Y-111530600D01*
X144974528Y-111810600D01*
G36*
X144974528Y-111810600D02*
G01*
X144694528Y-111810600D01*
X144694528Y-111530600D01*
X144974528Y-111810600D01*
G37*
%TO.C,U6*%
X145543656Y-120712800D02*
X145543656Y-118712800D01*
X147763656Y-120712800D02*
X147763656Y-118712800D01*
X145563656Y-121552800D02*
X145283656Y-121272800D01*
X145563656Y-121272800D01*
X145563656Y-121552800D01*
G36*
X145563656Y-121552800D02*
G01*
X145283656Y-121272800D01*
X145563656Y-121272800D01*
X145563656Y-121552800D01*
G37*
%TO.C,L5*%
X145343256Y-112032500D02*
X145343256Y-117632500D01*
X145343256Y-112032500D02*
X146043256Y-112032500D01*
X145343256Y-117632500D02*
X146043256Y-117632500D01*
X149043256Y-112032500D02*
X149743256Y-112032500D01*
X149743256Y-112032500D02*
X149743256Y-117632500D01*
X149743256Y-117632500D02*
X149043256Y-117632500D01*
%TO.C,U10*%
X145483128Y-107503400D02*
X145483128Y-105503400D01*
X147703128Y-107503400D02*
X147703128Y-105503400D01*
X145503128Y-108343400D02*
X145223128Y-108063400D01*
X145503128Y-108063400D01*
X145503128Y-108343400D01*
G36*
X145503128Y-108343400D02*
G01*
X145223128Y-108063400D01*
X145503128Y-108063400D01*
X145503128Y-108343400D01*
G37*
%TO.C,L7*%
X155497328Y-111505100D02*
X155497328Y-117105100D01*
X155497328Y-111505100D02*
X156197328Y-111505100D01*
X155497328Y-117105100D02*
X156197328Y-117105100D01*
X159197328Y-111505100D02*
X159897328Y-111505100D01*
X159897328Y-111505100D02*
X159897328Y-117105100D01*
X159897328Y-117105100D02*
X159197328Y-117105100D01*
%TO.C,D10*%
X148306256Y-118392500D02*
X148306256Y-120677500D01*
X149776256Y-118392500D02*
X148306256Y-118392500D01*
X149776256Y-120677500D02*
X149776256Y-118392500D01*
%TO.C,D12*%
X158486328Y-117849300D02*
X158486328Y-120134300D01*
X159956328Y-117849300D02*
X158486328Y-117849300D01*
X159956328Y-120134300D02*
X159956328Y-117849300D01*
%TO.C,D9*%
X140481928Y-112482000D02*
X140481928Y-114767000D01*
X140481928Y-114767000D02*
X141951928Y-114767000D01*
X141951928Y-114767000D02*
X141951928Y-112482000D01*
%TO.C,U3*%
X152179700Y-99076000D02*
X152179700Y-101076000D01*
X154399700Y-99076000D02*
X154399700Y-101076000D01*
X154659700Y-98516000D02*
X154379700Y-98516000D01*
X154379700Y-98236000D01*
X154659700Y-98516000D01*
G36*
X154659700Y-98516000D02*
G01*
X154379700Y-98516000D01*
X154379700Y-98236000D01*
X154659700Y-98516000D01*
G37*
%TO.C,D7*%
X150217900Y-99226000D02*
X150217900Y-101511000D01*
X150217900Y-101511000D02*
X151687900Y-101511000D01*
X151687900Y-101511000D02*
X151687900Y-99226000D01*
%TO.C,L1*%
X150158800Y-93151600D02*
X150158800Y-93851600D01*
X150158800Y-97551600D02*
X150158800Y-96851600D01*
X155758800Y-93151600D02*
X150158800Y-93151600D01*
X155758800Y-93151600D02*
X155758800Y-93851600D01*
X155758800Y-96851600D02*
X155758800Y-97551600D01*
X155758800Y-97551600D02*
X150158800Y-97551600D01*
%TO.C,L6*%
X150695228Y-115599800D02*
X151395228Y-115599800D01*
X150695228Y-121199800D02*
X150695228Y-115599800D01*
X151395228Y-121199800D02*
X150695228Y-121199800D01*
X155095228Y-115599800D02*
X154395228Y-115599800D01*
X155095228Y-121199800D02*
X154395228Y-121199800D01*
X155095228Y-121199800D02*
X155095228Y-115599800D01*
%TO.C,U8*%
X155696828Y-120873000D02*
X155696828Y-118873000D01*
X157916828Y-120873000D02*
X157916828Y-118873000D01*
X155716828Y-121713000D02*
X155436828Y-121433000D01*
X155716828Y-121433000D01*
X155716828Y-121713000D01*
G36*
X155716828Y-121713000D02*
G01*
X155436828Y-121433000D01*
X155716828Y-121433000D01*
X155716828Y-121713000D01*
G37*
%TO.C,D13*%
X140241228Y-99139300D02*
X140241228Y-101424300D01*
X140241228Y-101424300D02*
X141711228Y-101424300D01*
X141711228Y-101424300D02*
X141711228Y-99139300D01*
%TO.C,D11*%
X150585428Y-112672200D02*
X150585428Y-114957200D01*
X150585428Y-114957200D02*
X152055428Y-114957200D01*
X152055428Y-114957200D02*
X152055428Y-112672200D01*
%TO.C,D6*%
X149375800Y-95719900D02*
X149375800Y-93434900D01*
X147905800Y-93434900D02*
X147905800Y-95719900D01*
X149375800Y-93434900D02*
X147905800Y-93434900D01*
%TO.C,L8*%
X140351028Y-102117700D02*
X141051028Y-102117700D01*
X140351028Y-107717700D02*
X140351028Y-102117700D01*
X141051028Y-107717700D02*
X140351028Y-107717700D01*
X144751028Y-102117700D02*
X144051028Y-102117700D01*
X144751028Y-107717700D02*
X144051028Y-107717700D01*
X144751028Y-107717700D02*
X144751028Y-102117700D01*
%TO.C,J1*%
X140082800Y-97735600D02*
X140082800Y-96485600D01*
X140082800Y-96485600D02*
X138832800Y-96485600D01*
X139982800Y-98545600D02*
X139982800Y-98245600D01*
X139982800Y-98245600D02*
X139782800Y-98245600D01*
X139882800Y-98545600D02*
X139882800Y-98245600D01*
X139782800Y-120905600D02*
X139782800Y-96785600D01*
X139782800Y-99345600D02*
X139172800Y-99345600D01*
X139782800Y-98545600D02*
X139982800Y-98545600D01*
X139782800Y-96785600D02*
X135062800Y-96785600D01*
X139172800Y-120295600D02*
X139172800Y-118345600D01*
X139172800Y-118345600D02*
X139782800Y-118345600D01*
X139172800Y-99345600D02*
X139172800Y-97395600D01*
X139172800Y-97395600D02*
X135672800Y-97395600D01*
X138472800Y-120905600D02*
X138472800Y-120295600D01*
X138472800Y-96785600D02*
X138472800Y-97395600D01*
X137172800Y-120905600D02*
X137172800Y-120295600D01*
X137172800Y-96785600D02*
X137172800Y-97395600D01*
X136172800Y-117945600D02*
X135672800Y-117945600D01*
X136172800Y-117745600D02*
X136172800Y-117945600D01*
X136172800Y-115945600D02*
X135672800Y-115945600D01*
X136172800Y-115745600D02*
X136172800Y-115945600D01*
X136172800Y-113945600D02*
X135672800Y-113945600D01*
X136172800Y-113745600D02*
X136172800Y-113945600D01*
X136172800Y-111945600D02*
X135672800Y-111945600D01*
X136172800Y-111745600D02*
X136172800Y-111945600D01*
X136172800Y-109945600D02*
X135672800Y-109945600D01*
X136172800Y-109745600D02*
X136172800Y-109945600D01*
X136172800Y-107945600D02*
X135672800Y-107945600D01*
X136172800Y-107745600D02*
X136172800Y-107945600D01*
X136172800Y-105945600D02*
X135672800Y-105945600D01*
X136172800Y-105745600D02*
X136172800Y-105945600D01*
X136172800Y-103945600D02*
X135672800Y-103945600D01*
X136172800Y-103745600D02*
X136172800Y-103945600D01*
X136172800Y-101945600D02*
X135672800Y-101945600D01*
X136172800Y-101745600D02*
X136172800Y-101945600D01*
X136172800Y-99945600D02*
X135672800Y-99945600D01*
X136172800Y-99745600D02*
X136172800Y-99945600D01*
X135672800Y-120295600D02*
X139172800Y-120295600D01*
X135672800Y-117845600D02*
X136172800Y-117845600D01*
X135672800Y-117745600D02*
X136172800Y-117745600D01*
X135672800Y-115845600D02*
X136172800Y-115845600D01*
X135672800Y-115745600D02*
X136172800Y-115745600D01*
X135672800Y-113845600D02*
X136172800Y-113845600D01*
X135672800Y-113745600D02*
X136172800Y-113745600D01*
X135672800Y-111845600D02*
X136172800Y-111845600D01*
X135672800Y-111745600D02*
X136172800Y-111745600D01*
X135672800Y-109845600D02*
X136172800Y-109845600D01*
X135672800Y-109745600D02*
X136172800Y-109745600D01*
X135672800Y-107845600D02*
X136172800Y-107845600D01*
X135672800Y-107745600D02*
X136172800Y-107745600D01*
X135672800Y-105845600D02*
X136172800Y-105845600D01*
X135672800Y-105745600D02*
X136172800Y-105745600D01*
X135672800Y-103845600D02*
X136172800Y-103845600D01*
X135672800Y-103745600D02*
X136172800Y-103745600D01*
X135672800Y-101845600D02*
X136172800Y-101845600D01*
X135672800Y-101745600D02*
X136172800Y-101745600D01*
X135672800Y-99845600D02*
X136172800Y-99845600D01*
X135672800Y-99745600D02*
X136172800Y-99745600D01*
X135672800Y-97395600D02*
X135672800Y-120295600D01*
X135062800Y-120905600D02*
X139782800Y-120905600D01*
X135062800Y-96785600D02*
X135062800Y-120905600D01*
%TD*%
M02*
