ISO-10303-21;
HEADER;
FILE_DESCRIPTION (( 'STEP AP214' ),
    '1' );
FILE_NAME ('Electronics enclosure.STEP',
    '2025-04-01T16:04:51',
    ( '' ),
    ( '' ),
    'SwSTEP 2.0',
    'SolidWorks 2024',
    '' );
FILE_SCHEMA (( 'AUTOMOTIVE_DESIGN' ));
ENDSEC;

DATA;
#1 = CARTESIAN_POINT ( 'NONE',  ( -225.4999999999999147, 2.000000000000000000, 0.000000000000000000 ) ) ;
#2 = EDGE_LOOP ( 'NONE', ( #1030, #449, #1166, #498 ) ) ;
#3 = ORIENTED_EDGE ( 'NONE', *, *, #595, .T. ) ;
#4 = CARTESIAN_POINT ( 'NONE',  ( -230.4999999999999147, 2.000000000000000000, 65.00000000000002842 ) ) ;
#5 = CARTESIAN_POINT ( 'NONE',  ( 150.0000000000000000, 2.000000000000000000, 62.50000000000002842 ) ) ;
#6 = EDGE_LOOP ( 'NONE', ( #1065, #960, #181, #1245 ) ) ;
#7 = ORIENTED_EDGE ( 'NONE', *, *, #857, .T. ) ;
#8 = FACE_OUTER_BOUND ( 'NONE', #24, .T. ) ;
#9 = LINE ( 'NONE', #432, #901 ) ;
#10 = ORIENTED_EDGE ( 'NONE', *, *, #102, .F. ) ;
#11 = EDGE_CURVE ( 'NONE', #179, #930, #206, .T. ) ;
#12 = DIRECTION ( 'NONE',  ( 0.000000000000000000, 0.000000000000000000, -1.000000000000000000 ) ) ;
#13 = DIRECTION ( 'NONE',  ( -0.000000000000000000, 1.000000000000000000, -0.000000000000000000 ) ) ;
#14 = ORIENTED_EDGE ( 'NONE', *, *, #218, .T. ) ;
#15 = DIRECTION ( 'NONE',  ( -0.000000000000000000, 1.000000000000000000, -0.000000000000000000 ) ) ;
#16 = DIRECTION ( 'NONE',  ( -0.000000000000000000, 1.000000000000000000, -0.000000000000000000 ) ) ;
#17 = DIRECTION ( 'NONE',  ( 0.000000000000000000, 0.000000000000000000, 1.000000000000000000 ) ) ;
#18 = CIRCLE ( 'NONE', #757, 2.500000000000002220 ) ;
#19 = ORIENTED_EDGE ( 'NONE', *, *, #451, .T. ) ;
#20 = FACE_OUTER_BOUND ( 'NONE', #113, .T. ) ;
#21 = DIRECTION ( 'NONE',  ( 0.000000000000000000, 0.000000000000000000, 1.000000000000000000 ) ) ;
#22 = EDGE_CURVE ( 'NONE', #1173, #75, #439, .T. ) ;
#23 = DIRECTION ( 'NONE',  ( -0.000000000000000000, 1.000000000000000000, -0.000000000000000000 ) ) ;
#24 = EDGE_LOOP ( 'NONE', ( #1285, #483, #1246, #977 ) ) ;
#25 = CIRCLE ( 'NONE', #249, 2.499999999999995115 ) ;
#26 = EDGE_LOOP ( 'NONE', ( #744, #1017, #128, #830 ) ) ;
#27 = DIRECTION ( 'NONE',  ( -0.000000000000000000, 1.000000000000000000, -0.000000000000000000 ) ) ;
#28 = EDGE_CURVE ( 'NONE', #49, #930, #478, .T. ) ;
#29 = VECTOR ( 'NONE', #647, 1000.000000000000000 ) ;
#30 = AXIS2_PLACEMENT_3D ( 'NONE', #337, #914, #1234 ) ;
#31 = DIRECTION ( 'NONE',  ( -0.000000000000000000, 1.000000000000000000, -0.000000000000000000 ) ) ;
#32 = LINE ( 'NONE', #446, #558 ) ;
#33 = ORIENTED_EDGE ( 'NONE', *, *, #594, .T. ) ;
#34 = EDGE_CURVE ( 'NONE', #926, #821, #307, .T. ) ;
#35 = VECTOR ( 'NONE', #940, 1000.000000000000000 ) ;
#36 = CARTESIAN_POINT ( 'NONE',  ( -222.2781745930519435, 0.000000000000000000, 59.27817459305206427 ) ) ;
#37 = DIRECTION ( 'NONE',  ( -0.000000000000000000, 1.000000000000000000, -0.000000000000000000 ) ) ;
#38 = FACE_BOUND ( 'NONE', #219, .T. ) ;
#39 = DIRECTION ( 'NONE',  ( 0.000000000000000000, 0.000000000000000000, 1.000000000000000000 ) ) ;
#40 =( NAMED_UNIT ( * ) PLANE_ANGLE_UNIT ( ) SI_UNIT ( $, .RADIAN. ) );
#41 = AXIS2_PLACEMENT_3D ( 'NONE', #632, #440, #1218 ) ;
#42 = ORIENTED_EDGE ( 'NONE', *, *, #451, .F. ) ;
#43 = ORIENTED_EDGE ( 'NONE', *, *, #314, .F. ) ;
#44 = CIRCLE ( 'NONE', #1229, 2.499999999999995115 ) ;
#45 = FACE_BOUND ( 'NONE', #925, .T. ) ;
#46 = ADVANCED_FACE ( 'NONE', ( #1251 ), #258, .F. ) ;
#47 = DIRECTION ( 'NONE',  ( -0.000000000000000000, 1.000000000000000000, -0.000000000000000000 ) ) ;
#48 = DIRECTION ( 'NONE',  ( -1.000000000000000000, -0.000000000000000000, -0.000000000000000000 ) ) ;
#49 = VERTEX_POINT ( 'NONE', #1061 ) ;
#50 = AXIS2_PLACEMENT_3D ( 'NONE', #1287, #412, #110 ) ;
#51 = CIRCLE ( 'NONE', #728, 2.500000000000002220 ) ;
#52 = DIRECTION ( 'NONE',  ( -0.000000000000000000, 1.000000000000000000, -0.000000000000000000 ) ) ;
#53 = DIRECTION ( 'NONE',  ( -0.000000000000000000, 1.000000000000000000, -0.000000000000000000 ) ) ;
#54 = CARTESIAN_POINT ( 'NONE',  ( -214.4999999999999147, 2.000000000000000000, 49.00000000000002842 ) ) ;
#55 = CIRCLE ( 'NONE', #792, 2.500000000000009326 ) ;
#56 = ORIENTED_EDGE ( 'NONE', *, *, #466, .T. ) ;
#57 = DIRECTION ( 'NONE',  ( -0.000000000000000000, 1.000000000000000000, -0.000000000000000000 ) ) ;
#58 = ORIENTED_EDGE ( 'NONE', *, *, #631, .T. ) ;
#59 = DIRECTION ( 'NONE',  ( 0.000000000000000000, 0.000000000000000000, 1.000000000000000000 ) ) ;
#60 = DIRECTION ( 'NONE',  ( 0.000000000000000000, 0.000000000000000000, 1.000000000000000000 ) ) ;
#61 = ORIENTED_EDGE ( 'NONE', *, *, #364, .F. ) ;
#62 = LINE ( 'NONE', #859, #280 ) ;
#63 = DIRECTION ( 'NONE',  ( -4.270088556250601699E-16, -0.000000000000000000, -1.000000000000000000 ) ) ;
#64 = ORIENTED_EDGE ( 'NONE', *, *, #417, .F. ) ;
#65 = DIRECTION ( 'NONE',  ( 0.000000000000000000, 0.000000000000000000, 1.000000000000000000 ) ) ;
#66 = EDGE_CURVE ( 'NONE', #300, #473, #373, .T. ) ;
#67 = CARTESIAN_POINT ( 'NONE',  ( -230.4999999999999147, 2.000000000000000000, 65.00000000000002842 ) ) ;
#68 = EDGE_CURVE ( 'NONE', #188, #375, #162, .T. ) ;
#69 = ORIENTED_EDGE ( 'NONE', *, *, #11, .T. ) ;
#70 = ADVANCED_FACE ( 'NONE', ( #1144 ), #944, .T. ) ;
#71 = MECHANICAL_DESIGN_GEOMETRIC_PRESENTATION_REPRESENTATION (  '', ( #662 ), #1145 ) ;
#72 = FILL_AREA_STYLE_COLOUR ( '', #1212 ) ;
#73 = DIRECTION ( 'NONE',  ( 0.000000000000000000, 0.000000000000000000, 1.000000000000000000 ) ) ;
#74 = ORIENTED_EDGE ( 'NONE', *, *, #124, .F. ) ;
#75 = VERTEX_POINT ( 'NONE', #665 ) ;
#76 = EDGE_CURVE ( 'NONE', #851, #1107, #569, .T. ) ;
#77 = DIRECTION ( 'NONE',  ( -0.000000000000000000, 1.000000000000000000, -0.000000000000000000 ) ) ;
#78 = VERTEX_POINT ( 'NONE', #1172 ) ;
#79 = DIRECTION ( 'NONE',  ( -0.000000000000000000, 1.000000000000000000, -0.000000000000000000 ) ) ;
#80 = EDGE_LOOP ( 'NONE', ( #909, #424, #1250, #915 ) ) ;
#81 = ORIENTED_EDGE ( 'NONE', *, *, #146, .F. ) ;
#82 = AXIS2_PLACEMENT_3D ( 'NONE', #891, #1148, #269 ) ;
#83 = DIRECTION ( 'NONE',  ( 0.000000000000000000, 0.000000000000000000, 1.000000000000000000 ) ) ;
#84 = EDGE_CURVE ( 'NONE', #920, #712, #263, .T. ) ;
#85 = CARTESIAN_POINT ( 'NONE',  ( 222.2781745930521140, 0.000000000000000000, -59.27817459305200742 ) ) ;
#86 = CARTESIAN_POINT ( 'NONE',  ( 222.2781745930521708, 2.000000000000000000, 59.27817459305206427 ) ) ;
#87 = ORIENTED_EDGE ( 'NONE', *, *, #92, .F. ) ;
#88 = VERTEX_POINT ( 'NONE', #105 ) ;
#89 = CARTESIAN_POINT ( 'NONE',  ( 230.5000000000000853, 2.000000000000000000, -64.99999999999997158 ) ) ;
#90 = CIRCLE ( 'NONE', #981, 2.500000000000002220 ) ;
#91 = DIRECTION ( 'NONE',  ( 0.000000000000000000, 0.000000000000000000, 1.000000000000000000 ) ) ;
#92 = EDGE_CURVE ( 'NONE', #1275, #725, #995, .T. ) ;
#93 = CYLINDRICAL_SURFACE ( 'NONE', #321, 2.500000000000002220 ) ;
#94 = VECTOR ( 'NONE', #845, 1000.000000000000000 ) ;
#95 = DIRECTION ( 'NONE',  ( -0.000000000000000000, 1.000000000000000000, -0.000000000000000000 ) ) ;
#96 = ORIENTED_EDGE ( 'NONE', *, *, #453, .T. ) ;
#97 = CARTESIAN_POINT ( 'NONE',  ( -230.4999999999999147, 0.000000000000000000, -64.99999999999997158 ) ) ;
#98 = FACE_OUTER_BOUND ( 'NONE', #26, .T. ) ;
#99 = DIRECTION ( 'NONE',  ( 0.000000000000000000, 0.000000000000000000, 1.000000000000000000 ) ) ;
#100 = AXIS2_PLACEMENT_3D ( 'NONE', #357, #52, #629 ) ;
#101 = ORIENTED_EDGE ( 'NONE', *, *, #1198, .T. ) ;
#102 = EDGE_CURVE ( 'NONE', #796, #1153, #90, .T. ) ;
#103 = DIRECTION ( 'NONE',  ( -0.000000000000000000, 1.000000000000000000, -0.000000000000000000 ) ) ;
#104 = DIRECTION ( 'NONE',  ( 0.000000000000000000, 1.000000000000000000, 0.000000000000000000 ) ) ;
#105 = CARTESIAN_POINT ( 'NONE',  ( -150.0000000000000000, 0.000000000000000000, -57.49999999999998579 ) ) ;
#106 = AXIS2_PLACEMENT_3D ( 'NONE', #328, #908, #993 ) ;
#107 = ORIENTED_EDGE ( 'NONE', *, *, #1181, .T. ) ;
#108 = ORIENTED_EDGE ( 'NONE', *, *, #808, .T. ) ;
#109 = ADVANCED_FACE ( 'NONE', ( #1074 ), #414, .F. ) ;
#110 = DIRECTION ( 'NONE',  ( 0.000000000000000000, 0.000000000000000000, 1.000000000000000000 ) ) ;
#111 = DIRECTION ( 'NONE',  ( -0.000000000000000000, 1.000000000000000000, -0.000000000000000000 ) ) ;
#112 = ORIENTED_EDGE ( 'NONE', *, *, #594, .F. ) ;
#113 = EDGE_LOOP ( 'NONE', ( #701, #1286, #1228, #636 ) ) ;
#114 = DIRECTION ( 'NONE',  ( -0.000000000000000000, 1.000000000000000000, -0.000000000000000000 ) ) ;
#115 = AXIS2_PLACEMENT_3D ( 'NONE', #441, #1164, #492 ) ;
#116 = DIRECTION ( 'NONE',  ( 0.000000000000000000, 0.000000000000000000, 1.000000000000000000 ) ) ;
#117 = CARTESIAN_POINT ( 'NONE',  ( 0.000000000000000000, 0.000000000000000000, 62.50000000000002842 ) ) ;
#118 = FACE_BOUND ( 'NONE', #696, .T. ) ;
#119 = VERTEX_POINT ( 'NONE', #310 ) ;
#120 = ORIENTED_EDGE ( 'NONE', *, *, #902, .F. ) ;
#121 = CYLINDRICAL_SURFACE ( 'NONE', #447, 2.499999999999995115 ) ;
#122 = EDGE_CURVE ( 'NONE', #332, #179, #810, .T. ) ;
#123 = CARTESIAN_POINT ( 'NONE',  ( 214.5000000000000853, 0.000000000000000000, -64.99999999999997158 ) ) ;
#124 = EDGE_CURVE ( 'NONE', #990, #468, #858, .T. ) ;
#125 = DIRECTION ( 'NONE',  ( 0.000000000000000000, 0.000000000000000000, -1.000000000000000000 ) ) ;
#126 = AXIS2_PLACEMENT_3D ( 'NONE', #690, #694, #1067 ) ;
#127 = ORIENTED_EDGE ( 'NONE', *, *, #466, .F. ) ;
#128 = ORIENTED_EDGE ( 'NONE', *, *, #34, .T. ) ;
#129 = CARTESIAN_POINT ( 'NONE',  ( 230.5000000000000853, 2.000000000000000000, -64.99999999999997158 ) ) ;
#130 = DIRECTION ( 'NONE',  ( -0.000000000000000000, 1.000000000000000000, -0.000000000000000000 ) ) ;
#131 = PRODUCT_RELATED_PRODUCT_CATEGORY ( 'part', '', ( #896 ) ) ;
#132 = VERTEX_POINT ( 'NONE', #799 ) ;
#133 = CIRCLE ( 'NONE', #400, 2.500000000000002220 ) ;
#134 = ORIENTED_EDGE ( 'NONE', *, *, #546, .T. ) ;
#135 = DIRECTION ( 'NONE',  ( 0.000000000000000000, 0.000000000000000000, 1.000000000000000000 ) ) ;
#136 = AXIS2_PLACEMENT_3D ( 'NONE', #388, #1156, #398 ) ;
#137 = DIRECTION ( 'NONE',  ( -0.000000000000000000, 1.000000000000000000, -0.000000000000000000 ) ) ;
#138 = CYLINDRICAL_SURFACE ( 'NONE', #824, 2.500000000000002220 ) ;
#139 = FACE_BOUND ( 'NONE', #171, .T. ) ;
#140 = CARTESIAN_POINT ( 'NONE',  ( -230.4999999999999147, 2.000000000000000000, 49.00000000000002842 ) ) ;
#141 =( LENGTH_UNIT ( ) NAMED_UNIT ( * ) SI_UNIT ( .MILLI., .METRE. ) );
#142 = EDGE_LOOP ( 'NONE', ( #1051, #606 ) ) ;
#143 = PRODUCT_DEFINITION_SHAPE ( 'NONE', 'NONE',  #603 ) ;
#144 = CIRCLE ( 'NONE', #1093, 2.500000000000002220 ) ;
#145 = VERTEX_POINT ( 'NONE', #1178 ) ;
#146 = EDGE_CURVE ( 'NONE', #1001, #458, #1185, .T. ) ;
#147 = CARTESIAN_POINT ( 'NONE',  ( -150.0000000000000000, 2.000000000000000000, 57.50000000000002842 ) ) ;
#148 = DIRECTION ( 'NONE',  ( 0.000000000000000000, 0.000000000000000000, 1.000000000000000000 ) ) ;
#149 = CARTESIAN_POINT ( 'NONE',  ( 225.5000000000001421, 2.000000000000000000, -30.00000000000006395 ) ) ;
#150 = DIRECTION ( 'NONE',  ( -0.000000000000000000, 1.000000000000000000, -0.000000000000000000 ) ) ;
#151 = VECTOR ( 'NONE', #689, 1000.000000000000000 ) ;
#152 = EDGE_LOOP ( 'NONE', ( #1070, #243 ) ) ;
#153 = CIRCLE ( 'NONE', #529, 2.500000000000002220 ) ;
#154 = ORIENTED_EDGE ( 'NONE', *, *, #343, .T. ) ;
#155 = CIRCLE ( 'NONE', #457, 2.500000000000002220 ) ;
#156 = DIRECTION ( 'NONE',  ( -0.000000000000000000, 1.000000000000000000, -0.000000000000000000 ) ) ;
#157 = EDGE_CURVE ( 'NONE', #429, #731, #700, .T. ) ;
#158 = AXIS2_PLACEMENT_3D ( 'NONE', #656, #168, #543 ) ;
#159 = DIRECTION ( 'NONE',  ( -0.000000000000000000, 1.000000000000000000, -0.000000000000000000 ) ) ;
#160 = CARTESIAN_POINT ( 'NONE',  ( 150.0000000000000000, 0.000000000000000000, 60.00000000000002132 ) ) ;
#161 = DIRECTION ( 'NONE',  ( 0.000000000000000000, 0.000000000000000000, -1.000000000000000000 ) ) ;
#162 = LINE ( 'NONE', #67, #864 ) ;
#163 = AXIS2_PLACEMENT_3D ( 'NONE', #602, #903, #406 ) ;
#164 = ORIENTED_EDGE ( 'NONE', *, *, #1182, .F. ) ;
#165 = AXIS2_PLACEMENT_3D ( 'NONE', #1136, #1043, #21 ) ;
#166 = FACE_OUTER_BOUND ( 'NONE', #1068, .T. ) ;
#167 = CARTESIAN_POINT ( 'NONE',  ( 150.0000000000000000, 2.000000000000000000, 60.00000000000002132 ) ) ;
#168 = DIRECTION ( 'NONE',  ( 0.000000000000000000, 0.000000000000000000, 1.000000000000000000 ) ) ;
#169 = DIRECTION ( 'NONE',  ( -0.000000000000000000, 1.000000000000000000, -0.000000000000000000 ) ) ;
#170 = AXIS2_PLACEMENT_3D ( 'NONE', #279, #682, #970 ) ;
#171 = EDGE_LOOP ( 'NONE', ( #611, #96 ) ) ;
#172 = UNCERTAINTY_MEASURE_WITH_UNIT (LENGTH_MEASURE( 1.000000000000000082E-05 ), #141, 'distance_accuracy_value', 'NONE');
#173 = ADVANCED_FACE ( 'NONE', ( #1084 ), #216, .F. ) ;
#174 = FACE_OUTER_BOUND ( 'NONE', #511, .T. ) ;
#175 = EDGE_LOOP ( 'NONE', ( #766, #108, #532, #1207 ) ) ;
#176 = FACE_OUTER_BOUND ( 'NONE', #338, .T. ) ;
#177 = CARTESIAN_POINT ( 'NONE',  ( -222.2781745930519435, 2.000000000000000000, 54.27817459305205716 ) ) ;
#178 = EDGE_CURVE ( 'NONE', #480, #78, #1062, .T. ) ;
#179 = VERTEX_POINT ( 'NONE', #835 ) ;
#180 = DIRECTION ( 'NONE',  ( -0.000000000000000000, 1.000000000000000000, -0.000000000000000000 ) ) ;
#181 = ORIENTED_EDGE ( 'NONE', *, *, #801, .F. ) ;
#182 = CIRCLE ( 'NONE', #514, 16.00000000000000000 ) ;
#183 = DIRECTION ( 'NONE',  ( 0.000000000000000000, 0.000000000000000000, -1.000000000000000000 ) ) ;
#184 = ORIENTED_EDGE ( 'NONE', *, *, #34, .F. ) ;
#185 = CARTESIAN_POINT ( 'NONE',  ( -150.0000000000000000, 2.000000000000000000, -59.99999999999999289 ) ) ;
#186 = ADVANCED_FACE ( 'NONE', ( #118, #648, #428, #345, #1021, #929, #730, #139, #540, #38, #456, #828, #526, #841 ), #241, .F. ) ;
#187 = ORIENTED_EDGE ( 'NONE', *, *, #397, .T. ) ;
#188 = VERTEX_POINT ( 'NONE', #1132 ) ;
#189 = DIRECTION ( 'NONE',  ( -0.000000000000000000, 1.000000000000000000, -0.000000000000000000 ) ) ;
#190 = LINE ( 'NONE', #583, #777 ) ;
#191 = CARTESIAN_POINT ( 'NONE',  ( -150.0000000000000000, 2.000000000000000000, -57.49999999999998579 ) ) ;
#192 = ORIENTED_EDGE ( 'NONE', *, *, #1024, .F. ) ;
#193 = ORIENTED_EDGE ( 'NONE', *, *, #913, .F. ) ;
#194 = ADVANCED_FACE ( 'NONE', ( #253 ), #1029, .F. ) ;
#195 = DIRECTION ( 'NONE',  ( -0.000000000000000000, 1.000000000000000000, -0.000000000000000000 ) ) ;
#196 = DIRECTION ( 'NONE',  ( 0.000000000000000000, 0.000000000000000000, 1.000000000000000000 ) ) ;
#197 = DIRECTION ( 'NONE',  ( -0.000000000000000000, 1.000000000000000000, -0.000000000000000000 ) ) ;
#198 = EDGE_LOOP ( 'NONE', ( #1031, #617, #1180, #1138 ) ) ;
#199 = CARTESIAN_POINT ( 'NONE',  ( -150.0000000000000000, 2.000000000000000000, 60.00000000000003553 ) ) ;
#200 = ADVANCED_FACE ( 'NONE', ( #550 ), #814, .F. ) ;
#201 = VECTOR ( 'NONE', #1091, 1000.000000000000000 ) ;
#202 = DIRECTION ( 'NONE',  ( 0.000000000000000000, 0.000000000000000000, 1.000000000000000000 ) ) ;
#203 = DIRECTION ( 'NONE',  ( 0.000000000000000000, 0.000000000000000000, 1.000000000000000000 ) ) ;
#204 = EDGE_LOOP ( 'NONE', ( #1220, #1167, #365, #536 ) ) ;
#205 = AXIS2_PLACEMENT_3D ( 'NONE', #89, #524, #985 ) ;
#206 = CIRCLE ( 'NONE', #923, 2.500000000000002220 ) ;
#207 = CYLINDRICAL_SURFACE ( 'NONE', #1102, 2.500000000000002220 ) ;
#208 = ADVANCED_FACE ( 'NONE', ( #433 ), #1113, .F. ) ;
#209 = DIRECTION ( 'NONE',  ( 0.000000000000000000, 0.000000000000000000, 1.000000000000000000 ) ) ;
#210 = ORIENTED_EDGE ( 'NONE', *, *, #367, .T. ) ;
#211 = CARTESIAN_POINT ( 'NONE',  ( 0.000000000000000000, 0.000000000000000000, -60.00000000000002132 ) ) ;
#212 = EDGE_CURVE ( 'NONE', #458, #866, #612, .T. ) ;
#213 = CYLINDRICAL_SURFACE ( 'NONE', #880, 2.500000000000009326 ) ;
#214 = CIRCLE ( 'NONE', #649, 2.500000000000002220 ) ;
#215 = ADVANCED_FACE ( 'NONE', ( #625 ), #531, .F. ) ;
#216 = CYLINDRICAL_SURFACE ( 'NONE', #1232, 2.500000000000002220 ) ;
#217 = CARTESIAN_POINT ( 'NONE',  ( -230.4999999999999147, 0.000000000000000000, -48.99999999999997158 ) ) ;
#218 = EDGE_CURVE ( 'NONE', #360, #78, #739, .T. ) ;
#219 = EDGE_LOOP ( 'NONE', ( #627, #319 ) ) ;
#220 = CARTESIAN_POINT ( 'NONE',  ( -150.0000000000000000, 2.000000000000000000, -57.49999999999998579 ) ) ;
#221 = DIRECTION ( 'NONE',  ( -1.000000000000000000, 0.000000000000000000, -0.000000000000000000 ) ) ;
#222 = ORIENTED_EDGE ( 'NONE', *, *, #66, .T. ) ;
#223 = DIRECTION ( 'NONE',  ( -0.000000000000000000, 1.000000000000000000, -0.000000000000000000 ) ) ;
#224 = DIRECTION ( 'NONE',  ( -0.000000000000000000, 1.000000000000000000, -0.000000000000000000 ) ) ;
#225 = CIRCLE ( 'NONE', #1108, 2.500000000000002220 ) ;
#226 = AXIS2_PLACEMENT_3D ( 'NONE', #1117, #240, #630 ) ;
#227 = ORIENTED_EDGE ( 'NONE', *, *, #22, .F. ) ;
#228 = ORIENTED_EDGE ( 'NONE', *, *, #1223, .F. ) ;
#229 = ADVANCED_FACE ( 'NONE', ( #1059 ), #574, .F. ) ;
#230 = CARTESIAN_POINT ( 'NONE',  ( -150.0000000000000000, 2.000000000000000000, 60.00000000000003553 ) ) ;
#231 = ADVANCED_FACE ( 'NONE', ( #176 ), #954, .F. ) ;
#232 = CIRCLE ( 'NONE', #1114, 2.500000000000009326 ) ;
#233 = DIRECTION ( 'NONE',  ( 0.000000000000000000, 0.000000000000000000, 1.000000000000000000 ) ) ;
#234 = DIRECTION ( 'NONE',  ( 0.000000000000000000, 0.000000000000000000, 1.000000000000000000 ) ) ;
#235 = EDGE_LOOP ( 'NONE', ( #881, #545, #187, #87 ) ) ;
#236 = ORIENTED_EDGE ( 'NONE', *, *, #618, .F. ) ;
#237 = LINE ( 'NONE', #1039, #634 ) ;
#238 = EDGE_CURVE ( 'NONE', #188, #621, #879, .T. ) ;
#239 = CYLINDRICAL_SURFACE ( 'NONE', #1048, 2.499999999999995115 ) ;
#240 = DIRECTION ( 'NONE',  ( -0.000000000000000000, 1.000000000000000000, -0.000000000000000000 ) ) ;
#241 = PLANE ( 'NONE',  #30 ) ;
#242 = EDGE_LOOP ( 'NONE', ( #361, #1080 ) ) ;
#243 = ORIENTED_EDGE ( 'NONE', *, *, #397, .F. ) ;
#244 = AXIS2_PLACEMENT_3D ( 'NONE', #408, #497, #710 ) ;
#245 = FACE_BOUND ( 'NONE', #741, .T. ) ;
#246 = DIRECTION ( 'NONE',  ( -0.000000000000000000, 1.000000000000000000, -0.000000000000000000 ) ) ;
#247 = DIRECTION ( 'NONE',  ( -0.000000000000000000, 1.000000000000000000, -0.000000000000000000 ) ) ;
#248 = VERTEX_POINT ( 'NONE', #1066 ) ;
#249 = AXIS2_PLACEMENT_3D ( 'NONE', #817, #797, #895 ) ;
#250 = CARTESIAN_POINT ( 'NONE',  ( -225.4999999999999147, 0.000000000000000000, 0.000000000000000000 ) ) ;
#251 = CARTESIAN_POINT ( 'NONE',  ( 225.5000000000001421, 0.000000000000000000, -30.00000000000006395 ) ) ;
#252 = CARTESIAN_POINT ( 'NONE',  ( 222.2781745930521708, 0.000000000000000000, 56.77817459305205716 ) ) ;
#253 = FACE_OUTER_BOUND ( 'NONE', #1193, .T. ) ;
#254 = EDGE_CURVE ( 'NONE', #731, #494, #190, .T. ) ;
#255 = CYLINDRICAL_SURFACE ( 'NONE', #607, 2.500000000000002220 ) ;
#256 = CARTESIAN_POINT ( 'NONE',  ( 0.000000000000000000, 2.000000000000000000, 60.00000000000002842 ) ) ;
#257 = PRODUCT_CONTEXT ( 'NONE', #984, 'mechanical' ) ;
#258 = CYLINDRICAL_SURFACE ( 'NONE', #136, 2.500000000000002220 ) ;
#259 = AXIS2_PLACEMENT_3D ( 'NONE', #568, #104, #729 ) ;
#260 = CYLINDRICAL_SURFACE ( 'NONE', #615, 16.00000000000000000 ) ;
#261 = CARTESIAN_POINT ( 'NONE',  ( 0.000000000000000000, 2.000000000000000000, 60.00000000000002842 ) ) ;
#262 = DIRECTION ( 'NONE',  ( 0.000000000000000000, -1.000000000000000000, 0.000000000000000000 ) ) ;
#263 = CIRCLE ( 'NONE', #1214, 2.500000000000002220 ) ;
#264 = EDGE_CURVE ( 'NONE', #731, #691, #1159, .T. ) ;
#265 = EDGE_CURVE ( 'NONE', #586, #547, #289, .T. ) ;
#266 = EDGE_CURVE ( 'NONE', #284, #480, #1196, .T. ) ;
#267 = DIRECTION ( 'NONE',  ( -0.000000000000000000, 1.000000000000000000, -0.000000000000000000 ) ) ;
#268 = ORIENTED_EDGE ( 'NONE', *, *, #1090, .F. ) ;
#269 = DIRECTION ( 'NONE',  ( 0.000000000000000000, 0.000000000000000000, 1.000000000000000000 ) ) ;
#270 = ORIENTED_EDGE ( 'NONE', *, *, #1038, .F. ) ;
#271 = ORIENTED_EDGE ( 'NONE', *, *, #218, .F. ) ;
#272 = AXIS2_PLACEMENT_3D ( 'NONE', #301, #326, #202 ) ;
#273 = LINE ( 'NONE', #481, #1056 ) ;
#274 = DIRECTION ( 'NONE',  ( 0.000000000000000000, 0.000000000000000000, 1.000000000000000000 ) ) ;
#275 = ADVANCED_FACE ( 'NONE', ( #98 ), #978, .F. ) ;
#276 = ORIENTED_EDGE ( 'NONE', *, *, #819, .T. ) ;
#277 = CARTESIAN_POINT ( 'NONE',  ( -150.0000000000000000, 0.000000000000000000, -59.99999999999999289 ) ) ;
#278 = DIRECTION ( 'NONE',  ( 0.000000000000000000, 0.000000000000000000, 1.000000000000000000 ) ) ;
#279 = CARTESIAN_POINT ( 'NONE',  ( 0.000000000000000000, 2.000000000000000000, 60.00000000000002842 ) ) ;
#280 = VECTOR ( 'NONE', #1151, 1000.000000000000000 ) ;
#281 = ORIENTED_EDGE ( 'NONE', *, *, #11, .F. ) ;
#282 = CIRCLE ( 'NONE', #721, 2.500000000000002220 ) ;
#283 = LINE ( 'NONE', #384, #374 ) ;
#284 = VERTEX_POINT ( 'NONE', #890 ) ;
#285 = CARTESIAN_POINT ( 'NONE',  ( -225.4999999999999147, 2.000000000000000000, 2.500000000000002220 ) ) ;
#286 = EDGE_LOOP ( 'NONE', ( #42, #1257 ) ) ;
#287 = VERTEX_POINT ( 'NONE', #1248 ) ;
#288 = LINE ( 'NONE', #295, #1040 ) ;
#289 = LINE ( 'NONE', #395, #1226 ) ;
#290 = DIRECTION ( 'NONE',  ( 0.000000000000000000, 0.000000000000000000, 1.000000000000000000 ) ) ;
#291 = EDGE_CURVE ( 'NONE', #866, #458, #898, .T. ) ;
#292 = ORIENTED_EDGE ( 'NONE', *, *, #291, .T. ) ;
#293 = AXIS2_PLACEMENT_3D ( 'NONE', #1045, #541, #39 ) ;
#294 = CARTESIAN_POINT ( 'NONE',  ( -222.2781745930519435, 0.000000000000000000, 54.27817459305205716 ) ) ;
#295 = CARTESIAN_POINT ( 'NONE',  ( -222.2781745930519719, 2.000000000000000000, -54.27817459305198611 ) ) ;
#296 = DIRECTION ( 'NONE',  ( -1.734723475976807094E-15, 0.000000000000000000, 1.000000000000000000 ) ) ;
#297 = CYLINDRICAL_SURFACE ( 'NONE', #655, 2.500000000000002220 ) ;
#298 = DIRECTION ( 'NONE',  ( -0.000000000000000000, 1.000000000000000000, -0.000000000000000000 ) ) ;
#299 = VERTEX_POINT ( 'NONE', #1174 ) ;
#300 = VERTEX_POINT ( 'NONE', #294 ) ;
#301 = CARTESIAN_POINT ( 'NONE',  ( -150.0000000000000000, 0.000000000000000000, 60.00000000000003553 ) ) ;
#302 = CARTESIAN_POINT ( 'NONE',  ( 150.0000000000000000, 0.000000000000000000, 57.50000000000001421 ) ) ;
#303 = CARTESIAN_POINT ( 'NONE',  ( 214.5000000000000853, 2.000000000000000000, -64.99999999999997158 ) ) ;
#304 = EDGE_LOOP ( 'NONE', ( #1252, #906, #1133, #271 ) ) ;
#305 = EDGE_CURVE ( 'NONE', #378, #132, #62, .T. ) ;
#306 = DIRECTION ( 'NONE',  ( -0.000000000000000000, 1.000000000000000000, -0.000000000000000000 ) ) ;
#307 = CIRCLE ( 'NONE', #1255, 2.500000000000002220 ) ;
#308 = EDGE_CURVE ( 'NONE', #874, #866, #273, .T. ) ;
#309 = DIRECTION ( 'NONE',  ( 0.000000000000000000, 1.000000000000000000, 0.000000000000000000 ) ) ;
#310 = CARTESIAN_POINT ( 'NONE',  ( 214.5000000000001421, 0.000000000000000000, 65.00000000000002842 ) ) ;
#311 = ORIENTED_EDGE ( 'NONE', *, *, #76, .T. ) ;
#312 = ORIENTED_EDGE ( 'NONE', *, *, #1131, .T. ) ;
#313 = DIRECTION ( 'NONE',  ( 0.000000000000000000, 0.000000000000000000, 1.000000000000000000 ) ) ;
#314 = EDGE_CURVE ( 'NONE', #486, #672, #1118, .T. ) ;
#315 = CARTESIAN_POINT ( 'NONE',  ( 214.5000000000001421, 0.000000000000000000, 49.00000000000002842 ) ) ;
#316 = VECTOR ( 'NONE', #1081, 1000.000000000000000 ) ;
#317 = CARTESIAN_POINT ( 'NONE',  ( -230.4999999999999147, 0.000000000000000000, 49.00000000000002842 ) ) ;
#318 = EDGE_LOOP ( 'NONE', ( #805, #616, #415, #671, #576, #1266, #443, #1188 ) ) ;
#319 = ORIENTED_EDGE ( 'NONE', *, *, #427, .T. ) ;
#320 = CARTESIAN_POINT ( 'NONE',  ( -225.4999999999999147, 2.000000000000000000, -2.500000000000002220 ) ) ;
#321 = AXIS2_PLACEMENT_3D ( 'NONE', #396, #197, #1177 ) ;
#322 = CARTESIAN_POINT ( 'NONE',  ( 0.000000000000000000, 0.000000000000000000, 60.00000000000002842 ) ) ;
#323 = CARTESIAN_POINT ( 'NONE',  ( -230.4999999999999147, 2.000000000000000000, -64.99999999999997158 ) ) ;
#324 = ORIENTED_EDGE ( 'NONE', *, *, #972, .T. ) ;
#325 = EDGE_CURVE ( 'NONE', #1275, #651, #232, .T. ) ;
#326 = DIRECTION ( 'NONE',  ( -0.000000000000000000, 1.000000000000000000, -0.000000000000000000 ) ) ;
#327 = FACE_OUTER_BOUND ( 'NONE', #385, .T. ) ;
#328 = CARTESIAN_POINT ( 'NONE',  ( 214.5000000000000853, 2.000000000000000000, -48.99999999999997158 ) ) ;
#329 = AXIS2_PLACEMENT_3D ( 'NONE', #882, #189, #274 ) ;
#330 = VECTOR ( 'NONE', #13, 1000.000000000000000 ) ;
#331 = DIRECTION ( 'NONE',  ( -0.000000000000000000, 1.000000000000000000, -0.000000000000000000 ) ) ;
#332 = VERTEX_POINT ( 'NONE', #1238 ) ;
#333 = VERTEX_POINT ( 'NONE', #642 ) ;
#334 = CARTESIAN_POINT ( 'NONE',  ( 150.0000000000000000, 2.000000000000000000, 57.50000000000001421 ) ) ;
#335 = DIRECTION ( 'NONE',  ( 0.000000000000000000, 0.000000000000000000, 1.000000000000000000 ) ) ;
#336 = CARTESIAN_POINT ( 'NONE',  ( 214.5000000000001421, 2.000000000000000000, 65.00000000000002842 ) ) ;
#337 = CARTESIAN_POINT ( 'NONE',  ( 0.000000000000000000, 0.000000000000000000, 0.000000000000000000 ) ) ;
#338 = EDGE_LOOP ( 'NONE', ( #752, #268, #732, #1087 ) ) ;
#339 = ORIENTED_EDGE ( 'NONE', *, *, #631, .F. ) ;
#340 = VECTOR ( 'NONE', #150, 1000.000000000000000 ) ;
#341 = FACE_BOUND ( 'NONE', #645, .T. ) ;
#342 = AXIS2_PLACEMENT_3D ( 'NONE', #420, #802, #296 ) ;
#343 = EDGE_CURVE ( 'NONE', #381, #299, #556, .T. ) ;
#344 = CARTESIAN_POINT ( 'NONE',  ( 225.5000000000001421, 0.000000000000000000, -27.50000000000006395 ) ) ;
#345 = FACE_BOUND ( 'NONE', #142, .T. ) ;
#346 = EDGE_LOOP ( 'NONE', ( #1047, #1208 ) ) ;
#347 = AXIS2_PLACEMENT_3D ( 'NONE', #1210, #1112, #12 ) ;
#348 = ORIENTED_EDGE ( 'NONE', *, *, #831, .T. ) ;
#349 = VECTOR ( 'NONE', #1283, 1000.000000000000000 ) ;
#350 = DIRECTION ( 'NONE',  ( -0.000000000000000000, 1.000000000000000000, -0.000000000000000000 ) ) ;
#351 = CYLINDRICAL_SURFACE ( 'NONE', #499, 2.500000000000002220 ) ;
#352 = ADVANCED_FACE ( 'NONE', ( #660 ), #842, .F. ) ;
#353 = EDGE_CURVE ( 'NONE', #494, #1200, #355, .T. ) ;
#354 = DIRECTION ( 'NONE',  ( -0.000000000000000000, 1.000000000000000000, -0.000000000000000000 ) ) ;
#355 = LINE ( 'NONE', #359, #1054 ) ;
#356 = ORIENTED_EDGE ( 'NONE', *, *, #1082, .T. ) ;
#357 = CARTESIAN_POINT ( 'NONE',  ( 225.5000000000001421, 0.000000000000000000, 30.00000000000001421 ) ) ;
#358 = DIRECTION ( 'NONE',  ( 0.000000000000000000, 0.000000000000000000, 1.000000000000000000 ) ) ;
#359 = CARTESIAN_POINT ( 'NONE',  ( -214.4999999999999147, 2.000000000000000000, -64.99999999999997158 ) ) ;
#360 = VERTEX_POINT ( 'NONE', #628 ) ;
#361 = ORIENTED_EDGE ( 'NONE', *, *, #819, .F. ) ;
#362 = CARTESIAN_POINT ( 'NONE',  ( 222.2781745930521140, 2.000000000000000000, -56.77817459305200742 ) ) ;
#363 = CARTESIAN_POINT ( 'NONE',  ( 222.2781745930521140, 2.000000000000000000, -56.77817459305200742 ) ) ;
#364 = EDGE_CURVE ( 'NONE', #958, #1055, #405, .T. ) ;
#365 = ORIENTED_EDGE ( 'NONE', *, *, #1278, .T. ) ;
#366 = VECTOR ( 'NONE', #1104, 1000.000000000000000 ) ;
#367 = EDGE_CURVE ( 'NONE', #1153, #796, #562, .T. ) ;
#368 = ORIENTED_EDGE ( 'NONE', *, *, #505, .F. ) ;
#369 = EDGE_CURVE ( 'NONE', #132, #1107, #695, .T. ) ;
#370 = CARTESIAN_POINT ( 'NONE',  ( 0.000000000000000000, 2.000000000000000000, -60.00000000000002132 ) ) ;
#371 = ORIENTED_EDGE ( 'NONE', *, *, #767, .T. ) ;
#372 = FACE_OUTER_BOUND ( 'NONE', #976, .T. ) ;
#373 = LINE ( 'NONE', #657, #707 ) ;
#374 = VECTOR ( 'NONE', #77, 1000.000000000000000 ) ;
#375 = VERTEX_POINT ( 'NONE', #336 ) ;
#376 = EDGE_CURVE ( 'NONE', #691, #966, #1105, .T. ) ;
#377 = DIRECTION ( 'NONE',  ( -0.000000000000000000, 1.000000000000000000, -0.000000000000000000 ) ) ;
#378 = VERTEX_POINT ( 'NONE', #117 ) ;
#379 = CARTESIAN_POINT ( 'NONE',  ( 150.0000000000000000, 0.000000000000000000, 60.00000000000002132 ) ) ;
#380 = VERTEX_POINT ( 'NONE', #217 ) ;
#381 = VERTEX_POINT ( 'NONE', #317 ) ;
#382 = AXIS2_PLACEMENT_3D ( 'NONE', #838, #528, #1242 ) ;
#383 = DIRECTION ( 'NONE',  ( -0.000000000000000000, 1.000000000000000000, -0.000000000000000000 ) ) ;
#384 = CARTESIAN_POINT ( 'NONE',  ( -150.0000000000000000, 2.000000000000000000, -62.49999999999999289 ) ) ;
#385 = EDGE_LOOP ( 'NONE', ( #552, #760, #829, #567 ) ) ;
#386 = DIRECTION ( 'NONE',  ( 0.000000000000000000, 0.000000000000000000, 1.000000000000000000 ) ) ;
#387 = DIRECTION ( 'NONE',  ( 0.000000000000000000, 0.000000000000000000, 1.000000000000000000 ) ) ;
#388 = CARTESIAN_POINT ( 'NONE',  ( 0.000000000000000000, 2.000000000000000000, 60.00000000000002842 ) ) ;
#389 = AXIS2_PLACEMENT_3D ( 'NONE', #323, #723, #125 ) ;
#390 = ORIENTED_EDGE ( 'NONE', *, *, #787, .F. ) ;
#391 = CIRCLE ( 'NONE', #840, 16.00000000000000000 ) ;
#392 = CARTESIAN_POINT ( 'NONE',  ( 230.5000000000000853, 0.000000000000000000, -64.99999999999997158 ) ) ;
#393 = CIRCLE ( 'NONE', #758, 2.500000000000002220 ) ;
#394 = ORIENTED_EDGE ( 'NONE', *, *, #1262, .F. ) ;
#395 = CARTESIAN_POINT ( 'NONE',  ( -150.0000000000000000, 2.000000000000000000, 62.50000000000002842 ) ) ;
#396 = CARTESIAN_POINT ( 'NONE',  ( 150.0000000000000000, 2.000000000000000000, -60.00000000000004974 ) ) ;
#397 = EDGE_CURVE ( 'NONE', #287, #725, #892, .T. ) ;
#398 = DIRECTION ( 'NONE',  ( 0.000000000000000000, 0.000000000000000000, 1.000000000000000000 ) ) ;
#399 = ORIENTED_EDGE ( 'NONE', *, *, #364, .T. ) ;
#400 = AXIS2_PLACEMENT_3D ( 'NONE', #1269, #402, #196 ) ;
#401 = AXIS2_PLACEMENT_3D ( 'NONE', #252, #130, #1028 ) ;
#402 = DIRECTION ( 'NONE',  ( -0.000000000000000000, 1.000000000000000000, -0.000000000000000000 ) ) ;
#403 = DIRECTION ( 'NONE',  ( 0.000000000000000000, 1.000000000000000000, 0.000000000000000000 ) ) ;
#404 = ORIENTED_EDGE ( 'NONE', *, *, #308, .T. ) ;
#405 = CIRCLE ( 'NONE', #1288, 2.499999999999995115 ) ;
#406 = DIRECTION ( 'NONE',  ( 0.000000000000000000, 0.000000000000000000, 1.000000000000000000 ) ) ;
#407 = DIRECTION ( 'NONE',  ( -0.000000000000000000, 1.000000000000000000, -0.000000000000000000 ) ) ;
#408 = CARTESIAN_POINT ( 'NONE',  ( 225.5000000000001421, 2.000000000000000000, 30.00000000000001421 ) ) ;
#409 = ORIENTED_EDGE ( 'NONE', *, *, #823, .F. ) ;
#410 = EDGE_LOOP ( 'NONE', ( #227, #1149 ) ) ;
#411 = ADVANCED_FACE ( 'NONE', ( #327 ), #239, .F. ) ;
#412 = DIRECTION ( 'NONE',  ( -0.000000000000000000, 1.000000000000000000, -0.000000000000000000 ) ) ;
#413 = CARTESIAN_POINT ( 'NONE',  ( 222.2781745930521140, 2.000000000000000000, -59.27817459305200742 ) ) ;
#414 = CYLINDRICAL_SURFACE ( 'NONE', #1187, 2.500000000000002220 ) ;
#415 = ORIENTED_EDGE ( 'NONE', *, *, #254, .F. ) ;
#416 = VERTEX_POINT ( 'NONE', #1169 ) ;
#417 = EDGE_CURVE ( 'NONE', #544, #958, #588, .T. ) ;
#418 = CARTESIAN_POINT ( 'NONE',  ( -225.4999999999999147, 0.000000000000000000, -2.500000000000002220 ) ) ;
#419 = CIRCLE ( 'NONE', #1128, 2.500000000000002220 ) ;
#420 = CARTESIAN_POINT ( 'NONE',  ( 214.5000000000000853, 0.000000000000000000, -48.99999999999997158 ) ) ;
#421 = CARTESIAN_POINT ( 'NONE',  ( -230.4999999999999147, 2.000000000000000000, -64.99999999999997158 ) ) ;
#422 = CARTESIAN_POINT ( 'NONE',  ( 225.5000000000001421, 2.000000000000000000, -30.00000000000006395 ) ) ;
#423 = ORIENTED_EDGE ( 'NONE', *, *, #122, .T. ) ;
#424 = ORIENTED_EDGE ( 'NONE', *, *, #314, .T. ) ;
#425 = CARTESIAN_POINT ( 'NONE',  ( 3.061616997868386592E-16, 2.000000000000000000, -62.50000000000001421 ) ) ;
#426 = CARTESIAN_POINT ( 'NONE',  ( -150.0000000000000000, 0.000000000000000000, 62.50000000000002842 ) ) ;
#427 = EDGE_CURVE ( 'NONE', #486, #416, #1007, .T. ) ;
#428 = FACE_BOUND ( 'NONE', #666, .T. ) ;
#429 = VERTEX_POINT ( 'NONE', #669 ) ;
#430 = ORIENTED_EDGE ( 'NONE', *, *, #697, .T. ) ;
#431 = DIRECTION ( 'NONE',  ( -0.000000000000000000, 1.000000000000000000, -0.000000000000000000 ) ) ;
#432 = CARTESIAN_POINT ( 'NONE',  ( 225.5000000000001421, 2.000000000000000000, 27.50000000000001066 ) ) ;
#433 = FACE_OUTER_BOUND ( 'NONE', #780, .T. ) ;
#434 = VERTEX_POINT ( 'NONE', #885 ) ;
#435 = EDGE_LOOP ( 'NONE', ( #58, #1186 ) ) ;
#436 = CYLINDRICAL_SURFACE ( 'NONE', #670, 2.500000000000009326 ) ;
#437 = CARTESIAN_POINT ( 'NONE',  ( -222.2781745930519719, 2.000000000000000000, -54.27817459305198611 ) ) ;
#438 = AXIS2_PLACEMENT_3D ( 'NONE', #860, #57, #1152 ) ;
#439 = CIRCLE ( 'NONE', #763, 2.500000000000002220 ) ;
#440 = DIRECTION ( 'NONE',  ( 0.000000000000000000, 0.000000000000000000, 1.000000000000000000 ) ) ;
#441 = CARTESIAN_POINT ( 'NONE',  ( 150.0000000000000000, 2.000000000000000000, 60.00000000000002132 ) ) ;
#442 = CIRCLE ( 'NONE', #826, 2.500000000000002220 ) ;
#443 = ORIENTED_EDGE ( 'NONE', *, *, #876, .F. ) ;
#444 = ORIENTED_EDGE ( 'NONE', *, *, #28, .F. ) ;
#445 = DIRECTION ( 'NONE',  ( 0.000000000000000000, 0.000000000000000000, 1.000000000000000000 ) ) ;
#446 = CARTESIAN_POINT ( 'NONE',  ( 225.5000000000001421, 2.000000000000000000, 32.50000000000001421 ) ) ;
#447 = AXIS2_PLACEMENT_3D ( 'NONE', #230, #922, #832 ) ;
#448 = ORIENTED_EDGE ( 'NONE', *, *, #369, .T. ) ;
#449 = ORIENTED_EDGE ( 'NONE', *, *, #343, .F. ) ;
#450 = VERTEX_POINT ( 'NONE', #968 ) ;
#451 = EDGE_CURVE ( 'NONE', #78, #480, #1176, .T. ) ;
#452 = CARTESIAN_POINT ( 'NONE',  ( 150.0000000000000000, 2.000000000000000000, 60.00000000000002132 ) ) ;
#453 = EDGE_CURVE ( 'NONE', #651, #1275, #55, .T. ) ;
#454 = AXIS2_PLACEMENT_3D ( 'NONE', #1264, #869, #59 ) ;
#455 = CARTESIAN_POINT ( 'NONE',  ( -222.2781745930519719, 0.000000000000000000, -54.27817459305198611 ) ) ;
#456 = FACE_BOUND ( 'NONE', #1267, .T. ) ;
#457 = AXIS2_PLACEMENT_3D ( 'NONE', #1289, #407, #1098 ) ;
#458 = VERTEX_POINT ( 'NONE', #870 ) ;
#459 = ORIENTED_EDGE ( 'NONE', *, *, #715, .F. ) ;
#460 = FACE_BOUND ( 'NONE', #564, .T. ) ;
#461 = CYLINDRICAL_SURFACE ( 'NONE', #1147, 2.500000000000002220 ) ;
#462 = ORIENTED_EDGE ( 'NONE', *, *, #1038, .T. ) ;
#463 = FACE_BOUND ( 'NONE', #1100, .T. ) ;
#464 = CARTESIAN_POINT ( 'NONE',  ( -225.4999999999999147, 2.000000000000000000, 0.000000000000000000 ) ) ;
#465 = AXIS2_PLACEMENT_3D ( 'NONE', #496, #877, #387 ) ;
#466 = EDGE_CURVE ( 'NONE', #894, #434, #1078, .T. ) ;
#467 = CARTESIAN_POINT ( 'NONE',  ( 222.2781745930521708, 2.000000000000000000, 54.27817459305205716 ) ) ;
#468 = VERTEX_POINT ( 'NONE', #1265 ) ;
#469 = DIRECTION ( 'NONE',  ( 0.000000000000000000, 0.000000000000000000, 1.000000000000000000 ) ) ;
#470 = ORIENTED_EDGE ( 'NONE', *, *, #146, .T. ) ;
#471 = EDGE_CURVE ( 'NONE', #88, #472, #153, .T. ) ;
#472 = VERTEX_POINT ( 'NONE', #477 ) ;
#473 = VERTEX_POINT ( 'NONE', #177 ) ;
#474 = CARTESIAN_POINT ( 'NONE',  ( 230.5000000000000853, 2.000000000000000000, -48.99999999999997868 ) ) ;
#475 = DIRECTION ( 'NONE',  ( 0.000000000000000000, 0.000000000000000000, 1.000000000000000000 ) ) ;
#476 = DIRECTION ( 'NONE',  ( -0.000000000000000000, 1.000000000000000000, -0.000000000000000000 ) ) ;
#477 = CARTESIAN_POINT ( 'NONE',  ( -150.0000000000000000, 0.000000000000000000, -62.49999999999999289 ) ) ;
#478 = LINE ( 'NONE', #467, #1041 ) ;
#479 = CIRCLE ( 'NONE', #962, 2.500000000000002220 ) ;
#480 = VERTEX_POINT ( 'NONE', #679 ) ;
#481 = CARTESIAN_POINT ( 'NONE',  ( 225.5000000000001421, 2.000000000000000000, -27.50000000000006395 ) ) ;
#482 = SURFACE_STYLE_FILL_AREA ( #489 ) ;
#483 = ORIENTED_EDGE ( 'NONE', *, *, #471, .F. ) ;
#484 = CARTESIAN_POINT ( 'NONE',  ( -222.2781745930519435, 2.000000000000000000, 56.77817459305205716 ) ) ;
#485 = CARTESIAN_POINT ( 'NONE',  ( 230.5000000000001421, 2.000000000000000000, 49.00000000000001421 ) ) ;
#486 = VERTEX_POINT ( 'NONE', #85 ) ;
#487 = ORIENTED_EDGE ( 'NONE', *, *, #733, .F. ) ;
#488 = EDGE_CURVE ( 'NONE', #88, #1173, #785, .T. ) ;
#489 = FILL_AREA_STYLE ('',( #72 ) ) ;
#490 = ORIENTED_EDGE ( 'NONE', *, *, #1203, .F. ) ;
#491 = CYLINDRICAL_SURFACE ( 'NONE', #1033, 2.500000000000002220 ) ;
#492 = DIRECTION ( 'NONE',  ( 0.000000000000000000, 0.000000000000000000, 1.000000000000000000 ) ) ;
#493 = ORIENTED_EDGE ( 'NONE', *, *, #376, .F. ) ;
#494 = VERTEX_POINT ( 'NONE', #1060 ) ;
#495 = CARTESIAN_POINT ( 'NONE',  ( -225.4999999999999147, 2.000000000000000000, -2.500000000000002220 ) ) ;
#496 = CARTESIAN_POINT ( 'NONE',  ( 222.2781745930521140, 0.000000000000000000, -56.77817459305200742 ) ) ;
#497 = DIRECTION ( 'NONE',  ( -0.000000000000000000, 1.000000000000000000, -0.000000000000000000 ) ) ;
#498 = ORIENTED_EDGE ( 'NONE', *, *, #238, .F. ) ;
#499 = AXIS2_PLACEMENT_3D ( 'NONE', #1130, #784, #83 ) ;
#500 = AXIS2_PLACEMENT_3D ( 'NONE', #54, #262, #765 ) ;
#501 = VECTOR ( 'NONE', #1020, 1000.000000000000000 ) ;
#502 =( NAMED_UNIT ( * ) SI_UNIT ( $, .STERADIAN. ) SOLID_ANGLE_UNIT ( ) );
#503 = FACE_OUTER_BOUND ( 'NONE', #989, .T. ) ;
#504 = EDGE_CURVE ( 'NONE', #1134, #248, #862, .T. ) ;
#505 = EDGE_CURVE ( 'NONE', #375, #1134, #916, .T. ) ;
#506 = ORIENTED_EDGE ( 'NONE', *, *, #76, .F. ) ;
#507 =( NAMED_UNIT ( * ) PLANE_ANGLE_UNIT ( ) SI_UNIT ( $, .RADIAN. ) );
#508 = CARTESIAN_POINT ( 'NONE',  ( 225.5000000000001421, 0.000000000000000000, 30.00000000000001421 ) ) ;
#509 = APPLICATION_CONTEXT ( 'automotive_design' ) ;
#510 = ADVANCED_FACE ( 'NONE', ( #791 ), #491, .F. ) ;
#511 = EDGE_LOOP ( 'NONE', ( #112, #1211, #856, #399 ) ) ;
#512 = VECTOR ( 'NONE', #1097, 1000.000000000000000 ) ;
#513 = CARTESIAN_POINT ( 'NONE',  ( 230.5000000000001421, 2.000000000000000000, 49.00000000000001421 ) ) ;
#514 = AXIS2_PLACEMENT_3D ( 'NONE', #1005, #309, #116 ) ;
#515 = CARTESIAN_POINT ( 'NONE',  ( -230.4999999999999147, 2.000000000000000000, -64.99999999999997158 ) ) ;
#516 = CARTESIAN_POINT ( 'NONE',  ( -222.2781745930519435, 2.000000000000000000, 56.77817459305205716 ) ) ;
#517 = ORIENTED_EDGE ( 'NONE', *, *, #640, .F. ) ;
#518 = ORIENTED_EDGE ( 'NONE', *, *, #1206, .F. ) ;
#519 = CARTESIAN_POINT ( 'NONE',  ( 150.0000000000000000, 0.000000000000000000, -60.00000000000004974 ) ) ;
#520 = CYLINDRICAL_SURFACE ( 'NONE', #347, 16.00000000000000000 ) ;
#521 = EDGE_LOOP ( 'NONE', ( #236, #1109, #7, #571 ) ) ;
#522 = ORIENTED_EDGE ( 'NONE', *, *, #902, .T. ) ;
#523 = AXIS2_PLACEMENT_3D ( 'NONE', #250, #180, #1157 ) ;
#524 = DIRECTION ( 'NONE',  ( -1.000000000000000000, 0.000000000000000000, 4.270088556250601699E-16 ) ) ;
#525 = LINE ( 'NONE', #421, #683 ) ;
#526 = FACE_BOUND ( 'NONE', #951, .T. ) ;
#527 = ORIENTED_EDGE ( 'NONE', *, *, #28, .T. ) ;
#528 = DIRECTION ( 'NONE',  ( 0.000000000000000000, 1.000000000000000000, 0.000000000000000000 ) ) ;
#529 = AXIS2_PLACEMENT_3D ( 'NONE', #277, #79, #73 ) ;
#530 = CARTESIAN_POINT ( 'NONE',  ( -150.0000000000000000, 2.000000000000000000, 60.00000000000003553 ) ) ;
#531 = PLANE ( 'NONE',  #41 ) ;
#532 = ORIENTED_EDGE ( 'NONE', *, *, #68, .F. ) ;
#533 = DIRECTION ( 'NONE',  ( 0.000000000000000000, 0.000000000000000000, 1.000000000000000000 ) ) ;
#534 = CARTESIAN_POINT ( 'NONE',  ( 3.061616997868379690E-16, 0.000000000000000000, 57.50000000000002132 ) ) ;
#535 = AXIS2_PLACEMENT_3D ( 'NONE', #1263, #853, #587 ) ;
#536 = ORIENTED_EDGE ( 'NONE', *, *, #488, .F. ) ;
#537 = EDGE_CURVE ( 'NONE', #796, #712, #1053, .T. ) ;
#538 = FACE_BOUND ( 'NONE', #286, .T. ) ;
#539 = CARTESIAN_POINT ( 'NONE',  ( 222.2781745930521140, 2.000000000000000000, -56.77817459305200742 ) ) ;
#540 = FACE_BOUND ( 'NONE', #1259, .T. ) ;
#541 = DIRECTION ( 'NONE',  ( -0.000000000000000000, 1.000000000000000000, -0.000000000000000000 ) ) ;
#542 = CIRCLE ( 'NONE', #833, 2.500000000000002220 ) ;
#543 = DIRECTION ( 'NONE',  ( 1.000000000000000000, 0.000000000000000000, 0.000000000000000000 ) ) ;
#544 = VERTEX_POINT ( 'NONE', #770 ) ;
#545 = ORIENTED_EDGE ( 'NONE', *, *, #1253, .T. ) ;
#546 = EDGE_CURVE ( 'NONE', #822, #586, #1141, .T. ) ;
#547 = VERTEX_POINT ( 'NONE', #955 ) ;
#548 = FACE_BOUND ( 'NONE', #242, .T. ) ;
#549 = DIRECTION ( 'NONE',  ( 0.000000000000000000, 0.000000000000000000, 1.000000000000000000 ) ) ;
#550 = FACE_OUTER_BOUND ( 'NONE', #1095, .T. ) ;
#551 = AXIS2_PLACEMENT_3D ( 'NONE', #464, #246, #358 ) ;
#552 = ORIENTED_EDGE ( 'NONE', *, *, #1198, .F. ) ;
#553 = CYLINDRICAL_SURFACE ( 'NONE', #1221, 2.500000000000002220 ) ;
#554 = ADVANCED_FACE ( 'NONE', ( #503 ), #93, .F. ) ;
#555 = CARTESIAN_POINT ( 'NONE',  ( 214.5000000000001421, 2.000000000000000000, 65.00000000000002842 ) ) ;
#556 = LINE ( 'NONE', #140, #340 ) ;
#557 = CIRCLE ( 'NONE', #1277, 2.500000000000002220 ) ;
#558 = VECTOR ( 'NONE', #47, 1000.000000000000000 ) ;
#559 = DIRECTION ( 'NONE',  ( 1.000000000000000000, 0.000000000000000000, 0.000000000000000000 ) ) ;
#560 = ORIENTED_EDGE ( 'NONE', *, *, #212, .T. ) ;
#561 = CARTESIAN_POINT ( 'NONE',  ( 0.000000000000000000, 2.000000000000000000, -60.00000000000002132 ) ) ;
#562 = CIRCLE ( 'NONE', #523, 2.500000000000002220 ) ;
#563 = APPLICATION_PROTOCOL_DEFINITION ( 'draft international standard', 'automotive_design', 1998, #509 ) ;
#564 = EDGE_LOOP ( 'NONE', ( #565, #598 ) ) ;
#565 = ORIENTED_EDGE ( 'NONE', *, *, #369, .F. ) ;
#566 = CYLINDRICAL_SURFACE ( 'NONE', #535, 2.500000000000002220 ) ;
#567 = ORIENTED_EDGE ( 'NONE', *, *, #1071, .T. ) ;
#568 = CARTESIAN_POINT ( 'NONE',  ( -214.4999999999999147, 2.000000000000000000, -48.99999999999997158 ) ) ;
#569 = LINE ( 'NONE', #865, #330 ) ;
#570 = ADVANCED_FACE ( 'NONE', ( #372 ), #297, .F. ) ;
#571 = ORIENTED_EDGE ( 'NONE', *, *, #124, .T. ) ;
#572 = ADVANCED_BREP_SHAPE_REPRESENTATION ( 'Electronics enclosure', ( #1052, #158 ), #1273 ) ;
#573 = LINE ( 'NONE', #320, #599 ) ;
#574 = CYLINDRICAL_SURFACE ( 'NONE', #454, 2.500000000000002220 ) ;
#575 = DIRECTION ( 'NONE',  ( -0.000000000000000000, 1.000000000000000000, -0.000000000000000000 ) ) ;
#576 = ORIENTED_EDGE ( 'NONE', *, *, #948, .F. ) ;
#577 = EDGE_CURVE ( 'NONE', #672, #1219, #975, .T. ) ;
#578 = AXIS2_PLACEMENT_3D ( 'NONE', #370, #267, #674 ) ;
#579 = EDGE_LOOP ( 'NONE', ( #506, #339, #668, #448 ) ) ;
#580 = EDGE_CURVE ( 'NONE', #1200, #450, #816, .T. ) ;
#581 = DIRECTION ( 'NONE',  ( -0.000000000000000000, 1.000000000000000000, -0.000000000000000000 ) ) ;
#582 = ORIENTED_EDGE ( 'NONE', *, *, #1101, .T. ) ;
#583 = CARTESIAN_POINT ( 'NONE',  ( -230.4999999999999147, 0.000000000000000000, -64.99999999999997158 ) ) ;
#584 = DIRECTION ( 'NONE',  ( -0.000000000000000000, 1.000000000000000000, -0.000000000000000000 ) ) ;
#585 = EDGE_LOOP ( 'NONE', ( #800, #184 ) ) ;
#586 = VERTEX_POINT ( 'NONE', #426 ) ;
#587 = DIRECTION ( 'NONE',  ( 0.000000000000000000, 0.000000000000000000, 1.000000000000000000 ) ) ;
#588 = LINE ( 'NONE', #1155, #849 ) ;
#589 = ORIENTED_EDGE ( 'NONE', *, *, #504, .T. ) ;
#590 = VECTOR ( 'NONE', #979, 1000.000000000000000 ) ;
#591 = EDGE_LOOP ( 'NONE', ( #684, #1023, #811, #861 ) ) ;
#592 = EDGE_CURVE ( 'NONE', #900, #945, #18, .T. ) ;
#593 = CARTESIAN_POINT ( 'NONE',  ( -222.2781745930519435, 2.000000000000000000, 59.27817459305206427 ) ) ;
#594 = EDGE_CURVE ( 'NONE', #333, #1055, #709, .T. ) ;
#595 = EDGE_CURVE ( 'NONE', #450, #299, #722, .T. ) ;
#596 = DIRECTION ( 'NONE',  ( 0.000000000000000000, 0.000000000000000000, 1.000000000000000000 ) ) ;
#597 = DIRECTION ( 'NONE',  ( -0.000000000000000000, 1.000000000000000000, -0.000000000000000000 ) ) ;
#598 = ORIENTED_EDGE ( 'NONE', *, *, #775, .F. ) ;
#599 = VECTOR ( 'NONE', #114, 1000.000000000000000 ) ;
#600 = AXIS2_PLACEMENT_3D ( 'NONE', #620, #1006, #641 ) ;
#601 = CIRCLE ( 'NONE', #1215, 2.500000000000009326 ) ;
#602 = CARTESIAN_POINT ( 'NONE',  ( -150.0000000000000000, 2.000000000000000000, -59.99999999999999289 ) ) ;
#603 = PRODUCT_DEFINITION ( 'ๆ', '', #685, #735 ) ;
#604 = DIRECTION ( 'NONE',  ( 0.000000000000000000, 0.000000000000000000, 1.000000000000000000 ) ) ;
#605 = EDGE_LOOP ( 'NONE', ( #1012, #356 ) ) ;
#606 = ORIENTED_EDGE ( 'NONE', *, *, #934, .T. ) ;
#607 = AXIS2_PLACEMENT_3D ( 'NONE', #362, #1216, #1121 ) ;
#608 = DIRECTION ( 'NONE',  ( 0.000000000000000000, 0.000000000000000000, 1.000000000000000000 ) ) ;
#609 = CARTESIAN_POINT ( 'NONE',  ( -214.4999999999999147, 0.000000000000000000, 65.00000000000002842 ) ) ;
#610 = CARTESIAN_POINT ( 'NONE',  ( 225.5000000000001421, 2.000000000000000000, -32.50000000000007105 ) ) ;
#611 = ORIENTED_EDGE ( 'NONE', *, *, #325, .T. ) ;
#612 = CIRCLE ( 'NONE', #719, 2.500000000000002220 ) ;
#613 = DIRECTION ( 'NONE',  ( 0.000000000000000000, 0.000000000000000000, 1.000000000000000000 ) ) ;
#614 = DIRECTION ( 'NONE',  ( 0.000000000000000000, 0.000000000000000000, 1.000000000000000000 ) ) ;
#615 = AXIS2_PLACEMENT_3D ( 'NONE', #658, #755, #161 ) ;
#616 = ORIENTED_EDGE ( 'NONE', *, *, #801, .T. ) ;
#617 = ORIENTED_EDGE ( 'NONE', *, *, #1069, .T. ) ;
#618 = EDGE_CURVE ( 'NONE', #945, #468, #9, .T. ) ;
#619 = CARTESIAN_POINT ( 'NONE',  ( 150.0000000000000000, 2.000000000000000000, 60.00000000000002132 ) ) ;
#620 = CARTESIAN_POINT ( 'NONE',  ( 150.0000000000000000, 2.000000000000000000, -60.00000000000004974 ) ) ;
#621 = VERTEX_POINT ( 'NONE', #609 ) ;
#622 = AXIS2_PLACEMENT_3D ( 'NONE', #762, #779, #1280 ) ;
#623 = PLANE ( 'NONE',  #382 ) ;
#624 = DIRECTION ( 'NONE',  ( -0.000000000000000000, -1.000000000000000000, -0.000000000000000000 ) ) ;
#625 = FACE_OUTER_BOUND ( 'NONE', #591, .T. ) ;
#626 = EDGE_LOOP ( 'NONE', ( #43, #390, #1037, #276 ) ) ;
#627 = ORIENTED_EDGE ( 'NONE', *, *, #787, .T. ) ;
#628 = CARTESIAN_POINT ( 'NONE',  ( 150.0000000000000000, 0.000000000000000000, -57.50000000000004263 ) ) ;
#629 = DIRECTION ( 'NONE',  ( 0.000000000000000000, 0.000000000000000000, 1.000000000000000000 ) ) ;
#630 = DIRECTION ( 'NONE',  ( 0.000000000000000000, 0.000000000000000000, 1.000000000000000000 ) ) ;
#631 = EDGE_CURVE ( 'NONE', #378, #851, #282, .T. ) ;
#632 = CARTESIAN_POINT ( 'NONE',  ( -230.4999999999999147, 2.000000000000000000, -64.99999999999997158 ) ) ;
#633 = DIRECTION ( 'NONE',  ( -0.000000000000000000, 1.000000000000000000, -0.000000000000000000 ) ) ;
#634 = VECTOR ( 'NONE', #1140, 1000.000000000000000 ) ;
#635 = EDGE_LOOP ( 'NONE', ( #348, #644 ) ) ;
#636 = ORIENTED_EDGE ( 'NONE', *, *, #768, .T. ) ;
#637 = DIRECTION ( 'NONE',  ( -0.000000000000000000, 1.000000000000000000, -0.000000000000000000 ) ) ;
#638 = CARTESIAN_POINT ( 'NONE',  ( 150.0000000000000000, 0.000000000000000000, -60.00000000000004974 ) ) ;
#639 = CIRCLE ( 'NONE', #329, 2.500000000000002220 ) ;
#640 = EDGE_CURVE ( 'NONE', #966, #429, #1272, .T. ) ;
#641 = DIRECTION ( 'NONE',  ( 0.000000000000000000, 0.000000000000000000, 1.000000000000000000 ) ) ;
#642 = CARTESIAN_POINT ( 'NONE',  ( 3.061616997868388565E-16, 0.000000000000000000, -62.50000000000001421 ) ) ;
#643 = EDGE_LOOP ( 'NONE', ( #120, #527, #462, #804 ) ) ;
#644 = ORIENTED_EDGE ( 'NONE', *, *, #1122, .T. ) ;
#645 = EDGE_LOOP ( 'NONE', ( #61, #192 ) ) ;
#646 = LINE ( 'NONE', #129, #35 ) ;
#647 = DIRECTION ( 'NONE',  ( -0.000000000000000000, 1.000000000000000000, -0.000000000000000000 ) ) ;
#648 = FACE_BOUND ( 'NONE', #605, .T. ) ;
#649 = AXIS2_PLACEMENT_3D ( 'NONE', #1026, #156, #533 ) ;
#650 = ORIENTED_EDGE ( 'NONE', *, *, #808, .F. ) ;
#651 = VERTEX_POINT ( 'NONE', #302 ) ;
#652 = ADVANCED_FACE ( 'NONE', ( #1191 ), #213, .F. ) ;
#653 = CARTESIAN_POINT ( 'NONE',  ( -225.4999999999999147, 2.000000000000000000, 0.000000000000000000 ) ) ;
#654 = DIRECTION ( 'NONE',  ( -0.000000000000000000, 1.000000000000000000, -0.000000000000000000 ) ) ;
#655 = AXIS2_PLACEMENT_3D ( 'NONE', #699, #1077, #596 ) ;
#656 = CARTESIAN_POINT ( 'NONE',  ( 0.000000000000000000, 0.000000000000000000, 0.000000000000000000 ) ) ;
#657 = CARTESIAN_POINT ( 'NONE',  ( -222.2781745930519435, 2.000000000000000000, 54.27817459305205716 ) ) ;
#658 = CARTESIAN_POINT ( 'NONE',  ( 214.5000000000000853, 2.000000000000000000, -48.99999999999997158 ) ) ;
#659 = DIRECTION ( 'NONE',  ( 0.000000000000000000, 0.000000000000000000, 1.000000000000000000 ) ) ;
#660 = FACE_OUTER_BOUND ( 'NONE', #304, .T. ) ;
#661 = APPLICATION_PROTOCOL_DEFINITION ( 'draft international standard', 'automotive_design', 1998, #984 ) ;
#662 = STYLED_ITEM ( 'NONE', ( #687 ), #1052 ) ;
#663 = VECTOR ( 'NONE', #786, 1000.000000000000000 ) ;
#664 = CIRCLE ( 'NONE', #788, 2.500000000000002220 ) ;
#665 = CARTESIAN_POINT ( 'NONE',  ( -150.0000000000000000, 2.000000000000000000, -62.49999999999999289 ) ) ;
#666 = EDGE_LOOP ( 'NONE', ( #1270, #210 ) ) ;
#667 = CARTESIAN_POINT ( 'NONE',  ( 222.2781745930521708, 2.000000000000000000, 56.77817459305205716 ) ) ;
#668 = ORIENTED_EDGE ( 'NONE', *, *, #305, .T. ) ;
#669 = CARTESIAN_POINT ( 'NONE',  ( 214.5000000000000853, 2.000000000000000000, -64.99999999999997158 ) ) ;
#670 = AXIS2_PLACEMENT_3D ( 'NONE', #452, #637, #1019 ) ;
#671 = ORIENTED_EDGE ( 'NONE', *, *, #264, .T. ) ;
#672 = VERTEX_POINT ( 'NONE', #413 ) ;
#673 = EDGE_CURVE ( 'NONE', #299, #188, #182, .T. ) ;
#674 = DIRECTION ( 'NONE',  ( 0.000000000000000000, 0.000000000000000000, 1.000000000000000000 ) ) ;
#675 = ORIENTED_EDGE ( 'NONE', *, *, #266, .F. ) ;
#676 = VECTOR ( 'NONE', #947, 1000.000000000000000 ) ;
#677 = CARTESIAN_POINT ( 'NONE',  ( 150.0000000000000000, 2.000000000000000000, -57.50000000000004263 ) ) ;
#678 = ADVANCED_FACE ( 'NONE', ( #809 ), #520, .T. ) ;
#679 = CARTESIAN_POINT ( 'NONE',  ( 150.0000000000000000, 2.000000000000000000, -62.50000000000005684 ) ) ;
#680 = EDGE_CURVE ( 'NONE', #145, #547, #44, .T. ) ;
#681 = CARTESIAN_POINT ( 'NONE',  ( 222.2781745930521708, 2.000000000000000000, 56.77817459305205716 ) ) ;
#682 = DIRECTION ( 'NONE',  ( -0.000000000000000000, 1.000000000000000000, -0.000000000000000000 ) ) ;
#683 = VECTOR ( 'NONE', #818, 1000.000000000000000 ) ;
#684 = ORIENTED_EDGE ( 'NONE', *, *, #254, .T. ) ;
#685 = PRODUCT_DEFINITION_FORMATION_WITH_SPECIFIED_SOURCE ( 'ไป', '', #896, .NOT_KNOWN. ) ;
#686 = CARTESIAN_POINT ( 'NONE',  ( 225.5000000000001421, 2.000000000000000000, -30.00000000000006395 ) ) ;
#687 = PRESENTATION_STYLE_ASSIGNMENT (( #774 ) ) ;
#688 = ORIENTED_EDGE ( 'NONE', *, *, #1179, .T. ) ;
#689 = DIRECTION ( 'NONE',  ( 0.000000000000000000, -1.000000000000000000, 0.000000000000000000 ) ) ;
#690 = CARTESIAN_POINT ( 'NONE',  ( -150.0000000000000000, 0.000000000000000000, 60.00000000000003553 ) ) ;
#691 = VERTEX_POINT ( 'NONE', #904 ) ;
#692 = ORIENTED_EDGE ( 'NONE', *, *, #1004, .F. ) ;
#693 = DIRECTION ( 'NONE',  ( 0.000000000000000000, -1.000000000000000000, 0.000000000000000000 ) ) ;
#694 = DIRECTION ( 'NONE',  ( -0.000000000000000000, 1.000000000000000000, -0.000000000000000000 ) ) ;
#695 = CIRCLE ( 'NONE', #170, 2.500000000000002220 ) ;
#696 = EDGE_LOOP ( 'NONE', ( #56, #789 ) ) ;
#697 = EDGE_CURVE ( 'NONE', #429, #1200, #525, .T. ) ;
#698 = CYLINDRICAL_SURFACE ( 'NONE', #980, 2.500000000000002220 ) ;
#699 = CARTESIAN_POINT ( 'NONE',  ( 0.000000000000000000, 2.000000000000000000, -60.00000000000002132 ) ) ;
#700 = LINE ( 'NONE', #303, #1016 ) ;
#701 = ORIENTED_EDGE ( 'NONE', *, *, #1253, .F. ) ;
#702 = LINE ( 'NONE', #593, #316 ) ;
#703 = CARTESIAN_POINT ( 'NONE',  ( -222.2781745930519719, 2.000000000000000000, -56.77817459305199321 ) ) ;
#704 = PLANE ( 'NONE',  #998 ) ;
#705 = ORIENTED_EDGE ( 'NONE', *, *, #775, .T. ) ;
#706 = CIRCLE ( 'NONE', #863, 2.500000000000002220 ) ;
#707 = VECTOR ( 'NONE', #1036, 1000.000000000000000 ) ;
#708 = DIRECTION ( 'NONE',  ( 0.000000000000000000, 0.000000000000000000, 1.000000000000000000 ) ) ;
#709 = LINE ( 'NONE', #897, #201 ) ;
#710 = DIRECTION ( 'NONE',  ( 0.000000000000000000, 0.000000000000000000, 1.000000000000000000 ) ) ;
#711 = EDGE_LOOP ( 'NONE', ( #1079, #222, #950, #164 ) ) ;
#712 = VERTEX_POINT ( 'NONE', #1197 ) ;
#713 = AXIS2_PLACEMENT_3D ( 'NONE', #807, #223, #313 ) ;
#714 = DIRECTION ( 'NONE',  ( 0.000000000000000000, 0.000000000000000000, -1.000000000000000000 ) ) ;
#715 = EDGE_CURVE ( 'NONE', #248, #119, #391, .T. ) ;
#716 = CARTESIAN_POINT ( 'NONE',  ( -225.4999999999999147, 0.000000000000000000, 0.000000000000000000 ) ) ;
#717 = ADVANCED_FACE ( 'NONE', ( #912 ), #704, .F. ) ;
#718 = ORIENTED_EDGE ( 'NONE', *, *, #823, .T. ) ;
#719 = AXIS2_PLACEMENT_3D ( 'NONE', #1106, #331, #234 ) ;
#720 = CYLINDRICAL_SURFACE ( 'NONE', #163, 2.500000000000002220 ) ;
#721 = AXIS2_PLACEMENT_3D ( 'NONE', #322, #224, #1000 ) ;
#722 = LINE ( 'NONE', #515, #366 ) ;
#723 = DIRECTION ( 'NONE',  ( 1.000000000000000000, 0.000000000000000000, 0.000000000000000000 ) ) ;
#724 = ORIENTED_EDGE ( 'NONE', *, *, #580, .T. ) ;
#725 = VERTEX_POINT ( 'NONE', #1010 ) ;
#726 = VECTOR ( 'NONE', #63, 1000.000000000000000 ) ;
#727 = CARTESIAN_POINT ( 'NONE',  ( -222.2781745930519435, 0.000000000000000000, 56.77817459305205716 ) ) ;
#728 = AXIS2_PLACEMENT_3D ( 'NONE', #261, #53, #1142 ) ;
#729 = DIRECTION ( 'NONE',  ( 0.000000000000000000, 0.000000000000000000, 1.000000000000000000 ) ) ;
#730 = FACE_BOUND ( 'NONE', #435, .T. ) ;
#731 = VERTEX_POINT ( 'NONE', #123 ) ;
#732 = ORIENTED_EDGE ( 'NONE', *, *, #1182, .T. ) ;
#733 = EDGE_CURVE ( 'NONE', #1158, #473, #155, .T. ) ;
#734 = VECTOR ( 'NONE', #633, 1000.000000000000000 ) ;
#735 = PRODUCT_DEFINITION_CONTEXT ( 'detailed design', #509, 'design' ) ;
#736 = CARTESIAN_POINT ( 'NONE',  ( -150.0000000000000000, 2.000000000000000000, -59.99999999999999289 ) ) ;
#737 = EDGE_CURVE ( 'NONE', #621, #381, #1163, .T. ) ;
#738 = CARTESIAN_POINT ( 'NONE',  ( -150.0000000000000000, 0.000000000000000000, 57.50000000000002842 ) ) ;
#739 = LINE ( 'NONE', #677, #676 ) ;
#740 = ORIENTED_EDGE ( 'NONE', *, *, #595, .F. ) ;
#741 = EDGE_LOOP ( 'NONE', ( #74, #409 ) ) ;
#742 = FACE_OUTER_BOUND ( 'NONE', #964, .T. ) ;
#743 = LINE ( 'NONE', #1123, #501 ) ;
#744 = ORIENTED_EDGE ( 'NONE', *, *, #1124, .F. ) ;
#745 = EDGE_LOOP ( 'NONE', ( #1127, #10, #1115, #371 ) ) ;
#746 = FACE_BOUND ( 'NONE', #152, .T. ) ;
#747 = DIRECTION ( 'NONE',  ( 0.000000000000000000, 0.000000000000000000, 1.000000000000000000 ) ) ;
#748 = ORIENTED_EDGE ( 'NONE', *, *, #1206, .T. ) ;
#749 = FACE_BOUND ( 'NONE', #410, .T. ) ;
#750 = LINE ( 'NONE', #555, #29 ) ;
#751 = ADVANCED_FACE ( 'NONE', ( #1184 ), #207, .F. ) ;
#752 = ORIENTED_EDGE ( 'NONE', *, *, #66, .F. ) ;
#753 = ORIENTED_EDGE ( 'NONE', *, *, #265, .F. ) ;
#754 = UNCERTAINTY_MEASURE_WITH_UNIT (LENGTH_MEASURE( 1.000000000000000082E-05 ), #1190, 'distance_accuracy_value', 'NONE');
#755 = DIRECTION ( 'NONE',  ( 0.000000000000000000, -1.000000000000000000, 0.000000000000000000 ) ) ;
#756 = DIRECTION ( 'NONE',  ( -0.000000000000000000, 1.000000000000000000, -0.000000000000000000 ) ) ;
#757 = AXIS2_PLACEMENT_3D ( 'NONE', #508, #16, #99 ) ;
#758 = AXIS2_PLACEMENT_3D ( 'NONE', #736, #350, #1116 ) ;
#759 = ORIENTED_EDGE ( 'NONE', *, *, #820, .F. ) ;
#760 = ORIENTED_EDGE ( 'NONE', *, *, #1181, .F. ) ;
#761 = CARTESIAN_POINT ( 'NONE',  ( 225.5000000000001421, 0.000000000000000000, 27.50000000000001066 ) ) ;
#762 = CARTESIAN_POINT ( 'NONE',  ( 150.0000000000000000, 2.000000000000000000, -60.00000000000004974 ) ) ;
#763 = AXIS2_PLACEMENT_3D ( 'NONE', #969, #772, #60 ) ;
#764 = AXIS2_PLACEMENT_3D ( 'NONE', #827, #1217, #335 ) ;
#765 = DIRECTION ( 'NONE',  ( 0.000000000000000000, 0.000000000000000000, -1.000000000000000000 ) ) ;
#766 = ORIENTED_EDGE ( 'NONE', *, *, #876, .T. ) ;
#767 = EDGE_CURVE ( 'NONE', #712, #920, #936, .T. ) ;
#768 = EDGE_CURVE ( 'NONE', #725, #287, #601, .T. ) ;
#769 = CYLINDRICAL_SURFACE ( 'NONE', #1002, 16.00000000000000000 ) ;
#770 = CARTESIAN_POINT ( 'NONE',  ( 0.000000000000000000, 0.000000000000000000, -57.50000000000001421 ) ) ;
#771 = CIRCLE ( 'NONE', #100, 2.500000000000002220 ) ;
#772 = DIRECTION ( 'NONE',  ( -0.000000000000000000, 1.000000000000000000, -0.000000000000000000 ) ) ;
#773 = ORIENTED_EDGE ( 'NONE', *, *, #673, .T. ) ;
#774 = SURFACE_STYLE_USAGE ( .BOTH. , #868 ) ;
#775 = EDGE_CURVE ( 'NONE', #1107, #132, #51, .T. ) ;
#776 = EDGE_LOOP ( 'NONE', ( #368, #650, #459, #888 ) ) ;
#777 = VECTOR ( 'NONE', #48, 1000.000000000000000 ) ;
#778 = CARTESIAN_POINT ( 'NONE',  ( -214.4999999999999147, 2.000000000000000000, 65.00000000000002842 ) ) ;
#779 = DIRECTION ( 'NONE',  ( -0.000000000000000000, 1.000000000000000000, -0.000000000000000000 ) ) ;
#780 = EDGE_LOOP ( 'NONE', ( #740, #1150, #312, #154 ) ) ;
#781 = AXIS2_PLACEMENT_3D ( 'NONE', #798, #1083, #614 ) ;
#782 = ORIENTED_EDGE ( 'NONE', *, *, #546, .F. ) ;
#783 = DIRECTION ( 'NONE',  ( 0.000000000000000000, 0.000000000000000000, 1.000000000000000000 ) ) ;
#784 = DIRECTION ( 'NONE',  ( -0.000000000000000000, 1.000000000000000000, -0.000000000000000000 ) ) ;
#785 = LINE ( 'NONE', #191, #1247 ) ;
#786 = DIRECTION ( 'NONE',  ( -0.000000000000000000, 1.000000000000000000, -0.000000000000000000 ) ) ;
#787 = EDGE_CURVE ( 'NONE', #416, #486, #442, .T. ) ;
#788 = AXIS2_PLACEMENT_3D ( 'NONE', #363, #756, #549 ) ;
#789 = ORIENTED_EDGE ( 'NONE', *, *, #1124, .T. ) ;
#790 = CARTESIAN_POINT ( 'NONE',  ( 222.2781745930521708, 0.000000000000000000, 56.77817459305205716 ) ) ;
#791 = FACE_OUTER_BOUND ( 'NONE', #204, .T. ) ;
#792 = AXIS2_PLACEMENT_3D ( 'NONE', #379, #1162, #65 ) ;
#793 = DIRECTION ( 'NONE',  ( -0.000000000000000000, 1.000000000000000000, -0.000000000000000000 ) ) ;
#794 = ADVANCED_FACE ( 'NONE', ( #918 ), #461, .F. ) ;
#795 = EDGE_LOOP ( 'NONE', ( #444, #971, #423, #69 ) ) ;
#796 = VERTEX_POINT ( 'NONE', #850 ) ;
#797 = DIRECTION ( 'NONE',  ( -0.000000000000000000, 1.000000000000000000, -0.000000000000000000 ) ) ;
#798 = CARTESIAN_POINT ( 'NONE',  ( -214.4999999999999147, 0.000000000000000000, 49.00000000000002842 ) ) ;
#799 = CARTESIAN_POINT ( 'NONE',  ( 0.000000000000000000, 2.000000000000000000, 62.50000000000002842 ) ) ;
#800 = ORIENTED_EDGE ( 'NONE', *, *, #1101, .F. ) ;
#801 = EDGE_CURVE ( 'NONE', #380, #494, #1110, .T. ) ;
#802 = DIRECTION ( 'NONE',  ( -0.000000000000000000, -1.000000000000000000, -0.000000000000000000 ) ) ;
#803 = DIRECTION ( 'NONE',  ( -0.000000000000000000, 1.000000000000000000, -0.000000000000000000 ) ) ;
#804 = ORIENTED_EDGE ( 'NONE', *, *, #122, .F. ) ;
#805 = ORIENTED_EDGE ( 'NONE', *, *, #1131, .F. ) ;
#806 = CIRCLE ( 'NONE', #578, 2.499999999999995115 ) ;
#807 = CARTESIAN_POINT ( 'NONE',  ( 225.5000000000001421, 2.000000000000000000, 30.00000000000001421 ) ) ;
#808 = EDGE_CURVE ( 'NONE', #119, #375, #750, .T. ) ;
#809 = FACE_OUTER_BOUND ( 'NONE', #6, .T. ) ;
#810 = LINE ( 'NONE', #86, #349 ) ;
#811 = ORIENTED_EDGE ( 'NONE', *, *, #697, .F. ) ;
#812 = FACE_OUTER_BOUND ( 'NONE', #521, .T. ) ;
#813 = DIRECTION ( 'NONE',  ( 0.000000000000000000, 0.000000000000000000, 1.000000000000000000 ) ) ;
#814 = CYLINDRICAL_SURFACE ( 'NONE', #837, 2.500000000000002220 ) ;
#815 = ORIENTED_EDGE ( 'NONE', *, *, #1122, .F. ) ;
#816 = CIRCLE ( 'NONE', #259, 16.00000000000000000 ) ;
#817 = CARTESIAN_POINT ( 'NONE',  ( -150.0000000000000000, 2.000000000000000000, 60.00000000000003553 ) ) ;
#818 = DIRECTION ( 'NONE',  ( -1.000000000000000000, -0.000000000000000000, -0.000000000000000000 ) ) ;
#819 = EDGE_CURVE ( 'NONE', #1219, #672, #664, .T. ) ;
#820 = EDGE_CURVE ( 'NONE', #434, #926, #1015, .T. ) ;
#821 = VERTEX_POINT ( 'NONE', #437 ) ;
#822 = VERTEX_POINT ( 'NONE', #738 ) ;
#823 = EDGE_CURVE ( 'NONE', #468, #990, #1044, .T. ) ;
#824 = AXIS2_PLACEMENT_3D ( 'NONE', #539, #37, #747 ) ;
#825 = DIRECTION ( 'NONE',  ( 0.000000000000000000, 0.000000000000000000, 1.000000000000000000 ) ) ;
#826 = AXIS2_PLACEMENT_3D ( 'NONE', #928, #839, #1237 ) ;
#827 = CARTESIAN_POINT ( 'NONE',  ( 225.5000000000001421, 2.000000000000000000, 30.00000000000001421 ) ) ;
#828 = FACE_BOUND ( 'NONE', #346, .T. ) ;
#829 = ORIENTED_EDGE ( 'NONE', *, *, #265, .T. ) ;
#830 = ORIENTED_EDGE ( 'NONE', *, *, #972, .F. ) ;
#831 = EDGE_CURVE ( 'NONE', #544, #333, #982, .T. ) ;
#832 = DIRECTION ( 'NONE',  ( 0.000000000000000000, 0.000000000000000000, 1.000000000000000000 ) ) ;
#833 = AXIS2_PLACEMENT_3D ( 'NONE', #251, #137, #825 ) ;
#834 = CARTESIAN_POINT ( 'NONE',  ( 225.5000000000001421, 2.000000000000000000, -27.50000000000006395 ) ) ;
#835 = CARTESIAN_POINT ( 'NONE',  ( 222.2781745930521708, 2.000000000000000000, 59.27817459305206427 ) ) ;
#836 = EDGE_LOOP ( 'NONE', ( #81, #394, #404, #292 ) ) ;
#837 = AXIS2_PLACEMENT_3D ( 'NONE', #937, #1011, #1204 ) ;
#838 = CARTESIAN_POINT ( 'NONE',  ( 0.000000000000000000, 2.000000000000000000, 0.000000000000000000 ) ) ;
#839 = DIRECTION ( 'NONE',  ( -0.000000000000000000, 1.000000000000000000, -0.000000000000000000 ) ) ;
#840 = AXIS2_PLACEMENT_3D ( 'NONE', #315, #624, #604 ) ;
#841 = FACE_OUTER_BOUND ( 'NONE', #318, .T. ) ;
#842 = CYLINDRICAL_SURFACE ( 'NONE', #293, 2.500000000000002220 ) ;
#843 = ORIENTED_EDGE ( 'NONE', *, *, #948, .T. ) ;
#844 = FACE_BOUND ( 'NONE', #585, .T. ) ;
#845 = DIRECTION ( 'NONE',  ( -0.000000000000000000, 1.000000000000000000, -0.000000000000000000 ) ) ;
#846 = EDGE_CURVE ( 'NONE', #332, #49, #943, .T. ) ;
#847 = ORIENTED_EDGE ( 'NONE', *, *, #1203, .T. ) ;
#848 = FACE_BOUND ( 'NONE', #1119, .T. ) ;
#849 = VECTOR ( 'NONE', #961, 1000.000000000000000 ) ;
#850 = CARTESIAN_POINT ( 'NONE',  ( -225.4999999999999147, 0.000000000000000000, 2.500000000000002220 ) ) ;
#851 = VERTEX_POINT ( 'NONE', #534 ) ;
#852 = ORIENTED_EDGE ( 'NONE', *, *, #212, .F. ) ;
#853 = DIRECTION ( 'NONE',  ( -0.000000000000000000, 1.000000000000000000, -0.000000000000000000 ) ) ;
#854 = AXIS2_PLACEMENT_3D ( 'NONE', #1271, #575, #1073 ) ;
#855 = DIRECTION ( 'NONE',  ( 0.000000000000000000, 0.000000000000000000, 1.000000000000000000 ) ) ;
#856 = ORIENTED_EDGE ( 'NONE', *, *, #417, .T. ) ;
#857 = EDGE_CURVE ( 'NONE', #900, #990, #32, .T. ) ;
#858 = CIRCLE ( 'NONE', #244, 2.500000000000002220 ) ;
#859 = CARTESIAN_POINT ( 'NONE',  ( 0.000000000000000000, 2.000000000000000000, 62.50000000000002842 ) ) ;
#860 = CARTESIAN_POINT ( 'NONE',  ( 0.000000000000000000, 0.000000000000000000, 60.00000000000002842 ) ) ;
#861 = ORIENTED_EDGE ( 'NONE', *, *, #157, .T. ) ;
#862 = LINE ( 'NONE', #485, #590 ) ;
#863 = AXIS2_PLACEMENT_3D ( 'NONE', #667, #581, #1256 ) ;
#864 = VECTOR ( 'NONE', #559, 1000.000000000000000 ) ;
#865 = CARTESIAN_POINT ( 'NONE',  ( 3.061616997868382648E-16, 2.000000000000000000, 57.50000000000002132 ) ) ;
#866 = VERTEX_POINT ( 'NONE', #834 ) ;
#867 = EDGE_CURVE ( 'NONE', #284, #360, #1281, .T. ) ;
#868 = SURFACE_SIDE_STYLE ('',( #482 ) ) ;
#869 = DIRECTION ( 'NONE',  ( -0.000000000000000000, 1.000000000000000000, -0.000000000000000000 ) ) ;
#870 = CARTESIAN_POINT ( 'NONE',  ( 225.5000000000001421, 2.000000000000000000, -32.50000000000007105 ) ) ;
#871 = CIRCLE ( 'NONE', #272, 2.499999999999995115 ) ;
#872 = DIRECTION ( 'NONE',  ( -0.000000000000000000, 1.000000000000000000, -0.000000000000000000 ) ) ;
#873 = ORIENTED_EDGE ( 'NONE', *, *, #1024, .T. ) ;
#874 = VERTEX_POINT ( 'NONE', #344 ) ;
#875 = AXIS2_PLACEMENT_3D ( 'NONE', #703, #992, #91 ) ;
#876 = EDGE_CURVE ( 'NONE', #621, #119, #743, .T. ) ;
#877 = DIRECTION ( 'NONE',  ( -0.000000000000000000, 1.000000000000000000, -0.000000000000000000 ) ) ;
#878 = AXIS2_PLACEMENT_3D ( 'NONE', #1258, #403, #203 ) ;
#879 = LINE ( 'NONE', #778, #151 ) ;
#880 = AXIS2_PLACEMENT_3D ( 'NONE', #619, #111, #233 ) ;
#881 = ORIENTED_EDGE ( 'NONE', *, *, #453, .F. ) ;
#882 = CARTESIAN_POINT ( 'NONE',  ( 225.5000000000001421, 0.000000000000000000, -30.00000000000006395 ) ) ;
#883 = DIRECTION ( 'NONE',  ( -0.000000000000000000, 1.000000000000000000, -0.000000000000000000 ) ) ;
#884 = ADVANCED_FACE ( 'NONE', ( #935 ), #138, .F. ) ;
#885 = CARTESIAN_POINT ( 'NONE',  ( -222.2781745930519719, 0.000000000000000000, -59.27817459305199321 ) ) ;
#886 = VECTOR ( 'NONE', #991, 1000.000000000000000 ) ;
#887 = AXIS2_PLACEMENT_3D ( 'NONE', #638, #1224, #148 ) ;
#888 = ORIENTED_EDGE ( 'NONE', *, *, #504, .F. ) ;
#889 = DIRECTION ( 'NONE',  ( -0.000000000000000000, 1.000000000000000000, -0.000000000000000000 ) ) ;
#890 = CARTESIAN_POINT ( 'NONE',  ( 150.0000000000000000, 0.000000000000000000, -62.50000000000005684 ) ) ;
#891 = CARTESIAN_POINT ( 'NONE',  ( 222.2781745930521140, 2.000000000000000000, -56.77817459305200742 ) ) ;
#892 = CIRCLE ( 'NONE', #115, 2.500000000000009326 ) ;
#893 = DIRECTION ( 'NONE',  ( 0.000000000000000000, 0.000000000000000000, 1.000000000000000000 ) ) ;
#894 = VERTEX_POINT ( 'NONE', #455 ) ;
#895 = DIRECTION ( 'NONE',  ( 0.000000000000000000, 0.000000000000000000, 1.000000000000000000 ) ) ;
#896 = PRODUCT ( 'Electronics enclosure', 'Electronics enclosure', '', ( #257 ) ) ;
#897 = CARTESIAN_POINT ( 'NONE',  ( 3.061616997868382648E-16, 2.000000000000000000, -62.50000000000001421 ) ) ;
#898 = CIRCLE ( 'NONE', #932, 2.500000000000002220 ) ;
#899 = ADVANCED_FACE ( 'NONE', ( #1233 ), #351, .F. ) ;
#900 = VERTEX_POINT ( 'NONE', #1276 ) ;
#901 = VECTOR ( 'NONE', #1202, 1000.000000000000000 ) ;
#902 = EDGE_CURVE ( 'NONE', #49, #332, #1192, .T. ) ;
#903 = DIRECTION ( 'NONE',  ( -0.000000000000000000, 1.000000000000000000, -0.000000000000000000 ) ) ;
#904 = CARTESIAN_POINT ( 'NONE',  ( 230.5000000000000853, 0.000000000000000000, -48.99999999999997868 ) ) ;
#905 = ORIENTED_EDGE ( 'NONE', *, *, #867, .T. ) ;
#906 = ORIENTED_EDGE ( 'NONE', *, *, #266, .T. ) ;
#907 = LINE ( 'NONE', #97, #886 ) ;
#908 = DIRECTION ( 'NONE',  ( 0.000000000000000000, 1.000000000000000000, 0.000000000000000000 ) ) ;
#909 = ORIENTED_EDGE ( 'NONE', *, *, #427, .F. ) ;
#910 = ORIENTED_EDGE ( 'NONE', *, *, #305, .F. ) ;
#911 = FACE_OUTER_BOUND ( 'NONE', #1058, .T. ) ;
#912 = FACE_OUTER_BOUND ( 'NONE', #175, .T. ) ;
#913 = EDGE_CURVE ( 'NONE', #1001, #874, #639, .T. ) ;
#914 = DIRECTION ( 'NONE',  ( 0.000000000000000000, 1.000000000000000000, 0.000000000000000000 ) ) ;
#915 = ORIENTED_EDGE ( 'NONE', *, *, #1282, .F. ) ;
#916 = CIRCLE ( 'NONE', #878, 16.00000000000000000 ) ;
#917 = LINE ( 'NONE', #334, #1027 ) ;
#918 = FACE_OUTER_BOUND ( 'NONE', #579, .T. ) ;
#919 = DIRECTION ( 'NONE',  ( -0.000000000000000000, 1.000000000000000000, -0.000000000000000000 ) ) ;
#920 = VERTEX_POINT ( 'NONE', #495 ) ;
#921 = ORIENTED_EDGE ( 'NONE', *, *, #157, .F. ) ;
#922 = DIRECTION ( 'NONE',  ( -0.000000000000000000, 1.000000000000000000, -0.000000000000000000 ) ) ;
#923 = AXIS2_PLACEMENT_3D ( 'NONE', #681, #169, #278 ) ;
#924 = DIRECTION ( 'NONE',  ( 0.000000000000000000, 0.000000000000000000, 1.000000000000000000 ) ) ;
#925 = EDGE_LOOP ( 'NONE', ( #1235, #852 ) ) ;
#926 = VERTEX_POINT ( 'NONE', #1064 ) ;
#927 = DIRECTION ( 'NONE',  ( -0.000000000000000000, 1.000000000000000000, -0.000000000000000000 ) ) ;
#928 = CARTESIAN_POINT ( 'NONE',  ( 222.2781745930521140, 0.000000000000000000, -56.77817459305200742 ) ) ;
#929 = FACE_BOUND ( 'NONE', #635, .T. ) ;
#930 = VERTEX_POINT ( 'NONE', #952 ) ;
#931 = ORIENTED_EDGE ( 'NONE', *, *, #846, .T. ) ;
#932 = AXIS2_PLACEMENT_3D ( 'NONE', #686, #195, #783 ) ;
#933 = FACE_OUTER_BOUND ( 'NONE', #626, .T. ) ;
#934 = EDGE_CURVE ( 'NONE', #300, #1213, #133, .T. ) ;
#935 = FACE_OUTER_BOUND ( 'NONE', #80, .T. ) ;
#936 = CIRCLE ( 'NONE', #551, 2.500000000000002220 ) ;
#937 = CARTESIAN_POINT ( 'NONE',  ( 225.5000000000001421, 2.000000000000000000, 30.00000000000001421 ) ) ;
#938 = EDGE_LOOP ( 'NONE', ( #107, #134 ) ) ;
#939 = CARTESIAN_POINT ( 'NONE',  ( 0.000000000000000000, 2.000000000000000000, -60.00000000000002132 ) ) ;
#940 = DIRECTION ( 'NONE',  ( -4.270088556250601699E-16, -0.000000000000000000, -1.000000000000000000 ) ) ;
#941 = AXIS2_PLACEMENT_3D ( 'NONE', #790, #965, #1076 ) ;
#942 = CARTESIAN_POINT ( 'NONE',  ( -222.2781745930519719, 2.000000000000000000, -59.27817459305199321 ) ) ;
#943 = CIRCLE ( 'NONE', #401, 2.500000000000002220 ) ;
#944 = CYLINDRICAL_SURFACE ( 'NONE', #500, 16.00000000000000000 ) ;
#945 = VERTEX_POINT ( 'NONE', #761 ) ;
#946 = CARTESIAN_POINT ( 'NONE',  ( -230.4999999999999147, 2.000000000000000000, -48.99999999999997158 ) ) ;
#947 = DIRECTION ( 'NONE',  ( -0.000000000000000000, 1.000000000000000000, -0.000000000000000000 ) ) ;
#948 = EDGE_CURVE ( 'NONE', #248, #691, #1072, .T. ) ;
#949 = ADVANCED_FACE ( 'NONE', ( #1168 ), #566, .F. ) ;
#950 = ORIENTED_EDGE ( 'NONE', *, *, #1223, .T. ) ;
#951 = EDGE_LOOP ( 'NONE', ( #983, #847 ) ) ;
#952 = CARTESIAN_POINT ( 'NONE',  ( 222.2781745930521708, 2.000000000000000000, 54.27817459305205716 ) ) ;
#953 = ORIENTED_EDGE ( 'NONE', *, *, #264, .F. ) ;
#954 = CYLINDRICAL_SURFACE ( 'NONE', #1268, 2.500000000000002220 ) ;
#955 = CARTESIAN_POINT ( 'NONE',  ( -150.0000000000000000, 2.000000000000000000, 62.50000000000002842 ) ) ;
#956 = EDGE_LOOP ( 'NONE', ( #281, #270 ) ) ;
#957 = VECTOR ( 'NONE', #298, 1000.000000000000000 ) ;
#958 = VERTEX_POINT ( 'NONE', #1175 ) ;
#959 = DIRECTION ( 'NONE',  ( -0.000000000000000000, 1.000000000000000000, -0.000000000000000000 ) ) ;
#960 = ORIENTED_EDGE ( 'NONE', *, *, #353, .F. ) ;
#961 = DIRECTION ( 'NONE',  ( -0.000000000000000000, 1.000000000000000000, -0.000000000000000000 ) ) ;
#962 = AXIS2_PLACEMENT_3D ( 'NONE', #727, #306, #708 ) ;
#963 = ORIENTED_EDGE ( 'NONE', *, *, #767, .F. ) ;
#964 = EDGE_LOOP ( 'NONE', ( #430, #724, #3, #773, #1088, #1046, #748, #1013 ) ) ;
#965 = DIRECTION ( 'NONE',  ( -0.000000000000000000, 1.000000000000000000, -0.000000000000000000 ) ) ;
#966 = VERTEX_POINT ( 'NONE', #474 ) ;
#967 = DIRECTION ( 'NONE',  ( -0.000000000000000000, 1.000000000000000000, -0.000000000000000000 ) ) ;
#968 = CARTESIAN_POINT ( 'NONE',  ( -230.4999999999999147, 2.000000000000000000, -48.99999999999997158 ) ) ;
#969 = CARTESIAN_POINT ( 'NONE',  ( -150.0000000000000000, 2.000000000000000000, -59.99999999999999289 ) ) ;
#970 = DIRECTION ( 'NONE',  ( 0.000000000000000000, 0.000000000000000000, 1.000000000000000000 ) ) ;
#971 = ORIENTED_EDGE ( 'NONE', *, *, #846, .F. ) ;
#972 = EDGE_CURVE ( 'NONE', #894, #821, #288, .T. ) ;
#973 = CARTESIAN_POINT ( 'NONE',  ( 225.5000000000001421, 2.000000000000000000, 32.50000000000001421 ) ) ;
#974 = DIRECTION ( 'NONE',  ( -0.000000000000000000, 1.000000000000000000, -0.000000000000000000 ) ) ;
#975 = CIRCLE ( 'NONE', #82, 2.500000000000002220 ) ;
#976 = EDGE_LOOP ( 'NONE', ( #815, #33, #873, #64 ) ) ;
#977 = ORIENTED_EDGE ( 'NONE', *, *, #22, .T. ) ;
#978 = CYLINDRICAL_SURFACE ( 'NONE', #875, 2.500000000000002220 ) ;
#979 = DIRECTION ( 'NONE',  ( 0.000000000000000000, -1.000000000000000000, 0.000000000000000000 ) ) ;
#980 = AXIS2_PLACEMENT_3D ( 'NONE', #561, #377, #469 ) ;
#981 = AXIS2_PLACEMENT_3D ( 'NONE', #716, #95, #893 ) ;
#982 = CIRCLE ( 'NONE', #226, 2.500000000000002220 ) ;
#983 = ORIENTED_EDGE ( 'NONE', *, *, #592, .T. ) ;
#984 = APPLICATION_CONTEXT ( 'automotive_design' ) ;
#985 = DIRECTION ( 'NONE',  ( 4.270088556250601699E-16, 0.000000000000000000, 1.000000000000000000 ) ) ;
#986 = CARTESIAN_POINT ( 'NONE',  ( 222.2781745930521708, 2.000000000000000000, 56.77817459305205716 ) ) ;
#987 = ADVANCED_FACE ( 'NONE', ( #174 ), #698, .F. ) ;
#988 = VECTOR ( 'NONE', #1009, 1000.000000000000000 ) ;
#989 = EDGE_LOOP ( 'NONE', ( #675, #1063, #14, #19 ) ) ;
#990 = VERTEX_POINT ( 'NONE', #973 ) ;
#991 = DIRECTION ( 'NONE',  ( 0.000000000000000000, 0.000000000000000000, 1.000000000000000000 ) ) ;
#992 = DIRECTION ( 'NONE',  ( -0.000000000000000000, 1.000000000000000000, -0.000000000000000000 ) ) ;
#993 = DIRECTION ( 'NONE',  ( 0.000000000000000000, 0.000000000000000000, 1.000000000000000000 ) ) ;
#994 = AXIS2_PLACEMENT_3D ( 'NONE', #149, #23, #17 ) ;
#995 = LINE ( 'NONE', #5, #663 ) ;
#996 = EDGE_CURVE ( 'NONE', #450, #380, #1249, .T. ) ;
#997 = ORIENTED_EDGE ( 'NONE', *, *, #376, .T. ) ;
#998 = AXIS2_PLACEMENT_3D ( 'NONE', #4, #714, #221 ) ;
#999 = DIRECTION ( 'NONE',  ( -0.000000000000000000, 1.000000000000000000, -0.000000000000000000 ) ) ;
#1000 = DIRECTION ( 'NONE',  ( 0.000000000000000000, 0.000000000000000000, 1.000000000000000000 ) ) ;
#1001 = VERTEX_POINT ( 'NONE', #1146 ) ;
#1002 = AXIS2_PLACEMENT_3D ( 'NONE', #1057, #1160, #183 ) ;
#1003 = CARTESIAN_POINT ( 'NONE',  ( -222.2781745930519719, 2.000000000000000000, -56.77817459305199321 ) ) ;
#1004 = EDGE_CURVE ( 'NONE', #851, #378, #1254, .T. ) ;
#1005 = CARTESIAN_POINT ( 'NONE',  ( -214.4999999999999147, 2.000000000000000000, 49.00000000000002842 ) ) ;
#1006 = DIRECTION ( 'NONE',  ( -0.000000000000000000, 1.000000000000000000, -0.000000000000000000 ) ) ;
#1007 = CIRCLE ( 'NONE', #465, 2.500000000000002220 ) ;
#1008 = ORIENTED_EDGE ( 'NONE', *, *, #84, .F. ) ;
#1009 = DIRECTION ( 'NONE',  ( -0.000000000000000000, 1.000000000000000000, -0.000000000000000000 ) ) ;
#1010 = CARTESIAN_POINT ( 'NONE',  ( 150.0000000000000000, 2.000000000000000000, 62.50000000000002842 ) ) ;
#1011 = DIRECTION ( 'NONE',  ( -0.000000000000000000, 1.000000000000000000, -0.000000000000000000 ) ) ;
#1012 = ORIENTED_EDGE ( 'NONE', *, *, #471, .T. ) ;
#1013 = ORIENTED_EDGE ( 'NONE', *, *, #640, .T. ) ;
#1014 = CARTESIAN_POINT ( 'NONE',  ( 222.2781745930521140, 2.000000000000000000, -54.27817459305200032 ) ) ;
#1015 = LINE ( 'NONE', #942, #94 ) ;
#1016 = VECTOR ( 'NONE', #1092, 1000.000000000000000 ) ;
#1017 = ORIENTED_EDGE ( 'NONE', *, *, #820, .T. ) ;
#1018 = CIRCLE ( 'NONE', #50, 2.500000000000002220 ) ;
#1019 = DIRECTION ( 'NONE',  ( 0.000000000000000000, 0.000000000000000000, 1.000000000000000000 ) ) ;
#1020 = DIRECTION ( 'NONE',  ( 1.000000000000000000, 0.000000000000000000, 0.000000000000000000 ) ) ;
#1021 = FACE_BOUND ( 'NONE', #938, .T. ) ;
#1022 = SHAPE_DEFINITION_REPRESENTATION ( #143, #572 ) ;
#1023 = ORIENTED_EDGE ( 'NONE', *, *, #353, .T. ) ;
#1024 = EDGE_CURVE ( 'NONE', #1055, #958, #806, .T. ) ;
#1025 = EDGE_LOOP ( 'NONE', ( #692, #311, #705, #910 ) ) ;
#1026 = CARTESIAN_POINT ( 'NONE',  ( -222.2781745930519435, 2.000000000000000000, 56.77817459305205716 ) ) ;
#1027 = VECTOR ( 'NONE', #927, 1000.000000000000000 ) ;
#1028 = DIRECTION ( 'NONE',  ( 0.000000000000000000, 0.000000000000000000, 1.000000000000000000 ) ) ;
#1029 = CYLINDRICAL_SURFACE ( 'NONE', #994, 2.500000000000002220 ) ;
#1030 = ORIENTED_EDGE ( 'NONE', *, *, #673, .F. ) ;
#1031 = ORIENTED_EDGE ( 'NONE', *, *, #367, .F. ) ;
#1032 = LINE ( 'NONE', #147, #988 ) ;
#1033 = AXIS2_PLACEMENT_3D ( 'NONE', #185, #1171, #290 ) ;
#1034 = DIRECTION ( 'NONE',  ( 0.000000000000000000, 0.000000000000000000, 1.000000000000000000 ) ) ;
#1035 = CARTESIAN_POINT ( 'NONE',  ( 222.2781745930521140, 2.000000000000000000, -59.27817459305200742 ) ) ;
#1036 = DIRECTION ( 'NONE',  ( -0.000000000000000000, 1.000000000000000000, -0.000000000000000000 ) ) ;
#1037 = ORIENTED_EDGE ( 'NONE', *, *, #1282, .T. ) ;
#1038 = EDGE_CURVE ( 'NONE', #930, #179, #706, .T. ) ;
#1039 = CARTESIAN_POINT ( 'NONE',  ( 222.2781745930521140, 2.000000000000000000, -54.27817459305200032 ) ) ;
#1040 = VECTOR ( 'NONE', #959, 1000.000000000000000 ) ;
#1041 = VECTOR ( 'NONE', #1274, 1000.000000000000000 ) ;
#1042 = ADVANCED_FACE ( 'NONE', ( #1049 ), #769, .T. ) ;
#1043 = DIRECTION ( 'NONE',  ( -0.000000000000000000, -1.000000000000000000, -0.000000000000000000 ) ) ;
#1044 = CIRCLE ( 'NONE', #764, 2.500000000000002220 ) ;
#1045 = CARTESIAN_POINT ( 'NONE',  ( 150.0000000000000000, 2.000000000000000000, -60.00000000000004974 ) ) ;
#1046 = ORIENTED_EDGE ( 'NONE', *, *, #505, .T. ) ;
#1047 = ORIENTED_EDGE ( 'NONE', *, *, #1262, .T. ) ;
#1048 = AXIS2_PLACEMENT_3D ( 'NONE', #199, #103, #475 ) ;
#1049 = FACE_OUTER_BOUND ( 'NONE', #776, .T. ) ;
#1050 = EDGE_CURVE ( 'NONE', #472, #75, #283, .T. ) ;
#1051 = ORIENTED_EDGE ( 'NONE', *, *, #1090, .T. ) ;
#1052 = MANIFOLD_SOLID_BREP ( '\X2\00d8\X0\5.0 (5) Diameter Hole1', #1086 ) ;
#1053 = LINE ( 'NONE', #285, #1205 ) ;
#1054 = VECTOR ( 'NONE', #967, 1000.000000000000000 ) ;
#1055 = VERTEX_POINT ( 'NONE', #425 ) ;
#1056 = VECTOR ( 'NONE', #383, 1000.000000000000000 ) ;
#1057 = CARTESIAN_POINT ( 'NONE',  ( 214.5000000000001421, 2.000000000000000000, 49.00000000000002842 ) ) ;
#1058 = EDGE_LOOP ( 'NONE', ( #843, #997, #518, #589 ) ) ;
#1059 = FACE_OUTER_BOUND ( 'NONE', #795, .T. ) ;
#1060 = CARTESIAN_POINT ( 'NONE',  ( -214.4999999999999147, 0.000000000000000000, -64.99999999999997158 ) ) ;
#1061 = CARTESIAN_POINT ( 'NONE',  ( 222.2781745930521708, 0.000000000000000000, 54.27817459305205716 ) ) ;
#1062 = CIRCLE ( 'NONE', #600, 2.500000000000002220 ) ;
#1063 = ORIENTED_EDGE ( 'NONE', *, *, #1179, .F. ) ;
#1064 = CARTESIAN_POINT ( 'NONE',  ( -222.2781745930519719, 2.000000000000000000, -59.27817459305199321 ) ) ;
#1065 = ORIENTED_EDGE ( 'NONE', *, *, #580, .F. ) ;
#1066 = CARTESIAN_POINT ( 'NONE',  ( 230.5000000000001421, 0.000000000000000000, 49.00000000000001421 ) ) ;
#1067 = DIRECTION ( 'NONE',  ( 0.000000000000000000, 0.000000000000000000, 1.000000000000000000 ) ) ;
#1068 = EDGE_LOOP ( 'NONE', ( #517, #493, #953, #921 ) ) ;
#1069 = EDGE_CURVE ( 'NONE', #1153, #920, #573, .T. ) ;
#1070 = ORIENTED_EDGE ( 'NONE', *, *, #768, .F. ) ;
#1071 = EDGE_CURVE ( 'NONE', #547, #145, #25, .T. ) ;
#1072 = LINE ( 'NONE', #392, #726 ) ;
#1073 = DIRECTION ( 'NONE',  ( 0.000000000000000000, 0.000000000000000000, 1.000000000000000000 ) ) ;
#1074 = FACE_OUTER_BOUND ( 'NONE', #836, .T. ) ;
#1075 = EDGE_LOOP ( 'NONE', ( #782, #101, #1240, #753 ) ) ;
#1076 = DIRECTION ( 'NONE',  ( 0.000000000000000000, 0.000000000000000000, 1.000000000000000000 ) ) ;
#1077 = DIRECTION ( 'NONE',  ( -0.000000000000000000, 1.000000000000000000, -0.000000000000000000 ) ) ;
#1078 = CIRCLE ( 'NONE', #854, 2.500000000000002220 ) ;
#1079 = ORIENTED_EDGE ( 'NONE', *, *, #934, .F. ) ;
#1080 = ORIENTED_EDGE ( 'NONE', *, *, #577, .F. ) ;
#1081 = DIRECTION ( 'NONE',  ( -0.000000000000000000, 1.000000000000000000, -0.000000000000000000 ) ) ;
#1082 = EDGE_CURVE ( 'NONE', #472, #88, #1018, .T. ) ;
#1083 = DIRECTION ( 'NONE',  ( -0.000000000000000000, -1.000000000000000000, -0.000000000000000000 ) ) ;
#1084 = FACE_OUTER_BOUND ( 'NONE', #711, .T. ) ;
#1085 = VECTOR ( 'NONE', #693, 1000.000000000000000 ) ;
#1086 = CLOSED_SHELL ( 'NONE', ( #275, #510, #949, #173, #1231, #570, #46, #652, #352, #884, #751, #194, #200, #1154, #215, #208, #717, #1239, #186, #678, #1284, #1042, #70, #1165, #109, #229, #1244, #554, #1261, #794, #987, #411, #231, #1189, #1139, #899 ) ) ;
#1087 = ORIENTED_EDGE ( 'NONE', *, *, #733, .T. ) ;
#1088 = ORIENTED_EDGE ( 'NONE', *, *, #68, .T. ) ;
#1089 = CARTESIAN_POINT ( 'NONE',  ( 3.061616997868378704E-16, 2.000000000000000000, 57.50000000000002132 ) ) ;
#1090 = EDGE_CURVE ( 'NONE', #1213, #300, #479, .T. ) ;
#1091 = DIRECTION ( 'NONE',  ( -0.000000000000000000, 1.000000000000000000, -0.000000000000000000 ) ) ;
#1092 = DIRECTION ( 'NONE',  ( 0.000000000000000000, -1.000000000000000000, 0.000000000000000000 ) ) ;
#1093 = AXIS2_PLACEMENT_3D ( 'NONE', #519, #15, #1209 ) ;
#1094 = EDGE_LOOP ( 'NONE', ( #759, #127, #324, #582 ) ) ;
#1095 = EDGE_LOOP ( 'NONE', ( #490, #1194, #718, #1126 ) ) ;
#1096 = CARTESIAN_POINT ( 'NONE',  ( -222.2781745930519719, 0.000000000000000000, -56.77817459305199321 ) ) ;
#1097 = DIRECTION ( 'NONE',  ( -0.000000000000000000, 1.000000000000000000, -0.000000000000000000 ) ) ;
#1098 = DIRECTION ( 'NONE',  ( 0.000000000000000000, 0.000000000000000000, 1.000000000000000000 ) ) ;
#1099 = CARTESIAN_POINT ( 'NONE',  ( 230.5000000000000853, 2.000000000000000000, -48.99999999999997868 ) ) ;
#1100 = EDGE_LOOP ( 'NONE', ( #963, #1008 ) ) ;
#1101 = EDGE_CURVE ( 'NONE', #821, #926, #225, .T. ) ;
#1102 = AXIS2_PLACEMENT_3D ( 'NONE', #986, #1243, #1034 ) ;
#1103 = DIRECTION ( 'NONE',  ( 0.000000000000000000, 0.000000000000000000, 1.000000000000000000 ) ) ;
#1104 = DIRECTION ( 'NONE',  ( 0.000000000000000000, 0.000000000000000000, 1.000000000000000000 ) ) ;
#1105 = LINE ( 'NONE', #1099, #1241 ) ;
#1106 = CARTESIAN_POINT ( 'NONE',  ( 225.5000000000001421, 2.000000000000000000, -30.00000000000006395 ) ) ;
#1107 = VERTEX_POINT ( 'NONE', #1089 ) ;
#1108 = AXIS2_PLACEMENT_3D ( 'NONE', #1003, #431, #613 ) ;
#1109 = ORIENTED_EDGE ( 'NONE', *, *, #592, .F. ) ;
#1110 = CIRCLE ( 'NONE', #165, 16.00000000000000000 ) ;
#1111 = CARTESIAN_POINT ( 'NONE',  ( -214.4999999999999147, 2.000000000000000000, -64.99999999999997158 ) ) ;
#1112 = DIRECTION ( 'NONE',  ( 0.000000000000000000, -1.000000000000000000, 0.000000000000000000 ) ) ;
#1113 = PLANE ( 'NONE',  #389 ) ;
#1114 = AXIS2_PLACEMENT_3D ( 'NONE', #160, #247, #1143 ) ;
#1115 = ORIENTED_EDGE ( 'NONE', *, *, #537, .T. ) ;
#1116 = DIRECTION ( 'NONE',  ( 0.000000000000000000, 0.000000000000000000, 1.000000000000000000 ) ) ;
#1117 = CARTESIAN_POINT ( 'NONE',  ( 0.000000000000000000, 0.000000000000000000, -60.00000000000002132 ) ) ;
#1118 = LINE ( 'NONE', #1035, #734 ) ;
#1119 = EDGE_LOOP ( 'NONE', ( #1161, #1120 ) ) ;
#1120 = ORIENTED_EDGE ( 'NONE', *, *, #680, .F. ) ;
#1121 = DIRECTION ( 'NONE',  ( 0.000000000000000000, 0.000000000000000000, 1.000000000000000000 ) ) ;
#1122 = EDGE_CURVE ( 'NONE', #333, #544, #557, .T. ) ;
#1123 = CARTESIAN_POINT ( 'NONE',  ( -230.4999999999999147, 0.000000000000000000, 65.00000000000002842 ) ) ;
#1124 = EDGE_CURVE ( 'NONE', #434, #894, #419, .T. ) ;
#1125 =( NAMED_UNIT ( * ) SI_UNIT ( $, .STERADIAN. ) SOLID_ANGLE_UNIT ( ) );
#1126 = ORIENTED_EDGE ( 'NONE', *, *, #857, .F. ) ;
#1127 = ORIENTED_EDGE ( 'NONE', *, *, #1069, .F. ) ;
#1128 = AXIS2_PLACEMENT_3D ( 'NONE', #1096, #999, #608 ) ;
#1129 = FACE_OUTER_BOUND ( 'NONE', #1075, .T. ) ;
#1130 = CARTESIAN_POINT ( 'NONE',  ( -222.2781745930519719, 2.000000000000000000, -56.77817459305199321 ) ) ;
#1131 = EDGE_CURVE ( 'NONE', #380, #381, #907, .T. ) ;
#1132 = CARTESIAN_POINT ( 'NONE',  ( -214.4999999999999147, 2.000000000000000000, 65.00000000000002842 ) ) ;
#1133 = ORIENTED_EDGE ( 'NONE', *, *, #178, .T. ) ;
#1134 = VERTEX_POINT ( 'NONE', #513 ) ;
#1135 = FACE_BOUND ( 'NONE', #956, .T. ) ;
#1136 = CARTESIAN_POINT ( 'NONE',  ( -214.4999999999999147, 0.000000000000000000, -48.99999999999997158 ) ) ;
#1137 = CARTESIAN_POINT ( 'NONE',  ( -222.2781745930519719, 2.000000000000000000, -56.77817459305199321 ) ) ;
#1138 = ORIENTED_EDGE ( 'NONE', *, *, #537, .F. ) ;
#1139 = ADVANCED_FACE ( 'NONE', ( #8 ), #720, .F. ) ;
#1140 = DIRECTION ( 'NONE',  ( -0.000000000000000000, 1.000000000000000000, -0.000000000000000000 ) ) ;
#1141 = CIRCLE ( 'NONE', #126, 2.499999999999995115 ) ;
#1142 = DIRECTION ( 'NONE',  ( 0.000000000000000000, 0.000000000000000000, 1.000000000000000000 ) ) ;
#1143 = DIRECTION ( 'NONE',  ( 0.000000000000000000, 0.000000000000000000, 1.000000000000000000 ) ) ;
#1144 = FACE_OUTER_BOUND ( 'NONE', #2, .T. ) ;
#1145 =( GEOMETRIC_REPRESENTATION_CONTEXT ( 3 ) GLOBAL_UNCERTAINTY_ASSIGNED_CONTEXT ( ( #754 ) ) GLOBAL_UNIT_ASSIGNED_CONTEXT ( ( #1190, #507, #502 ) ) REPRESENTATION_CONTEXT ( 'NONE', 'WORKASPACE' ) );
#1146 = CARTESIAN_POINT ( 'NONE',  ( 225.5000000000001421, 0.000000000000000000, -32.50000000000007105 ) ) ;
#1147 = AXIS2_PLACEMENT_3D ( 'NONE', #256, #654, #659 ) ;
#1148 = DIRECTION ( 'NONE',  ( -0.000000000000000000, 1.000000000000000000, -0.000000000000000000 ) ) ;
#1149 = ORIENTED_EDGE ( 'NONE', *, *, #1278, .F. ) ;
#1150 = ORIENTED_EDGE ( 'NONE', *, *, #996, .T. ) ;
#1151 = DIRECTION ( 'NONE',  ( -0.000000000000000000, 1.000000000000000000, -0.000000000000000000 ) ) ;
#1152 = DIRECTION ( 'NONE',  ( 0.000000000000000000, 0.000000000000000000, 1.000000000000000000 ) ) ;
#1153 = VERTEX_POINT ( 'NONE', #418 ) ;
#1154 = ADVANCED_FACE ( 'NONE', ( #911 ), #1195, .F. ) ;
#1155 = CARTESIAN_POINT ( 'NONE',  ( 0.000000000000000000, 2.000000000000000000, -57.50000000000001421 ) ) ;
#1156 = DIRECTION ( 'NONE',  ( -0.000000000000000000, 1.000000000000000000, -0.000000000000000000 ) ) ;
#1157 = DIRECTION ( 'NONE',  ( 0.000000000000000000, 0.000000000000000000, 1.000000000000000000 ) ) ;
#1158 = VERTEX_POINT ( 'NONE', #1201 ) ;
#1159 = CIRCLE ( 'NONE', #342, 16.00000000000000000 ) ;
#1160 = DIRECTION ( 'NONE',  ( 0.000000000000000000, -1.000000000000000000, 0.000000000000000000 ) ) ;
#1161 = ORIENTED_EDGE ( 'NONE', *, *, #1071, .F. ) ;
#1162 = DIRECTION ( 'NONE',  ( -0.000000000000000000, 1.000000000000000000, -0.000000000000000000 ) ) ;
#1163 = CIRCLE ( 'NONE', #781, 16.00000000000000000 ) ;
#1164 = DIRECTION ( 'NONE',  ( -0.000000000000000000, 1.000000000000000000, -0.000000000000000000 ) ) ;
#1165 = ADVANCED_FACE ( 'NONE', ( #812 ), #1183, .F. ) ;
#1166 = ORIENTED_EDGE ( 'NONE', *, *, #737, .F. ) ;
#1167 = ORIENTED_EDGE ( 'NONE', *, *, #1050, .T. ) ;
#1168 = FACE_OUTER_BOUND ( 'NONE', #198, .T. ) ;
#1169 = CARTESIAN_POINT ( 'NONE',  ( 222.2781745930521140, 0.000000000000000000, -54.27817459305200032 ) ) ;
#1170 = PRESENTATION_LAYER_ASSIGNMENT (  '', '', ( #662 ) ) ;
#1171 = DIRECTION ( 'NONE',  ( -0.000000000000000000, 1.000000000000000000, -0.000000000000000000 ) ) ;
#1172 = CARTESIAN_POINT ( 'NONE',  ( 150.0000000000000000, 2.000000000000000000, -57.50000000000004263 ) ) ;
#1173 = VERTEX_POINT ( 'NONE', #220 ) ;
#1174 = CARTESIAN_POINT ( 'NONE',  ( -230.4999999999999147, 2.000000000000000000, 49.00000000000002842 ) ) ;
#1175 = CARTESIAN_POINT ( 'NONE',  ( 0.000000000000000000, 2.000000000000000000, -57.50000000000002132 ) ) ;
#1176 = CIRCLE ( 'NONE', #622, 2.500000000000002220 ) ;
#1177 = DIRECTION ( 'NONE',  ( 0.000000000000000000, 0.000000000000000000, 1.000000000000000000 ) ) ;
#1178 = CARTESIAN_POINT ( 'NONE',  ( -150.0000000000000000, 2.000000000000000000, 57.50000000000002842 ) ) ;
#1179 = EDGE_CURVE ( 'NONE', #360, #284, #144, .T. ) ;
#1180 = ORIENTED_EDGE ( 'NONE', *, *, #84, .T. ) ;
#1181 = EDGE_CURVE ( 'NONE', #586, #822, #871, .T. ) ;
#1182 = EDGE_CURVE ( 'NONE', #1213, #1158, #702, .T. ) ;
#1183 = CYLINDRICAL_SURFACE ( 'NONE', #713, 2.500000000000002220 ) ;
#1184 = FACE_OUTER_BOUND ( 'NONE', #643, .T. ) ;
#1185 = LINE ( 'NONE', #610, #957 ) ;
#1186 = ORIENTED_EDGE ( 'NONE', *, *, #1004, .T. ) ;
#1187 = AXIS2_PLACEMENT_3D ( 'NONE', #422, #793, #1199 ) ;
#1188 = ORIENTED_EDGE ( 'NONE', *, *, #737, .T. ) ;
#1189 = ADVANCED_FACE ( 'NONE', ( #1236 ), #553, .F. ) ;
#1190 =( LENGTH_UNIT ( ) NAMED_UNIT ( * ) SI_UNIT ( .MILLI., .METRE. ) );
#1191 = FACE_OUTER_BOUND ( 'NONE', #235, .T. ) ;
#1192 = CIRCLE ( 'NONE', #941, 2.500000000000002220 ) ;
#1193 = EDGE_LOOP ( 'NONE', ( #193, #470, #560, #1227 ) ) ;
#1194 = ORIENTED_EDGE ( 'NONE', *, *, #618, .T. ) ;
#1195 = PLANE ( 'NONE',  #205 ) ;
#1196 = LINE ( 'NONE', #1279, #512 ) ;
#1197 = CARTESIAN_POINT ( 'NONE',  ( -225.4999999999999147, 2.000000000000000000, 2.500000000000002220 ) ) ;
#1198 = EDGE_CURVE ( 'NONE', #822, #145, #1032, .T. ) ;
#1199 = DIRECTION ( 'NONE',  ( 0.000000000000000000, 0.000000000000000000, 1.000000000000000000 ) ) ;
#1200 = VERTEX_POINT ( 'NONE', #1111 ) ;
#1201 = CARTESIAN_POINT ( 'NONE',  ( -222.2781745930519435, 2.000000000000000000, 59.27817459305206427 ) ) ;
#1202 = DIRECTION ( 'NONE',  ( -0.000000000000000000, 1.000000000000000000, -0.000000000000000000 ) ) ;
#1203 = EDGE_CURVE ( 'NONE', #945, #900, #771, .T. ) ;
#1204 = DIRECTION ( 'NONE',  ( 0.000000000000000000, 0.000000000000000000, 1.000000000000000000 ) ) ;
#1205 = VECTOR ( 'NONE', #584, 1000.000000000000000 ) ;
#1206 = EDGE_CURVE ( 'NONE', #1134, #966, #646, .T. ) ;
#1207 = ORIENTED_EDGE ( 'NONE', *, *, #238, .T. ) ;
#1208 = ORIENTED_EDGE ( 'NONE', *, *, #913, .T. ) ;
#1209 = DIRECTION ( 'NONE',  ( 0.000000000000000000, 0.000000000000000000, 1.000000000000000000 ) ) ;
#1210 = CARTESIAN_POINT ( 'NONE',  ( -214.4999999999999147, 2.000000000000000000, -48.99999999999997158 ) ) ;
#1211 = ORIENTED_EDGE ( 'NONE', *, *, #831, .F. ) ;
#1212 = COLOUR_RGB ( '',0.7921568627450980005, 0.8196078431372548767, 0.9333333333333333481 ) ;
#1213 = VERTEX_POINT ( 'NONE', #36 ) ;
#1214 = AXIS2_PLACEMENT_3D ( 'NONE', #1, #597, #209 ) ;
#1215 = AXIS2_PLACEMENT_3D ( 'NONE', #167, #159, #924 ) ;
#1216 = DIRECTION ( 'NONE',  ( -0.000000000000000000, 1.000000000000000000, -0.000000000000000000 ) ) ;
#1217 = DIRECTION ( 'NONE',  ( -0.000000000000000000, 1.000000000000000000, -0.000000000000000000 ) ) ;
#1218 = DIRECTION ( 'NONE',  ( 1.000000000000000000, 0.000000000000000000, -0.000000000000000000 ) ) ;
#1219 = VERTEX_POINT ( 'NONE', #1014 ) ;
#1220 = ORIENTED_EDGE ( 'NONE', *, *, #1082, .F. ) ;
#1221 = AXIS2_PLACEMENT_3D ( 'NONE', #653, #31, #445 ) ;
#1222 = FACE_BOUND ( 'NONE', #1260, .T. ) ;
#1223 = EDGE_CURVE ( 'NONE', #473, #1158, #214, .T. ) ;
#1224 = DIRECTION ( 'NONE',  ( -0.000000000000000000, 1.000000000000000000, -0.000000000000000000 ) ) ;
#1225 = DIRECTION ( 'NONE',  ( 0.000000000000000000, 0.000000000000000000, 1.000000000000000000 ) ) ;
#1226 = VECTOR ( 'NONE', #883, 1000.000000000000000 ) ;
#1227 = ORIENTED_EDGE ( 'NONE', *, *, #308, .F. ) ;
#1228 = ORIENTED_EDGE ( 'NONE', *, *, #92, .T. ) ;
#1229 = AXIS2_PLACEMENT_3D ( 'NONE', #530, #803, #813 ) ;
#1230 = CARTESIAN_POINT ( 'NONE',  ( 150.0000000000000000, 0.000000000000000000, 62.50000000000002842 ) ) ;
#1231 = ADVANCED_FACE ( 'NONE', ( #1129 ), #121, .F. ) ;
#1232 = AXIS2_PLACEMENT_3D ( 'NONE', #516, #354, #1225 ) ;
#1233 = FACE_OUTER_BOUND ( 'NONE', #1094, .T. ) ;
#1234 = DIRECTION ( 'NONE',  ( 0.000000000000000000, -0.000000000000000000, 1.000000000000000000 ) ) ;
#1235 = ORIENTED_EDGE ( 'NONE', *, *, #291, .F. ) ;
#1236 = FACE_OUTER_BOUND ( 'NONE', #745, .T. ) ;
#1237 = DIRECTION ( 'NONE',  ( 0.000000000000000000, 0.000000000000000000, 1.000000000000000000 ) ) ;
#1238 = CARTESIAN_POINT ( 'NONE',  ( 222.2781745930521708, 0.000000000000000000, 59.27817459305206427 ) ) ;
#1239 = ADVANCED_FACE ( 'NONE', ( #844, #749, #463, #1222, #848, #341, #460, #746, #538, #548, #1135, #45, #245, #742 ), #623, .T. ) ;
#1240 = ORIENTED_EDGE ( 'NONE', *, *, #680, .T. ) ;
#1241 = VECTOR ( 'NONE', #919, 1000.000000000000000 ) ;
#1242 = DIRECTION ( 'NONE',  ( 0.000000000000000000, -0.000000000000000000, 1.000000000000000000 ) ) ;
#1243 = DIRECTION ( 'NONE',  ( -0.000000000000000000, 1.000000000000000000, -0.000000000000000000 ) ) ;
#1244 = ADVANCED_FACE ( 'NONE', ( #933 ), #255, .F. ) ;
#1245 = ORIENTED_EDGE ( 'NONE', *, *, #996, .F. ) ;
#1246 = ORIENTED_EDGE ( 'NONE', *, *, #488, .T. ) ;
#1247 = VECTOR ( 'NONE', #974, 1000.000000000000000 ) ;
#1248 = CARTESIAN_POINT ( 'NONE',  ( 150.0000000000000000, 2.000000000000000000, 57.50000000000001421 ) ) ;
#1249 = LINE ( 'NONE', #946, #1085 ) ;
#1250 = ORIENTED_EDGE ( 'NONE', *, *, #577, .T. ) ;
#1251 = FACE_OUTER_BOUND ( 'NONE', #1025, .T. ) ;
#1252 = ORIENTED_EDGE ( 'NONE', *, *, #867, .F. ) ;
#1253 = EDGE_CURVE ( 'NONE', #651, #287, #917, .T. ) ;
#1254 = CIRCLE ( 'NONE', #438, 2.500000000000002220 ) ;
#1255 = AXIS2_PLACEMENT_3D ( 'NONE', #1137, #872, #855 ) ;
#1256 = DIRECTION ( 'NONE',  ( 0.000000000000000000, 0.000000000000000000, 1.000000000000000000 ) ) ;
#1257 = ORIENTED_EDGE ( 'NONE', *, *, #178, .F. ) ;
#1258 = CARTESIAN_POINT ( 'NONE',  ( 214.5000000000001421, 2.000000000000000000, 49.00000000000002842 ) ) ;
#1259 = EDGE_LOOP ( 'NONE', ( #688, #905 ) ) ;
#1260 = EDGE_LOOP ( 'NONE', ( #487, #228 ) ) ;
#1261 = ADVANCED_FACE ( 'NONE', ( #20 ), #436, .F. ) ;
#1262 = EDGE_CURVE ( 'NONE', #874, #1001, #542, .T. ) ;
#1263 = CARTESIAN_POINT ( 'NONE',  ( -225.4999999999999147, 2.000000000000000000, 0.000000000000000000 ) ) ;
#1264 = CARTESIAN_POINT ( 'NONE',  ( 222.2781745930521708, 2.000000000000000000, 56.77817459305205716 ) ) ;
#1265 = CARTESIAN_POINT ( 'NONE',  ( 225.5000000000001421, 2.000000000000000000, 27.50000000000001066 ) ) ;
#1266 = ORIENTED_EDGE ( 'NONE', *, *, #715, .T. ) ;
#1267 = EDGE_LOOP ( 'NONE', ( #931, #522 ) ) ;
#1268 = AXIS2_PLACEMENT_3D ( 'NONE', #484, #476, #386 ) ;
#1269 = CARTESIAN_POINT ( 'NONE',  ( -222.2781745930519435, 0.000000000000000000, 56.77817459305205716 ) ) ;
#1270 = ORIENTED_EDGE ( 'NONE', *, *, #102, .T. ) ;
#1271 = CARTESIAN_POINT ( 'NONE',  ( -222.2781745930519719, 0.000000000000000000, -56.77817459305199321 ) ) ;
#1272 = CIRCLE ( 'NONE', #106, 16.00000000000000000 ) ;
#1273 =( GEOMETRIC_REPRESENTATION_CONTEXT ( 3 ) GLOBAL_UNCERTAINTY_ASSIGNED_CONTEXT ( ( #172 ) ) GLOBAL_UNIT_ASSIGNED_CONTEXT ( ( #141, #40, #1125 ) ) REPRESENTATION_CONTEXT ( 'NONE', 'WORKASPACE' ) );
#1274 = DIRECTION ( 'NONE',  ( -0.000000000000000000, 1.000000000000000000, -0.000000000000000000 ) ) ;
#1275 = VERTEX_POINT ( 'NONE', #1230 ) ;
#1276 = CARTESIAN_POINT ( 'NONE',  ( 225.5000000000001421, 0.000000000000000000, 32.50000000000001421 ) ) ;
#1277 = AXIS2_PLACEMENT_3D ( 'NONE', #211, #889, #1103 ) ;
#1278 = EDGE_CURVE ( 'NONE', #75, #1173, #393, .T. ) ;
#1279 = CARTESIAN_POINT ( 'NONE',  ( 150.0000000000000000, 2.000000000000000000, -62.50000000000005684 ) ) ;
#1280 = DIRECTION ( 'NONE',  ( 0.000000000000000000, 0.000000000000000000, 1.000000000000000000 ) ) ;
#1281 = CIRCLE ( 'NONE', #887, 2.500000000000002220 ) ;
#1282 = EDGE_CURVE ( 'NONE', #416, #1219, #237, .T. ) ;
#1283 = DIRECTION ( 'NONE',  ( -0.000000000000000000, 1.000000000000000000, -0.000000000000000000 ) ) ;
#1284 = ADVANCED_FACE ( 'NONE', ( #166 ), #260, .T. ) ;
#1285 = ORIENTED_EDGE ( 'NONE', *, *, #1050, .F. ) ;
#1286 = ORIENTED_EDGE ( 'NONE', *, *, #325, .F. ) ;
#1287 = CARTESIAN_POINT ( 'NONE',  ( -150.0000000000000000, 0.000000000000000000, -59.99999999999999289 ) ) ;
#1288 = AXIS2_PLACEMENT_3D ( 'NONE', #939, #27, #135 ) ;
#1289 = CARTESIAN_POINT ( 'NONE',  ( -222.2781745930519435, 2.000000000000000000, 56.77817459305205716 ) ) ;
ENDSEC;
END-ISO-10303-21;
