ISO-10303-21;
HEADER;
FILE_DESCRIPTION (( 'STEP AP214' ),
    '1' );
FILE_NAME ('Ö÷°å±£»¤.STEP',
    '2025-04-01T23:53:14',
    ( '' ),
    ( '' ),
    'SwSTEP 2.0',
    'SolidWorks 2024',
    '' );
FILE_SCHEMA (( 'AUTOMOTIVE_DESIGN' ));
ENDSEC;

DATA;
#1 = ORIENTED_EDGE ( 'NONE', *, *, #61, .F. ) ;
#2 = DIRECTION ( 'NONE',  ( -1.000000000000000000, 0.000000000000000000, 0.000000000000000000 ) ) ;
#3 = EDGE_LOOP ( 'NONE', ( #270, #219, #230, #519 ) ) ;
#4 = AXIS2_PLACEMENT_3D ( 'NONE', #500, #300, #2 ) ;
#5 = AXIS2_PLACEMENT_3D ( 'NONE', #314, #20, #215 ) ;
#6 = DIRECTION ( 'NONE',  ( -0.000000000000000000, -0.000000000000000000, 1.000000000000000000 ) ) ;
#7 = PRODUCT_RELATED_PRODUCT_CATEGORY ( 'part', '', ( #123 ) ) ;
#8 = DIRECTION ( 'NONE',  ( -0.000000000000000000, -0.000000000000000000, 1.000000000000000000 ) ) ;
#9 = EDGE_CURVE ( 'NONE', #81, #182, #359, .T. ) ;
#10 = CARTESIAN_POINT ( 'NONE',  ( 40.65000000000000568, 49.35999999999998522, 2.000000000000000000 ) ) ;
#11 = EDGE_CURVE ( 'NONE', #474, #81, #84, .T. ) ;
#12 = VECTOR ( 'NONE', #179, 1000.000000000000000 ) ;
#13 = LINE ( 'NONE', #176, #48 ) ;
#14 = ORIENTED_EDGE ( 'NONE', *, *, #52, .F. ) ;
#15 = FACE_BOUND ( 'NONE', #244, .T. ) ;
#16 = ORIENTED_EDGE ( 'NONE', *, *, #502, .F. ) ;
#17 = CARTESIAN_POINT ( 'NONE',  ( 40.65000000000000568, -52.36000000000000654, 2.000000000000000000 ) ) ;
#18 = ADVANCED_FACE ( 'NONE', ( #407 ), #328, .F. ) ;
#19 = VERTEX_POINT ( 'NONE', #315 ) ;
#20 = DIRECTION ( 'NONE',  ( 0.000000000000000000, 0.000000000000000000, 1.000000000000000000 ) ) ;
#21 = FILL_AREA_STYLE_COLOUR ( '', #145 ) ;
#22 = LINE ( 'NONE', #316, #138 ) ;
#23 = DIRECTION ( 'NONE',  ( -0.000000000000000000, -0.000000000000000000, 1.000000000000000000 ) ) ;
#24 = ORIENTED_EDGE ( 'NONE', *, *, #34, .F. ) ;
#25 = ADVANCED_FACE ( 'NONE', ( #531 ), #442, .F. ) ;
#26 = CARTESIAN_POINT ( 'NONE',  ( 32.00000000000000711, -47.43999999999999062, 2.000000000000000000 ) ) ;
#27 = DIRECTION ( 'NONE',  ( -0.000000000000000000, -0.000000000000000000, 1.000000000000000000 ) ) ;
#28 = CLOSED_SHELL ( 'NONE', ( #268, #18, #25, #223, #461, #110, #45, #76, #165, #103, #85, #213, #125, #418, #425, #245 ) ) ;
#29 =( GEOMETRIC_REPRESENTATION_CONTEXT ( 3 ) GLOBAL_UNCERTAINTY_ASSIGNED_CONTEXT ( ( #410 ) ) GLOBAL_UNIT_ASSIGNED_CONTEXT ( ( #455, #332, #365 ) ) REPRESENTATION_CONTEXT ( 'NONE', 'WORKASPACE' ) );
#30 = ORIENTED_EDGE ( 'NONE', *, *, #324, .F. ) ;
#31 = CARTESIAN_POINT ( 'NONE',  ( 31.99999999999999289, 47.35999999999999943, 2.000000000000000000 ) ) ;
#32 = ORIENTED_EDGE ( 'NONE', *, *, #301, .T. ) ;
#33 = CARTESIAN_POINT ( 'NONE',  ( -40.64999999999999858, 49.35999999999998522, 2.000000000000000000 ) ) ;
#34 = EDGE_CURVE ( 'NONE', #164, #182, #538, .T. ) ;
#35 = EDGE_LOOP ( 'NONE', ( #250, #24, #214, #260 ) ) ;
#36 = PRODUCT_DEFINITION_SHAPE ( 'NONE', 'NONE',  #352 ) ;
#37 = CARTESIAN_POINT ( 'NONE',  ( 43.65000000000000568, -49.35999999999999943, 2.000000000000000000 ) ) ;
#38 = CARTESIAN_POINT ( 'NONE',  ( -37.00000000000000000, 47.35999999999999233, 0.000000000000000000 ) ) ;
#39 = AXIS2_PLACEMENT_3D ( 'NONE', #284, #445, #67 ) ;
#40 = EDGE_LOOP ( 'NONE', ( #143, #60, #546, #539 ) ) ;
#41 = DIRECTION ( 'NONE',  ( -0.000000000000000000, -0.000000000000000000, 1.000000000000000000 ) ) ;
#42 = VERTEX_POINT ( 'NONE', #317 ) ;
#43 = CARTESIAN_POINT ( 'NONE',  ( -40.64999999999999858, 52.35999999999999233, 2.000000000000000000 ) ) ;
#44 = VERTEX_POINT ( 'NONE', #492 ) ;
#45 = ADVANCED_FACE ( 'NONE', ( #147 ), #239, .F. ) ;
#46 = DIRECTION ( 'NONE',  ( -7.028863354849300429E-17, 1.000000000000000000, -0.000000000000000000 ) ) ;
#47 = AXIS2_PLACEMENT_3D ( 'NONE', #31, #394, #73 ) ;
#48 = VECTOR ( 'NONE', #473, 1000.000000000000000 ) ;
#49 = MANIFOLD_SOLID_BREP ( '\X2\00d8\X0\4.0mm \X2\669795005b54\X0\1', #28 ) ;
#50 = CARTESIAN_POINT ( 'NONE',  ( 32.00000000000000711, -47.43999999999999062, 0.000000000000000000 ) ) ;
#51 = CARTESIAN_POINT ( 'NONE',  ( 30.00000000000000711, 47.35999999999999943, 2.000000000000001332 ) ) ;
#52 = EDGE_CURVE ( 'NONE', #182, #414, #235, .T. ) ;
#53 = DIRECTION ( 'NONE',  ( 1.000000000000000000, 0.000000000000000000, 0.000000000000000000 ) ) ;
#54 = VERTEX_POINT ( 'NONE', #71 ) ;
#55 = AXIS2_PLACEMENT_3D ( 'NONE', #503, #126, #259 ) ;
#56 = CIRCLE ( 'NONE', #131, 3.000000000000002665 ) ;
#57 = CARTESIAN_POINT ( 'NONE',  ( 43.65000000000000568, 49.35999999999998522, 2.000000000000000000 ) ) ;
#58 = ORIENTED_EDGE ( 'NONE', *, *, #502, .T. ) ;
#59 = CARTESIAN_POINT ( 'NONE',  ( -40.64999999999998437, -52.36000000000000654, 2.000000000000000000 ) ) ;
#60 = ORIENTED_EDGE ( 'NONE', *, *, #340, .F. ) ;
#61 = EDGE_CURVE ( 'NONE', #536, #118, #366, .T. ) ;
#62 = CARTESIAN_POINT ( 'NONE',  ( -40.64999999999998437, -52.36000000000000654, 0.000000000000000000 ) ) ;
#63 = CARTESIAN_POINT ( 'NONE',  ( -43.64999999999999858, 49.35999999999998522, 0.000000000000000000 ) ) ;
#64 = CARTESIAN_POINT ( 'NONE',  ( -40.64999999999999858, 52.35999999999999233, 2.000000000000000000 ) ) ;
#65 = AXIS2_PLACEMENT_3D ( 'NONE', #224, #380, #140 ) ;
#66 = DIRECTION ( 'NONE',  ( -1.000000000000000000, -7.028863354849300429E-17, 0.000000000000000000 ) ) ;
#67 = DIRECTION ( 'NONE',  ( 1.000000000000000000, 0.000000000000000000, 0.000000000000000000 ) ) ;
#68 = EDGE_CURVE ( 'NONE', #44, #87, #189, .T. ) ;
#69 = ORIENTED_EDGE ( 'NONE', *, *, #129, .F. ) ;
#70 = CARTESIAN_POINT ( 'NONE',  ( 34.00000000000000711, -47.43999999999999062, 0.000000000000000000 ) ) ;
#71 = CARTESIAN_POINT ( 'NONE',  ( 40.65000000000000568, -52.36000000000000654, 2.000000000000000000 ) ) ;
#72 = VERTEX_POINT ( 'NONE', #363 ) ;
#73 = DIRECTION ( 'NONE',  ( 1.000000000000000000, 0.000000000000000000, 0.000000000000000000 ) ) ;
#74 = ORIENTED_EDGE ( 'NONE', *, *, #527, .F. ) ;
#75 = APPLICATION_PROTOCOL_DEFINITION ( 'draft international standard', 'automotive_design', 1998, #397 ) ;
#76 = ADVANCED_FACE ( 'NONE', ( #158 ), #116, .T. ) ;
#77 = DIRECTION ( 'NONE',  ( -0.000000000000000000, -0.000000000000000000, 1.000000000000000000 ) ) ;
#78 = ORIENTED_EDGE ( 'NONE', *, *, #240, .T. ) ;
#79 = SHAPE_DEFINITION_REPRESENTATION ( #36, #83 ) ;
#80 = CARTESIAN_POINT ( 'NONE',  ( -40.64999999999998437, -49.35999999999999943, 2.000000000000000000 ) ) ;
#81 = VERTEX_POINT ( 'NONE', #293 ) ;
#82 = CARTESIAN_POINT ( 'NONE',  ( -43.64999999999999858, 49.35999999999998522, 2.000000000000000000 ) ) ;
#83 = ADVANCED_BREP_SHAPE_REPRESENTATION ( '\X2\4e3b677f4fdd62a4\X0\', ( #49, #100 ), #29 ) ;
#84 = CIRCLE ( 'NONE', #144, 3.000000000000002665 ) ;
#85 = ADVANCED_FACE ( 'NONE', ( #417 ), #458, .F. ) ;
#86 = CIRCLE ( 'NONE', #386, 1.999999999999988010 ) ;
#87 = VERTEX_POINT ( 'NONE', #339 ) ;
#88 = DIRECTION ( 'NONE',  ( 0.000000000000000000, 0.000000000000000000, 1.000000000000000000 ) ) ;
#89 = DIRECTION ( 'NONE',  ( -1.000000000000000000, 0.000000000000000000, 0.000000000000000000 ) ) ;
#90 = EDGE_LOOP ( 'NONE', ( #367, #311, #542, #331 ) ) ;
#91 = DIRECTION ( 'NONE',  ( -1.000000000000000000, 0.000000000000000000, 0.000000000000000000 ) ) ;
#92 = EDGE_CURVE ( 'NONE', #87, #44, #443, .T. ) ;
#93 = DIRECTION ( 'NONE',  ( 1.000000000000000000, 0.000000000000000000, 0.000000000000000000 ) ) ;
#94 = AXIS2_PLACEMENT_3D ( 'NONE', #136, #389, #264 ) ;
#95 = LINE ( 'NONE', #57, #469 ) ;
#96 = DIRECTION ( 'NONE',  ( -0.000000000000000000, -0.000000000000000000, 1.000000000000000000 ) ) ;
#97 = ORIENTED_EDGE ( 'NONE', *, *, #188, .F. ) ;
#98 = DIRECTION ( 'NONE',  ( -0.000000000000000000, -0.000000000000000000, -1.000000000000000000 ) ) ;
#99 = EDGE_LOOP ( 'NONE', ( #351, #506 ) ) ;
#100 = AXIS2_PLACEMENT_3D ( 'NONE', #299, #88, #258 ) ;
#101 = DIRECTION ( 'NONE',  ( 1.000000000000000000, 0.000000000000000000, 0.000000000000000000 ) ) ;
#102 = ORIENTED_EDGE ( 'NONE', *, *, #240, .F. ) ;
#103 = ADVANCED_FACE ( 'NONE', ( #251 ), #161, .T. ) ;
#104 = LINE ( 'NONE', #350, #173 ) ;
#105 = SURFACE_STYLE_FILL_AREA ( #325 ) ;
#106 = DIRECTION ( 'NONE',  ( 1.000000000000000000, 0.000000000000000000, 0.000000000000000000 ) ) ;
#107 = VERTEX_POINT ( 'NONE', #509 ) ;
#108 = CARTESIAN_POINT ( 'NONE',  ( 40.65000000000000568, -52.36000000000000654, 0.000000000000000000 ) ) ;
#109 = AXIS2_PLACEMENT_3D ( 'NONE', #26, #242, #112 ) ;
#110 = ADVANCED_FACE ( 'NONE', ( #412 ), #171, .T. ) ;
#111 = CARTESIAN_POINT ( 'NONE',  ( 32.00000000000000711, -47.43999999999999062, 2.000000000000000000 ) ) ;
#112 = DIRECTION ( 'NONE',  ( 1.000000000000000000, 0.000000000000000000, 0.000000000000000000 ) ) ;
#113 = DIRECTION ( 'NONE',  ( -1.000000000000000000, 0.000000000000000000, 0.000000000000000000 ) ) ;
#114 = ORIENTED_EDGE ( 'NONE', *, *, #475, .F. ) ;
#115 = DIRECTION ( 'NONE',  ( -1.000000000000000000, -0.000000000000000000, -0.000000000000000000 ) ) ;
#116 = CYLINDRICAL_SURFACE ( 'NONE', #152, 3.000000000000002665 ) ;
#117 = EDGE_CURVE ( 'NONE', #536, #267, #368, .T. ) ;
#118 = VERTEX_POINT ( 'NONE', #255 ) ;
#119 = CARTESIAN_POINT ( 'NONE',  ( -40.64999999999999858, 52.35999999999999233, 0.000000000000000000 ) ) ;
#120 = VECTOR ( 'NONE', #233, 1000.000000000000000 ) ;
#121 = EDGE_LOOP ( 'NONE', ( #479, #493, #462, #501 ) ) ;
#122 = CARTESIAN_POINT ( 'NONE',  ( -43.64999999999999858, 49.35999999999998522, 2.000000000000000000 ) ) ;
#123 = PRODUCT ( '\X2\4e3b677f4fdd62a4\X0\', '\X2\4e3b677f4fdd62a4\X0\', '', ( #499 ) ) ;
#124 = ORIENTED_EDGE ( 'NONE', *, *, #168, .F. ) ;
#125 = ADVANCED_FACE ( 'NONE', ( #549, #169, #337, #505 ), #209, .T. ) ;
#126 = DIRECTION ( 'NONE',  ( -0.000000000000000000, -0.000000000000000000, 1.000000000000000000 ) ) ;
#127 = VERTEX_POINT ( 'NONE', #547 ) ;
#128 = DIRECTION ( 'NONE',  ( -0.000000000000000000, -0.000000000000000000, -1.000000000000000000 ) ) ;
#129 = EDGE_CURVE ( 'NONE', #162, #87, #249, .T. ) ;
#130 = AXIS2_PLACEMENT_3D ( 'NONE', #33, #467, #375 ) ;
#131 = AXIS2_PLACEMENT_3D ( 'NONE', #391, #484, #157 ) ;
#132 = ORIENTED_EDGE ( 'NONE', *, *, #481, .T. ) ;
#133 = DIRECTION ( 'NONE',  ( -1.000000000000000000, 0.000000000000000000, 0.000000000000000000 ) ) ;
#134 = ORIENTED_EDGE ( 'NONE', *, *, #68, .T. ) ;
#135 = CARTESIAN_POINT ( 'NONE',  ( 31.99999999999999289, 47.35999999999999943, 2.000000000000001332 ) ) ;
#136 = CARTESIAN_POINT ( 'NONE',  ( -39.00000000000000000, 47.35999999999999233, 2.000000000000000000 ) ) ;
#137 = PRESENTATION_LAYER_ASSIGNMENT (  '', '', ( #385 ) ) ;
#138 = VECTOR ( 'NONE', #191, 1000.000000000000000 ) ;
#139 = CARTESIAN_POINT ( 'NONE',  ( -40.64999999999998437, -49.35999999999999943, 2.000000000000000000 ) ) ;
#140 = DIRECTION ( 'NONE',  ( 1.000000000000000000, 0.000000000000000000, 0.000000000000000000 ) ) ;
#141 = ORIENTED_EDGE ( 'NONE', *, *, #441, .F. ) ;
#142 = FACE_OUTER_BOUND ( 'NONE', #309, .T. ) ;
#143 = ORIENTED_EDGE ( 'NONE', *, *, #319, .F. ) ;
#144 = AXIS2_PLACEMENT_3D ( 'NONE', #485, #399, #277 ) ;
#145 = COLOUR_RGB ( '',0.7921568627450980005, 0.8196078431372548767, 0.9333333333333333481 ) ;
#146 = CARTESIAN_POINT ( 'NONE',  ( 34.00000000000000000, -47.43999999999999062, 2.000000000000000000 ) ) ;
#147 = FACE_OUTER_BOUND ( 'NONE', #548, .T. ) ;
#148 = DIRECTION ( 'NONE',  ( -0.000000000000000000, -0.000000000000000000, 1.000000000000000000 ) ) ;
#149 = PRESENTATION_STYLE_ASSIGNMENT (( #404 ) ) ;
#150 = EDGE_CURVE ( 'NONE', #72, #164, #460, .T. ) ;
#151 = DIRECTION ( 'NONE',  ( 1.000000000000000000, 0.000000000000000000, 0.000000000000000000 ) ) ;
#152 = AXIS2_PLACEMENT_3D ( 'NONE', #451, #207, #91 ) ;
#153 = CARTESIAN_POINT ( 'NONE',  ( -40.64999999999999858, 52.35999999999999233, 0.000000000000000000 ) ) ;
#154 = VECTOR ( 'NONE', #428, 1000.000000000000000 ) ;
#155 = EDGE_LOOP ( 'NONE', ( #170, #408, #286, #275 ) ) ;
#156 = ORIENTED_EDGE ( 'NONE', *, *, #343, .F. ) ;
#157 = DIRECTION ( 'NONE',  ( -1.000000000000000000, 0.000000000000000000, 0.000000000000000000 ) ) ;
#158 = FACE_OUTER_BOUND ( 'NONE', #90, .T. ) ;
#159 = EDGE_CURVE ( 'NONE', #164, #334, #199, .T. ) ;
#160 = EDGE_LOOP ( 'NONE', ( #378, #1, #141, #58 ) ) ;
#161 = CYLINDRICAL_SURFACE ( 'NONE', #130, 3.000000000000002665 ) ;
#162 = VERTEX_POINT ( 'NONE', #38 ) ;
#163 = CARTESIAN_POINT ( 'NONE',  ( 32.00000000000000711, -47.43999999999999062, 2.000000000000001332 ) ) ;
#164 = VERTEX_POINT ( 'NONE', #543 ) ;
#165 = ADVANCED_FACE ( 'NONE', ( #420 ), #409, .F. ) ;
#166 = DIRECTION ( 'NONE',  ( -0.000000000000000000, 0.000000000000000000, -1.000000000000000000 ) ) ;
#167 = ORIENTED_EDGE ( 'NONE', *, *, #252, .F. ) ;
#168 = EDGE_CURVE ( 'NONE', #334, #54, #422, .T. ) ;
#169 = FACE_BOUND ( 'NONE', #225, .T. ) ;
#170 = ORIENTED_EDGE ( 'NONE', *, *, #11, .T. ) ;
#171 = CYLINDRICAL_SURFACE ( 'NONE', #514, 3.000000000000002665 ) ;
#172 = AXIS2_PLACEMENT_3D ( 'NONE', #43, #540, #218 ) ;
#173 = VECTOR ( 'NONE', #528, 1000.000000000000000 ) ;
#174 = UNCERTAINTY_MEASURE_WITH_UNIT (LENGTH_MEASURE( 1.000000000000000082E-05 ), #194, 'distance_accuracy_value', 'NONE');
#175 = ORIENTED_EDGE ( 'NONE', *, *, #183, .F. ) ;
#176 = CARTESIAN_POINT ( 'NONE',  ( 30.00000000000000000, 47.35999999999999943, 2.000000000000000000 ) ) ;
#177 = EDGE_CURVE ( 'NONE', #127, #459, #452, .T. ) ;
#178 = CARTESIAN_POINT ( 'NONE',  ( -43.64999999999999858, 49.35999999999998522, 2.000000000000000000 ) ) ;
#179 = DIRECTION ( 'NONE',  ( -0.000000000000000000, -0.000000000000000000, -1.000000000000000000 ) ) ;
#180 = CIRCLE ( 'NONE', #236, 3.000000000000002665 ) ;
#181 = DIRECTION ( 'NONE',  ( -0.000000000000000000, -0.000000000000000000, 1.000000000000000000 ) ) ;
#182 = VERTEX_POINT ( 'NONE', #211 ) ;
#183 = EDGE_CURVE ( 'NONE', #459, #474, #456, .T. ) ;
#184 = DIRECTION ( 'NONE',  ( 0.000000000000000000, 0.000000000000000000, 1.000000000000000000 ) ) ;
#185 = ORIENTED_EDGE ( 'NONE', *, *, #177, .F. ) ;
#186 = LINE ( 'NONE', #146, #424 ) ;
#187 = ORIENTED_EDGE ( 'NONE', *, *, #441, .T. ) ;
#188 = EDGE_CURVE ( 'NONE', #419, #42, #271, .T. ) ;
#189 = CIRCLE ( 'NONE', #486, 1.999999999999988010 ) ;
#190 = AXIS2_PLACEMENT_3D ( 'NONE', #303, #148, #280 ) ;
#191 = DIRECTION ( 'NONE',  ( -0.000000000000000000, -0.000000000000000000, 1.000000000000000000 ) ) ;
#192 = DIRECTION ( 'NONE',  ( -0.000000000000000000, -0.000000000000000000, 1.000000000000000000 ) ) ;
#193 = CYLINDRICAL_SURFACE ( 'NONE', #109, 1.999999999999994893 ) ;
#194 =( LENGTH_UNIT ( ) NAMED_UNIT ( * ) SI_UNIT ( .MILLI., .METRE. ) );
#195 = ORIENTED_EDGE ( 'NONE', *, *, #301, .F. ) ;
#196 = DIRECTION ( 'NONE',  ( 0.000000000000000000, 1.000000000000000000, 0.000000000000000000 ) ) ;
#197 = SURFACE_SIDE_STYLE ('',( #105 ) ) ;
#198 = EDGE_LOOP ( 'NONE', ( #390, #97 ) ) ;
#199 = CIRCLE ( 'NONE', #463, 3.000000000000002665 ) ;
#200 = FACE_OUTER_BOUND ( 'NONE', #40, .T. ) ;
#201 = EDGE_CURVE ( 'NONE', #411, #329, #544, .T. ) ;
#202 = VECTOR ( 'NONE', #281, 1000.000000000000000 ) ;
#203 = DIRECTION ( 'NONE',  ( 1.000000000000000000, 0.000000000000000000, 0.000000000000000000 ) ) ;
#204 = VERTEX_POINT ( 'NONE', #51 ) ;
#205 = DIRECTION ( 'NONE',  ( -7.028863354849300429E-17, 1.000000000000000000, -0.000000000000000000 ) ) ;
#206 = EDGE_CURVE ( 'NONE', #457, #204, #379, .T. ) ;
#207 = DIRECTION ( 'NONE',  ( -0.000000000000000000, -0.000000000000000000, -1.000000000000000000 ) ) ;
#208 = ORIENTED_EDGE ( 'NONE', *, *, #201, .F. ) ;
#209 = PLANE ( 'NONE',  #453 ) ;
#210 = ORIENTED_EDGE ( 'NONE', *, *, #287, .T. ) ;
#211 = CARTESIAN_POINT ( 'NONE',  ( -43.64999999999998437, -49.35999999999999943, 0.000000000000000000 ) ) ;
#212 = AXIS2_PLACEMENT_3D ( 'NONE', #308, #6, #384 ) ;
#213 = ADVANCED_FACE ( 'NONE', ( #15, #269, #345, #142 ), #304, .F. ) ;
#214 = ORIENTED_EDGE ( 'NONE', *, *, #150, .F. ) ;
#215 = DIRECTION ( 'NONE',  ( -1.000000000000000000, 0.000000000000000000, 0.000000000000000000 ) ) ;
#216 = DIRECTION ( 'NONE',  ( 1.000000000000000000, 1.405772670969860086E-16, -0.000000000000000000 ) ) ;
#217 = EDGE_LOOP ( 'NONE', ( #436, #32 ) ) ;
#218 = DIRECTION ( 'NONE',  ( 0.000000000000000000, -0.000000000000000000, -1.000000000000000000 ) ) ;
#219 = ORIENTED_EDGE ( 'NONE', *, *, #319, .T. ) ;
#220 = CARTESIAN_POINT ( 'NONE',  ( -40.64999999999998437, -49.35999999999999943, 0.000000000000000000 ) ) ;
#221 = CARTESIAN_POINT ( 'NONE',  ( -40.64999999999998437, -49.35999999999999943, 2.000000000000000000 ) ) ;
#222 = CARTESIAN_POINT ( 'NONE',  ( -40.64999999999998437, -52.36000000000000654, 0.000000000000000000 ) ) ;
#223 = ADVANCED_FACE ( 'NONE', ( #468 ), #228, .T. ) ;
#224 = CARTESIAN_POINT ( 'NONE',  ( -39.00000000000000000, 47.35999999999999233, 2.000000000000000000 ) ) ;
#225 = EDGE_LOOP ( 'NONE', ( #289, #248 ) ) ;
#226 = AXIS2_PLACEMENT_3D ( 'NONE', #356, #66, #448 ) ;
#227 = CIRCLE ( 'NONE', #444, 2.000000000000001776 ) ;
#228 = CYLINDRICAL_SURFACE ( 'NONE', #256, 3.000000000000002665 ) ;
#229 = ORIENTED_EDGE ( 'NONE', *, *, #183, .T. ) ;
#230 = ORIENTED_EDGE ( 'NONE', *, *, #265, .T. ) ;
#231 = CARTESIAN_POINT ( 'NONE',  ( 33.99999999999999289, 47.35999999999999943, 0.000000000000000000 ) ) ;
#232 = ORIENTED_EDGE ( 'NONE', *, *, #129, .T. ) ;
#233 = DIRECTION ( 'NONE',  ( -0.000000000000000000, -0.000000000000000000, -1.000000000000000000 ) ) ;
#234 = DIRECTION ( 'NONE',  ( 1.405772670969860086E-16, -1.000000000000000000, 0.000000000000000000 ) ) ;
#235 = CIRCLE ( 'NONE', #415, 3.000000000000002665 ) ;
#236 = AXIS2_PLACEMENT_3D ( 'NONE', #238, #537, #106 ) ;
#237 = LINE ( 'NONE', #17, #202 ) ;
#238 = CARTESIAN_POINT ( 'NONE',  ( -40.64999999999999858, 49.35999999999998522, 2.000000000000000000 ) ) ;
#239 = PLANE ( 'NONE',  #226 ) ;
#240 = EDGE_CURVE ( 'NONE', #334, #414, #282, .T. ) ;
#241 = ORIENTED_EDGE ( 'NONE', *, *, #541, .T. ) ;
#242 = DIRECTION ( 'NONE',  ( -0.000000000000000000, -0.000000000000000000, 1.000000000000000000 ) ) ;
#243 = CARTESIAN_POINT ( 'NONE',  ( -39.00000000000000000, 47.35999999999999233, 2.000000000000001332 ) ) ;
#244 = EDGE_LOOP ( 'NONE', ( #490, #341 ) ) ;
#245 = ADVANCED_FACE ( 'NONE', ( #426 ), #266, .F. ) ;
#246 = AXIS2_PLACEMENT_3D ( 'NONE', #50, #517, #427 ) ;
#247 = CARTESIAN_POINT ( 'NONE',  ( 43.65000000000000568, -49.35999999999999943, 2.000000000000000000 ) ) ;
#248 = ORIENTED_EDGE ( 'NONE', *, *, #400, .T. ) ;
#249 = LINE ( 'NONE', #295, #495 ) ;
#250 = ORIENTED_EDGE ( 'NONE', *, *, #9, .T. ) ;
#251 = FACE_OUTER_BOUND ( 'NONE', #155, .T. ) ;
#252 = EDGE_CURVE ( 'NONE', #414, #446, #513, .T. ) ;
#253 = ORIENTED_EDGE ( 'NONE', *, *, #438, .T. ) ;
#254 = VECTOR ( 'NONE', #330, 1000.000000000000000 ) ;
#255 = CARTESIAN_POINT ( 'NONE',  ( 43.65000000000000568, -49.35999999999999943, 0.000000000000000000 ) ) ;
#256 = AXIS2_PLACEMENT_3D ( 'NONE', #139, #471, #430 ) ;
#257 = ORIENTED_EDGE ( 'NONE', *, *, #9, .F. ) ;
#258 = DIRECTION ( 'NONE',  ( 1.000000000000000000, 0.000000000000000000, 0.000000000000000000 ) ) ;
#259 = DIRECTION ( 'NONE',  ( 1.000000000000000000, 0.000000000000000000, 0.000000000000000000 ) ) ;
#260 = ORIENTED_EDGE ( 'NONE', *, *, #306, .T. ) ;
#261 = CARTESIAN_POINT ( 'NONE',  ( 40.65000000000000568, -49.35999999999999943, 2.000000000000000000 ) ) ;
#262 = EDGE_CURVE ( 'NONE', #267, #511, #525, .T. ) ;
#263 = FACE_OUTER_BOUND ( 'NONE', #349, .T. ) ;
#264 = DIRECTION ( 'NONE',  ( 1.000000000000000000, 0.000000000000000000, 0.000000000000000000 ) ) ;
#265 = EDGE_CURVE ( 'NONE', #204, #457, #496, .T. ) ;
#266 = CYLINDRICAL_SURFACE ( 'NONE', #94, 1.999999999999994893 ) ;
#267 = VERTEX_POINT ( 'NONE', #520 ) ;
#268 = ADVANCED_FACE ( 'NONE', ( #263 ), #310, .F. ) ;
#269 = FACE_BOUND ( 'NONE', #376, .T. ) ;
#270 = ORIENTED_EDGE ( 'NONE', *, *, #400, .F. ) ;
#271 = CIRCLE ( 'NONE', #477, 1.999999999999988010 ) ;
#272 = LINE ( 'NONE', #178, #296 ) ;
#273 = ORIENTED_EDGE ( 'NONE', *, *, #265, .F. ) ;
#274 = CARTESIAN_POINT ( 'NONE',  ( 31.99999999999999289, 47.35999999999999943, 0.000000000000000000 ) ) ;
#275 = ORIENTED_EDGE ( 'NONE', *, *, #475, .T. ) ;
#276 = FACE_OUTER_BOUND ( 'NONE', #454, .T. ) ;
#277 = DIRECTION ( 'NONE',  ( 1.000000000000000000, 0.000000000000000000, 0.000000000000000000 ) ) ;
#278 = VECTOR ( 'NONE', #354, 1000.000000000000000 ) ;
#279 = CIRCLE ( 'NONE', #39, 2.000000000000001776 ) ;
#280 = DIRECTION ( 'NONE',  ( 1.000000000000000000, 0.000000000000000000, 0.000000000000000000 ) ) ;
#281 = DIRECTION ( 'NONE',  ( -0.000000000000000000, -0.000000000000000000, -1.000000000000000000 ) ) ;
#282 = LINE ( 'NONE', #59, #154 ) ;
#283 = ORIENTED_EDGE ( 'NONE', *, *, #92, .T. ) ;
#284 = CARTESIAN_POINT ( 'NONE',  ( -39.00000000000000000, 47.35999999999999233, 0.000000000000000000 ) ) ;
#285 = DIRECTION ( 'NONE',  ( -0.000000000000000000, -0.000000000000000000, -1.000000000000000000 ) ) ;
#286 = ORIENTED_EDGE ( 'NONE', *, *, #434, .F. ) ;
#287 = EDGE_CURVE ( 'NONE', #511, #459, #344, .T. ) ;
#288 = DIRECTION ( 'NONE',  ( -1.000000000000000000, -0.000000000000000000, -0.000000000000000000 ) ) ;
#289 = ORIENTED_EDGE ( 'NONE', *, *, #340, .T. ) ;
#290 = CARTESIAN_POINT ( 'NONE',  ( 43.65000000000000568, 49.35999999999998522, 0.000000000000000000 ) ) ;
#291 = CARTESIAN_POINT ( 'NONE',  ( 43.65000000000000568, 49.35999999999998522, 2.000000000000000000 ) ) ;
#292 = VERTEX_POINT ( 'NONE', #307 ) ;
#293 = CARTESIAN_POINT ( 'NONE',  ( -43.64999999999999858, 49.35999999999998522, 0.000000000000000000 ) ) ;
#294 = ORIENTED_EDGE ( 'NONE', *, *, #52, .T. ) ;
#295 = CARTESIAN_POINT ( 'NONE',  ( -37.00000000000000711, 47.35999999999999233, 2.000000000000000000 ) ) ;
#296 = VECTOR ( 'NONE', #435, 1000.000000000000000 ) ;
#297 = EDGE_CURVE ( 'NONE', #329, #411, #227, .T. ) ;
#298 = ORIENTED_EDGE ( 'NONE', *, *, #11, .F. ) ;
#299 = CARTESIAN_POINT ( 'NONE',  ( 0.000000000000000000, 0.000000000000000000, 0.000000000000000000 ) ) ;
#300 = DIRECTION ( 'NONE',  ( 0.000000000000000000, 0.000000000000000000, 1.000000000000000000 ) ) ;
#301 = EDGE_CURVE ( 'NONE', #292, #162, #371, .T. ) ;
#302 = ORIENTED_EDGE ( 'NONE', *, *, #357, .T. ) ;
#303 = CARTESIAN_POINT ( 'NONE',  ( 31.99999999999999289, 47.35999999999999943, 0.000000000000000000 ) ) ;
#304 = PLANE ( 'NONE',  #522 ) ;
#305 = PRODUCT_DEFINITION_FORMATION_WITH_SPECIFIED_SOURCE ( 'ä»', '', #123, .NOT_KNOWN. ) ;
#306 = EDGE_CURVE ( 'NONE', #72, #81, #272, .T. ) ;
#307 = CARTESIAN_POINT ( 'NONE',  ( -41.00000000000000000, 47.35999999999999233, 0.000000000000000000 ) ) ;
#308 = CARTESIAN_POINT ( 'NONE',  ( -39.00000000000000000, 47.35999999999999233, 0.000000000000000000 ) ) ;
#309 = EDGE_LOOP ( 'NONE', ( #406, #326, #187, #429, #433, #132, #504, #347 ) ) ;
#310 = CYLINDRICAL_SURFACE ( 'NONE', #65, 1.999999999999994893 ) ;
#311 = ORIENTED_EDGE ( 'NONE', *, *, #287, .F. ) ;
#312 = AXIS2_PLACEMENT_3D ( 'NONE', #135, #181, #93 ) ;
#313 = VECTOR ( 'NONE', #403, 1000.000000000000000 ) ;
#314 = CARTESIAN_POINT ( 'NONE',  ( 40.65000000000000568, -49.35999999999999943, 0.000000000000000000 ) ) ;
#315 = CARTESIAN_POINT ( 'NONE',  ( 29.99999999999999289, 47.35999999999999943, 0.000000000000000000 ) ) ;
#316 = CARTESIAN_POINT ( 'NONE',  ( 30.00000000000001421, -47.43999999999999062, 2.000000000000000000 ) ) ;
#317 = CARTESIAN_POINT ( 'NONE',  ( 33.99999999999999289, -47.43999999999999062, 2.000000000000001332 ) ) ;
#318 = DIRECTION ( 'NONE',  ( 1.000000000000000000, 0.000000000000000000, 0.000000000000000000 ) ) ;
#319 = EDGE_CURVE ( 'NONE', #19, #204, #13, .T. ) ;
#320 = DIRECTION ( 'NONE',  ( 1.000000000000000000, 0.000000000000000000, 0.000000000000000000 ) ) ;
#321 = VECTOR ( 'NONE', #494, 1000.000000000000000 ) ;
#322 = CIRCLE ( 'NONE', #190, 2.000000000000001776 ) ;
#323 = LINE ( 'NONE', #488, #120 ) ;
#324 = EDGE_CURVE ( 'NONE', #267, #127, #95, .T. ) ;
#325 = FILL_AREA_STYLE ('',( #21 ) ) ;
#326 = ORIENTED_EDGE ( 'NONE', *, *, #168, .T. ) ;
#327 = CARTESIAN_POINT ( 'NONE',  ( -40.64999999999998437, -52.36000000000000654, 2.000000000000000000 ) ) ;
#328 = CYLINDRICAL_SURFACE ( 'NONE', #47, 1.999999999999994893 ) ;
#329 = VERTEX_POINT ( 'NONE', #342 ) ;
#330 = DIRECTION ( 'NONE',  ( 1.405772670969860086E-16, -1.000000000000000000, 0.000000000000000000 ) ) ;
#331 = ORIENTED_EDGE ( 'NONE', *, *, #324, .T. ) ;
#332 =( NAMED_UNIT ( * ) PLANE_ANGLE_UNIT ( ) SI_UNIT ( $, .RADIAN. ) );
#333 = DIRECTION ( 'NONE',  ( 1.000000000000000000, 0.000000000000000000, 0.000000000000000000 ) ) ;
#334 = VERTEX_POINT ( 'NONE', #512 ) ;
#335 = DIRECTION ( 'NONE',  ( -1.405772670969860086E-16, 1.000000000000000000, 0.000000000000000000 ) ) ;
#336 = EDGE_LOOP ( 'NONE', ( #294, #102, #369, #361 ) ) ;
#337 = FACE_BOUND ( 'NONE', #99, .T. ) ;
#338 = EDGE_LOOP ( 'NONE', ( #229, #114, #449, #210 ) ) ;
#339 = CARTESIAN_POINT ( 'NONE',  ( -37.00000000000001421, 47.35999999999999233, 2.000000000000001332 ) ) ;
#340 = EDGE_CURVE ( 'NONE', #387, #19, #322, .T. ) ;
#341 = ORIENTED_EDGE ( 'NONE', *, *, #68, .F. ) ;
#342 = CARTESIAN_POINT ( 'NONE',  ( 30.00000000000000711, -47.43999999999999062, 0.000000000000000000 ) ) ;
#343 = EDGE_CURVE ( 'NONE', #329, #419, #22, .T. ) ;
#344 = LINE ( 'NONE', #381, #12 ) ;
#345 = FACE_BOUND ( 'NONE', #198, .T. ) ;
#346 = DIRECTION ( 'NONE',  ( -1.000000000000000000, 0.000000000000000000, 0.000000000000000000 ) ) ;
#347 = ORIENTED_EDGE ( 'NONE', *, *, #150, .T. ) ;
#348 = DIRECTION ( 'NONE',  ( -0.000000000000000000, 0.000000000000000000, -1.000000000000000000 ) ) ;
#349 = EDGE_LOOP ( 'NONE', ( #195, #302, #134, #69 ) ) ;
#350 = CARTESIAN_POINT ( 'NONE',  ( -40.99999999999999289, 47.35999999999999233, 2.000000000000000000 ) ) ;
#351 = ORIENTED_EDGE ( 'NONE', *, *, #201, .T. ) ;
#352 = PRODUCT_DEFINITION ( 'æœ', '', #305, #497 ) ;
#353 = PLANE ( 'NONE',  #396 ) ;
#354 = DIRECTION ( 'NONE',  ( -0.000000000000000000, -0.000000000000000000, -1.000000000000000000 ) ) ;
#355 = DIRECTION ( 'NONE',  ( 1.000000000000000000, 0.000000000000000000, 0.000000000000000000 ) ) ;
#356 = CARTESIAN_POINT ( 'NONE',  ( 43.65000000000000568, 49.35999999999998522, 2.000000000000000000 ) ) ;
#357 = EDGE_CURVE ( 'NONE', #292, #44, #104, .T. ) ;
#358 = CARTESIAN_POINT ( 'NONE',  ( 33.99999999999997868, 47.35999999999999943, 2.000000000000001332 ) ) ;
#359 = LINE ( 'NONE', #63, #370 ) ;
#360 = AXIS2_PLACEMENT_3D ( 'NONE', #122, #216, #335 ) ;
#361 = ORIENTED_EDGE ( 'NONE', *, *, #34, .T. ) ;
#362 = DIRECTION ( 'NONE',  ( -0.000000000000000000, -0.000000000000000000, 1.000000000000000000 ) ) ;
#363 = CARTESIAN_POINT ( 'NONE',  ( -43.64999999999999858, 49.35999999999998522, 2.000000000000000000 ) ) ;
#364 = ORIENTED_EDGE ( 'NONE', *, *, #541, .F. ) ;
#365 =( NAMED_UNIT ( * ) SI_UNIT ( $, .STERADIAN. ) SOLID_ANGLE_UNIT ( ) );
#366 = LINE ( 'NONE', #247, #395 ) ;
#367 = ORIENTED_EDGE ( 'NONE', *, *, #177, .T. ) ;
#368 = LINE ( 'NONE', #291, #405 ) ;
#369 = ORIENTED_EDGE ( 'NONE', *, *, #159, .F. ) ;
#370 = VECTOR ( 'NONE', #234, 1000.000000000000000 ) ;
#371 = CIRCLE ( 'NONE', #212, 2.000000000000001776 ) ;
#372 = APPLICATION_PROTOCOL_DEFINITION ( 'draft international standard', 'automotive_design', 1998, #510 ) ;
#373 = DIRECTION ( 'NONE',  ( -1.000000000000000000, 0.000000000000000000, 0.000000000000000000 ) ) ;
#374 = EDGE_LOOP ( 'NONE', ( #521, #498, #232, #283 ) ) ;
#375 = DIRECTION ( 'NONE',  ( -1.000000000000000000, 0.000000000000000000, 0.000000000000000000 ) ) ;
#376 = EDGE_LOOP ( 'NONE', ( #392, #273 ) ) ;
#377 = CARTESIAN_POINT ( 'NONE',  ( -40.64999999999998437, -52.36000000000000654, 2.000000000000000000 ) ) ;
#378 = ORIENTED_EDGE ( 'NONE', *, *, #527, .T. ) ;
#379 = CIRCLE ( 'NONE', #312, 1.999999999999988010 ) ;
#380 = DIRECTION ( 'NONE',  ( -0.000000000000000000, -0.000000000000000000, 1.000000000000000000 ) ) ;
#381 = CARTESIAN_POINT ( 'NONE',  ( 40.65000000000000568, 52.35999999999999233, 2.000000000000000000 ) ) ;
#382 = EDGE_CURVE ( 'NONE', #387, #457, #450, .T. ) ;
#383 = DIRECTION ( 'NONE',  ( 1.000000000000000000, 0.000000000000000000, 0.000000000000000000 ) ) ;
#384 = DIRECTION ( 'NONE',  ( 1.000000000000000000, 0.000000000000000000, 0.000000000000000000 ) ) ;
#385 = STYLED_ITEM ( 'NONE', ( #149 ), #49 ) ;
#386 = AXIS2_PLACEMENT_3D ( 'NONE', #401, #530, #151 ) ;
#387 = VERTEX_POINT ( 'NONE', #231 ) ;
#388 = ORIENTED_EDGE ( 'NONE', *, *, #252, .T. ) ;
#389 = DIRECTION ( 'NONE',  ( -0.000000000000000000, -0.000000000000000000, 1.000000000000000000 ) ) ;
#390 = ORIENTED_EDGE ( 'NONE', *, *, #438, .F. ) ;
#391 = CARTESIAN_POINT ( 'NONE',  ( 40.65000000000000568, -49.35999999999999943, 2.000000000000000000 ) ) ;
#392 = ORIENTED_EDGE ( 'NONE', *, *, #206, .F. ) ;
#393 = DIRECTION ( 'NONE',  ( -0.000000000000000000, -0.000000000000000000, 1.000000000000000000 ) ) ;
#394 = DIRECTION ( 'NONE',  ( -0.000000000000000000, -0.000000000000000000, 1.000000000000000000 ) ) ;
#395 = VECTOR ( 'NONE', #285, 1000.000000000000000 ) ;
#396 = AXIS2_PLACEMENT_3D ( 'NONE', #327, #196, #532 ) ;
#397 = APPLICATION_CONTEXT ( 'automotive_design' ) ;
#398 = FACE_OUTER_BOUND ( 'NONE', #421, .T. ) ;
#399 = DIRECTION ( 'NONE',  ( 0.000000000000000000, 0.000000000000000000, 1.000000000000000000 ) ) ;
#400 = EDGE_CURVE ( 'NONE', #19, #387, #516, .T. ) ;
#401 = CARTESIAN_POINT ( 'NONE',  ( 32.00000000000000711, -47.43999999999999062, 2.000000000000001332 ) ) ;
#402 = ORIENTED_EDGE ( 'NONE', *, *, #117, .F. ) ;
#403 = DIRECTION ( 'NONE',  ( -0.000000000000000000, -0.000000000000000000, 1.000000000000000000 ) ) ;
#404 = SURFACE_STYLE_USAGE ( .BOTH. , #197 ) ;
#405 = VECTOR ( 'NONE', #46, 1000.000000000000000 ) ;
#406 = ORIENTED_EDGE ( 'NONE', *, *, #159, .T. ) ;
#407 = FACE_OUTER_BOUND ( 'NONE', #3, .T. ) ;
#408 = ORIENTED_EDGE ( 'NONE', *, *, #306, .F. ) ;
#409 = PLANE ( 'NONE',  #172 ) ;
#410 = UNCERTAINTY_MEASURE_WITH_UNIT (LENGTH_MEASURE( 1.000000000000000082E-05 ), #455, 'distance_accuracy_value', 'NONE');
#411 = VERTEX_POINT ( 'NONE', #70 ) ;
#412 = FACE_OUTER_BOUND ( 'NONE', #160, .T. ) ;
#413 = EDGE_CURVE ( 'NONE', #162, #292, #279, .T. ) ;
#414 = VERTEX_POINT ( 'NONE', #62 ) ;
#415 = AXIS2_PLACEMENT_3D ( 'NONE', #533, #489, #113 ) ;
#416 = LINE ( 'NONE', #290, #545 ) ;
#417 = FACE_OUTER_BOUND ( 'NONE', #35, .T. ) ;
#418 = ADVANCED_FACE ( 'NONE', ( #398 ), #193, .F. ) ;
#419 = VERTEX_POINT ( 'NONE', #482 ) ;
#420 = FACE_OUTER_BOUND ( 'NONE', #338, .T. ) ;
#421 = EDGE_LOOP ( 'NONE', ( #156, #208, #526, #253 ) ) ;
#422 = LINE ( 'NONE', #377, #321 ) ;
#423 = MECHANICAL_DESIGN_GEOMETRIC_PRESENTATION_REPRESENTATION (  '', ( #385 ), #534 ) ;
#424 = VECTOR ( 'NONE', #393, 1000.000000000000000 ) ;
#425 = ADVANCED_FACE ( 'NONE', ( #200 ), #440, .F. ) ;
#426 = FACE_OUTER_BOUND ( 'NONE', #374, .T. ) ;
#427 = DIRECTION ( 'NONE',  ( 1.000000000000000000, 0.000000000000000000, 0.000000000000000000 ) ) ;
#428 = DIRECTION ( 'NONE',  ( -0.000000000000000000, -0.000000000000000000, -1.000000000000000000 ) ) ;
#429 = ORIENTED_EDGE ( 'NONE', *, *, #117, .T. ) ;
#430 = DIRECTION ( 'NONE',  ( -1.000000000000000000, 0.000000000000000000, 0.000000000000000000 ) ) ;
#431 = AXIS2_PLACEMENT_3D ( 'NONE', #111, #192, #320 ) ;
#432 = VECTOR ( 'NONE', #115, 1000.000000000000000 ) ;
#433 = ORIENTED_EDGE ( 'NONE', *, *, #262, .T. ) ;
#434 = EDGE_CURVE ( 'NONE', #107, #72, #180, .T. ) ;
#435 = DIRECTION ( 'NONE',  ( -0.000000000000000000, -0.000000000000000000, -1.000000000000000000 ) ) ;
#436 = ORIENTED_EDGE ( 'NONE', *, *, #413, .T. ) ;
#437 = CARTESIAN_POINT ( 'NONE',  ( 40.65000000000000568, 52.35999999999999233, 0.000000000000000000 ) ) ;
#438 = EDGE_CURVE ( 'NONE', #42, #419, #86, .T. ) ;
#439 =( NAMED_UNIT ( * ) PLANE_ANGLE_UNIT ( ) SI_UNIT ( $, .RADIAN. ) );
#440 = CYLINDRICAL_SURFACE ( 'NONE', #524, 1.999999999999994893 ) ;
#441 = EDGE_CURVE ( 'NONE', #54, #536, #56, .T. ) ;
#442 = CYLINDRICAL_SURFACE ( 'NONE', #431, 1.999999999999994893 ) ;
#443 = CIRCLE ( 'NONE', #55, 1.999999999999988010 ) ;
#444 = AXIS2_PLACEMENT_3D ( 'NONE', #470, #8, #101 ) ;
#445 = DIRECTION ( 'NONE',  ( -0.000000000000000000, -0.000000000000000000, 1.000000000000000000 ) ) ;
#446 = VERTEX_POINT ( 'NONE', #108 ) ;
#447 = CARTESIAN_POINT ( 'NONE',  ( 40.65000000000000568, 52.35999999999999233, 2.000000000000000000 ) ) ;
#448 = DIRECTION ( 'NONE',  ( 7.028863354849300429E-17, -1.000000000000000000, 0.000000000000000000 ) ) ;
#449 = ORIENTED_EDGE ( 'NONE', *, *, #481, .F. ) ;
#450 = LINE ( 'NONE', #480, #313 ) ;
#451 = CARTESIAN_POINT ( 'NONE',  ( 40.65000000000000568, 49.35999999999998522, 2.000000000000000000 ) ) ;
#452 = CIRCLE ( 'NONE', #4, 3.000000000000002665 ) ;
#453 = AXIS2_PLACEMENT_3D ( 'NONE', #220, #166, #133 ) ;
#454 = EDGE_LOOP ( 'NONE', ( #388, #16, #124, #78 ) ) ;
#455 =( LENGTH_UNIT ( ) NAMED_UNIT ( * ) SI_UNIT ( .MILLI., .METRE. ) );
#456 = LINE ( 'NONE', #119, #507 ) ;
#457 = VERTEX_POINT ( 'NONE', #358 ) ;
#458 = PLANE ( 'NONE',  #360 ) ;
#459 = VERTEX_POINT ( 'NONE', #437 ) ;
#460 = LINE ( 'NONE', #82, #254 ) ;
#461 = ADVANCED_FACE ( 'NONE', ( #276 ), #353, .F. ) ;
#462 = ORIENTED_EDGE ( 'NONE', *, *, #188, .T. ) ;
#463 = AXIS2_PLACEMENT_3D ( 'NONE', #80, #465, #89 ) ;
#464 = AXIS2_PLACEMENT_3D ( 'NONE', #10, #184, #476 ) ;
#465 = DIRECTION ( 'NONE',  ( 0.000000000000000000, 0.000000000000000000, 1.000000000000000000 ) ) ;
#466 = ORIENTED_EDGE ( 'NONE', *, *, #61, .T. ) ;
#467 = DIRECTION ( 'NONE',  ( -0.000000000000000000, -0.000000000000000000, -1.000000000000000000 ) ) ;
#468 = FACE_OUTER_BOUND ( 'NONE', #336, .T. ) ;
#469 = VECTOR ( 'NONE', #98, 1000.000000000000000 ) ;
#470 = CARTESIAN_POINT ( 'NONE',  ( 32.00000000000000711, -47.43999999999999062, 0.000000000000000000 ) ) ;
#471 = DIRECTION ( 'NONE',  ( -0.000000000000000000, -0.000000000000000000, -1.000000000000000000 ) ) ;
#472 = EDGE_LOOP ( 'NONE', ( #14, #257, #298, #175, #185, #364, #74, #167 ) ) ;
#473 = DIRECTION ( 'NONE',  ( -0.000000000000000000, -0.000000000000000000, 1.000000000000000000 ) ) ;
#474 = VERTEX_POINT ( 'NONE', #153 ) ;
#475 = EDGE_CURVE ( 'NONE', #107, #474, #323, .T. ) ;
#476 = DIRECTION ( 'NONE',  ( -1.000000000000000000, 0.000000000000000000, 0.000000000000000000 ) ) ;
#477 = AXIS2_PLACEMENT_3D ( 'NONE', #163, #77, #333 ) ;
#478 = AXIS2_PLACEMENT_3D ( 'NONE', #274, #23, #318 ) ;
#479 = ORIENTED_EDGE ( 'NONE', *, *, #297, .F. ) ;
#480 = CARTESIAN_POINT ( 'NONE',  ( 33.99999999999998579, 47.35999999999999943, 2.000000000000000000 ) ) ;
#481 = EDGE_CURVE ( 'NONE', #511, #107, #491, .T. ) ;
#482 = CARTESIAN_POINT ( 'NONE',  ( 30.00000000000002132, -47.43999999999999062, 2.000000000000001332 ) ) ;
#483 =( NAMED_UNIT ( * ) SI_UNIT ( $, .STERADIAN. ) SOLID_ANGLE_UNIT ( ) );
#484 = DIRECTION ( 'NONE',  ( 0.000000000000000000, 0.000000000000000000, 1.000000000000000000 ) ) ;
#485 = CARTESIAN_POINT ( 'NONE',  ( -40.64999999999999858, 49.35999999999998522, 0.000000000000000000 ) ) ;
#486 = AXIS2_PLACEMENT_3D ( 'NONE', #243, #27, #203 ) ;
#487 = AXIS2_PLACEMENT_3D ( 'NONE', #518, #96, #383 ) ;
#488 = CARTESIAN_POINT ( 'NONE',  ( -40.64999999999999858, 52.35999999999999233, 2.000000000000000000 ) ) ;
#489 = DIRECTION ( 'NONE',  ( 0.000000000000000000, 0.000000000000000000, 1.000000000000000000 ) ) ;
#490 = ORIENTED_EDGE ( 'NONE', *, *, #92, .F. ) ;
#491 = LINE ( 'NONE', #64, #432 ) ;
#492 = CARTESIAN_POINT ( 'NONE',  ( -40.99999999999998579, 47.35999999999999233, 2.000000000000001332 ) ) ;
#493 = ORIENTED_EDGE ( 'NONE', *, *, #343, .T. ) ;
#494 = DIRECTION ( 'NONE',  ( 1.000000000000000000, 0.000000000000000000, 0.000000000000000000 ) ) ;
#495 = VECTOR ( 'NONE', #41, 1000.000000000000000 ) ;
#496 = CIRCLE ( 'NONE', #487, 1.999999999999988010 ) ;
#497 = PRODUCT_DEFINITION_CONTEXT ( 'detailed design', #397, 'design' ) ;
#498 = ORIENTED_EDGE ( 'NONE', *, *, #413, .F. ) ;
#499 = PRODUCT_CONTEXT ( 'NONE', #510, 'mechanical' ) ;
#500 = CARTESIAN_POINT ( 'NONE',  ( 40.65000000000000568, 49.35999999999998522, 0.000000000000000000 ) ) ;
#501 = ORIENTED_EDGE ( 'NONE', *, *, #515, .F. ) ;
#502 = EDGE_CURVE ( 'NONE', #54, #446, #237, .T. ) ;
#503 = CARTESIAN_POINT ( 'NONE',  ( -39.00000000000000000, 47.35999999999999233, 2.000000000000001332 ) ) ;
#504 = ORIENTED_EDGE ( 'NONE', *, *, #434, .T. ) ;
#505 = FACE_OUTER_BOUND ( 'NONE', #472, .T. ) ;
#506 = ORIENTED_EDGE ( 'NONE', *, *, #297, .T. ) ;
#507 = VECTOR ( 'NONE', #288, 1000.000000000000000 ) ;
#508 = CIRCLE ( 'NONE', #5, 3.000000000000002665 ) ;
#509 = CARTESIAN_POINT ( 'NONE',  ( -40.64999999999999858, 52.35999999999999233, 2.000000000000000000 ) ) ;
#510 = APPLICATION_CONTEXT ( 'automotive_design' ) ;
#511 = VERTEX_POINT ( 'NONE', #447 ) ;
#512 = CARTESIAN_POINT ( 'NONE',  ( -40.64999999999998437, -52.36000000000000654, 2.000000000000000000 ) ) ;
#513 = LINE ( 'NONE', #222, #535 ) ;
#514 = AXIS2_PLACEMENT_3D ( 'NONE', #261, #128, #373 ) ;
#515 = EDGE_CURVE ( 'NONE', #411, #42, #186, .T. ) ;
#516 = CIRCLE ( 'NONE', #478, 2.000000000000001776 ) ;
#517 = DIRECTION ( 'NONE',  ( -0.000000000000000000, -0.000000000000000000, 1.000000000000000000 ) ) ;
#518 = CARTESIAN_POINT ( 'NONE',  ( 31.99999999999999289, 47.35999999999999943, 2.000000000000001332 ) ) ;
#519 = ORIENTED_EDGE ( 'NONE', *, *, #382, .F. ) ;
#520 = CARTESIAN_POINT ( 'NONE',  ( 43.65000000000000568, 49.35999999999998522, 2.000000000000000000 ) ) ;
#521 = ORIENTED_EDGE ( 'NONE', *, *, #357, .F. ) ;
#522 = AXIS2_PLACEMENT_3D ( 'NONE', #221, #348, #346 ) ;
#523 = CARTESIAN_POINT ( 'NONE',  ( 31.99999999999999289, 47.35999999999999943, 2.000000000000000000 ) ) ;
#524 = AXIS2_PLACEMENT_3D ( 'NONE', #523, #362, #355 ) ;
#525 = CIRCLE ( 'NONE', #464, 3.000000000000002665 ) ;
#526 = ORIENTED_EDGE ( 'NONE', *, *, #515, .T. ) ;
#527 = EDGE_CURVE ( 'NONE', #446, #118, #508, .T. ) ;
#528 = DIRECTION ( 'NONE',  ( -0.000000000000000000, -0.000000000000000000, 1.000000000000000000 ) ) ;
#529 = CARTESIAN_POINT ( 'NONE',  ( -43.64999999999998437, -49.35999999999999943, 2.000000000000000000 ) ) ;
#530 = DIRECTION ( 'NONE',  ( -0.000000000000000000, -0.000000000000000000, 1.000000000000000000 ) ) ;
#531 = FACE_OUTER_BOUND ( 'NONE', #121, .T. ) ;
#532 = DIRECTION ( 'NONE',  ( 0.000000000000000000, -0.000000000000000000, 1.000000000000000000 ) ) ;
#533 = CARTESIAN_POINT ( 'NONE',  ( -40.64999999999998437, -49.35999999999999943, 0.000000000000000000 ) ) ;
#534 =( GEOMETRIC_REPRESENTATION_CONTEXT ( 3 ) GLOBAL_UNCERTAINTY_ASSIGNED_CONTEXT ( ( #174 ) ) GLOBAL_UNIT_ASSIGNED_CONTEXT ( ( #194, #439, #483 ) ) REPRESENTATION_CONTEXT ( 'NONE', 'WORKASPACE' ) );
#535 = VECTOR ( 'NONE', #53, 1000.000000000000000 ) ;
#536 = VERTEX_POINT ( 'NONE', #37 ) ;
#537 = DIRECTION ( 'NONE',  ( 0.000000000000000000, 0.000000000000000000, 1.000000000000000000 ) ) ;
#538 = LINE ( 'NONE', #529, #278 ) ;
#539 = ORIENTED_EDGE ( 'NONE', *, *, #206, .T. ) ;
#540 = DIRECTION ( 'NONE',  ( 0.000000000000000000, -1.000000000000000000, 0.000000000000000000 ) ) ;
#541 = EDGE_CURVE ( 'NONE', #118, #127, #416, .T. ) ;
#542 = ORIENTED_EDGE ( 'NONE', *, *, #262, .F. ) ;
#543 = CARTESIAN_POINT ( 'NONE',  ( -43.64999999999998437, -49.35999999999999943, 2.000000000000000000 ) ) ;
#544 = CIRCLE ( 'NONE', #246, 2.000000000000001776 ) ;
#545 = VECTOR ( 'NONE', #205, 1000.000000000000000 ) ;
#546 = ORIENTED_EDGE ( 'NONE', *, *, #382, .T. ) ;
#547 = CARTESIAN_POINT ( 'NONE',  ( 43.65000000000000568, 49.35999999999998522, 0.000000000000000000 ) ) ;
#548 = EDGE_LOOP ( 'NONE', ( #241, #30, #402, #466 ) ) ;
#549 = FACE_BOUND ( 'NONE', #217, .T. ) ;
ENDSEC;
END-ISO-10303-21;
