ISO-10303-21;
HEADER;
FILE_DESCRIPTION (( 'STEP AP214' ),
    '1' );
FILE_NAME ('µæÆ¬-ÏÂ.STEP',
    '2025-03-26T07:34:10',
    ( '' ),
    ( '' ),
    'SwSTEP 2.0',
    'SolidWorks 2024',
    '' );
FILE_SCHEMA (( 'AUTOMOTIVE_DESIGN' ));
ENDSEC;

DATA;
#1 = CARTESIAN_POINT ( 'NONE',  ( -10.98025612106915183, 8.980256121069356112, 2.000000000000000000 ) ) ;
#2 = FACE_BOUND ( 'NONE', #30, .T. ) ;
#3 = CARTESIAN_POINT ( 'NONE',  ( 6.980256121069361441, 8.980256121069146502, 7.000000000000000000 ) ) ;
#4 = ORIENTED_EDGE ( 'NONE', *, *, #699, .F. ) ;
#5 = CIRCLE ( 'NONE', #95, 3.000000000000002665 ) ;
#6 = CIRCLE ( 'NONE', #951, 3.000000000000002665 ) ;
#7 = AXIS2_PLACEMENT_3D ( 'NONE', #78, #848, #154 ) ;
#8 = PLANE ( 'NONE',  #888 ) ;
#9 = CARTESIAN_POINT ( 'NONE',  ( -31.50000000000000000, 21.00000000000000355, 7.000000000000000000 ) ) ;
#10 = DIRECTION ( 'NONE',  ( 1.000000000000000000, 0.000000000000000000, 0.000000000000000000 ) ) ;
#11 = ORIENTED_EDGE ( 'NONE', *, *, #149, .T. ) ;
#12 = CARTESIAN_POINT ( 'NONE',  ( -36.09999999999999432, -24.91000000000000369, 0.000000000000000000 ) ) ;
#13 = DIRECTION ( 'NONE',  ( -1.000000000000000000, 0.000000000000000000, 0.000000000000000000 ) ) ;
#14 = ORIENTED_EDGE ( 'NONE', *, *, #782, .F. ) ;
#15 = DIRECTION ( 'NONE',  ( 1.000000000000000000, 0.000000000000000000, 0.000000000000000000 ) ) ;
#16 = ORIENTED_EDGE ( 'NONE', *, *, #870, .T. ) ;
#17 = MECHANICAL_DESIGN_GEOMETRIC_PRESENTATION_REPRESENTATION (  '', ( #625 ), #820 ) ;
#18 = EDGE_CURVE ( 'NONE', #350, #660, #457, .T. ) ;
#19 = AXIS2_PLACEMENT_3D ( 'NONE', #93, #542, #252 ) ;
#20 = CARTESIAN_POINT ( 'NONE',  ( 0.000000000000000000, 0.000000000000000000, 2.000000000000000000 ) ) ;
#21 = AXIS2_PLACEMENT_3D ( 'NONE', #913, #297, #918 ) ;
#22 = ORIENTED_EDGE ( 'NONE', *, *, #681, .F. ) ;
#23 = CARTESIAN_POINT ( 'NONE',  ( -8.980256121069363218, -8.980256121069151831, 2.000000000000000000 ) ) ;
#24 = EDGE_LOOP ( 'NONE', ( #504, #251, #817, #590 ) ) ;
#25 = DIRECTION ( 'NONE',  ( -0.000000000000000000, -0.000000000000000000, -1.000000000000000000 ) ) ;
#26 = DIRECTION ( 'NONE',  ( -4.805328188301407500E-17, -1.000000000000000000, 0.000000000000000000 ) ) ;
#27 = CARTESIAN_POINT ( 'NONE',  ( -34.45000000000000284, 21.00000000000000355, 7.000000000000000000 ) ) ;
#28 = ORIENTED_EDGE ( 'NONE', *, *, #173, .T. ) ;
#29 = CARTESIAN_POINT ( 'NONE',  ( -36.09999999999997300, -27.91000000000000369, 0.000000000000000000 ) ) ;
#30 = EDGE_LOOP ( 'NONE', ( #480, #877 ) ) ;
#31 = CARTESIAN_POINT ( 'NONE',  ( -8.980256121069363218, -8.980256121069151831, 2.000000000000000000 ) ) ;
#32 = PLANE ( 'NONE',  #210 ) ;
#33 = CIRCLE ( 'NONE', #952, 2.000000000000000000 ) ;
#34 = ORIENTED_EDGE ( 'NONE', *, *, #779, .T. ) ;
#35 = CARTESIAN_POINT ( 'NONE',  ( -20.50000000000000000, 0.000000000000000000, 2.000000000000000000 ) ) ;
#36 = EDGE_CURVE ( 'NONE', #158, #181, #987, .T. ) ;
#37 = VERTEX_POINT ( 'NONE', #276 ) ;
#38 = CARTESIAN_POINT ( 'NONE',  ( 34.45000000000000284, 21.00000000000000355, 7.000000000000000000 ) ) ;
#39 = CARTESIAN_POINT ( 'NONE',  ( -31.50000000000000000, 21.00000000000000355, 7.000000000000000000 ) ) ;
#40 = EDGE_LOOP ( 'NONE', ( #564, #217 ) ) ;
#41 = EDGE_CURVE ( 'NONE', #700, #158, #580, .T. ) ;
#42 = ORIENTED_EDGE ( 'NONE', *, *, #361, .F. ) ;
#43 = CYLINDRICAL_SURFACE ( 'NONE', #839, 3.000000000000002665 ) ;
#44 = DIRECTION ( 'NONE',  ( -0.000000000000000000, 0.000000000000000000, 1.000000000000000000 ) ) ;
#45 = VERTEX_POINT ( 'NONE', #1 ) ;
#46 =( NAMED_UNIT ( * ) PLANE_ANGLE_UNIT ( ) SI_UNIT ( $, .RADIAN. ) );
#47 = EDGE_CURVE ( 'NONE', #809, #548, #157, .T. ) ;
#48 = CARTESIAN_POINT ( 'NONE',  ( -28.54999999999999361, -20.99999999999999645, 7.000000000000000000 ) ) ;
#49 = CIRCLE ( 'NONE', #356, 1.999999999999998224 ) ;
#50 = AXIS2_PLACEMENT_3D ( 'NONE', #460, #527, #72 ) ;
#51 = VECTOR ( 'NONE', #671, 1000.000000000000000 ) ;
#52 = ORIENTED_EDGE ( 'NONE', *, *, #403, .F. ) ;
#53 = VECTOR ( 'NONE', #984, 1000.000000000000000 ) ;
#54 = CYLINDRICAL_SURFACE ( 'NONE', #759, 3.000000000000002665 ) ;
#55 = DIRECTION ( 'NONE',  ( -0.000000000000000000, -0.000000000000000000, -1.000000000000000000 ) ) ;
#56 = ADVANCED_FACE ( 'NONE', ( #467 ), #163, .F. ) ;
#57 = EDGE_LOOP ( 'NONE', ( #695, #926, #366, #355 ) ) ;
#58 = LINE ( 'NONE', #458, #374 ) ;
#59 = EDGE_CURVE ( 'NONE', #365, #45, #49, .T. ) ;
#60 = LINE ( 'NONE', #452, #51 ) ;
#61 = ORIENTED_EDGE ( 'NONE', *, *, #484, .F. ) ;
#62 = MANIFOLD_SOLID_BREP ( '\X2\52079664\X0\-\X2\62c94f38\X0\2', #225 ) ;
#63 = CARTESIAN_POINT ( 'NONE',  ( -8.980256121069363218, -8.980256121069151831, 7.000000000000000000 ) ) ;
#64 = FACE_OUTER_BOUND ( 'NONE', #636, .T. ) ;
#65 = DIRECTION ( 'NONE',  ( -1.000000000000000000, 0.000000000000000000, 0.000000000000000000 ) ) ;
#66 = AXIS2_PLACEMENT_3D ( 'NONE', #122, #353, #654 ) ;
#67 = VERTEX_POINT ( 'NONE', #996 ) ;
#68 = AXIS2_PLACEMENT_3D ( 'NONE', #466, #371, #75 ) ;
#69 = ORIENTED_EDGE ( 'NONE', *, *, #875, .F. ) ;
#70 = CIRCLE ( 'NONE', #889, 2.950000000000001066 ) ;
#71 = DIRECTION ( 'NONE',  ( 0.000000000000000000, 0.000000000000000000, -1.000000000000000000 ) ) ;
#72 = DIRECTION ( 'NONE',  ( -1.000000000000000000, 0.000000000000000000, 0.000000000000000000 ) ) ;
#73 = CARTESIAN_POINT ( 'NONE',  ( 31.50000000000000711, -20.99999999999999645, 7.000000000000000000 ) ) ;
#74 = EDGE_CURVE ( 'NONE', #995, #300, #232, .T. ) ;
#75 = DIRECTION ( 'NONE',  ( 1.000000000000000000, 0.000000000000000000, 0.000000000000000000 ) ) ;
#76 = LINE ( 'NONE', #388, #439 ) ;
#77 = EDGE_LOOP ( 'NONE', ( #351, #911, #800, #910 ) ) ;
#78 = CARTESIAN_POINT ( 'NONE',  ( 0.000000000000000000, 0.000000000000000000, 0.000000000000000000 ) ) ;
#79 = CARTESIAN_POINT ( 'NONE',  ( -36.09999999999999432, -24.91000000000000369, 0.000000000000000000 ) ) ;
#80 = DIRECTION ( 'NONE',  ( 0.000000000000000000, 0.000000000000000000, 1.000000000000000000 ) ) ;
#81 = VECTOR ( 'NONE', #147, 1000.000000000000000 ) ;
#82 = DIRECTION ( 'NONE',  ( -0.000000000000000000, -0.000000000000000000, 1.000000000000000000 ) ) ;
#83 = VERTEX_POINT ( 'NONE', #920 ) ;
#84 = AXIS2_PLACEMENT_3D ( 'NONE', #788, #956, #710 ) ;
#85 = AXIS2_PLACEMENT_3D ( 'NONE', #652, #570, #716 ) ;
#86 = DIRECTION ( 'NONE',  ( -0.000000000000000000, 0.000000000000000000, 1.000000000000000000 ) ) ;
#87 = LINE ( 'NONE', #622, #691 ) ;
#88 = EDGE_CURVE ( 'NONE', #505, #797, #111, .T. ) ;
#89 = ORIENTED_EDGE ( 'NONE', *, *, #990, .F. ) ;
#90 = DIRECTION ( 'NONE',  ( -0.000000000000000000, -0.000000000000000000, 1.000000000000000000 ) ) ;
#91 = EDGE_CURVE ( 'NONE', #453, #725, #177, .T. ) ;
#92 = ORIENTED_EDGE ( 'NONE', *, *, #584, .F. ) ;
#93 = CARTESIAN_POINT ( 'NONE',  ( 8.980256121069361441, 8.980256121069146502, 7.000000000000000000 ) ) ;
#94 = VERTEX_POINT ( 'NONE', #152 ) ;
#95 = AXIS2_PLACEMENT_3D ( 'NONE', #873, #108, #727 ) ;
#96 = VECTOR ( 'NONE', #110, 1000.000000000000000 ) ;
#97 = DIRECTION ( 'NONE',  ( -0.000000000000000000, -0.000000000000000000, -1.000000000000000000 ) ) ;
#98 = AXIS2_PLACEMENT_3D ( 'NONE', #997, #661, #525 ) ;
#99 = PRODUCT ( '\X2\57ab7247\X0\-\X2\4e0b\X0\', '\X2\57ab7247\X0\-\X2\4e0b\X0\', '', ( #843 ) ) ;
#100 = ORIENTED_EDGE ( 'NONE', *, *, #543, .T. ) ;
#101 = DIRECTION ( 'NONE',  ( -0.000000000000000000, -0.000000000000000000, 1.000000000000000000 ) ) ;
#102 = DIRECTION ( 'NONE',  ( 1.000000000000000000, 0.000000000000000000, 0.000000000000000000 ) ) ;
#103 = DIRECTION ( 'NONE',  ( -0.000000000000000000, -0.000000000000000000, -1.000000000000000000 ) ) ;
#104 = ORIENTED_EDGE ( 'NONE', *, *, #91, .F. ) ;
#105 = CARTESIAN_POINT ( 'NONE',  ( 39.10000000000000853, -24.90999999999998593, 7.000000000000000000 ) ) ;
#106 = EDGE_LOOP ( 'NONE', ( #89, #435 ) ) ;
#107 = CARTESIAN_POINT ( 'NONE',  ( 10.98025612106914828, -8.980256121069359665, 2.000000000000000000 ) ) ;
#108 = DIRECTION ( 'NONE',  ( 0.000000000000000000, 0.000000000000000000, 1.000000000000000000 ) ) ;
#109 = ORIENTED_EDGE ( 'NONE', *, *, #382, .F. ) ;
#110 = DIRECTION ( 'NONE',  ( -0.000000000000000000, 1.000000000000000000, -0.000000000000000000 ) ) ;
#111 = CIRCLE ( 'NONE', #610, 2.950000000000001066 ) ;
#112 = DIRECTION ( 'NONE',  ( 0.000000000000000000, 0.000000000000000000, -1.000000000000000000 ) ) ;
#113 = FACE_OUTER_BOUND ( 'NONE', #24, .T. ) ;
#114 = CARTESIAN_POINT ( 'NONE',  ( 39.10000000000000853, 24.90999999999997527, 0.000000000000000000 ) ) ;
#115 = AXIS2_PLACEMENT_3D ( 'NONE', #299, #303, #826 ) ;
#116 = CIRCLE ( 'NONE', #806, 1.999999999999999112 ) ;
#117 = AXIS2_PLACEMENT_3D ( 'NONE', #879, #190, #102 ) ;
#118 = ORIENTED_EDGE ( 'NONE', *, *, #41, .F. ) ;
#119 = ORIENTED_EDGE ( 'NONE', *, *, #831, .F. ) ;
#120 = EDGE_LOOP ( 'NONE', ( #537, #206, #569, #164 ) ) ;
#121 = CARTESIAN_POINT ( 'NONE',  ( -6.980256121069364106, -8.980256121069151831, 7.000000000000000000 ) ) ;
#122 = CARTESIAN_POINT ( 'NONE',  ( -31.49999999999999289, -20.99999999999999645, 0.000000000000000000 ) ) ;
#123 = EDGE_CURVE ( 'NONE', #170, #347, #463, .T. ) ;
#124 = ORIENTED_EDGE ( 'NONE', *, *, #728, .T. ) ;
#125 = ORIENTED_EDGE ( 'NONE', *, *, #728, .F. ) ;
#126 = DIRECTION ( 'NONE',  ( -1.000000000000000000, 0.000000000000000000, 0.000000000000000000 ) ) ;
#127 = FACE_BOUND ( 'NONE', #106, .T. ) ;
#128 = ORIENTED_EDGE ( 'NONE', *, *, #589, .T. ) ;
#129 = CARTESIAN_POINT ( 'NONE',  ( 0.000000000000000000, 0.000000000000000000, 0.000000000000000000 ) ) ;
#130 = EDGE_CURVE ( 'NONE', #725, #778, #76, .T. ) ;
#131 = DIRECTION ( 'NONE',  ( 1.000000000000000000, 0.000000000000000000, 0.000000000000000000 ) ) ;
#132 = CIRCLE ( 'NONE', #677, 3.000000000000002665 ) ;
#133 = CIRCLE ( 'NONE', #84, 2.950000000000001066 ) ;
#134 = VERTEX_POINT ( 'NONE', #744 ) ;
#135 = AXIS2_PLACEMENT_3D ( 'NONE', #352, #26, #794 ) ;
#136 = EDGE_CURVE ( 'NONE', #947, #369, #375, .T. ) ;
#137 = CYLINDRICAL_SURFACE ( 'NONE', #341, 1.999999999999999112 ) ;
#138 = CARTESIAN_POINT ( 'NONE',  ( -8.980256121069363218, -8.980256121069151831, 7.000000000000000000 ) ) ;
#139 = CYLINDRICAL_SURFACE ( 'NONE', #674, 2.950000000000001066 ) ;
#140 = EDGE_LOOP ( 'NONE', ( #874, #509 ) ) ;
#141 = DIRECTION ( 'NONE',  ( 1.000000000000000000, 0.000000000000000000, 0.000000000000000000 ) ) ;
#142 = DIRECTION ( 'NONE',  ( -0.000000000000000000, -0.000000000000000000, 1.000000000000000000 ) ) ;
#143 = ORIENTED_EDGE ( 'NONE', *, *, #41, .T. ) ;
#144 = ORIENTED_EDGE ( 'NONE', *, *, #136, .T. ) ;
#145 = ADVANCED_FACE ( 'NONE', ( #825 ), #914, .F. ) ;
#146 = DIRECTION ( 'NONE',  ( -0.000000000000000000, -0.000000000000000000, -1.000000000000000000 ) ) ;
#147 = DIRECTION ( 'NONE',  ( 0.000000000000000000, 0.000000000000000000, -1.000000000000000000 ) ) ;
#148 = CARTESIAN_POINT ( 'NONE',  ( -31.50000000000000000, 21.00000000000000355, 0.000000000000000000 ) ) ;
#149 = EDGE_CURVE ( 'NONE', #67, #868, #520, .T. ) ;
#150 = VECTOR ( 'NONE', #765, 1000.000000000000000 ) ;
#151 = CARTESIAN_POINT ( 'NONE',  ( -10.98025612106936322, -8.980256121069151831, 2.000000000000000000 ) ) ;
#152 = CARTESIAN_POINT ( 'NONE',  ( -34.45000000000000284, 21.00000000000000355, 7.000000000000000000 ) ) ;
#153 = ORIENTED_EDGE ( 'NONE', *, *, #47, .T. ) ;
#154 = DIRECTION ( 'NONE',  ( 1.000000000000000000, 0.000000000000000000, 0.000000000000000000 ) ) ;
#155 = LINE ( 'NONE', #465, #150 ) ;
#156 = CARTESIAN_POINT ( 'NONE',  ( 34.45000000000000995, -20.99999999999999645, 7.000000000000000000 ) ) ;
#157 = LINE ( 'NONE', #605, #718 ) ;
#158 = VERTEX_POINT ( 'NONE', #758 ) ;
#159 = DIRECTION ( 'NONE',  ( -0.000000000000000000, -0.000000000000000000, 1.000000000000000000 ) ) ;
#160 = EDGE_CURVE ( 'NONE', #281, #300, #58, .T. ) ;
#161 = EDGE_CURVE ( 'NONE', #933, #746, #335, .T. ) ;
#162 = LINE ( 'NONE', #29, #658 ) ;
#163 = CYLINDRICAL_SURFACE ( 'NONE', #783, 1.999999999999999112 ) ;
#164 = ORIENTED_EDGE ( 'NONE', *, *, #413, .T. ) ;
#165 = AXIS2_PLACEMENT_3D ( 'NONE', #819, #55, #441 ) ;
#166 = CIRCLE ( 'NONE', #196, 20.50000000000000000 ) ;
#167 = AXIS2_PLACEMENT_3D ( 'NONE', #565, #810, #872 ) ;
#168 = EDGE_CURVE ( 'NONE', #205, #409, #902, .T. ) ;
#169 = FACE_BOUND ( 'NONE', #634, .T. ) ;
#170 = VERTEX_POINT ( 'NONE', #592 ) ;
#171 = CARTESIAN_POINT ( 'NONE',  ( 31.50000000000000711, -20.99999999999999645, 7.000000000000000000 ) ) ;
#172 = ORIENTED_EDGE ( 'NONE', *, *, #413, .F. ) ;
#173 = EDGE_CURVE ( 'NONE', #369, #942, #804, .T. ) ;
#174 = DIRECTION ( 'NONE',  ( -0.000000000000000000, -0.000000000000000000, 1.000000000000000000 ) ) ;
#175 = ORIENTED_EDGE ( 'NONE', *, *, #161, .F. ) ;
#176 = EDGE_CURVE ( 'NONE', #797, #754, #981, .T. ) ;
#177 = CIRCLE ( 'NONE', #291, 2.950000000000001066 ) ;
#178 = DIRECTION ( 'NONE',  ( 0.000000000000000000, -1.000000000000000000, 0.000000000000000000 ) ) ;
#179 = DIRECTION ( 'NONE',  ( -0.000000000000000000, -0.000000000000000000, 1.000000000000000000 ) ) ;
#180 = LINE ( 'NONE', #486, #245 ) ;
#181 = VERTEX_POINT ( 'NONE', #445 ) ;
#182 = CARTESIAN_POINT ( 'NONE',  ( -8.980256121069153608, 8.980256121069356112, 7.000000000000000000 ) ) ;
#183 = ORIENTED_EDGE ( 'NONE', *, *, #325, .F. ) ;
#184 = DIRECTION ( 'NONE',  ( -1.000000000000000000, 0.000000000000000000, 0.000000000000000000 ) ) ;
#185 = FACE_BOUND ( 'NONE', #599, .T. ) ;
#186 = EDGE_LOOP ( 'NONE', ( #672, #523, #827, #389, #793, #588, #52, #632 ) ) ;
#187 = DIRECTION ( 'NONE',  ( -1.000000000000000000, 0.000000000000000000, 0.000000000000000000 ) ) ;
#188 = EDGE_LOOP ( 'NONE', ( #781, #464, #379, #42 ) ) ;
#189 = ORIENTED_EDGE ( 'NONE', *, *, #779, .F. ) ;
#190 = DIRECTION ( 'NONE',  ( -0.000000000000000000, -0.000000000000000000, 1.000000000000000000 ) ) ;
#191 = DIRECTION ( 'NONE',  ( 0.000000000000000000, 1.000000000000000000, 0.000000000000000000 ) ) ;
#192 = VERTEX_POINT ( 'NONE', #667 ) ;
#193 = ORIENTED_EDGE ( 'NONE', *, *, #18, .T. ) ;
#194 = DIRECTION ( 'NONE',  ( -0.000000000000000000, -0.000000000000000000, 1.000000000000000000 ) ) ;
#195 = CARTESIAN_POINT ( 'NONE',  ( -31.49999999999999289, -20.99999999999999645, 7.000000000000000000 ) ) ;
#196 = AXIS2_PLACEMENT_3D ( 'NONE', #697, #876, #187 ) ;
#197 = EDGE_CURVE ( 'NONE', #709, #205, #290, .T. ) ;
#198 = VERTEX_POINT ( 'NONE', #450 ) ;
#199 = ORIENTED_EDGE ( 'NONE', *, *, #168, .F. ) ;
#200 = FACE_OUTER_BOUND ( 'NONE', #322, .T. ) ;
#201 = DIRECTION ( 'NONE',  ( -0.000000000000000000, -0.000000000000000000, 1.000000000000000000 ) ) ;
#202 = ORIENTED_EDGE ( 'NONE', *, *, #433, .T. ) ;
#203 = DIRECTION ( 'NONE',  ( -1.000000000000000000, 0.000000000000000000, 0.000000000000000000 ) ) ;
#204 = DIRECTION ( 'NONE',  ( -0.000000000000000000, -0.000000000000000000, -1.000000000000000000 ) ) ;
#205 = VERTEX_POINT ( 'NONE', #298 ) ;
#206 = ORIENTED_EDGE ( 'NONE', *, *, #354, .F. ) ;
#207 = CARTESIAN_POINT ( 'NONE',  ( 39.10000000000000853, -24.90999999999998593, 0.000000000000000000 ) ) ;
#208 = CYLINDRICAL_SURFACE ( 'NONE', #544, 1.999999999999999112 ) ;
#209 = VECTOR ( 'NONE', #985, 1000.000000000000000 ) ;
#210 = AXIS2_PLACEMENT_3D ( 'NONE', #881, #191, #491 ) ;
#211 = CIRCLE ( 'NONE', #309, 2.950000000000001066 ) ;
#212 = EDGE_LOOP ( 'NONE', ( #706, #104 ) ) ;
#213 = CARTESIAN_POINT ( 'NONE',  ( 28.54999999999999716, 21.00000000000000355, 7.000000000000000000 ) ) ;
#214 = DIRECTION ( 'NONE',  ( 0.000000000000000000, 0.000000000000000000, -1.000000000000000000 ) ) ;
#215 = FACE_OUTER_BOUND ( 'NONE', #329, .T. ) ;
#216 = ADVANCED_FACE ( 'NONE', ( #64 ), #901, .F. ) ;
#217 = ORIENTED_EDGE ( 'NONE', *, *, #862, .F. ) ;
#218 = EDGE_LOOP ( 'NONE', ( #125, #414 ) ) ;
#219 = CARTESIAN_POINT ( 'NONE',  ( 36.10000000000000853, 24.90999999999999304, 7.000000000000000000 ) ) ;
#220 = DIRECTION ( 'NONE',  ( -0.000000000000000000, 0.000000000000000000, 1.000000000000000000 ) ) ;
#221 = ADVANCED_FACE ( 'NONE', ( #283 ), #898, .T. ) ;
#222 = CARTESIAN_POINT ( 'NONE',  ( -28.54999999999999361, -20.99999999999999645, 7.000000000000000000 ) ) ;
#223 = PRESENTATION_STYLE_ASSIGNMENT (( #540 ) ) ;
#224 = DIRECTION ( 'NONE',  ( -0.000000000000000000, 0.000000000000000000, -1.000000000000000000 ) ) ;
#225 = CLOSED_SHELL ( 'NONE', ( #935, #624, #216, #945, #145, #730, #226, #965, #761, #694, #56, #572, #529, #698, #859, #271, #941, #514, #983, #803, #221, #451, #234, #805, #343, #454, #955, #752, #895 ) ) ;
#226 = ADVANCED_FACE ( 'NONE', ( #368 ), #208, .F. ) ;
#227 = AXIS2_PLACEMENT_3D ( 'NONE', #598, #65, #377 ) ;
#228 = DIRECTION ( 'NONE',  ( -0.000000000000000000, -0.000000000000000000, 1.000000000000000000 ) ) ;
#229 = VECTOR ( 'NONE', #865, 1000.000000000000000 ) ;
#230 = CARTESIAN_POINT ( 'NONE',  ( -34.44999999999999574, -20.99999999999999645, 7.000000000000000000 ) ) ;
#231 = CARTESIAN_POINT ( 'NONE',  ( 8.980256121069150055, -8.980256121069359665, 2.000000000000000000 ) ) ;
#232 = LINE ( 'NONE', #528, #558 ) ;
#233 = EDGE_LOOP ( 'NONE', ( #729, #143, #468, #776 ) ) ;
#234 = ADVANCED_FACE ( 'NONE', ( #185, #802, #418, #127, #275, #577, #269, #349, #717 ), #815, .F. ) ;
#235 = APPLICATION_PROTOCOL_DEFINITION ( 'draft international standard', 'automotive_design', 1998, #851 ) ;
#236 = DIRECTION ( 'NONE',  ( 0.000000000000000000, 0.000000000000000000, -1.000000000000000000 ) ) ;
#237 = CARTESIAN_POINT ( 'NONE',  ( 36.10000000000000853, -24.91000000000000369, 0.000000000000000000 ) ) ;
#238 = FILL_AREA_STYLE ('',( #917 ) ) ;
#239 = ORIENTED_EDGE ( 'NONE', *, *, #160, .F. ) ;
#240 = EDGE_CURVE ( 'NONE', #94, #660, #712, .T. ) ;
#241 = EDGE_CURVE ( 'NONE', #453, #277, #733, .T. ) ;
#242 = FACE_BOUND ( 'NONE', #720, .T. ) ;
#243 = UNCERTAINTY_MEASURE_WITH_UNIT (LENGTH_MEASURE( 1.000000000000000082E-05 ), #814, 'distance_accuracy_value', 'NONE');
#244 = VECTOR ( 'NONE', #614, 1000.000000000000000 ) ;
#245 = VECTOR ( 'NONE', #103, 1000.000000000000000 ) ;
#246 = EDGE_LOOP ( 'NONE', ( #508, #183, #882, #434 ) ) ;
#247 = AXIS2_PLACEMENT_3D ( 'NONE', #603, #613, #224 ) ;
#248 = CIRCLE ( 'NONE', #21, 2.950000000000001066 ) ;
#249 = DIRECTION ( 'NONE',  ( -0.000000000000000000, 0.000000000000000000, 1.000000000000000000 ) ) ;
#250 = PRODUCT_DEFINITION ( 'æœ', '', #693, #908 ) ;
#251 = ORIENTED_EDGE ( 'NONE', *, *, #549, .F. ) ;
#252 = DIRECTION ( 'NONE',  ( 1.000000000000000000, 0.000000000000000000, 0.000000000000000000 ) ) ;
#253 = EDGE_CURVE ( 'NONE', #541, #475, #507, .T. ) ;
#254 = ORIENTED_EDGE ( 'NONE', *, *, #533, .F. ) ;
#255 = CARTESIAN_POINT ( 'NONE',  ( 39.10000000000000853, -24.90999999999998593, 7.000000000000000000 ) ) ;
#256 = DIRECTION ( 'NONE',  ( 1.000000000000000000, 0.000000000000000000, 0.000000000000000000 ) ) ;
#257 = CARTESIAN_POINT ( 'NONE',  ( 39.10000000000000853, 24.90999999999997527, 7.000000000000000000 ) ) ;
#258 = ORIENTED_EDGE ( 'NONE', *, *, #176, .F. ) ;
#259 = CARTESIAN_POINT ( 'NONE',  ( 39.10000000000000853, 24.90999999999997527, 7.000000000000000000 ) ) ;
#260 = AXIS2_PLACEMENT_3D ( 'NONE', #774, #101, #410 ) ;
#261 = EDGE_LOOP ( 'NONE', ( #680, #735, #494, #791 ) ) ;
#262 = CARTESIAN_POINT ( 'NONE',  ( 28.55000000000000071, -20.99999999999999645, 7.000000000000000000 ) ) ;
#263 = DIRECTION ( 'NONE',  ( -0.000000000000000000, -0.000000000000000000, 1.000000000000000000 ) ) ;
#264 = EDGE_LOOP ( 'NONE', ( #489, #119, #847, #416 ) ) ;
#265 = DIRECTION ( 'NONE',  ( -0.000000000000000000, -0.000000000000000000, -1.000000000000000000 ) ) ;
#266 = EDGE_CURVE ( 'NONE', #725, #453, #307, .T. ) ;
#267 = ORIENTED_EDGE ( 'NONE', *, *, #880, .F. ) ;
#268 = DIRECTION ( 'NONE',  ( -1.000000000000000000, 0.000000000000000000, 0.000000000000000000 ) ) ;
#269 = FACE_BOUND ( 'NONE', #860, .T. ) ;
#270 = VERTEX_POINT ( 'NONE', #362 ) ;
#271 = ADVANCED_FACE ( 'NONE', ( #950 ), #32, .F. ) ;
#272 = ORIENTED_EDGE ( 'NONE', *, *, #419, .T. ) ;
#273 = ORIENTED_EDGE ( 'NONE', *, *, #620, .T. ) ;
#274 = LINE ( 'NONE', #884, #938 ) ;
#275 = FACE_BOUND ( 'NONE', #218, .T. ) ;
#276 = CARTESIAN_POINT ( 'NONE',  ( 34.45000000000000995, -20.99999999999999645, 0.000000000000000000 ) ) ;
#277 = VERTEX_POINT ( 'NONE', #795 ) ;
#278 = DIRECTION ( 'NONE',  ( -0.000000000000000000, 0.000000000000000000, 1.000000000000000000 ) ) ;
#279 = CARTESIAN_POINT ( 'NONE',  ( 28.54999999999999716, 21.00000000000000355, 0.000000000000000000 ) ) ;
#280 = CIRCLE ( 'NONE', #579, 3.000000000000002665 ) ;
#281 = VERTEX_POINT ( 'NONE', #257 ) ;
#282 = DIRECTION ( 'NONE',  ( -0.000000000000000000, -0.000000000000000000, -1.000000000000000000 ) ) ;
#283 = FACE_OUTER_BOUND ( 'NONE', #284, .T. ) ;
#284 = EDGE_LOOP ( 'NONE', ( #615, #172, #487, #34 ) ) ;
#285 = EDGE_LOOP ( 'NONE', ( #974, #857 ) ) ;
#286 = DIRECTION ( 'NONE',  ( -0.000000000000000000, -0.000000000000000000, 1.000000000000000000 ) ) ;
#287 = DIRECTION ( 'NONE',  ( -1.000000000000000000, 0.000000000000000000, 0.000000000000000000 ) ) ;
#288 = ORIENTED_EDGE ( 'NONE', *, *, #576, .T. ) ;
#289 = CARTESIAN_POINT ( 'NONE',  ( -6.980256121069154496, 8.980256121069356112, 7.000000000000000000 ) ) ;
#290 = LINE ( 'NONE', #978, #988 ) ;
#291 = AXIS2_PLACEMENT_3D ( 'NONE', #684, #301, #841 ) ;
#292 = DIRECTION ( 'NONE',  ( -1.000000000000000000, 0.000000000000000000, 0.000000000000000000 ) ) ;
#293 = VECTOR ( 'NONE', #265, 1000.000000000000000 ) ;
#294 = ORIENTED_EDGE ( 'NONE', *, *, #594, .T. ) ;
#295 = CIRCLE ( 'NONE', #85, 3.000000000000002665 ) ;
#296 = ORIENTED_EDGE ( 'NONE', *, *, #518, .T. ) ;
#297 = DIRECTION ( 'NONE',  ( -0.000000000000000000, 0.000000000000000000, 1.000000000000000000 ) ) ;
#298 = CARTESIAN_POINT ( 'NONE',  ( 10.98025612106936144, 8.980256121069146502, 7.000000000000000000 ) ) ;
#299 = CARTESIAN_POINT ( 'NONE',  ( 31.50000000000000000, 21.00000000000000355, 7.000000000000000000 ) ) ;
#300 = VERTEX_POINT ( 'NONE', #114 ) ;
#301 = DIRECTION ( 'NONE',  ( -0.000000000000000000, 0.000000000000000000, 1.000000000000000000 ) ) ;
#302 = CARTESIAN_POINT ( 'NONE',  ( 6.980256121069362329, 8.980256121069146502, 7.000000000000000000 ) ) ;
#303 = DIRECTION ( 'NONE',  ( -0.000000000000000000, 0.000000000000000000, 1.000000000000000000 ) ) ;
#304 = DIRECTION ( 'NONE',  ( -0.000000000000000000, -0.000000000000000000, 1.000000000000000000 ) ) ;
#305 = FACE_BOUND ( 'NONE', #982, .T. ) ;
#306 = DIRECTION ( 'NONE',  ( 0.000000000000000000, 0.000000000000000000, 1.000000000000000000 ) ) ;
#307 = CIRCLE ( 'NONE', #972, 2.950000000000001066 ) ;
#308 = EDGE_CURVE ( 'NONE', #45, #365, #336, .T. ) ;
#309 = AXIS2_PLACEMENT_3D ( 'NONE', #563, #869, #398 ) ;
#310 = SURFACE_SIDE_STYLE ('',( #536 ) ) ;
#311 =( GEOMETRIC_REPRESENTATION_CONTEXT ( 3 ) GLOBAL_UNCERTAINTY_ASSIGNED_CONTEXT ( ( #243 ) ) GLOBAL_UNIT_ASSIGNED_CONTEXT ( ( #814, #46, #449 ) ) REPRESENTATION_CONTEXT ( 'NONE', 'WORKASPACE' ) );
#312 = ORIENTED_EDGE ( 'NONE', *, *, #173, .F. ) ;
#313 = CARTESIAN_POINT ( 'NONE',  ( 28.55000000000000071, -20.99999999999999645, 0.000000000000000000 ) ) ;
#314 = DIRECTION ( 'NONE',  ( 0.000000000000000000, 0.000000000000000000, -1.000000000000000000 ) ) ;
#315 = CARTESIAN_POINT ( 'NONE',  ( 20.50000000000000000, 2.510525938252074481E-15, 2.000000000000000000 ) ) ;
#316 = ORIENTED_EDGE ( 'NONE', *, *, #594, .F. ) ;
#317 = DIRECTION ( 'NONE',  ( -1.000000000000000000, 0.000000000000000000, 0.000000000000000000 ) ) ;
#318 = CARTESIAN_POINT ( 'NONE',  ( -28.55000000000000071, 21.00000000000000355, 7.000000000000000000 ) ) ;
#319 = EDGE_LOOP ( 'NONE', ( #28, #976 ) ) ;
#320 = CARTESIAN_POINT ( 'NONE',  ( -36.09999999999999432, 24.90999999999999659, 0.000000000000000000 ) ) ;
#321 = VECTOR ( 'NONE', #737, 1000.000000000000000 ) ;
#322 = EDGE_LOOP ( 'NONE', ( #118, #656, #807, #430 ) ) ;
#323 = AXIS2_PLACEMENT_3D ( 'NONE', #474, #86, #386 ) ;
#324 = AXIS2_PLACEMENT_3D ( 'NONE', #440, #519, #360 ) ;
#325 = EDGE_CURVE ( 'NONE', #573, #541, #427, .T. ) ;
#326 = DIRECTION ( 'NONE',  ( 1.000000000000000000, 0.000000000000000000, 0.000000000000000000 ) ) ;
#327 = ORIENTED_EDGE ( 'NONE', *, *, #47, .F. ) ;
#328 = CARTESIAN_POINT ( 'NONE',  ( 8.980256121069150055, -8.980256121069359665, 7.000000000000000000 ) ) ;
#329 = EDGE_LOOP ( 'NONE', ( #593, #4, #751, #890 ) ) ;
#330 = FACE_OUTER_BOUND ( 'NONE', #903, .T. ) ;
#331 = CYLINDRICAL_SURFACE ( 'NONE', #167, 2.950000000000004619 ) ;
#332 = CARTESIAN_POINT ( 'NONE',  ( -8.980256121069153608, 8.980256121069356112, 7.000000000000000000 ) ) ;
#333 = VERTEX_POINT ( 'NONE', #432 ) ;
#334 = EDGE_CURVE ( 'NONE', #347, #67, #5, .T. ) ;
#335 = CIRCLE ( 'NONE', #934, 2.000000000000000000 ) ;
#336 = CIRCLE ( 'NONE', #904, 1.999999999999998224 ) ;
#337 = FACE_OUTER_BOUND ( 'NONE', #357, .T. ) ;
#338 = AXIS2_PLACEMENT_3D ( 'NONE', #849, #90, #401 ) ;
#339 = DIRECTION ( 'NONE',  ( -0.000000000000000000, 0.000000000000000000, 1.000000000000000000 ) ) ;
#340 = DIRECTION ( 'NONE',  ( -1.000000000000000000, 0.000000000000000000, 0.000000000000000000 ) ) ;
#341 = AXIS2_PLACEMENT_3D ( 'NONE', #63, #286, #669 ) ;
#342 = DIRECTION ( 'NONE',  ( 0.000000000000000000, 0.000000000000000000, -1.000000000000000000 ) ) ;
#343 = ADVANCED_FACE ( 'NONE', ( #790 ), #557, .F. ) ;
#344 = ORIENTED_EDGE ( 'NONE', *, *, #663, .T. ) ;
#345 = LINE ( 'NONE', #259, #96 ) ;
#346 = EDGE_LOOP ( 'NONE', ( #296, #787, #833, #651 ) ) ;
#347 = VERTEX_POINT ( 'NONE', #649 ) ;
#348 = LINE ( 'NONE', #969, #722 ) ;
#349 = FACE_BOUND ( 'NONE', #724, .T. ) ;
#350 = VERTEX_POINT ( 'NONE', #811 ) ;
#351 = ORIENTED_EDGE ( 'NONE', *, *, #308, .F. ) ;
#352 = CARTESIAN_POINT ( 'NONE',  ( -36.09999999999997300, 27.90999999999999659, 7.000000000000000000 ) ) ;
#353 = DIRECTION ( 'NONE',  ( -0.000000000000000000, 0.000000000000000000, 1.000000000000000000 ) ) ;
#354 = EDGE_CURVE ( 'NONE', #347, #517, #180, .T. ) ;
#355 = ORIENTED_EDGE ( 'NONE', *, *, #18, .F. ) ;
#356 = AXIS2_PLACEMENT_3D ( 'NONE', #381, #82, #929 ) ;
#357 = EDGE_LOOP ( 'NONE', ( #124, #853, #979, #258 ) ) ;
#358 = ORIENTED_EDGE ( 'NONE', *, *, #59, .F. ) ;
#359 = CIRCLE ( 'NONE', #50, 20.50000000000000000 ) ;
#360 = DIRECTION ( 'NONE',  ( -1.000000000000000000, 0.000000000000000000, 0.000000000000000000 ) ) ;
#361 = EDGE_CURVE ( 'NONE', #277, #778, #657, .T. ) ;
#362 = CARTESIAN_POINT ( 'NONE',  ( 6.980256121069150055, -8.980256121069359665, 7.000000000000000000 ) ) ;
#363 = AXIS2_PLACEMENT_3D ( 'NONE', #148, #384, #986 ) ;
#364 = CIRCLE ( 'NONE', #547, 20.50000000000000000 ) ;
#365 = VERTEX_POINT ( 'NONE', #971 ) ;
#366 = ORIENTED_EDGE ( 'NONE', *, *, #240, .T. ) ;
#367 = DIRECTION ( 'NONE',  ( -0.000000000000000000, -0.000000000000000000, -1.000000000000000000 ) ) ;
#368 = FACE_OUTER_BOUND ( 'NONE', #77, .T. ) ;
#369 = VERTEX_POINT ( 'NONE', #279 ) ;
#370 = DIRECTION ( 'NONE',  ( -0.000000000000000000, -0.000000000000000000, 1.000000000000000000 ) ) ;
#371 = DIRECTION ( 'NONE',  ( -0.000000000000000000, -0.000000000000000000, 1.000000000000000000 ) ) ;
#372 = ORIENTED_EDGE ( 'NONE', *, *, #915, .T. ) ;
#373 = CARTESIAN_POINT ( 'NONE',  ( 34.45000000000000284, 21.00000000000000355, 0.000000000000000000 ) ) ;
#374 = VECTOR ( 'NONE', #204, 1000.000000000000000 ) ;
#375 = LINE ( 'NONE', #906, #81 ) ;
#376 = CIRCLE ( 'NONE', #561, 1.999999999999999112 ) ;
#377 = DIRECTION ( 'NONE',  ( 0.000000000000000000, 0.000000000000000000, 1.000000000000000000 ) ) ;
#378 = CIRCLE ( 'NONE', #98, 2.000000000000000000 ) ;
#379 = ORIENTED_EDGE ( 'NONE', *, *, #130, .T. ) ;
#380 = EDGE_CURVE ( 'NONE', #409, #205, #887, .T. ) ;
#381 = CARTESIAN_POINT ( 'NONE',  ( -8.980256121069153608, 8.980256121069356112, 2.000000000000000000 ) ) ;
#382 = EDGE_CURVE ( 'NONE', #868, #448, #836, .T. ) ;
#383 = CYLINDRICAL_SURFACE ( 'NONE', #324, 2.950000000000004619 ) ;
#384 = DIRECTION ( 'NONE',  ( -0.000000000000000000, 0.000000000000000000, 1.000000000000000000 ) ) ;
#385 = DIRECTION ( 'NONE',  ( -0.000000000000000000, 0.000000000000000000, 1.000000000000000000 ) ) ;
#386 = DIRECTION ( 'NONE',  ( 1.000000000000000000, 0.000000000000000000, 0.000000000000000000 ) ) ;
#387 = CARTESIAN_POINT ( 'NONE',  ( 36.09999999999998721, -27.91000000000000369, 7.000000000000000000 ) ) ;
#388 = CARTESIAN_POINT ( 'NONE',  ( -34.44999999999999574, -20.99999999999999645, 7.000000000000000000 ) ) ;
#389 = ORIENTED_EDGE ( 'NONE', *, *, #253, .F. ) ;
#390 = APPLICATION_PROTOCOL_DEFINITION ( 'draft international standard', 'automotive_design', 1998, #630 ) ;
#391 = DIRECTION ( 'NONE',  ( 0.000000000000000000, 0.000000000000000000, 1.000000000000000000 ) ) ;
#392 = CARTESIAN_POINT ( 'NONE',  ( -39.09999999999999432, 24.90999999999997883, 0.000000000000000000 ) ) ;
#393 = AXIS2_PLACEMENT_3D ( 'NONE', #923, #249, #940 ) ;
#394 = AXIS2_PLACEMENT_3D ( 'NONE', #818, #510, #980 ) ;
#395 = ORIENTED_EDGE ( 'NONE', *, *, #123, .T. ) ;
#396 = DIRECTION ( 'NONE',  ( -0.000000000000000000, -0.000000000000000000, 1.000000000000000000 ) ) ;
#397 = UNCERTAINTY_MEASURE_WITH_UNIT (LENGTH_MEASURE( 1.000000000000000082E-05 ), #461, 'distance_accuracy_value', 'NONE');
#398 = DIRECTION ( 'NONE',  ( 1.000000000000000000, 0.000000000000000000, 0.000000000000000000 ) ) ;
#399 = ORIENTED_EDGE ( 'NONE', *, *, #266, .T. ) ;
#400 = EDGE_CURVE ( 'NONE', #478, #700, #359, .T. ) ;
#401 = DIRECTION ( 'NONE',  ( 1.000000000000000000, 0.000000000000000000, 0.000000000000000000 ) ) ;
#402 = ORIENTED_EDGE ( 'NONE', *, *, #870, .F. ) ;
#403 = EDGE_CURVE ( 'NONE', #448, #995, #132, .T. ) ;
#404 = CARTESIAN_POINT ( 'NONE',  ( 8.980256121069361441, 8.980256121069146502, 2.000000000000000000 ) ) ;
#405 = EDGE_LOOP ( 'NONE', ( #647, #372, #497, #327 ) ) ;
#406 = CIRCLE ( 'NONE', #481, 2.950000000000001066 ) ;
#407 = AXIS2_PLACEMENT_3D ( 'NONE', #506, #97, #708 ) ;
#408 = LINE ( 'NONE', #789, #975 ) ;
#409 = VERTEX_POINT ( 'NONE', #3 ) ;
#410 = DIRECTION ( 'NONE',  ( 1.000000000000000000, 0.000000000000000000, 0.000000000000000000 ) ) ;
#411 = PLANE ( 'NONE',  #135 ) ;
#412 = DIRECTION ( 'NONE',  ( -1.000000000000000000, 0.000000000000000000, 0.000000000000000000 ) ) ;
#413 = EDGE_CURVE ( 'NONE', #170, #513, #760, .T. ) ;
#414 = ORIENTED_EDGE ( 'NONE', *, *, #88, .F. ) ;
#415 = DIRECTION ( 'NONE',  ( -0.000000000000000000, -0.000000000000000000, -1.000000000000000000 ) ) ;
#416 = ORIENTED_EDGE ( 'NONE', *, *, #161, .T. ) ;
#417 = DIRECTION ( 'NONE',  ( -0.000000000000000000, -0.000000000000000000, 1.000000000000000000 ) ) ;
#418 = FACE_BOUND ( 'NONE', #899, .T. ) ;
#419 = EDGE_CURVE ( 'NONE', #660, #350, #921, .T. ) ;
#420 = AXIS2_PLACEMENT_3D ( 'NONE', #596, #220, #141 ) ;
#421 = ORIENTED_EDGE ( 'NONE', *, *, #59, .T. ) ;
#422 = DIRECTION ( 'NONE',  ( -0.000000000000000000, -0.000000000000000000, 1.000000000000000000 ) ) ;
#423 = AXIS2_PLACEMENT_3D ( 'NONE', #20, #236, #553 ) ;
#424 = ORIENTED_EDGE ( 'NONE', *, *, #991, .T. ) ;
#425 = DIRECTION ( 'NONE',  ( -0.000000000000000000, -0.000000000000000000, -1.000000000000000000 ) ) ;
#426 = VECTOR ( 'NONE', #748, 1000.000000000000000 ) ;
#427 = LINE ( 'NONE', #662, #719 ) ;
#428 = ORIENTED_EDGE ( 'NONE', *, *, #912, .T. ) ;
#429 = DIRECTION ( 'NONE',  ( 1.000000000000000000, 0.000000000000000000, 0.000000000000000000 ) ) ;
#430 = ORIENTED_EDGE ( 'NONE', *, *, #953, .T. ) ;
#431 = CARTESIAN_POINT ( 'NONE',  ( -36.09999999999999432, -24.91000000000000369, 7.000000000000000000 ) ) ;
#432 = CARTESIAN_POINT ( 'NONE',  ( 34.45000000000000284, 21.00000000000000355, 7.000000000000000000 ) ) ;
#433 = EDGE_CURVE ( 'NONE', #281, #573, #612, .T. ) ;
#434 = ORIENTED_EDGE ( 'NONE', *, *, #160, .T. ) ;
#435 = ORIENTED_EDGE ( 'NONE', *, *, #907, .F. ) ;
#436 = FACE_OUTER_BOUND ( 'NONE', #233, .T. ) ;
#437 = CARTESIAN_POINT ( 'NONE',  ( -36.09999999999999432, -24.91000000000000369, 7.000000000000000000 ) ) ;
#438 = ORIENTED_EDGE ( 'NONE', *, *, #484, .T. ) ;
#439 = VECTOR ( 'NONE', #515, 1000.000000000000000 ) ;
#440 = CARTESIAN_POINT ( 'NONE',  ( 31.50000000000000711, -20.99999999999999645, 7.000000000000000000 ) ) ;
#441 = DIRECTION ( 'NONE',  ( -1.000000000000000000, 0.000000000000000000, 0.000000000000000000 ) ) ;
#442 = AXIS2_PLACEMENT_3D ( 'NONE', #641, #493, #13 ) ;
#443 = EDGE_LOOP ( 'NONE', ( #702, #316, #878, #640 ) ) ;
#444 = FACE_OUTER_BOUND ( 'NONE', #246, .T. ) ;
#445 = CARTESIAN_POINT ( 'NONE',  ( -20.50000000000000000, 0.000000000000000000, 0.000000000000000000 ) ) ;
#446 = DIRECTION ( 'NONE',  ( 0.000000000000000000, 0.000000000000000000, 1.000000000000000000 ) ) ;
#447 = EDGE_CURVE ( 'NONE', #947, #333, #472, .T. ) ;
#448 = VERTEX_POINT ( 'NONE', #608 ) ;
#449 =( NAMED_UNIT ( * ) SI_UNIT ( $, .STERADIAN. ) SOLID_ANGLE_UNIT ( ) );
#450 = CARTESIAN_POINT ( 'NONE',  ( 6.980256121069362329, 8.980256121069146502, 2.000000000000000000 ) ) ;
#451 = ADVANCED_FACE ( 'NONE', ( #909 ), #840, .F. ) ;
#452 = CARTESIAN_POINT ( 'NONE',  ( -10.98025612106936322, -8.980256121069151831, 7.000000000000000000 ) ) ;
#453 = VERTEX_POINT ( 'NONE', #222 ) ;
#454 = ADVANCED_FACE ( 'NONE', ( #924 ), #139, .F. ) ;
#455 = ORIENTED_EDGE ( 'NONE', *, *, #915, .F. ) ;
#456 = LINE ( 'NONE', #905, #426 ) ;
#457 = CIRCLE ( 'NONE', #655, 2.950000000000001066 ) ;
#458 = CARTESIAN_POINT ( 'NONE',  ( 39.10000000000000853, 24.90999999999997527, 7.000000000000000000 ) ) ;
#459 = AXIS2_PLACEMENT_3D ( 'NONE', #171, #685, #15 ) ;
#460 = CARTESIAN_POINT ( 'NONE',  ( 0.000000000000000000, 0.000000000000000000, 2.000000000000000000 ) ) ;
#461 =( LENGTH_UNIT ( ) NAMED_UNIT ( * ) SI_UNIT ( .MILLI., .METRE. ) );
#462 = CARTESIAN_POINT ( 'NONE',  ( -36.09999999999997300, 27.90999999999999659, 0.000000000000000000 ) ) ;
#463 = LINE ( 'NONE', #763, #244 ) ;
#464 = ORIENTED_EDGE ( 'NONE', *, *, #91, .T. ) ;
#465 = CARTESIAN_POINT ( 'NONE',  ( -36.09999999999997300, 27.90999999999999659, 7.000000000000000000 ) ) ;
#466 = CARTESIAN_POINT ( 'NONE',  ( -8.980256121069363218, -8.980256121069151831, 7.000000000000000000 ) ) ;
#467 = FACE_OUTER_BOUND ( 'NONE', #264, .T. ) ;
#468 = ORIENTED_EDGE ( 'NONE', *, *, #36, .T. ) ;
#469 = DIRECTION ( 'NONE',  ( 0.000000000000000000, 0.000000000000000000, 1.000000000000000000 ) ) ;
#470 = DIRECTION ( 'NONE',  ( 1.000000000000000000, 0.000000000000000000, 0.000000000000000000 ) ) ;
#471 = AXIS2_PLACEMENT_3D ( 'NONE', #829, #370, #749 ) ;
#472 = CIRCLE ( 'NONE', #115, 2.950000000000001066 ) ;
#473 = VERTEX_POINT ( 'NONE', #151 ) ;
#474 = CARTESIAN_POINT ( 'NONE',  ( -31.49999999999999289, -20.99999999999999645, 0.000000000000000000 ) ) ;
#475 = VERTEX_POINT ( 'NONE', #462 ) ;
#476 = DIRECTION ( 'NONE',  ( -1.000000000000000000, 0.000000000000000000, 0.000000000000000000 ) ) ;
#477 = EDGE_CURVE ( 'NONE', #809, #832, #545, .T. ) ;
#478 = VERTEX_POINT ( 'NONE', #535 ) ;
#479 = FACE_OUTER_BOUND ( 'NONE', #944, .T. ) ;
#480 = ORIENTED_EDGE ( 'NONE', *, *, #953, .F. ) ;
#481 = AXIS2_PLACEMENT_3D ( 'NONE', #9, #928, #745 ) ;
#482 = AXIS2_PLACEMENT_3D ( 'NONE', #591, #828, #900 ) ;
#483 = CYLINDRICAL_SURFACE ( 'NONE', #260, 1.999999999999999112 ) ;
#484 = EDGE_CURVE ( 'NONE', #746, #933, #838, .T. ) ;
#485 = LINE ( 'NONE', #289, #808 ) ;
#486 = CARTESIAN_POINT ( 'NONE',  ( -39.09999999999999432, -24.90999999999998593, 7.000000000000000000 ) ) ;
#487 = ORIENTED_EDGE ( 'NONE', *, *, #837, .F. ) ;
#488 = LINE ( 'NONE', #105, #627 ) ;
#489 = ORIENTED_EDGE ( 'NONE', *, *, #521, .F. ) ;
#490 = CARTESIAN_POINT ( 'NONE',  ( 8.980256121069361441, 8.980256121069146502, 2.000000000000000000 ) ) ;
#491 = DIRECTION ( 'NONE',  ( 0.000000000000000000, -0.000000000000000000, 1.000000000000000000 ) ) ;
#492 = EDGE_LOOP ( 'NONE', ( #894, #11, #424, #288, #202, #962, #665, #395 ) ) ;
#493 = DIRECTION ( 'NONE',  ( 0.000000000000000000, 0.000000000000000000, -1.000000000000000000 ) ) ;
#494 = ORIENTED_EDGE ( 'NONE', *, *, #380, .T. ) ;
#495 = CARTESIAN_POINT ( 'NONE',  ( 36.09999999999998721, -27.91000000000000369, 7.000000000000000000 ) ) ;
#496 = DIRECTION ( 'NONE',  ( 1.000000000000000000, 0.000000000000000000, 0.000000000000000000 ) ) ;
#497 = ORIENTED_EDGE ( 'NONE', *, *, #907, .T. ) ;
#498 = VECTOR ( 'NONE', #998, 1000.000000000000000 ) ;
#499 = AXIS2_PLACEMENT_3D ( 'NONE', #219, #146, #682 ) ;
#500 = ORIENTED_EDGE ( 'NONE', *, *, #766, .F. ) ;
#501 = CYLINDRICAL_SURFACE ( 'NONE', #407, 20.50000000000000000 ) ;
#502 = DIRECTION ( 'NONE',  ( 0.000000000000000000, 0.000000000000000000, -1.000000000000000000 ) ) ;
#503 = EDGE_CURVE ( 'NONE', #300, #541, #516, .T. ) ;
#504 = ORIENTED_EDGE ( 'NONE', *, *, #771, .T. ) ;
#505 = VERTEX_POINT ( 'NONE', #156 ) ;
#506 = CARTESIAN_POINT ( 'NONE',  ( 0.000000000000000000, 0.000000000000000000, 2.000000000000000000 ) ) ;
#507 = LINE ( 'NONE', #644, #530 ) ;
#508 = ORIENTED_EDGE ( 'NONE', *, *, #503, .T. ) ;
#509 = ORIENTED_EDGE ( 'NONE', *, *, #782, .T. ) ;
#510 = DIRECTION ( 'NONE',  ( 0.000000000000000000, 0.000000000000000000, -1.000000000000000000 ) ) ;
#511 = DIRECTION ( 'NONE',  ( -1.000000000000000000, 0.000000000000000000, 0.000000000000000000 ) ) ;
#512 = ORIENTED_EDGE ( 'NONE', *, *, #400, .T. ) ;
#513 = VERTEX_POINT ( 'NONE', #392 ) ;
#514 = ADVANCED_FACE ( 'NONE', ( #750 ), #692, .F. ) ;
#515 = DIRECTION ( 'NONE',  ( 0.000000000000000000, 0.000000000000000000, -1.000000000000000000 ) ) ;
#516 = CIRCLE ( 'NONE', #785, 3.000000000000002665 ) ;
#517 = VERTEX_POINT ( 'NONE', #916 ) ;
#518 = EDGE_CURVE ( 'NONE', #94, #629, #406, .T. ) ;
#519 = DIRECTION ( 'NONE',  ( 0.000000000000000000, 0.000000000000000000, -1.000000000000000000 ) ) ;
#520 = LINE ( 'NONE', #993, #209 ) ;
#521 = EDGE_CURVE ( 'NONE', #473, #746, #60, .T. ) ;
#522 = CYLINDRICAL_SURFACE ( 'NONE', #973, 1.999999999999998224 ) ;
#523 = ORIENTED_EDGE ( 'NONE', *, *, #551, .F. ) ;
#524 = EDGE_LOOP ( 'NONE', ( #883, #687 ) ) ;
#525 = DIRECTION ( 'NONE',  ( 1.000000000000000000, 0.000000000000000000, 0.000000000000000000 ) ) ;
#526 = DIRECTION ( 'NONE',  ( 0.000000000000000000, 0.000000000000000000, -1.000000000000000000 ) ) ;
#527 = DIRECTION ( 'NONE',  ( 0.000000000000000000, 0.000000000000000000, -1.000000000000000000 ) ) ;
#528 = CARTESIAN_POINT ( 'NONE',  ( 39.10000000000000853, 24.90999999999997527, 0.000000000000000000 ) ) ;
#529 = ADVANCED_FACE ( 'NONE', ( #215 ), #522, .F. ) ;
#530 = VECTOR ( 'NONE', #638, 1000.000000000000000 ) ;
#531 = AXIS2_PLACEMENT_3D ( 'NONE', #182, #422, #470 ) ;
#532 = CARTESIAN_POINT ( 'NONE',  ( -31.49999999999999289, -20.99999999999999645, 7.000000000000000000 ) ) ;
#533 = EDGE_CURVE ( 'NONE', #505, #37, #635, .T. ) ;
#534 = FACE_BOUND ( 'NONE', #524, .T. ) ;
#535 = CARTESIAN_POINT ( 'NONE',  ( -20.50000000000000000, 0.000000000000000000, 2.000000000000000000 ) ) ;
#536 = SURFACE_STYLE_FILL_AREA ( #238 ) ;
#537 = ORIENTED_EDGE ( 'NONE', *, *, #551, .T. ) ;
#538 = FACE_BOUND ( 'NONE', #285, .T. ) ;
#539 = DIRECTION ( 'NONE',  ( 0.000000000000000000, 0.000000000000000000, -1.000000000000000000 ) ) ;
#540 = SURFACE_STYLE_USAGE ( .BOTH. , #310 ) ;
#541 = VERTEX_POINT ( 'NONE', #864 ) ;
#542 = DIRECTION ( 'NONE',  ( -0.000000000000000000, -0.000000000000000000, 1.000000000000000000 ) ) ;
#543 = EDGE_CURVE ( 'NONE', #333, #947, #133, .T. ) ;
#544 = AXIS2_PLACEMENT_3D ( 'NONE', #332, #964, #496 ) ;
#545 = CIRCLE ( 'NONE', #756, 1.999999999999999112 ) ;
#546 = PRODUCT_DEFINITION_SHAPE ( 'NONE', 'NONE',  #250 ) ;
#547 = AXIS2_PLACEMENT_3D ( 'NONE', #129, #71, #675 ) ;
#548 = VERTEX_POINT ( 'NONE', #798 ) ;
#549 = EDGE_CURVE ( 'NONE', #67, #812, #87, .T. ) ;
#550 = CYLINDRICAL_SURFACE ( 'NONE', #19, 1.999999999999998224 ) ;
#551 = EDGE_CURVE ( 'NONE', #513, #517, #932, .T. ) ;
#552 = EDGE_LOOP ( 'NONE', ( #623, #239, #713, #294 ) ) ;
#553 = DIRECTION ( 'NONE',  ( -1.000000000000000000, 0.000000000000000000, -0.000000000000000000 ) ) ;
#554 = EDGE_LOOP ( 'NONE', ( #930, #16, #312, #619 ) ) ;
#555 = CYLINDRICAL_SURFACE ( 'NONE', #442, 2.950000000000004619 ) ;
#556 = DIRECTION ( 'NONE',  ( -1.000000000000000000, 0.000000000000000000, 0.000000000000000000 ) ) ;
#557 = CYLINDRICAL_SURFACE ( 'NONE', #673, 2.950000000000001066 ) ;
#558 = VECTOR ( 'NONE', #846, 1000.000000000000000 ) ;
#559 = VECTOR ( 'NONE', #994, 1000.000000000000000 ) ;
#560 = ORIENTED_EDGE ( 'NONE', *, *, #518, .F. ) ;
#561 = AXIS2_PLACEMENT_3D ( 'NONE', #404, #174, #476 ) ;
#562 = AXIS2_PLACEMENT_3D ( 'NONE', #328, #633, #256 ) ;
#563 = CARTESIAN_POINT ( 'NONE',  ( 31.50000000000000000, 21.00000000000000355, 0.000000000000000000 ) ) ;
#564 = ORIENTED_EDGE ( 'NONE', *, *, #589, .F. ) ;
#565 = CARTESIAN_POINT ( 'NONE',  ( 31.50000000000000000, 21.00000000000000355, 7.000000000000000000 ) ) ;
#566 = DIRECTION ( 'NONE',  ( -1.000000000000000000, 0.000000000000000000, 0.000000000000000000 ) ) ;
#567 = ORIENTED_EDGE ( 'NONE', *, *, #990, .T. ) ;
#568 = DIRECTION ( 'NONE',  ( 1.000000000000000000, 0.000000000000000000, 0.000000000000000000 ) ) ;
#569 = ORIENTED_EDGE ( 'NONE', *, *, #123, .F. ) ;
#570 = DIRECTION ( 'NONE',  ( 0.000000000000000000, 0.000000000000000000, 1.000000000000000000 ) ) ;
#571 = DIRECTION ( 'NONE',  ( -0.000000000000000000, 0.000000000000000000, -1.000000000000000000 ) ) ;
#572 = ADVANCED_FACE ( 'NONE', ( #330 ), #483, .F. ) ;
#573 = VERTEX_POINT ( 'NONE', #792 ) ;
#574 = ORIENTED_EDGE ( 'NONE', *, *, #699, .T. ) ;
#575 = DIRECTION ( 'NONE',  ( -0.000000000000000000, -0.000000000000000000, 1.000000000000000000 ) ) ;
#576 = EDGE_CURVE ( 'NONE', #600, #281, #345, .T. ) ;
#577 = FACE_BOUND ( 'NONE', #212, .T. ) ;
#578 = CIRCLE ( 'NONE', #531, 2.000000000000000000 ) ;
#579 = AXIS2_PLACEMENT_3D ( 'NONE', #79, #391, #616 ) ;
#580 = LINE ( 'NONE', #315, #689 ) ;
#581 = ORIENTED_EDGE ( 'NONE', *, *, #707, .F. ) ;
#582 = CARTESIAN_POINT ( 'NONE',  ( 6.980256121069150943, -8.980256121069359665, 2.000000000000000000 ) ) ;
#583 = CARTESIAN_POINT ( 'NONE',  ( 8.980256121069361441, 8.980256121069146502, 7.000000000000000000 ) ) ;
#584 = EDGE_CURVE ( 'NONE', #942, #369, #211, .T. ) ;
#585 = ORIENTED_EDGE ( 'NONE', *, *, #521, .T. ) ;
#586 = CYLINDRICAL_SURFACE ( 'NONE', #922, 20.50000000000000000 ) ;
#587 = CARTESIAN_POINT ( 'NONE',  ( -31.49999999999999289, -20.99999999999999645, 7.000000000000000000 ) ) ;
#588 = ORIENTED_EDGE ( 'NONE', *, *, #74, .F. ) ;
#589 = EDGE_CURVE ( 'NONE', #821, #83, #578, .T. ) ;
#590 = ORIENTED_EDGE ( 'NONE', *, *, #354, .T. ) ;
#591 = CARTESIAN_POINT ( 'NONE',  ( 36.10000000000000853, -24.91000000000000369, 7.000000000000000000 ) ) ;
#592 = CARTESIAN_POINT ( 'NONE',  ( -39.09999999999999432, 24.90999999999997883, 7.000000000000000000 ) ) ;
#593 = ORIENTED_EDGE ( 'NONE', *, *, #999, .F. ) ;
#594 = EDGE_CURVE ( 'NONE', #600, #995, #488, .T. ) ;
#595 = VECTOR ( 'NONE', #526, 1000.000000000000000 ) ;
#596 = CARTESIAN_POINT ( 'NONE',  ( 31.50000000000000000, 21.00000000000000355, 0.000000000000000000 ) ) ;
#597 = VECTOR ( 'NONE', #539, 1000.000000000000000 ) ;
#598 = CARTESIAN_POINT ( 'NONE',  ( 39.10000000000000853, 24.90999999999997527, 7.000000000000000000 ) ) ;
#599 = EDGE_LOOP ( 'NONE', ( #199, #977 ) ) ;
#600 = VERTEX_POINT ( 'NONE', #255 ) ;
#601 = CYLINDRICAL_SURFACE ( 'NONE', #499, 3.000000000000002665 ) ;
#602 = CARTESIAN_POINT ( 'NONE',  ( 28.55000000000000071, -20.99999999999999645, 7.000000000000000000 ) ) ;
#603 = CARTESIAN_POINT ( 'NONE',  ( -39.09999999999999432, 24.90999999999997883, 7.000000000000000000 ) ) ;
#604 = EDGE_CURVE ( 'NONE', #478, #181, #714, .T. ) ;
#605 = CARTESIAN_POINT ( 'NONE',  ( 10.98025612106914828, -8.980256121069359665, 7.000000000000000000 ) ) ;
#606 = CYLINDRICAL_SURFACE ( 'NONE', #394, 2.950000000000001066 ) ;
#607 = EDGE_CURVE ( 'NONE', #812, #448, #162, .T. ) ;
#608 = CARTESIAN_POINT ( 'NONE',  ( 36.09999999999998721, -27.91000000000000369, 0.000000000000000000 ) ) ;
#609 = DIRECTION ( 'NONE',  ( 1.000000000000000000, 0.000000000000000000, 0.000000000000000000 ) ) ;
#610 = AXIS2_PLACEMENT_3D ( 'NONE', #73, #385, #10 ) ;
#611 = CARTESIAN_POINT ( 'NONE',  ( 8.980256121069150055, -8.980256121069359665, 2.000000000000000000 ) ) ;
#612 = CIRCLE ( 'NONE', #721, 3.000000000000002665 ) ;
#613 = DIRECTION ( 'NONE',  ( 1.000000000000000000, 0.000000000000000000, -0.000000000000000000 ) ) ;
#614 = DIRECTION ( 'NONE',  ( 0.000000000000000000, -1.000000000000000000, 0.000000000000000000 ) ) ;
#615 = ORIENTED_EDGE ( 'NONE', *, *, #653, .T. ) ;
#616 = DIRECTION ( 'NONE',  ( -1.000000000000000000, 0.000000000000000000, 0.000000000000000000 ) ) ;
#617 = DIRECTION ( 'NONE',  ( -1.000000000000000000, 0.000000000000000000, 0.000000000000000000 ) ) ;
#618 = DIRECTION ( 'NONE',  ( -0.000000000000000000, -0.000000000000000000, -1.000000000000000000 ) ) ;
#619 = ORIENTED_EDGE ( 'NONE', *, *, #136, .F. ) ;
#620 = EDGE_CURVE ( 'NONE', #700, #478, #166, .T. ) ;
#621 = FACE_OUTER_BOUND ( 'NONE', #799, .T. ) ;
#622 = CARTESIAN_POINT ( 'NONE',  ( -36.09999999999997300, -27.91000000000000369, 7.000000000000000000 ) ) ;
#623 = ORIENTED_EDGE ( 'NONE', *, *, #74, .T. ) ;
#624 = ADVANCED_FACE ( 'NONE', ( #337 ), #555, .F. ) ;
#625 = STYLED_ITEM ( 'NONE', ( #223 ), #62 ) ;
#626 = CARTESIAN_POINT ( 'NONE',  ( -34.45000000000000284, 21.00000000000000355, 0.000000000000000000 ) ) ;
#627 = VECTOR ( 'NONE', #415, 1000.000000000000000 ) ;
#628 = CIRCLE ( 'NONE', #867, 1.999999999999999112 ) ;
#629 = VERTEX_POINT ( 'NONE', #318 ) ;
#630 = APPLICATION_CONTEXT ( 'automotive_design' ) ;
#631 = FACE_OUTER_BOUND ( 'NONE', #186, .T. ) ;
#632 = ORIENTED_EDGE ( 'NONE', *, *, #607, .F. ) ;
#633 = DIRECTION ( 'NONE',  ( -0.000000000000000000, -0.000000000000000000, 1.000000000000000000 ) ) ;
#634 = EDGE_LOOP ( 'NONE', ( #421, #960 ) ) ;
#635 = LINE ( 'NONE', #850, #597 ) ;
#636 = EDGE_LOOP ( 'NONE', ( #399, #954, #22, #738 ) ) ;
#637 = FACE_OUTER_BOUND ( 'NONE', #813, .T. ) ;
#638 = DIRECTION ( 'NONE',  ( -1.000000000000000000, 4.805328188301407500E-17, -0.000000000000000000 ) ) ;
#639 = AXIS2_PLACEMENT_3D ( 'NONE', #437, #571, #412 ) ;
#640 = ORIENTED_EDGE ( 'NONE', *, *, #382, .T. ) ;
#641 = CARTESIAN_POINT ( 'NONE',  ( 31.50000000000000711, -20.99999999999999645, 7.000000000000000000 ) ) ;
#642 = DIRECTION ( 'NONE',  ( 1.000000000000000000, 0.000000000000000000, 0.000000000000000000 ) ) ;
#643 = CARTESIAN_POINT ( 'NONE',  ( -6.980256121069153608, 8.980256121069356112, 7.000000000000000000 ) ) ;
#644 = CARTESIAN_POINT ( 'NONE',  ( -36.09999999999997300, 27.90999999999999659, 0.000000000000000000 ) ) ;
#645 = ORIENTED_EDGE ( 'NONE', *, *, #543, .F. ) ;
#646 = EDGE_LOOP ( 'NONE', ( #734, #189, #500, #715 ) ) ;
#647 = ORIENTED_EDGE ( 'NONE', *, *, #663, .F. ) ;
#648 = CARTESIAN_POINT ( 'NONE',  ( -34.44999999999999574, -20.99999999999999645, 0.000000000000000000 ) ) ;
#649 = CARTESIAN_POINT ( 'NONE',  ( -39.09999999999999432, -24.90999999999998593, 7.000000000000000000 ) ) ;
#650 = ORIENTED_EDGE ( 'NONE', *, *, #842, .T. ) ;
#651 = ORIENTED_EDGE ( 'NONE', *, *, #240, .F. ) ;
#652 = CARTESIAN_POINT ( 'NONE',  ( -36.09999999999999432, 24.90999999999999659, 7.000000000000000000 ) ) ;
#653 = EDGE_CURVE ( 'NONE', #475, #513, #6, .T. ) ;
#654 = DIRECTION ( 'NONE',  ( 1.000000000000000000, 0.000000000000000000, 0.000000000000000000 ) ) ;
#655 = AXIS2_PLACEMENT_3D ( 'NONE', #731, #339, #642 ) ;
#656 = ORIENTED_EDGE ( 'NONE', *, *, #400, .F. ) ;
#657 = CIRCLE ( 'NONE', #66, 2.950000000000001066 ) ;
#658 = VECTOR ( 'NONE', #568, 1000.000000000000000 ) ;
#659 = CIRCLE ( 'NONE', #482, 3.000000000000002665 ) ;
#660 = VERTEX_POINT ( 'NONE', #626 ) ;
#661 = DIRECTION ( 'NONE',  ( -0.000000000000000000, -0.000000000000000000, 1.000000000000000000 ) ) ;
#662 = CARTESIAN_POINT ( 'NONE',  ( 36.09999999999998721, 27.90999999999999659, 7.000000000000000000 ) ) ;
#663 = EDGE_CURVE ( 'NONE', #832, #809, #116, .T. ) ;
#664 = EDGE_LOOP ( 'NONE', ( #989, #109, #764, #816 ) ) ;
#665 = ORIENTED_EDGE ( 'NONE', *, *, #837, .T. ) ;
#666 = FACE_OUTER_BOUND ( 'NONE', #769, .T. ) ;
#667 = CARTESIAN_POINT ( 'NONE',  ( -6.980256121069364106, -8.980256121069151831, 2.000000000000000000 ) ) ;
#668 = ORIENTED_EDGE ( 'NONE', *, *, #447, .F. ) ;
#669 = DIRECTION ( 'NONE',  ( 1.000000000000000000, 0.000000000000000000, 0.000000000000000000 ) ) ;
#670 = DIRECTION ( 'NONE',  ( -0.000000000000000000, -0.000000000000000000, 1.000000000000000000 ) ) ;
#671 = DIRECTION ( 'NONE',  ( -0.000000000000000000, -0.000000000000000000, 1.000000000000000000 ) ) ;
#672 = ORIENTED_EDGE ( 'NONE', *, *, #771, .F. ) ;
#673 = AXIS2_PLACEMENT_3D ( 'NONE', #39, #502, #892 ) ;
#674 = AXIS2_PLACEMENT_3D ( 'NONE', #532, #314, #292 ) ;
#675 = DIRECTION ( 'NONE',  ( -1.000000000000000000, 0.000000000000000000, 0.000000000000000000 ) ) ;
#676 = DIRECTION ( 'NONE',  ( 0.000000000000000000, 0.000000000000000000, -1.000000000000000000 ) ) ;
#677 = AXIS2_PLACEMENT_3D ( 'NONE', #237, #306, #679 ) ;
#678 = VECTOR ( 'NONE', #179, 1000.000000000000000 ) ;
#679 = DIRECTION ( 'NONE',  ( -1.000000000000000000, 0.000000000000000000, 0.000000000000000000 ) ) ;
#680 = ORIENTED_EDGE ( 'NONE', *, *, #842, .F. ) ;
#681 = EDGE_CURVE ( 'NONE', #778, #277, #936, .T. ) ;
#682 = DIRECTION ( 'NONE',  ( -1.000000000000000000, 0.000000000000000000, 0.000000000000000000 ) ) ;
#683 = DIRECTION ( 'NONE',  ( 1.000000000000000000, 0.000000000000000000, 0.000000000000000000 ) ) ;
#684 = CARTESIAN_POINT ( 'NONE',  ( -31.49999999999999289, -20.99999999999999645, 7.000000000000000000 ) ) ;
#685 = DIRECTION ( 'NONE',  ( -0.000000000000000000, 0.000000000000000000, 1.000000000000000000 ) ) ;
#686 = DIRECTION ( 'NONE',  ( 1.000000000000000000, 0.000000000000000000, 0.000000000000000000 ) ) ;
#687 = ORIENTED_EDGE ( 'NONE', *, *, #361, .T. ) ;
#688 = SHAPE_DEFINITION_REPRESENTATION ( #546, #966 ) ;
#689 = VECTOR ( 'NONE', #618, 1000.000000000000000 ) ;
#690 = CARTESIAN_POINT ( 'NONE',  ( 20.50000000000000000, 2.510525938252074481E-15, 2.000000000000000000 ) ) ;
#691 = VECTOR ( 'NONE', #25, 1000.000000000000000 ) ;
#692 = PLANE ( 'NONE',  #227 ) ;
#693 = PRODUCT_DEFINITION_FORMATION_WITH_SPECIFIED_SOURCE ( 'ä»', '', #99, .NOT_KNOWN. ) ;
#694 = ADVANCED_FACE ( 'NONE', ( #621 ), #780, .F. ) ;
#695 = ORIENTED_EDGE ( 'NONE', *, *, #893, .F. ) ;
#696 = FACE_BOUND ( 'NONE', #319, .T. ) ;
#697 = CARTESIAN_POINT ( 'NONE',  ( 0.000000000000000000, 0.000000000000000000, 2.000000000000000000 ) ) ;
#698 = ADVANCED_FACE ( 'NONE', ( #2, #631, #696, #242, #534, #538 ), #8, .T. ) ;
#699 = EDGE_CURVE ( 'NONE', #709, #198, #376, .T. ) ;
#700 = VERTEX_POINT ( 'NONE', #690 ) ;
#701 = FACE_BOUND ( 'NONE', #140, .T. ) ;
#702 = ORIENTED_EDGE ( 'NONE', *, *, #403, .T. ) ;
#703 = FACE_BOUND ( 'NONE', #742, .T. ) ;
#704 = AXIS2_PLACEMENT_3D ( 'NONE', #583, #201, #429 ) ;
#705 = AXIS2_PLACEMENT_3D ( 'NONE', #784, #159, #844 ) ;
#706 = ORIENTED_EDGE ( 'NONE', *, *, #266, .F. ) ;
#707 = EDGE_CURVE ( 'NONE', #629, #94, #855, .T. ) ;
#708 = DIRECTION ( 'NONE',  ( -1.000000000000000000, 0.000000000000000000, 0.000000000000000000 ) ) ;
#709 = VERTEX_POINT ( 'NONE', #931 ) ;
#710 = DIRECTION ( 'NONE',  ( 1.000000000000000000, 0.000000000000000000, 0.000000000000000000 ) ) ;
#711 = CARTESIAN_POINT ( 'NONE',  ( 31.50000000000000711, -20.99999999999999645, 0.000000000000000000 ) ) ;
#712 = LINE ( 'NONE', #27, #321 ) ;
#713 = ORIENTED_EDGE ( 'NONE', *, *, #576, .F. ) ;
#714 = LINE ( 'NONE', #35, #293 ) ;
#715 = ORIENTED_EDGE ( 'NONE', *, *, #325, .T. ) ;
#716 = DIRECTION ( 'NONE',  ( 1.000000000000000000, 0.000000000000000000, 0.000000000000000000 ) ) ;
#717 = FACE_OUTER_BOUND ( 'NONE', #492, .T. ) ;
#718 = VECTOR ( 'NONE', #228, 1000.000000000000000 ) ;
#719 = VECTOR ( 'NONE', #885, 1000.000000000000000 ) ;
#720 = EDGE_LOOP ( 'NONE', ( #272, #193 ) ) ;
#721 = AXIS2_PLACEMENT_3D ( 'NONE', #767, #80, #683 ) ;
#722 = VECTOR ( 'NONE', #194, 1000.000000000000000 ) ;
#723 = CARTESIAN_POINT ( 'NONE',  ( -39.09999999999999432, 24.90999999999997883, 0.000000000000000000 ) ) ;
#724 = EDGE_LOOP ( 'NONE', ( #668, #645 ) ) ;
#725 = VERTEX_POINT ( 'NONE', #230 ) ;
#726 = LINE ( 'NONE', #38, #229 ) ;
#727 = DIRECTION ( 'NONE',  ( -1.000000000000000000, 0.000000000000000000, 0.000000000000000000 ) ) ;
#728 = EDGE_CURVE ( 'NONE', #797, #505, #773, .T. ) ;
#729 = ORIENTED_EDGE ( 'NONE', *, *, #620, .F. ) ;
#730 = ADVANCED_FACE ( 'NONE', ( #777 ), #550, .F. ) ;
#731 = CARTESIAN_POINT ( 'NONE',  ( -31.50000000000000000, 21.00000000000000355, 0.000000000000000000 ) ) ;
#732 = FACE_OUTER_BOUND ( 'NONE', #646, .T. ) ;
#733 = LINE ( 'NONE', #48, #822 ) ;
#734 = ORIENTED_EDGE ( 'NONE', *, *, #253, .T. ) ;
#735 = ORIENTED_EDGE ( 'NONE', *, *, #999, .T. ) ;
#736 = FACE_OUTER_BOUND ( 'NONE', #968, .T. ) ;
#737 = DIRECTION ( 'NONE',  ( 0.000000000000000000, 0.000000000000000000, -1.000000000000000000 ) ) ;
#738 = ORIENTED_EDGE ( 'NONE', *, *, #130, .F. ) ;
#739 = VECTOR ( 'NONE', #178, 1000.000000000000000 ) ;
#740 = CARTESIAN_POINT ( 'NONE',  ( 0.000000000000000000, 0.000000000000000000, 2.000000000000000000 ) ) ;
#741 = CARTESIAN_POINT ( 'NONE',  ( 31.50000000000000000, 21.00000000000000355, 7.000000000000000000 ) ) ;
#742 = EDGE_LOOP ( 'NONE', ( #871, #344 ) ) ;
#743 = DIRECTION ( 'NONE',  ( -0.000000000000000000, -0.000000000000000000, 1.000000000000000000 ) ) ;
#744 = CARTESIAN_POINT ( 'NONE',  ( -36.09999999999997300, 27.90999999999999659, 7.000000000000000000 ) ) ;
#745 = DIRECTION ( 'NONE',  ( 1.000000000000000000, 0.000000000000000000, 0.000000000000000000 ) ) ;
#746 = VERTEX_POINT ( 'NONE', #854 ) ;
#747 = PRODUCT_RELATED_PRODUCT_CATEGORY ( 'part', '', ( #99 ) ) ;
#748 = DIRECTION ( 'NONE',  ( -0.000000000000000000, -0.000000000000000000, 1.000000000000000000 ) ) ;
#749 = DIRECTION ( 'NONE',  ( 1.000000000000000000, 0.000000000000000000, 0.000000000000000000 ) ) ;
#750 = FACE_OUTER_BOUND ( 'NONE', #552, .T. ) ;
#751 = ORIENTED_EDGE ( 'NONE', *, *, #197, .T. ) ;
#752 = ADVANCED_FACE ( 'NONE', ( #479, #305, #169, #701, #703 ), #858, .T. ) ;
#753 = PRESENTATION_LAYER_ASSIGNMENT (  '', '', ( #625 ) ) ;
#754 = VERTEX_POINT ( 'NONE', #313 ) ;
#755 = AXIS2_PLACEMENT_3D ( 'NONE', #587, #676, #511 ) ;
#756 = AXIS2_PLACEMENT_3D ( 'NONE', #231, #762, #617 ) ;
#757 = CARTESIAN_POINT ( 'NONE',  ( -6.980256121069363218, -8.980256121069151831, 7.000000000000000000 ) ) ;
#758 = CARTESIAN_POINT ( 'NONE',  ( 20.50000000000000000, 2.510525938252074481E-15, 0.000000000000000000 ) ) ;
#759 = AXIS2_PLACEMENT_3D ( 'NONE', #992, #282, #203 ) ;
#760 = LINE ( 'NONE', #919, #498 ) ;
#761 = ADVANCED_FACE ( 'NONE', ( #927 ), #861, .F. ) ;
#762 = DIRECTION ( 'NONE',  ( -0.000000000000000000, -0.000000000000000000, 1.000000000000000000 ) ) ;
#763 = CARTESIAN_POINT ( 'NONE',  ( -39.09999999999999432, 24.90999999999997883, 7.000000000000000000 ) ) ;
#764 = ORIENTED_EDGE ( 'NONE', *, *, #149, .F. ) ;
#765 = DIRECTION ( 'NONE',  ( -1.000000000000000000, 4.805328188301407500E-17, -0.000000000000000000 ) ) ;
#766 = EDGE_CURVE ( 'NONE', #573, #134, #155, .T. ) ;
#767 = CARTESIAN_POINT ( 'NONE',  ( 36.10000000000000853, 24.90999999999999304, 7.000000000000000000 ) ) ;
#768 = CARTESIAN_POINT ( 'NONE',  ( -8.980256121069363218, -8.980256121069151831, 7.000000000000000000 ) ) ;
#769 = EDGE_LOOP ( 'NONE', ( #14, #585, #438, #863 ) ) ;
#770 = AXIS2_PLACEMENT_3D ( 'NONE', #741, #214, #287 ) ;
#771 = EDGE_CURVE ( 'NONE', #517, #812, #280, .T. ) ;
#772 = DIRECTION ( 'NONE',  ( -1.000000000000000000, 0.000000000000000000, 0.000000000000000000 ) ) ;
#773 = CIRCLE ( 'NONE', #459, 2.950000000000001066 ) ;
#774 = CARTESIAN_POINT ( 'NONE',  ( -8.980256121069153608, 8.980256121069356112, 7.000000000000000000 ) ) ;
#775 = CIRCLE ( 'NONE', #117, 2.000000000000000000 ) ;
#776 = ORIENTED_EDGE ( 'NONE', *, *, #604, .F. ) ;
#777 = FACE_OUTER_BOUND ( 'NONE', #261, .T. ) ;
#778 = VERTEX_POINT ( 'NONE', #648 ) ;
#779 = EDGE_CURVE ( 'NONE', #134, #475, #408, .T. ) ;
#780 = CYLINDRICAL_SURFACE ( 'NONE', #338, 1.999999999999998224 ) ;
#781 = ORIENTED_EDGE ( 'NONE', *, *, #241, .F. ) ;
#782 = EDGE_CURVE ( 'NONE', #473, #192, #33, .T. ) ;
#783 = AXIS2_PLACEMENT_3D ( 'NONE', #768, #304, #609 ) ;
#784 = CARTESIAN_POINT ( 'NONE',  ( 8.980256121069150055, -8.980256121069359665, 7.000000000000000000 ) ) ;
#785 = AXIS2_PLACEMENT_3D ( 'NONE', #845, #446, #686 ) ;
#786 = AXIS2_PLACEMENT_3D ( 'NONE', #23, #575, #184 ) ;
#787 = ORIENTED_EDGE ( 'NONE', *, *, #893, .T. ) ;
#788 = CARTESIAN_POINT ( 'NONE',  ( 31.50000000000000000, 21.00000000000000355, 7.000000000000000000 ) ) ;
#789 = CARTESIAN_POINT ( 'NONE',  ( -36.09999999999997300, 27.90999999999999659, 7.000000000000000000 ) ) ;
#790 = FACE_OUTER_BOUND ( 'NONE', #57, .T. ) ;
#791 = ORIENTED_EDGE ( 'NONE', *, *, #197, .F. ) ;
#792 = CARTESIAN_POINT ( 'NONE',  ( 36.09999999999998721, 27.90999999999999659, 7.000000000000000000 ) ) ;
#793 = ORIENTED_EDGE ( 'NONE', *, *, #503, .F. ) ;
#794 = DIRECTION ( 'NONE',  ( 1.000000000000000000, -4.805328188301407500E-17, 0.000000000000000000 ) ) ;
#795 = CARTESIAN_POINT ( 'NONE',  ( -28.54999999999999361, -20.99999999999999645, 0.000000000000000000 ) ) ;
#796 = EDGE_CURVE ( 'NONE', #192, #933, #958, .T. ) ;
#797 = VERTEX_POINT ( 'NONE', #262 ) ;
#798 = CARTESIAN_POINT ( 'NONE',  ( 10.98025612106915005, -8.980256121069359665, 7.000000000000000000 ) ) ;
#799 = EDGE_LOOP ( 'NONE', ( #455, #896, #153, #567 ) ) ;
#800 = ORIENTED_EDGE ( 'NONE', *, *, #862, .T. ) ;
#801 = CARTESIAN_POINT ( 'NONE',  ( -36.09999999999997300, -27.91000000000000369, 0.000000000000000000 ) ) ;
#802 = FACE_BOUND ( 'NONE', #40, .T. ) ;
#803 = ADVANCED_FACE ( 'NONE', ( #732 ), #411, .F. ) ;
#804 = CIRCLE ( 'NONE', #420, 2.950000000000001066 ) ;
#805 = ADVANCED_FACE ( 'NONE', ( #637 ), #331, .F. ) ;
#806 = AXIS2_PLACEMENT_3D ( 'NONE', #611, #396, #772 ) ;
#807 = ORIENTED_EDGE ( 'NONE', *, *, #604, .T. ) ;
#808 = VECTOR ( 'NONE', #743, 1000.000000000000000 ) ;
#809 = VERTEX_POINT ( 'NONE', #107 ) ;
#810 = DIRECTION ( 'NONE',  ( 0.000000000000000000, 0.000000000000000000, -1.000000000000000000 ) ) ;
#811 = CARTESIAN_POINT ( 'NONE',  ( -28.55000000000000071, 21.00000000000000355, 0.000000000000000000 ) ) ;
#812 = VERTEX_POINT ( 'NONE', #801 ) ;
#813 = EDGE_LOOP ( 'NONE', ( #402, #100, #144, #92 ) ) ;
#814 =( LENGTH_UNIT ( ) NAMED_UNIT ( * ) SI_UNIT ( .MILLI., .METRE. ) );
#815 = PLANE ( 'NONE',  #639 ) ;
#816 = ORIENTED_EDGE ( 'NONE', *, *, #549, .T. ) ;
#817 = ORIENTED_EDGE ( 'NONE', *, *, #334, .F. ) ;
#818 = CARTESIAN_POINT ( 'NONE',  ( -31.50000000000000000, 21.00000000000000355, 7.000000000000000000 ) ) ;
#819 = CARTESIAN_POINT ( 'NONE',  ( -36.09999999999999432, 24.90999999999999659, 7.000000000000000000 ) ) ;
#820 =( GEOMETRIC_REPRESENTATION_CONTEXT ( 3 ) GLOBAL_UNCERTAINTY_ASSIGNED_CONTEXT ( ( #397 ) ) GLOBAL_UNIT_ASSIGNED_CONTEXT ( ( #461, #925, #852 ) ) REPRESENTATION_CONTEXT ( 'NONE', 'WORKASPACE' ) );
#821 = VERTEX_POINT ( 'NONE', #643 ) ;
#822 = VECTOR ( 'NONE', #342, 1000.000000000000000 ) ;
#823 = CIRCLE ( 'NONE', #786, 2.000000000000000000 ) ;
#824 = FACE_OUTER_BOUND ( 'NONE', #346, .T. ) ;
#825 = FACE_OUTER_BOUND ( 'NONE', #554, .T. ) ;
#826 = DIRECTION ( 'NONE',  ( 1.000000000000000000, 0.000000000000000000, 0.000000000000000000 ) ) ;
#827 = ORIENTED_EDGE ( 'NONE', *, *, #653, .F. ) ;
#828 = DIRECTION ( 'NONE',  ( 0.000000000000000000, 0.000000000000000000, 1.000000000000000000 ) ) ;
#829 = CARTESIAN_POINT ( 'NONE',  ( 8.980256121069361441, 8.980256121069146502, 7.000000000000000000 ) ) ;
#830 = CARTESIAN_POINT ( 'NONE',  ( 8.980256121069361441, 8.980256121069146502, 7.000000000000000000 ) ) ;
#831 = EDGE_CURVE ( 'NONE', #192, #473, #823, .T. ) ;
#832 = VERTEX_POINT ( 'NONE', #582 ) ;
#833 = ORIENTED_EDGE ( 'NONE', *, *, #419, .F. ) ;
#834 = LINE ( 'NONE', #302, #53 ) ;
#835 = DIRECTION ( 'NONE',  ( -0.000000000000000000, -0.000000000000000000, 1.000000000000000000 ) ) ;
#836 = LINE ( 'NONE', #387, #559 ) ;
#837 = EDGE_CURVE ( 'NONE', #134, #170, #295, .T. ) ;
#838 = CIRCLE ( 'NONE', #68, 2.000000000000000000 ) ;
#839 = AXIS2_PLACEMENT_3D ( 'NONE', #431, #425, #556 ) ;
#840 = PLANE ( 'NONE',  #247 ) ;
#841 = DIRECTION ( 'NONE',  ( 1.000000000000000000, 0.000000000000000000, 0.000000000000000000 ) ) ;
#842 = EDGE_CURVE ( 'NONE', #198, #709, #628, .T. ) ;
#843 = PRODUCT_CONTEXT ( 'NONE', #851, 'mechanical' ) ;
#844 = DIRECTION ( 'NONE',  ( 1.000000000000000000, 0.000000000000000000, 0.000000000000000000 ) ) ;
#845 = CARTESIAN_POINT ( 'NONE',  ( 36.10000000000000853, 24.90999999999999304, 0.000000000000000000 ) ) ;
#846 = DIRECTION ( 'NONE',  ( -0.000000000000000000, 1.000000000000000000, -0.000000000000000000 ) ) ;
#847 = ORIENTED_EDGE ( 'NONE', *, *, #796, .T. ) ;
#848 = DIRECTION ( 'NONE',  ( 0.000000000000000000, 0.000000000000000000, 1.000000000000000000 ) ) ;
#849 = CARTESIAN_POINT ( 'NONE',  ( 8.980256121069150055, -8.980256121069359665, 7.000000000000000000 ) ) ;
#850 = CARTESIAN_POINT ( 'NONE',  ( 34.45000000000000995, -20.99999999999999645, 7.000000000000000000 ) ) ;
#851 = APPLICATION_CONTEXT ( 'automotive_design' ) ;
#852 =( NAMED_UNIT ( * ) SI_UNIT ( $, .STERADIAN. ) SOLID_ANGLE_UNIT ( ) );
#853 = ORIENTED_EDGE ( 'NONE', *, *, #533, .T. ) ;
#854 = CARTESIAN_POINT ( 'NONE',  ( -10.98025612106936322, -8.980256121069151831, 7.000000000000000000 ) ) ;
#855 = CIRCLE ( 'NONE', #393, 2.950000000000001066 ) ;
#856 = CIRCLE ( 'NONE', #562, 2.000000000000000000 ) ;
#857 = ORIENTED_EDGE ( 'NONE', *, *, #880, .T. ) ;
#858 = PLANE ( 'NONE',  #423 ) ;
#859 = ADVANCED_FACE ( 'NONE', ( #113 ), #43, .T. ) ;
#860 = EDGE_LOOP ( 'NONE', ( #560, #581 ) ) ;
#861 = CYLINDRICAL_SURFACE ( 'NONE', #705, 1.999999999999998224 ) ;
#862 = EDGE_CURVE ( 'NONE', #83, #821, #775, .T. ) ;
#863 = ORIENTED_EDGE ( 'NONE', *, *, #796, .F. ) ;
#864 = CARTESIAN_POINT ( 'NONE',  ( 36.09999999999998721, 27.90999999999999659, 0.000000000000000000 ) ) ;
#865 = DIRECTION ( 'NONE',  ( 0.000000000000000000, 0.000000000000000000, -1.000000000000000000 ) ) ;
#866 = CARTESIAN_POINT ( 'NONE',  ( -8.980256121069153608, 8.980256121069356112, 2.000000000000000000 ) ) ;
#867 = AXIS2_PLACEMENT_3D ( 'NONE', #490, #417, #340 ) ;
#868 = VERTEX_POINT ( 'NONE', #495 ) ;
#869 = DIRECTION ( 'NONE',  ( -0.000000000000000000, 0.000000000000000000, 1.000000000000000000 ) ) ;
#870 = EDGE_CURVE ( 'NONE', #333, #942, #726, .T. ) ;
#871 = ORIENTED_EDGE ( 'NONE', *, *, #477, .T. ) ;
#872 = DIRECTION ( 'NONE',  ( -1.000000000000000000, 0.000000000000000000, 0.000000000000000000 ) ) ;
#873 = CARTESIAN_POINT ( 'NONE',  ( -36.09999999999999432, -24.91000000000000369, 7.000000000000000000 ) ) ;
#874 = ORIENTED_EDGE ( 'NONE', *, *, #831, .T. ) ;
#875 = EDGE_CURVE ( 'NONE', #45, #83, #348, .T. ) ;
#876 = DIRECTION ( 'NONE',  ( 0.000000000000000000, 0.000000000000000000, -1.000000000000000000 ) ) ;
#877 = ORIENTED_EDGE ( 'NONE', *, *, #36, .F. ) ;
#878 = ORIENTED_EDGE ( 'NONE', *, *, #991, .F. ) ;
#879 = CARTESIAN_POINT ( 'NONE',  ( -8.980256121069153608, 8.980256121069356112, 7.000000000000000000 ) ) ;
#880 = EDGE_CURVE ( 'NONE', #37, #754, #70, .T. ) ;
#881 = CARTESIAN_POINT ( 'NONE',  ( -36.09999999999997300, -27.91000000000000369, 7.000000000000000000 ) ) ;
#882 = ORIENTED_EDGE ( 'NONE', *, *, #433, .F. ) ;
#883 = ORIENTED_EDGE ( 'NONE', *, *, #681, .T. ) ;
#884 = CARTESIAN_POINT ( 'NONE',  ( -28.55000000000000071, 21.00000000000000355, 7.000000000000000000 ) ) ;
#885 = DIRECTION ( 'NONE',  ( -0.000000000000000000, -0.000000000000000000, -1.000000000000000000 ) ) ;
#886 = AXIS2_PLACEMENT_3D ( 'NONE', #957, #112, #967 ) ;
#887 = CIRCLE ( 'NONE', #704, 2.000000000000000000 ) ;
#888 = AXIS2_PLACEMENT_3D ( 'NONE', #12, #937, #317 ) ;
#889 = AXIS2_PLACEMENT_3D ( 'NONE', #711, #278, #963 ) ;
#890 = ORIENTED_EDGE ( 'NONE', *, *, #168, .T. ) ;
#891 = DIRECTION ( 'NONE',  ( 0.000000000000000000, 0.000000000000000000, -1.000000000000000000 ) ) ;
#892 = DIRECTION ( 'NONE',  ( -1.000000000000000000, 0.000000000000000000, 0.000000000000000000 ) ) ;
#893 = EDGE_CURVE ( 'NONE', #629, #350, #274, .T. ) ;
#894 = ORIENTED_EDGE ( 'NONE', *, *, #334, .T. ) ;
#895 = ADVANCED_FACE ( 'NONE', ( #200 ), #501, .F. ) ;
#896 = ORIENTED_EDGE ( 'NONE', *, *, #477, .F. ) ;
#897 = FACE_OUTER_BOUND ( 'NONE', #443, .T. ) ;
#898 = CYLINDRICAL_SURFACE ( 'NONE', #165, 3.000000000000002665 ) ;
#899 = EDGE_LOOP ( 'NONE', ( #175, #61 ) ) ;
#900 = DIRECTION ( 'NONE',  ( -1.000000000000000000, 0.000000000000000000, 0.000000000000000000 ) ) ;
#901 = CYLINDRICAL_SURFACE ( 'NONE', #755, 2.950000000000001066 ) ;
#902 = CIRCLE ( 'NONE', #471, 2.000000000000000000 ) ;
#903 = EDGE_LOOP ( 'NONE', ( #69, #358, #428, #128 ) ) ;
#904 = AXIS2_PLACEMENT_3D ( 'NONE', #866, #263, #566 ) ;
#905 = CARTESIAN_POINT ( 'NONE',  ( 6.980256121069150943, -8.980256121069359665, 7.000000000000000000 ) ) ;
#906 = CARTESIAN_POINT ( 'NONE',  ( 28.54999999999999716, 21.00000000000000355, 7.000000000000000000 ) ) ;
#907 = EDGE_CURVE ( 'NONE', #270, #548, #856, .T. ) ;
#908 = PRODUCT_DEFINITION_CONTEXT ( 'detailed design', #630, 'design' ) ;
#909 = FACE_OUTER_BOUND ( 'NONE', #120, .T. ) ;
#910 = ORIENTED_EDGE ( 'NONE', *, *, #912, .F. ) ;
#911 = ORIENTED_EDGE ( 'NONE', *, *, #875, .T. ) ;
#912 = EDGE_CURVE ( 'NONE', #365, #821, #485, .T. ) ;
#913 = CARTESIAN_POINT ( 'NONE',  ( 31.50000000000000711, -20.99999999999999645, 0.000000000000000000 ) ) ;
#914 = CYLINDRICAL_SURFACE ( 'NONE', #770, 2.950000000000004619 ) ;
#915 = EDGE_CURVE ( 'NONE', #832, #270, #456, .T. ) ;
#916 = CARTESIAN_POINT ( 'NONE',  ( -39.09999999999999432, -24.90999999999998593, 0.000000000000000000 ) ) ;
#917 = FILL_AREA_STYLE_COLOUR ( '', #948 ) ;
#918 = DIRECTION ( 'NONE',  ( 1.000000000000000000, 0.000000000000000000, 0.000000000000000000 ) ) ;
#919 = CARTESIAN_POINT ( 'NONE',  ( -39.09999999999999432, 24.90999999999997883, 7.000000000000000000 ) ) ;
#920 = CARTESIAN_POINT ( 'NONE',  ( -10.98025612106915361, 8.980256121069356112, 7.000000000000000000 ) ) ;
#921 = CIRCLE ( 'NONE', #363, 2.950000000000001066 ) ;
#922 = AXIS2_PLACEMENT_3D ( 'NONE', #740, #367, #126 ) ;
#923 = CARTESIAN_POINT ( 'NONE',  ( -31.50000000000000000, 21.00000000000000355, 7.000000000000000000 ) ) ;
#924 = FACE_OUTER_BOUND ( 'NONE', #188, .T. ) ;
#925 =( NAMED_UNIT ( * ) PLANE_ANGLE_UNIT ( ) SI_UNIT ( $, .RADIAN. ) );
#926 = ORIENTED_EDGE ( 'NONE', *, *, #707, .T. ) ;
#927 = FACE_OUTER_BOUND ( 'NONE', #405, .T. ) ;
#928 = DIRECTION ( 'NONE',  ( -0.000000000000000000, 0.000000000000000000, 1.000000000000000000 ) ) ;
#929 = DIRECTION ( 'NONE',  ( -1.000000000000000000, 0.000000000000000000, 0.000000000000000000 ) ) ;
#930 = ORIENTED_EDGE ( 'NONE', *, *, #447, .T. ) ;
#931 = CARTESIAN_POINT ( 'NONE',  ( 10.98025612106935966, 8.980256121069146502, 2.000000000000000000 ) ) ;
#932 = LINE ( 'NONE', #723, #739 ) ;
#933 = VERTEX_POINT ( 'NONE', #757 ) ;
#934 = AXIS2_PLACEMENT_3D ( 'NONE', #138, #670, #131 ) ;
#935 = ADVANCED_FACE ( 'NONE', ( #436 ), #586, .F. ) ;
#936 = CIRCLE ( 'NONE', #323, 2.950000000000001066 ) ;
#937 = DIRECTION ( 'NONE',  ( -0.000000000000000000, 0.000000000000000000, -1.000000000000000000 ) ) ;
#938 = VECTOR ( 'NONE', #891, 1000.000000000000000 ) ;
#939 = ORIENTED_EDGE ( 'NONE', *, *, #176, .T. ) ;
#940 = DIRECTION ( 'NONE',  ( 1.000000000000000000, 0.000000000000000000, 0.000000000000000000 ) ) ;
#941 = ADVANCED_FACE ( 'NONE', ( #897 ), #54, .T. ) ;
#942 = VERTEX_POINT ( 'NONE', #373 ) ;
#943 = DIRECTION ( 'NONE',  ( -0.000000000000000000, -0.000000000000000000, -1.000000000000000000 ) ) ;
#944 = EDGE_LOOP ( 'NONE', ( #512, #273 ) ) ;
#945 = ADVANCED_FACE ( 'NONE', ( #824 ), #606, .F. ) ;
#946 = DIRECTION ( 'NONE',  ( 1.000000000000000000, 0.000000000000000000, 0.000000000000000000 ) ) ;
#947 = VERTEX_POINT ( 'NONE', #213 ) ;
#948 = COLOUR_RGB ( '',0.7921568627450980005, 0.8196078431372548767, 0.9333333333333333481 ) ;
#949 = DIRECTION ( 'NONE',  ( -0.000000000000000000, -0.000000000000000000, 1.000000000000000000 ) ) ;
#950 = FACE_OUTER_BOUND ( 'NONE', #664, .T. ) ;
#951 = AXIS2_PLACEMENT_3D ( 'NONE', #320, #469, #326 ) ;
#952 = AXIS2_PLACEMENT_3D ( 'NONE', #31, #949, #268 ) ;
#953 = EDGE_CURVE ( 'NONE', #181, #158, #364, .T. ) ;
#954 = ORIENTED_EDGE ( 'NONE', *, *, #241, .T. ) ;
#955 = ADVANCED_FACE ( 'NONE', ( #736 ), #383, .F. ) ;
#956 = DIRECTION ( 'NONE',  ( -0.000000000000000000, 0.000000000000000000, 1.000000000000000000 ) ) ;
#957 = CARTESIAN_POINT ( 'NONE',  ( 0.000000000000000000, 0.000000000000000000, 0.000000000000000000 ) ) ;
#958 = LINE ( 'NONE', #121, #678 ) ;
#959 = DIRECTION ( 'NONE',  ( 1.000000000000000000, 0.000000000000000000, 0.000000000000000000 ) ) ;
#960 = ORIENTED_EDGE ( 'NONE', *, *, #308, .T. ) ;
#961 = ORIENTED_EDGE ( 'NONE', *, *, #88, .T. ) ;
#962 = ORIENTED_EDGE ( 'NONE', *, *, #766, .T. ) ;
#963 = DIRECTION ( 'NONE',  ( 1.000000000000000000, 0.000000000000000000, 0.000000000000000000 ) ) ;
#964 = DIRECTION ( 'NONE',  ( -0.000000000000000000, -0.000000000000000000, 1.000000000000000000 ) ) ;
#965 = ADVANCED_FACE ( 'NONE', ( #666 ), #137, .F. ) ;
#966 = ADVANCED_BREP_SHAPE_REPRESENTATION ( '\X2\57ab7247\X0\-\X2\4e0b\X0\', ( #62, #7 ), #311 ) ;
#967 = DIRECTION ( 'NONE',  ( -1.000000000000000000, 0.000000000000000000, 0.000000000000000000 ) ) ;
#968 = EDGE_LOOP ( 'NONE', ( #254, #961, #939, #267 ) ) ;
#969 = CARTESIAN_POINT ( 'NONE',  ( -10.98025612106915183, 8.980256121069356112, 7.000000000000000000 ) ) ;
#970 = EDGE_CURVE ( 'NONE', #754, #37, #248, .T. ) ;
#971 = CARTESIAN_POINT ( 'NONE',  ( -6.980256121069154496, 8.980256121069356112, 2.000000000000000000 ) ) ;
#972 = AXIS2_PLACEMENT_3D ( 'NONE', #195, #44, #959 ) ;
#973 = AXIS2_PLACEMENT_3D ( 'NONE', #830, #142, #946 ) ;
#974 = ORIENTED_EDGE ( 'NONE', *, *, #970, .T. ) ;
#975 = VECTOR ( 'NONE', #943, 1000.000000000000000 ) ;
#976 = ORIENTED_EDGE ( 'NONE', *, *, #584, .T. ) ;
#977 = ORIENTED_EDGE ( 'NONE', *, *, #380, .F. ) ;
#978 = CARTESIAN_POINT ( 'NONE',  ( 10.98025612106935966, 8.980256121069146502, 7.000000000000000000 ) ) ;
#979 = ORIENTED_EDGE ( 'NONE', *, *, #970, .F. ) ;
#980 = DIRECTION ( 'NONE',  ( -1.000000000000000000, 0.000000000000000000, 0.000000000000000000 ) ) ;
#981 = LINE ( 'NONE', #602, #595 ) ;
#982 = EDGE_LOOP ( 'NONE', ( #574, #650 ) ) ;
#983 = ADVANCED_FACE ( 'NONE', ( #444 ), #601, .T. ) ;
#984 = DIRECTION ( 'NONE',  ( -0.000000000000000000, -0.000000000000000000, 1.000000000000000000 ) ) ;
#985 = DIRECTION ( 'NONE',  ( 1.000000000000000000, 0.000000000000000000, 0.000000000000000000 ) ) ;
#986 = DIRECTION ( 'NONE',  ( 1.000000000000000000, 0.000000000000000000, 0.000000000000000000 ) ) ;
#987 = CIRCLE ( 'NONE', #886, 20.50000000000000000 ) ;
#988 = VECTOR ( 'NONE', #835, 1000.000000000000000 ) ;
#989 = ORIENTED_EDGE ( 'NONE', *, *, #607, .T. ) ;
#990 = EDGE_CURVE ( 'NONE', #548, #270, #378, .T. ) ;
#991 = EDGE_CURVE ( 'NONE', #868, #600, #659, .T. ) ;
#992 = CARTESIAN_POINT ( 'NONE',  ( 36.10000000000000853, -24.91000000000000369, 7.000000000000000000 ) ) ;
#993 = CARTESIAN_POINT ( 'NONE',  ( -36.09999999999997300, -27.91000000000000369, 7.000000000000000000 ) ) ;
#994 = DIRECTION ( 'NONE',  ( -0.000000000000000000, -0.000000000000000000, -1.000000000000000000 ) ) ;
#995 = VERTEX_POINT ( 'NONE', #207 ) ;
#996 = CARTESIAN_POINT ( 'NONE',  ( -36.09999999999997300, -27.91000000000000369, 7.000000000000000000 ) ) ;
#997 = CARTESIAN_POINT ( 'NONE',  ( 8.980256121069150055, -8.980256121069359665, 7.000000000000000000 ) ) ;
#998 = DIRECTION ( 'NONE',  ( -0.000000000000000000, -0.000000000000000000, -1.000000000000000000 ) ) ;
#999 = EDGE_CURVE ( 'NONE', #198, #409, #834, .T. ) ;
ENDSEC;
END-ISO-10303-21;
