ISO-10303-21;
HEADER;
FILE_DESCRIPTION (( 'STEP AP214' ),
    '1' );
FILE_NAME ('µÊ∆¨-…œ.STEP',
    '2025-03-26T07:33:36',
    ( '' ),
    ( '' ),
    'SwSTEP 2.0',
    'SolidWorks 2024',
    '' );
FILE_SCHEMA (( 'AUTOMOTIVE_DESIGN' ));
ENDSEC;

DATA;
#1 = VERTEX_POINT ( 'NONE', #715 ) ;
#2 = CARTESIAN_POINT ( 'NONE',  ( 13.89341554530626333, 20.60000000000002629, 5.000000000000001776 ) ) ;
#3 = VERTEX_POINT ( 'NONE', #939 ) ;
#4 = VECTOR ( 'NONE', #655, 1000.000000000000000 ) ;
#5 = CIRCLE ( 'NONE', #610, 1.999999999999988010 ) ;
#6 = FACE_OUTER_BOUND ( 'NONE', #161, .T. ) ;
#7 = PLANE ( 'NONE',  #112 ) ;
#8 = ADVANCED_FACE ( 'NONE', ( #786 ), #379, .F. ) ;
#9 = VECTOR ( 'NONE', #1023, 1000.000000000000000 ) ;
#10 = ORIENTED_EDGE ( 'NONE', *, *, #478, .F. ) ;
#11 = DIRECTION ( 'NONE',  ( 1.000000000000000000, 0.000000000000000000, 0.000000000000000000 ) ) ;
#12 = CIRCLE ( 'NONE', #61, 1.999999999999988010 ) ;
#13 = VERTEX_POINT ( 'NONE', #1048 ) ;
#14 = AXIS2_PLACEMENT_3D ( 'NONE', #544, #455, #292 ) ;
#15 = DIRECTION ( 'NONE',  ( -0.000000000000000000, -0.000000000000000000, 1.000000000000000000 ) ) ;
#16 = CARTESIAN_POINT ( 'NONE',  ( 11.89341554530628287, -20.60000000000002274, 0.000000000000000000 ) ) ;
#17 =( NAMED_UNIT ( * ) PLANE_ANGLE_UNIT ( ) SI_UNIT ( $, .RADIAN. ) );
#18 = EDGE_CURVE ( 'NONE', #642, #736, #644, .T. ) ;
#19 = ORIENTED_EDGE ( 'NONE', *, *, #295, .T. ) ;
#20 = LINE ( 'NONE', #346, #253 ) ;
#21 = DIRECTION ( 'NONE',  ( -1.000000000000000000, 0.000000000000000000, 0.000000000000000000 ) ) ;
#22 = VERTEX_POINT ( 'NONE', #291 ) ;
#23 = VERTEX_POINT ( 'NONE', #867 ) ;
#24 = LINE ( 'NONE', #518, #131 ) ;
#25 = VECTOR ( 'NONE', #672, 1000.000000000000000 ) ;
#26 = CARTESIAN_POINT ( 'NONE',  ( 21.78683109061258349, -4.575399028312610879E-16, 0.000000000000000000 ) ) ;
#27 = ORIENTED_EDGE ( 'NONE', *, *, #330, .F. ) ;
#28 = VECTOR ( 'NONE', #492, 1000.000000000000000 ) ;
#29 = ADVANCED_FACE ( 'NONE', ( #303, #62, #536, #633, #473, #132, #553, #219, #454, #543, #859 ), #547, .T. ) ;
#30 = AXIS2_PLACEMENT_3D ( 'NONE', #683, #353, #349 ) ;
#31 = ORIENTED_EDGE ( 'NONE', *, *, #462, .F. ) ;
#32 =( NAMED_UNIT ( * ) PLANE_ANGLE_UNIT ( ) SI_UNIT ( $, .RADIAN. ) );
#33 = DIRECTION ( 'NONE',  ( -0.000000000000000000, -0.000000000000000000, 1.000000000000000000 ) ) ;
#34 = PRODUCT_RELATED_PRODUCT_CATEGORY ( 'part', '', ( #1013 ) ) ;
#35 = ORIENTED_EDGE ( 'NONE', *, *, #864, .T. ) ;
#36 = DIRECTION ( 'NONE',  ( -0.000000000000000000, -0.000000000000000000, 1.000000000000000000 ) ) ;
#37 = LINE ( 'NONE', #280, #148 ) ;
#38 = DIRECTION ( 'NONE',  ( -0.000000000000000000, -0.000000000000000000, -1.000000000000000000 ) ) ;
#39 = EDGE_CURVE ( 'NONE', #222, #905, #776, .T. ) ;
#40 = VECTOR ( 'NONE', #178, 1000.000000000000000 ) ;
#41 = CARTESIAN_POINT ( 'NONE',  ( -11.89341554530630241, -20.60000000000001918, 5.000000000000000000 ) ) ;
#42 = DIRECTION ( 'NONE',  ( -0.000000000000000000, -0.000000000000000000, 1.000000000000000000 ) ) ;
#43 = AXIS2_PLACEMENT_3D ( 'NONE', #252, #42, #609 ) ;
#44 = VERTEX_POINT ( 'NONE', #782 ) ;
#45 = ADVANCED_FACE ( 'NONE', ( #143, #464, #376, #296, #449 ), #877, .T. ) ;
#46 = CYLINDRICAL_SURFACE ( 'NONE', #285, 1.999999999999993117 ) ;
#47 = LINE ( 'NONE', #866, #420 ) ;
#48 = DIRECTION ( 'NONE',  ( 0.000000000000000000, 0.000000000000000000, 1.000000000000000000 ) ) ;
#49 = CYLINDRICAL_SURFACE ( 'NONE', #778, 1.999999999999991340 ) ;
#50 = ADVANCED_FACE ( 'NONE', ( #365 ), #617, .F. ) ;
#51 = UNCERTAINTY_MEASURE_WITH_UNIT (LENGTH_MEASURE( 1.000000000000000082E-05 ), #537, 'distance_accuracy_value', 'NONE');
#52 = ORIENTED_EDGE ( 'NONE', *, *, #68, .T. ) ;
#53 = DIRECTION ( 'NONE',  ( 1.000000000000000000, 0.000000000000000000, 0.000000000000000000 ) ) ;
#54 = CARTESIAN_POINT ( 'NONE',  ( -8.980256121069224662, 8.980256121069228215, 0.9999999999999986677 ) ) ;
#55 = VERTEX_POINT ( 'NONE', #812 ) ;
#56 = AXIS2_PLACEMENT_3D ( 'NONE', #324, #409, #1073 ) ;
#57 = CARTESIAN_POINT ( 'NONE',  ( 27.71281292110203864, -2.637277430277809398E-15, 5.000000000000000000 ) ) ;
#58 = ORIENTED_EDGE ( 'NONE', *, *, #583, .T. ) ;
#59 = ADVANCED_FACE ( 'NONE', ( #587 ), #7, .F. ) ;
#60 = CIRCLE ( 'NONE', #750, 1.999999999999998224 ) ;
#61 = AXIS2_PLACEMENT_3D ( 'NONE', #206, #279, #129 ) ;
#62 = FACE_BOUND ( 'NONE', #1003, .T. ) ;
#63 = AXIS2_PLACEMENT_3D ( 'NONE', #940, #36, #531 ) ;
#64 = CARTESIAN_POINT ( 'NONE',  ( -6.980256121069231767, 8.980256121069228215, 1.000000000000000000 ) ) ;
#65 = ORIENTED_EDGE ( 'NONE', *, *, #486, .F. ) ;
#66 = CARTESIAN_POINT ( 'NONE',  ( 11.89341554530628287, -20.60000000000002274, 5.000000000000001776 ) ) ;
#67 = VERTEX_POINT ( 'NONE', #391 ) ;
#68 = EDGE_CURVE ( 'NONE', #237, #756, #493, .T. ) ;
#69 = CARTESIAN_POINT ( 'NONE',  ( -8.980256121069228215, -8.980256121069228215, 0.9999999999999986677 ) ) ;
#70 = ORIENTED_EDGE ( 'NONE', *, *, #998, .F. ) ;
#71 = LINE ( 'NONE', #394, #491 ) ;
#72 = PRODUCT_DEFINITION_SHAPE ( 'NONE', 'NONE',  #728 ) ;
#73 = EDGE_LOOP ( 'NONE', ( #117, #677, #675, #224 ) ) ;
#74 = DIRECTION ( 'NONE',  ( -0.5000000000000001110, -0.8660254037844385966, 0.000000000000000000 ) ) ;
#75 = EDGE_CURVE ( 'NONE', #597, #3, #827, .T. ) ;
#76 = LINE ( 'NONE', #1062, #100 ) ;
#77 = ORIENTED_EDGE ( 'NONE', *, *, #406, .F. ) ;
#78 = DIRECTION ( 'NONE',  ( -0.000000000000000000, -0.000000000000000000, -1.000000000000000000 ) ) ;
#79 = CARTESIAN_POINT ( 'NONE',  ( 10.98025612106922111, 8.980256121069226438, 1.000000000000000000 ) ) ;
#80 = CYLINDRICAL_SURFACE ( 'NONE', #668, 1.999999999999994005 ) ;
#81 = VECTOR ( 'NONE', #718, 1000.000000000000000 ) ;
#82 = CARTESIAN_POINT ( 'NONE',  ( -21.35000000000000142, 0.000000000000000000, 1.000000000000000000 ) ) ;
#83 = ORIENTED_EDGE ( 'NONE', *, *, #912, .T. ) ;
#84 = DIRECTION ( 'NONE',  ( 1.000000000000000000, 0.000000000000000000, 0.000000000000000000 ) ) ;
#85 = DIRECTION ( 'NONE',  ( -1.000000000000000000, 1.251928832280965942E-16, 0.000000000000000000 ) ) ;
#86 = EDGE_LOOP ( 'NONE', ( #513, #1002, #1024, #294 ) ) ;
#87 = DIRECTION ( 'NONE',  ( -0.000000000000000000, -0.000000000000000000, 1.000000000000000000 ) ) ;
#88 = ORIENTED_EDGE ( 'NONE', *, *, #181, .T. ) ;
#89 = EDGE_CURVE ( 'NONE', #515, #1031, #229, .T. ) ;
#90 = CARTESIAN_POINT ( 'NONE',  ( 8.980256121069228215, 8.980256121069226438, 0.9999999999999986677 ) ) ;
#91 = CYLINDRICAL_SURFACE ( 'NONE', #448, 1.999999999999994893 ) ;
#92 = ORIENTED_EDGE ( 'NONE', *, *, #698, .F. ) ;
#93 = DIRECTION ( 'NONE',  ( -1.000000000000000000, 0.000000000000000000, 0.000000000000000000 ) ) ;
#94 = EDGE_LOOP ( 'NONE', ( #960, #681 ) ) ;
#95 = ADVANCED_FACE ( 'NONE', ( #396 ), #91, .F. ) ;
#96 = AXIS2_PLACEMENT_3D ( 'NONE', #733, #995, #888 ) ;
#97 = CARTESIAN_POINT ( 'NONE',  ( -13.85640646055102110, 24.00000000000000355, 5.000000000000000000 ) ) ;
#98 = ORIENTED_EDGE ( 'NONE', *, *, #278, .T. ) ;
#99 = CARTESIAN_POINT ( 'NONE',  ( -13.89341554530630063, -20.60000000000001918, 0.000000000000000000 ) ) ;
#100 = VECTOR ( 'NONE', #1056, 1000.000000000000000 ) ;
#101 = EDGE_LOOP ( 'NONE', ( #601, #463 ) ) ;
#102 = ORIENTED_EDGE ( 'NONE', *, *, #290, .F. ) ;
#103 = EDGE_CURVE ( 'NONE', #857, #55, #927, .T. ) ;
#104 = VERTEX_POINT ( 'NONE', #318 ) ;
#105 = CARTESIAN_POINT ( 'NONE',  ( 21.78683109061259415, -4.575399028312619754E-16, 5.000000000000001776 ) ) ;
#106 = EDGE_LOOP ( 'NONE', ( #1051, #711, #1000, #31 ) ) ;
#107 = ADVANCED_FACE ( 'NONE', ( #529 ), #650, .F. ) ;
#108 = LINE ( 'NONE', #911, #511 ) ;
#109 = ORIENTED_EDGE ( 'NONE', *, *, #175, .T. ) ;
#110 = CARTESIAN_POINT ( 'NONE',  ( 8.980256121069228215, 8.980256121069226438, 5.000000000000000000 ) ) ;
#111 = AXIS2_PLACEMENT_3D ( 'NONE', #567, #397, #240 ) ;
#112 = AXIS2_PLACEMENT_3D ( 'NONE', #581, #739, #85 ) ;
#113 = CARTESIAN_POINT ( 'NONE',  ( -10.98025612106921223, 8.980256121069228215, 0.9999999999999986677 ) ) ;
#114 = VECTOR ( 'NONE', #764, 1000.000000000000000 ) ;
#115 = LINE ( 'NONE', #171, #145 ) ;
#116 = CIRCLE ( 'NONE', #712, 1.999999999999988010 ) ;
#117 = ORIENTED_EDGE ( 'NONE', *, *, #824, .F. ) ;
#118 = DIRECTION ( 'NONE',  ( -0.000000000000000000, -0.000000000000000000, -1.000000000000000000 ) ) ;
#119 = DIRECTION ( 'NONE',  ( 0.5000000000000001110, 0.8660254037844385966, 0.000000000000000000 ) ) ;
#120 = ORIENTED_EDGE ( 'NONE', *, *, #315, .F. ) ;
#121 = EDGE_CURVE ( 'NONE', #515, #1053, #497, .T. ) ;
#122 = PRODUCT_DEFINITION_CONTEXT ( 'detailed design', #136, 'design' ) ;
#123 = SURFACE_STYLE_USAGE ( .BOTH. , #693 ) ;
#124 = CARTESIAN_POINT ( 'NONE',  ( -23.78683109061259771, -1.328872782720459218E-14, 5.000000000000000000 ) ) ;
#125 = EDGE_CURVE ( 'NONE', #477, #993, #210, .T. ) ;
#126 = ORIENTED_EDGE ( 'NONE', *, *, #1049, .F. ) ;
#127 = AXIS2_PLACEMENT_3D ( 'NONE', #561, #309, #404 ) ;
#128 = AXIS2_PLACEMENT_3D ( 'NONE', #1043, #639, #1032 ) ;
#129 = DIRECTION ( 'NONE',  ( 1.000000000000000000, 0.000000000000000000, 0.000000000000000000 ) ) ;
#130 = FACE_BOUND ( 'NONE', #395, .T. ) ;
#131 = VECTOR ( 'NONE', #687, 1000.000000000000114 ) ;
#132 = FACE_BOUND ( 'NONE', #288, .T. ) ;
#133 =( NAMED_UNIT ( * ) SI_UNIT ( $, .STERADIAN. ) SOLID_ANGLE_UNIT ( ) );
#134 = EDGE_CURVE ( 'NONE', #817, #1017, #596, .T. ) ;
#135 = DIRECTION ( 'NONE',  ( -0.000000000000000000, -0.000000000000000000, -1.000000000000000000 ) ) ;
#136 = APPLICATION_CONTEXT ( 'automotive_design' ) ;
#137 = CARTESIAN_POINT ( 'NONE',  ( 0.000000000000000000, 0.000000000000000000, 5.000000000000000000 ) ) ;
#138 = CARTESIAN_POINT ( 'NONE',  ( -11.89341554530630241, -20.60000000000001918, 0.000000000000000000 ) ) ;
#139 = DIRECTION ( 'NONE',  ( -1.000000000000000000, 0.000000000000000000, 0.000000000000000000 ) ) ;
#140 = EDGE_CURVE ( 'NONE', #489, #588, #987, .T. ) ;
#141 = CARTESIAN_POINT ( 'NONE',  ( 21.78683109061258705, -4.575399028312614823E-16, 5.000000000000000000 ) ) ;
#142 = ORIENTED_EDGE ( 'NONE', *, *, #254, .T. ) ;
#143 = FACE_BOUND ( 'NONE', #688, .T. ) ;
#144 = DIRECTION ( 'NONE',  ( -0.000000000000000000, -0.000000000000000000, -1.000000000000000000 ) ) ;
#145 = VECTOR ( 'NONE', #752, 1000.000000000000000 ) ;
#146 = FACE_BOUND ( 'NONE', #326, .T. ) ;
#147 = EDGE_LOOP ( 'NONE', ( #982, #689 ) ) ;
#148 = VECTOR ( 'NONE', #286, 1000.000000000000000 ) ;
#149 = DIRECTION ( 'NONE',  ( -1.000000000000000000, 0.000000000000000000, -0.000000000000000000 ) ) ;
#150 = AXIS2_PLACEMENT_3D ( 'NONE', #950, #217, #437 ) ;
#151 = CARTESIAN_POINT ( 'NONE',  ( 27.71281292110203864, -2.637277430277809398E-15, 5.000000000000000000 ) ) ;
#152 = DIRECTION ( 'NONE',  ( 0.000000000000000000, 0.000000000000000000, 1.000000000000000000 ) ) ;
#153 = ORIENTED_EDGE ( 'NONE', *, *, #850, .F. ) ;
#154 = CARTESIAN_POINT ( 'NONE',  ( -6.980256121069229103, -8.980256121069228215, 5.000000000000000000 ) ) ;
#155 = CARTESIAN_POINT ( 'NONE',  ( 23.78683109061257994, -7.024692626607312856E-16, 5.000000000000000000 ) ) ;
#156 = ORIENTED_EDGE ( 'NONE', *, *, #134, .T. ) ;
#157 = VERTEX_POINT ( 'NONE', #465 ) ;
#158 = DIRECTION ( 'NONE',  ( 0.000000000000000000, 0.000000000000000000, -1.000000000000000000 ) ) ;
#159 = DIRECTION ( 'NONE',  ( -0.000000000000000000, -0.000000000000000000, 1.000000000000000000 ) ) ;
#160 = LINE ( 'NONE', #64, #4 ) ;
#161 = EDGE_LOOP ( 'NONE', ( #444, #742, #19, #388 ) ) ;
#162 = DIRECTION ( 'NONE',  ( 1.000000000000000000, 0.000000000000000000, 0.000000000000000000 ) ) ;
#163 = AXIS2_PLACEMENT_3D ( 'NONE', #297, #220, #627 ) ;
#164 = VERTEX_POINT ( 'NONE', #716 ) ;
#165 = DIRECTION ( 'NONE',  ( -0.000000000000000000, -0.000000000000000000, 1.000000000000000000 ) ) ;
#166 = AXIS2_PLACEMENT_3D ( 'NONE', #500, #671, #188 ) ;
#167 = ORIENTED_EDGE ( 'NONE', *, *, #508, .F. ) ;
#168 = CYLINDRICAL_SURFACE ( 'NONE', #1025, 1.999999999999993117 ) ;
#169 = ORIENTED_EDGE ( 'NONE', *, *, #615, .F. ) ;
#170 = DIRECTION ( 'NONE',  ( -0.000000000000000000, -0.000000000000000000, 1.000000000000000000 ) ) ;
#171 = CARTESIAN_POINT ( 'NONE',  ( -13.85640646055102643, -24.00000000000000355, 5.000000000000000000 ) ) ;
#172 = SHAPE_DEFINITION_REPRESENTATION ( #72, #621 ) ;
#173 = EDGE_LOOP ( 'NONE', ( #840, #593, #520, #321 ) ) ;
#174 = LINE ( 'NONE', #845, #114 ) ;
#175 = EDGE_CURVE ( 'NONE', #953, #907, #862, .T. ) ;
#176 = EDGE_LOOP ( 'NONE', ( #180, #475 ) ) ;
#177 = LINE ( 'NONE', #663, #895 ) ;
#178 = DIRECTION ( 'NONE',  ( -0.000000000000000000, -0.000000000000000000, -1.000000000000000000 ) ) ;
#179 = CYLINDRICAL_SURFACE ( 'NONE', #166, 1.999999999999994005 ) ;
#180 = ORIENTED_EDGE ( 'NONE', *, *, #1029, .F. ) ;
#181 = EDGE_CURVE ( 'NONE', #603, #953, #516, .T. ) ;
#182 = LINE ( 'NONE', #336, #1040 ) ;
#183 = VERTEX_POINT ( 'NONE', #265 ) ;
#184 = ORIENTED_EDGE ( 'NONE', *, *, #801, .F. ) ;
#185 = DIRECTION ( 'NONE',  ( -0.000000000000000000, -0.000000000000000000, 1.000000000000000000 ) ) ;
#186 = EDGE_CURVE ( 'NONE', #506, #923, #625, .T. ) ;
#187 = EDGE_LOOP ( 'NONE', ( #263, #636, #470, #629, #92, #542 ) ) ;
#188 = DIRECTION ( 'NONE',  ( -1.000000000000000000, 0.000000000000000000, 0.000000000000000000 ) ) ;
#189 = VERTEX_POINT ( 'NONE', #1071 ) ;
#190 = FACE_OUTER_BOUND ( 'NONE', #86, .T. ) ;
#191 = AXIS2_PLACEMENT_3D ( 'NONE', #548, #144, #795 ) ;
#192 = CIRCLE ( 'NONE', #792, 2.000000000000000000 ) ;
#193 = ORIENTED_EDGE ( 'NONE', *, *, #854, .T. ) ;
#194 = DIRECTION ( 'NONE',  ( -0.000000000000000000, -0.000000000000000000, -1.000000000000000000 ) ) ;
#195 = AXIS2_PLACEMENT_3D ( 'NONE', #483, #78, #1001 ) ;
#196 = EDGE_CURVE ( 'NONE', #885, #328, #298, .T. ) ;
#197 = AXIS2_PLACEMENT_3D ( 'NONE', #66, #223, #641 ) ;
#198 = CARTESIAN_POINT ( 'NONE',  ( 13.85640646055101577, -24.00000000000000711, 0.000000000000000000 ) ) ;
#199 = CIRCLE ( 'NONE', #63, 1.999999999999998224 ) ;
#200 = EDGE_LOOP ( 'NONE', ( #933, #549 ) ) ;
#201 = DIRECTION ( 'NONE',  ( -0.000000000000000000, -0.000000000000000000, 1.000000000000000000 ) ) ;
#202 = DIRECTION ( 'NONE',  ( -1.000000000000000000, 0.000000000000000000, 0.000000000000000000 ) ) ;
#203 = EDGE_CURVE ( 'NONE', #22, #157, #177, .T. ) ;
#204 = VERTEX_POINT ( 'NONE', #269 ) ;
#205 = CARTESIAN_POINT ( 'NONE',  ( 8.980256121069221109, -8.980256121069228215, 0.9999999999999986677 ) ) ;
#206 = CARTESIAN_POINT ( 'NONE',  ( -11.89341554530630241, -20.60000000000001918, 5.000000000000001776 ) ) ;
#207 = DIRECTION ( 'NONE',  ( 1.000000000000000000, 0.000000000000000000, 0.000000000000000000 ) ) ;
#208 = EDGE_CURVE ( 'NONE', #512, #183, #590, .T. ) ;
#209 = ORIENTED_EDGE ( 'NONE', *, *, #839, .F. ) ;
#210 = CIRCLE ( 'NONE', #1058, 1.999999999999998224 ) ;
#211 = CARTESIAN_POINT ( 'NONE',  ( 13.89341554530626865, 20.60000000000002629, 5.000000000000000000 ) ) ;
#212 = EDGE_LOOP ( 'NONE', ( #632, #27 ) ) ;
#213 = VECTOR ( 'NONE', #165, 1000.000000000000000 ) ;
#214 = CIRCLE ( 'NONE', #818, 2.000000000000000000 ) ;
#215 = ORIENTED_EDGE ( 'NONE', *, *, #685, .F. ) ;
#216 = EDGE_CURVE ( 'NONE', #189, #44, #573, .T. ) ;
#217 = DIRECTION ( 'NONE',  ( -0.000000000000000000, -0.000000000000000000, 1.000000000000000000 ) ) ;
#218 = FACE_BOUND ( 'NONE', #519, .T. ) ;
#219 = FACE_BOUND ( 'NONE', #101, .T. ) ;
#220 = DIRECTION ( 'NONE',  ( -0.000000000000000000, -0.000000000000000000, 1.000000000000000000 ) ) ;
#221 = CYLINDRICAL_SURFACE ( 'NONE', #191, 21.35000000000000142 ) ;
#222 = VERTEX_POINT ( 'NONE', #571 ) ;
#223 = DIRECTION ( 'NONE',  ( -0.000000000000000000, -0.000000000000000000, 1.000000000000000000 ) ) ;
#224 = ORIENTED_EDGE ( 'NONE', *, *, #121, .F. ) ;
#225 = CARTESIAN_POINT ( 'NONE',  ( -10.98025612106922111, -8.980256121069228215, 1.000000000000000000 ) ) ;
#226 = DIRECTION ( 'NONE',  ( -1.000000000000000000, 0.000000000000000000, 0.000000000000000000 ) ) ;
#227 = LINE ( 'NONE', #1066, #964 ) ;
#228 = AXIS2_PLACEMENT_3D ( 'NONE', #276, #594, #414 ) ;
#229 = CIRCLE ( 'NONE', #56, 2.000000000000000000 ) ;
#230 = LINE ( 'NONE', #82, #81 ) ;
#231 = EDGE_CURVE ( 'NONE', #1017, #773, #227, .T. ) ;
#232 = ORIENTED_EDGE ( 'NONE', *, *, #428, .T. ) ;
#233 = AXIS2_PLACEMENT_3D ( 'NONE', #922, #829, #262 ) ;
#234 = CARTESIAN_POINT ( 'NONE',  ( 0.000000000000000000, 0.000000000000000000, 0.000000000000000000 ) ) ;
#235 = DIRECTION ( 'NONE',  ( 0.4999999999999998890, -0.8660254037844387076, 0.000000000000000000 ) ) ;
#236 = DIRECTION ( 'NONE',  ( -0.000000000000000000, -0.000000000000000000, -1.000000000000000000 ) ) ;
#237 = VERTEX_POINT ( 'NONE', #598 ) ;
#238 = EDGE_CURVE ( 'NONE', #329, #597, #192, .T. ) ;
#239 = ORIENTED_EDGE ( 'NONE', *, *, #759, .T. ) ;
#240 = DIRECTION ( 'NONE',  ( 1.000000000000000000, 0.000000000000000000, 0.000000000000000000 ) ) ;
#241 = CYLINDRICAL_SURFACE ( 'NONE', #765, 1.999999999999993117 ) ;
#242 = ORIENTED_EDGE ( 'NONE', *, *, #920, .T. ) ;
#243 = DIRECTION ( 'NONE',  ( -1.000000000000000000, 0.000000000000000000, 0.000000000000000000 ) ) ;
#244 = DIRECTION ( 'NONE',  ( -1.000000000000000000, 0.000000000000000000, 0.000000000000000000 ) ) ;
#245 = ADVANCED_FACE ( 'NONE', ( #823 ), #1072, .F. ) ;
#246 = DIRECTION ( 'NONE',  ( -0.000000000000000000, -0.000000000000000000, -1.000000000000000000 ) ) ;
#247 = EDGE_LOOP ( 'NONE', ( #970, #348, #193, #390 ) ) ;
#248 = LINE ( 'NONE', #874, #386 ) ;
#249 = AXIS2_PLACEMENT_3D ( 'NONE', #720, #972, #887 ) ;
#250 = ORIENTED_EDGE ( 'NONE', *, *, #565, .T. ) ;
#251 = DIRECTION ( 'NONE',  ( -1.000000000000000000, 0.000000000000000000, 0.000000000000000000 ) ) ;
#252 = CARTESIAN_POINT ( 'NONE',  ( -11.89341554530630241, -20.60000000000001918, 5.000000000000001776 ) ) ;
#253 = VECTOR ( 'NONE', #676, 1000.000000000000000 ) ;
#254 = EDGE_CURVE ( 'NONE', #3, #700, #5, .T. ) ;
#255 = AXIS2_PLACEMENT_3D ( 'NONE', #928, #194, #284 ) ;
#256 = ORIENTED_EDGE ( 'NONE', *, *, #231, .F. ) ;
#257 = CARTESIAN_POINT ( 'NONE',  ( 11.89341554530627576, 20.60000000000002629, 5.000000000000001776 ) ) ;
#258 = ORIENTED_EDGE ( 'NONE', *, *, #780, .T. ) ;
#259 = DIRECTION ( 'NONE',  ( 1.000000000000000000, 0.000000000000000000, 0.000000000000000000 ) ) ;
#260 = DIRECTION ( 'NONE',  ( -1.000000000000000000, 0.000000000000000000, 0.000000000000000000 ) ) ;
#261 = ORIENTED_EDGE ( 'NONE', *, *, #356, .F. ) ;
#262 = DIRECTION ( 'NONE',  ( 0.4999999999999997780, 0.8660254037844387076, 0.000000000000000000 ) ) ;
#263 = ORIENTED_EDGE ( 'NONE', *, *, #208, .F. ) ;
#264 = EDGE_CURVE ( 'NONE', #13, #164, #115, .T. ) ;
#265 = CARTESIAN_POINT ( 'NONE',  ( -13.85640646055102110, 24.00000000000000355, 0.000000000000000000 ) ) ;
#266 = FACE_OUTER_BOUND ( 'NONE', #247, .T. ) ;
#267 = ORIENTED_EDGE ( 'NONE', *, *, #814, .F. ) ;
#268 = CARTESIAN_POINT ( 'NONE',  ( -8.980256121069224662, 8.980256121069228215, 1.000000000000000000 ) ) ;
#269 = CARTESIAN_POINT ( 'NONE',  ( 27.71281292110203864, -2.637277430277809398E-15, 0.000000000000000000 ) ) ;
#270 = ORIENTED_EDGE ( 'NONE', *, *, #264, .T. ) ;
#271 = ADVANCED_FACE ( 'NONE', ( #6 ), #403, .F. ) ;
#272 = AXIS2_PLACEMENT_3D ( 'NONE', #981, #246, #572 ) ;
#273 = ORIENTED_EDGE ( 'NONE', *, *, #428, .F. ) ;
#274 = CARTESIAN_POINT ( 'NONE',  ( 25.78683109061256928, -7.024692626607312856E-16, 5.000000000000001776 ) ) ;
#275 = AXIS2_PLACEMENT_3D ( 'NONE', #327, #152, #884 ) ;
#276 = CARTESIAN_POINT ( 'NONE',  ( 0.000000000000000000, 0.000000000000000000, 0.000000000000000000 ) ) ;
#277 = CARTESIAN_POINT ( 'NONE',  ( 0.000000000000000000, 0.000000000000000000, 1.000000000000000000 ) ) ;
#278 = EDGE_CURVE ( 'NONE', #885, #905, #343, .T. ) ;
#279 = DIRECTION ( 'NONE',  ( -0.000000000000000000, -0.000000000000000000, 1.000000000000000000 ) ) ;
#280 = CARTESIAN_POINT ( 'NONE',  ( -10.98025612106921756, 8.980256121069228215, 1.000000000000000000 ) ) ;
#281 = VECTOR ( 'NONE', #820, 1000.000000000000000 ) ;
#282 = ORIENTED_EDGE ( 'NONE', *, *, #406, .T. ) ;
#283 = EDGE_CURVE ( 'NONE', #1031, #978, #831, .T. ) ;
#284 = DIRECTION ( 'NONE',  ( -1.000000000000000000, 0.000000000000000000, 0.000000000000000000 ) ) ;
#285 = AXIS2_PLACEMENT_3D ( 'NONE', #41, #860, #690 ) ;
#286 = DIRECTION ( 'NONE',  ( -0.000000000000000000, -0.000000000000000000, -1.000000000000000000 ) ) ;
#287 = CIRCLE ( 'NONE', #579, 2.000000000000000000 ) ;
#288 = EDGE_LOOP ( 'NONE', ( #126, #1064 ) ) ;
#289 = CARTESIAN_POINT ( 'NONE',  ( 13.85640646055102110, 24.00000000000000355, 5.000000000000000000 ) ) ;
#290 = EDGE_CURVE ( 'NONE', #387, #183, #182, .T. ) ;
#291 = CARTESIAN_POINT ( 'NONE',  ( -27.71281292110203864, -5.985071019545160018E-15, 5.000000000000000000 ) ) ;
#292 = DIRECTION ( 'NONE',  ( 1.000000000000000000, 0.000000000000000000, 0.000000000000000000 ) ) ;
#293 = DIRECTION ( 'NONE',  ( -0.000000000000000000, -0.000000000000000000, -1.000000000000000000 ) ) ;
#294 = ORIENTED_EDGE ( 'NONE', *, *, #290, .T. ) ;
#295 = EDGE_CURVE ( 'NONE', #67, #907, #509, .T. ) ;
#296 = FACE_BOUND ( 'NONE', #176, .T. ) ;
#297 = CARTESIAN_POINT ( 'NONE',  ( -23.78683109061259771, -1.328872782720459218E-14, 5.000000000000001776 ) ) ;
#298 = CIRCLE ( 'NONE', #417, 2.000000000000000000 ) ;
#299 = CARTESIAN_POINT ( 'NONE',  ( 6.980256121069233544, -8.980256121069228215, 0.9999999999999986677 ) ) ;
#300 = CARTESIAN_POINT ( 'NONE',  ( -13.89341554530627931, 20.60000000000002629, 5.000000000000001776 ) ) ;
#301 = VECTOR ( 'NONE', #119, 1000.000000000000114 ) ;
#302 = CIRCLE ( 'NONE', #197, 1.999999999999988010 ) ;
#303 = FACE_BOUND ( 'NONE', #441, .T. ) ;
#304 = CARTESIAN_POINT ( 'NONE',  ( -21.35000000000000142, 0.000000000000000000, 1.000000000000000000 ) ) ;
#305 = ORIENTED_EDGE ( 'NONE', *, *, #998, .T. ) ;
#306 = CARTESIAN_POINT ( 'NONE',  ( 21.35000000000000142, 2.614620916179599200E-15, 1.000000000000000000 ) ) ;
#307 = ORIENTED_EDGE ( 'NONE', *, *, #805, .F. ) ;
#308 = DIRECTION ( 'NONE',  ( 1.000000000000000000, 0.000000000000000000, -0.000000000000000000 ) ) ;
#309 = DIRECTION ( 'NONE',  ( -0.000000000000000000, -0.000000000000000000, 1.000000000000000000 ) ) ;
#310 = EDGE_CURVE ( 'NONE', #387, #22, #691, .T. ) ;
#311 = CARTESIAN_POINT ( 'NONE',  ( 13.85640646055102110, 24.00000000000000355, 5.000000000000000000 ) ) ;
#312 = ORIENTED_EDGE ( 'NONE', *, *, #942, .F. ) ;
#313 = DIRECTION ( 'NONE',  ( -0.000000000000000000, -0.000000000000000000, 1.000000000000000000 ) ) ;
#314 = DIRECTION ( 'NONE',  ( -0.000000000000000000, -0.000000000000000000, -1.000000000000000000 ) ) ;
#315 = EDGE_CURVE ( 'NONE', #603, #67, #510, .T. ) ;
#316 = CARTESIAN_POINT ( 'NONE',  ( -13.85640646055102643, -24.00000000000000355, 5.000000000000000000 ) ) ;
#317 = VERTEX_POINT ( 'NONE', #669 ) ;
#318 = CARTESIAN_POINT ( 'NONE',  ( 9.893415545306286418, 20.60000000000002629, 5.000000000000001776 ) ) ;
#319 = CARTESIAN_POINT ( 'NONE',  ( 13.85640646055101577, -24.00000000000000711, 5.000000000000000000 ) ) ;
#320 = CARTESIAN_POINT ( 'NONE',  ( 11.89341554530627576, 20.60000000000002629, 5.000000000000001776 ) ) ;
#321 = ORIENTED_EDGE ( 'NONE', *, *, #68, .F. ) ;
#322 = DIRECTION ( 'NONE',  ( -0.000000000000000000, -0.000000000000000000, 1.000000000000000000 ) ) ;
#323 = CARTESIAN_POINT ( 'NONE',  ( -23.78683109061259771, -1.328872782720459218E-14, 5.000000000000000000 ) ) ;
#324 = CARTESIAN_POINT ( 'NONE',  ( -8.980256121069228215, -8.980256121069228215, 5.000000000000000000 ) ) ;
#325 = CYLINDRICAL_SURFACE ( 'NONE', #272, 1.999999999999993117 ) ;
#326 = EDGE_LOOP ( 'NONE', ( #674, #307 ) ) ;
#327 = CARTESIAN_POINT ( 'NONE',  ( 0.000000000000000000, 0.000000000000000000, 0.000000000000000000 ) ) ;
#328 = VERTEX_POINT ( 'NONE', #419 ) ;
#329 = VERTEX_POINT ( 'NONE', #586 ) ;
#330 = EDGE_CURVE ( 'NONE', #588, #489, #666, .T. ) ;
#331 = DIRECTION ( 'NONE',  ( -0.4999999999999997780, -0.8660254037844387076, 0.000000000000000000 ) ) ;
#332 = CARTESIAN_POINT ( 'NONE',  ( 23.78683109061257994, -7.024692626607312856E-16, 5.000000000000000000 ) ) ;
#333 = ORIENTED_EDGE ( 'NONE', *, *, #784, .F. ) ;
#334 = LINE ( 'NONE', #748, #354 ) ;
#335 = ORIENTED_EDGE ( 'NONE', *, *, #278, .F. ) ;
#336 = CARTESIAN_POINT ( 'NONE',  ( -13.85640646055102110, 24.00000000000000355, 5.000000000000000000 ) ) ;
#337 = CARTESIAN_POINT ( 'NONE',  ( 25.78683109061257639, -7.024692626607312856E-16, 5.000000000000000000 ) ) ;
#338 = AXIS2_PLACEMENT_3D ( 'NONE', #618, #446, #207 ) ;
#339 = CIRCLE ( 'NONE', #471, 1.999999999999998224 ) ;
#340 = MECHANICAL_DESIGN_GEOMETRIC_PRESENTATION_REPRESENTATION (  '', ( #614 ), #559 ) ;
#341 = FACE_OUTER_BOUND ( 'NONE', #843, .T. ) ;
#342 = EDGE_LOOP ( 'NONE', ( #957, #569 ) ) ;
#343 = LINE ( 'NONE', #439, #554 ) ;
#344 = ORIENTED_EDGE ( 'NONE', *, *, #1014, .F. ) ;
#345 = EDGE_CURVE ( 'NONE', #978, #1053, #538, .T. ) ;
#346 = CARTESIAN_POINT ( 'NONE',  ( 10.98025612106921400, -8.980256121069228215, 1.000000000000000000 ) ) ;
#347 = ORIENTED_EDGE ( 'NONE', *, *, #678, .T. ) ;
#348 = ORIENTED_EDGE ( 'NONE', *, *, #216, .F. ) ;
#349 = DIRECTION ( 'NONE',  ( 1.000000000000000000, 0.000000000000000000, 0.000000000000000000 ) ) ;
#350 = ORIENTED_EDGE ( 'NONE', *, *, #772, .F. ) ;
#351 = ORIENTED_EDGE ( 'NONE', *, *, #875, .F. ) ;
#352 = VECTOR ( 'NONE', #853, 1000.000000000000114 ) ;
#353 = DIRECTION ( 'NONE',  ( -0.000000000000000000, -0.000000000000000000, 1.000000000000000000 ) ) ;
#354 = VECTOR ( 'NONE', #755, 1000.000000000000000 ) ;
#355 = ORIENTED_EDGE ( 'NONE', *, *, #421, .T. ) ;
#356 = EDGE_CURVE ( 'NONE', #963, #317, #837, .T. ) ;
#357 = CARTESIAN_POINT ( 'NONE',  ( -8.980256121069224662, 8.980256121069228215, 5.000000000000000000 ) ) ;
#358 = DIRECTION ( 'NONE',  ( -1.000000000000000000, 0.000000000000000000, 0.000000000000000000 ) ) ;
#359 = EDGE_CURVE ( 'NONE', #797, #237, #60, .T. ) ;
#360 = ORIENTED_EDGE ( 'NONE', *, *, #89, .T. ) ;
#361 = FILL_AREA_STYLE ('',( #770 ) ) ;
#362 = FACE_OUTER_BOUND ( 'NONE', #761, .T. ) ;
#363 = ORIENTED_EDGE ( 'NONE', *, *, #433, .F. ) ;
#364 = AXIS2_PLACEMENT_3D ( 'NONE', #696, #777, #244 ) ;
#365 = FACE_OUTER_BOUND ( 'NONE', #886, .T. ) ;
#366 = CARTESIAN_POINT ( 'NONE',  ( -11.89341554530628997, 20.60000000000002629, 0.000000000000000000 ) ) ;
#367 = EDGE_CURVE ( 'NONE', #1, #679, #600, .T. ) ;
#368 = VECTOR ( 'NONE', #293, 1000.000000000000000 ) ;
#369 = CIRCLE ( 'NONE', #710, 1.999999999999998224 ) ;
#370 = DIRECTION ( 'NONE',  ( 1.000000000000000000, 0.000000000000000000, 0.000000000000000000 ) ) ;
#371 = ORIENTED_EDGE ( 'NONE', *, *, #203, .T. ) ;
#372 = DIRECTION ( 'NONE',  ( -0.000000000000000000, -0.000000000000000000, 1.000000000000000000 ) ) ;
#373 = CARTESIAN_POINT ( 'NONE',  ( 13.89341554530627221, -20.60000000000002274, 5.000000000000001776 ) ) ;
#374 = ADVANCED_FACE ( 'NONE', ( #266 ), #592, .F. ) ;
#375 = FACE_OUTER_BOUND ( 'NONE', #901, .T. ) ;
#376 = FACE_BOUND ( 'NONE', #918, .T. ) ;
#377 = LINE ( 'NONE', #211, #794 ) ;
#378 = CIRCLE ( 'NONE', #533, 2.000000000000000000 ) ;
#379 = CYLINDRICAL_SURFACE ( 'NONE', #487, 1.999999999999993117 ) ;
#380 = VECTOR ( 'NONE', #903, 1000.000000000000000 ) ;
#381 = CARTESIAN_POINT ( 'NONE',  ( 9.893415545306295300, -20.60000000000002274, 5.000000000000001776 ) ) ;
#382 = ORIENTED_EDGE ( 'NONE', *, *, #254, .F. ) ;
#383 = FACE_BOUND ( 'NONE', #342, .T. ) ;
#384 = AXIS2_PLACEMENT_3D ( 'NONE', #16, #33, #811 ) ;
#385 = ORIENTED_EDGE ( 'NONE', *, *, #125, .F. ) ;
#386 = VECTOR ( 'NONE', #389, 1000.000000000000000 ) ;
#387 = VERTEX_POINT ( 'NONE', #980 ) ;
#388 = ORIENTED_EDGE ( 'NONE', *, *, #648, .T. ) ;
#389 = DIRECTION ( 'NONE',  ( -0.000000000000000000, -0.000000000000000000, 1.000000000000000000 ) ) ;
#390 = ORIENTED_EDGE ( 'NONE', *, *, #140, .T. ) ;
#391 = CARTESIAN_POINT ( 'NONE',  ( 13.89341554530628287, -20.60000000000002274, 0.000000000000000000 ) ) ;
#392 = EDGE_CURVE ( 'NONE', #477, #506, #570, .T. ) ;
#393 = PLANE ( 'NONE',  #790 ) ;
#394 = CARTESIAN_POINT ( 'NONE',  ( -27.71281292110203864, -5.985071019545160018E-15, 0.000000000000000000 ) ) ;
#395 = EDGE_LOOP ( 'NONE', ( #665, #754 ) ) ;
#396 = FACE_OUTER_BOUND ( 'NONE', #173, .T. ) ;
#397 = DIRECTION ( 'NONE',  ( -0.000000000000000000, -0.000000000000000000, 1.000000000000000000 ) ) ;
#398 = PRODUCT_DEFINITION_FORMATION_WITH_SPECIFIED_SOURCE ( '‰ª', '', #1013, .NOT_KNOWN. ) ;
#399 = EDGE_CURVE ( 'NONE', #460, #204, #819, .T. ) ;
#400 = LINE ( 'NONE', #815, #1012 ) ;
#401 = ORIENTED_EDGE ( 'NONE', *, *, #604, .F. ) ;
#402 = AXIS2_PLACEMENT_3D ( 'NONE', #589, #504, #925 ) ;
#403 = CYLINDRICAL_SURFACE ( 'NONE', #96, 1.999999999999993117 ) ;
#404 = DIRECTION ( 'NONE',  ( 1.000000000000000000, 0.000000000000000000, 0.000000000000000000 ) ) ;
#405 = CARTESIAN_POINT ( 'NONE',  ( -25.78683109061259060, -1.304379846737512188E-14, 5.000000000000000000 ) ) ;
#406 = EDGE_CURVE ( 'NONE', #930, #773, #628, .T. ) ;
#407 = ORIENTED_EDGE ( 'NONE', *, *, #450, .T. ) ;
#408 = CARTESIAN_POINT ( 'NONE',  ( 23.78683109061257994, -7.024692626607312856E-16, 0.000000000000000000 ) ) ;
#409 = DIRECTION ( 'NONE',  ( -0.000000000000000000, -0.000000000000000000, -1.000000000000000000 ) ) ;
#410 = ORIENTED_EDGE ( 'NONE', *, *, #39, .F. ) ;
#411 = FACE_OUTER_BOUND ( 'NONE', #106, .T. ) ;
#412 = EDGE_LOOP ( 'NONE', ( #407, #916, #503, #270 ) ) ;
#413 = DIRECTION ( 'NONE',  ( -0.000000000000000000, -0.000000000000000000, -1.000000000000000000 ) ) ;
#414 = DIRECTION ( 'NONE',  ( 1.000000000000000000, 0.000000000000000000, 0.000000000000000000 ) ) ;
#415 = ORIENTED_EDGE ( 'NONE', *, *, #722, .T. ) ;
#416 = DIRECTION ( 'NONE',  ( -0.000000000000000000, -0.000000000000000000, 1.000000000000000000 ) ) ;
#417 = AXIS2_PLACEMENT_3D ( 'NONE', #658, #985, #251 ) ;
#418 = EDGE_LOOP ( 'NONE', ( #808, #267, #435, #35 ) ) ;
#419 = CARTESIAN_POINT ( 'NONE',  ( 10.98025612106922111, -8.980256121069228215, 5.000000000000000000 ) ) ;
#420 = VECTOR ( 'NONE', #135, 1000.000000000000000 ) ;
#421 = EDGE_CURVE ( 'NONE', #204, #512, #869, .T. ) ;
#422 = AXIS2_PLACEMENT_3D ( 'NONE', #1022, #201, #701 ) ;
#423 = CIRCLE ( 'NONE', #150, 1.999999999999998224 ) ;
#424 = ORIENTED_EDGE ( 'NONE', *, *, #283, .F. ) ;
#425 = DIRECTION ( 'NONE',  ( -1.000000000000000000, 0.000000000000000000, 0.000000000000000000 ) ) ;
#426 = ORIENTED_EDGE ( 'NONE', *, *, #310, .T. ) ;
#427 = PRODUCT_CONTEXT ( 'NONE', #703, 'mechanical' ) ;
#428 = EDGE_CURVE ( 'NONE', #541, #204, #453, .T. ) ;
#429 = EDGE_LOOP ( 'NONE', ( #120, #88, #109, #747 ) ) ;
#430 = FACE_OUTER_BOUND ( 'NONE', #821, .T. ) ;
#431 = ORIENTED_EDGE ( 'NONE', *, *, #850, .T. ) ;
#432 = DIRECTION ( 'NONE',  ( -1.000000000000000000, 0.000000000000000000, 0.000000000000000000 ) ) ;
#433 = EDGE_CURVE ( 'NONE', #1015, #541, #623, .T. ) ;
#434 = AXIS2_PLACEMENT_3D ( 'NONE', #702, #929, #370 ) ;
#435 = ORIENTED_EDGE ( 'NONE', *, *, #231, .T. ) ;
#436 = AXIS2_PLACEMENT_3D ( 'NONE', #699, #1030, #202 ) ;
#437 = DIRECTION ( 'NONE',  ( 1.000000000000000000, 0.000000000000000000, 0.000000000000000000 ) ) ;
#438 = AXIS2_PLACEMENT_3D ( 'NONE', #268, #990, #1010 ) ;
#439 = CARTESIAN_POINT ( 'NONE',  ( 6.980256121069227326, -8.980256121069228215, 1.000000000000000000 ) ) ;
#440 = ADVANCED_FACE ( 'NONE', ( #375 ), #525, .F. ) ;
#441 = EDGE_LOOP ( 'NONE', ( #692, #833 ) ) ;
#442 = CARTESIAN_POINT ( 'NONE',  ( -21.35000000000000142, 0.000000000000000000, 0.000000000000000000 ) ) ;
#443 = CARTESIAN_POINT ( 'NONE',  ( -13.89341554530628819, 20.60000000000002629, 0.000000000000000000 ) ) ;
#444 = ORIENTED_EDGE ( 'NONE', *, *, #181, .F. ) ;
#445 = PRESENTATION_STYLE_ASSIGNMENT (( #123 ) ) ;
#446 = DIRECTION ( 'NONE',  ( -0.000000000000000000, -0.000000000000000000, 1.000000000000000000 ) ) ;
#447 = EDGE_LOOP ( 'NONE', ( #977, #959, #863, #769 ) ) ;
#448 = AXIS2_PLACEMENT_3D ( 'NONE', #332, #313, #965 ) ;
#449 = FACE_OUTER_BOUND ( 'NONE', #732, .T. ) ;
#450 = EDGE_CURVE ( 'NONE', #164, #460, #545, .T. ) ;
#451 = FACE_OUTER_BOUND ( 'NONE', #447, .T. ) ;
#452 = AXIS2_PLACEMENT_3D ( 'NONE', #320, #468, #983 ) ;
#453 = LINE ( 'NONE', #1035, #368 ) ;
#454 = FACE_BOUND ( 'NONE', #910, .T. ) ;
#455 = DIRECTION ( 'NONE',  ( -0.000000000000000000, -0.000000000000000000, 1.000000000000000000 ) ) ;
#456 = CARTESIAN_POINT ( 'NONE',  ( 13.85640646055102110, 24.00000000000000355, 0.000000000000000000 ) ) ;
#457 = ORIENTED_EDGE ( 'NONE', *, *, #924, .F. ) ;
#458 = ORIENTED_EDGE ( 'NONE', *, *, #186, .T. ) ;
#459 = DIRECTION ( 'NONE',  ( -0.8660254037844385966, 0.5000000000000001110, 0.000000000000000000 ) ) ;
#460 = VERTEX_POINT ( 'NONE', #198 ) ;
#461 = CYLINDRICAL_SURFACE ( 'NONE', #851, 21.35000000000000142 ) ;
#462 = EDGE_CURVE ( 'NONE', #997, #828, #377, .T. ) ;
#463 = ORIENTED_EDGE ( 'NONE', *, *, #1041, .T. ) ;
#464 = FACE_BOUND ( 'NONE', #582, .T. ) ;
#465 = CARTESIAN_POINT ( 'NONE',  ( -27.71281292110203864, -5.985071019545160018E-15, 0.000000000000000000 ) ) ;
#466 = AXIS2_PLACEMENT_3D ( 'NONE', #502, #913, #1020 ) ;
#467 = CARTESIAN_POINT ( 'NONE',  ( 11.89341554530628287, -20.60000000000002274, 0.000000000000000000 ) ) ;
#468 = DIRECTION ( 'NONE',  ( -0.000000000000000000, -0.000000000000000000, 1.000000000000000000 ) ) ;
#469 = CIRCLE ( 'NONE', #338, 1.999999999999988010 ) ;
#470 = ORIENTED_EDGE ( 'NONE', *, *, #399, .F. ) ;
#471 = AXIS2_PLACEMENT_3D ( 'NONE', #366, #766, #944 ) ;
#472 = EDGE_CURVE ( 'NONE', #740, #756, #469, .T. ) ;
#473 = FACE_BOUND ( 'NONE', #984, .T. ) ;
#474 = FACE_OUTER_BOUND ( 'NONE', #557, .T. ) ;
#475 = ORIENTED_EDGE ( 'NONE', *, *, #18, .F. ) ;
#476 = DIRECTION ( 'NONE',  ( -1.000000000000000000, 0.000000000000000000, 0.000000000000000000 ) ) ;
#477 = VERTEX_POINT ( 'NONE', #443 ) ;
#478 = EDGE_CURVE ( 'NONE', #797, #740, #771, .T. ) ;
#479 = DIRECTION ( 'NONE',  ( 1.000000000000000000, 0.000000000000000000, 0.000000000000000000 ) ) ;
#480 = DIRECTION ( 'NONE',  ( -0.000000000000000000, -0.000000000000000000, 1.000000000000000000 ) ) ;
#481 = ORIENTED_EDGE ( 'NONE', *, *, #920, .F. ) ;
#482 = UNCERTAINTY_MEASURE_WITH_UNIT (LENGTH_MEASURE( 1.000000000000000082E-05 ), #1050, 'distance_accuracy_value', 'NONE');
#483 = CARTESIAN_POINT ( 'NONE',  ( -8.980256121069224662, 8.980256121069228215, 5.000000000000000000 ) ) ;
#484 = DIRECTION ( 'NONE',  ( 1.000000000000000000, 0.000000000000000000, 0.000000000000000000 ) ) ;
#485 = CARTESIAN_POINT ( 'NONE',  ( -6.980256121069240649, -8.980256121069228215, 0.9999999999999986677 ) ) ;
#486 = EDGE_CURVE ( 'NONE', #1, #736, #37, .T. ) ;
#487 = AXIS2_PLACEMENT_3D ( 'NONE', #1036, #38, #226 ) ;
#488 = LINE ( 'NONE', #316, #902 ) ;
#489 = VERTEX_POINT ( 'NONE', #540 ) ;
#490 = AXIS2_PLACEMENT_3D ( 'NONE', #323, #654, #745 ) ;
#491 = VECTOR ( 'NONE', #1069, 1000.000000000000114 ) ;
#492 = DIRECTION ( 'NONE',  ( -0.000000000000000000, -0.000000000000000000, 1.000000000000000000 ) ) ;
#493 = LINE ( 'NONE', #337, #848 ) ;
#494 = ORIENTED_EDGE ( 'NONE', *, *, #39, .T. ) ;
#495 = CARTESIAN_POINT ( 'NONE',  ( 11.89341554530628287, -20.60000000000002274, 5.000000000000000000 ) ) ;
#496 = ORIENTED_EDGE ( 'NONE', *, *, #345, .F. ) ;
#497 = LINE ( 'NONE', #225, #380 ) ;
#498 = DIRECTION ( 'NONE',  ( -0.000000000000000000, -0.000000000000000000, -1.000000000000000000 ) ) ;
#499 = ORIENTED_EDGE ( 'NONE', *, *, #392, .T. ) ;
#500 = CARTESIAN_POINT ( 'NONE',  ( 8.980256121069221109, -8.980256121069228215, 1.000000000000000000 ) ) ;
#501 = ADVANCED_FACE ( 'NONE', ( #362 ), #461, .F. ) ;
#502 = CARTESIAN_POINT ( 'NONE',  ( -27.71281292110203864, -5.985071019545160018E-15, 5.000000000000000000 ) ) ;
#503 = ORIENTED_EDGE ( 'NONE', *, *, #583, .F. ) ;
#504 = DIRECTION ( 'NONE',  ( 0.000000000000000000, 0.000000000000000000, -1.000000000000000000 ) ) ;
#505 = AXIS2_PLACEMENT_3D ( 'NONE', #743, #15, #259 ) ;
#506 = VERTEX_POINT ( 'NONE', #300 ) ;
#507 = CARTESIAN_POINT ( 'NONE',  ( 9.893415545306289971, -20.60000000000002274, 5.000000000000000000 ) ) ;
#508 = EDGE_CURVE ( 'NONE', #329, #700, #47, .T. ) ;
#509 = LINE ( 'NONE', #580, #213 ) ;
#510 = CIRCLE ( 'NONE', #384, 1.999999999999998224 ) ;
#511 = VECTOR ( 'NONE', #432, 1000.000000000000000 ) ;
#512 = VERTEX_POINT ( 'NONE', #456 ) ;
#513 = ORIENTED_EDGE ( 'NONE', *, *, #534, .T. ) ;
#514 = CYLINDRICAL_SURFACE ( 'NONE', #30, 1.999999999999993117 ) ;
#515 = VERTEX_POINT ( 'NONE', #631 ) ;
#516 = LINE ( 'NONE', #507, #25 ) ;
#517 = ORIENTED_EDGE ( 'NONE', *, *, #938, .T. ) ;
#518 = CARTESIAN_POINT ( 'NONE',  ( 27.71281292110203864, -2.637277430277809398E-15, 5.000000000000000000 ) ) ;
#519 = EDGE_LOOP ( 'NONE', ( #517, #758 ) ) ;
#520 = ORIENTED_EDGE ( 'NONE', *, *, #472, .T. ) ;
#521 = ADVANCED_FACE ( 'NONE', ( #785 ), #49, .F. ) ;
#522 = CARTESIAN_POINT ( 'NONE',  ( -11.89341554530630241, -20.60000000000001918, 0.000000000000000000 ) ) ;
#523 = ORIENTED_EDGE ( 'NONE', *, *, #924, .T. ) ;
#524 = CARTESIAN_POINT ( 'NONE',  ( -9.893415545306302405, 20.60000000000002629, 5.000000000000001776 ) ) ;
#525 = CYLINDRICAL_SURFACE ( 'NONE', #434, 1.999999999999993117 ) ;
#526 = VERTEX_POINT ( 'NONE', #289 ) ;
#527 = FACE_OUTER_BOUND ( 'NONE', #890, .T. ) ;
#528 = CARTESIAN_POINT ( 'NONE',  ( -13.85640646055102643, -24.00000000000000355, 0.000000000000000000 ) ) ;
#529 = FACE_OUTER_BOUND ( 'NONE', #1057, .T. ) ;
#530 = DIRECTION ( 'NONE',  ( -0.000000000000000000, -0.000000000000000000, -1.000000000000000000 ) ) ;
#531 = DIRECTION ( 'NONE',  ( 1.000000000000000000, 0.000000000000000000, 0.000000000000000000 ) ) ;
#532 = DIRECTION ( 'NONE',  ( -0.4999999999999997780, -0.8660254037844387076, 0.000000000000000000 ) ) ;
#533 = AXIS2_PLACEMENT_3D ( 'NONE', #1054, #314, #806 ) ;
#534 = EDGE_CURVE ( 'NONE', #183, #157, #775, .T. ) ;
#535 = AXIS2_PLACEMENT_3D ( 'NONE', #205, #530, #871 ) ;
#536 = FACE_BOUND ( 'NONE', #212, .T. ) ;
#537 =( LENGTH_UNIT ( ) NAMED_UNIT ( * ) SI_UNIT ( .MILLI., .METRE. ) );
#538 = CIRCLE ( 'NONE', #708, 1.999999999999988010 ) ;
#539 = VECTOR ( 'NONE', #236, 1000.000000000000000 ) ;
#540 = CARTESIAN_POINT ( 'NONE',  ( -21.78683109061261192, -1.328872782720459218E-14, 5.000000000000001776 ) ) ;
#541 = VERTEX_POINT ( 'NONE', #57 ) ;
#542 = ORIENTED_EDGE ( 'NONE', *, *, #534, .F. ) ;
#543 = FACE_BOUND ( 'NONE', #94, .T. ) ;
#544 = CARTESIAN_POINT ( 'NONE',  ( -11.89341554530630241, -20.60000000000001918, 5.000000000000000000 ) ) ;
#545 = LINE ( 'NONE', #528, #966 ) ;
#546 = ORIENTED_EDGE ( 'NONE', *, *, #121, .T. ) ;
#547 = PLANE ( 'NONE',  #763 ) ;
#548 = CARTESIAN_POINT ( 'NONE',  ( 0.000000000000000000, 0.000000000000000000, 1.000000000000000000 ) ) ;
#549 = ORIENTED_EDGE ( 'NONE', *, *, #175, .F. ) ;
#550 = EDGE_CURVE ( 'NONE', #700, #3, #919, .T. ) ;
#551 = DIRECTION ( 'NONE',  ( -0.000000000000000000, -0.000000000000000000, -1.000000000000000000 ) ) ;
#552 = ORIENTED_EDGE ( 'NONE', *, *, #956, .F. ) ;
#553 = FACE_BOUND ( 'NONE', #809, .T. ) ;
#554 = VECTOR ( 'NONE', #909, 1000.000000000000000 ) ;
#555 = CARTESIAN_POINT ( 'NONE',  ( 8.980256121069221109, -8.980256121069228215, 1.000000000000000000 ) ) ;
#556 = LINE ( 'NONE', #306, #539 ) ;
#557 = EDGE_LOOP ( 'NONE', ( #355, #215, #350, #232 ) ) ;
#558 = ADVANCED_FACE ( 'NONE', ( #1039, #383, #861, #130, #951, #218, #146, #652 ), #900, .F. ) ;
#559 =( GEOMETRIC_REPRESENTATION_CONTEXT ( 3 ) GLOBAL_UNCERTAINTY_ASSIGNED_CONTEXT ( ( #51 ) ) GLOBAL_UNIT_ASSIGNED_CONTEXT ( ( #537, #32, #133 ) ) REPRESENTATION_CONTEXT ( 'NONE', 'WORKASPACE' ) );
#560 = DIRECTION ( 'NONE',  ( 0.000000000000000000, 0.000000000000000000, -1.000000000000000000 ) ) ;
#561 = CARTESIAN_POINT ( 'NONE',  ( 11.89341554530627576, 20.60000000000002629, 0.000000000000000000 ) ) ;
#562 = CYLINDRICAL_SURFACE ( 'NONE', #1044, 1.999999999999994893 ) ;
#563 = ORIENTED_EDGE ( 'NONE', *, *, #18, .T. ) ;
#564 = ORIENTED_EDGE ( 'NONE', *, *, #615, .T. ) ;
#565 = EDGE_CURVE ( 'NONE', #817, #930, #76, .T. ) ;
#566 = DIRECTION ( 'NONE',  ( -0.000000000000000000, -0.000000000000000000, -1.000000000000000000 ) ) ;
#567 = CARTESIAN_POINT ( 'NONE',  ( 23.78683109061257994, -7.024692626607312856E-16, 5.000000000000001776 ) ) ;
#568 = FACE_OUTER_BOUND ( 'NONE', #724, .T. ) ;
#569 = ORIENTED_EDGE ( 'NONE', *, *, #125, .T. ) ;
#570 = LINE ( 'NONE', #896, #28 ) ;
#571 = CARTESIAN_POINT ( 'NONE',  ( 10.98025612106920867, -8.980256121069228215, 0.9999999999999986677 ) ) ;
#572 = DIRECTION ( 'NONE',  ( -1.000000000000000000, 0.000000000000000000, 0.000000000000000000 ) ) ;
#573 = CIRCLE ( 'NONE', #662, 1.999999999999998224 ) ;
#574 = ORIENTED_EDGE ( 'NONE', *, *, #938, .F. ) ;
#575 = FACE_OUTER_BOUND ( 'NONE', #429, .T. ) ;
#576 = ORIENTED_EDGE ( 'NONE', *, *, #670, .T. ) ;
#577 = ORIENTED_EDGE ( 'NONE', *, *, #784, .T. ) ;
#578 = AXIS2_PLACEMENT_3D ( 'NONE', #257, #602, #1016 ) ;
#579 = AXIS2_PLACEMENT_3D ( 'NONE', #357, #118, #813 ) ;
#580 = CARTESIAN_POINT ( 'NONE',  ( 13.89341554530627754, -20.60000000000002274, 5.000000000000000000 ) ) ;
#581 = CARTESIAN_POINT ( 'NONE',  ( -13.85640646055102643, -24.00000000000000355, 5.000000000000000000 ) ) ;
#582 = EDGE_LOOP ( 'NONE', ( #70, #410 ) ) ;
#583 = EDGE_CURVE ( 'NONE', #13, #1015, #488, .T. ) ;
#584 = CARTESIAN_POINT ( 'NONE',  ( -9.893415545306314840, -20.60000000000001918, 5.000000000000001776 ) ) ;
#585 = ORIENTED_EDGE ( 'NONE', *, *, #196, .F. ) ;
#586 = CARTESIAN_POINT ( 'NONE',  ( 6.980256121069228215, 8.980256121069226438, 5.000000000000000000 ) ) ;
#587 = FACE_OUTER_BOUND ( 'NONE', #412, .T. ) ;
#588 = VERTEX_POINT ( 'NONE', #656 ) ;
#589 = CARTESIAN_POINT ( 'NONE',  ( 0.000000000000000000, 0.000000000000000000, 0.000000000000000000 ) ) ;
#590 = LINE ( 'NONE', #835, #1038 ) ;
#591 = ADVANCED_FACE ( 'NONE', ( #411 ), #646, .F. ) ;
#592 = CYLINDRICAL_SURFACE ( 'NONE', #490, 1.999999999999991340 ) ;
#593 = ORIENTED_EDGE ( 'NONE', *, *, #478, .T. ) ;
#594 = DIRECTION ( 'NONE',  ( 0.000000000000000000, 0.000000000000000000, 1.000000000000000000 ) ) ;
#595 = DIRECTION ( 'NONE',  ( 1.000000000000000000, 0.000000000000000000, 0.000000000000000000 ) ) ;
#596 = CIRCLE ( 'NONE', #947, 1.999999999999998224 ) ;
#597 = VERTEX_POINT ( 'NONE', #807 ) ;
#598 = CARTESIAN_POINT ( 'NONE',  ( 25.78683109061257994, -7.024692626607312856E-16, 0.000000000000000000 ) ) ;
#599 = EDGE_CURVE ( 'NONE', #22, #13, #400, .T. ) ;
#600 = CIRCLE ( 'NONE', #195, 2.000000000000000000 ) ;
#601 = ORIENTED_EDGE ( 'NONE', *, *, #196, .T. ) ;
#602 = DIRECTION ( 'NONE',  ( -0.000000000000000000, -0.000000000000000000, 1.000000000000000000 ) ) ;
#603 = VERTEX_POINT ( 'NONE', #969 ) ;
#604 = EDGE_CURVE ( 'NONE', #993, #923, #248, .T. ) ;
#605 = ORIENTED_EDGE ( 'NONE', *, *, #1041, .F. ) ;
#606 = CARTESIAN_POINT ( 'NONE',  ( -23.78683109061259771, -1.328872782720459218E-14, 0.000000000000000000 ) ) ;
#607 = DIRECTION ( 'NONE',  ( -0.000000000000000000, -0.000000000000000000, -1.000000000000000000 ) ) ;
#608 = AXIS2_PLACEMENT_3D ( 'NONE', #467, #651, #479 ) ;
#609 = DIRECTION ( 'NONE',  ( 1.000000000000000000, 0.000000000000000000, 0.000000000000000000 ) ) ;
#610 = AXIS2_PLACEMENT_3D ( 'NONE', #90, #566, #260 ) ;
#611 = EDGE_LOOP ( 'NONE', ( #385, #499, #458, #401 ) ) ;
#612 = VECTOR ( 'NONE', #532, 1000.000000000000227 ) ;
#613 = CARTESIAN_POINT ( 'NONE',  ( 8.980256121069228215, 8.980256121069226438, 1.000000000000000000 ) ) ;
#614 = STYLED_ITEM ( 'NONE', ( #445 ), #934 ) ;
#615 = EDGE_CURVE ( 'NONE', #317, #55, #556, .T. ) ;
#616 = CARTESIAN_POINT ( 'NONE',  ( 0.000000000000000000, 0.000000000000000000, 1.000000000000000000 ) ) ;
#617 = CYLINDRICAL_SURFACE ( 'NONE', #364, 1.999999999999994005 ) ;
#618 = CARTESIAN_POINT ( 'NONE',  ( 23.78683109061257994, -7.024692626607312856E-16, 5.000000000000001776 ) ) ;
#619 = EDGE_CURVE ( 'NONE', #104, #828, #1061, .T. ) ;
#620 = ORIENTED_EDGE ( 'NONE', *, *, #956, .T. ) ;
#621 = ADVANCED_BREP_SHAPE_REPRESENTATION ( '\X2\57ab7247\X0\-\X2\4e0a\X0\', ( #934, #228 ), #643 ) ;
#622 = DIRECTION ( 'NONE',  ( -1.000000000000000000, 0.000000000000000000, 0.000000000000000000 ) ) ;
#623 = LINE ( 'NONE', #713, #301 ) ;
#624 = ORIENTED_EDGE ( 'NONE', *, *, #604, .T. ) ;
#625 = CIRCLE ( 'NONE', #832, 1.999999999999988010 ) ;
#626 = CARTESIAN_POINT ( 'NONE',  ( 0.000000000000000000, 0.000000000000000000, 1.000000000000000000 ) ) ;
#627 = DIRECTION ( 'NONE',  ( 1.000000000000000000, 0.000000000000000000, 0.000000000000000000 ) ) ;
#628 = CIRCLE ( 'NONE', #43, 1.999999999999988010 ) ;
#629 = ORIENTED_EDGE ( 'NONE', *, *, #450, .F. ) ;
#630 = VECTOR ( 'NONE', #735, 1000.000000000000000 ) ;
#631 = CARTESIAN_POINT ( 'NONE',  ( -10.98025612106922821, -8.980256121069228215, 5.000000000000000000 ) ) ;
#632 = ORIENTED_EDGE ( 'NONE', *, *, #140, .F. ) ;
#633 = FACE_BOUND ( 'NONE', #200, .T. ) ;
#634 = ADVANCED_FACE ( 'NONE', ( #568 ), #562, .F. ) ;
#635 = DIRECTION ( 'NONE',  ( -0.8660254037844387076, -0.4999999999999998890, 0.000000000000000000 ) ) ;
#636 = ORIENTED_EDGE ( 'NONE', *, *, #421, .F. ) ;
#637 = LINE ( 'NONE', #405, #1042 ) ;
#638 = ORIENTED_EDGE ( 'NONE', *, *, #805, .T. ) ;
#639 = DIRECTION ( 'NONE',  ( -0.000000000000000000, -0.000000000000000000, -1.000000000000000000 ) ) ;
#640 = CARTESIAN_POINT ( 'NONE',  ( -10.98025612106921578, -8.980256121069228215, 0.9999999999999986677 ) ) ;
#641 = DIRECTION ( 'NONE',  ( 1.000000000000000000, 0.000000000000000000, 0.000000000000000000 ) ) ;
#642 = VERTEX_POINT ( 'NONE', #799 ) ;
#643 =( GEOMETRIC_REPRESENTATION_CONTEXT ( 3 ) GLOBAL_UNCERTAINTY_ASSIGNED_CONTEXT ( ( #482 ) ) GLOBAL_UNIT_ASSIGNED_CONTEXT ( ( #1050, #17, #680 ) ) REPRESENTATION_CONTEXT ( 'NONE', 'WORKASPACE' ) );
#644 = CIRCLE ( 'NONE', #128, 1.999999999999988010 ) ;
#645 = PLANE ( 'NONE',  #994 ) ;
#646 = CYLINDRICAL_SURFACE ( 'NONE', #796, 1.999999999999993117 ) ;
#647 = VECTOR ( 'NONE', #988, 1000.000000000000114 ) ;
#648 = EDGE_CURVE ( 'NONE', #907, #953, #302, .T. ) ;
#649 = ORIENTED_EDGE ( 'NONE', *, *, #75, .T. ) ;
#650 = PLANE ( 'NONE',  #249 ) ;
#651 = DIRECTION ( 'NONE',  ( -0.000000000000000000, -0.000000000000000000, 1.000000000000000000 ) ) ;
#652 = FACE_OUTER_BOUND ( 'NONE', #187, .T. ) ;
#653 = ORIENTED_EDGE ( 'NONE', *, *, #486, .T. ) ;
#654 = DIRECTION ( 'NONE',  ( -0.000000000000000000, -0.000000000000000000, 1.000000000000000000 ) ) ;
#655 = DIRECTION ( 'NONE',  ( -0.000000000000000000, -0.000000000000000000, -1.000000000000000000 ) ) ;
#656 = CARTESIAN_POINT ( 'NONE',  ( -25.78683109061258705, -1.304379846737512188E-14, 5.000000000000001776 ) ) ;
#657 = ORIENTED_EDGE ( 'NONE', *, *, #356, .T. ) ;
#658 = CARTESIAN_POINT ( 'NONE',  ( 8.980256121069221109, -8.980256121069228215, 5.000000000000000000 ) ) ;
#659 = CARTESIAN_POINT ( 'NONE',  ( 13.85640646055101577, -24.00000000000000711, 0.000000000000000000 ) ) ;
#660 = ADVANCED_FACE ( 'NONE', ( #962 ), #241, .F. ) ;
#661 = CIRCLE ( 'NONE', #111, 1.999999999999988010 ) ;
#662 = AXIS2_PLACEMENT_3D ( 'NONE', #936, #945, #484 ) ;
#663 = CARTESIAN_POINT ( 'NONE',  ( -27.71281292110203864, -5.985071019545160018E-15, 5.000000000000000000 ) ) ;
#664 = DIRECTION ( 'NONE',  ( 0.000000000000000000, 0.000000000000000000, -1.000000000000000000 ) ) ;
#665 = ORIENTED_EDGE ( 'NONE', *, *, #1018, .T. ) ;
#666 = CIRCLE ( 'NONE', #898, 1.999999999999988010 ) ;
#667 = AXIS2_PLACEMENT_3D ( 'NONE', #613, #607, #622 ) ;
#668 = AXIS2_PLACEMENT_3D ( 'NONE', #555, #1060, #1045 ) ;
#669 = CARTESIAN_POINT ( 'NONE',  ( 21.35000000000000142, 2.614620916179599200E-15, 1.000000000000000000 ) ) ;
#670 = EDGE_CURVE ( 'NONE', #963, #857, #230, .T. ) ;
#671 = DIRECTION ( 'NONE',  ( -0.000000000000000000, -0.000000000000000000, -1.000000000000000000 ) ) ;
#672 = DIRECTION ( 'NONE',  ( -0.000000000000000000, -0.000000000000000000, 1.000000000000000000 ) ) ;
#673 = CARTESIAN_POINT ( 'NONE',  ( -8.980256121069228215, -8.980256121069228215, 0.9999999999999986677 ) ) ;
#674 = ORIENTED_EDGE ( 'NONE', *, *, #103, .F. ) ;
#675 = ORIENTED_EDGE ( 'NONE', *, *, #345, .T. ) ;
#676 = DIRECTION ( 'NONE',  ( -0.000000000000000000, -0.000000000000000000, -1.000000000000000000 ) ) ;
#677 = ORIENTED_EDGE ( 'NONE', *, *, #283, .T. ) ;
#678 = EDGE_CURVE ( 'NONE', #44, #588, #637, .T. ) ;
#679 = VERTEX_POINT ( 'NONE', #1052 ) ;
#680 =( NAMED_UNIT ( * ) SI_UNIT ( $, .STERADIAN. ) SOLID_ANGLE_UNIT ( ) );
#681 = ORIENTED_EDGE ( 'NONE', *, *, #942, .T. ) ;
#682 = AXIS2_PLACEMENT_3D ( 'NONE', #872, #974, #878 ) ;
#683 = CARTESIAN_POINT ( 'NONE',  ( -11.89341554530628997, 20.60000000000002629, 5.000000000000000000 ) ) ;
#684 = ORIENTED_EDGE ( 'NONE', *, *, #399, .T. ) ;
#685 = EDGE_CURVE ( 'NONE', #526, #512, #803, .T. ) ;
#686 = CIRCLE ( 'NONE', #697, 21.35000000000000142 ) ;
#687 = DIRECTION ( 'NONE',  ( -0.4999999999999998335, 0.8660254037844387076, 0.000000000000000000 ) ) ;
#688 = EDGE_LOOP ( 'NONE', ( #870, #382 ) ) ;
#689 = ORIENTED_EDGE ( 'NONE', *, *, #801, .T. ) ;
#690 = DIRECTION ( 'NONE',  ( 1.000000000000000000, 0.000000000000000000, 0.000000000000000000 ) ) ;
#691 = LINE ( 'NONE', #97, #816 ) ;
#692 = ORIENTED_EDGE ( 'NONE', *, *, #759, .F. ) ;
#693 = SURFACE_SIDE_STYLE ('',( #855 ) ) ;
#694 = CIRCLE ( 'NONE', #894, 1.999999999999988010 ) ;
#695 = DIRECTION ( 'NONE',  ( -0.000000000000000000, -0.000000000000000000, -1.000000000000000000 ) ) ;
#696 = CARTESIAN_POINT ( 'NONE',  ( 8.980256121069228215, 8.980256121069226438, 1.000000000000000000 ) ) ;
#697 = AXIS2_PLACEMENT_3D ( 'NONE', #277, #664, #93 ) ;
#698 = EDGE_CURVE ( 'NONE', #157, #164, #71, .T. ) ;
#699 = CARTESIAN_POINT ( 'NONE',  ( 8.980256121069228215, 8.980256121069226438, 0.9999999999999986677 ) ) ;
#700 = VERTEX_POINT ( 'NONE', #723 ) ;
#701 = DIRECTION ( 'NONE',  ( 1.000000000000000000, 0.000000000000000000, 0.000000000000000000 ) ) ;
#702 = CARTESIAN_POINT ( 'NONE',  ( 11.89341554530627576, 20.60000000000002629, 5.000000000000000000 ) ) ;
#703 = APPLICATION_CONTEXT ( 'automotive_design' ) ;
#704 = ORIENTED_EDGE ( 'NONE', *, *, #208, .T. ) ;
#705 = DIRECTION ( 'NONE',  ( -0.000000000000000000, -0.000000000000000000, 1.000000000000000000 ) ) ;
#706 = ADVANCED_FACE ( 'NONE', ( #575 ), #168, .F. ) ;
#707 = ORIENTED_EDGE ( 'NONE', *, *, #599, .F. ) ;
#708 = AXIS2_PLACEMENT_3D ( 'NONE', #673, #498, #358 ) ;
#709 = FACE_OUTER_BOUND ( 'NONE', #876, .T. ) ;
#710 = AXIS2_PLACEMENT_3D ( 'NONE', #522, #416, #834 ) ;
#711 = ORIENTED_EDGE ( 'NONE', *, *, #839, .T. ) ;
#712 = AXIS2_PLACEMENT_3D ( 'NONE', #69, #727, #139 ) ;
#713 = CARTESIAN_POINT ( 'NONE',  ( 13.85640646055101577, -24.00000000000000711, 5.000000000000000000 ) ) ;
#714 = ORIENTED_EDGE ( 'NONE', *, *, #238, .T. ) ;
#715 = CARTESIAN_POINT ( 'NONE',  ( -10.98025612106922466, 8.980256121069228215, 5.000000000000000000 ) ) ;
#716 = CARTESIAN_POINT ( 'NONE',  ( -13.85640646055102643, -24.00000000000000355, 0.000000000000000000 ) ) ;
#717 = ORIENTED_EDGE ( 'NONE', *, *, #814, .T. ) ;
#718 = DIRECTION ( 'NONE',  ( -0.000000000000000000, -0.000000000000000000, -1.000000000000000000 ) ) ;
#719 = EDGE_LOOP ( 'NONE', ( #791, #564, #638, #971 ) ) ;
#720 = CARTESIAN_POINT ( 'NONE',  ( 13.85640646055102110, 24.00000000000000355, 5.000000000000000000 ) ) ;
#721 = DIRECTION ( 'NONE',  ( -1.000000000000000000, 0.000000000000000000, 0.000000000000000000 ) ) ;
#722 = EDGE_CURVE ( 'NONE', #317, #963, #686, .T. ) ;
#723 = CARTESIAN_POINT ( 'NONE',  ( 6.980256121069240649, 8.980256121069226438, 0.9999999999999986677 ) ) ;
#724 = EDGE_LOOP ( 'NONE', ( #10, #574, #52, #949 ) ) ;
#725 = CIRCLE ( 'NONE', #682, 1.999999999999988010 ) ;
#726 = DIRECTION ( 'NONE',  ( -1.000000000000000000, 0.000000000000000000, 0.000000000000000000 ) ) ;
#727 = DIRECTION ( 'NONE',  ( -0.000000000000000000, -0.000000000000000000, -1.000000000000000000 ) ) ;
#728 = PRODUCT_DEFINITION ( 'Êú', '', #398, #122 ) ;
#729 = DIRECTION ( 'NONE',  ( 0.4999999999999998890, -0.8660254037844387076, 0.000000000000000000 ) ) ;
#730 = ORIENTED_EDGE ( 'NONE', *, *, #912, .F. ) ;
#731 = CIRCLE ( 'NONE', #931, 1.999999999999998224 ) ;
#732 = EDGE_LOOP ( 'NONE', ( #657, #415 ) ) ;
#733 = CARTESIAN_POINT ( 'NONE',  ( 11.89341554530628287, -20.60000000000002274, 5.000000000000000000 ) ) ;
#734 = FACE_OUTER_BOUND ( 'NONE', #1070, .T. ) ;
#735 = DIRECTION ( 'NONE',  ( -0.000000000000000000, -0.000000000000000000, -1.000000000000000000 ) ) ;
#736 = VERTEX_POINT ( 'NONE', #113 ) ;
#737 = ADVANCED_FACE ( 'NONE', ( #430 ), #514, .F. ) ;
#738 = DIRECTION ( 'NONE',  ( 1.000000000000000000, 0.000000000000000000, 0.000000000000000000 ) ) ;
#739 = DIRECTION ( 'NONE',  ( 1.251928832280965942E-16, 1.000000000000000000, -0.000000000000000000 ) ) ;
#740 = VERTEX_POINT ( 'NONE', #105 ) ;
#741 = DIRECTION ( 'NONE',  ( -0.000000000000000000, -0.000000000000000000, -1.000000000000000000 ) ) ;
#742 = ORIENTED_EDGE ( 'NONE', *, *, #1018, .F. ) ;
#743 = CARTESIAN_POINT ( 'NONE',  ( 11.89341554530628287, -20.60000000000002274, 5.000000000000001776 ) ) ;
#744 = ADVANCED_FACE ( 'NONE', ( #341 ), #760, .F. ) ;
#745 = DIRECTION ( 'NONE',  ( 1.000000000000000000, 0.000000000000000000, 0.000000000000000000 ) ) ;
#746 = AXIS2_PLACEMENT_3D ( 'NONE', #626, #793, #149 ) ;
#747 = ORIENTED_EDGE ( 'NONE', *, *, #295, .F. ) ;
#748 = CARTESIAN_POINT ( 'NONE',  ( 9.893415545306281089, 20.60000000000002629, 5.000000000000000000 ) ) ;
#749 = ORIENTED_EDGE ( 'NONE', *, *, #698, .T. ) ;
#750 = AXIS2_PLACEMENT_3D ( 'NONE', #408, #826, #738 ) ;
#751 = AXIS2_PLACEMENT_3D ( 'NONE', #1034, #783, #868 ) ;
#752 = DIRECTION ( 'NONE',  ( -0.000000000000000000, -0.000000000000000000, -1.000000000000000000 ) ) ;
#753 = ADVANCED_FACE ( 'NONE', ( #842 ), #179, .F. ) ;
#754 = ORIENTED_EDGE ( 'NONE', *, *, #315, .T. ) ;
#755 = DIRECTION ( 'NONE',  ( -0.000000000000000000, -0.000000000000000000, 1.000000000000000000 ) ) ;
#756 = VERTEX_POINT ( 'NONE', #274 ) ;
#757 = DIRECTION ( 'NONE',  ( -0.000000000000000000, -0.000000000000000000, -1.000000000000000000 ) ) ;
#758 = ORIENTED_EDGE ( 'NONE', *, *, #359, .T. ) ;
#759 = EDGE_CURVE ( 'NONE', #828, #104, #968, .T. ) ;
#760 = CYLINDRICAL_SURFACE ( 'NONE', #438, 1.999999999999993117 ) ;
#761 = EDGE_LOOP ( 'NONE', ( #169, #261, #576, #788 ) ) ;
#762 = ORIENTED_EDGE ( 'NONE', *, *, #186, .F. ) ;
#763 = AXIS2_PLACEMENT_3D ( 'NONE', #137, #48, #308 ) ;
#764 = DIRECTION ( 'NONE',  ( -0.000000000000000000, -0.000000000000000000, -1.000000000000000000 ) ) ;
#765 = AXIS2_PLACEMENT_3D ( 'NONE', #891, #551, #476 ) ;
#766 = DIRECTION ( 'NONE',  ( -0.000000000000000000, -0.000000000000000000, 1.000000000000000000 ) ) ;
#767 = DIRECTION ( 'NONE',  ( -0.000000000000000000, -0.000000000000000000, 1.000000000000000000 ) ) ;
#768 = ADVANCED_FACE ( 'NONE', ( #190 ), #906, .F. ) ;
#769 = ORIENTED_EDGE ( 'NONE', *, *, #550, .T. ) ;
#770 = FILL_AREA_STYLE_COLOUR ( '', #932 ) ;
#771 = LINE ( 'NONE', #141, #9 ) ;
#772 = EDGE_CURVE ( 'NONE', #541, #526, #24, .T. ) ;
#773 = VERTEX_POINT ( 'NONE', #584 ) ;
#774 = CYLINDRICAL_SURFACE ( 'NONE', #667, 1.999999999999994005 ) ;
#775 = LINE ( 'NONE', #789, #612 ) ;
#776 = CIRCLE ( 'NONE', #535, 1.999999999999988010 ) ;
#777 = DIRECTION ( 'NONE',  ( -0.000000000000000000, -0.000000000000000000, -1.000000000000000000 ) ) ;
#778 = AXIS2_PLACEMENT_3D ( 'NONE', #124, #705, #937 ) ;
#779 = FACE_OUTER_BOUND ( 'NONE', #418, .T. ) ;
#780 = EDGE_CURVE ( 'NONE', #1015, #460, #174, .T. ) ;
#781 = DIRECTION ( 'NONE',  ( -1.000000000000000000, 0.000000000000000000, 0.000000000000000000 ) ) ;
#782 = CARTESIAN_POINT ( 'NONE',  ( -25.78683109061259771, -1.304379846737512031E-14, 0.000000000000000000 ) ) ;
#783 = DIRECTION ( 'NONE',  ( -0.000000000000000000, -0.000000000000000000, 1.000000000000000000 ) ) ;
#784 = EDGE_CURVE ( 'NONE', #526, #387, #108, .T. ) ;
#785 = FACE_OUTER_BOUND ( 'NONE', #847, .T. ) ;
#786 = FACE_OUTER_BOUND ( 'NONE', #975, .T. ) ;
#787 = CARTESIAN_POINT ( 'NONE',  ( 13.85640646055101577, -24.00000000000000711, 5.000000000000000000 ) ) ;
#788 = ORIENTED_EDGE ( 'NONE', *, *, #103, .T. ) ;
#789 = CARTESIAN_POINT ( 'NONE',  ( -13.85640646055102110, 24.00000000000000355, 0.000000000000000000 ) ) ;
#790 = AXIS2_PLACEMENT_3D ( 'NONE', #319, #459, #74 ) ;
#791 = ORIENTED_EDGE ( 'NONE', *, *, #722, .F. ) ;
#792 = AXIS2_PLACEMENT_3D ( 'NONE', #110, #757, #943 ) ;
#793 = DIRECTION ( 'NONE',  ( 0.000000000000000000, 0.000000000000000000, -1.000000000000000000 ) ) ;
#794 = VECTOR ( 'NONE', #946, 1000.000000000000000 ) ;
#795 = DIRECTION ( 'NONE',  ( -1.000000000000000000, 0.000000000000000000, 0.000000000000000000 ) ) ;
#796 = AXIS2_PLACEMENT_3D ( 'NONE', #822, #480, #162 ) ;
#797 = VERTEX_POINT ( 'NONE', #26 ) ;
#798 = PRESENTATION_LAYER_ASSIGNMENT (  '', '', ( #614 ) ) ;
#799 = CARTESIAN_POINT ( 'NONE',  ( -6.980256121069237096, 8.980256121069228215, 0.9999999999999986677 ) ) ;
#800 = ORIENTED_EDGE ( 'NONE', *, *, #685, .T. ) ;
#801 = EDGE_CURVE ( 'NONE', #44, #189, #731, .T. ) ;
#802 = DIRECTION ( 'NONE',  ( -0.000000000000000000, -0.000000000000000000, -1.000000000000000000 ) ) ;
#803 = LINE ( 'NONE', #311, #630 ) ;
#804 = ORIENTED_EDGE ( 'NONE', *, *, #824, .T. ) ;
#805 = EDGE_CURVE ( 'NONE', #55, #857, #865, .T. ) ;
#806 = DIRECTION ( 'NONE',  ( -1.000000000000000000, 0.000000000000000000, 0.000000000000000000 ) ) ;
#807 = CARTESIAN_POINT ( 'NONE',  ( 10.98025612106922821, 8.980256121069226438, 5.000000000000000000 ) ) ;
#808 = ORIENTED_EDGE ( 'NONE', *, *, #565, .F. ) ;
#809 = EDGE_LOOP ( 'NONE', ( #714, #242 ) ) ;
#810 = CIRCLE ( 'NONE', #127, 1.999999999999998224 ) ;
#811 = DIRECTION ( 'NONE',  ( 1.000000000000000000, 0.000000000000000000, 0.000000000000000000 ) ) ;
#812 = CARTESIAN_POINT ( 'NONE',  ( 21.35000000000000142, 2.614620916179599200E-15, 0.000000000000000000 ) ) ;
#813 = DIRECTION ( 'NONE',  ( -1.000000000000000000, 0.000000000000000000, 0.000000000000000000 ) ) ;
#814 = EDGE_CURVE ( 'NONE', #1017, #817, #369, .T. ) ;
#815 = CARTESIAN_POINT ( 'NONE',  ( -27.71281292110203864, -5.985071019545160018E-15, 5.000000000000000000 ) ) ;
#816 = VECTOR ( 'NONE', #331, 1000.000000000000227 ) ;
#817 = VERTEX_POINT ( 'NONE', #99 ) ;
#818 = AXIS2_PLACEMENT_3D ( 'NONE', #849, #741, #425 ) ;
#819 = LINE ( 'NONE', #659, #647 ) ;
#820 = DIRECTION ( 'NONE',  ( -0.000000000000000000, -0.000000000000000000, -1.000000000000000000 ) ) ;
#821 = EDGE_LOOP ( 'NONE', ( #846, #351, #624, #83 ) ) ;
#822 = CARTESIAN_POINT ( 'NONE',  ( 11.89341554530627576, 20.60000000000002629, 5.000000000000000000 ) ) ;
#823 = FACE_OUTER_BOUND ( 'NONE', #989, .T. ) ;
#824 = EDGE_CURVE ( 'NONE', #1031, #515, #214, .T. ) ;
#825 = ORIENTED_EDGE ( 'NONE', *, *, #772, .T. ) ;
#826 = DIRECTION ( 'NONE',  ( -0.000000000000000000, -0.000000000000000000, 1.000000000000000000 ) ) ;
#827 = LINE ( 'NONE', #79, #281 ) ;
#828 = VERTEX_POINT ( 'NONE', #2 ) ;
#829 = DIRECTION ( 'NONE',  ( 0.8660254037844388186, -0.4999999999999998335, 0.000000000000000000 ) ) ;
#830 = ORIENTED_EDGE ( 'NONE', *, *, #433, .T. ) ;
#831 = LINE ( 'NONE', #904, #40 ) ;
#832 = AXIS2_PLACEMENT_3D ( 'NONE', #844, #170, #908 ) ;
#833 = ORIENTED_EDGE ( 'NONE', *, *, #619, .F. ) ;
#834 = DIRECTION ( 'NONE',  ( 1.000000000000000000, 0.000000000000000000, 0.000000000000000000 ) ) ;
#835 = CARTESIAN_POINT ( 'NONE',  ( 13.85640646055102110, 24.00000000000000355, 0.000000000000000000 ) ) ;
#836 = ORIENTED_EDGE ( 'NONE', *, *, #264, .F. ) ;
#837 = CIRCLE ( 'NONE', #1059, 21.35000000000000142 ) ;
#838 = CARTESIAN_POINT ( 'NONE',  ( -23.78683109061259771, -1.328872782720459218E-14, 5.000000000000001776 ) ) ;
#839 = EDGE_CURVE ( 'NONE', #23, #104, #334, .T. ) ;
#840 = ORIENTED_EDGE ( 'NONE', *, *, #359, .F. ) ;
#841 = ORIENTED_EDGE ( 'NONE', *, *, #134, .F. ) ;
#842 = FACE_OUTER_BOUND ( 'NONE', #948, .T. ) ;
#843 = EDGE_LOOP ( 'NONE', ( #344, #1047, #653, #986 ) ) ;
#844 = CARTESIAN_POINT ( 'NONE',  ( -11.89341554530628997, 20.60000000000002629, 5.000000000000001776 ) ) ;
#845 = CARTESIAN_POINT ( 'NONE',  ( 13.85640646055101577, -24.00000000000000711, 5.000000000000000000 ) ) ;
#846 = ORIENTED_EDGE ( 'NONE', *, *, #392, .F. ) ;
#847 = EDGE_LOOP ( 'NONE', ( #184, #347, #899, #892 ) ) ;
#848 = VECTOR ( 'NONE', #159, 1000.000000000000000 ) ;
#849 = CARTESIAN_POINT ( 'NONE',  ( -8.980256121069228215, -8.980256121069228215, 5.000000000000000000 ) ) ;
#850 = EDGE_CURVE ( 'NONE', #328, #222, #20, .T. ) ;
#851 = AXIS2_PLACEMENT_3D ( 'NONE', #616, #695, #781 ) ;
#852 = CYLINDRICAL_SURFACE ( 'NONE', #14, 1.999999999999993117 ) ;
#853 = DIRECTION ( 'NONE',  ( -0.4999999999999998335, 0.8660254037844387076, 0.000000000000000000 ) ) ;
#854 = EDGE_CURVE ( 'NONE', #189, #489, #1004, .T. ) ;
#855 = SURFACE_STYLE_FILL_AREA ( #361 ) ;
#856 = DIRECTION ( 'NONE',  ( 1.000000000000000000, -1.251928832280965942E-16, 0.000000000000000000 ) ) ;
#857 = VERTEX_POINT ( 'NONE', #442 ) ;
#858 = ADVANCED_FACE ( 'NONE', ( #451 ), #774, .F. ) ;
#859 = FACE_OUTER_BOUND ( 'NONE', #952, .T. ) ;
#860 = DIRECTION ( 'NONE',  ( -0.000000000000000000, -0.000000000000000000, 1.000000000000000000 ) ) ;
#861 = FACE_BOUND ( 'NONE', #147, .T. ) ;
#862 = CIRCLE ( 'NONE', #505, 1.999999999999988010 ) ;
#863 = ORIENTED_EDGE ( 'NONE', *, *, #508, .T. ) ;
#864 = EDGE_CURVE ( 'NONE', #773, #930, #12, .T. ) ;
#865 = CIRCLE ( 'NONE', #402, 21.35000000000000142 ) ;
#866 = CARTESIAN_POINT ( 'NONE',  ( 6.980256121069234432, 8.980256121069226438, 1.000000000000000000 ) ) ;
#867 = CARTESIAN_POINT ( 'NONE',  ( 9.893415545306277536, 20.60000000000002629, 0.000000000000000000 ) ) ;
#868 = DIRECTION ( 'NONE',  ( 1.000000000000000000, 0.000000000000000000, 0.000000000000000000 ) ) ;
#869 = LINE ( 'NONE', #941, #352 ) ;
#870 = ORIENTED_EDGE ( 'NONE', *, *, #550, .F. ) ;
#871 = DIRECTION ( 'NONE',  ( -1.000000000000000000, 0.000000000000000000, 0.000000000000000000 ) ) ;
#872 = CARTESIAN_POINT ( 'NONE',  ( 8.980256121069221109, -8.980256121069228215, 0.9999999999999986677 ) ) ;
#873 = ORIENTED_EDGE ( 'NONE', *, *, #1014, .T. ) ;
#874 = CARTESIAN_POINT ( 'NONE',  ( -9.893415545306297076, 20.60000000000002629, 5.000000000000000000 ) ) ;
#875 = EDGE_CURVE ( 'NONE', #993, #477, #339, .T. ) ;
#876 = EDGE_LOOP ( 'NONE', ( #684, #273, #363, #258 ) ) ;
#877 = PLANE ( 'NONE',  #746 ) ;
#878 = DIRECTION ( 'NONE',  ( -1.000000000000000000, 0.000000000000000000, 0.000000000000000000 ) ) ;
#879 = CIRCLE ( 'NONE', #751, 1.999999999999988010 ) ;
#880 = DIRECTION ( 'NONE',  ( -0.000000000000000000, -0.000000000000000000, 1.000000000000000000 ) ) ;
#881 = EDGE_LOOP ( 'NONE', ( #424, #1027, #546, #620 ) ) ;
#882 = ADVANCED_FACE ( 'NONE', ( #779 ), #46, .F. ) ;
#883 = CARTESIAN_POINT ( 'NONE',  ( 13.89341554530627398, 20.60000000000002629, 0.000000000000000000 ) ) ;
#884 = DIRECTION ( 'NONE',  ( 1.000000000000000000, 0.000000000000000000, -0.000000000000000000 ) ) ;
#885 = VERTEX_POINT ( 'NONE', #1019 ) ;
#886 = EDGE_LOOP ( 'NONE', ( #481, #649, #142, #167 ) ) ;
#887 = DIRECTION ( 'NONE',  ( 0.000000000000000000, -0.000000000000000000, -1.000000000000000000 ) ) ;
#888 = DIRECTION ( 'NONE',  ( 1.000000000000000000, 0.000000000000000000, 0.000000000000000000 ) ) ;
#889 = FACE_OUTER_BOUND ( 'NONE', #73, .T. ) ;
#890 = EDGE_LOOP ( 'NONE', ( #841, #250, #282, #256 ) ) ;
#891 = CARTESIAN_POINT ( 'NONE',  ( -8.980256121069228215, -8.980256121069228215, 1.000000000000000000 ) ) ;
#892 = ORIENTED_EDGE ( 'NONE', *, *, #854, .F. ) ;
#893 = CARTESIAN_POINT ( 'NONE',  ( -11.89341554530628997, 20.60000000000002629, 0.000000000000000000 ) ) ;
#894 = AXIS2_PLACEMENT_3D ( 'NONE', #54, #802, #721 ) ;
#895 = VECTOR ( 'NONE', #992, 1000.000000000000000 ) ;
#896 = CARTESIAN_POINT ( 'NONE',  ( -13.89341554530628287, 20.60000000000002629, 5.000000000000000000 ) ) ;
#897 = ADVANCED_FACE ( 'NONE', ( #935 ), #1037, .F. ) ;
#898 = AXIS2_PLACEMENT_3D ( 'NONE', #838, #767, #84 ) ;
#899 = ORIENTED_EDGE ( 'NONE', *, *, #330, .T. ) ;
#900 = PLANE ( 'NONE',  #275 ) ;
#901 = EDGE_LOOP ( 'NONE', ( #209, #457, #1011, #239 ) ) ;
#902 = VECTOR ( 'NONE', #958, 1000.000000000000000 ) ;
#903 = DIRECTION ( 'NONE',  ( -0.000000000000000000, -0.000000000000000000, -1.000000000000000000 ) ) ;
#904 = CARTESIAN_POINT ( 'NONE',  ( -6.980256121069235320, -8.980256121069228215, 1.000000000000000000 ) ) ;
#905 = VERTEX_POINT ( 'NONE', #299 ) ;
#906 = PLANE ( 'NONE',  #233 ) ;
#907 = VERTEX_POINT ( 'NONE', #373 ) ;
#908 = DIRECTION ( 'NONE',  ( 1.000000000000000000, 0.000000000000000000, 0.000000000000000000 ) ) ;
#909 = DIRECTION ( 'NONE',  ( -0.000000000000000000, -0.000000000000000000, -1.000000000000000000 ) ) ;
#910 = EDGE_LOOP ( 'NONE', ( #360, #804 ) ) ;
#911 = CARTESIAN_POINT ( 'NONE',  ( 13.85640646055102110, 24.00000000000000355, 5.000000000000000000 ) ) ;
#912 = EDGE_CURVE ( 'NONE', #923, #506, #879, .T. ) ;
#913 = DIRECTION ( 'NONE',  ( 0.8660254037844387076, 0.4999999999999998890, -0.000000000000000000 ) ) ;
#914 = ORIENTED_EDGE ( 'NONE', *, *, #979, .T. ) ;
#915 = AXIS2_PLACEMENT_3D ( 'NONE', #234, #560, #726 ) ;
#916 = ORIENTED_EDGE ( 'NONE', *, *, #780, .F. ) ;
#917 = CARTESIAN_POINT ( 'NONE',  ( -21.78683109061260836, -1.328872782720459218E-14, 5.000000000000000000 ) ) ;
#918 = EDGE_LOOP ( 'NONE', ( #552, #496 ) ) ;
#919 = CIRCLE ( 'NONE', #436, 1.999999999999988010 ) ;
#920 = EDGE_CURVE ( 'NONE', #597, #329, #1026, .T. ) ;
#921 = EDGE_LOOP ( 'NONE', ( #523, #914 ) ) ;
#922 = CARTESIAN_POINT ( 'NONE',  ( -13.85640646055102110, 24.00000000000000355, 5.000000000000000000 ) ) ;
#923 = VERTEX_POINT ( 'NONE', #524 ) ;
#924 = EDGE_CURVE ( 'NONE', #997, #23, #199, .T. ) ;
#925 = DIRECTION ( 'NONE',  ( -1.000000000000000000, 0.000000000000000000, 0.000000000000000000 ) ) ;
#926 = ADVANCED_FACE ( 'NONE', ( #527 ), #852, .F. ) ;
#927 = CIRCLE ( 'NONE', #915, 21.35000000000000142 ) ;
#928 = CARTESIAN_POINT ( 'NONE',  ( 8.980256121069228215, 8.980256121069226438, 5.000000000000000000 ) ) ;
#929 = DIRECTION ( 'NONE',  ( -0.000000000000000000, -0.000000000000000000, 1.000000000000000000 ) ) ;
#930 = VERTEX_POINT ( 'NONE', #1028 ) ;
#931 = AXIS2_PLACEMENT_3D ( 'NONE', #606, #999, #595 ) ;
#932 = COLOUR_RGB ( '',0.7921568627450980005, 0.8196078431372548767, 0.9333333333333333481 ) ;
#933 = ORIENTED_EDGE ( 'NONE', *, *, #648, .F. ) ;
#934 = MANIFOLD_SOLID_BREP ( '\X2\00d8\X0\4.0mm \X2\669795005b54\X0\3', #1008 ) ;
#935 = FACE_OUTER_BOUND ( 'NONE', #611, .T. ) ;
#936 = CARTESIAN_POINT ( 'NONE',  ( -23.78683109061259771, -1.328872782720459218E-14, 0.000000000000000000 ) ) ;
#937 = DIRECTION ( 'NONE',  ( 1.000000000000000000, 0.000000000000000000, 0.000000000000000000 ) ) ;
#938 = EDGE_CURVE ( 'NONE', #237, #797, #423, .T. ) ;
#939 = CARTESIAN_POINT ( 'NONE',  ( 10.98025612106921578, 8.980256121069226438, 0.9999999999999986677 ) ) ;
#940 = CARTESIAN_POINT ( 'NONE',  ( 11.89341554530627576, 20.60000000000002629, 0.000000000000000000 ) ) ;
#941 = CARTESIAN_POINT ( 'NONE',  ( 27.71281292110203864, -2.637277430277809398E-15, 0.000000000000000000 ) ) ;
#942 = EDGE_CURVE ( 'NONE', #679, #1, #287, .T. ) ;
#943 = DIRECTION ( 'NONE',  ( -1.000000000000000000, 0.000000000000000000, 0.000000000000000000 ) ) ;
#944 = DIRECTION ( 'NONE',  ( 1.000000000000000000, 0.000000000000000000, 0.000000000000000000 ) ) ;
#945 = DIRECTION ( 'NONE',  ( -0.000000000000000000, -0.000000000000000000, 1.000000000000000000 ) ) ;
#946 = DIRECTION ( 'NONE',  ( -0.000000000000000000, -0.000000000000000000, 1.000000000000000000 ) ) ;
#947 = AXIS2_PLACEMENT_3D ( 'NONE', #138, #954, #1033 ) ;
#948 = EDGE_LOOP ( 'NONE', ( #605, #431, #494, #335 ) ) ;
#949 = ORIENTED_EDGE ( 'NONE', *, *, #1049, .T. ) ;
#950 = CARTESIAN_POINT ( 'NONE',  ( 23.78683109061257994, -7.024692626607312856E-16, 0.000000000000000000 ) ) ;
#951 = FACE_BOUND ( 'NONE', #1068, .T. ) ;
#952 = EDGE_LOOP ( 'NONE', ( #577, #426, #1009, #58, #830, #825 ) ) ;
#953 = VERTEX_POINT ( 'NONE', #381 ) ;
#954 = DIRECTION ( 'NONE',  ( -0.000000000000000000, -0.000000000000000000, 1.000000000000000000 ) ) ;
#955 = FACE_OUTER_BOUND ( 'NONE', #719, .T. ) ;
#956 = EDGE_CURVE ( 'NONE', #1053, #978, #116, .T. ) ;
#957 = ORIENTED_EDGE ( 'NONE', *, *, #875, .T. ) ;
#958 = DIRECTION ( 'NONE',  ( 1.000000000000000000, -1.251928832280965942E-16, 0.000000000000000000 ) ) ;
#959 = ORIENTED_EDGE ( 'NONE', *, *, #238, .F. ) ;
#960 = ORIENTED_EDGE ( 'NONE', *, *, #367, .T. ) ;
#961 = ADVANCED_FACE ( 'NONE', ( #734 ), #80, .F. ) ;
#962 = FACE_OUTER_BOUND ( 'NONE', #881, .T. ) ;
#963 = VERTEX_POINT ( 'NONE', #304 ) ;
#964 = VECTOR ( 'NONE', #322, 1000.000000000000000 ) ;
#965 = DIRECTION ( 'NONE',  ( 1.000000000000000000, 0.000000000000000000, 0.000000000000000000 ) ) ;
#966 = VECTOR ( 'NONE', #856, 1000.000000000000000 ) ;
#967 = CARTESIAN_POINT ( 'NONE',  ( -9.893415545306291747, 20.60000000000002629, 0.000000000000000000 ) ) ;
#968 = CIRCLE ( 'NONE', #578, 1.999999999999988010 ) ;
#969 = CARTESIAN_POINT ( 'NONE',  ( 9.893415545306284642, -20.60000000000002274, 0.000000000000000000 ) ) ;
#970 = ORIENTED_EDGE ( 'NONE', *, *, #678, .F. ) ;
#971 = ORIENTED_EDGE ( 'NONE', *, *, #670, .F. ) ;
#972 = DIRECTION ( 'NONE',  ( 0.000000000000000000, -1.000000000000000000, 0.000000000000000000 ) ) ;
#973 = ADVANCED_FACE ( 'NONE', ( #474 ), #645, .F. ) ;
#974 = DIRECTION ( 'NONE',  ( -0.000000000000000000, -0.000000000000000000, -1.000000000000000000 ) ) ;
#975 = EDGE_LOOP ( 'NONE', ( #312, #873, #563, #65 ) ) ;
#976 = DIRECTION ( 'NONE',  ( 1.000000000000000000, 0.000000000000000000, 0.000000000000000000 ) ) ;
#977 = ORIENTED_EDGE ( 'NONE', *, *, #75, .F. ) ;
#978 = VERTEX_POINT ( 'NONE', #485 ) ;
#979 = EDGE_CURVE ( 'NONE', #23, #997, #810, .T. ) ;
#980 = CARTESIAN_POINT ( 'NONE',  ( -13.85640646055102110, 24.00000000000000355, 5.000000000000000000 ) ) ;
#981 = CARTESIAN_POINT ( 'NONE',  ( -8.980256121069228215, -8.980256121069228215, 1.000000000000000000 ) ) ;
#982 = ORIENTED_EDGE ( 'NONE', *, *, #216, .T. ) ;
#983 = DIRECTION ( 'NONE',  ( 1.000000000000000000, 0.000000000000000000, 0.000000000000000000 ) ) ;
#984 = EDGE_LOOP ( 'NONE', ( #1021, #77 ) ) ;
#985 = DIRECTION ( 'NONE',  ( -0.000000000000000000, -0.000000000000000000, -1.000000000000000000 ) ) ;
#986 = ORIENTED_EDGE ( 'NONE', *, *, #1029, .T. ) ;
#987 = CIRCLE ( 'NONE', #163, 1.999999999999988010 ) ;
#988 = DIRECTION ( 'NONE',  ( 0.5000000000000001110, 0.8660254037844385966, 0.000000000000000000 ) ) ;
#989 = EDGE_LOOP ( 'NONE', ( #749, #836, #707, #371 ) ) ;
#990 = DIRECTION ( 'NONE',  ( -0.000000000000000000, -0.000000000000000000, -1.000000000000000000 ) ) ;
#991 = VECTOR ( 'NONE', #185, 1000.000000000000000 ) ;
#992 = DIRECTION ( 'NONE',  ( -0.000000000000000000, -0.000000000000000000, -1.000000000000000000 ) ) ;
#993 = VERTEX_POINT ( 'NONE', #967 ) ;
#994 = AXIS2_PLACEMENT_3D ( 'NONE', #151, #635, #235 ) ;
#995 = DIRECTION ( 'NONE',  ( -0.000000000000000000, -0.000000000000000000, 1.000000000000000000 ) ) ;
#996 = APPLICATION_PROTOCOL_DEFINITION ( 'draft international standard', 'automotive_design', 1998, #703 ) ;
#997 = VERTEX_POINT ( 'NONE', #883 ) ;
#998 = EDGE_CURVE ( 'NONE', #905, #222, #725, .T. ) ;
#999 = DIRECTION ( 'NONE',  ( -0.000000000000000000, -0.000000000000000000, 1.000000000000000000 ) ) ;
#1000 = ORIENTED_EDGE ( 'NONE', *, *, #619, .T. ) ;
#1001 = DIRECTION ( 'NONE',  ( -1.000000000000000000, 0.000000000000000000, 0.000000000000000000 ) ) ;
#1002 = ORIENTED_EDGE ( 'NONE', *, *, #203, .F. ) ;
#1003 = EDGE_LOOP ( 'NONE', ( #730, #762 ) ) ;
#1004 = LINE ( 'NONE', #917, #991 ) ;
#1005 = ADVANCED_FACE ( 'NONE', ( #709 ), #393, .F. ) ;
#1006 = CIRCLE ( 'NONE', #608, 1.999999999999998224 ) ;
#1007 = APPLICATION_PROTOCOL_DEFINITION ( 'draft international standard', 'automotive_design', 1998, #136 ) ;
#1008 = CLOSED_SHELL ( 'NONE', ( #591, #897, #521, #706, #926, #95, #50, #753, #1055, #8, #1063, #107, #768, #245, #59, #1005, #973, #29, #558, #501, #45, #744, #660, #961, #858, #634, #882, #271, #374, #737, #440 ) ) ;
#1009 = ORIENTED_EDGE ( 'NONE', *, *, #599, .T. ) ;
#1010 = DIRECTION ( 'NONE',  ( -1.000000000000000000, 0.000000000000000000, 0.000000000000000000 ) ) ;
#1011 = ORIENTED_EDGE ( 'NONE', *, *, #462, .T. ) ;
#1012 = VECTOR ( 'NONE', #729, 1000.000000000000114 ) ;
#1013 = PRODUCT ( '\X2\57ab7247\X0\-\X2\4e0a\X0\', '\X2\57ab7247\X0\-\X2\4e0a\X0\', '', ( #427 ) ) ;
#1014 = EDGE_CURVE ( 'NONE', #679, #642, #160, .T. ) ;
#1015 = VERTEX_POINT ( 'NONE', #787 ) ;
#1016 = DIRECTION ( 'NONE',  ( 1.000000000000000000, 0.000000000000000000, 0.000000000000000000 ) ) ;
#1017 = VERTEX_POINT ( 'NONE', #1067 ) ;
#1018 = EDGE_CURVE ( 'NONE', #67, #603, #1006, .T. ) ;
#1019 = CARTESIAN_POINT ( 'NONE',  ( 6.980256121069221109, -8.980256121069228215, 5.000000000000000000 ) ) ;
#1020 = DIRECTION ( 'NONE',  ( -0.4999999999999998890, 0.8660254037844387076, 0.000000000000000000 ) ) ;
#1021 = ORIENTED_EDGE ( 'NONE', *, *, #864, .F. ) ;
#1022 = CARTESIAN_POINT ( 'NONE',  ( -11.89341554530628997, 20.60000000000002629, 5.000000000000000000 ) ) ;
#1023 = DIRECTION ( 'NONE',  ( -0.000000000000000000, -0.000000000000000000, 1.000000000000000000 ) ) ;
#1024 = ORIENTED_EDGE ( 'NONE', *, *, #310, .F. ) ;
#1025 = AXIS2_PLACEMENT_3D ( 'NONE', #495, #87, #11 ) ;
#1026 = CIRCLE ( 'NONE', #255, 2.000000000000000000 ) ;
#1027 = ORIENTED_EDGE ( 'NONE', *, *, #89, .F. ) ;
#1028 = CARTESIAN_POINT ( 'NONE',  ( -13.89341554530628997, -20.60000000000001918, 5.000000000000001776 ) ) ;
#1029 = EDGE_CURVE ( 'NONE', #736, #642, #694, .T. ) ;
#1030 = DIRECTION ( 'NONE',  ( -0.000000000000000000, -0.000000000000000000, -1.000000000000000000 ) ) ;
#1031 = VERTEX_POINT ( 'NONE', #154 ) ;
#1032 = DIRECTION ( 'NONE',  ( -1.000000000000000000, 0.000000000000000000, 0.000000000000000000 ) ) ;
#1033 = DIRECTION ( 'NONE',  ( 1.000000000000000000, 0.000000000000000000, 0.000000000000000000 ) ) ;
#1034 = CARTESIAN_POINT ( 'NONE',  ( -11.89341554530628997, 20.60000000000002629, 5.000000000000001776 ) ) ;
#1035 = CARTESIAN_POINT ( 'NONE',  ( 27.71281292110203864, -2.637277430277809398E-15, 5.000000000000000000 ) ) ;
#1036 = CARTESIAN_POINT ( 'NONE',  ( -8.980256121069224662, 8.980256121069228215, 1.000000000000000000 ) ) ;
#1037 = CYLINDRICAL_SURFACE ( 'NONE', #422, 1.999999999999993117 ) ;
#1038 = VECTOR ( 'NONE', #21, 1000.000000000000000 ) ;
#1039 = FACE_BOUND ( 'NONE', #921, .T. ) ;
#1040 = VECTOR ( 'NONE', #413, 1000.000000000000000 ) ;
#1041 = EDGE_CURVE ( 'NONE', #328, #885, #378, .T. ) ;
#1042 = VECTOR ( 'NONE', #880, 1000.000000000000000 ) ;
#1043 = CARTESIAN_POINT ( 'NONE',  ( -8.980256121069224662, 8.980256121069228215, 0.9999999999999986677 ) ) ;
#1044 = AXIS2_PLACEMENT_3D ( 'NONE', #155, #1046, #976 ) ;
#1045 = DIRECTION ( 'NONE',  ( -1.000000000000000000, 0.000000000000000000, 0.000000000000000000 ) ) ;
#1046 = DIRECTION ( 'NONE',  ( -0.000000000000000000, -0.000000000000000000, 1.000000000000000000 ) ) ;
#1047 = ORIENTED_EDGE ( 'NONE', *, *, #367, .F. ) ;
#1048 = CARTESIAN_POINT ( 'NONE',  ( -13.85640646055102643, -24.00000000000000355, 5.000000000000000000 ) ) ;
#1049 = EDGE_CURVE ( 'NONE', #756, #740, #661, .T. ) ;
#1050 =( LENGTH_UNIT ( ) NAMED_UNIT ( * ) SI_UNIT ( .MILLI., .METRE. ) );
#1051 = ORIENTED_EDGE ( 'NONE', *, *, #979, .F. ) ;
#1052 = CARTESIAN_POINT ( 'NONE',  ( -6.980256121069225550, 8.980256121069228215, 5.000000000000000000 ) ) ;
#1053 = VERTEX_POINT ( 'NONE', #640 ) ;
#1054 = CARTESIAN_POINT ( 'NONE',  ( 8.980256121069221109, -8.980256121069228215, 5.000000000000000000 ) ) ;
#1055 = ADVANCED_FACE ( 'NONE', ( #889 ), #325, .F. ) ;
#1056 = DIRECTION ( 'NONE',  ( -0.000000000000000000, -0.000000000000000000, 1.000000000000000000 ) ) ;
#1057 = EDGE_LOOP ( 'NONE', ( #704, #102, #333, #800 ) ) ;
#1058 = AXIS2_PLACEMENT_3D ( 'NONE', #893, #372, #53 ) ;
#1059 = AXIS2_PLACEMENT_3D ( 'NONE', #1065, #158, #243 ) ;
#1060 = DIRECTION ( 'NONE',  ( -0.000000000000000000, -0.000000000000000000, -1.000000000000000000 ) ) ;
#1061 = CIRCLE ( 'NONE', #452, 1.999999999999988010 ) ;
#1062 = CARTESIAN_POINT ( 'NONE',  ( -13.89341554530629530, -20.60000000000001918, 5.000000000000000000 ) ) ;
#1063 = ADVANCED_FACE ( 'NONE', ( #955 ), #221, .F. ) ;
#1064 = ORIENTED_EDGE ( 'NONE', *, *, #472, .F. ) ;
#1065 = CARTESIAN_POINT ( 'NONE',  ( 0.000000000000000000, 0.000000000000000000, 1.000000000000000000 ) ) ;
#1066 = CARTESIAN_POINT ( 'NONE',  ( -9.893415545306309511, -20.60000000000001918, 5.000000000000000000 ) ) ;
#1067 = CARTESIAN_POINT ( 'NONE',  ( -9.893415545306304182, -20.60000000000001918, 0.000000000000000000 ) ) ;
#1068 = EDGE_LOOP ( 'NONE', ( #717, #156 ) ) ;
#1069 = DIRECTION ( 'NONE',  ( 0.4999999999999998890, -0.8660254037844387076, 0.000000000000000000 ) ) ;
#1070 = EDGE_LOOP ( 'NONE', ( #153, #585, #98, #305 ) ) ;
#1071 = CARTESIAN_POINT ( 'NONE',  ( -21.78683109061260126, -1.328872782720459218E-14, 0.000000000000000000 ) ) ;
#1072 = PLANE ( 'NONE',  #466 ) ;
#1073 = DIRECTION ( 'NONE',  ( -1.000000000000000000, 0.000000000000000000, 0.000000000000000000 ) ) ;
ENDSEC;
END-ISO-10303-21;
