%TF.GenerationSoftware,KiCad,Pcbnew,9.99.0-617-gea36110980*%
%TF.CreationDate,2025-03-22T22:43:03+08:00*%
%TF.ProjectId,skateboard,736b6174-6562-46f6-9172-642e6b696361,rev?*%
%TF.SameCoordinates,Original*%
%TF.FileFunction,Paste,Bot*%
%TF.FilePolarity,Positive*%
%FSLAX46Y46*%
G04 Gerber Fmt 4.6, Leading zero omitted, Abs format (unit mm)*
G04 Created by KiCad (PCBNEW 9.99.0-617-gea36110980) date 2025-03-22 22:43:03*
%MOMM*%
%LPD*%
G01*
G04 APERTURE LIST*
G04 Aperture macros list*
%AMRoundRect*
0 Rectangle with rounded corners*
0 $1 Rounding radius*
0 $2 $3 $4 $5 $6 $7 $8 $9 X,Y pos of 4 corners*
0 Add a 4 corners polygon primitive as box body*
4,1,4,$2,$3,$4,$5,$6,$7,$8,$9,$2,$3,0*
0 Add four circle primitives for the rounded corners*
1,1,$1+$1,$2,$3*
1,1,$1+$1,$4,$5*
1,1,$1+$1,$6,$7*
1,1,$1+$1,$8,$9*
0 Add four rect primitives between the rounded corners*
20,1,$1+$1,$2,$3,$4,$5,0*
20,1,$1+$1,$4,$5,$6,$7,0*
20,1,$1+$1,$6,$7,$8,$9,0*
20,1,$1+$1,$8,$9,$2,$3,0*%
G04 Aperture macros list end*
%ADD10RoundRect,0.200000X0.200000X0.275000X-0.200000X0.275000X-0.200000X-0.275000X0.200000X-0.275000X0*%
%ADD11RoundRect,0.250000X1.100000X-0.325000X1.100000X0.325000X-1.100000X0.325000X-1.100000X-0.325000X0*%
%ADD12RoundRect,0.225000X-0.225000X-0.250000X0.225000X-0.250000X0.225000X0.250000X-0.225000X0.250000X0*%
%ADD13RoundRect,0.200000X-0.275000X0.200000X-0.275000X-0.200000X0.275000X-0.200000X0.275000X0.200000X0*%
%ADD14RoundRect,0.225000X0.250000X-0.225000X0.250000X0.225000X-0.250000X0.225000X-0.250000X-0.225000X0*%
%ADD15RoundRect,0.225000X0.225000X0.250000X-0.225000X0.250000X-0.225000X-0.250000X0.225000X-0.250000X0*%
%ADD16RoundRect,0.200000X-0.200000X-0.275000X0.200000X-0.275000X0.200000X0.275000X-0.200000X0.275000X0*%
%ADD17RoundRect,0.200000X0.275000X-0.200000X0.275000X0.200000X-0.275000X0.200000X-0.275000X-0.200000X0*%
%ADD18RoundRect,0.062500X0.062500X-0.117500X0.062500X0.117500X-0.062500X0.117500X-0.062500X-0.117500X0*%
%ADD19RoundRect,0.250000X0.325000X1.100000X-0.325000X1.100000X-0.325000X-1.100000X0.325000X-1.100000X0*%
%ADD20RoundRect,0.062500X-0.062500X0.117500X-0.062500X-0.117500X0.062500X-0.117500X0.062500X0.117500X0*%
%ADD21RoundRect,0.250000X-1.000000X-0.650000X1.000000X-0.650000X1.000000X0.650000X-1.000000X0.650000X0*%
%ADD22RoundRect,0.225000X-0.250000X0.225000X-0.250000X-0.225000X0.250000X-0.225000X0.250000X0.225000X0*%
%ADD23RoundRect,0.250000X-0.325000X-1.100000X0.325000X-1.100000X0.325000X1.100000X-0.325000X1.100000X0*%
%ADD24RoundRect,0.250000X1.400000X1.000000X-1.400000X1.000000X-1.400000X-1.000000X1.400000X-1.000000X0*%
%ADD25RoundRect,0.250000X0.325000X0.650000X-0.325000X0.650000X-0.325000X-0.650000X0.325000X-0.650000X0*%
%ADD26RoundRect,0.250000X-1.400000X-1.000000X1.400000X-1.000000X1.400000X1.000000X-1.400000X1.000000X0*%
%ADD27RoundRect,0.250000X-1.100000X0.325000X-1.100000X-0.325000X1.100000X-0.325000X1.100000X0.325000X0*%
%ADD28RoundRect,0.150000X-0.150000X0.587500X-0.150000X-0.587500X0.150000X-0.587500X0.150000X0.587500X0*%
G04 APERTURE END LIST*
D10*
%TO.C,R35*%
X94185000Y-81420000D03*
X92535000Y-81420000D03*
%TD*%
D11*
%TO.C,C17*%
X146610000Y-143945000D03*
X146610000Y-140995000D03*
%TD*%
D10*
%TO.C,R38*%
X94185000Y-79390000D03*
X92535000Y-79390000D03*
%TD*%
D12*
%TO.C,C30*%
X98175000Y-85330000D03*
X99725000Y-85330000D03*
%TD*%
D13*
%TO.C,R59*%
X143900000Y-98655000D03*
X143900000Y-100305000D03*
%TD*%
D10*
%TO.C,R15*%
X119375000Y-115270000D03*
X117725000Y-115270000D03*
%TD*%
D13*
%TO.C,R12*%
X155470000Y-141365000D03*
X155470000Y-143015000D03*
%TD*%
D14*
%TO.C,C43*%
X155900000Y-148935000D03*
X155900000Y-147385000D03*
%TD*%
D15*
%TO.C,C34*%
X99705000Y-80610000D03*
X98155000Y-80610000D03*
%TD*%
%TO.C,C26*%
X122645000Y-110920000D03*
X121095000Y-110920000D03*
%TD*%
D10*
%TO.C,R33*%
X94185000Y-83450000D03*
X92535000Y-83450000D03*
%TD*%
D16*
%TO.C,R63*%
X139255000Y-131390000D03*
X140905000Y-131390000D03*
%TD*%
D13*
%TO.C,R29*%
X122580000Y-118105000D03*
X122580000Y-119755000D03*
%TD*%
D17*
%TO.C,R50*%
X139350000Y-103105000D03*
X139350000Y-101455000D03*
%TD*%
D12*
%TO.C,C46*%
X139305000Y-106824000D03*
X140855000Y-106824000D03*
%TD*%
D10*
%TO.C,R37*%
X162115000Y-85440000D03*
X160465000Y-85440000D03*
%TD*%
D15*
%TO.C,C18*%
X108375000Y-115420000D03*
X106825000Y-115420000D03*
%TD*%
D10*
%TO.C,R1*%
X136665000Y-95300000D03*
X135015000Y-95300000D03*
%TD*%
D18*
%TO.C,D1*%
X161160000Y-149770000D03*
X161160000Y-150610000D03*
%TD*%
D12*
%TO.C,C59*%
X98405000Y-113960000D03*
X99955000Y-113960000D03*
%TD*%
D15*
%TO.C,C32*%
X122625000Y-96200000D03*
X121075000Y-96200000D03*
%TD*%
D16*
%TO.C,R14*%
X117705000Y-113220000D03*
X119355000Y-113220000D03*
%TD*%
D13*
%TO.C,R17*%
X144940000Y-137110000D03*
X144940000Y-138760000D03*
%TD*%
D16*
%TO.C,R23*%
X90525000Y-117280000D03*
X92175000Y-117280000D03*
%TD*%
%TO.C,R48*%
X139255000Y-104982000D03*
X140905000Y-104982000D03*
%TD*%
D17*
%TO.C,R16*%
X143270000Y-138760000D03*
X143270000Y-137110000D03*
%TD*%
D19*
%TO.C,C14*%
X147005000Y-119950000D03*
X144055000Y-119950000D03*
%TD*%
D12*
%TO.C,C51*%
X139305000Y-122400000D03*
X140855000Y-122400000D03*
%TD*%
%TO.C,C57*%
X139305000Y-133098000D03*
X140855000Y-133098000D03*
%TD*%
%TO.C,C44*%
X139305000Y-110508000D03*
X140855000Y-110508000D03*
%TD*%
D15*
%TO.C,C37*%
X169585000Y-86500000D03*
X168035000Y-86500000D03*
%TD*%
%TO.C,C42*%
X148915000Y-93220000D03*
X147365000Y-93220000D03*
%TD*%
D20*
%TO.C,D3*%
X164520000Y-141580000D03*
X164520000Y-140740000D03*
%TD*%
D16*
%TO.C,R60*%
X139255000Y-129682000D03*
X140905000Y-129682000D03*
%TD*%
D17*
%TO.C,R25*%
X101270000Y-124475000D03*
X101270000Y-122825000D03*
%TD*%
D10*
%TO.C,R30*%
X122685000Y-112670000D03*
X121035000Y-112670000D03*
%TD*%
D13*
%TO.C,R21*%
X99790000Y-119085000D03*
X99790000Y-120735000D03*
%TD*%
D17*
%TO.C,R18*%
X146560000Y-138775000D03*
X146560000Y-137125000D03*
%TD*%
D21*
%TO.C,D8*%
X112752500Y-89460000D03*
X116752500Y-89460000D03*
%TD*%
D17*
%TO.C,R22*%
X101460000Y-120755000D03*
X101460000Y-119105000D03*
%TD*%
%TO.C,R8*%
X152710000Y-101905000D03*
X152710000Y-100255000D03*
%TD*%
D18*
%TO.C,D2*%
X162160000Y-149780000D03*
X162160000Y-150620000D03*
%TD*%
D10*
%TO.C,R19*%
X162765000Y-135180000D03*
X161115000Y-135180000D03*
%TD*%
D22*
%TO.C,C22*%
X95920000Y-122885000D03*
X95920000Y-124435000D03*
%TD*%
D12*
%TO.C,C2*%
X135045000Y-92090000D03*
X136595000Y-92090000D03*
%TD*%
D10*
%TO.C,R2*%
X136655000Y-93690000D03*
X135005000Y-93690000D03*
%TD*%
D23*
%TO.C,C7*%
X151445000Y-131110000D03*
X154395000Y-131110000D03*
%TD*%
D15*
%TO.C,C31*%
X99715000Y-83770000D03*
X98165000Y-83770000D03*
%TD*%
D14*
%TO.C,C23*%
X97740000Y-124435000D03*
X97740000Y-122885000D03*
%TD*%
D10*
%TO.C,R28*%
X122695000Y-109102000D03*
X121045000Y-109102000D03*
%TD*%
D21*
%TO.C,D15*%
X112762500Y-85660000D03*
X116762500Y-85660000D03*
%TD*%
D15*
%TO.C,C4*%
X162715000Y-102560000D03*
X161165000Y-102560000D03*
%TD*%
D16*
%TO.C,R51*%
X139255000Y-108666000D03*
X140905000Y-108666000D03*
%TD*%
D15*
%TO.C,C56*%
X169565000Y-90340000D03*
X168015000Y-90340000D03*
%TD*%
%TO.C,C33*%
X122625000Y-99860000D03*
X121075000Y-99860000D03*
%TD*%
D16*
%TO.C,R6*%
X147335000Y-90620000D03*
X148985000Y-90620000D03*
%TD*%
%TO.C,R49*%
X139255000Y-112350000D03*
X140905000Y-112350000D03*
%TD*%
D10*
%TO.C,R43*%
X162095000Y-87430000D03*
X160445000Y-87430000D03*
%TD*%
D17*
%TO.C,R62*%
X139230000Y-127875000D03*
X139230000Y-126225000D03*
%TD*%
D12*
%TO.C,C55*%
X139305000Y-136514000D03*
X140855000Y-136514000D03*
%TD*%
D24*
%TO.C,D4*%
X152370000Y-116540000D03*
X152370000Y-123340000D03*
%TD*%
D12*
%TO.C,C5*%
X155255000Y-99790000D03*
X156805000Y-99790000D03*
%TD*%
D14*
%TO.C,C40*%
X160640000Y-109615000D03*
X160640000Y-108065000D03*
%TD*%
D12*
%TO.C,C58*%
X168015000Y-88660000D03*
X169565000Y-88660000D03*
%TD*%
D14*
%TO.C,C8*%
X149470000Y-138665000D03*
X149470000Y-137115000D03*
%TD*%
D16*
%TO.C,R61*%
X139255000Y-134806000D03*
X140905000Y-134806000D03*
%TD*%
D12*
%TO.C,C54*%
X98175000Y-77470000D03*
X99725000Y-77470000D03*
%TD*%
D10*
%TO.C,R36*%
X122675000Y-101690000D03*
X121025000Y-101690000D03*
%TD*%
%TO.C,R32*%
X122675000Y-98030000D03*
X121025000Y-98030000D03*
%TD*%
%TO.C,R39*%
X122685000Y-91230000D03*
X121035000Y-91230000D03*
%TD*%
D15*
%TO.C,C53*%
X99715000Y-79040000D03*
X98165000Y-79040000D03*
%TD*%
D16*
%TO.C,R52*%
X139255000Y-117276000D03*
X140905000Y-117276000D03*
%TD*%
%TO.C,R7*%
X152755000Y-103590000D03*
X154405000Y-103590000D03*
%TD*%
%TO.C,R11*%
X112635000Y-113190000D03*
X114285000Y-113190000D03*
%TD*%
D14*
%TO.C,C9*%
X117700000Y-118645000D03*
X117700000Y-117095000D03*
%TD*%
D10*
%TO.C,R54*%
X162115000Y-83450000D03*
X160465000Y-83450000D03*
%TD*%
%TO.C,R10*%
X114285000Y-111600000D03*
X112635000Y-111600000D03*
%TD*%
%TO.C,R40*%
X122685000Y-85488000D03*
X121035000Y-85488000D03*
%TD*%
D15*
%TO.C,C27*%
X122635000Y-114488000D03*
X121085000Y-114488000D03*
%TD*%
D13*
%TO.C,R58*%
X146790000Y-98625000D03*
X146790000Y-100275000D03*
%TD*%
D12*
%TO.C,C52*%
X139305000Y-120692000D03*
X140855000Y-120692000D03*
%TD*%
D17*
%TO.C,R9*%
X149580000Y-101985000D03*
X149580000Y-100335000D03*
%TD*%
D13*
%TO.C,R5*%
X166420000Y-142325000D03*
X166420000Y-143975000D03*
%TD*%
D12*
%TO.C,C60*%
X98185000Y-91880000D03*
X99735000Y-91880000D03*
%TD*%
%TO.C,C11*%
X154335000Y-135940000D03*
X155885000Y-135940000D03*
%TD*%
D14*
%TO.C,C13*%
X149620000Y-143995000D03*
X149620000Y-142445000D03*
%TD*%
D13*
%TO.C,R41*%
X122660000Y-92885000D03*
X122660000Y-94535000D03*
%TD*%
D25*
%TO.C,C20*%
X115295000Y-117860000D03*
X112345000Y-117860000D03*
%TD*%
D22*
%TO.C,C25*%
X110240000Y-122645000D03*
X110240000Y-124195000D03*
%TD*%
D13*
%TO.C,R26*%
X103020000Y-122815000D03*
X103020000Y-124465000D03*
%TD*%
D26*
%TO.C,D5*%
X152450000Y-113040000D03*
X152450000Y-106240000D03*
%TD*%
D17*
%TO.C,R55*%
X139300000Y-115625000D03*
X139300000Y-113975000D03*
%TD*%
D16*
%TO.C,R57*%
X139255000Y-118984000D03*
X140905000Y-118984000D03*
%TD*%
D10*
%TO.C,R13*%
X119395000Y-111290000D03*
X117745000Y-111290000D03*
%TD*%
D22*
%TO.C,C1*%
X133060000Y-88945000D03*
X133060000Y-90495000D03*
%TD*%
D15*
%TO.C,C50*%
X169495000Y-82520000D03*
X167945000Y-82520000D03*
%TD*%
D13*
%TO.C,R20*%
X119700000Y-120255000D03*
X119700000Y-121905000D03*
%TD*%
%TO.C,R24*%
X99550000Y-122805000D03*
X99550000Y-124455000D03*
%TD*%
D22*
%TO.C,C41*%
X157890000Y-132065000D03*
X157890000Y-133615000D03*
%TD*%
D12*
%TO.C,C39*%
X168035000Y-84780000D03*
X169585000Y-84780000D03*
%TD*%
%TO.C,C19*%
X99795000Y-116970000D03*
X101345000Y-116970000D03*
%TD*%
D10*
%TO.C,R42*%
X122685000Y-89316000D03*
X121035000Y-89316000D03*
%TD*%
D15*
%TO.C,C36*%
X122635000Y-83574000D03*
X121085000Y-83574000D03*
%TD*%
D13*
%TO.C,R47*%
X156420000Y-101505000D03*
X156420000Y-103155000D03*
%TD*%
D23*
%TO.C,C10*%
X146505000Y-131210000D03*
X149455000Y-131210000D03*
%TD*%
%TO.C,C15*%
X144085000Y-116310000D03*
X147035000Y-116310000D03*
%TD*%
D10*
%TO.C,R27*%
X122675000Y-116322000D03*
X121025000Y-116322000D03*
%TD*%
D22*
%TO.C,C12*%
X110300000Y-118805000D03*
X110300000Y-120355000D03*
%TD*%
D13*
%TO.C,R34*%
X122610000Y-105395000D03*
X122610000Y-107045000D03*
%TD*%
D14*
%TO.C,C3*%
X162960000Y-143140000D03*
X162960000Y-141590000D03*
%TD*%
D13*
%TO.C,R46*%
X158440000Y-101535000D03*
X158440000Y-103185000D03*
%TD*%
D15*
%TO.C,C45*%
X162740000Y-137260000D03*
X161190000Y-137260000D03*
%TD*%
D10*
%TO.C,R31*%
X122675000Y-103520000D03*
X121025000Y-103520000D03*
%TD*%
D27*
%TO.C,C16*%
X142360000Y-140995000D03*
X142360000Y-143945000D03*
%TD*%
D16*
%TO.C,R53*%
X139255000Y-124108000D03*
X140905000Y-124108000D03*
%TD*%
D13*
%TO.C,R4*%
X159660000Y-142635000D03*
X159660000Y-144285000D03*
%TD*%
D15*
%TO.C,C38*%
X122635000Y-87402000D03*
X121085000Y-87402000D03*
%TD*%
D28*
%TO.C,Q1*%
X146077500Y-108952500D03*
X147977500Y-108952500D03*
X147027500Y-110827500D03*
%TD*%
D12*
%TO.C,C49*%
X167945000Y-80820000D03*
X169495000Y-80820000D03*
%TD*%
%TO.C,C35*%
X98165000Y-82200000D03*
X99715000Y-82200000D03*
%TD*%
M02*
