M48
; DRILL file {KiCad 9.99.0-701-g151cb01795} date 2025-04-01T21:42:44+0800
; FORMAT={-:-/ absolute / inch / decimal}
; #@! TF.CreationDate,2025-04-01T21:42:44+08:00
; #@! TF.GenerationSoftware,Kicad,Pcbnew,9.99.0-701-g151cb01795
; #@! TF.FileFunction,Plated,1,4,PTH
FMAT,2
INCH
; #@! TA.AperFunction,Plated,PTH,ViaDrill
T1C0.0118
; #@! TA.AperFunction,Plated,PTH,ComponentDrill
T2C0.0118
; #@! TA.AperFunction,Plated,PTH,ComponentDrill
T3C0.0236
; #@! TA.AperFunction,Plated,PTH,ComponentDrill
T4C0.0295
; #@! TA.AperFunction,Plated,PTH,ComponentDrill
T5C0.0394
; #@! TA.AperFunction,Plated,PTH,ComponentDrill
T6C0.0748
; #@! TA.AperFunction,Plated,PTH,ComponentDrill
T7C0.1063
%
G90
G05
T1
X3.5591Y-5.3721
X3.6063Y-4.6823
X3.6083Y-4.4803
X3.7087Y-3.126
X3.7087Y-3.2047
X3.7087Y-3.2835
X3.71Y-3.35
X3.7193Y-3.0484
X3.7697Y-4.5977
X3.7697Y-4.6823
X3.7717Y-4.3957
X3.7717Y-4.4803
X3.78Y-3.5535
X3.785Y-4.8268
X3.785Y-5.2638
X3.8995Y-4.526
X3.938Y-4.386
X3.962Y-4.602
X3.962Y-4.652
X3.962Y-4.752
X3.964Y-3.652
X3.998Y-4.4364
X4.0514Y-3.6024
X4.0518Y-4.4116
X4.152Y-4.9358
X4.152Y-4.9988
X4.1528Y-4.9685
X4.1746Y-4.602
X4.1746Y-4.652
X4.1746Y-4.702
X4.1746Y-4.752
X4.1988Y-4.9366
X4.1988Y-4.9988
X4.1988Y-5.2362
X4.1996Y-4.9689
X4.224Y-4.814
X4.2457Y-4.9346
X4.2457Y-4.9988
X4.2465Y-4.9679
X4.414Y-4.888
X4.4142Y-4.739
X4.4146Y-4.7894
X4.4336Y-4.2164
X4.4709Y-5.2728
X4.4709Y-5.3358
X4.4717Y-5.3055
X4.5177Y-5.0371
X4.5177Y-5.2736
X4.5177Y-5.3358
X4.5185Y-5.3059
X4.5646Y-5.2717
X4.5646Y-5.3358
X4.5654Y-5.3049
X4.6005Y-3.7376
X4.626Y-4.739
X4.6268Y-4.789
X4.6268Y-4.839
X4.705Y-4.734
X4.72Y-4.8825
X4.763Y-4.734
X4.768Y-3.146
X4.772Y-4.216
X4.826Y-4.7148
X4.8272Y-4.2144
X4.8278Y-3.9315
X4.8281Y-3.441
X4.8285Y-4.3669
X4.8291Y-3.6569
X4.8291Y-3.7219
X4.8297Y-3.8594
X4.8297Y-4.0756
X4.8297Y-4.1476
X4.8297Y-4.5796
X4.8297Y-4.6512
X4.8301Y-3.3657
X4.8301Y-3.5917
X4.8311Y-4.437
X4.8505Y-4.82
X4.8691Y-3.1836
X4.898Y-3.822
X4.8984Y-3.6492
X4.8992Y-4.622
X4.8998Y-4.1232
X4.902Y-3.348
X4.904Y-4.32
X4.9242Y-3.1452
X4.9315Y-3.822
X4.9328Y-3.6492
X4.9336Y-4.622
X4.9342Y-4.1232
X4.9355Y-3.348
X4.9375Y-4.32
X4.9523Y-4.8217
X4.9523Y-5.2587
X4.965Y-3.822
X4.9665Y-3.8732
X4.9665Y-3.9232
X4.9665Y-4.0232
X4.9665Y-4.0732
X4.9671Y-3.6492
X4.9679Y-4.622
X4.9685Y-4.1232
X4.9687Y-3.3986
X4.9687Y-3.4486
X4.9687Y-3.5486
X4.9687Y-3.5986
X4.9687Y-4.3711
X4.9687Y-4.4211
X4.9687Y-4.5211
X4.9687Y-4.5711
X4.969Y-3.348
X4.971Y-4.32
X4.9985Y-3.822
X5.0015Y-3.6492
X5.0023Y-4.622
X5.0025Y-3.348
X5.0029Y-4.1232
X5.0045Y-4.32
X5.032Y-3.822
X5.0358Y-3.6492
X5.036Y-3.348
X5.0366Y-4.622
X5.0372Y-4.1232
X5.038Y-4.32
X5.113Y-5.6071
X5.1138Y-5.5768
X5.1598Y-5.6071
X5.1606Y-5.5772
X5.2067Y-5.6071
X5.2075Y-5.5762
X5.2355Y-3.816
X5.2356Y-3.5203
X5.2356Y-3.6203
X5.2356Y-3.6703
X5.2356Y-3.7203
X5.2356Y-3.8703
X5.2706Y-4.0854
X5.2707Y-4.5717
X5.2726Y-5.0583
X5.274Y-4.87
X5.28Y-5.358
X5.3049Y-4.0854
X5.305Y-4.5717
X5.307Y-5.0583
X5.3075Y-4.87
X5.3135Y-5.358
X5.3393Y-4.0854
X5.3394Y-4.5717
X5.3402Y-4.1358
X5.3402Y-4.1858
X5.3402Y-4.2858
X5.3402Y-4.3358
X5.3402Y-4.622
X5.3402Y-4.672
X5.3402Y-4.772
X5.3402Y-4.822
X5.3402Y-5.1083
X5.3402Y-5.1583
X5.3402Y-5.2583
X5.3402Y-5.3083
X5.341Y-4.87
X5.3413Y-5.0583
X5.347Y-5.358
X5.3736Y-4.0854
X5.3737Y-4.5717
X5.3745Y-4.87
X5.375Y-5.466
X5.3757Y-5.0583
X5.3805Y-5.358
X5.408Y-4.0854
X5.408Y-4.87
X5.4081Y-4.5717
X5.41Y-5.0583
X5.414Y-5.358
X5.4324Y-3.6203
X5.4325Y-3.544
X5.4815Y-4.9695
X5.4825Y-4.0606
X5.4825Y-4.1331
X5.4825Y-4.2782
X5.4825Y-4.6172
X5.4825Y-4.7497
X5.4825Y-5.0383
X5.4825Y-5.1056
X5.4825Y-5.3073
X5.4843Y-4.4872
X5.4843Y-4.5522
X5.4844Y-4.3507
X5.4844Y-4.8193
X5.4844Y-5.2401
X5.4862Y-3.9943
X5.529Y-4.479
X5.5315Y-3.5398
X5.5317Y-3.0882
X5.5317Y-3.1882
X5.5317Y-3.2382
X5.5317Y-3.2882
X5.5317Y-3.3382
X5.5317Y-3.3882
X5.5319Y-3.6378
X5.532Y-3.1382
X5.5693Y-3.9898
X5.5839Y-5.5465
X5.5843Y-5.9807
X5.6012Y-3.7874
X5.6248Y-3.598
X5.6488Y-3.7866
X5.6563Y-3.5998
X5.665Y-3.9487
X5.7012Y-3.7874
X5.7248Y-3.9839
X5.7512Y-3.7874
X5.7776Y-3.8863
X5.7776Y-3.9483
X5.8012Y-3.7874
X5.8125Y-5.538
X5.814Y-5.4765
X5.8512Y-3.7874
X5.8909Y-3.8875
X5.8909Y-3.9495
X5.8921Y-5.5677
X5.9012Y-3.7874
X5.9514Y-3.7907
X5.9634Y-5.9824
X5.9634Y-6.0141
X5.9642Y-5.9515
X6.0126Y-3.9499
X6.0148Y-5.7151
X6.0162Y-5.9511
X6.0162Y-6.0153
X6.0166Y-5.9822
X6.0623Y-5.9834
X6.063Y-5.9531
X6.063Y-6.0161
X6.1012Y-3.7874
X6.1047Y-5.4677
X6.1047Y-5.6177
X6.1512Y-3.7874
X6.152Y-3.9216
X6.204Y-5.5679
X6.2185Y-3.7386
X6.2197Y-3.239
X6.2197Y-3.487
X6.2201Y-3.3378
X6.2207Y-3.1382
X6.2207Y-3.1882
X6.2207Y-3.3882
X6.2207Y-3.5382
X6.2209Y-3.4402
X6.2228Y-3.2894
X6.227Y-3.9216
X6.2429Y-5.8002
X6.246Y-4.276
X6.2744Y-5.8002
X6.277Y-4.1184
X6.302Y-5.7085
X6.308Y-4.226
X6.316Y-3.088
X6.318Y-5.044
X6.327Y-4.1184
X6.3287Y-3.474
X6.3591Y-5.7524
X6.3803Y-5.8472
X6.4235Y-4.118
X6.438Y-4.2335
X6.438Y-4.2945
X6.4634Y-5.8002
X6.4697Y-5.0537
X6.47Y-5.1145
X6.482Y-5.712
X6.4845Y-4.118
X6.4949Y-5.8002
X6.5354Y-3.3172
X6.5354Y-3.396
X6.5354Y-3.4747
X6.5354Y-3.5534
X6.5425Y-3.2397
T2
X4.0447Y-4.6061
X4.0447Y-4.6534
X4.0447Y-4.7046
X4.0447Y-4.7479
X4.0919Y-4.6061
X4.0919Y-4.6534
X4.0919Y-4.7046
X4.0919Y-4.7479
X4.4969Y-4.7431
X4.4969Y-4.7904
X4.4969Y-4.8415
X4.4969Y-4.8848
X4.5441Y-4.7431
X4.5441Y-4.7904
X4.5441Y-4.8415
X4.5441Y-4.8848
X5.762Y-3.3646
X5.762Y-3.4197
X5.7896Y-3.337
X5.7896Y-3.3921
X5.7896Y-3.4472
X5.8171Y-3.3646
X5.8171Y-3.4197
X5.8447Y-3.337
X5.8447Y-3.3921
X5.8447Y-3.4472
X5.8722Y-3.3646
X5.8722Y-3.4197
X5.9748Y-5.4719
X5.9748Y-5.5152
X5.9748Y-5.5663
X5.9748Y-5.6136
X6.022Y-5.4719
X6.022Y-5.5152
X6.022Y-5.5663
X6.022Y-5.6136
T4
X4.0531Y-2.9217
X4.1319Y-2.9217
X4.2106Y-2.9217
X4.2894Y-2.9217
X4.5185Y-5.9343
X4.5331Y-2.9189
X4.5972Y-5.9343
X4.6118Y-2.9189
X4.676Y-5.9343
X4.6906Y-2.9189
X4.7547Y-5.9343
X4.7693Y-2.9189
X4.8335Y-5.9343
X4.9122Y-5.9343
X4.9909Y-5.9343
X5.0697Y-5.9343
X6.6598Y-3.9854
X6.6598Y-4.0642
X6.6598Y-4.1429
X6.6598Y-4.2217
T5
X3.6484Y-3.7386
X3.6484Y-4.2504
X6.3696Y-3.778
X6.4696Y-3.778
X6.5696Y-3.778
X6.5953Y-4.4169
X6.5953Y-4.9287
X6.6696Y-3.778
X6.676Y-5.238
X6.676Y-5.338
X6.6776Y-5.4823
X6.6776Y-5.5823
X6.6776Y-5.6823
X6.6776Y-5.7823
X6.6776Y-5.8823
T6
X4.0421Y-3.8567
X4.0421Y-3.9945
X4.0421Y-4.1323
X6.2016Y-4.535
X6.2016Y-4.6728
X6.2016Y-4.8106
T7
X3.7799Y-5.435
X4.0634Y-5.435
T3
G00X3.6559Y-5.6929
M15
G01X3.6559Y-5.6496
M16
G05
G00X4.1874Y-5.6929
M15
G01X4.1874Y-5.6496
M16
G05
G00X6.1988Y-5.8022
M15
G01X6.1988Y-5.8455
M16
G05
G00X6.1988Y-5.9734
M15
G01X6.1988Y-6.0049
M16
G05
G00X6.539Y-5.8022
M15
G01X6.539Y-5.8455
M16
G05
G00X6.539Y-5.9734
M15
G01X6.539Y-6.0049
M16
G05
M30
