%TF.GenerationSoftware,KiCad,Pcbnew,9.99.0-701-g151cb01795*%
%TF.CreationDate,2025-04-01T21:42:42+08:00*%
%TF.ProjectId,skateboard,736b6174-6562-46f6-9172-642e6b696361,rev?*%
%TF.SameCoordinates,Original*%
%TF.FileFunction,Soldermask,Top*%
%TF.FilePolarity,Negative*%
%FSLAX46Y46*%
G04 Gerber Fmt 4.6, Leading zero omitted, Abs format (unit mm)*
G04 Created by KiCad (PCBNEW 9.99.0-701-g151cb01795) date 2025-04-01 21:42:42*
%MOMM*%
%LPD*%
G01*
G04 APERTURE LIST*
G04 Aperture macros list*
%AMRoundRect*
0 Rectangle with rounded corners*
0 $1 Rounding radius*
0 $2 $3 $4 $5 $6 $7 $8 $9 X,Y pos of 4 corners*
0 Add a 4 corners polygon primitive as box body*
4,1,4,$2,$3,$4,$5,$6,$7,$8,$9,$2,$3,0*
0 Add four circle primitives for the rounded corners*
1,1,$1+$1,$2,$3*
1,1,$1+$1,$4,$5*
1,1,$1+$1,$6,$7*
1,1,$1+$1,$8,$9*
0 Add four rect primitives between the rounded corners*
20,1,$1+$1,$2,$3,$4,$5,0*
20,1,$1+$1,$4,$5,$6,$7,0*
20,1,$1+$1,$6,$7,$8,$9,0*
20,1,$1+$1,$8,$9,$2,$3,0*%
G04 Aperture macros list end*
%ADD10RoundRect,0.150000X-0.850000X-0.150000X0.850000X-0.150000X0.850000X0.150000X-0.850000X0.150000X0*%
%ADD11RoundRect,0.250000X-0.350000X-0.625000X0.350000X-0.625000X0.350000X0.625000X-0.350000X0.625000X0*%
%ADD12O,1.200000X1.750000*%
%ADD13RoundRect,0.218750X-0.218750X-0.256250X0.218750X-0.256250X0.218750X0.256250X-0.218750X0.256250X0*%
%ADD14R,0.900000X2.000000*%
%ADD15RoundRect,1.025000X1.025000X1.025000X-1.025000X1.025000X-1.025000X-1.025000X1.025000X-1.025000X0*%
%ADD16C,4.100000*%
%ADD17RoundRect,0.100000X-0.637500X-0.100000X0.637500X-0.100000X0.637500X0.100000X-0.637500X0.100000X0*%
%ADD18R,1.550000X0.600000*%
%ADD19R,2.600000X3.100000*%
%ADD20RoundRect,0.225000X-0.250000X0.225000X-0.250000X-0.225000X0.250000X-0.225000X0.250000X0.225000X0*%
%ADD21C,0.650000*%
%ADD22R,0.600000X1.240000*%
%ADD23R,0.300000X1.240000*%
%ADD24O,1.000000X2.100000*%
%ADD25O,1.000000X1.800000*%
%ADD26RoundRect,0.250000X1.425000X-0.362500X1.425000X0.362500X-1.425000X0.362500X-1.425000X-0.362500X0*%
%ADD27C,4.300000*%
%ADD28RoundRect,0.650000X0.950000X-0.650000X0.950000X0.650000X-0.950000X0.650000X-0.950000X-0.650000X0*%
%ADD29RoundRect,0.100000X0.637500X0.100000X-0.637500X0.100000X-0.637500X-0.100000X0.637500X-0.100000X0*%
%ADD30C,1.400000*%
%ADD31RoundRect,0.750000X0.750000X-0.750000X0.750000X0.750000X-0.750000X0.750000X-0.750000X-0.750000X0*%
%ADD32C,3.000000*%
%ADD33RoundRect,0.250000X2.500000X-0.250000X2.500000X0.250000X-2.500000X0.250000X-2.500000X-0.250000X0*%
%ADD34RoundRect,0.250000X1.250000X-0.550000X1.250000X0.550000X-1.250000X0.550000X-1.250000X-0.550000X0*%
%ADD35RoundRect,0.218750X0.256250X-0.218750X0.256250X0.218750X-0.256250X0.218750X-0.256250X-0.218750X0*%
%ADD36R,1.700000X1.700000*%
%ADD37O,1.700000X1.700000*%
%ADD38RoundRect,0.218750X-0.256250X0.218750X-0.256250X-0.218750X0.256250X-0.218750X0.256250X0.218750X0*%
%ADD39RoundRect,0.250000X-1.425000X0.362500X-1.425000X-0.362500X1.425000X-0.362500X1.425000X0.362500X0*%
%ADD40R,1.050000X0.650000*%
%ADD41RoundRect,0.750000X-0.750000X0.750000X-0.750000X-0.750000X0.750000X-0.750000X0.750000X0.750000X0*%
%ADD42RoundRect,0.200000X-2.100000X-0.200000X2.100000X-0.200000X2.100000X0.200000X-2.100000X0.200000X0*%
%ADD43RoundRect,0.250002X-4.449998X-5.149998X4.449998X-5.149998X4.449998X5.149998X-4.449998X5.149998X0*%
%ADD44RoundRect,0.062500X0.387500X0.062500X-0.387500X0.062500X-0.387500X-0.062500X0.387500X-0.062500X0*%
%ADD45R,1.500000X2.250000*%
%ADD46RoundRect,0.200000X2.100000X0.200000X-2.100000X0.200000X-2.100000X-0.200000X2.100000X-0.200000X0*%
%ADD47RoundRect,0.250002X4.449998X5.149998X-4.449998X5.149998X-4.449998X-5.149998X4.449998X-5.149998X0*%
%ADD48RoundRect,0.250000X-1.950000X-1.000000X1.950000X-1.000000X1.950000X1.000000X-1.950000X1.000000X0*%
%ADD49R,1.500000X0.900000*%
%ADD50R,0.900000X1.500000*%
%ADD51C,0.600000*%
%ADD52R,3.900000X3.900000*%
%ADD53RoundRect,0.200000X0.275000X-0.200000X0.275000X0.200000X-0.275000X0.200000X-0.275000X-0.200000X0*%
%ADD54RoundRect,0.250000X-1.400000X-1.000000X1.400000X-1.000000X1.400000X1.000000X-1.400000X1.000000X0*%
%ADD55RoundRect,0.250000X-2.500000X0.250000X-2.500000X-0.250000X2.500000X-0.250000X2.500000X0.250000X0*%
%ADD56RoundRect,0.250000X-1.250000X0.550000X-1.250000X-0.550000X1.250000X-0.550000X1.250000X0.550000X0*%
%ADD57RoundRect,0.250000X-0.625000X0.350000X-0.625000X-0.350000X0.625000X-0.350000X0.625000X0.350000X0*%
%ADD58O,1.750000X1.200000*%
%ADD59RoundRect,0.218750X0.218750X0.256250X-0.218750X0.256250X-0.218750X-0.256250X0.218750X-0.256250X0*%
%ADD60RoundRect,0.190000X-0.610000X-0.190000X0.610000X-0.190000X0.610000X0.190000X-0.610000X0.190000X0*%
%ADD61RoundRect,0.250000X1.400000X1.000000X-1.400000X1.000000X-1.400000X-1.000000X1.400000X-1.000000X0*%
%ADD62RoundRect,0.150000X0.150000X-0.850000X0.150000X0.850000X-0.150000X0.850000X-0.150000X-0.850000X0*%
%ADD63RoundRect,0.200000X-0.275000X0.200000X-0.275000X-0.200000X0.275000X-0.200000X0.275000X0.200000X0*%
G04 APERTURE END LIST*
D10*
%TO.C,U1*%
X132983600Y-89416800D03*
X132983600Y-90686800D03*
X132983600Y-91956800D03*
X132983600Y-93226800D03*
X132983600Y-94496800D03*
X132983600Y-95766800D03*
X132983600Y-97036800D03*
X132983600Y-98306800D03*
X137983600Y-98306800D03*
X137983600Y-97036800D03*
X137983600Y-95766800D03*
X137983600Y-94496800D03*
X137983600Y-93226800D03*
X137983600Y-91956800D03*
X137983600Y-90686800D03*
X137983600Y-89416800D03*
%TD*%
D11*
%TO.C,J1*%
X114770000Y-150730000D03*
D12*
X116770000Y-150730000D03*
X118770000Y-150730000D03*
X120770000Y-150730000D03*
X122770000Y-150730000D03*
X124770000Y-150730000D03*
X126770000Y-150730000D03*
X128770000Y-150730000D03*
%TD*%
D13*
%TO.C,D14*%
X119405300Y-120142000D03*
X120980300Y-120142000D03*
%TD*%
D14*
%TO.C,J8*%
X106360000Y-144050000D03*
X92860000Y-144050000D03*
D15*
X103210000Y-138050000D03*
D16*
X96010000Y-138050000D03*
%TD*%
D17*
%TO.C,U10*%
X155797500Y-107320000D03*
X155797500Y-107970000D03*
X155797500Y-108620000D03*
X155797500Y-109270000D03*
X161522500Y-109270000D03*
X161522500Y-108620000D03*
X161522500Y-107970000D03*
X161522500Y-107320000D03*
%TD*%
D18*
%TO.C,U6*%
X155060000Y-142690000D03*
X155060000Y-141420000D03*
X155060000Y-140150000D03*
X155060000Y-138880000D03*
X149660000Y-138880000D03*
X149660000Y-140150000D03*
X149660000Y-141420000D03*
X149660000Y-142690000D03*
D19*
X152360000Y-140785000D03*
%TD*%
D20*
%TO.C,C59*%
X163525200Y-107479800D03*
X163525200Y-109029800D03*
%TD*%
D21*
%TO.C,J4*%
X158880000Y-148445000D03*
X164660000Y-148445000D03*
D22*
X158570000Y-147325000D03*
X159370000Y-147325000D03*
D23*
X160520000Y-147325000D03*
X161520000Y-147325000D03*
X162020000Y-147325000D03*
X163020000Y-147325000D03*
D22*
X164170000Y-147325000D03*
X164970000Y-147325000D03*
X164970000Y-147325000D03*
X164170000Y-147325000D03*
D23*
X163520000Y-147325000D03*
X162520000Y-147325000D03*
X161020000Y-147325000D03*
X160020000Y-147325000D03*
D22*
X159370000Y-147325000D03*
X158570000Y-147325000D03*
D24*
X157450000Y-147925000D03*
D25*
X157450000Y-152125000D03*
D24*
X166090000Y-147925000D03*
D25*
X166090000Y-152125000D03*
%TD*%
D26*
%TO.C,R65*%
X152806400Y-111272500D03*
X152806400Y-105347500D03*
%TD*%
D27*
%TO.C,J15*%
X113660000Y-142340000D03*
%TD*%
D28*
%TO.C,L2*%
X96140000Y-133700000D03*
X96140000Y-122600000D03*
%TD*%
D29*
%TO.C,U8*%
X104142500Y-92215000D03*
X104142500Y-91565000D03*
X104142500Y-90915000D03*
X104142500Y-90265000D03*
X98417500Y-90265000D03*
X98417500Y-90915000D03*
X98417500Y-91565000D03*
X98417500Y-92215000D03*
%TD*%
D30*
%TO.C,J6*%
X92670000Y-107960000D03*
X92670000Y-94960000D03*
D31*
X102670000Y-104960000D03*
D32*
X102670000Y-101460000D03*
X102670000Y-97960000D03*
%TD*%
D33*
%TO.C,J7*%
X94180000Y-85240000D03*
X94180000Y-83240000D03*
X94180000Y-81240000D03*
X94180000Y-79240000D03*
X94180000Y-77240000D03*
D34*
X91930000Y-87640000D03*
X91930000Y-74840000D03*
%TD*%
D35*
%TO.C,D9*%
X146740000Y-100287500D03*
X146740000Y-98712500D03*
%TD*%
D36*
%TO.C,J17*%
X169570400Y-133045200D03*
D37*
X169570400Y-135585200D03*
%TD*%
D11*
%TO.C,J12*%
X115140000Y-74140000D03*
D12*
X117140000Y-74140000D03*
X119140000Y-74140000D03*
X121140000Y-74140000D03*
%TD*%
D29*
%TO.C,U7*%
X104152500Y-112705000D03*
X104152500Y-112055000D03*
X104152500Y-111405000D03*
X104152500Y-110755000D03*
X98427500Y-110755000D03*
X98427500Y-111405000D03*
X98427500Y-112055000D03*
X98427500Y-112705000D03*
%TD*%
D27*
%TO.C,J14*%
X134150000Y-82420000D03*
%TD*%
D36*
%TO.C,J2*%
X169610000Y-139250000D03*
D37*
X169610000Y-141790000D03*
X169610000Y-144330000D03*
X169610000Y-146870000D03*
X169610000Y-149410000D03*
%TD*%
D27*
%TO.C,J13*%
X105130000Y-82450000D03*
%TD*%
D38*
%TO.C,D6*%
X152720000Y-98752500D03*
X152720000Y-100327500D03*
%TD*%
D39*
%TO.C,R45*%
X107370000Y-88257500D03*
X107370000Y-94182500D03*
%TD*%
D28*
%TO.C,L3*%
X141840000Y-151910000D03*
X141840000Y-140810000D03*
%TD*%
D40*
%TO.C,SW2*%
X91651000Y-111650200D03*
X95801000Y-111650200D03*
X91651000Y-113800200D03*
X95801000Y-113800200D03*
%TD*%
D39*
%TO.C,R44*%
X107310000Y-108617500D03*
X107310000Y-114542500D03*
%TD*%
D17*
%TO.C,U11*%
X156447500Y-128105000D03*
X156447500Y-128755000D03*
X156447500Y-129405000D03*
X156447500Y-130055000D03*
X162172500Y-130055000D03*
X162172500Y-129405000D03*
X162172500Y-128755000D03*
X162172500Y-128105000D03*
%TD*%
D26*
%TO.C,R66*%
X153270000Y-132312500D03*
X153270000Y-126387500D03*
%TD*%
D18*
%TO.C,U5*%
X100634800Y-116890800D03*
X100634800Y-118160800D03*
X100634800Y-119430800D03*
X100634800Y-120700800D03*
X106034800Y-120700800D03*
X106034800Y-119430800D03*
X106034800Y-118160800D03*
X106034800Y-116890800D03*
D19*
X103334800Y-118795800D03*
%TD*%
D38*
%TO.C,D7*%
X149630000Y-98752500D03*
X149630000Y-100327500D03*
%TD*%
D30*
%TO.C,J9*%
X167520000Y-112190000D03*
X167520000Y-125190000D03*
D41*
X157520000Y-115190000D03*
D32*
X157520000Y-118690000D03*
X157520000Y-122190000D03*
%TD*%
D28*
%TO.C,L1*%
X125787500Y-133570000D03*
X125787500Y-122470000D03*
%TD*%
D13*
%TO.C,D13*%
X136524900Y-138836400D03*
X138099900Y-138836400D03*
%TD*%
D42*
%TO.C,Q7*%
X135640000Y-103780000D03*
X135640000Y-105050000D03*
X135640000Y-106320000D03*
X135640000Y-107590000D03*
X135640000Y-108860000D03*
X135640000Y-110130000D03*
X135640000Y-111400000D03*
D43*
X144790000Y-107590000D03*
%TD*%
D44*
%TO.C,U2*%
X125075600Y-81838800D03*
X125075600Y-81188800D03*
X125075600Y-80538800D03*
X125075600Y-79888800D03*
X122275600Y-79888800D03*
X122275600Y-80538800D03*
X122275600Y-81188800D03*
X122275600Y-81838800D03*
D45*
X123675600Y-80863800D03*
%TD*%
D46*
%TO.C,Q5*%
X126150000Y-104730000D03*
X126150000Y-103460000D03*
X126150000Y-102190000D03*
X126150000Y-100920000D03*
X126150000Y-99650000D03*
X126150000Y-98380000D03*
X126150000Y-97110000D03*
D47*
X117000000Y-100920000D03*
%TD*%
D46*
%TO.C,Q6*%
X126205000Y-92675000D03*
X126205000Y-91405000D03*
X126205000Y-90135000D03*
X126205000Y-88865000D03*
X126205000Y-87595000D03*
X126205000Y-86325000D03*
X126205000Y-85055000D03*
D47*
X117055000Y-88865000D03*
%TD*%
D48*
%TO.C,C48*%
X122660000Y-142050000D03*
X131060000Y-142050000D03*
%TD*%
D40*
%TO.C,SW3*%
X91600200Y-116781000D03*
X95750200Y-116781000D03*
X91600200Y-118931000D03*
X95750200Y-118931000D03*
%TD*%
D49*
%TO.C,U3*%
X140505000Y-78440000D03*
X140505000Y-79710000D03*
X140505000Y-80980000D03*
X140505000Y-82250000D03*
X140505000Y-83520000D03*
X140505000Y-84790000D03*
X140505000Y-86060000D03*
X140505000Y-87330000D03*
X140505000Y-88600000D03*
X140505000Y-89870000D03*
X140505000Y-91140000D03*
X140505000Y-92410000D03*
X140505000Y-93680000D03*
X140505000Y-94950000D03*
D50*
X142270000Y-96200000D03*
X143540000Y-96200000D03*
X144810000Y-96200000D03*
X146080000Y-96200000D03*
X147350000Y-96200000D03*
X148620000Y-96200000D03*
X149890000Y-96200000D03*
X151160000Y-96200000D03*
X152430000Y-96200000D03*
X153700000Y-96200000D03*
X154970000Y-96200000D03*
X156240000Y-96200000D03*
D49*
X158005000Y-94950000D03*
X158005000Y-93680000D03*
X158005000Y-92410000D03*
X158005000Y-91140000D03*
X158005000Y-89870000D03*
X158005000Y-88600000D03*
X158005000Y-87330000D03*
X158005000Y-86060000D03*
X158005000Y-84790000D03*
X158005000Y-83520000D03*
X158005000Y-82250000D03*
X158005000Y-80980000D03*
X158005000Y-79710000D03*
X158005000Y-78440000D03*
D51*
X146355000Y-85460000D03*
X146355000Y-86860000D03*
X147055000Y-84760000D03*
X147055000Y-86160000D03*
X147055000Y-87560000D03*
X147755000Y-85460000D03*
D52*
X147755000Y-86160000D03*
D51*
X147755000Y-86860000D03*
X148455000Y-84760000D03*
X148455000Y-86160000D03*
X148455000Y-87560000D03*
X149155000Y-85460000D03*
X149155000Y-86860000D03*
%TD*%
D53*
%TO.C,R3*%
X111607600Y-80936600D03*
X111607600Y-79286600D03*
%TD*%
D11*
%TO.C,J3*%
X102950000Y-74210000D03*
D12*
X104950000Y-74210000D03*
X106950000Y-74210000D03*
X108950000Y-74210000D03*
%TD*%
D42*
%TO.C,Q8*%
X135640000Y-116130000D03*
X135640000Y-117400000D03*
X135640000Y-118670000D03*
X135640000Y-119940000D03*
X135640000Y-121210000D03*
X135640000Y-122480000D03*
X135640000Y-123750000D03*
D43*
X144790000Y-119940000D03*
%TD*%
D54*
%TO.C,D11*%
X114750000Y-127942500D03*
X114750000Y-134742500D03*
%TD*%
D53*
%TO.C,R64*%
X96012000Y-91909400D03*
X96012000Y-90259400D03*
%TD*%
D54*
%TO.C,D12*%
X152755600Y-145342400D03*
X152755600Y-152142400D03*
%TD*%
D55*
%TO.C,J10*%
X165999600Y-82257600D03*
X165999600Y-84257600D03*
X165999600Y-86257600D03*
X165999600Y-88257600D03*
X165999600Y-90257600D03*
D56*
X168249600Y-79857600D03*
X168249600Y-92657600D03*
%TD*%
D38*
%TO.C,3.3V4*%
X90400000Y-136452500D03*
X90400000Y-138027500D03*
%TD*%
D36*
%TO.C,J5*%
X169408000Y-95961200D03*
D37*
X166868000Y-95961200D03*
X164328000Y-95961200D03*
X161788000Y-95961200D03*
%TD*%
D35*
%TO.C,D10*%
X143890000Y-100287500D03*
X143890000Y-98712500D03*
%TD*%
D57*
%TO.C,J11*%
X169160000Y-101230000D03*
D58*
X169160000Y-103230000D03*
X169160000Y-105230000D03*
X169160000Y-107230000D03*
%TD*%
D59*
%TO.C,D17*%
X107264300Y-122326400D03*
X105689300Y-122326400D03*
%TD*%
D42*
%TO.C,Q9*%
X135640000Y-128480000D03*
X135640000Y-129750000D03*
X135640000Y-131020000D03*
X135640000Y-132290000D03*
X135640000Y-133560000D03*
X135640000Y-134830000D03*
X135640000Y-136100000D03*
D43*
X144790000Y-132290000D03*
%TD*%
D27*
%TO.C,J16*%
X162400000Y-135750000D03*
%TD*%
D53*
%TO.C,R56*%
X90370000Y-141625000D03*
X90370000Y-139975000D03*
%TD*%
D60*
%TO.C,SW1*%
X113893600Y-80924400D03*
X118973600Y-80924400D03*
%TD*%
D20*
%TO.C,C41*%
X164338000Y-128358600D03*
X164338000Y-129908600D03*
%TD*%
D61*
%TO.C,D16*%
X106650000Y-133000000D03*
X106650000Y-126200000D03*
%TD*%
D62*
%TO.C,U9*%
X155625800Y-104608000D03*
X156895800Y-104608000D03*
X158165800Y-104608000D03*
X159435800Y-104608000D03*
X160705800Y-104608000D03*
X161975800Y-104608000D03*
X163245800Y-104608000D03*
X164515800Y-104608000D03*
X164515800Y-99608000D03*
X163245800Y-99608000D03*
X161975800Y-99608000D03*
X160705800Y-99608000D03*
X159435800Y-99608000D03*
X158165800Y-99608000D03*
X156895800Y-99608000D03*
X155625800Y-99608000D03*
%TD*%
D46*
%TO.C,Q4*%
X126205000Y-117375000D03*
X126205000Y-116105000D03*
X126205000Y-114835000D03*
X126205000Y-113565000D03*
X126205000Y-112295000D03*
X126205000Y-111025000D03*
X126205000Y-109755000D03*
D47*
X117055000Y-113565000D03*
%TD*%
D18*
%TO.C,U4*%
X112120000Y-120370000D03*
X112120000Y-121640000D03*
X112120000Y-122910000D03*
X112120000Y-124180000D03*
X117520000Y-124180000D03*
X117520000Y-122910000D03*
X117520000Y-121640000D03*
X117520000Y-120370000D03*
D19*
X114820000Y-122275000D03*
%TD*%
D63*
%TO.C,R67*%
X167538400Y-128359400D03*
X167538400Y-130009400D03*
%TD*%
M02*
