%TF.GenerationSoftware,KiCad,Pcbnew,9.99.0-617-gea36110980*%
%TF.CreationDate,2025-03-22T22:43:03+08:00*%
%TF.ProjectId,skateboard,736b6174-6562-46f6-9172-642e6b696361,rev?*%
%TF.SameCoordinates,Original*%
%TF.FileFunction,Legend,Top*%
%TF.FilePolarity,Positive*%
%FSLAX46Y46*%
G04 Gerber Fmt 4.6, Leading zero omitted, Abs format (unit mm)*
G04 Created by KiCad (PCBNEW 9.99.0-617-gea36110980) date 2025-03-22 22:43:03*
%MOMM*%
%LPD*%
G01*
G04 APERTURE LIST*
%ADD10C,0.150000*%
%ADD11C,0.120000*%
G04 APERTURE END LIST*
D10*
X134768095Y-92659819D02*
X134768095Y-93469342D01*
X134768095Y-93469342D02*
X134815714Y-93564580D01*
X134815714Y-93564580D02*
X134863333Y-93612200D01*
X134863333Y-93612200D02*
X134958571Y-93659819D01*
X134958571Y-93659819D02*
X135149047Y-93659819D01*
X135149047Y-93659819D02*
X135244285Y-93612200D01*
X135244285Y-93612200D02*
X135291904Y-93564580D01*
X135291904Y-93564580D02*
X135339523Y-93469342D01*
X135339523Y-93469342D02*
X135339523Y-92659819D01*
X136339523Y-93659819D02*
X135768095Y-93659819D01*
X136053809Y-93659819D02*
X136053809Y-92659819D01*
X136053809Y-92659819D02*
X135958571Y-92802676D01*
X135958571Y-92802676D02*
X135863333Y-92897914D01*
X135863333Y-92897914D02*
X135768095Y-92945533D01*
X121436666Y-147284819D02*
X121436666Y-147999104D01*
X121436666Y-147999104D02*
X121389047Y-148141961D01*
X121389047Y-148141961D02*
X121293809Y-148237200D01*
X121293809Y-148237200D02*
X121150952Y-148284819D01*
X121150952Y-148284819D02*
X121055714Y-148284819D01*
X122436666Y-148284819D02*
X121865238Y-148284819D01*
X122150952Y-148284819D02*
X122150952Y-147284819D01*
X122150952Y-147284819D02*
X122055714Y-147427676D01*
X122055714Y-147427676D02*
X121960476Y-147522914D01*
X121960476Y-147522914D02*
X121865238Y-147570533D01*
X122574286Y-120133866D02*
X123336191Y-120133866D01*
X122955238Y-120514819D02*
X122955238Y-119752914D01*
X124288571Y-119514819D02*
X123812381Y-119514819D01*
X123812381Y-119514819D02*
X123764762Y-119991009D01*
X123764762Y-119991009D02*
X123812381Y-119943390D01*
X123812381Y-119943390D02*
X123907619Y-119895771D01*
X123907619Y-119895771D02*
X124145714Y-119895771D01*
X124145714Y-119895771D02*
X124240952Y-119943390D01*
X124240952Y-119943390D02*
X124288571Y-119991009D01*
X124288571Y-119991009D02*
X124336190Y-120086247D01*
X124336190Y-120086247D02*
X124336190Y-120324342D01*
X124336190Y-120324342D02*
X124288571Y-120419580D01*
X124288571Y-120419580D02*
X124240952Y-120467200D01*
X124240952Y-120467200D02*
X124145714Y-120514819D01*
X124145714Y-120514819D02*
X123907619Y-120514819D01*
X123907619Y-120514819D02*
X123812381Y-120467200D01*
X123812381Y-120467200D02*
X123764762Y-120419580D01*
X124621905Y-119514819D02*
X124955238Y-120514819D01*
X124955238Y-120514819D02*
X125288571Y-119514819D01*
X99116666Y-150114819D02*
X99116666Y-150829104D01*
X99116666Y-150829104D02*
X99069047Y-150971961D01*
X99069047Y-150971961D02*
X98973809Y-151067200D01*
X98973809Y-151067200D02*
X98830952Y-151114819D01*
X98830952Y-151114819D02*
X98735714Y-151114819D01*
X99735714Y-150543390D02*
X99640476Y-150495771D01*
X99640476Y-150495771D02*
X99592857Y-150448152D01*
X99592857Y-150448152D02*
X99545238Y-150352914D01*
X99545238Y-150352914D02*
X99545238Y-150305295D01*
X99545238Y-150305295D02*
X99592857Y-150210057D01*
X99592857Y-150210057D02*
X99640476Y-150162438D01*
X99640476Y-150162438D02*
X99735714Y-150114819D01*
X99735714Y-150114819D02*
X99926190Y-150114819D01*
X99926190Y-150114819D02*
X100021428Y-150162438D01*
X100021428Y-150162438D02*
X100069047Y-150210057D01*
X100069047Y-150210057D02*
X100116666Y-150305295D01*
X100116666Y-150305295D02*
X100116666Y-150352914D01*
X100116666Y-150352914D02*
X100069047Y-150448152D01*
X100069047Y-150448152D02*
X100021428Y-150495771D01*
X100021428Y-150495771D02*
X99926190Y-150543390D01*
X99926190Y-150543390D02*
X99735714Y-150543390D01*
X99735714Y-150543390D02*
X99640476Y-150591009D01*
X99640476Y-150591009D02*
X99592857Y-150638628D01*
X99592857Y-150638628D02*
X99545238Y-150733866D01*
X99545238Y-150733866D02*
X99545238Y-150924342D01*
X99545238Y-150924342D02*
X99592857Y-151019580D01*
X99592857Y-151019580D02*
X99640476Y-151067200D01*
X99640476Y-151067200D02*
X99735714Y-151114819D01*
X99735714Y-151114819D02*
X99926190Y-151114819D01*
X99926190Y-151114819D02*
X100021428Y-151067200D01*
X100021428Y-151067200D02*
X100069047Y-151019580D01*
X100069047Y-151019580D02*
X100116666Y-150924342D01*
X100116666Y-150924342D02*
X100116666Y-150733866D01*
X100116666Y-150733866D02*
X100069047Y-150638628D01*
X100069047Y-150638628D02*
X100021428Y-150591009D01*
X100021428Y-150591009D02*
X99926190Y-150543390D01*
X105278571Y-135624700D02*
X106421429Y-135624700D01*
X92978571Y-135624700D02*
X94121429Y-135624700D01*
X93550000Y-136196128D02*
X93550000Y-135053271D01*
X158911905Y-108224819D02*
X158911905Y-109034342D01*
X158911905Y-109034342D02*
X158959524Y-109129580D01*
X158959524Y-109129580D02*
X159007143Y-109177200D01*
X159007143Y-109177200D02*
X159102381Y-109224819D01*
X159102381Y-109224819D02*
X159292857Y-109224819D01*
X159292857Y-109224819D02*
X159388095Y-109177200D01*
X159388095Y-109177200D02*
X159435714Y-109129580D01*
X159435714Y-109129580D02*
X159483333Y-109034342D01*
X159483333Y-109034342D02*
X159483333Y-108224819D01*
X160483333Y-109224819D02*
X159911905Y-109224819D01*
X160197619Y-109224819D02*
X160197619Y-108224819D01*
X160197619Y-108224819D02*
X160102381Y-108367676D01*
X160102381Y-108367676D02*
X160007143Y-108462914D01*
X160007143Y-108462914D02*
X159911905Y-108510533D01*
X161102381Y-108224819D02*
X161197619Y-108224819D01*
X161197619Y-108224819D02*
X161292857Y-108272438D01*
X161292857Y-108272438D02*
X161340476Y-108320057D01*
X161340476Y-108320057D02*
X161388095Y-108415295D01*
X161388095Y-108415295D02*
X161435714Y-108605771D01*
X161435714Y-108605771D02*
X161435714Y-108843866D01*
X161435714Y-108843866D02*
X161388095Y-109034342D01*
X161388095Y-109034342D02*
X161340476Y-109129580D01*
X161340476Y-109129580D02*
X161292857Y-109177200D01*
X161292857Y-109177200D02*
X161197619Y-109224819D01*
X161197619Y-109224819D02*
X161102381Y-109224819D01*
X161102381Y-109224819D02*
X161007143Y-109177200D01*
X161007143Y-109177200D02*
X160959524Y-109129580D01*
X160959524Y-109129580D02*
X160911905Y-109034342D01*
X160911905Y-109034342D02*
X160864286Y-108843866D01*
X160864286Y-108843866D02*
X160864286Y-108605771D01*
X160864286Y-108605771D02*
X160911905Y-108415295D01*
X160911905Y-108415295D02*
X160959524Y-108320057D01*
X160959524Y-108320057D02*
X161007143Y-108272438D01*
X161007143Y-108272438D02*
X161102381Y-108224819D01*
X149504819Y-139411904D02*
X150314342Y-139411904D01*
X150314342Y-139411904D02*
X150409580Y-139364285D01*
X150409580Y-139364285D02*
X150457200Y-139316666D01*
X150457200Y-139316666D02*
X150504819Y-139221428D01*
X150504819Y-139221428D02*
X150504819Y-139030952D01*
X150504819Y-139030952D02*
X150457200Y-138935714D01*
X150457200Y-138935714D02*
X150409580Y-138888095D01*
X150409580Y-138888095D02*
X150314342Y-138840476D01*
X150314342Y-138840476D02*
X149504819Y-138840476D01*
X149504819Y-137935714D02*
X149504819Y-138126190D01*
X149504819Y-138126190D02*
X149552438Y-138221428D01*
X149552438Y-138221428D02*
X149600057Y-138269047D01*
X149600057Y-138269047D02*
X149742914Y-138364285D01*
X149742914Y-138364285D02*
X149933390Y-138411904D01*
X149933390Y-138411904D02*
X150314342Y-138411904D01*
X150314342Y-138411904D02*
X150409580Y-138364285D01*
X150409580Y-138364285D02*
X150457200Y-138316666D01*
X150457200Y-138316666D02*
X150504819Y-138221428D01*
X150504819Y-138221428D02*
X150504819Y-138030952D01*
X150504819Y-138030952D02*
X150457200Y-137935714D01*
X150457200Y-137935714D02*
X150409580Y-137888095D01*
X150409580Y-137888095D02*
X150314342Y-137840476D01*
X150314342Y-137840476D02*
X150076247Y-137840476D01*
X150076247Y-137840476D02*
X149981009Y-137888095D01*
X149981009Y-137888095D02*
X149933390Y-137935714D01*
X149933390Y-137935714D02*
X149885771Y-138030952D01*
X149885771Y-138030952D02*
X149885771Y-138221428D01*
X149885771Y-138221428D02*
X149933390Y-138316666D01*
X149933390Y-138316666D02*
X149981009Y-138364285D01*
X149981009Y-138364285D02*
X150076247Y-138411904D01*
X153014819Y-109662857D02*
X152538628Y-109996190D01*
X153014819Y-110234285D02*
X152014819Y-110234285D01*
X152014819Y-110234285D02*
X152014819Y-109853333D01*
X152014819Y-109853333D02*
X152062438Y-109758095D01*
X152062438Y-109758095D02*
X152110057Y-109710476D01*
X152110057Y-109710476D02*
X152205295Y-109662857D01*
X152205295Y-109662857D02*
X152348152Y-109662857D01*
X152348152Y-109662857D02*
X152443390Y-109710476D01*
X152443390Y-109710476D02*
X152491009Y-109758095D01*
X152491009Y-109758095D02*
X152538628Y-109853333D01*
X152538628Y-109853333D02*
X152538628Y-110234285D01*
X152014819Y-108805714D02*
X152014819Y-108996190D01*
X152014819Y-108996190D02*
X152062438Y-109091428D01*
X152062438Y-109091428D02*
X152110057Y-109139047D01*
X152110057Y-109139047D02*
X152252914Y-109234285D01*
X152252914Y-109234285D02*
X152443390Y-109281904D01*
X152443390Y-109281904D02*
X152824342Y-109281904D01*
X152824342Y-109281904D02*
X152919580Y-109234285D01*
X152919580Y-109234285D02*
X152967200Y-109186666D01*
X152967200Y-109186666D02*
X153014819Y-109091428D01*
X153014819Y-109091428D02*
X153014819Y-108900952D01*
X153014819Y-108900952D02*
X152967200Y-108805714D01*
X152967200Y-108805714D02*
X152919580Y-108758095D01*
X152919580Y-108758095D02*
X152824342Y-108710476D01*
X152824342Y-108710476D02*
X152586247Y-108710476D01*
X152586247Y-108710476D02*
X152491009Y-108758095D01*
X152491009Y-108758095D02*
X152443390Y-108805714D01*
X152443390Y-108805714D02*
X152395771Y-108900952D01*
X152395771Y-108900952D02*
X152395771Y-109091428D01*
X152395771Y-109091428D02*
X152443390Y-109186666D01*
X152443390Y-109186666D02*
X152491009Y-109234285D01*
X152491009Y-109234285D02*
X152586247Y-109281904D01*
X152014819Y-107805714D02*
X152014819Y-108281904D01*
X152014819Y-108281904D02*
X152491009Y-108329523D01*
X152491009Y-108329523D02*
X152443390Y-108281904D01*
X152443390Y-108281904D02*
X152395771Y-108186666D01*
X152395771Y-108186666D02*
X152395771Y-107948571D01*
X152395771Y-107948571D02*
X152443390Y-107853333D01*
X152443390Y-107853333D02*
X152491009Y-107805714D01*
X152491009Y-107805714D02*
X152586247Y-107758095D01*
X152586247Y-107758095D02*
X152824342Y-107758095D01*
X152824342Y-107758095D02*
X152919580Y-107805714D01*
X152919580Y-107805714D02*
X152967200Y-107853333D01*
X152967200Y-107853333D02*
X153014819Y-107948571D01*
X153014819Y-107948571D02*
X153014819Y-108186666D01*
X153014819Y-108186666D02*
X152967200Y-108281904D01*
X152967200Y-108281904D02*
X152919580Y-108329523D01*
X108880476Y-137244819D02*
X108880476Y-137959104D01*
X108880476Y-137959104D02*
X108832857Y-138101961D01*
X108832857Y-138101961D02*
X108737619Y-138197200D01*
X108737619Y-138197200D02*
X108594762Y-138244819D01*
X108594762Y-138244819D02*
X108499524Y-138244819D01*
X109880476Y-138244819D02*
X109309048Y-138244819D01*
X109594762Y-138244819D02*
X109594762Y-137244819D01*
X109594762Y-137244819D02*
X109499524Y-137387676D01*
X109499524Y-137387676D02*
X109404286Y-137482914D01*
X109404286Y-137482914D02*
X109309048Y-137530533D01*
X110785238Y-137244819D02*
X110309048Y-137244819D01*
X110309048Y-137244819D02*
X110261429Y-137721009D01*
X110261429Y-137721009D02*
X110309048Y-137673390D01*
X110309048Y-137673390D02*
X110404286Y-137625771D01*
X110404286Y-137625771D02*
X110642381Y-137625771D01*
X110642381Y-137625771D02*
X110737619Y-137673390D01*
X110737619Y-137673390D02*
X110785238Y-137721009D01*
X110785238Y-137721009D02*
X110832857Y-137816247D01*
X110832857Y-137816247D02*
X110832857Y-138054342D01*
X110832857Y-138054342D02*
X110785238Y-138149580D01*
X110785238Y-138149580D02*
X110737619Y-138197200D01*
X110737619Y-138197200D02*
X110642381Y-138244819D01*
X110642381Y-138244819D02*
X110404286Y-138244819D01*
X110404286Y-138244819D02*
X110309048Y-138197200D01*
X110309048Y-138197200D02*
X110261429Y-138149580D01*
X92444819Y-129016666D02*
X92444819Y-129492856D01*
X92444819Y-129492856D02*
X91444819Y-129492856D01*
X91540057Y-128730951D02*
X91492438Y-128683332D01*
X91492438Y-128683332D02*
X91444819Y-128588094D01*
X91444819Y-128588094D02*
X91444819Y-128349999D01*
X91444819Y-128349999D02*
X91492438Y-128254761D01*
X91492438Y-128254761D02*
X91540057Y-128207142D01*
X91540057Y-128207142D02*
X91635295Y-128159523D01*
X91635295Y-128159523D02*
X91730533Y-128159523D01*
X91730533Y-128159523D02*
X91873390Y-128207142D01*
X91873390Y-128207142D02*
X92444819Y-128778570D01*
X92444819Y-128778570D02*
X92444819Y-128159523D01*
X95273095Y-90754819D02*
X95273095Y-91564342D01*
X95273095Y-91564342D02*
X95320714Y-91659580D01*
X95320714Y-91659580D02*
X95368333Y-91707200D01*
X95368333Y-91707200D02*
X95463571Y-91754819D01*
X95463571Y-91754819D02*
X95654047Y-91754819D01*
X95654047Y-91754819D02*
X95749285Y-91707200D01*
X95749285Y-91707200D02*
X95796904Y-91659580D01*
X95796904Y-91659580D02*
X95844523Y-91564342D01*
X95844523Y-91564342D02*
X95844523Y-90754819D01*
X96463571Y-91183390D02*
X96368333Y-91135771D01*
X96368333Y-91135771D02*
X96320714Y-91088152D01*
X96320714Y-91088152D02*
X96273095Y-90992914D01*
X96273095Y-90992914D02*
X96273095Y-90945295D01*
X96273095Y-90945295D02*
X96320714Y-90850057D01*
X96320714Y-90850057D02*
X96368333Y-90802438D01*
X96368333Y-90802438D02*
X96463571Y-90754819D01*
X96463571Y-90754819D02*
X96654047Y-90754819D01*
X96654047Y-90754819D02*
X96749285Y-90802438D01*
X96749285Y-90802438D02*
X96796904Y-90850057D01*
X96796904Y-90850057D02*
X96844523Y-90945295D01*
X96844523Y-90945295D02*
X96844523Y-90992914D01*
X96844523Y-90992914D02*
X96796904Y-91088152D01*
X96796904Y-91088152D02*
X96749285Y-91135771D01*
X96749285Y-91135771D02*
X96654047Y-91183390D01*
X96654047Y-91183390D02*
X96463571Y-91183390D01*
X96463571Y-91183390D02*
X96368333Y-91231009D01*
X96368333Y-91231009D02*
X96320714Y-91278628D01*
X96320714Y-91278628D02*
X96273095Y-91373866D01*
X96273095Y-91373866D02*
X96273095Y-91564342D01*
X96273095Y-91564342D02*
X96320714Y-91659580D01*
X96320714Y-91659580D02*
X96368333Y-91707200D01*
X96368333Y-91707200D02*
X96463571Y-91754819D01*
X96463571Y-91754819D02*
X96654047Y-91754819D01*
X96654047Y-91754819D02*
X96749285Y-91707200D01*
X96749285Y-91707200D02*
X96796904Y-91659580D01*
X96796904Y-91659580D02*
X96844523Y-91564342D01*
X96844523Y-91564342D02*
X96844523Y-91373866D01*
X96844523Y-91373866D02*
X96796904Y-91278628D01*
X96796904Y-91278628D02*
X96749285Y-91231009D01*
X96749285Y-91231009D02*
X96654047Y-91183390D01*
X91704819Y-102483333D02*
X92419104Y-102483333D01*
X92419104Y-102483333D02*
X92561961Y-102530952D01*
X92561961Y-102530952D02*
X92657200Y-102626190D01*
X92657200Y-102626190D02*
X92704819Y-102769047D01*
X92704819Y-102769047D02*
X92704819Y-102864285D01*
X91704819Y-101578571D02*
X91704819Y-101769047D01*
X91704819Y-101769047D02*
X91752438Y-101864285D01*
X91752438Y-101864285D02*
X91800057Y-101911904D01*
X91800057Y-101911904D02*
X91942914Y-102007142D01*
X91942914Y-102007142D02*
X92133390Y-102054761D01*
X92133390Y-102054761D02*
X92514342Y-102054761D01*
X92514342Y-102054761D02*
X92609580Y-102007142D01*
X92609580Y-102007142D02*
X92657200Y-101959523D01*
X92657200Y-101959523D02*
X92704819Y-101864285D01*
X92704819Y-101864285D02*
X92704819Y-101673809D01*
X92704819Y-101673809D02*
X92657200Y-101578571D01*
X92657200Y-101578571D02*
X92609580Y-101530952D01*
X92609580Y-101530952D02*
X92514342Y-101483333D01*
X92514342Y-101483333D02*
X92276247Y-101483333D01*
X92276247Y-101483333D02*
X92181009Y-101530952D01*
X92181009Y-101530952D02*
X92133390Y-101578571D01*
X92133390Y-101578571D02*
X92085771Y-101673809D01*
X92085771Y-101673809D02*
X92085771Y-101864285D01*
X92085771Y-101864285D02*
X92133390Y-101959523D01*
X92133390Y-101959523D02*
X92181009Y-102007142D01*
X92181009Y-102007142D02*
X92276247Y-102054761D01*
X95274819Y-75493333D02*
X95989104Y-75493333D01*
X95989104Y-75493333D02*
X96131961Y-75540952D01*
X96131961Y-75540952D02*
X96227200Y-75636190D01*
X96227200Y-75636190D02*
X96274819Y-75779047D01*
X96274819Y-75779047D02*
X96274819Y-75874285D01*
X95274819Y-75112380D02*
X95274819Y-74445714D01*
X95274819Y-74445714D02*
X96274819Y-74874285D01*
X145834819Y-100416666D02*
X145358628Y-100749999D01*
X145834819Y-100988094D02*
X144834819Y-100988094D01*
X144834819Y-100988094D02*
X144834819Y-100607142D01*
X144834819Y-100607142D02*
X144882438Y-100511904D01*
X144882438Y-100511904D02*
X144930057Y-100464285D01*
X144930057Y-100464285D02*
X145025295Y-100416666D01*
X145025295Y-100416666D02*
X145168152Y-100416666D01*
X145168152Y-100416666D02*
X145263390Y-100464285D01*
X145263390Y-100464285D02*
X145311009Y-100511904D01*
X145311009Y-100511904D02*
X145358628Y-100607142D01*
X145358628Y-100607142D02*
X145358628Y-100988094D01*
X144834819Y-100083332D02*
X145834819Y-99416666D01*
X144834819Y-99416666D02*
X145834819Y-100083332D01*
X145834819Y-99035713D02*
X144834819Y-99035713D01*
X144834819Y-99035713D02*
X144834819Y-98797618D01*
X144834819Y-98797618D02*
X144882438Y-98654761D01*
X144882438Y-98654761D02*
X144977676Y-98559523D01*
X144977676Y-98559523D02*
X145072914Y-98511904D01*
X145072914Y-98511904D02*
X145263390Y-98464285D01*
X145263390Y-98464285D02*
X145406247Y-98464285D01*
X145406247Y-98464285D02*
X145596723Y-98511904D01*
X145596723Y-98511904D02*
X145691961Y-98559523D01*
X145691961Y-98559523D02*
X145787200Y-98654761D01*
X145787200Y-98654761D02*
X145834819Y-98797618D01*
X145834819Y-98797618D02*
X145834819Y-99035713D01*
X111354819Y-74239523D02*
X112069104Y-74239523D01*
X112069104Y-74239523D02*
X112211961Y-74287142D01*
X112211961Y-74287142D02*
X112307200Y-74382380D01*
X112307200Y-74382380D02*
X112354819Y-74525237D01*
X112354819Y-74525237D02*
X112354819Y-74620475D01*
X112354819Y-73239523D02*
X112354819Y-73810951D01*
X112354819Y-73525237D02*
X111354819Y-73525237D01*
X111354819Y-73525237D02*
X111497676Y-73620475D01*
X111497676Y-73620475D02*
X111592914Y-73715713D01*
X111592914Y-73715713D02*
X111640533Y-73810951D01*
X111450057Y-72858570D02*
X111402438Y-72810951D01*
X111402438Y-72810951D02*
X111354819Y-72715713D01*
X111354819Y-72715713D02*
X111354819Y-72477618D01*
X111354819Y-72477618D02*
X111402438Y-72382380D01*
X111402438Y-72382380D02*
X111450057Y-72334761D01*
X111450057Y-72334761D02*
X111545295Y-72287142D01*
X111545295Y-72287142D02*
X111640533Y-72287142D01*
X111640533Y-72287142D02*
X111783390Y-72334761D01*
X111783390Y-72334761D02*
X112354819Y-72906189D01*
X112354819Y-72906189D02*
X112354819Y-72287142D01*
X95618095Y-112589819D02*
X95618095Y-113399342D01*
X95618095Y-113399342D02*
X95665714Y-113494580D01*
X95665714Y-113494580D02*
X95713333Y-113542200D01*
X95713333Y-113542200D02*
X95808571Y-113589819D01*
X95808571Y-113589819D02*
X95999047Y-113589819D01*
X95999047Y-113589819D02*
X96094285Y-113542200D01*
X96094285Y-113542200D02*
X96141904Y-113494580D01*
X96141904Y-113494580D02*
X96189523Y-113399342D01*
X96189523Y-113399342D02*
X96189523Y-112589819D01*
X96570476Y-112589819D02*
X97237142Y-112589819D01*
X97237142Y-112589819D02*
X96808571Y-113589819D01*
X126970476Y-78044819D02*
X126970476Y-78759104D01*
X126970476Y-78759104D02*
X126922857Y-78901961D01*
X126922857Y-78901961D02*
X126827619Y-78997200D01*
X126827619Y-78997200D02*
X126684762Y-79044819D01*
X126684762Y-79044819D02*
X126589524Y-79044819D01*
X127970476Y-79044819D02*
X127399048Y-79044819D01*
X127684762Y-79044819D02*
X127684762Y-78044819D01*
X127684762Y-78044819D02*
X127589524Y-78187676D01*
X127589524Y-78187676D02*
X127494286Y-78282914D01*
X127494286Y-78282914D02*
X127399048Y-78330533D01*
X128827619Y-78378152D02*
X128827619Y-79044819D01*
X128589524Y-77997200D02*
X128351429Y-78711485D01*
X128351429Y-78711485D02*
X128970476Y-78711485D01*
X169276666Y-135934819D02*
X169276666Y-136649104D01*
X169276666Y-136649104D02*
X169229047Y-136791961D01*
X169229047Y-136791961D02*
X169133809Y-136887200D01*
X169133809Y-136887200D02*
X168990952Y-136934819D01*
X168990952Y-136934819D02*
X168895714Y-136934819D01*
X169705238Y-136030057D02*
X169752857Y-135982438D01*
X169752857Y-135982438D02*
X169848095Y-135934819D01*
X169848095Y-135934819D02*
X170086190Y-135934819D01*
X170086190Y-135934819D02*
X170181428Y-135982438D01*
X170181428Y-135982438D02*
X170229047Y-136030057D01*
X170229047Y-136030057D02*
X170276666Y-136125295D01*
X170276666Y-136125295D02*
X170276666Y-136220533D01*
X170276666Y-136220533D02*
X170229047Y-136363390D01*
X170229047Y-136363390D02*
X169657619Y-136934819D01*
X169657619Y-136934819D02*
X170276666Y-136934819D01*
X105085476Y-77604819D02*
X105085476Y-78319104D01*
X105085476Y-78319104D02*
X105037857Y-78461961D01*
X105037857Y-78461961D02*
X104942619Y-78557200D01*
X104942619Y-78557200D02*
X104799762Y-78604819D01*
X104799762Y-78604819D02*
X104704524Y-78604819D01*
X106085476Y-78604819D02*
X105514048Y-78604819D01*
X105799762Y-78604819D02*
X105799762Y-77604819D01*
X105799762Y-77604819D02*
X105704524Y-77747676D01*
X105704524Y-77747676D02*
X105609286Y-77842914D01*
X105609286Y-77842914D02*
X105514048Y-77890533D01*
X106418810Y-77604819D02*
X107037857Y-77604819D01*
X107037857Y-77604819D02*
X106704524Y-77985771D01*
X106704524Y-77985771D02*
X106847381Y-77985771D01*
X106847381Y-77985771D02*
X106942619Y-78033390D01*
X106942619Y-78033390D02*
X106990238Y-78081009D01*
X106990238Y-78081009D02*
X107037857Y-78176247D01*
X107037857Y-78176247D02*
X107037857Y-78414342D01*
X107037857Y-78414342D02*
X106990238Y-78509580D01*
X106990238Y-78509580D02*
X106942619Y-78557200D01*
X106942619Y-78557200D02*
X106847381Y-78604819D01*
X106847381Y-78604819D02*
X106561667Y-78604819D01*
X106561667Y-78604819D02*
X106466429Y-78557200D01*
X106466429Y-78557200D02*
X106418810Y-78509580D01*
X150744819Y-100801904D02*
X151554342Y-100801904D01*
X151554342Y-100801904D02*
X151649580Y-100754285D01*
X151649580Y-100754285D02*
X151697200Y-100706666D01*
X151697200Y-100706666D02*
X151744819Y-100611428D01*
X151744819Y-100611428D02*
X151744819Y-100420952D01*
X151744819Y-100420952D02*
X151697200Y-100325714D01*
X151697200Y-100325714D02*
X151649580Y-100278095D01*
X151649580Y-100278095D02*
X151554342Y-100230476D01*
X151554342Y-100230476D02*
X150744819Y-100230476D01*
X151697200Y-99801904D02*
X151744819Y-99659047D01*
X151744819Y-99659047D02*
X151744819Y-99420952D01*
X151744819Y-99420952D02*
X151697200Y-99325714D01*
X151697200Y-99325714D02*
X151649580Y-99278095D01*
X151649580Y-99278095D02*
X151554342Y-99230476D01*
X151554342Y-99230476D02*
X151459104Y-99230476D01*
X151459104Y-99230476D02*
X151363866Y-99278095D01*
X151363866Y-99278095D02*
X151316247Y-99325714D01*
X151316247Y-99325714D02*
X151268628Y-99420952D01*
X151268628Y-99420952D02*
X151221009Y-99611428D01*
X151221009Y-99611428D02*
X151173390Y-99706666D01*
X151173390Y-99706666D02*
X151125771Y-99754285D01*
X151125771Y-99754285D02*
X151030533Y-99801904D01*
X151030533Y-99801904D02*
X150935295Y-99801904D01*
X150935295Y-99801904D02*
X150840057Y-99754285D01*
X150840057Y-99754285D02*
X150792438Y-99706666D01*
X150792438Y-99706666D02*
X150744819Y-99611428D01*
X150744819Y-99611428D02*
X150744819Y-99373333D01*
X150744819Y-99373333D02*
X150792438Y-99230476D01*
X151221009Y-98468571D02*
X151268628Y-98325714D01*
X151268628Y-98325714D02*
X151316247Y-98278095D01*
X151316247Y-98278095D02*
X151411485Y-98230476D01*
X151411485Y-98230476D02*
X151554342Y-98230476D01*
X151554342Y-98230476D02*
X151649580Y-98278095D01*
X151649580Y-98278095D02*
X151697200Y-98325714D01*
X151697200Y-98325714D02*
X151744819Y-98420952D01*
X151744819Y-98420952D02*
X151744819Y-98801904D01*
X151744819Y-98801904D02*
X150744819Y-98801904D01*
X150744819Y-98801904D02*
X150744819Y-98468571D01*
X150744819Y-98468571D02*
X150792438Y-98373333D01*
X150792438Y-98373333D02*
X150840057Y-98325714D01*
X150840057Y-98325714D02*
X150935295Y-98278095D01*
X150935295Y-98278095D02*
X151030533Y-98278095D01*
X151030533Y-98278095D02*
X151125771Y-98325714D01*
X151125771Y-98325714D02*
X151173390Y-98373333D01*
X151173390Y-98373333D02*
X151221009Y-98468571D01*
X151221009Y-98468571D02*
X151221009Y-98801904D01*
X106257142Y-93784819D02*
X105923809Y-93308628D01*
X105685714Y-93784819D02*
X105685714Y-92784819D01*
X105685714Y-92784819D02*
X106066666Y-92784819D01*
X106066666Y-92784819D02*
X106161904Y-92832438D01*
X106161904Y-92832438D02*
X106209523Y-92880057D01*
X106209523Y-92880057D02*
X106257142Y-92975295D01*
X106257142Y-92975295D02*
X106257142Y-93118152D01*
X106257142Y-93118152D02*
X106209523Y-93213390D01*
X106209523Y-93213390D02*
X106161904Y-93261009D01*
X106161904Y-93261009D02*
X106066666Y-93308628D01*
X106066666Y-93308628D02*
X105685714Y-93308628D01*
X107114285Y-93118152D02*
X107114285Y-93784819D01*
X106876190Y-92737200D02*
X106638095Y-93451485D01*
X106638095Y-93451485D02*
X107257142Y-93451485D01*
X108114285Y-92784819D02*
X107638095Y-92784819D01*
X107638095Y-92784819D02*
X107590476Y-93261009D01*
X107590476Y-93261009D02*
X107638095Y-93213390D01*
X107638095Y-93213390D02*
X107733333Y-93165771D01*
X107733333Y-93165771D02*
X107971428Y-93165771D01*
X107971428Y-93165771D02*
X108066666Y-93213390D01*
X108066666Y-93213390D02*
X108114285Y-93261009D01*
X108114285Y-93261009D02*
X108161904Y-93356247D01*
X108161904Y-93356247D02*
X108161904Y-93594342D01*
X108161904Y-93594342D02*
X108114285Y-93689580D01*
X108114285Y-93689580D02*
X108066666Y-93737200D01*
X108066666Y-93737200D02*
X107971428Y-93784819D01*
X107971428Y-93784819D02*
X107733333Y-93784819D01*
X107733333Y-93784819D02*
X107638095Y-93737200D01*
X107638095Y-93737200D02*
X107590476Y-93689580D01*
X134844819Y-150276666D02*
X134844819Y-150752856D01*
X134844819Y-150752856D02*
X133844819Y-150752856D01*
X133844819Y-150038570D02*
X133844819Y-149419523D01*
X133844819Y-149419523D02*
X134225771Y-149752856D01*
X134225771Y-149752856D02*
X134225771Y-149609999D01*
X134225771Y-149609999D02*
X134273390Y-149514761D01*
X134273390Y-149514761D02*
X134321009Y-149467142D01*
X134321009Y-149467142D02*
X134416247Y-149419523D01*
X134416247Y-149419523D02*
X134654342Y-149419523D01*
X134654342Y-149419523D02*
X134749580Y-149467142D01*
X134749580Y-149467142D02*
X134797200Y-149514761D01*
X134797200Y-149514761D02*
X134844819Y-149609999D01*
X134844819Y-149609999D02*
X134844819Y-149895713D01*
X134844819Y-149895713D02*
X134797200Y-149990951D01*
X134797200Y-149990951D02*
X134749580Y-150038570D01*
X161222857Y-136951009D02*
X161365714Y-136998628D01*
X161365714Y-136998628D02*
X161413333Y-137046247D01*
X161413333Y-137046247D02*
X161460952Y-137141485D01*
X161460952Y-137141485D02*
X161460952Y-137284342D01*
X161460952Y-137284342D02*
X161413333Y-137379580D01*
X161413333Y-137379580D02*
X161365714Y-137427200D01*
X161365714Y-137427200D02*
X161270476Y-137474819D01*
X161270476Y-137474819D02*
X160889524Y-137474819D01*
X160889524Y-137474819D02*
X160889524Y-136474819D01*
X160889524Y-136474819D02*
X161222857Y-136474819D01*
X161222857Y-136474819D02*
X161318095Y-136522438D01*
X161318095Y-136522438D02*
X161365714Y-136570057D01*
X161365714Y-136570057D02*
X161413333Y-136665295D01*
X161413333Y-136665295D02*
X161413333Y-136760533D01*
X161413333Y-136760533D02*
X161365714Y-136855771D01*
X161365714Y-136855771D02*
X161318095Y-136903390D01*
X161318095Y-136903390D02*
X161222857Y-136951009D01*
X161222857Y-136951009D02*
X160889524Y-136951009D01*
X162080000Y-136474819D02*
X162270476Y-136474819D01*
X162270476Y-136474819D02*
X162365714Y-136522438D01*
X162365714Y-136522438D02*
X162460952Y-136617676D01*
X162460952Y-136617676D02*
X162508571Y-136808152D01*
X162508571Y-136808152D02*
X162508571Y-137141485D01*
X162508571Y-137141485D02*
X162460952Y-137331961D01*
X162460952Y-137331961D02*
X162365714Y-137427200D01*
X162365714Y-137427200D02*
X162270476Y-137474819D01*
X162270476Y-137474819D02*
X162080000Y-137474819D01*
X162080000Y-137474819D02*
X161984762Y-137427200D01*
X161984762Y-137427200D02*
X161889524Y-137331961D01*
X161889524Y-137331961D02*
X161841905Y-137141485D01*
X161841905Y-137141485D02*
X161841905Y-136808152D01*
X161841905Y-136808152D02*
X161889524Y-136617676D01*
X161889524Y-136617676D02*
X161984762Y-136522438D01*
X161984762Y-136522438D02*
X162080000Y-136474819D01*
X163127619Y-136474819D02*
X163318095Y-136474819D01*
X163318095Y-136474819D02*
X163413333Y-136522438D01*
X163413333Y-136522438D02*
X163508571Y-136617676D01*
X163508571Y-136617676D02*
X163556190Y-136808152D01*
X163556190Y-136808152D02*
X163556190Y-137141485D01*
X163556190Y-137141485D02*
X163508571Y-137331961D01*
X163508571Y-137331961D02*
X163413333Y-137427200D01*
X163413333Y-137427200D02*
X163318095Y-137474819D01*
X163318095Y-137474819D02*
X163127619Y-137474819D01*
X163127619Y-137474819D02*
X163032381Y-137427200D01*
X163032381Y-137427200D02*
X162937143Y-137331961D01*
X162937143Y-137331961D02*
X162889524Y-137141485D01*
X162889524Y-137141485D02*
X162889524Y-136808152D01*
X162889524Y-136808152D02*
X162937143Y-136617676D01*
X162937143Y-136617676D02*
X163032381Y-136522438D01*
X163032381Y-136522438D02*
X163127619Y-136474819D01*
X163841905Y-136474819D02*
X164413333Y-136474819D01*
X164127619Y-137474819D02*
X164127619Y-136474819D01*
X106767142Y-113144819D02*
X106433809Y-112668628D01*
X106195714Y-113144819D02*
X106195714Y-112144819D01*
X106195714Y-112144819D02*
X106576666Y-112144819D01*
X106576666Y-112144819D02*
X106671904Y-112192438D01*
X106671904Y-112192438D02*
X106719523Y-112240057D01*
X106719523Y-112240057D02*
X106767142Y-112335295D01*
X106767142Y-112335295D02*
X106767142Y-112478152D01*
X106767142Y-112478152D02*
X106719523Y-112573390D01*
X106719523Y-112573390D02*
X106671904Y-112621009D01*
X106671904Y-112621009D02*
X106576666Y-112668628D01*
X106576666Y-112668628D02*
X106195714Y-112668628D01*
X107624285Y-112478152D02*
X107624285Y-113144819D01*
X107386190Y-112097200D02*
X107148095Y-112811485D01*
X107148095Y-112811485D02*
X107767142Y-112811485D01*
X108576666Y-112478152D02*
X108576666Y-113144819D01*
X108338571Y-112097200D02*
X108100476Y-112811485D01*
X108100476Y-112811485D02*
X108719523Y-112811485D01*
X157884819Y-132988094D02*
X158694342Y-132988094D01*
X158694342Y-132988094D02*
X158789580Y-132940475D01*
X158789580Y-132940475D02*
X158837200Y-132892856D01*
X158837200Y-132892856D02*
X158884819Y-132797618D01*
X158884819Y-132797618D02*
X158884819Y-132607142D01*
X158884819Y-132607142D02*
X158837200Y-132511904D01*
X158837200Y-132511904D02*
X158789580Y-132464285D01*
X158789580Y-132464285D02*
X158694342Y-132416666D01*
X158694342Y-132416666D02*
X157884819Y-132416666D01*
X158884819Y-131416666D02*
X158884819Y-131988094D01*
X158884819Y-131702380D02*
X157884819Y-131702380D01*
X157884819Y-131702380D02*
X158027676Y-131797618D01*
X158027676Y-131797618D02*
X158122914Y-131892856D01*
X158122914Y-131892856D02*
X158170533Y-131988094D01*
X158884819Y-130464285D02*
X158884819Y-131035713D01*
X158884819Y-130749999D02*
X157884819Y-130749999D01*
X157884819Y-130749999D02*
X158027676Y-130845237D01*
X158027676Y-130845237D02*
X158122914Y-130940475D01*
X158122914Y-130940475D02*
X158170533Y-131035713D01*
X153564819Y-130052857D02*
X153088628Y-130386190D01*
X153564819Y-130624285D02*
X152564819Y-130624285D01*
X152564819Y-130624285D02*
X152564819Y-130243333D01*
X152564819Y-130243333D02*
X152612438Y-130148095D01*
X152612438Y-130148095D02*
X152660057Y-130100476D01*
X152660057Y-130100476D02*
X152755295Y-130052857D01*
X152755295Y-130052857D02*
X152898152Y-130052857D01*
X152898152Y-130052857D02*
X152993390Y-130100476D01*
X152993390Y-130100476D02*
X153041009Y-130148095D01*
X153041009Y-130148095D02*
X153088628Y-130243333D01*
X153088628Y-130243333D02*
X153088628Y-130624285D01*
X152564819Y-129195714D02*
X152564819Y-129386190D01*
X152564819Y-129386190D02*
X152612438Y-129481428D01*
X152612438Y-129481428D02*
X152660057Y-129529047D01*
X152660057Y-129529047D02*
X152802914Y-129624285D01*
X152802914Y-129624285D02*
X152993390Y-129671904D01*
X152993390Y-129671904D02*
X153374342Y-129671904D01*
X153374342Y-129671904D02*
X153469580Y-129624285D01*
X153469580Y-129624285D02*
X153517200Y-129576666D01*
X153517200Y-129576666D02*
X153564819Y-129481428D01*
X153564819Y-129481428D02*
X153564819Y-129290952D01*
X153564819Y-129290952D02*
X153517200Y-129195714D01*
X153517200Y-129195714D02*
X153469580Y-129148095D01*
X153469580Y-129148095D02*
X153374342Y-129100476D01*
X153374342Y-129100476D02*
X153136247Y-129100476D01*
X153136247Y-129100476D02*
X153041009Y-129148095D01*
X153041009Y-129148095D02*
X152993390Y-129195714D01*
X152993390Y-129195714D02*
X152945771Y-129290952D01*
X152945771Y-129290952D02*
X152945771Y-129481428D01*
X152945771Y-129481428D02*
X152993390Y-129576666D01*
X152993390Y-129576666D02*
X153041009Y-129624285D01*
X153041009Y-129624285D02*
X153136247Y-129671904D01*
X152564819Y-128243333D02*
X152564819Y-128433809D01*
X152564819Y-128433809D02*
X152612438Y-128529047D01*
X152612438Y-128529047D02*
X152660057Y-128576666D01*
X152660057Y-128576666D02*
X152802914Y-128671904D01*
X152802914Y-128671904D02*
X152993390Y-128719523D01*
X152993390Y-128719523D02*
X153374342Y-128719523D01*
X153374342Y-128719523D02*
X153469580Y-128671904D01*
X153469580Y-128671904D02*
X153517200Y-128624285D01*
X153517200Y-128624285D02*
X153564819Y-128529047D01*
X153564819Y-128529047D02*
X153564819Y-128338571D01*
X153564819Y-128338571D02*
X153517200Y-128243333D01*
X153517200Y-128243333D02*
X153469580Y-128195714D01*
X153469580Y-128195714D02*
X153374342Y-128148095D01*
X153374342Y-128148095D02*
X153136247Y-128148095D01*
X153136247Y-128148095D02*
X153041009Y-128195714D01*
X153041009Y-128195714D02*
X152993390Y-128243333D01*
X152993390Y-128243333D02*
X152945771Y-128338571D01*
X152945771Y-128338571D02*
X152945771Y-128529047D01*
X152945771Y-128529047D02*
X152993390Y-128624285D01*
X152993390Y-128624285D02*
X153041009Y-128671904D01*
X153041009Y-128671904D02*
X153136247Y-128719523D01*
X100578095Y-116264819D02*
X100578095Y-117074342D01*
X100578095Y-117074342D02*
X100625714Y-117169580D01*
X100625714Y-117169580D02*
X100673333Y-117217200D01*
X100673333Y-117217200D02*
X100768571Y-117264819D01*
X100768571Y-117264819D02*
X100959047Y-117264819D01*
X100959047Y-117264819D02*
X101054285Y-117217200D01*
X101054285Y-117217200D02*
X101101904Y-117169580D01*
X101101904Y-117169580D02*
X101149523Y-117074342D01*
X101149523Y-117074342D02*
X101149523Y-116264819D01*
X102101904Y-116264819D02*
X101625714Y-116264819D01*
X101625714Y-116264819D02*
X101578095Y-116741009D01*
X101578095Y-116741009D02*
X101625714Y-116693390D01*
X101625714Y-116693390D02*
X101720952Y-116645771D01*
X101720952Y-116645771D02*
X101959047Y-116645771D01*
X101959047Y-116645771D02*
X102054285Y-116693390D01*
X102054285Y-116693390D02*
X102101904Y-116741009D01*
X102101904Y-116741009D02*
X102149523Y-116836247D01*
X102149523Y-116836247D02*
X102149523Y-117074342D01*
X102149523Y-117074342D02*
X102101904Y-117169580D01*
X102101904Y-117169580D02*
X102054285Y-117217200D01*
X102054285Y-117217200D02*
X101959047Y-117264819D01*
X101959047Y-117264819D02*
X101720952Y-117264819D01*
X101720952Y-117264819D02*
X101625714Y-117217200D01*
X101625714Y-117217200D02*
X101578095Y-117169580D01*
X148333866Y-101502380D02*
X148333866Y-100740476D01*
X148714819Y-101121428D02*
X147952914Y-101121428D01*
X147714819Y-100359523D02*
X147714819Y-99740476D01*
X147714819Y-99740476D02*
X148095771Y-100073809D01*
X148095771Y-100073809D02*
X148095771Y-99930952D01*
X148095771Y-99930952D02*
X148143390Y-99835714D01*
X148143390Y-99835714D02*
X148191009Y-99788095D01*
X148191009Y-99788095D02*
X148286247Y-99740476D01*
X148286247Y-99740476D02*
X148524342Y-99740476D01*
X148524342Y-99740476D02*
X148619580Y-99788095D01*
X148619580Y-99788095D02*
X148667200Y-99835714D01*
X148667200Y-99835714D02*
X148714819Y-99930952D01*
X148714819Y-99930952D02*
X148714819Y-100216666D01*
X148714819Y-100216666D02*
X148667200Y-100311904D01*
X148667200Y-100311904D02*
X148619580Y-100359523D01*
X148619580Y-99311904D02*
X148667200Y-99264285D01*
X148667200Y-99264285D02*
X148714819Y-99311904D01*
X148714819Y-99311904D02*
X148667200Y-99359523D01*
X148667200Y-99359523D02*
X148619580Y-99311904D01*
X148619580Y-99311904D02*
X148714819Y-99311904D01*
X147714819Y-98930952D02*
X147714819Y-98311905D01*
X147714819Y-98311905D02*
X148095771Y-98645238D01*
X148095771Y-98645238D02*
X148095771Y-98502381D01*
X148095771Y-98502381D02*
X148143390Y-98407143D01*
X148143390Y-98407143D02*
X148191009Y-98359524D01*
X148191009Y-98359524D02*
X148286247Y-98311905D01*
X148286247Y-98311905D02*
X148524342Y-98311905D01*
X148524342Y-98311905D02*
X148619580Y-98359524D01*
X148619580Y-98359524D02*
X148667200Y-98407143D01*
X148667200Y-98407143D02*
X148714819Y-98502381D01*
X148714819Y-98502381D02*
X148714819Y-98788095D01*
X148714819Y-98788095D02*
X148667200Y-98883333D01*
X148667200Y-98883333D02*
X148619580Y-98930952D01*
X148048152Y-97978571D02*
X148714819Y-97740476D01*
X148714819Y-97740476D02*
X148048152Y-97502381D01*
X159874819Y-119873333D02*
X160589104Y-119873333D01*
X160589104Y-119873333D02*
X160731961Y-119920952D01*
X160731961Y-119920952D02*
X160827200Y-120016190D01*
X160827200Y-120016190D02*
X160874819Y-120159047D01*
X160874819Y-120159047D02*
X160874819Y-120254285D01*
X160874819Y-119349523D02*
X160874819Y-119159047D01*
X160874819Y-119159047D02*
X160827200Y-119063809D01*
X160827200Y-119063809D02*
X160779580Y-119016190D01*
X160779580Y-119016190D02*
X160636723Y-118920952D01*
X160636723Y-118920952D02*
X160446247Y-118873333D01*
X160446247Y-118873333D02*
X160065295Y-118873333D01*
X160065295Y-118873333D02*
X159970057Y-118920952D01*
X159970057Y-118920952D02*
X159922438Y-118968571D01*
X159922438Y-118968571D02*
X159874819Y-119063809D01*
X159874819Y-119063809D02*
X159874819Y-119254285D01*
X159874819Y-119254285D02*
X159922438Y-119349523D01*
X159922438Y-119349523D02*
X159970057Y-119397142D01*
X159970057Y-119397142D02*
X160065295Y-119444761D01*
X160065295Y-119444761D02*
X160303390Y-119444761D01*
X160303390Y-119444761D02*
X160398628Y-119397142D01*
X160398628Y-119397142D02*
X160446247Y-119349523D01*
X160446247Y-119349523D02*
X160493866Y-119254285D01*
X160493866Y-119254285D02*
X160493866Y-119063809D01*
X160493866Y-119063809D02*
X160446247Y-118968571D01*
X160446247Y-118968571D02*
X160398628Y-118920952D01*
X160398628Y-118920952D02*
X160303390Y-118873333D01*
X122674819Y-131936666D02*
X122674819Y-132412856D01*
X122674819Y-132412856D02*
X121674819Y-132412856D01*
X122674819Y-131079523D02*
X122674819Y-131650951D01*
X122674819Y-131365237D02*
X121674819Y-131365237D01*
X121674819Y-131365237D02*
X121817676Y-131460475D01*
X121817676Y-131460475D02*
X121912914Y-131555713D01*
X121912914Y-131555713D02*
X121960533Y-131650951D01*
X160058095Y-143863866D02*
X160820000Y-143863866D01*
X160439047Y-144244819D02*
X160439047Y-143482914D01*
X161248571Y-143340057D02*
X161296190Y-143292438D01*
X161296190Y-143292438D02*
X161391428Y-143244819D01*
X161391428Y-143244819D02*
X161629523Y-143244819D01*
X161629523Y-143244819D02*
X161724761Y-143292438D01*
X161724761Y-143292438D02*
X161772380Y-143340057D01*
X161772380Y-143340057D02*
X161819999Y-143435295D01*
X161819999Y-143435295D02*
X161819999Y-143530533D01*
X161819999Y-143530533D02*
X161772380Y-143673390D01*
X161772380Y-143673390D02*
X161200952Y-144244819D01*
X161200952Y-144244819D02*
X161819999Y-144244819D01*
X162677142Y-143578152D02*
X162677142Y-144244819D01*
X162439047Y-143197200D02*
X162200952Y-143911485D01*
X162200952Y-143911485D02*
X162819999Y-143911485D01*
X163058095Y-143244819D02*
X163391428Y-144244819D01*
X163391428Y-144244819D02*
X163724761Y-143244819D01*
X140574761Y-101640057D02*
X140479523Y-101592438D01*
X140479523Y-101592438D02*
X140384285Y-101497200D01*
X140384285Y-101497200D02*
X140241428Y-101354342D01*
X140241428Y-101354342D02*
X140146190Y-101306723D01*
X140146190Y-101306723D02*
X140050952Y-101306723D01*
X140098571Y-101544819D02*
X140003333Y-101497200D01*
X140003333Y-101497200D02*
X139908095Y-101401961D01*
X139908095Y-101401961D02*
X139860476Y-101211485D01*
X139860476Y-101211485D02*
X139860476Y-100878152D01*
X139860476Y-100878152D02*
X139908095Y-100687676D01*
X139908095Y-100687676D02*
X140003333Y-100592438D01*
X140003333Y-100592438D02*
X140098571Y-100544819D01*
X140098571Y-100544819D02*
X140289047Y-100544819D01*
X140289047Y-100544819D02*
X140384285Y-100592438D01*
X140384285Y-100592438D02*
X140479523Y-100687676D01*
X140479523Y-100687676D02*
X140527142Y-100878152D01*
X140527142Y-100878152D02*
X140527142Y-101211485D01*
X140527142Y-101211485D02*
X140479523Y-101401961D01*
X140479523Y-101401961D02*
X140384285Y-101497200D01*
X140384285Y-101497200D02*
X140289047Y-101544819D01*
X140289047Y-101544819D02*
X140098571Y-101544819D01*
X140860476Y-100544819D02*
X141527142Y-100544819D01*
X141527142Y-100544819D02*
X141098571Y-101544819D01*
X116028095Y-78004819D02*
X116028095Y-78814342D01*
X116028095Y-78814342D02*
X116075714Y-78909580D01*
X116075714Y-78909580D02*
X116123333Y-78957200D01*
X116123333Y-78957200D02*
X116218571Y-79004819D01*
X116218571Y-79004819D02*
X116409047Y-79004819D01*
X116409047Y-79004819D02*
X116504285Y-78957200D01*
X116504285Y-78957200D02*
X116551904Y-78909580D01*
X116551904Y-78909580D02*
X116599523Y-78814342D01*
X116599523Y-78814342D02*
X116599523Y-78004819D01*
X117028095Y-78100057D02*
X117075714Y-78052438D01*
X117075714Y-78052438D02*
X117170952Y-78004819D01*
X117170952Y-78004819D02*
X117409047Y-78004819D01*
X117409047Y-78004819D02*
X117504285Y-78052438D01*
X117504285Y-78052438D02*
X117551904Y-78100057D01*
X117551904Y-78100057D02*
X117599523Y-78195295D01*
X117599523Y-78195295D02*
X117599523Y-78290533D01*
X117599523Y-78290533D02*
X117551904Y-78433390D01*
X117551904Y-78433390D02*
X116980476Y-79004819D01*
X116980476Y-79004819D02*
X117599523Y-79004819D01*
X124774761Y-107780057D02*
X124679523Y-107732438D01*
X124679523Y-107732438D02*
X124584285Y-107637200D01*
X124584285Y-107637200D02*
X124441428Y-107494342D01*
X124441428Y-107494342D02*
X124346190Y-107446723D01*
X124346190Y-107446723D02*
X124250952Y-107446723D01*
X124298571Y-107684819D02*
X124203333Y-107637200D01*
X124203333Y-107637200D02*
X124108095Y-107541961D01*
X124108095Y-107541961D02*
X124060476Y-107351485D01*
X124060476Y-107351485D02*
X124060476Y-107018152D01*
X124060476Y-107018152D02*
X124108095Y-106827676D01*
X124108095Y-106827676D02*
X124203333Y-106732438D01*
X124203333Y-106732438D02*
X124298571Y-106684819D01*
X124298571Y-106684819D02*
X124489047Y-106684819D01*
X124489047Y-106684819D02*
X124584285Y-106732438D01*
X124584285Y-106732438D02*
X124679523Y-106827676D01*
X124679523Y-106827676D02*
X124727142Y-107018152D01*
X124727142Y-107018152D02*
X124727142Y-107351485D01*
X124727142Y-107351485D02*
X124679523Y-107541961D01*
X124679523Y-107541961D02*
X124584285Y-107637200D01*
X124584285Y-107637200D02*
X124489047Y-107684819D01*
X124489047Y-107684819D02*
X124298571Y-107684819D01*
X125631904Y-106684819D02*
X125155714Y-106684819D01*
X125155714Y-106684819D02*
X125108095Y-107161009D01*
X125108095Y-107161009D02*
X125155714Y-107113390D01*
X125155714Y-107113390D02*
X125250952Y-107065771D01*
X125250952Y-107065771D02*
X125489047Y-107065771D01*
X125489047Y-107065771D02*
X125584285Y-107113390D01*
X125584285Y-107113390D02*
X125631904Y-107161009D01*
X125631904Y-107161009D02*
X125679523Y-107256247D01*
X125679523Y-107256247D02*
X125679523Y-107494342D01*
X125679523Y-107494342D02*
X125631904Y-107589580D01*
X125631904Y-107589580D02*
X125584285Y-107637200D01*
X125584285Y-107637200D02*
X125489047Y-107684819D01*
X125489047Y-107684819D02*
X125250952Y-107684819D01*
X125250952Y-107684819D02*
X125155714Y-107637200D01*
X125155714Y-107637200D02*
X125108095Y-107589580D01*
X124914761Y-95380057D02*
X124819523Y-95332438D01*
X124819523Y-95332438D02*
X124724285Y-95237200D01*
X124724285Y-95237200D02*
X124581428Y-95094342D01*
X124581428Y-95094342D02*
X124486190Y-95046723D01*
X124486190Y-95046723D02*
X124390952Y-95046723D01*
X124438571Y-95284819D02*
X124343333Y-95237200D01*
X124343333Y-95237200D02*
X124248095Y-95141961D01*
X124248095Y-95141961D02*
X124200476Y-94951485D01*
X124200476Y-94951485D02*
X124200476Y-94618152D01*
X124200476Y-94618152D02*
X124248095Y-94427676D01*
X124248095Y-94427676D02*
X124343333Y-94332438D01*
X124343333Y-94332438D02*
X124438571Y-94284819D01*
X124438571Y-94284819D02*
X124629047Y-94284819D01*
X124629047Y-94284819D02*
X124724285Y-94332438D01*
X124724285Y-94332438D02*
X124819523Y-94427676D01*
X124819523Y-94427676D02*
X124867142Y-94618152D01*
X124867142Y-94618152D02*
X124867142Y-94951485D01*
X124867142Y-94951485D02*
X124819523Y-95141961D01*
X124819523Y-95141961D02*
X124724285Y-95237200D01*
X124724285Y-95237200D02*
X124629047Y-95284819D01*
X124629047Y-95284819D02*
X124438571Y-95284819D01*
X125724285Y-94284819D02*
X125533809Y-94284819D01*
X125533809Y-94284819D02*
X125438571Y-94332438D01*
X125438571Y-94332438D02*
X125390952Y-94380057D01*
X125390952Y-94380057D02*
X125295714Y-94522914D01*
X125295714Y-94522914D02*
X125248095Y-94713390D01*
X125248095Y-94713390D02*
X125248095Y-95094342D01*
X125248095Y-95094342D02*
X125295714Y-95189580D01*
X125295714Y-95189580D02*
X125343333Y-95237200D01*
X125343333Y-95237200D02*
X125438571Y-95284819D01*
X125438571Y-95284819D02*
X125629047Y-95284819D01*
X125629047Y-95284819D02*
X125724285Y-95237200D01*
X125724285Y-95237200D02*
X125771904Y-95189580D01*
X125771904Y-95189580D02*
X125819523Y-95094342D01*
X125819523Y-95094342D02*
X125819523Y-94856247D01*
X125819523Y-94856247D02*
X125771904Y-94761009D01*
X125771904Y-94761009D02*
X125724285Y-94713390D01*
X125724285Y-94713390D02*
X125629047Y-94665771D01*
X125629047Y-94665771D02*
X125438571Y-94665771D01*
X125438571Y-94665771D02*
X125343333Y-94713390D01*
X125343333Y-94713390D02*
X125295714Y-94761009D01*
X125295714Y-94761009D02*
X125248095Y-94856247D01*
X126217142Y-136109580D02*
X126169523Y-136157200D01*
X126169523Y-136157200D02*
X126026666Y-136204819D01*
X126026666Y-136204819D02*
X125931428Y-136204819D01*
X125931428Y-136204819D02*
X125788571Y-136157200D01*
X125788571Y-136157200D02*
X125693333Y-136061961D01*
X125693333Y-136061961D02*
X125645714Y-135966723D01*
X125645714Y-135966723D02*
X125598095Y-135776247D01*
X125598095Y-135776247D02*
X125598095Y-135633390D01*
X125598095Y-135633390D02*
X125645714Y-135442914D01*
X125645714Y-135442914D02*
X125693333Y-135347676D01*
X125693333Y-135347676D02*
X125788571Y-135252438D01*
X125788571Y-135252438D02*
X125931428Y-135204819D01*
X125931428Y-135204819D02*
X126026666Y-135204819D01*
X126026666Y-135204819D02*
X126169523Y-135252438D01*
X126169523Y-135252438D02*
X126217142Y-135300057D01*
X127074285Y-135538152D02*
X127074285Y-136204819D01*
X126836190Y-135157200D02*
X126598095Y-135871485D01*
X126598095Y-135871485D02*
X127217142Y-135871485D01*
X127740952Y-135633390D02*
X127645714Y-135585771D01*
X127645714Y-135585771D02*
X127598095Y-135538152D01*
X127598095Y-135538152D02*
X127550476Y-135442914D01*
X127550476Y-135442914D02*
X127550476Y-135395295D01*
X127550476Y-135395295D02*
X127598095Y-135300057D01*
X127598095Y-135300057D02*
X127645714Y-135252438D01*
X127645714Y-135252438D02*
X127740952Y-135204819D01*
X127740952Y-135204819D02*
X127931428Y-135204819D01*
X127931428Y-135204819D02*
X128026666Y-135252438D01*
X128026666Y-135252438D02*
X128074285Y-135300057D01*
X128074285Y-135300057D02*
X128121904Y-135395295D01*
X128121904Y-135395295D02*
X128121904Y-135442914D01*
X128121904Y-135442914D02*
X128074285Y-135538152D01*
X128074285Y-135538152D02*
X128026666Y-135585771D01*
X128026666Y-135585771D02*
X127931428Y-135633390D01*
X127931428Y-135633390D02*
X127740952Y-135633390D01*
X127740952Y-135633390D02*
X127645714Y-135681009D01*
X127645714Y-135681009D02*
X127598095Y-135728628D01*
X127598095Y-135728628D02*
X127550476Y-135823866D01*
X127550476Y-135823866D02*
X127550476Y-136014342D01*
X127550476Y-136014342D02*
X127598095Y-136109580D01*
X127598095Y-136109580D02*
X127645714Y-136157200D01*
X127645714Y-136157200D02*
X127740952Y-136204819D01*
X127740952Y-136204819D02*
X127931428Y-136204819D01*
X127931428Y-136204819D02*
X128026666Y-136157200D01*
X128026666Y-136157200D02*
X128074285Y-136109580D01*
X128074285Y-136109580D02*
X128121904Y-136014342D01*
X128121904Y-136014342D02*
X128121904Y-135823866D01*
X128121904Y-135823866D02*
X128074285Y-135728628D01*
X128074285Y-135728628D02*
X128026666Y-135681009D01*
X128026666Y-135681009D02*
X127931428Y-135633390D01*
X157791905Y-136861009D02*
X158125238Y-136861009D01*
X158268095Y-137384819D02*
X157791905Y-137384819D01*
X157791905Y-137384819D02*
X157791905Y-136384819D01*
X157791905Y-136384819D02*
X158268095Y-136384819D01*
X158696667Y-137384819D02*
X158696667Y-136384819D01*
X158696667Y-136384819D02*
X159268095Y-137384819D01*
X159268095Y-137384819D02*
X159268095Y-136384819D01*
X149028095Y-82774819D02*
X149028095Y-83584342D01*
X149028095Y-83584342D02*
X149075714Y-83679580D01*
X149075714Y-83679580D02*
X149123333Y-83727200D01*
X149123333Y-83727200D02*
X149218571Y-83774819D01*
X149218571Y-83774819D02*
X149409047Y-83774819D01*
X149409047Y-83774819D02*
X149504285Y-83727200D01*
X149504285Y-83727200D02*
X149551904Y-83679580D01*
X149551904Y-83679580D02*
X149599523Y-83584342D01*
X149599523Y-83584342D02*
X149599523Y-82774819D01*
X149980476Y-82774819D02*
X150599523Y-82774819D01*
X150599523Y-82774819D02*
X150266190Y-83155771D01*
X150266190Y-83155771D02*
X150409047Y-83155771D01*
X150409047Y-83155771D02*
X150504285Y-83203390D01*
X150504285Y-83203390D02*
X150551904Y-83251009D01*
X150551904Y-83251009D02*
X150599523Y-83346247D01*
X150599523Y-83346247D02*
X150599523Y-83584342D01*
X150599523Y-83584342D02*
X150551904Y-83679580D01*
X150551904Y-83679580D02*
X150504285Y-83727200D01*
X150504285Y-83727200D02*
X150409047Y-83774819D01*
X150409047Y-83774819D02*
X150123333Y-83774819D01*
X150123333Y-83774819D02*
X150028095Y-83727200D01*
X150028095Y-83727200D02*
X149980476Y-83679580D01*
X112533333Y-81384819D02*
X112200000Y-80908628D01*
X111961905Y-81384819D02*
X111961905Y-80384819D01*
X111961905Y-80384819D02*
X112342857Y-80384819D01*
X112342857Y-80384819D02*
X112438095Y-80432438D01*
X112438095Y-80432438D02*
X112485714Y-80480057D01*
X112485714Y-80480057D02*
X112533333Y-80575295D01*
X112533333Y-80575295D02*
X112533333Y-80718152D01*
X112533333Y-80718152D02*
X112485714Y-80813390D01*
X112485714Y-80813390D02*
X112438095Y-80861009D01*
X112438095Y-80861009D02*
X112342857Y-80908628D01*
X112342857Y-80908628D02*
X111961905Y-80908628D01*
X112866667Y-80384819D02*
X113485714Y-80384819D01*
X113485714Y-80384819D02*
X113152381Y-80765771D01*
X113152381Y-80765771D02*
X113295238Y-80765771D01*
X113295238Y-80765771D02*
X113390476Y-80813390D01*
X113390476Y-80813390D02*
X113438095Y-80861009D01*
X113438095Y-80861009D02*
X113485714Y-80956247D01*
X113485714Y-80956247D02*
X113485714Y-81194342D01*
X113485714Y-81194342D02*
X113438095Y-81289580D01*
X113438095Y-81289580D02*
X113390476Y-81337200D01*
X113390476Y-81337200D02*
X113295238Y-81384819D01*
X113295238Y-81384819D02*
X113009524Y-81384819D01*
X113009524Y-81384819D02*
X112914286Y-81337200D01*
X112914286Y-81337200D02*
X112866667Y-81289580D01*
X99194819Y-73073333D02*
X99909104Y-73073333D01*
X99909104Y-73073333D02*
X100051961Y-73120952D01*
X100051961Y-73120952D02*
X100147200Y-73216190D01*
X100147200Y-73216190D02*
X100194819Y-73359047D01*
X100194819Y-73359047D02*
X100194819Y-73454285D01*
X99194819Y-72692380D02*
X99194819Y-72073333D01*
X99194819Y-72073333D02*
X99575771Y-72406666D01*
X99575771Y-72406666D02*
X99575771Y-72263809D01*
X99575771Y-72263809D02*
X99623390Y-72168571D01*
X99623390Y-72168571D02*
X99671009Y-72120952D01*
X99671009Y-72120952D02*
X99766247Y-72073333D01*
X99766247Y-72073333D02*
X100004342Y-72073333D01*
X100004342Y-72073333D02*
X100099580Y-72120952D01*
X100099580Y-72120952D02*
X100147200Y-72168571D01*
X100147200Y-72168571D02*
X100194819Y-72263809D01*
X100194819Y-72263809D02*
X100194819Y-72549523D01*
X100194819Y-72549523D02*
X100147200Y-72644761D01*
X100147200Y-72644761D02*
X100099580Y-72692380D01*
X136674761Y-114040057D02*
X136579523Y-113992438D01*
X136579523Y-113992438D02*
X136484285Y-113897200D01*
X136484285Y-113897200D02*
X136341428Y-113754342D01*
X136341428Y-113754342D02*
X136246190Y-113706723D01*
X136246190Y-113706723D02*
X136150952Y-113706723D01*
X136198571Y-113944819D02*
X136103333Y-113897200D01*
X136103333Y-113897200D02*
X136008095Y-113801961D01*
X136008095Y-113801961D02*
X135960476Y-113611485D01*
X135960476Y-113611485D02*
X135960476Y-113278152D01*
X135960476Y-113278152D02*
X136008095Y-113087676D01*
X136008095Y-113087676D02*
X136103333Y-112992438D01*
X136103333Y-112992438D02*
X136198571Y-112944819D01*
X136198571Y-112944819D02*
X136389047Y-112944819D01*
X136389047Y-112944819D02*
X136484285Y-112992438D01*
X136484285Y-112992438D02*
X136579523Y-113087676D01*
X136579523Y-113087676D02*
X136627142Y-113278152D01*
X136627142Y-113278152D02*
X136627142Y-113611485D01*
X136627142Y-113611485D02*
X136579523Y-113801961D01*
X136579523Y-113801961D02*
X136484285Y-113897200D01*
X136484285Y-113897200D02*
X136389047Y-113944819D01*
X136389047Y-113944819D02*
X136198571Y-113944819D01*
X137198571Y-113373390D02*
X137103333Y-113325771D01*
X137103333Y-113325771D02*
X137055714Y-113278152D01*
X137055714Y-113278152D02*
X137008095Y-113182914D01*
X137008095Y-113182914D02*
X137008095Y-113135295D01*
X137008095Y-113135295D02*
X137055714Y-113040057D01*
X137055714Y-113040057D02*
X137103333Y-112992438D01*
X137103333Y-112992438D02*
X137198571Y-112944819D01*
X137198571Y-112944819D02*
X137389047Y-112944819D01*
X137389047Y-112944819D02*
X137484285Y-112992438D01*
X137484285Y-112992438D02*
X137531904Y-113040057D01*
X137531904Y-113040057D02*
X137579523Y-113135295D01*
X137579523Y-113135295D02*
X137579523Y-113182914D01*
X137579523Y-113182914D02*
X137531904Y-113278152D01*
X137531904Y-113278152D02*
X137484285Y-113325771D01*
X137484285Y-113325771D02*
X137389047Y-113373390D01*
X137389047Y-113373390D02*
X137198571Y-113373390D01*
X137198571Y-113373390D02*
X137103333Y-113421009D01*
X137103333Y-113421009D02*
X137055714Y-113468628D01*
X137055714Y-113468628D02*
X137008095Y-113563866D01*
X137008095Y-113563866D02*
X137008095Y-113754342D01*
X137008095Y-113754342D02*
X137055714Y-113849580D01*
X137055714Y-113849580D02*
X137103333Y-113897200D01*
X137103333Y-113897200D02*
X137198571Y-113944819D01*
X137198571Y-113944819D02*
X137389047Y-113944819D01*
X137389047Y-113944819D02*
X137484285Y-113897200D01*
X137484285Y-113897200D02*
X137531904Y-113849580D01*
X137531904Y-113849580D02*
X137579523Y-113754342D01*
X137579523Y-113754342D02*
X137579523Y-113563866D01*
X137579523Y-113563866D02*
X137531904Y-113468628D01*
X137531904Y-113468628D02*
X137484285Y-113421009D01*
X137484285Y-113421009D02*
X137389047Y-113373390D01*
X115204819Y-132556785D02*
X114204819Y-132556785D01*
X114204819Y-132556785D02*
X114204819Y-132318690D01*
X114204819Y-132318690D02*
X114252438Y-132175833D01*
X114252438Y-132175833D02*
X114347676Y-132080595D01*
X114347676Y-132080595D02*
X114442914Y-132032976D01*
X114442914Y-132032976D02*
X114633390Y-131985357D01*
X114633390Y-131985357D02*
X114776247Y-131985357D01*
X114776247Y-131985357D02*
X114966723Y-132032976D01*
X114966723Y-132032976D02*
X115061961Y-132080595D01*
X115061961Y-132080595D02*
X115157200Y-132175833D01*
X115157200Y-132175833D02*
X115204819Y-132318690D01*
X115204819Y-132318690D02*
X115204819Y-132556785D01*
X115204819Y-131032976D02*
X115204819Y-131604404D01*
X115204819Y-131318690D02*
X114204819Y-131318690D01*
X114204819Y-131318690D02*
X114347676Y-131413928D01*
X114347676Y-131413928D02*
X114442914Y-131509166D01*
X114442914Y-131509166D02*
X114490533Y-131604404D01*
X115204819Y-130080595D02*
X115204819Y-130652023D01*
X115204819Y-130366309D02*
X114204819Y-130366309D01*
X114204819Y-130366309D02*
X114347676Y-130461547D01*
X114347676Y-130461547D02*
X114442914Y-130556785D01*
X114442914Y-130556785D02*
X114490533Y-130652023D01*
X151164819Y-149624285D02*
X150164819Y-149624285D01*
X150164819Y-149624285D02*
X150164819Y-149386190D01*
X150164819Y-149386190D02*
X150212438Y-149243333D01*
X150212438Y-149243333D02*
X150307676Y-149148095D01*
X150307676Y-149148095D02*
X150402914Y-149100476D01*
X150402914Y-149100476D02*
X150593390Y-149052857D01*
X150593390Y-149052857D02*
X150736247Y-149052857D01*
X150736247Y-149052857D02*
X150926723Y-149100476D01*
X150926723Y-149100476D02*
X151021961Y-149148095D01*
X151021961Y-149148095D02*
X151117200Y-149243333D01*
X151117200Y-149243333D02*
X151164819Y-149386190D01*
X151164819Y-149386190D02*
X151164819Y-149624285D01*
X151164819Y-148100476D02*
X151164819Y-148671904D01*
X151164819Y-148386190D02*
X150164819Y-148386190D01*
X150164819Y-148386190D02*
X150307676Y-148481428D01*
X150307676Y-148481428D02*
X150402914Y-148576666D01*
X150402914Y-148576666D02*
X150450533Y-148671904D01*
X150260057Y-147719523D02*
X150212438Y-147671904D01*
X150212438Y-147671904D02*
X150164819Y-147576666D01*
X150164819Y-147576666D02*
X150164819Y-147338571D01*
X150164819Y-147338571D02*
X150212438Y-147243333D01*
X150212438Y-147243333D02*
X150260057Y-147195714D01*
X150260057Y-147195714D02*
X150355295Y-147148095D01*
X150355295Y-147148095D02*
X150450533Y-147148095D01*
X150450533Y-147148095D02*
X150593390Y-147195714D01*
X150593390Y-147195714D02*
X151164819Y-147767142D01*
X151164819Y-147767142D02*
X151164819Y-147148095D01*
X161034819Y-86239523D02*
X161749104Y-86239523D01*
X161749104Y-86239523D02*
X161891961Y-86287142D01*
X161891961Y-86287142D02*
X161987200Y-86382380D01*
X161987200Y-86382380D02*
X162034819Y-86525237D01*
X162034819Y-86525237D02*
X162034819Y-86620475D01*
X162034819Y-85239523D02*
X162034819Y-85810951D01*
X162034819Y-85525237D02*
X161034819Y-85525237D01*
X161034819Y-85525237D02*
X161177676Y-85620475D01*
X161177676Y-85620475D02*
X161272914Y-85715713D01*
X161272914Y-85715713D02*
X161320533Y-85810951D01*
X161034819Y-84620475D02*
X161034819Y-84525237D01*
X161034819Y-84525237D02*
X161082438Y-84429999D01*
X161082438Y-84429999D02*
X161130057Y-84382380D01*
X161130057Y-84382380D02*
X161225295Y-84334761D01*
X161225295Y-84334761D02*
X161415771Y-84287142D01*
X161415771Y-84287142D02*
X161653866Y-84287142D01*
X161653866Y-84287142D02*
X161844342Y-84334761D01*
X161844342Y-84334761D02*
X161939580Y-84382380D01*
X161939580Y-84382380D02*
X161987200Y-84429999D01*
X161987200Y-84429999D02*
X162034819Y-84525237D01*
X162034819Y-84525237D02*
X162034819Y-84620475D01*
X162034819Y-84620475D02*
X161987200Y-84715713D01*
X161987200Y-84715713D02*
X161939580Y-84763332D01*
X161939580Y-84763332D02*
X161844342Y-84810951D01*
X161844342Y-84810951D02*
X161653866Y-84858570D01*
X161653866Y-84858570D02*
X161415771Y-84858570D01*
X161415771Y-84858570D02*
X161225295Y-84810951D01*
X161225295Y-84810951D02*
X161130057Y-84763332D01*
X161130057Y-84763332D02*
X161082438Y-84715713D01*
X161082438Y-84715713D02*
X161034819Y-84620475D01*
X108656667Y-147574819D02*
X108990000Y-148574819D01*
X108990000Y-148574819D02*
X109323333Y-147574819D01*
X110228095Y-148479580D02*
X110180476Y-148527200D01*
X110180476Y-148527200D02*
X110037619Y-148574819D01*
X110037619Y-148574819D02*
X109942381Y-148574819D01*
X109942381Y-148574819D02*
X109799524Y-148527200D01*
X109799524Y-148527200D02*
X109704286Y-148431961D01*
X109704286Y-148431961D02*
X109656667Y-148336723D01*
X109656667Y-148336723D02*
X109609048Y-148146247D01*
X109609048Y-148146247D02*
X109609048Y-148003390D01*
X109609048Y-148003390D02*
X109656667Y-147812914D01*
X109656667Y-147812914D02*
X109704286Y-147717676D01*
X109704286Y-147717676D02*
X109799524Y-147622438D01*
X109799524Y-147622438D02*
X109942381Y-147574819D01*
X109942381Y-147574819D02*
X110037619Y-147574819D01*
X110037619Y-147574819D02*
X110180476Y-147622438D01*
X110180476Y-147622438D02*
X110228095Y-147670057D01*
X111228095Y-148479580D02*
X111180476Y-148527200D01*
X111180476Y-148527200D02*
X111037619Y-148574819D01*
X111037619Y-148574819D02*
X110942381Y-148574819D01*
X110942381Y-148574819D02*
X110799524Y-148527200D01*
X110799524Y-148527200D02*
X110704286Y-148431961D01*
X110704286Y-148431961D02*
X110656667Y-148336723D01*
X110656667Y-148336723D02*
X110609048Y-148146247D01*
X110609048Y-148146247D02*
X110609048Y-148003390D01*
X110609048Y-148003390D02*
X110656667Y-147812914D01*
X110656667Y-147812914D02*
X110704286Y-147717676D01*
X110704286Y-147717676D02*
X110799524Y-147622438D01*
X110799524Y-147622438D02*
X110942381Y-147574819D01*
X110942381Y-147574819D02*
X111037619Y-147574819D01*
X111037619Y-147574819D02*
X111180476Y-147622438D01*
X111180476Y-147622438D02*
X111228095Y-147670057D01*
X168984819Y-94083333D02*
X169699104Y-94083333D01*
X169699104Y-94083333D02*
X169841961Y-94130952D01*
X169841961Y-94130952D02*
X169937200Y-94226190D01*
X169937200Y-94226190D02*
X169984819Y-94369047D01*
X169984819Y-94369047D02*
X169984819Y-94464285D01*
X168984819Y-93130952D02*
X168984819Y-93607142D01*
X168984819Y-93607142D02*
X169461009Y-93654761D01*
X169461009Y-93654761D02*
X169413390Y-93607142D01*
X169413390Y-93607142D02*
X169365771Y-93511904D01*
X169365771Y-93511904D02*
X169365771Y-93273809D01*
X169365771Y-93273809D02*
X169413390Y-93178571D01*
X169413390Y-93178571D02*
X169461009Y-93130952D01*
X169461009Y-93130952D02*
X169556247Y-93083333D01*
X169556247Y-93083333D02*
X169794342Y-93083333D01*
X169794342Y-93083333D02*
X169889580Y-93130952D01*
X169889580Y-93130952D02*
X169937200Y-93178571D01*
X169937200Y-93178571D02*
X169984819Y-93273809D01*
X169984819Y-93273809D02*
X169984819Y-93511904D01*
X169984819Y-93511904D02*
X169937200Y-93607142D01*
X169937200Y-93607142D02*
X169889580Y-93654761D01*
X141904819Y-101104404D02*
X141904819Y-100532976D01*
X142904819Y-100818690D02*
X141904819Y-100818690D01*
X141904819Y-100294880D02*
X142904819Y-99628214D01*
X141904819Y-99628214D02*
X142904819Y-100294880D01*
X142904819Y-99247261D02*
X141904819Y-99247261D01*
X141904819Y-99247261D02*
X141904819Y-99009166D01*
X141904819Y-99009166D02*
X141952438Y-98866309D01*
X141952438Y-98866309D02*
X142047676Y-98771071D01*
X142047676Y-98771071D02*
X142142914Y-98723452D01*
X142142914Y-98723452D02*
X142333390Y-98675833D01*
X142333390Y-98675833D02*
X142476247Y-98675833D01*
X142476247Y-98675833D02*
X142666723Y-98723452D01*
X142666723Y-98723452D02*
X142761961Y-98771071D01*
X142761961Y-98771071D02*
X142857200Y-98866309D01*
X142857200Y-98866309D02*
X142904819Y-99009166D01*
X142904819Y-99009166D02*
X142904819Y-99247261D01*
X167310476Y-97684819D02*
X167310476Y-98399104D01*
X167310476Y-98399104D02*
X167262857Y-98541961D01*
X167262857Y-98541961D02*
X167167619Y-98637200D01*
X167167619Y-98637200D02*
X167024762Y-98684819D01*
X167024762Y-98684819D02*
X166929524Y-98684819D01*
X168310476Y-98684819D02*
X167739048Y-98684819D01*
X168024762Y-98684819D02*
X168024762Y-97684819D01*
X168024762Y-97684819D02*
X167929524Y-97827676D01*
X167929524Y-97827676D02*
X167834286Y-97922914D01*
X167834286Y-97922914D02*
X167739048Y-97970533D01*
X169262857Y-98684819D02*
X168691429Y-98684819D01*
X168977143Y-98684819D02*
X168977143Y-97684819D01*
X168977143Y-97684819D02*
X168881905Y-97827676D01*
X168881905Y-97827676D02*
X168786667Y-97922914D01*
X168786667Y-97922914D02*
X168691429Y-97970533D01*
X93320000Y-116703866D02*
X94081905Y-116703866D01*
X93700952Y-117084819D02*
X93700952Y-116322914D01*
X94462857Y-116084819D02*
X95081904Y-116084819D01*
X95081904Y-116084819D02*
X94748571Y-116465771D01*
X94748571Y-116465771D02*
X94891428Y-116465771D01*
X94891428Y-116465771D02*
X94986666Y-116513390D01*
X94986666Y-116513390D02*
X95034285Y-116561009D01*
X95034285Y-116561009D02*
X95081904Y-116656247D01*
X95081904Y-116656247D02*
X95081904Y-116894342D01*
X95081904Y-116894342D02*
X95034285Y-116989580D01*
X95034285Y-116989580D02*
X94986666Y-117037200D01*
X94986666Y-117037200D02*
X94891428Y-117084819D01*
X94891428Y-117084819D02*
X94605714Y-117084819D01*
X94605714Y-117084819D02*
X94510476Y-117037200D01*
X94510476Y-117037200D02*
X94462857Y-116989580D01*
X95510476Y-116989580D02*
X95558095Y-117037200D01*
X95558095Y-117037200D02*
X95510476Y-117084819D01*
X95510476Y-117084819D02*
X95462857Y-117037200D01*
X95462857Y-117037200D02*
X95510476Y-116989580D01*
X95510476Y-116989580D02*
X95510476Y-117084819D01*
X95891428Y-116084819D02*
X96510475Y-116084819D01*
X96510475Y-116084819D02*
X96177142Y-116465771D01*
X96177142Y-116465771D02*
X96319999Y-116465771D01*
X96319999Y-116465771D02*
X96415237Y-116513390D01*
X96415237Y-116513390D02*
X96462856Y-116561009D01*
X96462856Y-116561009D02*
X96510475Y-116656247D01*
X96510475Y-116656247D02*
X96510475Y-116894342D01*
X96510475Y-116894342D02*
X96462856Y-116989580D01*
X96462856Y-116989580D02*
X96415237Y-117037200D01*
X96415237Y-117037200D02*
X96319999Y-117084819D01*
X96319999Y-117084819D02*
X96034285Y-117084819D01*
X96034285Y-117084819D02*
X95939047Y-117037200D01*
X95939047Y-117037200D02*
X95891428Y-116989580D01*
X96796190Y-116084819D02*
X97129523Y-117084819D01*
X97129523Y-117084819D02*
X97462856Y-116084819D01*
X136784761Y-126240057D02*
X136689523Y-126192438D01*
X136689523Y-126192438D02*
X136594285Y-126097200D01*
X136594285Y-126097200D02*
X136451428Y-125954342D01*
X136451428Y-125954342D02*
X136356190Y-125906723D01*
X136356190Y-125906723D02*
X136260952Y-125906723D01*
X136308571Y-126144819D02*
X136213333Y-126097200D01*
X136213333Y-126097200D02*
X136118095Y-126001961D01*
X136118095Y-126001961D02*
X136070476Y-125811485D01*
X136070476Y-125811485D02*
X136070476Y-125478152D01*
X136070476Y-125478152D02*
X136118095Y-125287676D01*
X136118095Y-125287676D02*
X136213333Y-125192438D01*
X136213333Y-125192438D02*
X136308571Y-125144819D01*
X136308571Y-125144819D02*
X136499047Y-125144819D01*
X136499047Y-125144819D02*
X136594285Y-125192438D01*
X136594285Y-125192438D02*
X136689523Y-125287676D01*
X136689523Y-125287676D02*
X136737142Y-125478152D01*
X136737142Y-125478152D02*
X136737142Y-125811485D01*
X136737142Y-125811485D02*
X136689523Y-126001961D01*
X136689523Y-126001961D02*
X136594285Y-126097200D01*
X136594285Y-126097200D02*
X136499047Y-126144819D01*
X136499047Y-126144819D02*
X136308571Y-126144819D01*
X137213333Y-126144819D02*
X137403809Y-126144819D01*
X137403809Y-126144819D02*
X137499047Y-126097200D01*
X137499047Y-126097200D02*
X137546666Y-126049580D01*
X137546666Y-126049580D02*
X137641904Y-125906723D01*
X137641904Y-125906723D02*
X137689523Y-125716247D01*
X137689523Y-125716247D02*
X137689523Y-125335295D01*
X137689523Y-125335295D02*
X137641904Y-125240057D01*
X137641904Y-125240057D02*
X137594285Y-125192438D01*
X137594285Y-125192438D02*
X137499047Y-125144819D01*
X137499047Y-125144819D02*
X137308571Y-125144819D01*
X137308571Y-125144819D02*
X137213333Y-125192438D01*
X137213333Y-125192438D02*
X137165714Y-125240057D01*
X137165714Y-125240057D02*
X137118095Y-125335295D01*
X137118095Y-125335295D02*
X137118095Y-125573390D01*
X137118095Y-125573390D02*
X137165714Y-125668628D01*
X137165714Y-125668628D02*
X137213333Y-125716247D01*
X137213333Y-125716247D02*
X137308571Y-125763866D01*
X137308571Y-125763866D02*
X137499047Y-125763866D01*
X137499047Y-125763866D02*
X137594285Y-125716247D01*
X137594285Y-125716247D02*
X137641904Y-125668628D01*
X137641904Y-125668628D02*
X137689523Y-125573390D01*
X161360476Y-128444819D02*
X161360476Y-129159104D01*
X161360476Y-129159104D02*
X161312857Y-129301961D01*
X161312857Y-129301961D02*
X161217619Y-129397200D01*
X161217619Y-129397200D02*
X161074762Y-129444819D01*
X161074762Y-129444819D02*
X160979524Y-129444819D01*
X162360476Y-129444819D02*
X161789048Y-129444819D01*
X162074762Y-129444819D02*
X162074762Y-128444819D01*
X162074762Y-128444819D02*
X161979524Y-128587676D01*
X161979524Y-128587676D02*
X161884286Y-128682914D01*
X161884286Y-128682914D02*
X161789048Y-128730533D01*
X163217619Y-128444819D02*
X163027143Y-128444819D01*
X163027143Y-128444819D02*
X162931905Y-128492438D01*
X162931905Y-128492438D02*
X162884286Y-128540057D01*
X162884286Y-128540057D02*
X162789048Y-128682914D01*
X162789048Y-128682914D02*
X162741429Y-128873390D01*
X162741429Y-128873390D02*
X162741429Y-129254342D01*
X162741429Y-129254342D02*
X162789048Y-129349580D01*
X162789048Y-129349580D02*
X162836667Y-129397200D01*
X162836667Y-129397200D02*
X162931905Y-129444819D01*
X162931905Y-129444819D02*
X163122381Y-129444819D01*
X163122381Y-129444819D02*
X163217619Y-129397200D01*
X163217619Y-129397200D02*
X163265238Y-129349580D01*
X163265238Y-129349580D02*
X163312857Y-129254342D01*
X163312857Y-129254342D02*
X163312857Y-129016247D01*
X163312857Y-129016247D02*
X163265238Y-128921009D01*
X163265238Y-128921009D02*
X163217619Y-128873390D01*
X163217619Y-128873390D02*
X163122381Y-128825771D01*
X163122381Y-128825771D02*
X162931905Y-128825771D01*
X162931905Y-128825771D02*
X162836667Y-128873390D01*
X162836667Y-128873390D02*
X162789048Y-128921009D01*
X162789048Y-128921009D02*
X162741429Y-129016247D01*
X109207142Y-154584819D02*
X108873809Y-154108628D01*
X108635714Y-154584819D02*
X108635714Y-153584819D01*
X108635714Y-153584819D02*
X109016666Y-153584819D01*
X109016666Y-153584819D02*
X109111904Y-153632438D01*
X109111904Y-153632438D02*
X109159523Y-153680057D01*
X109159523Y-153680057D02*
X109207142Y-153775295D01*
X109207142Y-153775295D02*
X109207142Y-153918152D01*
X109207142Y-153918152D02*
X109159523Y-154013390D01*
X109159523Y-154013390D02*
X109111904Y-154061009D01*
X109111904Y-154061009D02*
X109016666Y-154108628D01*
X109016666Y-154108628D02*
X108635714Y-154108628D01*
X110111904Y-153584819D02*
X109635714Y-153584819D01*
X109635714Y-153584819D02*
X109588095Y-154061009D01*
X109588095Y-154061009D02*
X109635714Y-154013390D01*
X109635714Y-154013390D02*
X109730952Y-153965771D01*
X109730952Y-153965771D02*
X109969047Y-153965771D01*
X109969047Y-153965771D02*
X110064285Y-154013390D01*
X110064285Y-154013390D02*
X110111904Y-154061009D01*
X110111904Y-154061009D02*
X110159523Y-154156247D01*
X110159523Y-154156247D02*
X110159523Y-154394342D01*
X110159523Y-154394342D02*
X110111904Y-154489580D01*
X110111904Y-154489580D02*
X110064285Y-154537200D01*
X110064285Y-154537200D02*
X109969047Y-154584819D01*
X109969047Y-154584819D02*
X109730952Y-154584819D01*
X109730952Y-154584819D02*
X109635714Y-154537200D01*
X109635714Y-154537200D02*
X109588095Y-154489580D01*
X111016666Y-153584819D02*
X110826190Y-153584819D01*
X110826190Y-153584819D02*
X110730952Y-153632438D01*
X110730952Y-153632438D02*
X110683333Y-153680057D01*
X110683333Y-153680057D02*
X110588095Y-153822914D01*
X110588095Y-153822914D02*
X110540476Y-154013390D01*
X110540476Y-154013390D02*
X110540476Y-154394342D01*
X110540476Y-154394342D02*
X110588095Y-154489580D01*
X110588095Y-154489580D02*
X110635714Y-154537200D01*
X110635714Y-154537200D02*
X110730952Y-154584819D01*
X110730952Y-154584819D02*
X110921428Y-154584819D01*
X110921428Y-154584819D02*
X111016666Y-154537200D01*
X111016666Y-154537200D02*
X111064285Y-154489580D01*
X111064285Y-154489580D02*
X111111904Y-154394342D01*
X111111904Y-154394342D02*
X111111904Y-154156247D01*
X111111904Y-154156247D02*
X111064285Y-154061009D01*
X111064285Y-154061009D02*
X111016666Y-154013390D01*
X111016666Y-154013390D02*
X110921428Y-153965771D01*
X110921428Y-153965771D02*
X110730952Y-153965771D01*
X110730952Y-153965771D02*
X110635714Y-154013390D01*
X110635714Y-154013390D02*
X110588095Y-154061009D01*
X110588095Y-154061009D02*
X110540476Y-154156247D01*
X122956667Y-83347200D02*
X123099524Y-83394819D01*
X123099524Y-83394819D02*
X123337619Y-83394819D01*
X123337619Y-83394819D02*
X123432857Y-83347200D01*
X123432857Y-83347200D02*
X123480476Y-83299580D01*
X123480476Y-83299580D02*
X123528095Y-83204342D01*
X123528095Y-83204342D02*
X123528095Y-83109104D01*
X123528095Y-83109104D02*
X123480476Y-83013866D01*
X123480476Y-83013866D02*
X123432857Y-82966247D01*
X123432857Y-82966247D02*
X123337619Y-82918628D01*
X123337619Y-82918628D02*
X123147143Y-82871009D01*
X123147143Y-82871009D02*
X123051905Y-82823390D01*
X123051905Y-82823390D02*
X123004286Y-82775771D01*
X123004286Y-82775771D02*
X122956667Y-82680533D01*
X122956667Y-82680533D02*
X122956667Y-82585295D01*
X122956667Y-82585295D02*
X123004286Y-82490057D01*
X123004286Y-82490057D02*
X123051905Y-82442438D01*
X123051905Y-82442438D02*
X123147143Y-82394819D01*
X123147143Y-82394819D02*
X123385238Y-82394819D01*
X123385238Y-82394819D02*
X123528095Y-82442438D01*
X123861429Y-82394819D02*
X124099524Y-83394819D01*
X124099524Y-83394819D02*
X124290000Y-82680533D01*
X124290000Y-82680533D02*
X124480476Y-83394819D01*
X124480476Y-83394819D02*
X124718572Y-82394819D01*
X125623333Y-83394819D02*
X125051905Y-83394819D01*
X125337619Y-83394819D02*
X125337619Y-82394819D01*
X125337619Y-82394819D02*
X125242381Y-82537676D01*
X125242381Y-82537676D02*
X125147143Y-82632914D01*
X125147143Y-82632914D02*
X125051905Y-82680533D01*
X106804819Y-129156785D02*
X105804819Y-129156785D01*
X105804819Y-129156785D02*
X105804819Y-128918690D01*
X105804819Y-128918690D02*
X105852438Y-128775833D01*
X105852438Y-128775833D02*
X105947676Y-128680595D01*
X105947676Y-128680595D02*
X106042914Y-128632976D01*
X106042914Y-128632976D02*
X106233390Y-128585357D01*
X106233390Y-128585357D02*
X106376247Y-128585357D01*
X106376247Y-128585357D02*
X106566723Y-128632976D01*
X106566723Y-128632976D02*
X106661961Y-128680595D01*
X106661961Y-128680595D02*
X106757200Y-128775833D01*
X106757200Y-128775833D02*
X106804819Y-128918690D01*
X106804819Y-128918690D02*
X106804819Y-129156785D01*
X106804819Y-127632976D02*
X106804819Y-128204404D01*
X106804819Y-127918690D02*
X105804819Y-127918690D01*
X105804819Y-127918690D02*
X105947676Y-128013928D01*
X105947676Y-128013928D02*
X106042914Y-128109166D01*
X106042914Y-128109166D02*
X106090533Y-128204404D01*
X105804819Y-126775833D02*
X105804819Y-126966309D01*
X105804819Y-126966309D02*
X105852438Y-127061547D01*
X105852438Y-127061547D02*
X105900057Y-127109166D01*
X105900057Y-127109166D02*
X106042914Y-127204404D01*
X106042914Y-127204404D02*
X106233390Y-127252023D01*
X106233390Y-127252023D02*
X106614342Y-127252023D01*
X106614342Y-127252023D02*
X106709580Y-127204404D01*
X106709580Y-127204404D02*
X106757200Y-127156785D01*
X106757200Y-127156785D02*
X106804819Y-127061547D01*
X106804819Y-127061547D02*
X106804819Y-126871071D01*
X106804819Y-126871071D02*
X106757200Y-126775833D01*
X106757200Y-126775833D02*
X106709580Y-126728214D01*
X106709580Y-126728214D02*
X106614342Y-126680595D01*
X106614342Y-126680595D02*
X106376247Y-126680595D01*
X106376247Y-126680595D02*
X106281009Y-126728214D01*
X106281009Y-126728214D02*
X106233390Y-126775833D01*
X106233390Y-126775833D02*
X106185771Y-126871071D01*
X106185771Y-126871071D02*
X106185771Y-127061547D01*
X106185771Y-127061547D02*
X106233390Y-127156785D01*
X106233390Y-127156785D02*
X106281009Y-127204404D01*
X106281009Y-127204404D02*
X106376247Y-127252023D01*
X159168095Y-101724819D02*
X159168095Y-102534342D01*
X159168095Y-102534342D02*
X159215714Y-102629580D01*
X159215714Y-102629580D02*
X159263333Y-102677200D01*
X159263333Y-102677200D02*
X159358571Y-102724819D01*
X159358571Y-102724819D02*
X159549047Y-102724819D01*
X159549047Y-102724819D02*
X159644285Y-102677200D01*
X159644285Y-102677200D02*
X159691904Y-102629580D01*
X159691904Y-102629580D02*
X159739523Y-102534342D01*
X159739523Y-102534342D02*
X159739523Y-101724819D01*
X160263333Y-102724819D02*
X160453809Y-102724819D01*
X160453809Y-102724819D02*
X160549047Y-102677200D01*
X160549047Y-102677200D02*
X160596666Y-102629580D01*
X160596666Y-102629580D02*
X160691904Y-102486723D01*
X160691904Y-102486723D02*
X160739523Y-102296247D01*
X160739523Y-102296247D02*
X160739523Y-101915295D01*
X160739523Y-101915295D02*
X160691904Y-101820057D01*
X160691904Y-101820057D02*
X160644285Y-101772438D01*
X160644285Y-101772438D02*
X160549047Y-101724819D01*
X160549047Y-101724819D02*
X160358571Y-101724819D01*
X160358571Y-101724819D02*
X160263333Y-101772438D01*
X160263333Y-101772438D02*
X160215714Y-101820057D01*
X160215714Y-101820057D02*
X160168095Y-101915295D01*
X160168095Y-101915295D02*
X160168095Y-102153390D01*
X160168095Y-102153390D02*
X160215714Y-102248628D01*
X160215714Y-102248628D02*
X160263333Y-102296247D01*
X160263333Y-102296247D02*
X160358571Y-102343866D01*
X160358571Y-102343866D02*
X160549047Y-102343866D01*
X160549047Y-102343866D02*
X160644285Y-102296247D01*
X160644285Y-102296247D02*
X160691904Y-102248628D01*
X160691904Y-102248628D02*
X160739523Y-102153390D01*
X110964761Y-116160057D02*
X110869523Y-116112438D01*
X110869523Y-116112438D02*
X110774285Y-116017200D01*
X110774285Y-116017200D02*
X110631428Y-115874342D01*
X110631428Y-115874342D02*
X110536190Y-115826723D01*
X110536190Y-115826723D02*
X110440952Y-115826723D01*
X110488571Y-116064819D02*
X110393333Y-116017200D01*
X110393333Y-116017200D02*
X110298095Y-115921961D01*
X110298095Y-115921961D02*
X110250476Y-115731485D01*
X110250476Y-115731485D02*
X110250476Y-115398152D01*
X110250476Y-115398152D02*
X110298095Y-115207676D01*
X110298095Y-115207676D02*
X110393333Y-115112438D01*
X110393333Y-115112438D02*
X110488571Y-115064819D01*
X110488571Y-115064819D02*
X110679047Y-115064819D01*
X110679047Y-115064819D02*
X110774285Y-115112438D01*
X110774285Y-115112438D02*
X110869523Y-115207676D01*
X110869523Y-115207676D02*
X110917142Y-115398152D01*
X110917142Y-115398152D02*
X110917142Y-115731485D01*
X110917142Y-115731485D02*
X110869523Y-115921961D01*
X110869523Y-115921961D02*
X110774285Y-116017200D01*
X110774285Y-116017200D02*
X110679047Y-116064819D01*
X110679047Y-116064819D02*
X110488571Y-116064819D01*
X111774285Y-115398152D02*
X111774285Y-116064819D01*
X111536190Y-115017200D02*
X111298095Y-115731485D01*
X111298095Y-115731485D02*
X111917142Y-115731485D01*
X109368095Y-121914819D02*
X109368095Y-122724342D01*
X109368095Y-122724342D02*
X109415714Y-122819580D01*
X109415714Y-122819580D02*
X109463333Y-122867200D01*
X109463333Y-122867200D02*
X109558571Y-122914819D01*
X109558571Y-122914819D02*
X109749047Y-122914819D01*
X109749047Y-122914819D02*
X109844285Y-122867200D01*
X109844285Y-122867200D02*
X109891904Y-122819580D01*
X109891904Y-122819580D02*
X109939523Y-122724342D01*
X109939523Y-122724342D02*
X109939523Y-121914819D01*
X110844285Y-122248152D02*
X110844285Y-122914819D01*
X110606190Y-121867200D02*
X110368095Y-122581485D01*
X110368095Y-122581485D02*
X110987142Y-122581485D01*
D11*
%TO.C,U1*%
X135640000Y-88115000D02*
X133690000Y-88115000D01*
X135640000Y-88115000D02*
X137590000Y-88115000D01*
X135640000Y-98235000D02*
X133690000Y-98235000D01*
X135640000Y-98235000D02*
X137590000Y-98235000D01*
X138605000Y-98510000D02*
X138125000Y-98510000D01*
X138365000Y-98180000D01*
X138605000Y-98510000D01*
G36*
X138605000Y-98510000D02*
G01*
X138125000Y-98510000D01*
X138365000Y-98180000D01*
X138605000Y-98510000D01*
G37*
%TO.C,J1*%
X112410000Y-148620000D02*
X112410000Y-149870000D01*
X112710000Y-148920000D02*
X112710000Y-153640000D01*
X112710000Y-150230000D02*
X113320000Y-150230000D01*
X112710000Y-151530000D02*
X113320000Y-151530000D01*
X112710000Y-153640000D02*
X130830000Y-153640000D01*
X113320000Y-149530000D02*
X113320000Y-153030000D01*
X113320000Y-153030000D02*
X130220000Y-153030000D01*
X113660000Y-148620000D02*
X112410000Y-148620000D01*
X114170000Y-148720000D02*
X114170000Y-148920000D01*
X114470000Y-148720000D02*
X114170000Y-148720000D01*
X114470000Y-148820000D02*
X114170000Y-148820000D01*
X114470000Y-148920000D02*
X114470000Y-148720000D01*
X115270000Y-148920000D02*
X115270000Y-149530000D01*
X115270000Y-149530000D02*
X113320000Y-149530000D01*
X115670000Y-152530000D02*
X115870000Y-152530000D01*
X115670000Y-153030000D02*
X115670000Y-152530000D01*
X115770000Y-153030000D02*
X115770000Y-152530000D01*
X115870000Y-152530000D02*
X115870000Y-153030000D01*
X117670000Y-152530000D02*
X117870000Y-152530000D01*
X117670000Y-153030000D02*
X117670000Y-152530000D01*
X117770000Y-153030000D02*
X117770000Y-152530000D01*
X117870000Y-152530000D02*
X117870000Y-153030000D01*
X119670000Y-152530000D02*
X119870000Y-152530000D01*
X119670000Y-153030000D02*
X119670000Y-152530000D01*
X119770000Y-153030000D02*
X119770000Y-152530000D01*
X119870000Y-152530000D02*
X119870000Y-153030000D01*
X121670000Y-152530000D02*
X121870000Y-152530000D01*
X121670000Y-153030000D02*
X121670000Y-152530000D01*
X121770000Y-153030000D02*
X121770000Y-152530000D01*
X121870000Y-152530000D02*
X121870000Y-153030000D01*
X123670000Y-152530000D02*
X123870000Y-152530000D01*
X123670000Y-153030000D02*
X123670000Y-152530000D01*
X123770000Y-153030000D02*
X123770000Y-152530000D01*
X123870000Y-152530000D02*
X123870000Y-153030000D01*
X125670000Y-152530000D02*
X125870000Y-152530000D01*
X125670000Y-153030000D02*
X125670000Y-152530000D01*
X125770000Y-153030000D02*
X125770000Y-152530000D01*
X125870000Y-152530000D02*
X125870000Y-153030000D01*
X127670000Y-152530000D02*
X127870000Y-152530000D01*
X127670000Y-153030000D02*
X127670000Y-152530000D01*
X127770000Y-153030000D02*
X127770000Y-152530000D01*
X127870000Y-152530000D02*
X127870000Y-153030000D01*
X128270000Y-149530000D02*
X128270000Y-148920000D01*
X130220000Y-149530000D02*
X128270000Y-149530000D01*
X130220000Y-153030000D02*
X130220000Y-149530000D01*
X130830000Y-148920000D02*
X112710000Y-148920000D01*
X130830000Y-150230000D02*
X130220000Y-150230000D01*
X130830000Y-151530000D02*
X130220000Y-151530000D01*
X130830000Y-153640000D02*
X130830000Y-148920000D01*
%TO.C,D14*%
X118995000Y-119515000D02*
X118995000Y-120985000D01*
X118995000Y-120985000D02*
X121280000Y-120985000D01*
X121280000Y-119515000D02*
X118995000Y-119515000D01*
%TO.C,J8*%
X91590000Y-154470000D02*
X91590000Y-140160000D01*
X100740000Y-136050000D02*
X97000000Y-136050000D01*
X107310000Y-154470000D02*
X91590000Y-154470000D01*
X107310000Y-154470000D02*
X107310000Y-140160000D01*
X91590000Y-140160000D02*
G75*
G02*
X94498352Y-136229587I4110000J0D01*
G01*
X105316806Y-136637042D02*
G75*
G02*
X107310000Y-140160000I-2116805J-3522957D01*
G01*
%TO.C,U10*%
X160140000Y-107105000D02*
X157940000Y-107105000D01*
X160140000Y-107105000D02*
X162340000Y-107105000D01*
X160140000Y-110325000D02*
X157940000Y-110325000D01*
X160140000Y-110325000D02*
X162340000Y-110325000D01*
X163280000Y-110480000D02*
X162800000Y-110480000D01*
X163040000Y-110150000D01*
X163280000Y-110480000D01*
G36*
X163280000Y-110480000D02*
G01*
X162800000Y-110480000D01*
X163040000Y-110150000D01*
X163280000Y-110480000D01*
G37*
D10*
%TO.C,U6*%
X150975000Y-140725000D02*
X150975000Y-136575000D01*
X156125000Y-140725000D02*
X156125000Y-136575000D01*
D11*
X151050000Y-141150000D02*
X150720000Y-141390000D01*
X150720000Y-140910000D01*
X151050000Y-141150000D01*
G36*
X151050000Y-141150000D02*
G01*
X150720000Y-141390000D01*
X150720000Y-140910000D01*
X151050000Y-141150000D01*
G37*
%TO.C,J4*%
X157190000Y-149200000D02*
X157190000Y-151120000D01*
X157190000Y-154835000D02*
X157190000Y-153130000D01*
X166350000Y-151120000D02*
X166350000Y-149200000D01*
X166350000Y-153130000D02*
X166350000Y-154835000D01*
X166350000Y-154835000D02*
X157190000Y-154835000D01*
%TO.C,R65*%
X150850000Y-111197064D02*
X150850000Y-106842936D01*
X154270000Y-111197064D02*
X154270000Y-106842936D01*
%TO.C,L2*%
X89390000Y-131850000D02*
X89390000Y-128850000D01*
X89770000Y-118730000D02*
X94290000Y-118730000D01*
X89770000Y-131470000D02*
X89770000Y-118730000D01*
X89770000Y-131470000D02*
X94290000Y-131470000D01*
X92390000Y-131850000D02*
X89390000Y-131850000D01*
X97990000Y-118730000D02*
X102510000Y-118730000D01*
X97990000Y-131470000D02*
X102510000Y-131470000D01*
X102510000Y-131470000D02*
X102510000Y-118730000D01*
%TO.C,U8*%
X95980000Y-89670000D02*
X93780000Y-89670000D01*
X95980000Y-89670000D02*
X98180000Y-89670000D01*
X95980000Y-92890000D02*
X93780000Y-92890000D01*
X95980000Y-92890000D02*
X98180000Y-92890000D01*
X93080000Y-89845000D02*
X92840000Y-89515000D01*
X93320000Y-89515000D01*
X93080000Y-89845000D01*
G36*
X93080000Y-89845000D02*
G01*
X92840000Y-89515000D01*
X93320000Y-89515000D01*
X93080000Y-89845000D01*
G37*
%TO.C,J6*%
X89340000Y-96290000D02*
X91540000Y-96290000D01*
X89340000Y-108010000D02*
X89340000Y-96290000D01*
X89340000Y-108010000D02*
X91540000Y-108010000D01*
X91540000Y-96290000D02*
X91540000Y-95450000D01*
X91540000Y-108850000D02*
X91540000Y-108010000D01*
X93760000Y-96290000D02*
X93760000Y-95450000D01*
X93760000Y-96290000D02*
X98560000Y-96290000D01*
X93760000Y-108010000D02*
X98560000Y-108010000D01*
X93760000Y-108850000D02*
X93760000Y-108010000D01*
X98560000Y-108010000D02*
X98560000Y-96290000D01*
X91540000Y-95450000D02*
G75*
G02*
X93760000Y-95450000I1110000J0D01*
G01*
X93760000Y-108850000D02*
G75*
G02*
X91540000Y-108850000I-1110000J0D01*
G01*
%TO.C,J7*%
X89340000Y-74315000D02*
X90190000Y-74315000D01*
X89340000Y-88485000D02*
X89340000Y-74315000D01*
X90190000Y-88485000D02*
X89340000Y-88485000D01*
X93710000Y-74315000D02*
X94560000Y-74315000D01*
X93710000Y-88485000D02*
X94560000Y-88485000D01*
X94560000Y-74315000D02*
X94560000Y-76640000D01*
X94560000Y-86160000D02*
X96950000Y-86160000D01*
X94560000Y-88485000D02*
X94560000Y-86160000D01*
%TO.C,D9*%
X146005000Y-98700000D02*
X146005000Y-100985000D01*
X146005000Y-100985000D02*
X147475000Y-100985000D01*
X147475000Y-100985000D02*
X147475000Y-98700000D01*
%TO.C,J12*%
X112780000Y-72030000D02*
X112780000Y-73280000D01*
X113080000Y-72330000D02*
X113080000Y-77050000D01*
X113080000Y-73640000D02*
X113690000Y-73640000D01*
X113080000Y-74940000D02*
X113690000Y-74940000D01*
X113080000Y-77050000D02*
X123200000Y-77050000D01*
X113690000Y-72940000D02*
X113690000Y-76440000D01*
X113690000Y-76440000D02*
X122590000Y-76440000D01*
X114030000Y-72030000D02*
X112780000Y-72030000D01*
X114540000Y-72130000D02*
X114540000Y-72330000D01*
X114840000Y-72130000D02*
X114540000Y-72130000D01*
X114840000Y-72230000D02*
X114540000Y-72230000D01*
X114840000Y-72330000D02*
X114840000Y-72130000D01*
X115640000Y-72330000D02*
X115640000Y-72940000D01*
X115640000Y-72940000D02*
X113690000Y-72940000D01*
X116040000Y-75940000D02*
X116240000Y-75940000D01*
X116040000Y-76440000D02*
X116040000Y-75940000D01*
X116140000Y-76440000D02*
X116140000Y-75940000D01*
X116240000Y-75940000D02*
X116240000Y-76440000D01*
X118040000Y-75940000D02*
X118240000Y-75940000D01*
X118040000Y-76440000D02*
X118040000Y-75940000D01*
X118140000Y-76440000D02*
X118140000Y-75940000D01*
X118240000Y-75940000D02*
X118240000Y-76440000D01*
X120040000Y-75940000D02*
X120240000Y-75940000D01*
X120040000Y-76440000D02*
X120040000Y-75940000D01*
X120140000Y-76440000D02*
X120140000Y-75940000D01*
X120240000Y-75940000D02*
X120240000Y-76440000D01*
X120640000Y-72940000D02*
X120640000Y-72330000D01*
X122590000Y-72940000D02*
X120640000Y-72940000D01*
X122590000Y-76440000D02*
X122590000Y-72940000D01*
X123200000Y-72330000D02*
X113080000Y-72330000D01*
X123200000Y-73640000D02*
X122590000Y-73640000D01*
X123200000Y-74940000D02*
X122590000Y-74940000D01*
X123200000Y-77050000D02*
X123200000Y-72330000D01*
%TO.C,U7*%
X96220000Y-111710000D02*
X94020000Y-111710000D01*
X96220000Y-111710000D02*
X98420000Y-111710000D01*
X96220000Y-114930000D02*
X94020000Y-114930000D01*
X96220000Y-114930000D02*
X98420000Y-114930000D01*
X93320000Y-111885000D02*
X93080000Y-111555000D01*
X93560000Y-111555000D01*
X93320000Y-111885000D01*
G36*
X93320000Y-111885000D02*
G01*
X93080000Y-111555000D01*
X93560000Y-111555000D01*
X93320000Y-111885000D01*
G37*
%TO.C,J2*%
X168280000Y-140520000D02*
X168280000Y-150740000D01*
X168280000Y-140520000D02*
X170940000Y-140520000D01*
X168280000Y-150740000D02*
X170940000Y-150740000D01*
X169610000Y-137920000D02*
X170940000Y-137920000D01*
X170940000Y-137920000D02*
X170940000Y-139250000D01*
X170940000Y-140520000D02*
X170940000Y-150740000D01*
%TO.C,D6*%
X151985000Y-98055000D02*
X151985000Y-100340000D01*
X153455000Y-98055000D02*
X151985000Y-98055000D01*
X153455000Y-100340000D02*
X153455000Y-98055000D01*
%TO.C,R45*%
X109077064Y-89000000D02*
X104722936Y-89000000D01*
X109077064Y-92420000D02*
X104722936Y-92420000D01*
%TO.C,L3*%
X135090000Y-153110000D02*
X135090000Y-150110000D01*
X135470000Y-139990000D02*
X139990000Y-139990000D01*
X135470000Y-152730000D02*
X135470000Y-139990000D01*
X135470000Y-152730000D02*
X139990000Y-152730000D01*
X138090000Y-153110000D02*
X135090000Y-153110000D01*
X143690000Y-139990000D02*
X148210000Y-139990000D01*
X143690000Y-152730000D02*
X148210000Y-152730000D01*
X148210000Y-152730000D02*
X148210000Y-139990000D01*
%TO.C,SW2*%
X163700000Y-138470000D02*
X163700000Y-142870000D01*
X163700000Y-142870000D02*
X163820000Y-142870000D01*
X163820000Y-138470000D02*
X163700000Y-138470000D01*
X164830000Y-142870000D02*
X165970000Y-142870000D01*
X165970000Y-138470000D02*
X164830000Y-138470000D01*
X166980000Y-142870000D02*
X167100000Y-142870000D01*
X167100000Y-138470000D02*
X166980000Y-138470000D01*
X167100000Y-142870000D02*
X167100000Y-138470000D01*
%TO.C,R44*%
X105332936Y-111030000D02*
X109687064Y-111030000D01*
X105332936Y-114450000D02*
X109687064Y-114450000D01*
%TO.C,U11*%
X156910000Y-131900000D02*
X156910000Y-129700000D01*
X156910000Y-131900000D02*
X156910000Y-134100000D01*
X160130000Y-131900000D02*
X160130000Y-129700000D01*
X160130000Y-131900000D02*
X160130000Y-134100000D01*
X160285000Y-129240000D02*
X159955000Y-129000000D01*
X160285000Y-128760000D01*
X160285000Y-129240000D01*
G36*
X160285000Y-129240000D02*
G01*
X159955000Y-129000000D01*
X160285000Y-128760000D01*
X160285000Y-129240000D01*
G37*
%TO.C,R66*%
X151560000Y-131527064D02*
X151560000Y-127172936D01*
X154980000Y-131527064D02*
X154980000Y-127172936D01*
D10*
%TO.C,U5*%
X104875000Y-116255000D02*
X109025000Y-116255000D01*
X104875000Y-121405000D02*
X109025000Y-121405000D01*
D11*
X104450000Y-116330000D02*
X104210000Y-116000000D01*
X104690000Y-116000000D01*
X104450000Y-116330000D01*
G36*
X104450000Y-116330000D02*
G01*
X104210000Y-116000000D01*
X104690000Y-116000000D01*
X104450000Y-116330000D01*
G37*
%TO.C,D7*%
X148895000Y-98055000D02*
X148895000Y-100340000D01*
X150365000Y-98055000D02*
X148895000Y-98055000D01*
X150365000Y-100340000D02*
X150365000Y-98055000D01*
%TO.C,J9*%
X161740000Y-113710000D02*
X161740000Y-125430000D01*
X166540000Y-112870000D02*
X166540000Y-113710000D01*
X166540000Y-113710000D02*
X161740000Y-113710000D01*
X166540000Y-125430000D02*
X161740000Y-125430000D01*
X166540000Y-125430000D02*
X166540000Y-126270000D01*
X168760000Y-112870000D02*
X168760000Y-113710000D01*
X168760000Y-125430000D02*
X168760000Y-126270000D01*
X170960000Y-113710000D02*
X168760000Y-113710000D01*
X170960000Y-113710000D02*
X170960000Y-125430000D01*
X170960000Y-125430000D02*
X168760000Y-125430000D01*
X166540000Y-112870000D02*
G75*
G02*
X168760000Y-112870000I1110000J0D01*
G01*
X168760000Y-126270000D02*
G75*
G02*
X166540000Y-126270000I-1110000J0D01*
G01*
%TO.C,L1*%
X119037500Y-134770000D02*
X119037500Y-131770000D01*
X119417500Y-121650000D02*
X123937500Y-121650000D01*
X119417500Y-134390000D02*
X119417500Y-121650000D01*
X119417500Y-134390000D02*
X123937500Y-134390000D01*
X122037500Y-134770000D02*
X119037500Y-134770000D01*
X127637500Y-121650000D02*
X132157500Y-121650000D01*
X127637500Y-134390000D02*
X132157500Y-134390000D01*
X132157500Y-134390000D02*
X132157500Y-121650000D01*
%TO.C,D13*%
X161065000Y-139535000D02*
X161065000Y-141820000D01*
X162535000Y-139535000D02*
X161065000Y-139535000D01*
X162535000Y-141820000D02*
X162535000Y-139535000D01*
%TO.C,Q7*%
X138465000Y-102390000D02*
X138465000Y-103080000D01*
X138465000Y-112790000D02*
X138465000Y-112100000D01*
X139830000Y-102390000D02*
X138465000Y-102390000D01*
X139830000Y-112790000D02*
X138465000Y-112790000D01*
X135640000Y-103120000D02*
X135300000Y-102650000D01*
X135980000Y-102650000D01*
X135640000Y-103120000D01*
G36*
X135640000Y-103120000D02*
G01*
X135300000Y-102650000D01*
X135980000Y-102650000D01*
X135640000Y-103120000D01*
G37*
%TO.C,U2*%
X115290000Y-79390000D02*
X118290000Y-79390000D01*
X115290000Y-82610000D02*
X118290000Y-82610000D01*
X114770000Y-79730000D02*
X114290000Y-79730000D01*
X114770000Y-79250000D01*
X114770000Y-79730000D01*
G36*
X114770000Y-79730000D02*
G01*
X114290000Y-79730000D01*
X114770000Y-79250000D01*
X114770000Y-79730000D01*
G37*
%TO.C,Q5*%
X121960000Y-95720000D02*
X123325000Y-95720000D01*
X121960000Y-106120000D02*
X123325000Y-106120000D01*
X123325000Y-95720000D02*
X123325000Y-96410000D01*
X123325000Y-106120000D02*
X123325000Y-105430000D01*
X126490000Y-105860000D02*
X125810000Y-105860000D01*
X126150000Y-105390000D01*
X126490000Y-105860000D01*
G36*
X126490000Y-105860000D02*
G01*
X125810000Y-105860000D01*
X126150000Y-105390000D01*
X126490000Y-105860000D01*
G37*
%TO.C,Q6*%
X122015000Y-83665000D02*
X123380000Y-83665000D01*
X122015000Y-94065000D02*
X123380000Y-94065000D01*
X123380000Y-83665000D02*
X123380000Y-84355000D01*
X123380000Y-94065000D02*
X123380000Y-93375000D01*
X126545000Y-93805000D02*
X125865000Y-93805000D01*
X126205000Y-93335000D01*
X126545000Y-93805000D01*
G36*
X126545000Y-93805000D02*
G01*
X125865000Y-93805000D01*
X126205000Y-93335000D01*
X126545000Y-93805000D01*
G37*
%TO.C,C48*%
X120010000Y-139290000D02*
X121260000Y-139290000D01*
X120635000Y-138665000D02*
X120635000Y-139915000D01*
X121500000Y-137754437D02*
X121500000Y-140540000D01*
X121500000Y-137754437D02*
X122564437Y-136690000D01*
X121500000Y-146345563D02*
X121500000Y-143560000D01*
X121500000Y-146345563D02*
X122564437Y-147410000D01*
X122564437Y-136690000D02*
X132220000Y-136690000D01*
X122564437Y-147410000D02*
X132220000Y-147410000D01*
X132220000Y-136690000D02*
X132220000Y-140540000D01*
X132220000Y-147410000D02*
X132220000Y-143560000D01*
%TO.C,SW3*%
X156850000Y-138485000D02*
X156850000Y-142885000D01*
X156850000Y-142885000D02*
X156970000Y-142885000D01*
X156970000Y-138485000D02*
X156850000Y-138485000D01*
X157980000Y-142885000D02*
X159120000Y-142885000D01*
X159120000Y-138485000D02*
X157980000Y-138485000D01*
X160130000Y-142885000D02*
X160250000Y-142885000D01*
X160250000Y-138485000D02*
X160130000Y-138485000D01*
X160250000Y-142885000D02*
X160250000Y-138485000D01*
%TO.C,U3*%
X140055000Y-70800000D02*
X140055000Y-77000000D01*
X140055000Y-70800000D02*
X158455000Y-70800000D01*
X140055000Y-95650000D02*
X140055000Y-96650000D01*
X140055000Y-96650000D02*
X141555000Y-96650000D01*
X158455000Y-70800000D02*
X158455000Y-77000000D01*
X158455000Y-96650000D02*
X156955000Y-96650000D01*
X158455000Y-96650000D02*
X158455000Y-95650000D01*
X140055000Y-77675000D02*
X139555000Y-77675000D01*
X140055000Y-77175000D01*
X140055000Y-77675000D01*
G36*
X140055000Y-77675000D02*
G01*
X139555000Y-77675000D01*
X140055000Y-77175000D01*
X140055000Y-77675000D01*
G37*
%TO.C,R3*%
X112937258Y-78977500D02*
X112462742Y-78977500D01*
X112937258Y-80022500D02*
X112462742Y-80022500D01*
%TO.C,J3*%
X100590000Y-72100000D02*
X100590000Y-73350000D01*
X100890000Y-72400000D02*
X100890000Y-77120000D01*
X100890000Y-73710000D02*
X101500000Y-73710000D01*
X100890000Y-75010000D02*
X101500000Y-75010000D01*
X100890000Y-77120000D02*
X111010000Y-77120000D01*
X101500000Y-73010000D02*
X101500000Y-76510000D01*
X101500000Y-76510000D02*
X110400000Y-76510000D01*
X101840000Y-72100000D02*
X100590000Y-72100000D01*
X102350000Y-72200000D02*
X102350000Y-72400000D01*
X102650000Y-72200000D02*
X102350000Y-72200000D01*
X102650000Y-72300000D02*
X102350000Y-72300000D01*
X102650000Y-72400000D02*
X102650000Y-72200000D01*
X103450000Y-72400000D02*
X103450000Y-73010000D01*
X103450000Y-73010000D02*
X101500000Y-73010000D01*
X103850000Y-76010000D02*
X104050000Y-76010000D01*
X103850000Y-76510000D02*
X103850000Y-76010000D01*
X103950000Y-76510000D02*
X103950000Y-76010000D01*
X104050000Y-76010000D02*
X104050000Y-76510000D01*
X105850000Y-76010000D02*
X106050000Y-76010000D01*
X105850000Y-76510000D02*
X105850000Y-76010000D01*
X105950000Y-76510000D02*
X105950000Y-76010000D01*
X106050000Y-76010000D02*
X106050000Y-76510000D01*
X107850000Y-76010000D02*
X108050000Y-76010000D01*
X107850000Y-76510000D02*
X107850000Y-76010000D01*
X107950000Y-76510000D02*
X107950000Y-76010000D01*
X108050000Y-76010000D02*
X108050000Y-76510000D01*
X108450000Y-73010000D02*
X108450000Y-72400000D01*
X110400000Y-73010000D02*
X108450000Y-73010000D01*
X110400000Y-76510000D02*
X110400000Y-73010000D01*
X111010000Y-72400000D02*
X100890000Y-72400000D01*
X111010000Y-73710000D02*
X110400000Y-73710000D01*
X111010000Y-75010000D02*
X110400000Y-75010000D01*
X111010000Y-77120000D02*
X111010000Y-72400000D01*
%TO.C,Q8*%
X138465000Y-114740000D02*
X138465000Y-115430000D01*
X138465000Y-125140000D02*
X138465000Y-124450000D01*
X139830000Y-114740000D02*
X138465000Y-114740000D01*
X139830000Y-125140000D02*
X138465000Y-125140000D01*
X135640000Y-115470000D02*
X135300000Y-115000000D01*
X135980000Y-115000000D01*
X135640000Y-115470000D01*
G36*
X135640000Y-115470000D02*
G01*
X135300000Y-115000000D01*
X135980000Y-115000000D01*
X135640000Y-115470000D01*
G37*
%TO.C,D11*%
X111500000Y-126432500D02*
X111500000Y-134942500D01*
X111500000Y-126432500D02*
X118000000Y-126432500D01*
X118000000Y-126432500D02*
X118000000Y-134942500D01*
%TO.C,D12*%
X149485000Y-153425000D02*
X149485000Y-144915000D01*
X155985000Y-153425000D02*
X149485000Y-153425000D01*
X155985000Y-153425000D02*
X155985000Y-144915000D01*
%TO.C,J10*%
X165260000Y-78345000D02*
X165260000Y-80670000D01*
X165260000Y-80670000D02*
X162870000Y-80670000D01*
X165260000Y-92515000D02*
X165260000Y-90190000D01*
X166110000Y-78345000D02*
X165260000Y-78345000D01*
X166110000Y-92515000D02*
X165260000Y-92515000D01*
X169630000Y-78345000D02*
X170480000Y-78345000D01*
X170480000Y-78345000D02*
X170480000Y-92515000D01*
X170480000Y-92515000D02*
X169630000Y-92515000D01*
%TO.C,3.3V4*%
X108445000Y-149155000D02*
X108445000Y-150625000D01*
X108445000Y-150625000D02*
X110730000Y-150625000D01*
X110730000Y-149155000D02*
X108445000Y-149155000D01*
%TO.C,J5*%
X160340000Y-94660000D02*
X160340000Y-97320000D01*
X168020000Y-94660000D02*
X160340000Y-94660000D01*
X168020000Y-94660000D02*
X168020000Y-97320000D01*
X168020000Y-97320000D02*
X160340000Y-97320000D01*
X169290000Y-94660000D02*
X170620000Y-94660000D01*
X170620000Y-94660000D02*
X170620000Y-95990000D01*
%TO.C,D10*%
X143155000Y-98700000D02*
X143155000Y-100985000D01*
X143155000Y-100985000D02*
X144625000Y-100985000D01*
X144625000Y-100985000D02*
X144625000Y-98700000D01*
%TO.C,J11*%
X166250000Y-99170000D02*
X166250000Y-109290000D01*
X166250000Y-109290000D02*
X170970000Y-109290000D01*
X166860000Y-99780000D02*
X166860000Y-108680000D01*
X166860000Y-102130000D02*
X167360000Y-102130000D01*
X166860000Y-102230000D02*
X167360000Y-102230000D01*
X166860000Y-104130000D02*
X167360000Y-104130000D01*
X166860000Y-104230000D02*
X167360000Y-104230000D01*
X166860000Y-106130000D02*
X167360000Y-106130000D01*
X166860000Y-106230000D02*
X167360000Y-106230000D01*
X166860000Y-108680000D02*
X170360000Y-108680000D01*
X167360000Y-102130000D02*
X167360000Y-102330000D01*
X167360000Y-102330000D02*
X166860000Y-102330000D01*
X167360000Y-104130000D02*
X167360000Y-104330000D01*
X167360000Y-104330000D02*
X166860000Y-104330000D01*
X167360000Y-106130000D02*
X167360000Y-106330000D01*
X167360000Y-106330000D02*
X166860000Y-106330000D01*
X168360000Y-99170000D02*
X168360000Y-99780000D01*
X168360000Y-109290000D02*
X168360000Y-108680000D01*
X169660000Y-99170000D02*
X169660000Y-99780000D01*
X169660000Y-109290000D02*
X169660000Y-108680000D01*
X170360000Y-99780000D02*
X166860000Y-99780000D01*
X170360000Y-101730000D02*
X170360000Y-99780000D01*
X170360000Y-106730000D02*
X170970000Y-106730000D01*
X170360000Y-108680000D02*
X170360000Y-106730000D01*
X170970000Y-99170000D02*
X166250000Y-99170000D01*
X170970000Y-100930000D02*
X171170000Y-100930000D01*
X170970000Y-101730000D02*
X170360000Y-101730000D01*
X170970000Y-109290000D02*
X170970000Y-99170000D01*
X171070000Y-100930000D02*
X171070000Y-100630000D01*
X171170000Y-100630000D02*
X170970000Y-100630000D01*
X171170000Y-100930000D02*
X171170000Y-100630000D01*
X171270000Y-98870000D02*
X170020000Y-98870000D01*
X171270000Y-100120000D02*
X171270000Y-98870000D01*
%TO.C,D17*%
X89865000Y-116545000D02*
X89865000Y-118015000D01*
X89865000Y-118015000D02*
X92150000Y-118015000D01*
X92150000Y-116545000D02*
X89865000Y-116545000D01*
%TO.C,Q9*%
X138465000Y-127090000D02*
X138465000Y-127780000D01*
X138465000Y-137490000D02*
X138465000Y-136800000D01*
X139830000Y-127090000D02*
X138465000Y-127090000D01*
X139830000Y-137490000D02*
X138465000Y-137490000D01*
X135640000Y-127820000D02*
X135300000Y-127350000D01*
X135980000Y-127350000D01*
X135640000Y-127820000D01*
G36*
X135640000Y-127820000D02*
G01*
X135300000Y-127350000D01*
X135980000Y-127350000D01*
X135640000Y-127820000D01*
G37*
%TO.C,R56*%
X109652742Y-151827500D02*
X110127258Y-151827500D01*
X109652742Y-152872500D02*
X110127258Y-152872500D01*
%TO.C,SW1*%
X121530000Y-79280000D02*
X121530000Y-79990000D01*
X121530000Y-81940000D02*
X121530000Y-81230000D01*
X127050000Y-79280000D02*
X121530000Y-79280000D01*
X127050000Y-79280000D02*
X127050000Y-79990000D01*
X127050000Y-81940000D02*
X121530000Y-81940000D01*
X127050000Y-81940000D02*
X127050000Y-81290000D01*
X127630000Y-81290000D02*
X127050000Y-81290000D01*
%TO.C,D16*%
X103370000Y-132197500D02*
X103370000Y-123687500D01*
X109870000Y-132197500D02*
X103370000Y-132197500D01*
X109870000Y-132197500D02*
X109870000Y-123687500D01*
%TO.C,U9*%
X154785000Y-102270000D02*
X154785000Y-100320000D01*
X154785000Y-102270000D02*
X154785000Y-104220000D01*
X164905000Y-102270000D02*
X164905000Y-100320000D01*
X164905000Y-102270000D02*
X164905000Y-104220000D01*
X165180000Y-99785000D02*
X164850000Y-99545000D01*
X165180000Y-99305000D01*
X165180000Y-99785000D01*
G36*
X165180000Y-99785000D02*
G01*
X164850000Y-99545000D01*
X165180000Y-99305000D01*
X165180000Y-99785000D01*
G37*
%TO.C,Q4*%
X122015000Y-108365000D02*
X123380000Y-108365000D01*
X122015000Y-118765000D02*
X123380000Y-118765000D01*
X123380000Y-108365000D02*
X123380000Y-109055000D01*
X123380000Y-118765000D02*
X123380000Y-118075000D01*
X126545000Y-118505000D02*
X125865000Y-118505000D01*
X126205000Y-118035000D01*
X126545000Y-118505000D01*
G36*
X126545000Y-118505000D02*
G01*
X125865000Y-118505000D01*
X126205000Y-118035000D01*
X126545000Y-118505000D01*
G37*
D10*
%TO.C,U4*%
X112745000Y-119700000D02*
X116895000Y-119700000D01*
X112745000Y-124850000D02*
X116895000Y-124850000D01*
D11*
X112320000Y-119775000D02*
X112080000Y-119445000D01*
X112560000Y-119445000D01*
X112320000Y-119775000D01*
G36*
X112320000Y-119775000D02*
G01*
X112080000Y-119445000D01*
X112560000Y-119445000D01*
X112320000Y-119775000D01*
G37*
%TD*%
M02*
