%TF.GenerationSoftware,KiCad,Pcbnew,9.99.0-617-gea36110980*%
%TF.CreationDate,2025-03-23T14:38:13+08:00*%
%TF.ProjectId,skateboard,736b6174-6562-46f6-9172-642e6b696361,rev?*%
%TF.SameCoordinates,Original*%
%TF.FileFunction,Component,L1,Top*%
%TF.FilePolarity,Positive*%
%FSLAX46Y46*%
G04 Gerber Fmt 4.6, Leading zero omitted, Abs format (unit mm)*
G04 Created by KiCad (PCBNEW 9.99.0-617-gea36110980) date 2025-03-23 14:38:13*
%MOMM*%
%LPD*%
G01*
G04 APERTURE LIST*
%TA.AperFunction,ComponentMain*%
%ADD10C,0.300000*%
%TD*%
%TA.AperFunction,ComponentOutline,Courtyard*%
%ADD11C,0.100000*%
%TD*%
%TA.AperFunction,ComponentPin*%
%ADD12P,0.360000X4X0.000000*%
%TD*%
%TA.AperFunction,ComponentPin*%
%ADD13C,0.100000*%
%TD*%
G04 APERTURE END LIST*
D10*
%TO.C,U1*%
%TO.CFtp,SOP-16_3.9x9.9mm_P1.27mm*%
%TO.CVal,HX711*%
%TO.CLbN,Package_SO*%
%TO.CMnt,SMD*%
%TO.CRot,180*%
X135640000Y-93175000D03*
D11*
X139385000Y-87980000D02*
X139385000Y-98370000D01*
X131895000Y-98370000D01*
X131895000Y-87980000D01*
X139385000Y-87980000D01*
D12*
%TO.P,U1,1,VSUP*%
X138140000Y-97620000D03*
D13*
%TO.P,U1,2,BASE*%
X138140000Y-96350000D03*
%TO.P,U1,3,AVDD*%
X138140000Y-95080000D03*
%TO.P,U1,4,VFB*%
X138140000Y-93810000D03*
%TO.P,U1,5,AGND*%
X138140000Y-92540000D03*
%TO.P,U1,6,VBG*%
X138140000Y-91270000D03*
%TO.P,U1,7,INA-*%
X138140000Y-90000000D03*
%TO.P,U1,8,INA+*%
X138140000Y-88730000D03*
%TO.P,U1,9,INB-*%
X133140000Y-88730000D03*
%TO.P,U1,10,INB+*%
X133140000Y-90000000D03*
%TO.P,U1,11,PD_SCK*%
X133140000Y-91270000D03*
%TO.P,U1,12,DOUT*%
X133140000Y-92540000D03*
%TO.P,U1,13,XO*%
X133140000Y-93810000D03*
%TO.P,U1,14,XI*%
X133140000Y-95080000D03*
%TO.P,U1,15,RATE*%
X133140000Y-96350000D03*
%TO.P,U1,16,DVDD*%
X133140000Y-97620000D03*
%TD*%
D10*
%TO.C,J1*%
%TO.CFtp,JST_PH_B8B-PH-K_1x08_P2.00mm_Vertical*%
%TO.CVal,RC555*%
%TO.CLbN,Connector_JST*%
%TO.CMnt,TH*%
%TO.CRot,0*%
X114770000Y-150730000D03*
D11*
X131215000Y-148535000D02*
X131215000Y-154025000D01*
X112325000Y-154025000D01*
X112325000Y-148535000D01*
X131215000Y-148535000D01*
D12*
%TO.P,J1,1,Pin_1*%
X114770000Y-150730000D03*
D13*
%TO.P,J1,2,Pin_2*%
X116770000Y-150730000D03*
%TO.P,J1,3,Pin_3*%
X118770000Y-150730000D03*
%TO.P,J1,4,Pin_4*%
X120770000Y-150730000D03*
%TO.P,J1,5,Pin_5*%
X122770000Y-150730000D03*
%TO.P,J1,6,Pin_6*%
X124770000Y-150730000D03*
%TO.P,J1,7,Pin_7*%
X126770000Y-150730000D03*
%TO.P,J1,8,Pin_8*%
X128770000Y-150730000D03*
%TD*%
D10*
%TO.C,D14*%
%TO.CFtp,LED_0603_1608Metric*%
%TO.CVal,+5V*%
%TO.CLbN,LED_SMD*%
%TO.CMnt,SMD*%
%TO.CRot,0*%
X120480000Y-120250000D03*
D11*
X121955000Y-119525000D02*
X121955000Y-120975000D01*
X119005000Y-120975000D01*
X119005000Y-119525000D01*
X121955000Y-119525000D01*
D12*
%TO.P,D14,1,K*%
X119692500Y-120250000D03*
D13*
%TO.P,D14,2,A*%
X121267500Y-120250000D03*
%TD*%
D10*
%TO.C,J8*%
%TO.CFtp,AMASS_XT60PW-M_1x02_P7.20mm_Horizontal*%
%TO.CVal,power*%
%TO.CLbN,Connector_AMASS*%
%TO.CMnt,TH*%
%TO.CRot,180*%
X103050000Y-138010000D03*
D11*
X107695000Y-135465000D02*
X107695000Y-154855000D01*
X91205000Y-154855000D01*
X91205000Y-135465000D01*
X107695000Y-135465000D01*
D12*
%TO.P,J8,1,Pin_1*%
X103050000Y-138010000D03*
D13*
%TO.P,J8,*%
X106200000Y-144010000D03*
X92700000Y-144010000D03*
%TO.P,J8,2,Pin_2*%
X95850000Y-138010000D03*
%TD*%
D10*
%TO.C,U10*%
%TO.CFtp,TSSOP-8_4.4x3mm_P0.65mm*%
%TO.CVal,INA240A2PW*%
%TO.CLbN,Package_SO*%
%TO.CMnt,SMD*%
%TO.CRot,180*%
X160140000Y-108715000D03*
D11*
X163985000Y-106970000D02*
X163985000Y-110460000D01*
X156295000Y-110460000D01*
X156295000Y-106970000D01*
X163985000Y-106970000D01*
D12*
%TO.P,U10,1,GND*%
X163002500Y-109690000D03*
D13*
%TO.P,U10,2,+*%
X163002500Y-109040000D03*
%TO.P,U10,3,-*%
X163002500Y-108390000D03*
%TO.P,U10,4,GND*%
X163002500Y-107740000D03*
%TO.P,U10,5,V+*%
X157277500Y-107740000D03*
%TO.P,U10,6,REF2*%
X157277500Y-108390000D03*
%TO.P,U10,7,REF1*%
X157277500Y-109040000D03*
%TO.P,U10,8*%
X157277500Y-109690000D03*
%TD*%
D10*
%TO.C,U6*%
%TO.CFtp,TI_SO-PowerPAD-8_ThermalVias*%
%TO.CVal,LMR16030SDDAR*%
%TO.CLbN,Package_SO*%
%TO.CMnt,SMD*%
%TO.CRot,90*%
X153550000Y-138650000D03*
D11*
X156295000Y-134905000D02*
X156295000Y-142395000D01*
X150805000Y-142395000D01*
X150805000Y-134905000D01*
X156295000Y-134905000D01*
D12*
%TO.P,U6,1,BOOT*%
X151645000Y-141350000D03*
D13*
%TO.P,U6,2,VIN*%
X152915000Y-141350000D03*
%TO.P,U6,3,EN*%
X154185000Y-141350000D03*
%TO.P,U6,4,RT/YNC*%
X155455000Y-141350000D03*
%TO.P,U6,5,FB*%
X155455000Y-135950000D03*
%TO.P,U6,6,SS/PGOOD*%
X154185000Y-135950000D03*
%TO.P,U6,7,GND*%
X152915000Y-135950000D03*
%TO.P,U6,8,SW*%
X151645000Y-135950000D03*
%TO.P,U6,9,EP*%
X151750000Y-139250000D03*
X152950000Y-139250000D03*
X154250000Y-139250000D03*
X155350000Y-139250000D03*
X153550000Y-138650000D03*
X153550000Y-138650000D03*
X151750000Y-138050000D03*
X152950000Y-138050000D03*
X154250000Y-138050000D03*
X155350000Y-138050000D03*
%TD*%
D10*
%TO.C,J4*%
%TO.CFtp,USB_C_Receptacle_G-Switch_GT-USB-7010ASV*%
%TO.CVal,USB_C_Receptacle_USB2.0_16P*%
%TO.CLbN,Connector_USB*%
%TO.CMnt,SMD*%
%TO.CRot,0*%
X161770000Y-151050000D03*
D11*
X167085000Y-146205000D02*
X167085000Y-155225000D01*
X156455000Y-155225000D01*
X156455000Y-146205000D01*
X167085000Y-146205000D01*
D12*
%TO.P,J4,A1,GND*%
X158570000Y-147325000D03*
D13*
%TO.P,J4,*%
X158880000Y-148445000D03*
X164660000Y-148445000D03*
%TO.P,J4,A4,VBUS*%
X159370000Y-147325000D03*
%TO.P,J4,A5,CC1*%
X160520000Y-147325000D03*
%TO.P,J4,A6,D+*%
X161520000Y-147325000D03*
%TO.P,J4,A7,D-*%
X162020000Y-147325000D03*
%TO.P,J4,A8,SBU1*%
X163020000Y-147325000D03*
%TO.P,J4,A9,VBUS*%
X164170000Y-147325000D03*
%TO.P,J4,A12,GND*%
X164970000Y-147325000D03*
%TO.P,J4,B1,GND*%
X164970000Y-147325000D03*
%TO.P,J4,B4,VBUS*%
X164170000Y-147325000D03*
%TO.P,J4,B5,CC2*%
X163520000Y-147325000D03*
%TO.P,J4,B6,D+*%
X162520000Y-147325000D03*
%TO.P,J4,B7,D-*%
X161020000Y-147325000D03*
%TO.P,J4,B8,SBU2*%
X160020000Y-147325000D03*
%TO.P,J4,B9,VBUS*%
X159370000Y-147325000D03*
%TO.P,J4,B12,GND*%
X158570000Y-147325000D03*
%TO.P,J4,S1,SHIELD*%
X157450000Y-147925000D03*
X157450000Y-152125000D03*
X166090000Y-147925000D03*
X166090000Y-152125000D03*
%TD*%
D10*
%TO.C,R65*%
%TO.CFtp,R_2512_6332Metric*%
%TO.CVal,0.001*%
%TO.CLbN,Resistor_SMD*%
%TO.CMnt,SMD*%
%TO.CRot,90*%
X152560000Y-109020000D03*
D11*
X154475000Y-105205000D02*
X154475000Y-112835000D01*
X150645000Y-112835000D01*
X150645000Y-105205000D01*
X154475000Y-105205000D01*
D12*
%TO.P,R65,1*%
X152560000Y-111982500D03*
D13*
%TO.P,R65,2*%
X152560000Y-106057500D03*
%TD*%
D10*
%TO.C,L2*%
%TO.CFtp,L_TDK_SLF12565*%
%TO.CVal,22uH*%
%TO.CLbN,Inductor_SMD*%
%TO.CMnt,SMD*%
%TO.CRot,90*%
X96140000Y-125100000D03*
D11*
X97985000Y-118005000D02*
X97985000Y-118605000D01*
X102635000Y-118605000D01*
X102635000Y-131595000D01*
X97985000Y-131595000D01*
X97985000Y-132195000D01*
X94295000Y-132195000D01*
X94295000Y-131595000D01*
X89645000Y-131595000D01*
X89645000Y-118605000D01*
X94295000Y-118605000D01*
X94295000Y-118005000D01*
X97985000Y-118005000D01*
D12*
%TO.P,L2,1,1*%
X96140000Y-130650000D03*
D13*
%TO.P,L2,2,2*%
X96140000Y-119550000D03*
%TD*%
D10*
%TO.C,U8*%
%TO.CFtp,TSSOP-8_4.4x3mm_P0.65mm*%
%TO.CVal,INA240A2PW*%
%TO.CLbN,Package_SO*%
%TO.CMnt,SMD*%
%TO.CRot,0*%
X95980000Y-91280000D03*
D11*
X99825000Y-89535000D02*
X99825000Y-93025000D01*
X92135000Y-93025000D01*
X92135000Y-89535000D01*
X99825000Y-89535000D01*
D12*
%TO.P,U8,1,GND*%
X93117500Y-90305000D03*
D13*
%TO.P,U8,2,+*%
X93117500Y-90955000D03*
%TO.P,U8,3,-*%
X93117500Y-91605000D03*
%TO.P,U8,4,GND*%
X93117500Y-92255000D03*
%TO.P,U8,5,V+*%
X98842500Y-92255000D03*
%TO.P,U8,6,REF2*%
X98842500Y-91605000D03*
%TO.P,U8,7,REF1*%
X98842500Y-90955000D03*
%TO.P,U8,8*%
X98842500Y-90305000D03*
%TD*%
D10*
%TO.C,J6*%
%TO.CFtp,AMASS_MR30PW-M_1x03_P3.50mm_Horizontal*%
%TO.CVal,TB_MOTOR*%
%TO.CLbN,Connector_AMASS*%
%TO.CMnt,TH*%
%TO.CRot,90*%
X102650000Y-105650000D03*
D11*
X104645000Y-93955000D02*
X104645000Y-110345000D01*
X88955000Y-110345000D01*
X88955000Y-93955000D01*
X104645000Y-93955000D01*
D12*
%TO.P,J6,1,Pin_1*%
X102650000Y-105650000D03*
D13*
%TO.P,J6,*%
X92650000Y-108650000D03*
X92650000Y-95650000D03*
%TO.P,J6,2,Pin_2*%
X102650000Y-102150000D03*
%TO.P,J6,3,Pin_3*%
X102650000Y-98650000D03*
%TD*%
D10*
%TO.C,J7*%
%TO.CFtp,JST_PH_B5B-PH-SM4-TB_1x05-1MP_P2.00mm_Vertical*%
%TO.CVal,PH_2.0*%
%TO.CLbN,Connector_JST*%
%TO.CMnt,SMD*%
%TO.CRot,90*%
X93700000Y-81400000D03*
D11*
X97445000Y-73705000D02*
X97445000Y-89095000D01*
X88955000Y-89095000D01*
X88955000Y-73705000D01*
X97445000Y-73705000D01*
D12*
%TO.P,J7,1,Pin_1*%
X94200000Y-85400000D03*
D13*
%TO.P,J7,2,Pin_2*%
X94200000Y-83400000D03*
%TO.P,J7,3,Pin_3*%
X94200000Y-81400000D03*
%TO.P,J7,4,Pin_4*%
X94200000Y-79400000D03*
%TO.P,J7,5,Pin_5*%
X94200000Y-77400000D03*
%TO.P,J7,MP*%
X91950000Y-87800000D03*
X91950000Y-75000000D03*
%TD*%
D10*
%TO.C,D9*%
%TO.CFtp,LED_0603_1608Metric*%
%TO.CVal,RXD*%
%TO.CLbN,LED_SMD*%
%TO.CMnt,SMD*%
%TO.CRot,90*%
X146740000Y-99500000D03*
D11*
X147465000Y-98025000D02*
X147465000Y-100975000D01*
X146015000Y-100975000D01*
X146015000Y-98025000D01*
X147465000Y-98025000D01*
D12*
%TO.P,D9,1,K*%
X146740000Y-100287500D03*
D13*
%TO.P,D9,2,A*%
X146740000Y-98712500D03*
%TD*%
D10*
%TO.C,J12*%
%TO.CFtp,JST_PH_B4B-PH-K_1x04_P2.00mm_Vertical*%
%TO.CVal,adc_sensor1*%
%TO.CLbN,Connector_JST*%
%TO.CMnt,TH*%
%TO.CRot,0*%
X115140000Y-74140000D03*
D11*
X123585000Y-71945000D02*
X123585000Y-77435000D01*
X112695000Y-77435000D01*
X112695000Y-71945000D01*
X123585000Y-71945000D01*
D12*
%TO.P,J12,1,Pin_1*%
X115140000Y-74140000D03*
D13*
%TO.P,J12,2,Pin_2*%
X117140000Y-74140000D03*
%TO.P,J12,3,Pin_3*%
X119140000Y-74140000D03*
%TO.P,J12,4,Pin_4*%
X121140000Y-74140000D03*
%TD*%
D10*
%TO.C,U7*%
%TO.CFtp,TSSOP-8_4.4x3mm_P0.65mm*%
%TO.CVal,INA240A2PW*%
%TO.CLbN,Package_SO*%
%TO.CMnt,SMD*%
%TO.CRot,0*%
X96220000Y-113320000D03*
D11*
X100065000Y-111575000D02*
X100065000Y-115065000D01*
X92375000Y-115065000D01*
X92375000Y-111575000D01*
X100065000Y-111575000D01*
D12*
%TO.P,U7,1,GND*%
X93357500Y-112345000D03*
D13*
%TO.P,U7,2,+*%
X93357500Y-112995000D03*
%TO.P,U7,3,-*%
X93357500Y-113645000D03*
%TO.P,U7,4,GND*%
X93357500Y-114295000D03*
%TO.P,U7,5,V+*%
X99082500Y-114295000D03*
%TO.P,U7,6,REF2*%
X99082500Y-113645000D03*
%TO.P,U7,7,REF1*%
X99082500Y-112995000D03*
%TO.P,U7,8*%
X99082500Y-112345000D03*
%TD*%
D10*
%TO.C,J2*%
%TO.CFtp,PinSocket_1x05_P2.54mm_Vertical*%
%TO.CVal,pa1010d*%
%TO.CLbN,Connector_PinSocket_2.54mm*%
%TO.CMnt,TH*%
%TO.CRot,0*%
X169610000Y-139250000D03*
D11*
X171355000Y-137455000D02*
X171355000Y-151145000D01*
X167815000Y-151145000D01*
X167815000Y-137455000D01*
X171355000Y-137455000D01*
D12*
%TO.P,J2,1,Pin_1*%
X169610000Y-139250000D03*
D13*
%TO.P,J2,2,Pin_2*%
X169610000Y-141790000D03*
%TO.P,J2,3,Pin_3*%
X169610000Y-144330000D03*
%TO.P,J2,4,Pin_4*%
X169610000Y-146870000D03*
%TO.P,J2,5,Pin_5*%
X169610000Y-149410000D03*
%TD*%
D10*
%TO.C,D6*%
%TO.CFtp,LED_0603_1608Metric*%
%TO.CVal,USB*%
%TO.CLbN,LED_SMD*%
%TO.CMnt,SMD*%
%TO.CRot,-90*%
X152720000Y-99540000D03*
D11*
X153445000Y-98065000D02*
X153445000Y-101015000D01*
X151995000Y-101015000D01*
X151995000Y-98065000D01*
X153445000Y-98065000D01*
D12*
%TO.P,D6,1,K*%
X152720000Y-98752500D03*
D13*
%TO.P,D6,2,A*%
X152720000Y-100327500D03*
%TD*%
D10*
%TO.C,R45*%
%TO.CFtp,R_2512_6332Metric*%
%TO.CVal,0.001*%
%TO.CLbN,Resistor_SMD*%
%TO.CMnt,SMD*%
%TO.CRot,180*%
X106900000Y-90710000D03*
D11*
X110715000Y-88795000D02*
X110715000Y-92625000D01*
X103085000Y-92625000D01*
X103085000Y-88795000D01*
X110715000Y-88795000D01*
D12*
%TO.P,R45,1*%
X109862500Y-90710000D03*
D13*
%TO.P,R45,2*%
X103937500Y-90710000D03*
%TD*%
D10*
%TO.C,L3*%
%TO.CFtp,L_TDK_SLF12565*%
%TO.CVal,22uH*%
%TO.CLbN,Inductor_SMD*%
%TO.CMnt,SMD*%
%TO.CRot,90*%
X141840000Y-146360000D03*
D11*
X143685000Y-139265000D02*
X143685000Y-139865000D01*
X148335000Y-139865000D01*
X148335000Y-152855000D01*
X143685000Y-152855000D01*
X143685000Y-153455000D01*
X139995000Y-153455000D01*
X139995000Y-152855000D01*
X135345000Y-152855000D01*
X135345000Y-139865000D01*
X139995000Y-139865000D01*
X139995000Y-139265000D01*
X143685000Y-139265000D01*
D12*
%TO.P,L3,1,1*%
X141840000Y-151910000D03*
D13*
%TO.P,L3,2,2*%
X141840000Y-140810000D03*
%TD*%
D10*
%TO.C,SW2*%
%TO.CFtp,SW_SPST_PTS810*%
%TO.CVal,BOOT*%
%TO.CLbN,Button_Switch_SMD*%
%TO.CMnt,SMD*%
%TO.CRot,-90*%
X165400000Y-140670000D03*
D11*
X167245000Y-137825000D02*
X167245000Y-143515000D01*
X163555000Y-143515000D01*
X163555000Y-137825000D01*
X167245000Y-137825000D01*
D12*
%TO.P,SW2,1,1*%
X166475000Y-138595000D03*
X166475000Y-142745000D03*
D13*
%TO.P,SW2,2,2*%
X164325000Y-138595000D03*
X164325000Y-142745000D03*
%TD*%
D10*
%TO.C,R44*%
%TO.CFtp,R_2512_6332Metric*%
%TO.CVal,0.001*%
%TO.CLbN,Resistor_SMD*%
%TO.CMnt,SMD*%
%TO.CRot,0*%
X107510000Y-112740000D03*
D11*
X111325000Y-110825000D02*
X111325000Y-114655000D01*
X103695000Y-114655000D01*
X103695000Y-110825000D01*
X111325000Y-110825000D01*
D12*
%TO.P,R44,1*%
X104547500Y-112740000D03*
D13*
%TO.P,R44,2*%
X110472500Y-112740000D03*
%TD*%
D10*
%TO.C,U11*%
%TO.CFtp,TSSOP-8_4.4x3mm_P0.65mm*%
%TO.CVal,INA240A2PW*%
%TO.CLbN,Package_SO*%
%TO.CMnt,SMD*%
%TO.CRot,-90*%
X158520000Y-131900000D03*
D11*
X160265000Y-128055000D02*
X160265000Y-135745000D01*
X156775000Y-135745000D01*
X156775000Y-128055000D01*
X160265000Y-128055000D01*
D12*
%TO.P,U11,1,GND*%
X159495000Y-129037500D03*
D13*
%TO.P,U11,2,+*%
X158845000Y-129037500D03*
%TO.P,U11,3,-*%
X158195000Y-129037500D03*
%TO.P,U11,4,GND*%
X157545000Y-129037500D03*
%TO.P,U11,5,V+*%
X157545000Y-134762500D03*
%TO.P,U11,6,REF2*%
X158195000Y-134762500D03*
%TO.P,U11,7,REF1*%
X158845000Y-134762500D03*
%TO.P,U11,8*%
X159495000Y-134762500D03*
%TD*%
D10*
%TO.C,R66*%
%TO.CFtp,R_2512_6332Metric*%
%TO.CVal,0.001*%
%TO.CLbN,Resistor_SMD*%
%TO.CMnt,SMD*%
%TO.CRot,90*%
X153270000Y-129350000D03*
D11*
X155185000Y-125535000D02*
X155185000Y-133165000D01*
X151355000Y-133165000D01*
X151355000Y-125535000D01*
X155185000Y-125535000D01*
D12*
%TO.P,R66,1*%
X153270000Y-132312500D03*
D13*
%TO.P,R66,2*%
X153270000Y-126387500D03*
%TD*%
D10*
%TO.C,U5*%
%TO.CFtp,TI_SO-PowerPAD-8_ThermalVias*%
%TO.CVal,LMR16030SDDAR*%
%TO.CLbN,Package_SO*%
%TO.CMnt,SMD*%
%TO.CRot,0*%
X106950000Y-118830000D03*
D11*
X110695000Y-116085000D02*
X110695000Y-121575000D01*
X103205000Y-121575000D01*
X103205000Y-116085000D01*
X110695000Y-116085000D01*
D12*
%TO.P,U5,1,BOOT*%
X104250000Y-116925000D03*
D13*
%TO.P,U5,2,VIN*%
X104250000Y-118195000D03*
%TO.P,U5,3,EN*%
X104250000Y-119465000D03*
%TO.P,U5,4,RT/YNC*%
X104250000Y-120735000D03*
%TO.P,U5,5,FB*%
X109650000Y-120735000D03*
%TO.P,U5,6,SS/PGOOD*%
X109650000Y-119465000D03*
%TO.P,U5,7,GND*%
X109650000Y-118195000D03*
%TO.P,U5,8,SW*%
X109650000Y-116925000D03*
%TO.P,U5,9,EP*%
X106350000Y-117030000D03*
X106350000Y-118230000D03*
X106350000Y-119530000D03*
X106350000Y-120630000D03*
X106950000Y-118830000D03*
X106950000Y-118830000D03*
X107550000Y-117030000D03*
X107550000Y-118230000D03*
X107550000Y-119530000D03*
X107550000Y-120630000D03*
%TD*%
D10*
%TO.C,D7*%
%TO.CFtp,LED_0603_1608Metric*%
%TO.CVal,+3.3v*%
%TO.CLbN,LED_SMD*%
%TO.CMnt,SMD*%
%TO.CRot,-90*%
X149630000Y-99540000D03*
D11*
X150355000Y-98065000D02*
X150355000Y-101015000D01*
X148905000Y-101015000D01*
X148905000Y-98065000D01*
X150355000Y-98065000D01*
D12*
%TO.P,D7,1,K*%
X149630000Y-98752500D03*
D13*
%TO.P,D7,2,A*%
X149630000Y-100327500D03*
%TD*%
D10*
%TO.C,J9*%
%TO.CFtp,AMASS_MR30PW-M_1x03_P3.50mm_Horizontal*%
%TO.CVal,TB_MOTOR*%
%TO.CLbN,Connector_AMASS*%
%TO.CMnt,TH*%
%TO.CRot,-90*%
X157650000Y-116070000D03*
D11*
X171345000Y-111375000D02*
X171345000Y-127765000D01*
X155655000Y-127765000D01*
X155655000Y-111375000D01*
X171345000Y-111375000D01*
D12*
%TO.P,J9,1,Pin_1*%
X157650000Y-116070000D03*
D13*
%TO.P,J9,*%
X167650000Y-113070000D03*
X167650000Y-126070000D03*
%TO.P,J9,2,Pin_2*%
X157650000Y-119570000D03*
%TO.P,J9,3,Pin_3*%
X157650000Y-123070000D03*
%TD*%
D10*
%TO.C,L1*%
%TO.CFtp,L_TDK_SLF12565*%
%TO.CVal,47uH*%
%TO.CLbN,Inductor_SMD*%
%TO.CMnt,SMD*%
%TO.CRot,90*%
X125787500Y-128020000D03*
D11*
X127632500Y-120925000D02*
X127632500Y-121525000D01*
X132282500Y-121525000D01*
X132282500Y-134515000D01*
X127632500Y-134515000D01*
X127632500Y-135115000D01*
X123942500Y-135115000D01*
X123942500Y-134515000D01*
X119292500Y-134515000D01*
X119292500Y-121525000D01*
X123942500Y-121525000D01*
X123942500Y-120925000D01*
X127632500Y-120925000D01*
D12*
%TO.P,L1,1,1*%
X125787500Y-133570000D03*
D13*
%TO.P,L1,2,2*%
X125787500Y-122470000D03*
%TD*%
D10*
%TO.C,D13*%
%TO.CFtp,LED_0603_1608Metric*%
%TO.CVal,+24V*%
%TO.CLbN,LED_SMD*%
%TO.CMnt,SMD*%
%TO.CRot,-90*%
X161800000Y-141020000D03*
D11*
X162525000Y-139545000D02*
X162525000Y-142495000D01*
X161075000Y-142495000D01*
X161075000Y-139545000D01*
X162525000Y-139545000D01*
D12*
%TO.P,D13,1,K*%
X161800000Y-140232500D03*
D13*
%TO.P,D13,2,A*%
X161800000Y-141807500D03*
%TD*%
D10*
%TO.C,Q7*%
%TO.CFtp,TO-263-7_TabPin8*%
%TO.CVal,BTN8982TA*%
%TO.CLbN,Package_TO_SOT_SMD*%
%TO.CMnt,SMD*%
%TO.CRot,0*%
X143290000Y-107590000D03*
D11*
X149735000Y-101945000D02*
X149735000Y-113235000D01*
X133095000Y-113235000D01*
X133095000Y-101945000D01*
X149735000Y-101945000D01*
D12*
%TO.P,Q7,1*%
X135640000Y-103780000D03*
D13*
%TO.P,Q7,2,IN*%
X135640000Y-105050000D03*
%TO.P,Q7,3,INH*%
X135640000Y-106320000D03*
%TO.P,Q7,4*%
X135640000Y-107590000D03*
%TO.P,Q7,5,SR*%
X135640000Y-108860000D03*
%TO.P,Q7,6,IS*%
X135640000Y-110130000D03*
%TO.P,Q7,7*%
X135640000Y-111400000D03*
%TO.P,Q7,8*%
X142365000Y-104815000D03*
X142365000Y-110365000D03*
X144790000Y-107590000D03*
X147215000Y-104815000D03*
X147215000Y-110365000D03*
%TD*%
D10*
%TO.C,U2*%
%TO.CFtp,DFN-8-1EP_3x3mm_P0.65mm_EP1.5x2.25mm*%
%TO.CVal,SIT1042AQT/3*%
%TO.CLbN,Package_DFN_QFN*%
%TO.CMnt,SMD*%
%TO.CRot,0*%
X116790000Y-81000000D03*
D11*
X118885000Y-79255000D02*
X118885000Y-82745000D01*
X114695000Y-82745000D01*
X114695000Y-79255000D01*
X118885000Y-79255000D01*
D12*
%TO.P,U2,1,TXD*%
X115390000Y-80025000D03*
D13*
%TO.P,U2,2,GND*%
X115390000Y-80675000D03*
%TO.P,U2,3,VCC*%
X115390000Y-81325000D03*
%TO.P,U2,4,RXD*%
X115390000Y-81975000D03*
%TO.P,U2,5,VIO*%
X118190000Y-81975000D03*
%TO.P,U2,6,CANL*%
X118190000Y-81325000D03*
%TO.P,U2,7,CANH*%
X118190000Y-80675000D03*
%TO.P,U2,8,STB*%
X118190000Y-80025000D03*
%TO.P,U2,9,EP*%
X116790000Y-81000000D03*
%TD*%
D10*
%TO.C,Q5*%
%TO.CFtp,TO-263-7_TabPin8*%
%TO.CVal,BTN8982TA*%
%TO.CLbN,Package_TO_SOT_SMD*%
%TO.CMnt,SMD*%
%TO.CRot,180*%
X118500000Y-100920000D03*
D11*
X128695000Y-95275000D02*
X128695000Y-106565000D01*
X112055000Y-106565000D01*
X112055000Y-95275000D01*
X128695000Y-95275000D01*
D12*
%TO.P,Q5,1*%
X126150000Y-104730000D03*
D13*
%TO.P,Q5,2,IN*%
X126150000Y-103460000D03*
%TO.P,Q5,3,INH*%
X126150000Y-102190000D03*
%TO.P,Q5,4*%
X126150000Y-100920000D03*
%TO.P,Q5,5,SR*%
X126150000Y-99650000D03*
%TO.P,Q5,6,IS*%
X126150000Y-98380000D03*
%TO.P,Q5,7*%
X126150000Y-97110000D03*
%TO.P,Q5,8*%
X119425000Y-103695000D03*
X119425000Y-98145000D03*
X117000000Y-100920000D03*
X114575000Y-103695000D03*
X114575000Y-98145000D03*
%TD*%
D10*
%TO.C,Q6*%
%TO.CFtp,TO-263-7_TabPin8*%
%TO.CVal,BTN8982TA*%
%TO.CLbN,Package_TO_SOT_SMD*%
%TO.CMnt,SMD*%
%TO.CRot,180*%
X118555000Y-88865000D03*
D11*
X128750000Y-83220000D02*
X128750000Y-94510000D01*
X112110000Y-94510000D01*
X112110000Y-83220000D01*
X128750000Y-83220000D01*
D12*
%TO.P,Q6,1*%
X126205000Y-92675000D03*
D13*
%TO.P,Q6,2,IN*%
X126205000Y-91405000D03*
%TO.P,Q6,3,INH*%
X126205000Y-90135000D03*
%TO.P,Q6,4*%
X126205000Y-88865000D03*
%TO.P,Q6,5,SR*%
X126205000Y-87595000D03*
%TO.P,Q6,6,IS*%
X126205000Y-86325000D03*
%TO.P,Q6,7*%
X126205000Y-85055000D03*
%TO.P,Q6,8*%
X119480000Y-91640000D03*
X119480000Y-86090000D03*
X117055000Y-88865000D03*
X114630000Y-91640000D03*
X114630000Y-86090000D03*
%TD*%
D10*
%TO.C,C48*%
%TO.CFtp,CP_Elec_10x10.5*%
%TO.CVal,220uf*%
%TO.CLbN,Capacitor_SMD*%
%TO.CMnt,SMD*%
%TO.CRot,0*%
X126860000Y-142050000D03*
D11*
X132355000Y-136555000D02*
X132355000Y-140555000D01*
X133505000Y-140555000D01*
X133505000Y-143545000D01*
X132355000Y-143545000D01*
X132355000Y-147545000D01*
X122512072Y-147545000D01*
X121365000Y-146397928D01*
X121365000Y-143545000D01*
X120215000Y-143545000D01*
X120215000Y-140555000D01*
X121365000Y-140555000D01*
X121365000Y-137702072D01*
X122512072Y-136555000D01*
X132355000Y-136555000D01*
D12*
%TO.P,C48,1*%
X122660000Y-142050000D03*
D13*
%TO.P,C48,2*%
X131060000Y-142050000D03*
%TD*%
D10*
%TO.C,SW3*%
%TO.CFtp,SW_SPST_PTS810*%
%TO.CVal,EN*%
%TO.CLbN,Button_Switch_SMD*%
%TO.CMnt,SMD*%
%TO.CRot,-90*%
X158550000Y-140685000D03*
D11*
X160395000Y-137840000D02*
X160395000Y-143530000D01*
X156705000Y-143530000D01*
X156705000Y-137840000D01*
X160395000Y-137840000D01*
D12*
%TO.P,SW3,1,1*%
X159625000Y-138610000D03*
X159625000Y-142760000D03*
D13*
%TO.P,SW3,2,2*%
X157475000Y-138610000D03*
X157475000Y-142760000D03*
%TD*%
D10*
%TO.C,U3*%
%TO.CFtp,ESP32-S3-WROOM-1*%
%TO.CVal,ESP32-S3-WROOM-1*%
%TO.CLbN,RF_Module*%
%TO.CMnt,SMD*%
%TO.CRot,0*%
X149255000Y-83700000D03*
D11*
X173250000Y-55955000D02*
X173250000Y-76945000D01*
X159000000Y-76945000D01*
X159000000Y-97145000D01*
X139510000Y-97145000D01*
X139510000Y-76945000D01*
X125260000Y-76945000D01*
X125260000Y-55955000D01*
X173250000Y-55955000D01*
D12*
%TO.P,U3,1,GND*%
X140505000Y-78440000D03*
D13*
%TO.P,U3,2,3V3*%
X140505000Y-79710000D03*
%TO.P,U3,3,EN*%
X140505000Y-80980000D03*
%TO.P,U3,4,IO4*%
X140505000Y-82250000D03*
%TO.P,U3,5,IO5*%
X140505000Y-83520000D03*
%TO.P,U3,6,IO6*%
X140505000Y-84790000D03*
%TO.P,U3,7,IO7*%
X140505000Y-86060000D03*
%TO.P,U3,8,IO15*%
X140505000Y-87330000D03*
%TO.P,U3,9,IO16*%
X140505000Y-88600000D03*
%TO.P,U3,10,IO17*%
X140505000Y-89870000D03*
%TO.P,U3,11,IO18*%
X140505000Y-91140000D03*
%TO.P,U3,12,IO8*%
X140505000Y-92410000D03*
%TO.P,U3,13,USB_D-*%
X140505000Y-93680000D03*
%TO.P,U3,14,USB_D+*%
X140505000Y-94950000D03*
%TO.P,U3,15,IO3*%
X142270000Y-96200000D03*
%TO.P,U3,16,IO46*%
X143540000Y-96200000D03*
%TO.P,U3,17,IO9*%
X144810000Y-96200000D03*
%TO.P,U3,18,IO10*%
X146080000Y-96200000D03*
%TO.P,U3,19,IO11*%
X147350000Y-96200000D03*
%TO.P,U3,20,IO12*%
X148620000Y-96200000D03*
%TO.P,U3,21,IO13*%
X149890000Y-96200000D03*
%TO.P,U3,22,IO14*%
X151160000Y-96200000D03*
%TO.P,U3,23,IO21*%
X152430000Y-96200000D03*
%TO.P,U3,24,IO47*%
X153700000Y-96200000D03*
%TO.P,U3,25,IO48*%
X154970000Y-96200000D03*
%TO.P,U3,26,IO45*%
X156240000Y-96200000D03*
%TO.P,U3,27,IO0*%
X158005000Y-94950000D03*
%TO.P,U3,28,IO35*%
X158005000Y-93680000D03*
%TO.P,U3,29,IO36*%
X158005000Y-92410000D03*
%TO.P,U3,30,IO37*%
X158005000Y-91140000D03*
%TO.P,U3,31,IO38*%
X158005000Y-89870000D03*
%TO.P,U3,32,IO39*%
X158005000Y-88600000D03*
%TO.P,U3,33,IO40*%
X158005000Y-87330000D03*
%TO.P,U3,34,IO41*%
X158005000Y-86060000D03*
%TO.P,U3,35,IO42*%
X158005000Y-84790000D03*
%TO.P,U3,36,RXD0*%
X158005000Y-83520000D03*
%TO.P,U3,37,TXD0*%
X158005000Y-82250000D03*
%TO.P,U3,38,IO2*%
X158005000Y-80980000D03*
%TO.P,U3,39,IO1*%
X158005000Y-79710000D03*
%TO.P,U3,40,GND*%
X158005000Y-78440000D03*
%TO.P,U3,41,GND*%
X146355000Y-85460000D03*
X146355000Y-86860000D03*
X147055000Y-84760000D03*
X147055000Y-86160000D03*
X147055000Y-87560000D03*
X147755000Y-85460000D03*
X147755000Y-86160000D03*
X147755000Y-86860000D03*
X148455000Y-84760000D03*
X148455000Y-86160000D03*
X148455000Y-87560000D03*
X149155000Y-85460000D03*
X149155000Y-86860000D03*
%TD*%
D10*
%TO.C,R3*%
%TO.CFtp,R_0603_1608Metric*%
%TO.CVal,120*%
%TO.CLbN,Resistor_SMD*%
%TO.CMnt,SMD*%
%TO.CRot,180*%
X112700000Y-79500000D03*
D11*
X114175000Y-78775000D02*
X114175000Y-80225000D01*
X111225000Y-80225000D01*
X111225000Y-78775000D01*
X114175000Y-78775000D01*
D12*
%TO.P,R3,1*%
X113525000Y-79500000D03*
D13*
%TO.P,R3,2*%
X111875000Y-79500000D03*
%TD*%
D10*
%TO.C,J3*%
%TO.CFtp,JST_PH_B4B-PH-K_1x04_P2.00mm_Vertical*%
%TO.CVal,can_sensor*%
%TO.CLbN,Connector_JST*%
%TO.CMnt,TH*%
%TO.CRot,0*%
X102950000Y-74210000D03*
D11*
X111395000Y-72015000D02*
X111395000Y-77505000D01*
X100505000Y-77505000D01*
X100505000Y-72015000D01*
X111395000Y-72015000D01*
D12*
%TO.P,J3,1,Pin_1*%
X102950000Y-74210000D03*
D13*
%TO.P,J3,2,Pin_2*%
X104950000Y-74210000D03*
%TO.P,J3,3,Pin_3*%
X106950000Y-74210000D03*
%TO.P,J3,4,Pin_4*%
X108950000Y-74210000D03*
%TD*%
D10*
%TO.C,Q8*%
%TO.CFtp,TO-263-7_TabPin8*%
%TO.CVal,BTN8982TA*%
%TO.CLbN,Package_TO_SOT_SMD*%
%TO.CMnt,SMD*%
%TO.CRot,0*%
X143290000Y-119940000D03*
D11*
X149735000Y-114295000D02*
X149735000Y-125585000D01*
X133095000Y-125585000D01*
X133095000Y-114295000D01*
X149735000Y-114295000D01*
D12*
%TO.P,Q8,1*%
X135640000Y-116130000D03*
D13*
%TO.P,Q8,2,IN*%
X135640000Y-117400000D03*
%TO.P,Q8,3,INH*%
X135640000Y-118670000D03*
%TO.P,Q8,4*%
X135640000Y-119940000D03*
%TO.P,Q8,5,SR*%
X135640000Y-121210000D03*
%TO.P,Q8,6,IS*%
X135640000Y-122480000D03*
%TO.P,Q8,7*%
X135640000Y-123750000D03*
%TO.P,Q8,8*%
X142365000Y-117165000D03*
X142365000Y-122715000D03*
X144790000Y-119940000D03*
X147215000Y-117165000D03*
X147215000Y-122715000D03*
%TD*%
D10*
%TO.C,D11*%
%TO.CFtp,D_SMC*%
%TO.CVal,B560C*%
%TO.CLbN,Diode_SMD*%
%TO.CMnt,SMD*%
%TO.CRot,-90*%
X114750000Y-131342500D03*
D11*
X118095000Y-126447500D02*
X118095000Y-136237500D01*
X111405000Y-136237500D01*
X111405000Y-126447500D01*
X118095000Y-126447500D01*
D12*
%TO.P,D11,1,K*%
X114750000Y-127942500D03*
D13*
%TO.P,D11,2,A*%
X114750000Y-134742500D03*
%TD*%
D10*
%TO.C,D12*%
%TO.CFtp,D_SMC*%
%TO.CVal,B560C*%
%TO.CLbN,Diode_SMD*%
%TO.CMnt,SMD*%
%TO.CRot,90*%
X152735000Y-148515000D03*
D11*
X156080000Y-143620000D02*
X156080000Y-153410000D01*
X149390000Y-153410000D01*
X149390000Y-143620000D01*
X156080000Y-143620000D01*
D12*
%TO.P,D12,1,K*%
X152735000Y-151915000D03*
D13*
%TO.P,D12,2,A*%
X152735000Y-145115000D03*
%TD*%
D10*
%TO.C,J10*%
%TO.CFtp,JST_PH_B5B-PH-SM4-TB_1x05-1MP_P2.00mm_Vertical*%
%TO.CVal,PH_2.0*%
%TO.CLbN,Connector_JST*%
%TO.CMnt,SMD*%
%TO.CRot,-90*%
X166120000Y-85430000D03*
D11*
X170865000Y-77735000D02*
X170865000Y-93125000D01*
X162375000Y-93125000D01*
X162375000Y-77735000D01*
X170865000Y-77735000D01*
D12*
%TO.P,J10,1,Pin_1*%
X165620000Y-81430000D03*
D13*
%TO.P,J10,2,Pin_2*%
X165620000Y-83430000D03*
%TO.P,J10,3,Pin_3*%
X165620000Y-85430000D03*
%TO.P,J10,4,Pin_4*%
X165620000Y-87430000D03*
%TO.P,J10,5,Pin_5*%
X165620000Y-89430000D03*
%TO.P,J10,MP*%
X167870000Y-79030000D03*
X167870000Y-91830000D03*
%TD*%
D10*
%TO.C,3.3V4*%
%TO.CFtp,LED_0603_1608Metric*%
%TO.CVal,VCC*%
%TO.CLbN,LED_SMD*%
%TO.CMnt,SMD*%
%TO.CRot,0*%
X109930000Y-149890000D03*
D11*
X111405000Y-149165000D02*
X111405000Y-150615000D01*
X108455000Y-150615000D01*
X108455000Y-149165000D01*
X111405000Y-149165000D01*
D12*
%TO.P,3.3V4,1,K*%
X109142500Y-149890000D03*
D13*
%TO.P,3.3V4,2,A*%
X110717500Y-149890000D03*
%TD*%
D10*
%TO.C,J5*%
%TO.CFtp,PinHeader_1x04_P2.54mm_Vertical*%
%TO.CVal,UART*%
%TO.CLbN,Connector_PinHeader_2.54mm*%
%TO.CMnt,TH*%
%TO.CRot,-90*%
X169290000Y-95990000D03*
D11*
X171085000Y-94195000D02*
X171085000Y-97785000D01*
X159895000Y-97785000D01*
X159895000Y-94195000D01*
X171085000Y-94195000D01*
D12*
%TO.P,J5,1,Pin_1*%
X169290000Y-95990000D03*
D13*
%TO.P,J5,2,Pin_2*%
X166750000Y-95990000D03*
%TO.P,J5,3,Pin_3*%
X164210000Y-95990000D03*
%TO.P,J5,4,Pin_4*%
X161670000Y-95990000D03*
%TD*%
D10*
%TO.C,D10*%
%TO.CFtp,LED_0603_1608Metric*%
%TO.CVal,TXD*%
%TO.CLbN,LED_SMD*%
%TO.CMnt,SMD*%
%TO.CRot,90*%
X143890000Y-99500000D03*
D11*
X144615000Y-98025000D02*
X144615000Y-100975000D01*
X143165000Y-100975000D01*
X143165000Y-98025000D01*
X144615000Y-98025000D01*
D12*
%TO.P,D10,1,K*%
X143890000Y-100287500D03*
D13*
%TO.P,D10,2,A*%
X143890000Y-98712500D03*
%TD*%
D10*
%TO.C,J11*%
%TO.CFtp,JST_PH_B4B-PH-K_1x04_P2.00mm_Vertical*%
%TO.CVal,adc_sensor2*%
%TO.CLbN,Connector_JST*%
%TO.CMnt,TH*%
%TO.CRot,-90*%
X169160000Y-101230000D03*
D11*
X171355000Y-98785000D02*
X171355000Y-109675000D01*
X165865000Y-109675000D01*
X165865000Y-98785000D01*
X171355000Y-98785000D01*
D12*
%TO.P,J11,1,Pin_1*%
X169160000Y-101230000D03*
D13*
%TO.P,J11,2,Pin_2*%
X169160000Y-103230000D03*
%TO.P,J11,3,Pin_3*%
X169160000Y-105230000D03*
%TO.P,J11,4,Pin_4*%
X169160000Y-107230000D03*
%TD*%
D10*
%TO.C,D17*%
%TO.CFtp,LED_0603_1608Metric*%
%TO.CVal,+3.3V*%
%TO.CLbN,LED_SMD*%
%TO.CMnt,SMD*%
%TO.CRot,0*%
X91350000Y-117280000D03*
D11*
X92825000Y-116555000D02*
X92825000Y-118005000D01*
X89875000Y-118005000D01*
X89875000Y-116555000D01*
X92825000Y-116555000D01*
D12*
%TO.P,D17,1,K*%
X90562500Y-117280000D03*
D13*
%TO.P,D17,2,A*%
X92137500Y-117280000D03*
%TD*%
D10*
%TO.C,Q9*%
%TO.CFtp,TO-263-7_TabPin8*%
%TO.CVal,BTN8982TA*%
%TO.CLbN,Package_TO_SOT_SMD*%
%TO.CMnt,SMD*%
%TO.CRot,0*%
X143290000Y-132290000D03*
D11*
X149735000Y-126645000D02*
X149735000Y-137935000D01*
X133095000Y-137935000D01*
X133095000Y-126645000D01*
X149735000Y-126645000D01*
D12*
%TO.P,Q9,1*%
X135640000Y-128480000D03*
D13*
%TO.P,Q9,2,IN*%
X135640000Y-129750000D03*
%TO.P,Q9,3,INH*%
X135640000Y-131020000D03*
%TO.P,Q9,4*%
X135640000Y-132290000D03*
%TO.P,Q9,5,SR*%
X135640000Y-133560000D03*
%TO.P,Q9,6,IS*%
X135640000Y-134830000D03*
%TO.P,Q9,7*%
X135640000Y-136100000D03*
%TO.P,Q9,8*%
X142365000Y-129515000D03*
X142365000Y-135065000D03*
X144790000Y-132290000D03*
X147215000Y-129515000D03*
X147215000Y-135065000D03*
%TD*%
D10*
%TO.C,R56*%
%TO.CFtp,R_0603_1608Metric*%
%TO.CVal,10k*%
%TO.CLbN,Resistor_SMD*%
%TO.CMnt,SMD*%
%TO.CRot,0*%
X109890000Y-152350000D03*
D11*
X111365000Y-151625000D02*
X111365000Y-153075000D01*
X108415000Y-153075000D01*
X108415000Y-151625000D01*
X111365000Y-151625000D01*
D12*
%TO.P,R56,1*%
X109065000Y-152350000D03*
D13*
%TO.P,R56,2*%
X110715000Y-152350000D03*
%TD*%
D10*
%TO.C,SW1*%
%TO.CFtp,SW_DIP_SPSTx01_Slide_Copal_CHS-01A_W5.08mm_P1.27mm_JPin*%
%TO.CVal,SW_SPST*%
%TO.CLbN,Button_Switch_SMD*%
%TO.CMnt,SMD*%
%TO.CRot,180*%
X124290000Y-80610000D03*
D11*
X127875000Y-79035000D02*
X127875000Y-82185000D01*
X120705000Y-82185000D01*
X120705000Y-79035000D01*
X127875000Y-79035000D01*
D12*
%TO.P,SW1,1,A*%
X126830000Y-80610000D03*
D13*
%TO.P,SW1,2,B*%
X121750000Y-80610000D03*
%TD*%
D10*
%TO.C,D16*%
%TO.CFtp,D_SMC*%
%TO.CVal,B560C*%
%TO.CLbN,Diode_SMD*%
%TO.CMnt,SMD*%
%TO.CRot,90*%
X106620000Y-127287500D03*
D11*
X109965000Y-122392500D02*
X109965000Y-132182500D01*
X103275000Y-132182500D01*
X103275000Y-122392500D01*
X109965000Y-122392500D01*
D12*
%TO.P,D16,1,K*%
X106620000Y-130687500D03*
D13*
%TO.P,D16,2,A*%
X106620000Y-123887500D03*
%TD*%
D10*
%TO.C,U9*%
%TO.CFtp,SOP-16_3.9x9.9mm_P1.27mm*%
%TO.CVal,HX711*%
%TO.CLbN,Package_SO*%
%TO.CMnt,SMD*%
%TO.CRot,-90*%
X159845000Y-102270000D03*
D11*
X165040000Y-98525000D02*
X165040000Y-106015000D01*
X154650000Y-106015000D01*
X154650000Y-98525000D01*
X165040000Y-98525000D01*
D12*
%TO.P,U9,1,VSUP*%
X164290000Y-99770000D03*
D13*
%TO.P,U9,2,BASE*%
X163020000Y-99770000D03*
%TO.P,U9,3,AVDD*%
X161750000Y-99770000D03*
%TO.P,U9,4,VFB*%
X160480000Y-99770000D03*
%TO.P,U9,5,AGND*%
X159210000Y-99770000D03*
%TO.P,U9,6,VBG*%
X157940000Y-99770000D03*
%TO.P,U9,7,INA-*%
X156670000Y-99770000D03*
%TO.P,U9,8,INA+*%
X155400000Y-99770000D03*
%TO.P,U9,9,INB-*%
X155400000Y-104770000D03*
%TO.P,U9,10,INB+*%
X156670000Y-104770000D03*
%TO.P,U9,11,PD_SCK*%
X157940000Y-104770000D03*
%TO.P,U9,12,DOUT*%
X159210000Y-104770000D03*
%TO.P,U9,13,XO*%
X160480000Y-104770000D03*
%TO.P,U9,14,XI*%
X161750000Y-104770000D03*
%TO.P,U9,15,RATE*%
X163020000Y-104770000D03*
%TO.P,U9,16,DVDD*%
X164290000Y-104770000D03*
%TD*%
D10*
%TO.C,Q4*%
%TO.CFtp,TO-263-7_TabPin8*%
%TO.CVal,BTN8982TA*%
%TO.CLbN,Package_TO_SOT_SMD*%
%TO.CMnt,SMD*%
%TO.CRot,180*%
X118555000Y-113565000D03*
D11*
X128750000Y-107920000D02*
X128750000Y-119210000D01*
X112110000Y-119210000D01*
X112110000Y-107920000D01*
X128750000Y-107920000D01*
D12*
%TO.P,Q4,1*%
X126205000Y-117375000D03*
D13*
%TO.P,Q4,2,IN*%
X126205000Y-116105000D03*
%TO.P,Q4,3,INH*%
X126205000Y-114835000D03*
%TO.P,Q4,4*%
X126205000Y-113565000D03*
%TO.P,Q4,5,SR*%
X126205000Y-112295000D03*
%TO.P,Q4,6,IS*%
X126205000Y-111025000D03*
%TO.P,Q4,7*%
X126205000Y-109755000D03*
%TO.P,Q4,8*%
X119480000Y-116340000D03*
X119480000Y-110790000D03*
X117055000Y-113565000D03*
X114630000Y-116340000D03*
X114630000Y-110790000D03*
%TD*%
D10*
%TO.C,U4*%
%TO.CFtp,TI_SO-PowerPAD-8_ThermalVias*%
%TO.CVal,LMR16030SDDAR*%
%TO.CLbN,Package_SO*%
%TO.CMnt,SMD*%
%TO.CRot,0*%
X114820000Y-122275000D03*
D11*
X118565000Y-119530000D02*
X118565000Y-125020000D01*
X111075000Y-125020000D01*
X111075000Y-119530000D01*
X118565000Y-119530000D01*
D12*
%TO.P,U4,1,BOOT*%
X112120000Y-120370000D03*
D13*
%TO.P,U4,2,VIN*%
X112120000Y-121640000D03*
%TO.P,U4,3,EN*%
X112120000Y-122910000D03*
%TO.P,U4,4,RT/YNC*%
X112120000Y-124180000D03*
%TO.P,U4,5,FB*%
X117520000Y-124180000D03*
%TO.P,U4,6,SS/PGOOD*%
X117520000Y-122910000D03*
%TO.P,U4,7,GND*%
X117520000Y-121640000D03*
%TO.P,U4,8,SW*%
X117520000Y-120370000D03*
%TO.P,U4,9,EP*%
X114220000Y-120475000D03*
X114220000Y-121675000D03*
X114220000Y-122975000D03*
X114220000Y-124075000D03*
X114820000Y-122275000D03*
X114820000Y-122275000D03*
X115420000Y-120475000D03*
X115420000Y-121675000D03*
X115420000Y-122975000D03*
X115420000Y-124075000D03*
%TD*%
M02*
