%TF.GenerationSoftware,KiCad,Pcbnew,9.99.0-617-gea36110980*%
%TF.CreationDate,2025-03-23T14:38:13+08:00*%
%TF.ProjectId,skateboard,736b6174-6562-46f6-9172-642e6b696361,rev?*%
%TF.SameCoordinates,Original*%
%TF.FileFunction,Component,L4,Bot*%
%TF.FilePolarity,Positive*%
%FSLAX46Y46*%
G04 Gerber Fmt 4.6, Leading zero omitted, Abs format (unit mm)*
G04 Created by KiCad (PCBNEW 9.99.0-617-gea36110980) date 2025-03-23 14:38:13*
%MOMM*%
%LPD*%
G01*
G04 APERTURE LIST*
%TA.AperFunction,ComponentMain*%
%ADD10C,0.300000*%
%TD*%
%TA.AperFunction,ComponentOutline,Courtyard*%
%ADD11C,0.100000*%
%TD*%
%TA.AperFunction,ComponentPin*%
%ADD12P,0.360000X4X0.000000*%
%TD*%
%TA.AperFunction,ComponentPin*%
%ADD13C,0.100000*%
%TD*%
G04 APERTURE END LIST*
D10*
%TO.C,R35*%
%TO.CFtp,R_0603_1608Metric*%
%TO.CVal,3.3k*%
%TO.CLbN,Resistor_SMD*%
%TO.CMnt,SMD*%
%TO.CRot,0*%
X93360000Y-81420000D03*
D11*
X94835000Y-80695000D02*
X94835000Y-82145000D01*
X91885000Y-82145000D01*
X91885000Y-80695000D01*
X94835000Y-80695000D01*
D12*
%TO.P,R35,1*%
X94185000Y-81420000D03*
D13*
%TO.P,R35,2*%
X92535000Y-81420000D03*
%TD*%
D10*
%TO.C,C17*%
%TO.CFtp,C_1210_3225Metric*%
%TO.CVal,10uF/35v*%
%TO.CLbN,Capacitor_SMD*%
%TO.CMnt,SMD*%
%TO.CRot,-90*%
X146610000Y-142470000D03*
D11*
X148205000Y-140175000D02*
X148205000Y-144765000D01*
X145015000Y-144765000D01*
X145015000Y-140175000D01*
X148205000Y-140175000D01*
D12*
%TO.P,C17,1*%
X146610000Y-143945000D03*
D13*
%TO.P,C17,2*%
X146610000Y-140995000D03*
%TD*%
D10*
%TO.C,R38*%
%TO.CFtp,R_0603_1608Metric*%
%TO.CVal,3.3k*%
%TO.CLbN,Resistor_SMD*%
%TO.CMnt,SMD*%
%TO.CRot,0*%
X93360000Y-79390000D03*
D11*
X94835000Y-78665000D02*
X94835000Y-80115000D01*
X91885000Y-80115000D01*
X91885000Y-78665000D01*
X94835000Y-78665000D01*
D12*
%TO.P,R38,1*%
X94185000Y-79390000D03*
D13*
%TO.P,R38,2*%
X92535000Y-79390000D03*
%TD*%
D10*
%TO.C,C30*%
%TO.CFtp,C_0603_1608Metric*%
%TO.CVal,100nF*%
%TO.CLbN,Capacitor_SMD*%
%TO.CMnt,SMD*%
%TO.CRot,180*%
X98950000Y-85330000D03*
D11*
X100425000Y-84605000D02*
X100425000Y-86055000D01*
X97475000Y-86055000D01*
X97475000Y-84605000D01*
X100425000Y-84605000D01*
D12*
%TO.P,C30,1*%
X98175000Y-85330000D03*
D13*
%TO.P,C30,2*%
X99725000Y-85330000D03*
%TD*%
D10*
%TO.C,R59*%
%TO.CFtp,R_0603_1608Metric*%
%TO.CVal,10K*%
%TO.CLbN,Resistor_SMD*%
%TO.CMnt,SMD*%
%TO.CRot,90*%
X143900000Y-99480000D03*
D11*
X144625000Y-98005000D02*
X144625000Y-100955000D01*
X143175000Y-100955000D01*
X143175000Y-98005000D01*
X144625000Y-98005000D01*
D12*
%TO.P,R59,1*%
X143900000Y-98655000D03*
D13*
%TO.P,R59,2*%
X143900000Y-100305000D03*
%TD*%
D10*
%TO.C,R15*%
%TO.CFtp,R_0603_1608Metric*%
%TO.CVal,10k*%
%TO.CLbN,Resistor_SMD*%
%TO.CMnt,SMD*%
%TO.CRot,0*%
X118550000Y-115270000D03*
D11*
X120025000Y-114545000D02*
X120025000Y-115995000D01*
X117075000Y-115995000D01*
X117075000Y-114545000D01*
X120025000Y-114545000D01*
D12*
%TO.P,R15,1*%
X119375000Y-115270000D03*
D13*
%TO.P,R15,2*%
X117725000Y-115270000D03*
%TD*%
D10*
%TO.C,R12*%
%TO.CFtp,R_0603_1608Metric*%
%TO.CVal,100k*%
%TO.CLbN,Resistor_SMD*%
%TO.CMnt,SMD*%
%TO.CRot,90*%
X155470000Y-142190000D03*
D11*
X156195000Y-140715000D02*
X156195000Y-143665000D01*
X154745000Y-143665000D01*
X154745000Y-140715000D01*
X156195000Y-140715000D01*
D12*
%TO.P,R12,1*%
X155470000Y-141365000D03*
D13*
%TO.P,R12,2*%
X155470000Y-143015000D03*
%TD*%
D10*
%TO.C,C43*%
%TO.CFtp,C_0603_1608Metric*%
%TO.CVal,1uF*%
%TO.CLbN,Capacitor_SMD*%
%TO.CMnt,SMD*%
%TO.CRot,-90*%
X155900000Y-148160000D03*
D11*
X156625000Y-146685000D02*
X156625000Y-149635000D01*
X155175000Y-149635000D01*
X155175000Y-146685000D01*
X156625000Y-146685000D01*
D12*
%TO.P,C43,1*%
X155900000Y-148935000D03*
D13*
%TO.P,C43,2*%
X155900000Y-147385000D03*
%TD*%
D10*
%TO.C,C34*%
%TO.CFtp,C_0603_1608Metric*%
%TO.CVal,20pF*%
%TO.CLbN,Capacitor_SMD*%
%TO.CMnt,SMD*%
%TO.CRot,0*%
X98930000Y-80610000D03*
D11*
X100405000Y-79885000D02*
X100405000Y-81335000D01*
X97455000Y-81335000D01*
X97455000Y-79885000D01*
X100405000Y-79885000D01*
D12*
%TO.P,C34,1*%
X99705000Y-80610000D03*
D13*
%TO.P,C34,2*%
X98155000Y-80610000D03*
%TD*%
D10*
%TO.C,C26*%
%TO.CFtp,C_0603_1608Metric*%
%TO.CVal,1nF*%
%TO.CLbN,Capacitor_SMD*%
%TO.CMnt,SMD*%
%TO.CRot,0*%
X121870000Y-110920000D03*
D11*
X123345000Y-110195000D02*
X123345000Y-111645000D01*
X120395000Y-111645000D01*
X120395000Y-110195000D01*
X123345000Y-110195000D01*
D12*
%TO.P,C26,1*%
X122645000Y-110920000D03*
D13*
%TO.P,C26,2*%
X121095000Y-110920000D03*
%TD*%
D10*
%TO.C,R33*%
%TO.CFtp,R_0603_1608Metric*%
%TO.CVal,3.3k*%
%TO.CLbN,Resistor_SMD*%
%TO.CMnt,SMD*%
%TO.CRot,0*%
X93360000Y-83450000D03*
D11*
X94835000Y-82725000D02*
X94835000Y-84175000D01*
X91885000Y-84175000D01*
X91885000Y-82725000D01*
X94835000Y-82725000D01*
D12*
%TO.P,R33,1*%
X94185000Y-83450000D03*
D13*
%TO.P,R33,2*%
X92535000Y-83450000D03*
%TD*%
D10*
%TO.C,R63*%
%TO.CFtp,R_0603_1608Metric*%
%TO.CVal,0.51k*%
%TO.CLbN,Resistor_SMD*%
%TO.CMnt,SMD*%
%TO.CRot,180*%
X140080000Y-131390000D03*
D11*
X141555000Y-130665000D02*
X141555000Y-132115000D01*
X138605000Y-132115000D01*
X138605000Y-130665000D01*
X141555000Y-130665000D01*
D12*
%TO.P,R63,1*%
X139255000Y-131390000D03*
D13*
%TO.P,R63,2*%
X140905000Y-131390000D03*
%TD*%
D10*
%TO.C,R29*%
%TO.CFtp,R_0603_1608Metric*%
%TO.CVal,10k*%
%TO.CLbN,Resistor_SMD*%
%TO.CMnt,SMD*%
%TO.CRot,90*%
X122580000Y-118930000D03*
D11*
X123305000Y-117455000D02*
X123305000Y-120405000D01*
X121855000Y-120405000D01*
X121855000Y-117455000D01*
X123305000Y-117455000D01*
D12*
%TO.P,R29,1*%
X122580000Y-118105000D03*
D13*
%TO.P,R29,2*%
X122580000Y-119755000D03*
%TD*%
D10*
%TO.C,R50*%
%TO.CFtp,R_0603_1608Metric*%
%TO.CVal,10k*%
%TO.CLbN,Resistor_SMD*%
%TO.CMnt,SMD*%
%TO.CRot,-90*%
X139350000Y-102280000D03*
D11*
X140075000Y-100805000D02*
X140075000Y-103755000D01*
X138625000Y-103755000D01*
X138625000Y-100805000D01*
X140075000Y-100805000D01*
D12*
%TO.P,R50,1*%
X139350000Y-103105000D03*
D13*
%TO.P,R50,2*%
X139350000Y-101455000D03*
%TD*%
D10*
%TO.C,C46*%
%TO.CFtp,C_0603_1608Metric*%
%TO.CVal,100nF*%
%TO.CLbN,Capacitor_SMD*%
%TO.CMnt,SMD*%
%TO.CRot,180*%
X140080000Y-106824000D03*
D11*
X141555000Y-106099000D02*
X141555000Y-107549000D01*
X138605000Y-107549000D01*
X138605000Y-106099000D01*
X141555000Y-106099000D01*
D12*
%TO.P,C46,1*%
X139305000Y-106824000D03*
D13*
%TO.P,C46,2*%
X140855000Y-106824000D03*
%TD*%
D10*
%TO.C,R37*%
%TO.CFtp,R_0603_1608Metric*%
%TO.CVal,3.3k*%
%TO.CLbN,Resistor_SMD*%
%TO.CMnt,SMD*%
%TO.CRot,0*%
X161290000Y-85440000D03*
D11*
X162765000Y-84715000D02*
X162765000Y-86165000D01*
X159815000Y-86165000D01*
X159815000Y-84715000D01*
X162765000Y-84715000D01*
D12*
%TO.P,R37,1*%
X162115000Y-85440000D03*
D13*
%TO.P,R37,2*%
X160465000Y-85440000D03*
%TD*%
D10*
%TO.C,C18*%
%TO.CFtp,C_0603_1608Metric*%
%TO.CVal,47nF*%
%TO.CLbN,Capacitor_SMD*%
%TO.CMnt,SMD*%
%TO.CRot,0*%
X107600000Y-115420000D03*
D11*
X109075000Y-114695000D02*
X109075000Y-116145000D01*
X106125000Y-116145000D01*
X106125000Y-114695000D01*
X109075000Y-114695000D01*
D12*
%TO.P,C18,1*%
X108375000Y-115420000D03*
D13*
%TO.P,C18,2*%
X106825000Y-115420000D03*
%TD*%
D10*
%TO.C,R1*%
%TO.CFtp,R_0603_1608Metric*%
%TO.CVal,100*%
%TO.CLbN,Resistor_SMD*%
%TO.CMnt,SMD*%
%TO.CRot,0*%
X135840000Y-95300000D03*
D11*
X137315000Y-94575000D02*
X137315000Y-96025000D01*
X134365000Y-96025000D01*
X134365000Y-94575000D01*
X137315000Y-94575000D01*
D12*
%TO.P,R1,1*%
X136665000Y-95300000D03*
D13*
%TO.P,R1,2*%
X135015000Y-95300000D03*
%TD*%
D10*
%TO.C,D1*%
%TO.CFtp,D_SOD-923*%
%TO.CVal,ESD9B5.0ST5G*%
%TO.CLbN,Diode_SMD*%
%TO.CMnt,SMD*%
%TO.CRot,90*%
X161160000Y-150190000D03*
D11*
X161435000Y-149445000D02*
X161435000Y-149645000D01*
X161605000Y-149645000D01*
X161605000Y-150735000D01*
X161435000Y-150735000D01*
X161435000Y-150935000D01*
X160885000Y-150935000D01*
X160885000Y-150735000D01*
X160715000Y-150735000D01*
X160715000Y-149645000D01*
X160885000Y-149645000D01*
X160885000Y-149445000D01*
X161435000Y-149445000D01*
D12*
%TO.P,D1,1,A1*%
X161160000Y-149770000D03*
D13*
%TO.P,D1,2,A2*%
X161160000Y-150610000D03*
%TD*%
D10*
%TO.C,C59*%
%TO.CFtp,C_0603_1608Metric*%
%TO.CVal,100nF*%
%TO.CLbN,Capacitor_SMD*%
%TO.CMnt,SMD*%
%TO.CRot,180*%
X99180000Y-113960000D03*
D11*
X100655000Y-113235000D02*
X100655000Y-114685000D01*
X97705000Y-114685000D01*
X97705000Y-113235000D01*
X100655000Y-113235000D01*
D12*
%TO.P,C59,1*%
X98405000Y-113960000D03*
D13*
%TO.P,C59,2*%
X99955000Y-113960000D03*
%TD*%
D10*
%TO.C,C32*%
%TO.CFtp,C_0603_1608Metric*%
%TO.CVal,1nF*%
%TO.CLbN,Capacitor_SMD*%
%TO.CMnt,SMD*%
%TO.CRot,0*%
X121850000Y-96200000D03*
D11*
X123325000Y-95475000D02*
X123325000Y-96925000D01*
X120375000Y-96925000D01*
X120375000Y-95475000D01*
X123325000Y-95475000D01*
D12*
%TO.P,C32,1*%
X122625000Y-96200000D03*
D13*
%TO.P,C32,2*%
X121075000Y-96200000D03*
%TD*%
D10*
%TO.C,R14*%
%TO.CFtp,R_0603_1608Metric*%
%TO.CVal,680*%
%TO.CLbN,Resistor_SMD*%
%TO.CMnt,SMD*%
%TO.CRot,180*%
X118530000Y-113220000D03*
D11*
X120005000Y-112495000D02*
X120005000Y-113945000D01*
X117055000Y-113945000D01*
X117055000Y-112495000D01*
X120005000Y-112495000D01*
D12*
%TO.P,R14,1*%
X117705000Y-113220000D03*
D13*
%TO.P,R14,2*%
X119355000Y-113220000D03*
%TD*%
D10*
%TO.C,R17*%
%TO.CFtp,R_0603_1608Metric*%
%TO.CVal,10k*%
%TO.CLbN,Resistor_SMD*%
%TO.CMnt,SMD*%
%TO.CRot,90*%
X144940000Y-137935000D03*
D11*
X145665000Y-136460000D02*
X145665000Y-139410000D01*
X144215000Y-139410000D01*
X144215000Y-136460000D01*
X145665000Y-136460000D01*
D12*
%TO.P,R17,1*%
X144940000Y-137110000D03*
D13*
%TO.P,R17,2*%
X144940000Y-138760000D03*
%TD*%
D10*
%TO.C,R23*%
%TO.CFtp,R_0603_1608Metric*%
%TO.CVal,10k*%
%TO.CLbN,Resistor_SMD*%
%TO.CMnt,SMD*%
%TO.CRot,180*%
X91350000Y-117280000D03*
D11*
X92825000Y-116555000D02*
X92825000Y-118005000D01*
X89875000Y-118005000D01*
X89875000Y-116555000D01*
X92825000Y-116555000D01*
D12*
%TO.P,R23,1*%
X90525000Y-117280000D03*
D13*
%TO.P,R23,2*%
X92175000Y-117280000D03*
%TD*%
D10*
%TO.C,R48*%
%TO.CFtp,R_0603_1608Metric*%
%TO.CVal,10k*%
%TO.CLbN,Resistor_SMD*%
%TO.CMnt,SMD*%
%TO.CRot,180*%
X140080000Y-104982000D03*
D11*
X141555000Y-104257000D02*
X141555000Y-105707000D01*
X138605000Y-105707000D01*
X138605000Y-104257000D01*
X141555000Y-104257000D01*
D12*
%TO.P,R48,1*%
X139255000Y-104982000D03*
D13*
%TO.P,R48,2*%
X140905000Y-104982000D03*
%TD*%
D10*
%TO.C,R16*%
%TO.CFtp,R_0603_1608Metric*%
%TO.CVal,300k*%
%TO.CLbN,Resistor_SMD*%
%TO.CMnt,SMD*%
%TO.CRot,-90*%
X143270000Y-137935000D03*
D11*
X143995000Y-136460000D02*
X143995000Y-139410000D01*
X142545000Y-139410000D01*
X142545000Y-136460000D01*
X143995000Y-136460000D01*
D12*
%TO.P,R16,1*%
X143270000Y-138760000D03*
D13*
%TO.P,R16,2*%
X143270000Y-137110000D03*
%TD*%
D10*
%TO.C,C14*%
%TO.CFtp,C_1210_3225Metric*%
%TO.CVal,10uF/16v*%
%TO.CLbN,Capacitor_SMD*%
%TO.CMnt,SMD*%
%TO.CRot,0*%
X145530000Y-119950000D03*
D11*
X147825000Y-118355000D02*
X147825000Y-121545000D01*
X143235000Y-121545000D01*
X143235000Y-118355000D01*
X147825000Y-118355000D01*
D12*
%TO.P,C14,1*%
X147005000Y-119950000D03*
D13*
%TO.P,C14,2*%
X144055000Y-119950000D03*
%TD*%
D10*
%TO.C,C51*%
%TO.CFtp,C_0603_1608Metric*%
%TO.CVal,1nF*%
%TO.CLbN,Capacitor_SMD*%
%TO.CMnt,SMD*%
%TO.CRot,180*%
X140080000Y-122400000D03*
D11*
X141555000Y-121675000D02*
X141555000Y-123125000D01*
X138605000Y-123125000D01*
X138605000Y-121675000D01*
X141555000Y-121675000D01*
D12*
%TO.P,C51,1*%
X139305000Y-122400000D03*
D13*
%TO.P,C51,2*%
X140855000Y-122400000D03*
%TD*%
D10*
%TO.C,C57*%
%TO.CFtp,C_0603_1608Metric*%
%TO.CVal,100nF*%
%TO.CLbN,Capacitor_SMD*%
%TO.CMnt,SMD*%
%TO.CRot,180*%
X140080000Y-133098000D03*
D11*
X141555000Y-132373000D02*
X141555000Y-133823000D01*
X138605000Y-133823000D01*
X138605000Y-132373000D01*
X141555000Y-132373000D01*
D12*
%TO.P,C57,1*%
X139305000Y-133098000D03*
D13*
%TO.P,C57,2*%
X140855000Y-133098000D03*
%TD*%
D10*
%TO.C,C44*%
%TO.CFtp,C_0603_1608Metric*%
%TO.CVal,1nF*%
%TO.CLbN,Capacitor_SMD*%
%TO.CMnt,SMD*%
%TO.CRot,180*%
X140080000Y-110508000D03*
D11*
X141555000Y-109783000D02*
X141555000Y-111233000D01*
X138605000Y-111233000D01*
X138605000Y-109783000D01*
X141555000Y-109783000D01*
D12*
%TO.P,C44,1*%
X139305000Y-110508000D03*
D13*
%TO.P,C44,2*%
X140855000Y-110508000D03*
%TD*%
D10*
%TO.C,C37*%
%TO.CFtp,C_0603_1608Metric*%
%TO.CVal,20pF*%
%TO.CLbN,Capacitor_SMD*%
%TO.CMnt,SMD*%
%TO.CRot,0*%
X168810000Y-86500000D03*
D11*
X170285000Y-85775000D02*
X170285000Y-87225000D01*
X167335000Y-87225000D01*
X167335000Y-85775000D01*
X170285000Y-85775000D01*
D12*
%TO.P,C37,1*%
X169585000Y-86500000D03*
D13*
%TO.P,C37,2*%
X168035000Y-86500000D03*
%TD*%
D10*
%TO.C,C42*%
%TO.CFtp,C_0603_1608Metric*%
%TO.CVal,1uF*%
%TO.CLbN,Capacitor_SMD*%
%TO.CMnt,SMD*%
%TO.CRot,0*%
X148140000Y-93220000D03*
D11*
X149615000Y-92495000D02*
X149615000Y-93945000D01*
X146665000Y-93945000D01*
X146665000Y-92495000D01*
X149615000Y-92495000D01*
D12*
%TO.P,C42,1*%
X148915000Y-93220000D03*
D13*
%TO.P,C42,2*%
X147365000Y-93220000D03*
%TD*%
D10*
%TO.C,D3*%
%TO.CFtp,D_SOD-923*%
%TO.CVal,ESD9B5.0ST5G*%
%TO.CLbN,Diode_SMD*%
%TO.CMnt,SMD*%
%TO.CRot,-90*%
X164520000Y-141160000D03*
D11*
X164795000Y-140415000D02*
X164795000Y-140615000D01*
X164965000Y-140615000D01*
X164965000Y-141705000D01*
X164795000Y-141705000D01*
X164795000Y-141905000D01*
X164245000Y-141905000D01*
X164245000Y-141705000D01*
X164075000Y-141705000D01*
X164075000Y-140615000D01*
X164245000Y-140615000D01*
X164245000Y-140415000D01*
X164795000Y-140415000D01*
D12*
%TO.P,D3,1,A1*%
X164520000Y-141580000D03*
D13*
%TO.P,D3,2,A2*%
X164520000Y-140740000D03*
%TD*%
D10*
%TO.C,R60*%
%TO.CFtp,R_0603_1608Metric*%
%TO.CVal,10k*%
%TO.CLbN,Resistor_SMD*%
%TO.CMnt,SMD*%
%TO.CRot,180*%
X140080000Y-129682000D03*
D11*
X141555000Y-128957000D02*
X141555000Y-130407000D01*
X138605000Y-130407000D01*
X138605000Y-128957000D01*
X141555000Y-128957000D01*
D12*
%TO.P,R60,1*%
X139255000Y-129682000D03*
D13*
%TO.P,R60,2*%
X140905000Y-129682000D03*
%TD*%
D10*
%TO.C,R25*%
%TO.CFtp,R_0603_1608Metric*%
%TO.CVal,1k*%
%TO.CLbN,Resistor_SMD*%
%TO.CMnt,SMD*%
%TO.CRot,-90*%
X101270000Y-123650000D03*
D11*
X101995000Y-122175000D02*
X101995000Y-125125000D01*
X100545000Y-125125000D01*
X100545000Y-122175000D01*
X101995000Y-122175000D01*
D12*
%TO.P,R25,1*%
X101270000Y-124475000D03*
D13*
%TO.P,R25,2*%
X101270000Y-122825000D03*
%TD*%
D10*
%TO.C,R30*%
%TO.CFtp,R_0603_1608Metric*%
%TO.CVal,0.51k*%
%TO.CLbN,Resistor_SMD*%
%TO.CMnt,SMD*%
%TO.CRot,0*%
X121860000Y-112670000D03*
D11*
X123335000Y-111945000D02*
X123335000Y-113395000D01*
X120385000Y-113395000D01*
X120385000Y-111945000D01*
X123335000Y-111945000D01*
D12*
%TO.P,R30,1*%
X122685000Y-112670000D03*
D13*
%TO.P,R30,2*%
X121035000Y-112670000D03*
%TD*%
D10*
%TO.C,R21*%
%TO.CFtp,R_0603_1608Metric*%
%TO.CVal,1.3k*%
%TO.CLbN,Resistor_SMD*%
%TO.CMnt,SMD*%
%TO.CRot,90*%
X99790000Y-119910000D03*
D11*
X100515000Y-118435000D02*
X100515000Y-121385000D01*
X99065000Y-121385000D01*
X99065000Y-118435000D01*
X100515000Y-118435000D01*
D12*
%TO.P,R21,1*%
X99790000Y-119085000D03*
D13*
%TO.P,R21,2*%
X99790000Y-120735000D03*
%TD*%
D10*
%TO.C,R18*%
%TO.CFtp,R_0603_1608Metric*%
%TO.CVal,10k*%
%TO.CLbN,Resistor_SMD*%
%TO.CMnt,SMD*%
%TO.CRot,-90*%
X146560000Y-137950000D03*
D11*
X147285000Y-136475000D02*
X147285000Y-139425000D01*
X145835000Y-139425000D01*
X145835000Y-136475000D01*
X147285000Y-136475000D01*
D12*
%TO.P,R18,1*%
X146560000Y-138775000D03*
D13*
%TO.P,R18,2*%
X146560000Y-137125000D03*
%TD*%
D10*
%TO.C,D8*%
%TO.CFtp,D_SMA*%
%TO.CVal,SMAJ13CA*%
%TO.CLbN,Diode_SMD*%
%TO.CMnt,SMD*%
%TO.CRot,180*%
X114752500Y-89460000D03*
D11*
X118247500Y-87715000D02*
X118247500Y-91205000D01*
X111257500Y-91205000D01*
X111257500Y-87715000D01*
X118247500Y-87715000D01*
D12*
%TO.P,D8,1,A1*%
X112752500Y-89460000D03*
D13*
%TO.P,D8,2,A2*%
X116752500Y-89460000D03*
%TD*%
D10*
%TO.C,R22*%
%TO.CFtp,R_0603_1608Metric*%
%TO.CVal,62k*%
%TO.CLbN,Resistor_SMD*%
%TO.CMnt,SMD*%
%TO.CRot,-90*%
X101460000Y-119930000D03*
D11*
X102185000Y-118455000D02*
X102185000Y-121405000D01*
X100735000Y-121405000D01*
X100735000Y-118455000D01*
X102185000Y-118455000D01*
D12*
%TO.P,R22,1*%
X101460000Y-120755000D03*
D13*
%TO.P,R22,2*%
X101460000Y-119105000D03*
%TD*%
D10*
%TO.C,R8*%
%TO.CFtp,R_0603_1608Metric*%
%TO.CVal,10K*%
%TO.CLbN,Resistor_SMD*%
%TO.CMnt,SMD*%
%TO.CRot,-90*%
X152710000Y-101080000D03*
D11*
X153435000Y-99605000D02*
X153435000Y-102555000D01*
X151985000Y-102555000D01*
X151985000Y-99605000D01*
X153435000Y-99605000D01*
D12*
%TO.P,R8,1*%
X152710000Y-101905000D03*
D13*
%TO.P,R8,2*%
X152710000Y-100255000D03*
%TD*%
D10*
%TO.C,D2*%
%TO.CFtp,D_SOD-923*%
%TO.CVal,ESD9B5.0ST5G*%
%TO.CLbN,Diode_SMD*%
%TO.CMnt,SMD*%
%TO.CRot,90*%
X162160000Y-150200000D03*
D11*
X162435000Y-149455000D02*
X162435000Y-149655000D01*
X162605000Y-149655000D01*
X162605000Y-150745000D01*
X162435000Y-150745000D01*
X162435000Y-150945000D01*
X161885000Y-150945000D01*
X161885000Y-150745000D01*
X161715000Y-150745000D01*
X161715000Y-149655000D01*
X161885000Y-149655000D01*
X161885000Y-149455000D01*
X162435000Y-149455000D01*
D12*
%TO.P,D2,1,A1*%
X162160000Y-149780000D03*
D13*
%TO.P,D2,2,A2*%
X162160000Y-150620000D03*
%TD*%
D10*
%TO.C,R19*%
%TO.CFtp,R_0603_1608Metric*%
%TO.CVal,10k*%
%TO.CLbN,Resistor_SMD*%
%TO.CMnt,SMD*%
%TO.CRot,0*%
X161940000Y-135180000D03*
D11*
X163415000Y-134455000D02*
X163415000Y-135905000D01*
X160465000Y-135905000D01*
X160465000Y-134455000D01*
X163415000Y-134455000D01*
D12*
%TO.P,R19,1*%
X162765000Y-135180000D03*
D13*
%TO.P,R19,2*%
X161115000Y-135180000D03*
%TD*%
D10*
%TO.C,C22*%
%TO.CFtp,C_0603_1608Metric*%
%TO.CVal,10uF/10v*%
%TO.CLbN,Capacitor_SMD*%
%TO.CMnt,SMD*%
%TO.CRot,90*%
X95920000Y-123660000D03*
D11*
X96645000Y-122185000D02*
X96645000Y-125135000D01*
X95195000Y-125135000D01*
X95195000Y-122185000D01*
X96645000Y-122185000D01*
D12*
%TO.P,C22,1*%
X95920000Y-122885000D03*
D13*
%TO.P,C22,2*%
X95920000Y-124435000D03*
%TD*%
D10*
%TO.C,C2*%
%TO.CFtp,C_0603_1608Metric*%
%TO.CVal,100nF*%
%TO.CLbN,Capacitor_SMD*%
%TO.CMnt,SMD*%
%TO.CRot,180*%
X135820000Y-92090000D03*
D11*
X137295000Y-91365000D02*
X137295000Y-92815000D01*
X134345000Y-92815000D01*
X134345000Y-91365000D01*
X137295000Y-91365000D01*
D12*
%TO.P,C2,1*%
X135045000Y-92090000D03*
D13*
%TO.P,C2,2*%
X136595000Y-92090000D03*
%TD*%
D10*
%TO.C,R2*%
%TO.CFtp,R_0603_1608Metric*%
%TO.CVal,100*%
%TO.CLbN,Resistor_SMD*%
%TO.CMnt,SMD*%
%TO.CRot,0*%
X135830000Y-93690000D03*
D11*
X137305000Y-92965000D02*
X137305000Y-94415000D01*
X134355000Y-94415000D01*
X134355000Y-92965000D01*
X137305000Y-92965000D01*
D12*
%TO.P,R2,1*%
X136655000Y-93690000D03*
D13*
%TO.P,R2,2*%
X135005000Y-93690000D03*
%TD*%
D10*
%TO.C,C7*%
%TO.CFtp,C_1210_3225Metric*%
%TO.CVal,10uf/50v*%
%TO.CLbN,Capacitor_SMD*%
%TO.CMnt,SMD*%
%TO.CRot,180*%
X152920000Y-131110000D03*
D11*
X155215000Y-129515000D02*
X155215000Y-132705000D01*
X150625000Y-132705000D01*
X150625000Y-129515000D01*
X155215000Y-129515000D01*
D12*
%TO.P,C7,1*%
X151445000Y-131110000D03*
D13*
%TO.P,C7,2*%
X154395000Y-131110000D03*
%TD*%
D10*
%TO.C,C31*%
%TO.CFtp,C_0603_1608Metric*%
%TO.CVal,20pF*%
%TO.CLbN,Capacitor_SMD*%
%TO.CMnt,SMD*%
%TO.CRot,0*%
X98940000Y-83770000D03*
D11*
X100415000Y-83045000D02*
X100415000Y-84495000D01*
X97465000Y-84495000D01*
X97465000Y-83045000D01*
X100415000Y-83045000D01*
D12*
%TO.P,C31,1*%
X99715000Y-83770000D03*
D13*
%TO.P,C31,2*%
X98165000Y-83770000D03*
%TD*%
D10*
%TO.C,C23*%
%TO.CFtp,C_0603_1608Metric*%
%TO.CVal,10uF/10v*%
%TO.CLbN,Capacitor_SMD*%
%TO.CMnt,SMD*%
%TO.CRot,-90*%
X97740000Y-123660000D03*
D11*
X98465000Y-122185000D02*
X98465000Y-125135000D01*
X97015000Y-125135000D01*
X97015000Y-122185000D01*
X98465000Y-122185000D01*
D12*
%TO.P,C23,1*%
X97740000Y-124435000D03*
D13*
%TO.P,C23,2*%
X97740000Y-122885000D03*
%TD*%
D10*
%TO.C,R28*%
%TO.CFtp,R_0603_1608Metric*%
%TO.CVal,1k*%
%TO.CLbN,Resistor_SMD*%
%TO.CMnt,SMD*%
%TO.CRot,0*%
X121870000Y-109102000D03*
D11*
X123345000Y-108377000D02*
X123345000Y-109827000D01*
X120395000Y-109827000D01*
X120395000Y-108377000D01*
X123345000Y-108377000D01*
D12*
%TO.P,R28,1*%
X122695000Y-109102000D03*
D13*
%TO.P,R28,2*%
X121045000Y-109102000D03*
%TD*%
D10*
%TO.C,D15*%
%TO.CFtp,D_SMA*%
%TO.CVal,SMAJ13CA*%
%TO.CLbN,Diode_SMD*%
%TO.CMnt,SMD*%
%TO.CRot,180*%
X114762500Y-85660000D03*
D11*
X118257500Y-83915000D02*
X118257500Y-87405000D01*
X111267500Y-87405000D01*
X111267500Y-83915000D01*
X118257500Y-83915000D01*
D12*
%TO.P,D15,1,A1*%
X112762500Y-85660000D03*
D13*
%TO.P,D15,2,A2*%
X116762500Y-85660000D03*
%TD*%
D10*
%TO.C,C4*%
%TO.CFtp,C_0603_1608Metric*%
%TO.CVal,10uF*%
%TO.CLbN,Capacitor_SMD*%
%TO.CMnt,SMD*%
%TO.CRot,0*%
X161940000Y-102560000D03*
D11*
X163415000Y-101835000D02*
X163415000Y-103285000D01*
X160465000Y-103285000D01*
X160465000Y-101835000D01*
X163415000Y-101835000D01*
D12*
%TO.P,C4,1*%
X162715000Y-102560000D03*
D13*
%TO.P,C4,2*%
X161165000Y-102560000D03*
%TD*%
D10*
%TO.C,R51*%
%TO.CFtp,R_0603_1608Metric*%
%TO.CVal,0.51k*%
%TO.CLbN,Resistor_SMD*%
%TO.CMnt,SMD*%
%TO.CRot,180*%
X140080000Y-108666000D03*
D11*
X141555000Y-107941000D02*
X141555000Y-109391000D01*
X138605000Y-109391000D01*
X138605000Y-107941000D01*
X141555000Y-107941000D01*
D12*
%TO.P,R51,1*%
X139255000Y-108666000D03*
D13*
%TO.P,R51,2*%
X140905000Y-108666000D03*
%TD*%
D10*
%TO.C,C56*%
%TO.CFtp,C_0603_1608Metric*%
%TO.CVal,20pF*%
%TO.CLbN,Capacitor_SMD*%
%TO.CMnt,SMD*%
%TO.CRot,0*%
X168790000Y-90340000D03*
D11*
X170265000Y-89615000D02*
X170265000Y-91065000D01*
X167315000Y-91065000D01*
X167315000Y-89615000D01*
X170265000Y-89615000D01*
D12*
%TO.P,C56,1*%
X169565000Y-90340000D03*
D13*
%TO.P,C56,2*%
X168015000Y-90340000D03*
%TD*%
D10*
%TO.C,C33*%
%TO.CFtp,C_0603_1608Metric*%
%TO.CVal,100nF*%
%TO.CLbN,Capacitor_SMD*%
%TO.CMnt,SMD*%
%TO.CRot,0*%
X121850000Y-99860000D03*
D11*
X123325000Y-99135000D02*
X123325000Y-100585000D01*
X120375000Y-100585000D01*
X120375000Y-99135000D01*
X123325000Y-99135000D01*
D12*
%TO.P,C33,1*%
X122625000Y-99860000D03*
D13*
%TO.P,C33,2*%
X121075000Y-99860000D03*
%TD*%
D10*
%TO.C,R6*%
%TO.CFtp,R_0603_1608Metric*%
%TO.CVal,10K*%
%TO.CLbN,Resistor_SMD*%
%TO.CMnt,SMD*%
%TO.CRot,180*%
X148160000Y-90620000D03*
D11*
X149635000Y-89895000D02*
X149635000Y-91345000D01*
X146685000Y-91345000D01*
X146685000Y-89895000D01*
X149635000Y-89895000D01*
D12*
%TO.P,R6,1*%
X147335000Y-90620000D03*
D13*
%TO.P,R6,2*%
X148985000Y-90620000D03*
%TD*%
D10*
%TO.C,R49*%
%TO.CFtp,R_0603_1608Metric*%
%TO.CVal,1k*%
%TO.CLbN,Resistor_SMD*%
%TO.CMnt,SMD*%
%TO.CRot,180*%
X140080000Y-112350000D03*
D11*
X141555000Y-111625000D02*
X141555000Y-113075000D01*
X138605000Y-113075000D01*
X138605000Y-111625000D01*
X141555000Y-111625000D01*
D12*
%TO.P,R49,1*%
X139255000Y-112350000D03*
D13*
%TO.P,R49,2*%
X140905000Y-112350000D03*
%TD*%
D10*
%TO.C,R43*%
%TO.CFtp,R_0603_1608Metric*%
%TO.CVal,3.3k*%
%TO.CLbN,Resistor_SMD*%
%TO.CMnt,SMD*%
%TO.CRot,0*%
X161270000Y-87430000D03*
D11*
X162745000Y-86705000D02*
X162745000Y-88155000D01*
X159795000Y-88155000D01*
X159795000Y-86705000D01*
X162745000Y-86705000D01*
D12*
%TO.P,R43,1*%
X162095000Y-87430000D03*
D13*
%TO.P,R43,2*%
X160445000Y-87430000D03*
%TD*%
D10*
%TO.C,R62*%
%TO.CFtp,R_0603_1608Metric*%
%TO.CVal,10k*%
%TO.CLbN,Resistor_SMD*%
%TO.CMnt,SMD*%
%TO.CRot,-90*%
X139230000Y-127050000D03*
D11*
X139955000Y-125575000D02*
X139955000Y-128525000D01*
X138505000Y-128525000D01*
X138505000Y-125575000D01*
X139955000Y-125575000D01*
D12*
%TO.P,R62,1*%
X139230000Y-127875000D03*
D13*
%TO.P,R62,2*%
X139230000Y-126225000D03*
%TD*%
D10*
%TO.C,C55*%
%TO.CFtp,C_0603_1608Metric*%
%TO.CVal,1nF*%
%TO.CLbN,Capacitor_SMD*%
%TO.CMnt,SMD*%
%TO.CRot,180*%
X140080000Y-136514000D03*
D11*
X141555000Y-135789000D02*
X141555000Y-137239000D01*
X138605000Y-137239000D01*
X138605000Y-135789000D01*
X141555000Y-135789000D01*
D12*
%TO.P,C55,1*%
X139305000Y-136514000D03*
D13*
%TO.P,C55,2*%
X140855000Y-136514000D03*
%TD*%
D10*
%TO.C,D4*%
%TO.CFtp,D_SMC*%
%TO.CVal,MBR120VLSFT1G*%
%TO.CLbN,Diode_SMD*%
%TO.CMnt,SMD*%
%TO.CRot,90*%
X152370000Y-119940000D03*
D11*
X155715000Y-115045000D02*
X155715000Y-124835000D01*
X149025000Y-124835000D01*
X149025000Y-115045000D01*
X155715000Y-115045000D01*
D12*
%TO.P,D4,1,K*%
X152370000Y-116540000D03*
D13*
%TO.P,D4,2,A*%
X152370000Y-123340000D03*
%TD*%
D10*
%TO.C,C5*%
%TO.CFtp,C_0603_1608Metric*%
%TO.CVal,100nF*%
%TO.CLbN,Capacitor_SMD*%
%TO.CMnt,SMD*%
%TO.CRot,180*%
X156030000Y-99790000D03*
D11*
X157505000Y-99065000D02*
X157505000Y-100515000D01*
X154555000Y-100515000D01*
X154555000Y-99065000D01*
X157505000Y-99065000D01*
D12*
%TO.P,C5,1*%
X155255000Y-99790000D03*
D13*
%TO.P,C5,2*%
X156805000Y-99790000D03*
%TD*%
D10*
%TO.C,C40*%
%TO.CFtp,C_0603_1608Metric*%
%TO.CVal,100nF*%
%TO.CLbN,Capacitor_SMD*%
%TO.CMnt,SMD*%
%TO.CRot,-90*%
X160640000Y-108840000D03*
D11*
X161365000Y-107365000D02*
X161365000Y-110315000D01*
X159915000Y-110315000D01*
X159915000Y-107365000D01*
X161365000Y-107365000D01*
D12*
%TO.P,C40,1*%
X160640000Y-109615000D03*
D13*
%TO.P,C40,2*%
X160640000Y-108065000D03*
%TD*%
D10*
%TO.C,C58*%
%TO.CFtp,C_0603_1608Metric*%
%TO.CVal,100nF*%
%TO.CLbN,Capacitor_SMD*%
%TO.CMnt,SMD*%
%TO.CRot,180*%
X168790000Y-88660000D03*
D11*
X170265000Y-87935000D02*
X170265000Y-89385000D01*
X167315000Y-89385000D01*
X167315000Y-87935000D01*
X170265000Y-87935000D01*
D12*
%TO.P,C58,1*%
X168015000Y-88660000D03*
D13*
%TO.P,C58,2*%
X169565000Y-88660000D03*
%TD*%
D10*
%TO.C,C8*%
%TO.CFtp,C_0603_1608Metric*%
%TO.CVal,100nf*%
%TO.CLbN,Capacitor_SMD*%
%TO.CMnt,SMD*%
%TO.CRot,-90*%
X149470000Y-137890000D03*
D11*
X150195000Y-136415000D02*
X150195000Y-139365000D01*
X148745000Y-139365000D01*
X148745000Y-136415000D01*
X150195000Y-136415000D01*
D12*
%TO.P,C8,1*%
X149470000Y-138665000D03*
D13*
%TO.P,C8,2*%
X149470000Y-137115000D03*
%TD*%
D10*
%TO.C,R61*%
%TO.CFtp,R_0603_1608Metric*%
%TO.CVal,1k*%
%TO.CLbN,Resistor_SMD*%
%TO.CMnt,SMD*%
%TO.CRot,180*%
X140080000Y-134806000D03*
D11*
X141555000Y-134081000D02*
X141555000Y-135531000D01*
X138605000Y-135531000D01*
X138605000Y-134081000D01*
X141555000Y-134081000D01*
D12*
%TO.P,R61,1*%
X139255000Y-134806000D03*
D13*
%TO.P,R61,2*%
X140905000Y-134806000D03*
%TD*%
D10*
%TO.C,C54*%
%TO.CFtp,C_0603_1608Metric*%
%TO.CVal,100nF*%
%TO.CLbN,Capacitor_SMD*%
%TO.CMnt,SMD*%
%TO.CRot,180*%
X98950000Y-77470000D03*
D11*
X100425000Y-76745000D02*
X100425000Y-78195000D01*
X97475000Y-78195000D01*
X97475000Y-76745000D01*
X100425000Y-76745000D01*
D12*
%TO.P,C54,1*%
X98175000Y-77470000D03*
D13*
%TO.P,C54,2*%
X99725000Y-77470000D03*
%TD*%
D10*
%TO.C,R36*%
%TO.CFtp,R_0603_1608Metric*%
%TO.CVal,0.51k*%
%TO.CLbN,Resistor_SMD*%
%TO.CMnt,SMD*%
%TO.CRot,0*%
X121850000Y-101690000D03*
D11*
X123325000Y-100965000D02*
X123325000Y-102415000D01*
X120375000Y-102415000D01*
X120375000Y-100965000D01*
X123325000Y-100965000D01*
D12*
%TO.P,R36,1*%
X122675000Y-101690000D03*
D13*
%TO.P,R36,2*%
X121025000Y-101690000D03*
%TD*%
D10*
%TO.C,R32*%
%TO.CFtp,R_0603_1608Metric*%
%TO.CVal,1k*%
%TO.CLbN,Resistor_SMD*%
%TO.CMnt,SMD*%
%TO.CRot,0*%
X121850000Y-98030000D03*
D11*
X123325000Y-97305000D02*
X123325000Y-98755000D01*
X120375000Y-98755000D01*
X120375000Y-97305000D01*
X123325000Y-97305000D01*
D12*
%TO.P,R32,1*%
X122675000Y-98030000D03*
D13*
%TO.P,R32,2*%
X121025000Y-98030000D03*
%TD*%
D10*
%TO.C,R39*%
%TO.CFtp,R_0603_1608Metric*%
%TO.CVal,10k*%
%TO.CLbN,Resistor_SMD*%
%TO.CMnt,SMD*%
%TO.CRot,0*%
X121860000Y-91230000D03*
D11*
X123335000Y-90505000D02*
X123335000Y-91955000D01*
X120385000Y-91955000D01*
X120385000Y-90505000D01*
X123335000Y-90505000D01*
D12*
%TO.P,R39,1*%
X122685000Y-91230000D03*
D13*
%TO.P,R39,2*%
X121035000Y-91230000D03*
%TD*%
D10*
%TO.C,C53*%
%TO.CFtp,C_0603_1608Metric*%
%TO.CVal,20pF*%
%TO.CLbN,Capacitor_SMD*%
%TO.CMnt,SMD*%
%TO.CRot,0*%
X98940000Y-79040000D03*
D11*
X100415000Y-78315000D02*
X100415000Y-79765000D01*
X97465000Y-79765000D01*
X97465000Y-78315000D01*
X100415000Y-78315000D01*
D12*
%TO.P,C53,1*%
X99715000Y-79040000D03*
D13*
%TO.P,C53,2*%
X98165000Y-79040000D03*
%TD*%
D10*
%TO.C,R52*%
%TO.CFtp,R_0603_1608Metric*%
%TO.CVal,10k*%
%TO.CLbN,Resistor_SMD*%
%TO.CMnt,SMD*%
%TO.CRot,180*%
X140080000Y-117276000D03*
D11*
X141555000Y-116551000D02*
X141555000Y-118001000D01*
X138605000Y-118001000D01*
X138605000Y-116551000D01*
X141555000Y-116551000D01*
D12*
%TO.P,R52,1*%
X139255000Y-117276000D03*
D13*
%TO.P,R52,2*%
X140905000Y-117276000D03*
%TD*%
D10*
%TO.C,R7*%
%TO.CFtp,R_0603_1608Metric*%
%TO.CVal,10k*%
%TO.CLbN,Resistor_SMD*%
%TO.CMnt,SMD*%
%TO.CRot,180*%
X153580000Y-103590000D03*
D11*
X155055000Y-102865000D02*
X155055000Y-104315000D01*
X152105000Y-104315000D01*
X152105000Y-102865000D01*
X155055000Y-102865000D01*
D12*
%TO.P,R7,1*%
X152755000Y-103590000D03*
D13*
%TO.P,R7,2*%
X154405000Y-103590000D03*
%TD*%
D10*
%TO.C,R11*%
%TO.CFtp,R_0603_1608Metric*%
%TO.CVal,62k*%
%TO.CLbN,Resistor_SMD*%
%TO.CMnt,SMD*%
%TO.CRot,180*%
X113460000Y-113190000D03*
D11*
X114935000Y-112465000D02*
X114935000Y-113915000D01*
X111985000Y-113915000D01*
X111985000Y-112465000D01*
X114935000Y-112465000D01*
D12*
%TO.P,R11,1*%
X112635000Y-113190000D03*
D13*
%TO.P,R11,2*%
X114285000Y-113190000D03*
%TD*%
D10*
%TO.C,C9*%
%TO.CFtp,C_0603_1608Metric*%
%TO.CVal,47nF*%
%TO.CLbN,Capacitor_SMD*%
%TO.CMnt,SMD*%
%TO.CRot,-90*%
X117700000Y-117870000D03*
D11*
X118425000Y-116395000D02*
X118425000Y-119345000D01*
X116975000Y-119345000D01*
X116975000Y-116395000D01*
X118425000Y-116395000D01*
D12*
%TO.P,C9,1*%
X117700000Y-118645000D03*
D13*
%TO.P,C9,2*%
X117700000Y-117095000D03*
%TD*%
D10*
%TO.C,R54*%
%TO.CFtp,R_0603_1608Metric*%
%TO.CVal,3.3k*%
%TO.CLbN,Resistor_SMD*%
%TO.CMnt,SMD*%
%TO.CRot,0*%
X161290000Y-83450000D03*
D11*
X162765000Y-82725000D02*
X162765000Y-84175000D01*
X159815000Y-84175000D01*
X159815000Y-82725000D01*
X162765000Y-82725000D01*
D12*
%TO.P,R54,1*%
X162115000Y-83450000D03*
D13*
%TO.P,R54,2*%
X160465000Y-83450000D03*
%TD*%
D10*
%TO.C,R10*%
%TO.CFtp,R_0603_1608Metric*%
%TO.CVal,1.3k*%
%TO.CLbN,Resistor_SMD*%
%TO.CMnt,SMD*%
%TO.CRot,0*%
X113460000Y-111600000D03*
D11*
X114935000Y-110875000D02*
X114935000Y-112325000D01*
X111985000Y-112325000D01*
X111985000Y-110875000D01*
X114935000Y-110875000D01*
D12*
%TO.P,R10,1*%
X114285000Y-111600000D03*
D13*
%TO.P,R10,2*%
X112635000Y-111600000D03*
%TD*%
D10*
%TO.C,R40*%
%TO.CFtp,R_0603_1608Metric*%
%TO.CVal,1k*%
%TO.CLbN,Resistor_SMD*%
%TO.CMnt,SMD*%
%TO.CRot,0*%
X121860000Y-85488000D03*
D11*
X123335000Y-84763000D02*
X123335000Y-86213000D01*
X120385000Y-86213000D01*
X120385000Y-84763000D01*
X123335000Y-84763000D01*
D12*
%TO.P,R40,1*%
X122685000Y-85488000D03*
D13*
%TO.P,R40,2*%
X121035000Y-85488000D03*
%TD*%
D10*
%TO.C,C27*%
%TO.CFtp,C_0603_1608Metric*%
%TO.CVal,100nF*%
%TO.CLbN,Capacitor_SMD*%
%TO.CMnt,SMD*%
%TO.CRot,0*%
X121860000Y-114488000D03*
D11*
X123335000Y-113763000D02*
X123335000Y-115213000D01*
X120385000Y-115213000D01*
X120385000Y-113763000D01*
X123335000Y-113763000D01*
D12*
%TO.P,C27,1*%
X122635000Y-114488000D03*
D13*
%TO.P,C27,2*%
X121085000Y-114488000D03*
%TD*%
D10*
%TO.C,R58*%
%TO.CFtp,R_0603_1608Metric*%
%TO.CVal,10K*%
%TO.CLbN,Resistor_SMD*%
%TO.CMnt,SMD*%
%TO.CRot,90*%
X146790000Y-99450000D03*
D11*
X147515000Y-97975000D02*
X147515000Y-100925000D01*
X146065000Y-100925000D01*
X146065000Y-97975000D01*
X147515000Y-97975000D01*
D12*
%TO.P,R58,1*%
X146790000Y-98625000D03*
D13*
%TO.P,R58,2*%
X146790000Y-100275000D03*
%TD*%
D10*
%TO.C,C52*%
%TO.CFtp,C_0603_1608Metric*%
%TO.CVal,100nF*%
%TO.CLbN,Capacitor_SMD*%
%TO.CMnt,SMD*%
%TO.CRot,180*%
X140080000Y-120692000D03*
D11*
X141555000Y-119967000D02*
X141555000Y-121417000D01*
X138605000Y-121417000D01*
X138605000Y-119967000D01*
X141555000Y-119967000D01*
D12*
%TO.P,C52,1*%
X139305000Y-120692000D03*
D13*
%TO.P,C52,2*%
X140855000Y-120692000D03*
%TD*%
D10*
%TO.C,R9*%
%TO.CFtp,R_0603_1608Metric*%
%TO.CVal,10K*%
%TO.CLbN,Resistor_SMD*%
%TO.CMnt,SMD*%
%TO.CRot,-90*%
X149580000Y-101160000D03*
D11*
X150305000Y-99685000D02*
X150305000Y-102635000D01*
X148855000Y-102635000D01*
X148855000Y-99685000D01*
X150305000Y-99685000D01*
D12*
%TO.P,R9,1*%
X149580000Y-101985000D03*
D13*
%TO.P,R9,2*%
X149580000Y-100335000D03*
%TD*%
D10*
%TO.C,R5*%
%TO.CFtp,R_0603_1608Metric*%
%TO.CVal,5K1*%
%TO.CLbN,Resistor_SMD*%
%TO.CMnt,SMD*%
%TO.CRot,90*%
X166420000Y-143150000D03*
D11*
X167145000Y-141675000D02*
X167145000Y-144625000D01*
X165695000Y-144625000D01*
X165695000Y-141675000D01*
X167145000Y-141675000D01*
D12*
%TO.P,R5,1*%
X166420000Y-142325000D03*
D13*
%TO.P,R5,2*%
X166420000Y-143975000D03*
%TD*%
D10*
%TO.C,C60*%
%TO.CFtp,C_0603_1608Metric*%
%TO.CVal,100nF*%
%TO.CLbN,Capacitor_SMD*%
%TO.CMnt,SMD*%
%TO.CRot,180*%
X98960000Y-91880000D03*
D11*
X100435000Y-91155000D02*
X100435000Y-92605000D01*
X97485000Y-92605000D01*
X97485000Y-91155000D01*
X100435000Y-91155000D01*
D12*
%TO.P,C60,1*%
X98185000Y-91880000D03*
D13*
%TO.P,C60,2*%
X99735000Y-91880000D03*
%TD*%
D10*
%TO.C,C11*%
%TO.CFtp,C_0603_1608Metric*%
%TO.CVal,68nF*%
%TO.CLbN,Capacitor_SMD*%
%TO.CMnt,SMD*%
%TO.CRot,180*%
X155110000Y-135940000D03*
D11*
X156585000Y-135215000D02*
X156585000Y-136665000D01*
X153635000Y-136665000D01*
X153635000Y-135215000D01*
X156585000Y-135215000D01*
D12*
%TO.P,C11,1*%
X154335000Y-135940000D03*
D13*
%TO.P,C11,2*%
X155885000Y-135940000D03*
%TD*%
D10*
%TO.C,C13*%
%TO.CFtp,C_0603_1608Metric*%
%TO.CVal,100nF*%
%TO.CLbN,Capacitor_SMD*%
%TO.CMnt,SMD*%
%TO.CRot,-90*%
X149620000Y-143220000D03*
D11*
X150345000Y-141745000D02*
X150345000Y-144695000D01*
X148895000Y-144695000D01*
X148895000Y-141745000D01*
X150345000Y-141745000D01*
D12*
%TO.P,C13,1*%
X149620000Y-143995000D03*
D13*
%TO.P,C13,2*%
X149620000Y-142445000D03*
%TD*%
D10*
%TO.C,R41*%
%TO.CFtp,R_0603_1608Metric*%
%TO.CVal,10k*%
%TO.CLbN,Resistor_SMD*%
%TO.CMnt,SMD*%
%TO.CRot,90*%
X122660000Y-93710000D03*
D11*
X123385000Y-92235000D02*
X123385000Y-95185000D01*
X121935000Y-95185000D01*
X121935000Y-92235000D01*
X123385000Y-92235000D01*
D12*
%TO.P,R41,1*%
X122660000Y-92885000D03*
D13*
%TO.P,R41,2*%
X122660000Y-94535000D03*
%TD*%
D10*
%TO.C,C20*%
%TO.CFtp,C_1206_3216Metric*%
%TO.CVal,4.7uf/50v*%
%TO.CLbN,Capacitor_SMD*%
%TO.CMnt,SMD*%
%TO.CRot,0*%
X113820000Y-117860000D03*
D11*
X116115000Y-116715000D02*
X116115000Y-119005000D01*
X111525000Y-119005000D01*
X111525000Y-116715000D01*
X116115000Y-116715000D01*
D12*
%TO.P,C20,1*%
X115295000Y-117860000D03*
D13*
%TO.P,C20,2*%
X112345000Y-117860000D03*
%TD*%
D10*
%TO.C,C25*%
%TO.CFtp,C_0603_1608Metric*%
%TO.CVal,100nf/50v*%
%TO.CLbN,Capacitor_SMD*%
%TO.CMnt,SMD*%
%TO.CRot,90*%
X110240000Y-123420000D03*
D11*
X110965000Y-121945000D02*
X110965000Y-124895000D01*
X109515000Y-124895000D01*
X109515000Y-121945000D01*
X110965000Y-121945000D01*
D12*
%TO.P,C25,1*%
X110240000Y-122645000D03*
D13*
%TO.P,C25,2*%
X110240000Y-124195000D03*
%TD*%
D10*
%TO.C,R26*%
%TO.CFtp,R_0603_1608Metric*%
%TO.CVal,10k*%
%TO.CLbN,Resistor_SMD*%
%TO.CMnt,SMD*%
%TO.CRot,90*%
X103020000Y-123640000D03*
D11*
X103745000Y-122165000D02*
X103745000Y-125115000D01*
X102295000Y-125115000D01*
X102295000Y-122165000D01*
X103745000Y-122165000D01*
D12*
%TO.P,R26,1*%
X103020000Y-122815000D03*
D13*
%TO.P,R26,2*%
X103020000Y-124465000D03*
%TD*%
D10*
%TO.C,D5*%
%TO.CFtp,D_SMC*%
%TO.CVal,MBR120VLSFT1G*%
%TO.CLbN,Diode_SMD*%
%TO.CMnt,SMD*%
%TO.CRot,-90*%
X152450000Y-109640000D03*
D11*
X155795000Y-104745000D02*
X155795000Y-114535000D01*
X149105000Y-114535000D01*
X149105000Y-104745000D01*
X155795000Y-104745000D01*
D12*
%TO.P,D5,1,K*%
X152450000Y-113040000D03*
D13*
%TO.P,D5,2,A*%
X152450000Y-106240000D03*
%TD*%
D10*
%TO.C,R55*%
%TO.CFtp,R_0603_1608Metric*%
%TO.CVal,10k*%
%TO.CLbN,Resistor_SMD*%
%TO.CMnt,SMD*%
%TO.CRot,-90*%
X139300000Y-114800000D03*
D11*
X140025000Y-113325000D02*
X140025000Y-116275000D01*
X138575000Y-116275000D01*
X138575000Y-113325000D01*
X140025000Y-113325000D01*
D12*
%TO.P,R55,1*%
X139300000Y-115625000D03*
D13*
%TO.P,R55,2*%
X139300000Y-113975000D03*
%TD*%
D10*
%TO.C,R57*%
%TO.CFtp,R_0603_1608Metric*%
%TO.CVal,0.51k*%
%TO.CLbN,Resistor_SMD*%
%TO.CMnt,SMD*%
%TO.CRot,180*%
X140080000Y-118984000D03*
D11*
X141555000Y-118259000D02*
X141555000Y-119709000D01*
X138605000Y-119709000D01*
X138605000Y-118259000D01*
X141555000Y-118259000D01*
D12*
%TO.P,R57,1*%
X139255000Y-118984000D03*
D13*
%TO.P,R57,2*%
X140905000Y-118984000D03*
%TD*%
D10*
%TO.C,R13*%
%TO.CFtp,R_0603_1608Metric*%
%TO.CVal,56k*%
%TO.CLbN,Resistor_SMD*%
%TO.CMnt,SMD*%
%TO.CRot,0*%
X118570000Y-111290000D03*
D11*
X120045000Y-110565000D02*
X120045000Y-112015000D01*
X117095000Y-112015000D01*
X117095000Y-110565000D01*
X120045000Y-110565000D01*
D12*
%TO.P,R13,1*%
X119395000Y-111290000D03*
D13*
%TO.P,R13,2*%
X117745000Y-111290000D03*
%TD*%
D10*
%TO.C,C1*%
%TO.CFtp,C_0603_1608Metric*%
%TO.CVal,10uF*%
%TO.CLbN,Capacitor_SMD*%
%TO.CMnt,SMD*%
%TO.CRot,90*%
X133060000Y-89720000D03*
D11*
X133785000Y-88245000D02*
X133785000Y-91195000D01*
X132335000Y-91195000D01*
X132335000Y-88245000D01*
X133785000Y-88245000D01*
D12*
%TO.P,C1,1*%
X133060000Y-88945000D03*
D13*
%TO.P,C1,2*%
X133060000Y-90495000D03*
%TD*%
D10*
%TO.C,C50*%
%TO.CFtp,C_0603_1608Metric*%
%TO.CVal,20pF*%
%TO.CLbN,Capacitor_SMD*%
%TO.CMnt,SMD*%
%TO.CRot,0*%
X168720000Y-82520000D03*
D11*
X170195000Y-81795000D02*
X170195000Y-83245000D01*
X167245000Y-83245000D01*
X167245000Y-81795000D01*
X170195000Y-81795000D01*
D12*
%TO.P,C50,1*%
X169495000Y-82520000D03*
D13*
%TO.P,C50,2*%
X167945000Y-82520000D03*
%TD*%
D10*
%TO.C,R20*%
%TO.CFtp,R_0603_1608Metric*%
%TO.CVal,10k*%
%TO.CLbN,Resistor_SMD*%
%TO.CMnt,SMD*%
%TO.CRot,90*%
X119700000Y-121080000D03*
D11*
X120425000Y-119605000D02*
X120425000Y-122555000D01*
X118975000Y-122555000D01*
X118975000Y-119605000D01*
X120425000Y-119605000D01*
D12*
%TO.P,R20,1*%
X119700000Y-120255000D03*
D13*
%TO.P,R20,2*%
X119700000Y-121905000D03*
%TD*%
D10*
%TO.C,R24*%
%TO.CFtp,R_0603_1608Metric*%
%TO.CVal,33k*%
%TO.CLbN,Resistor_SMD*%
%TO.CMnt,SMD*%
%TO.CRot,90*%
X99550000Y-123630000D03*
D11*
X100275000Y-122155000D02*
X100275000Y-125105000D01*
X98825000Y-125105000D01*
X98825000Y-122155000D01*
X100275000Y-122155000D01*
D12*
%TO.P,R24,1*%
X99550000Y-122805000D03*
D13*
%TO.P,R24,2*%
X99550000Y-124455000D03*
%TD*%
D10*
%TO.C,C41*%
%TO.CFtp,C_0603_1608Metric*%
%TO.CVal,100nF*%
%TO.CLbN,Capacitor_SMD*%
%TO.CMnt,SMD*%
%TO.CRot,90*%
X157890000Y-132840000D03*
D11*
X158615000Y-131365000D02*
X158615000Y-134315000D01*
X157165000Y-134315000D01*
X157165000Y-131365000D01*
X158615000Y-131365000D01*
D12*
%TO.P,C41,1*%
X157890000Y-132065000D03*
D13*
%TO.P,C41,2*%
X157890000Y-133615000D03*
%TD*%
D10*
%TO.C,C39*%
%TO.CFtp,C_0603_1608Metric*%
%TO.CVal,100nF*%
%TO.CLbN,Capacitor_SMD*%
%TO.CMnt,SMD*%
%TO.CRot,180*%
X168810000Y-84780000D03*
D11*
X170285000Y-84055000D02*
X170285000Y-85505000D01*
X167335000Y-85505000D01*
X167335000Y-84055000D01*
X170285000Y-84055000D01*
D12*
%TO.P,C39,1*%
X168035000Y-84780000D03*
D13*
%TO.P,C39,2*%
X169585000Y-84780000D03*
%TD*%
D10*
%TO.C,C19*%
%TO.CFtp,C_0603_1608Metric*%
%TO.CVal,100nF*%
%TO.CLbN,Capacitor_SMD*%
%TO.CMnt,SMD*%
%TO.CRot,180*%
X100570000Y-116970000D03*
D11*
X102045000Y-116245000D02*
X102045000Y-117695000D01*
X99095000Y-117695000D01*
X99095000Y-116245000D01*
X102045000Y-116245000D01*
D12*
%TO.P,C19,1*%
X99795000Y-116970000D03*
D13*
%TO.P,C19,2*%
X101345000Y-116970000D03*
%TD*%
D10*
%TO.C,R42*%
%TO.CFtp,R_0603_1608Metric*%
%TO.CVal,0.51k*%
%TO.CLbN,Resistor_SMD*%
%TO.CMnt,SMD*%
%TO.CRot,0*%
X121860000Y-89316000D03*
D11*
X123335000Y-88591000D02*
X123335000Y-90041000D01*
X120385000Y-90041000D01*
X120385000Y-88591000D01*
X123335000Y-88591000D01*
D12*
%TO.P,R42,1*%
X122685000Y-89316000D03*
D13*
%TO.P,R42,2*%
X121035000Y-89316000D03*
%TD*%
D10*
%TO.C,C36*%
%TO.CFtp,C_0603_1608Metric*%
%TO.CVal,1nF*%
%TO.CLbN,Capacitor_SMD*%
%TO.CMnt,SMD*%
%TO.CRot,0*%
X121860000Y-83574000D03*
D11*
X123335000Y-82849000D02*
X123335000Y-84299000D01*
X120385000Y-84299000D01*
X120385000Y-82849000D01*
X123335000Y-82849000D01*
D12*
%TO.P,C36,1*%
X122635000Y-83574000D03*
D13*
%TO.P,C36,2*%
X121085000Y-83574000D03*
%TD*%
D10*
%TO.C,R47*%
%TO.CFtp,R_0603_1608Metric*%
%TO.CVal,100*%
%TO.CLbN,Resistor_SMD*%
%TO.CMnt,SMD*%
%TO.CRot,90*%
X156420000Y-102330000D03*
D11*
X157145000Y-100855000D02*
X157145000Y-103805000D01*
X155695000Y-103805000D01*
X155695000Y-100855000D01*
X157145000Y-100855000D01*
D12*
%TO.P,R47,1*%
X156420000Y-101505000D03*
D13*
%TO.P,R47,2*%
X156420000Y-103155000D03*
%TD*%
D10*
%TO.C,C10*%
%TO.CFtp,C_1210_3225Metric*%
%TO.CVal,10uf/50v*%
%TO.CLbN,Capacitor_SMD*%
%TO.CMnt,SMD*%
%TO.CRot,180*%
X147980000Y-131210000D03*
D11*
X150275000Y-129615000D02*
X150275000Y-132805000D01*
X145685000Y-132805000D01*
X145685000Y-129615000D01*
X150275000Y-129615000D01*
D12*
%TO.P,C10,1*%
X146505000Y-131210000D03*
D13*
%TO.P,C10,2*%
X149455000Y-131210000D03*
%TD*%
D10*
%TO.C,C15*%
%TO.CFtp,C_1210_3225Metric*%
%TO.CVal,10uF/16v*%
%TO.CLbN,Capacitor_SMD*%
%TO.CMnt,SMD*%
%TO.CRot,180*%
X145560000Y-116310000D03*
D11*
X147855000Y-114715000D02*
X147855000Y-117905000D01*
X143265000Y-117905000D01*
X143265000Y-114715000D01*
X147855000Y-114715000D01*
D12*
%TO.P,C15,1*%
X144085000Y-116310000D03*
D13*
%TO.P,C15,2*%
X147035000Y-116310000D03*
%TD*%
D10*
%TO.C,R27*%
%TO.CFtp,R_0603_1608Metric*%
%TO.CVal,10k*%
%TO.CLbN,Resistor_SMD*%
%TO.CMnt,SMD*%
%TO.CRot,0*%
X121850000Y-116322000D03*
D11*
X123325000Y-115597000D02*
X123325000Y-117047000D01*
X120375000Y-117047000D01*
X120375000Y-115597000D01*
X123325000Y-115597000D01*
D12*
%TO.P,R27,1*%
X122675000Y-116322000D03*
D13*
%TO.P,R27,2*%
X121025000Y-116322000D03*
%TD*%
D10*
%TO.C,C12*%
%TO.CFtp,C_0603_1608Metric*%
%TO.CVal,100nF*%
%TO.CLbN,Capacitor_SMD*%
%TO.CMnt,SMD*%
%TO.CRot,90*%
X110300000Y-119580000D03*
D11*
X111025000Y-118105000D02*
X111025000Y-121055000D01*
X109575000Y-121055000D01*
X109575000Y-118105000D01*
X111025000Y-118105000D01*
D12*
%TO.P,C12,1*%
X110300000Y-118805000D03*
D13*
%TO.P,C12,2*%
X110300000Y-120355000D03*
%TD*%
D10*
%TO.C,R34*%
%TO.CFtp,R_0603_1608Metric*%
%TO.CVal,10k*%
%TO.CLbN,Resistor_SMD*%
%TO.CMnt,SMD*%
%TO.CRot,90*%
X122610000Y-106220000D03*
D11*
X123335000Y-104745000D02*
X123335000Y-107695000D01*
X121885000Y-107695000D01*
X121885000Y-104745000D01*
X123335000Y-104745000D01*
D12*
%TO.P,R34,1*%
X122610000Y-105395000D03*
D13*
%TO.P,R34,2*%
X122610000Y-107045000D03*
%TD*%
D10*
%TO.C,C3*%
%TO.CFtp,C_0603_1608Metric*%
%TO.CVal,100nf*%
%TO.CLbN,Capacitor_SMD*%
%TO.CMnt,SMD*%
%TO.CRot,-90*%
X162960000Y-142365000D03*
D11*
X163685000Y-140890000D02*
X163685000Y-143840000D01*
X162235000Y-143840000D01*
X162235000Y-140890000D01*
X163685000Y-140890000D01*
D12*
%TO.P,C3,1*%
X162960000Y-143140000D03*
D13*
%TO.P,C3,2*%
X162960000Y-141590000D03*
%TD*%
D10*
%TO.C,R46*%
%TO.CFtp,R_0603_1608Metric*%
%TO.CVal,100*%
%TO.CLbN,Resistor_SMD*%
%TO.CMnt,SMD*%
%TO.CRot,90*%
X158440000Y-102360000D03*
D11*
X159165000Y-100885000D02*
X159165000Y-103835000D01*
X157715000Y-103835000D01*
X157715000Y-100885000D01*
X159165000Y-100885000D01*
D12*
%TO.P,R46,1*%
X158440000Y-101535000D03*
D13*
%TO.P,R46,2*%
X158440000Y-103185000D03*
%TD*%
D10*
%TO.C,C45*%
%TO.CFtp,C_0603_1608Metric*%
%TO.CVal,1uF*%
%TO.CLbN,Capacitor_SMD*%
%TO.CMnt,SMD*%
%TO.CRot,0*%
X161965000Y-137260000D03*
D11*
X163440000Y-136535000D02*
X163440000Y-137985000D01*
X160490000Y-137985000D01*
X160490000Y-136535000D01*
X163440000Y-136535000D01*
D12*
%TO.P,C45,1*%
X162740000Y-137260000D03*
D13*
%TO.P,C45,2*%
X161190000Y-137260000D03*
%TD*%
D10*
%TO.C,R31*%
%TO.CFtp,R_0603_1608Metric*%
%TO.CVal,10k*%
%TO.CLbN,Resistor_SMD*%
%TO.CMnt,SMD*%
%TO.CRot,0*%
X121850000Y-103520000D03*
D11*
X123325000Y-102795000D02*
X123325000Y-104245000D01*
X120375000Y-104245000D01*
X120375000Y-102795000D01*
X123325000Y-102795000D01*
D12*
%TO.P,R31,1*%
X122675000Y-103520000D03*
D13*
%TO.P,R31,2*%
X121025000Y-103520000D03*
%TD*%
D10*
%TO.C,C16*%
%TO.CFtp,C_1210_3225Metric*%
%TO.CVal,10uF/35v*%
%TO.CLbN,Capacitor_SMD*%
%TO.CMnt,SMD*%
%TO.CRot,90*%
X142360000Y-142470000D03*
D11*
X143955000Y-140175000D02*
X143955000Y-144765000D01*
X140765000Y-144765000D01*
X140765000Y-140175000D01*
X143955000Y-140175000D01*
D12*
%TO.P,C16,1*%
X142360000Y-140995000D03*
D13*
%TO.P,C16,2*%
X142360000Y-143945000D03*
%TD*%
D10*
%TO.C,R53*%
%TO.CFtp,R_0603_1608Metric*%
%TO.CVal,1k*%
%TO.CLbN,Resistor_SMD*%
%TO.CMnt,SMD*%
%TO.CRot,180*%
X140080000Y-124108000D03*
D11*
X141555000Y-123383000D02*
X141555000Y-124833000D01*
X138605000Y-124833000D01*
X138605000Y-123383000D01*
X141555000Y-123383000D01*
D12*
%TO.P,R53,1*%
X139255000Y-124108000D03*
D13*
%TO.P,R53,2*%
X140905000Y-124108000D03*
%TD*%
D10*
%TO.C,R4*%
%TO.CFtp,R_0603_1608Metric*%
%TO.CVal,5K1*%
%TO.CLbN,Resistor_SMD*%
%TO.CMnt,SMD*%
%TO.CRot,90*%
X159660000Y-143460000D03*
D11*
X160385000Y-141985000D02*
X160385000Y-144935000D01*
X158935000Y-144935000D01*
X158935000Y-141985000D01*
X160385000Y-141985000D01*
D12*
%TO.P,R4,1*%
X159660000Y-142635000D03*
D13*
%TO.P,R4,2*%
X159660000Y-144285000D03*
%TD*%
D10*
%TO.C,C38*%
%TO.CFtp,C_0603_1608Metric*%
%TO.CVal,100nF*%
%TO.CLbN,Capacitor_SMD*%
%TO.CMnt,SMD*%
%TO.CRot,0*%
X121860000Y-87402000D03*
D11*
X123335000Y-86677000D02*
X123335000Y-88127000D01*
X120385000Y-88127000D01*
X120385000Y-86677000D01*
X123335000Y-86677000D01*
D12*
%TO.P,C38,1*%
X122635000Y-87402000D03*
D13*
%TO.P,C38,2*%
X121085000Y-87402000D03*
%TD*%
D10*
%TO.C,Q1*%
%TO.CFtp,SOT-23*%
%TO.CVal,AO3401A*%
%TO.CLbN,Package_TO_SOT_SMD*%
%TO.CMnt,SMD*%
%TO.CRot,90*%
X147027500Y-109890000D03*
D11*
X148722500Y-107975000D02*
X148722500Y-111805000D01*
X145332500Y-111805000D01*
X145332500Y-107975000D01*
X148722500Y-107975000D01*
D12*
%TO.P,Q1,1,G*%
X146077500Y-108952500D03*
D13*
%TO.P,Q1,2,S*%
X147977500Y-108952500D03*
%TO.P,Q1,3,D*%
X147027500Y-110827500D03*
%TD*%
D10*
%TO.C,C49*%
%TO.CFtp,C_0603_1608Metric*%
%TO.CVal,100nF*%
%TO.CLbN,Capacitor_SMD*%
%TO.CMnt,SMD*%
%TO.CRot,180*%
X168720000Y-80820000D03*
D11*
X170195000Y-80095000D02*
X170195000Y-81545000D01*
X167245000Y-81545000D01*
X167245000Y-80095000D01*
X170195000Y-80095000D01*
D12*
%TO.P,C49,1*%
X167945000Y-80820000D03*
D13*
%TO.P,C49,2*%
X169495000Y-80820000D03*
%TD*%
D10*
%TO.C,C35*%
%TO.CFtp,C_0603_1608Metric*%
%TO.CVal,100nF*%
%TO.CLbN,Capacitor_SMD*%
%TO.CMnt,SMD*%
%TO.CRot,180*%
X98940000Y-82200000D03*
D11*
X100415000Y-81475000D02*
X100415000Y-82925000D01*
X97465000Y-82925000D01*
X97465000Y-81475000D01*
X100415000Y-81475000D01*
D12*
%TO.P,C35,1*%
X98165000Y-82200000D03*
D13*
%TO.P,C35,2*%
X99715000Y-82200000D03*
%TD*%
M02*
