M48
; DRILL file {KiCad 9.99.0-617-gea36110980} date 2025-03-22T22:43:01+0800
; FORMAT={-:-/ absolute / inch / decimal}
; #@! TF.CreationDate,2025-03-22T22:43:01+08:00
; #@! TF.GenerationSoftware,Kicad,Pcbnew,9.99.0-617-gea36110980
; #@! TF.FileFunction,Plated,1,4,PTH
FMAT,2
INCH
; #@! TA.AperFunction,Plated,PTH,ViaDrill
T1C0.0118
; #@! TA.AperFunction,Plated,PTH,ComponentDrill
T2C0.0118
; #@! TA.AperFunction,Plated,PTH,ComponentDrill
T3C0.0236
; #@! TA.AperFunction,Plated,PTH,ComponentDrill
T4C0.0295
; #@! TA.AperFunction,Plated,PTH,ComponentDrill
T5C0.0394
; #@! TA.AperFunction,Plated,PTH,ComponentDrill
T6C0.0748
; #@! TA.AperFunction,Plated,PTH,ComponentDrill
T7C0.1063
%
G90
G05
T1
X3.5655Y-4.6173
X3.7079Y-3.363
X3.7087Y-3.126
X3.7087Y-3.2047
X3.7087Y-3.2835
X3.7193Y-3.0484
X3.7575Y-3.6321
X3.7827Y-4.4244
X3.7846Y-4.7067
X3.785Y-5.1437
X3.8555Y-4.3988
X3.9289Y-4.6051
X3.9291Y-3.6177
X3.9378Y-4.4874
X3.9646Y-3.5555
X4.0559Y-4.8352
X4.1043Y-4.6033
X4.1059Y-4.7528
X4.1484Y-4.8472
X4.1484Y-4.9102
X4.1492Y-4.8799
X4.1953Y-4.848
X4.1953Y-4.9102
X4.1961Y-4.8803
X4.1976Y-5.1452
X4.2421Y-4.8461
X4.2421Y-4.9102
X4.2429Y-4.8793
X4.2667Y-4.5441
X4.2969Y-5.9012
X4.3169Y-4.6033
X4.3736Y-4.6776
X4.4142Y-4.739
X4.4142Y-4.789
X4.4142Y-4.887
X4.4709Y-5.2728
X4.4709Y-5.3358
X4.4717Y-5.3055
X4.4933Y-3.1795
X4.5177Y-5.0371
X4.5177Y-5.2736
X4.5177Y-5.3358
X4.5185Y-5.3059
X4.5437Y-3.2016
X4.5646Y-5.2717
X4.5646Y-5.3358
X4.5654Y-5.3049
X4.6268Y-4.739
X4.6268Y-4.839
X4.6268Y-4.889
X4.6531Y-3.1506
X4.6531Y-3.2274
X4.7126Y-4.7344
X4.7688Y-4.7346
X4.7957Y-4.7799
X4.826Y-4.7148
X4.8272Y-4.2144
X4.8278Y-3.9315
X4.8281Y-3.441
X4.8285Y-4.3669
X4.8291Y-3.6569
X4.8291Y-3.7219
X4.8297Y-3.8594
X4.8297Y-4.0756
X4.8297Y-4.1476
X4.8297Y-4.5796
X4.8297Y-4.6512
X4.8301Y-3.3657
X4.8301Y-3.5917
X4.8311Y-4.437
X4.8555Y-4.5433
X4.8984Y-3.6492
X4.8992Y-4.622
X4.8998Y-4.1232
X4.9328Y-3.6492
X4.9336Y-4.622
X4.9342Y-4.1232
X4.9523Y-4.8217
X4.9523Y-5.2587
X4.9665Y-3.8732
X4.9665Y-3.9232
X4.9665Y-4.0232
X4.9665Y-4.0732
X4.9671Y-3.6492
X4.9679Y-4.622
X4.9685Y-4.1232
X4.9687Y-3.3986
X4.9687Y-3.4486
X4.9687Y-3.5486
X4.9687Y-3.5986
X4.9687Y-4.3711
X4.9687Y-4.4211
X4.9687Y-4.5211
X4.9687Y-4.5711
X5.0015Y-3.6492
X5.0023Y-4.622
X5.0029Y-4.1232
X5.0358Y-3.6492
X5.0366Y-4.622
X5.0372Y-4.1232
X5.113Y-5.6071
X5.1138Y-5.5768
X5.1598Y-5.6071
X5.1606Y-5.5772
X5.2067Y-5.6071
X5.2075Y-5.5762
X5.2413Y-3.8185
X5.2417Y-3.7433
X5.2706Y-4.0854
X5.2707Y-4.5717
X5.2726Y-5.0583
X5.3049Y-4.0854
X5.305Y-4.5717
X5.307Y-5.0583
X5.3136Y-3.4665
X5.3152Y-3.6886
X5.3156Y-3.752
X5.3169Y-3.626
X5.3393Y-4.0854
X5.3394Y-4.5717
X5.3402Y-4.1358
X5.3402Y-4.1858
X5.3402Y-4.2858
X5.3402Y-4.3358
X5.3402Y-4.622
X5.3402Y-4.672
X5.3402Y-4.772
X5.3402Y-4.822
X5.3402Y-5.1083
X5.3402Y-5.1583
X5.3402Y-5.2583
X5.3402Y-5.3083
X5.3413Y-5.0583
X5.3736Y-4.0854
X5.3737Y-4.5717
X5.3757Y-5.0583
X5.3788Y-3.6267
X5.408Y-4.0854
X5.4081Y-4.5717
X5.41Y-5.0583
X5.4386Y-3.6433
X5.4386Y-3.6933
X5.439Y-3.7425
X5.4815Y-4.9695
X5.4825Y-4.0606
X5.4825Y-4.1331
X5.4825Y-4.2782
X5.4825Y-4.6172
X5.4825Y-4.7497
X5.4825Y-5.0383
X5.4825Y-5.1056
X5.4825Y-5.3073
X5.4843Y-4.4872
X5.4843Y-4.5522
X5.4844Y-4.3507
X5.4844Y-4.8193
X5.4844Y-5.2401
X5.4862Y-3.9943
X5.4866Y-4.9289
X5.5315Y-3.5398
X5.5317Y-3.0882
X5.5317Y-3.2382
X5.5317Y-3.2882
X5.5317Y-3.3382
X5.5317Y-3.3882
X5.5319Y-3.6378
X5.5465Y-4.4756
X5.5693Y-3.9898
X5.5839Y-5.5465
X5.6012Y-3.7874
X5.6248Y-3.598
X5.6488Y-3.7866
X5.6563Y-3.5998
X5.665Y-3.9487
X5.7012Y-3.7874
X5.7248Y-3.9839
X5.7512Y-3.7874
X5.7701Y-5.4634
X5.7776Y-3.9483
X5.7885Y-4.4772
X5.8006Y-3.5677
X5.8012Y-3.7874
X5.8512Y-3.7874
X5.8642Y-3.5673
X5.8861Y-5.4699
X5.8886Y-3.9937
X5.8906Y-5.6081
X5.8906Y-5.6691
X5.8909Y-3.8875
X5.8909Y-3.9495
X5.9012Y-3.7874
X5.9514Y-3.7907
X5.965Y-5.6799
X5.965Y-5.7429
X5.9657Y-5.7126
X5.9703Y-5.3524
X6.0114Y-5.7138
X6.0118Y-5.6807
X6.0118Y-5.7449
X6.0126Y-3.9499
X6.0132Y-5.9809
X6.0203Y-5.3524
X6.0203Y-5.565
X6.0638Y-5.7445
X6.0646Y-5.6819
X6.0646Y-5.7136
X6.0703Y-5.3524
X6.1181Y-3.928
X6.1203Y-5.565
X6.1378Y-5.8636
X6.1559Y-4.2547
X6.1681Y-3.9272
X6.192Y-4.3205
X6.1998Y-5.4571
X6.1998Y-5.6205
X6.2154Y-5.2669
X6.2185Y-3.7386
X6.2197Y-3.239
X6.2197Y-3.487
X6.2201Y-3.3378
X6.2207Y-3.0882
X6.2207Y-3.1382
X6.2207Y-3.1882
X6.2207Y-3.3882
X6.2207Y-3.5382
X6.2209Y-3.4402
X6.2228Y-3.2894
X6.2406Y-5.033
X6.2429Y-5.8002
X6.2681Y-3.928
X6.2744Y-5.8002
X6.2858Y-5.6805
X6.2866Y-5.4559
X6.3028Y-4.5051
X6.3181Y-3.928
X6.3461Y-4.0382
X6.3591Y-5.7524
X6.3681Y-4.1248
X6.3693Y-4.3705
X6.3803Y-5.8472
X6.4091Y-5.3224
X6.4634Y-5.8002
X6.4646Y-4.2799
X6.4693Y-3.9224
X6.4695Y-5.4565
X6.4695Y-5.6199
X6.4949Y-5.8002
X6.5205Y-3.2846
X6.5205Y-3.3634
X6.5205Y-3.4421
X6.5205Y-3.5209
X6.5276Y-3.2071
X6.552Y-5.6683
X6.5541Y-5.4565
T2
X4.187Y-4.6075
X4.187Y-4.6547
X4.187Y-4.7059
X4.187Y-4.7492
X4.2343Y-4.6075
X4.2343Y-4.6547
X4.2343Y-4.7059
X4.2343Y-4.7492
X4.4969Y-4.7431
X4.4969Y-4.7904
X4.4969Y-4.8415
X4.4969Y-4.8848
X4.5441Y-4.7431
X4.5441Y-4.7904
X4.5441Y-4.8415
X4.5441Y-4.8848
X5.762Y-3.3646
X5.762Y-3.4197
X5.7896Y-3.337
X5.7896Y-3.3921
X5.7896Y-3.4472
X5.8171Y-3.3646
X5.8171Y-3.4197
X5.8447Y-3.337
X5.8447Y-3.3921
X5.8447Y-3.4472
X5.8722Y-3.3646
X5.8722Y-3.4197
X5.9744Y-5.435
X5.9744Y-5.4823
X6.0217Y-5.435
X6.0217Y-5.4823
X6.0728Y-5.435
X6.0728Y-5.4823
X6.1161Y-5.435
X6.1161Y-5.4823
T4
X4.0531Y-2.9217
X4.1319Y-2.9217
X4.2106Y-2.9217
X4.2894Y-2.9217
X4.5185Y-5.9343
X4.5331Y-2.9189
X4.5972Y-5.9343
X4.6118Y-2.9189
X4.676Y-5.9343
X4.6906Y-2.9189
X4.7547Y-5.9343
X4.7693Y-2.9189
X4.8335Y-5.9343
X4.9122Y-5.9343
X4.9909Y-5.9343
X5.0697Y-5.9343
X6.6598Y-3.9854
X6.6598Y-4.0642
X6.6598Y-4.1429
X6.6598Y-4.2217
T5
X3.6476Y-3.7657
X3.6476Y-4.2776
X6.365Y-3.7791
X6.465Y-3.7791
X6.565Y-3.7791
X6.6004Y-4.4516
X6.6004Y-4.9634
X6.665Y-3.7791
X6.6776Y-5.4823
X6.6776Y-5.5823
X6.6776Y-5.6823
X6.6776Y-5.7823
X6.6776Y-5.8823
T6
X4.0413Y-3.8839
X4.0413Y-4.0217
X4.0413Y-4.1594
X6.2067Y-4.5697
X6.2067Y-4.7075
X6.2067Y-4.8453
T7
X3.7736Y-5.4335
X4.0571Y-5.4335
T3
G00X3.6496Y-5.6913
M15
G01X3.6496Y-5.648
M16
G05
G00X4.1811Y-5.6913
M15
G01X4.1811Y-5.648
M16
G05
G00X6.1988Y-5.8022
M15
G01X6.1988Y-5.8455
M16
G05
G00X6.1988Y-5.9734
M15
G01X6.1988Y-6.0049
M16
G05
G00X6.539Y-5.8022
M15
G01X6.539Y-5.8455
M16
G05
G00X6.539Y-5.9734
M15
G01X6.539Y-6.0049
M16
G05
M30
