%TF.GenerationSoftware,KiCad,Pcbnew,9.99.0-617-gea36110980*%
%TF.CreationDate,2025-03-22T22:43:03+08:00*%
%TF.ProjectId,skateboard,736b6174-6562-46f6-9172-642e6b696361,rev?*%
%TF.SameCoordinates,Original*%
%TF.FileFunction,Copper,L3,Inr*%
%TF.FilePolarity,Positive*%
%FSLAX46Y46*%
G04 Gerber Fmt 4.6, Leading zero omitted, Abs format (unit mm)*
G04 Created by KiCad (PCBNEW 9.99.0-617-gea36110980) date 2025-03-22 22:43:03*
%MOMM*%
%LPD*%
G01*
G04 APERTURE LIST*
G04 Aperture macros list*
%AMRoundRect*
0 Rectangle with rounded corners*
0 $1 Rounding radius*
0 $2 $3 $4 $5 $6 $7 $8 $9 X,Y pos of 4 corners*
0 Add a 4 corners polygon primitive as box body*
4,1,4,$2,$3,$4,$5,$6,$7,$8,$9,$2,$3,0*
0 Add four circle primitives for the rounded corners*
1,1,$1+$1,$2,$3*
1,1,$1+$1,$4,$5*
1,1,$1+$1,$6,$7*
1,1,$1+$1,$8,$9*
0 Add four rect primitives between the rounded corners*
20,1,$1+$1,$2,$3,$4,$5,0*
20,1,$1+$1,$4,$5,$6,$7,0*
20,1,$1+$1,$6,$7,$8,$9,0*
20,1,$1+$1,$8,$9,$2,$3,0*%
G04 Aperture macros list end*
%TA.AperFunction,ComponentPad*%
%ADD10RoundRect,0.250000X-0.350000X-0.625000X0.350000X-0.625000X0.350000X0.625000X-0.350000X0.625000X0*%
%TD*%
%TA.AperFunction,ComponentPad*%
%ADD11O,1.200000X1.750000*%
%TD*%
%TA.AperFunction,ComponentPad*%
%ADD12R,0.900000X2.000000*%
%TD*%
%TA.AperFunction,ComponentPad*%
%ADD13RoundRect,1.025000X1.025000X1.025000X-1.025000X1.025000X-1.025000X-1.025000X1.025000X-1.025000X0*%
%TD*%
%TA.AperFunction,ComponentPad*%
%ADD14C,4.100000*%
%TD*%
%TA.AperFunction,ComponentPad*%
%ADD15C,0.600000*%
%TD*%
%TA.AperFunction,HeatsinkPad*%
%ADD16O,1.000000X2.100000*%
%TD*%
%TA.AperFunction,HeatsinkPad*%
%ADD17O,1.000000X1.800000*%
%TD*%
%TA.AperFunction,ComponentPad*%
%ADD18C,1.400000*%
%TD*%
%TA.AperFunction,ComponentPad*%
%ADD19RoundRect,0.750000X0.750000X-0.750000X0.750000X0.750000X-0.750000X0.750000X-0.750000X-0.750000X0*%
%TD*%
%TA.AperFunction,ComponentPad*%
%ADD20C,3.000000*%
%TD*%
%TA.AperFunction,ComponentPad*%
%ADD21R,1.700000X1.700000*%
%TD*%
%TA.AperFunction,ComponentPad*%
%ADD22O,1.700000X1.700000*%
%TD*%
%TA.AperFunction,ComponentPad*%
%ADD23RoundRect,0.750000X-0.750000X0.750000X-0.750000X-0.750000X0.750000X-0.750000X0.750000X0.750000X0*%
%TD*%
%TA.AperFunction,HeatsinkPad*%
%ADD24C,0.600000*%
%TD*%
%TA.AperFunction,ComponentPad*%
%ADD25RoundRect,0.250000X-0.625000X0.350000X-0.625000X-0.350000X0.625000X-0.350000X0.625000X0.350000X0*%
%TD*%
%TA.AperFunction,ComponentPad*%
%ADD26O,1.750000X1.200000*%
%TD*%
%TA.AperFunction,ViaPad*%
%ADD27C,0.600000*%
%TD*%
%TA.AperFunction,Conductor*%
%ADD28C,0.200000*%
%TD*%
G04 APERTURE END LIST*
D10*
%TO.N,SDA*%
%TO.C,J1*%
X114770000Y-150730000D03*
D11*
%TO.N,SCK*%
X116770000Y-150730000D03*
%TO.N,MOSI*%
X118770000Y-150730000D03*
%TO.N,MISO*%
X120770000Y-150730000D03*
%TO.N,IRQ*%
X122770000Y-150730000D03*
%TO.N,GND*%
X124770000Y-150730000D03*
%TO.N,RST*%
X126770000Y-150730000D03*
%TO.N,+3.3V*%
X128770000Y-150730000D03*
%TD*%
D12*
%TO.N,*%
%TO.C,J8*%
X106200000Y-144010000D03*
X92700000Y-144010000D03*
D13*
%TO.N,VCC*%
X103050000Y-138010000D03*
D14*
%TO.N,GND*%
X95850000Y-138010000D03*
%TD*%
D15*
%TO.N,GND*%
%TO.C,U6*%
X151750000Y-139250000D03*
X152950000Y-139250000D03*
X154250000Y-139250000D03*
X155350000Y-139250000D03*
X151750000Y-138050000D03*
X152950000Y-138050000D03*
X154250000Y-138050000D03*
X155350000Y-138050000D03*
%TD*%
D16*
%TO.N,GND*%
%TO.C,J4*%
X157450000Y-147925000D03*
D17*
X157450000Y-152125000D03*
D16*
X166090000Y-147925000D03*
D17*
X166090000Y-152125000D03*
%TD*%
D18*
%TO.N,*%
%TO.C,J6*%
X92650000Y-108650000D03*
X92650000Y-95650000D03*
D19*
%TO.N,Net-(J6-Pin_1)*%
X102650000Y-105650000D03*
D20*
%TO.N,Net-(J6-Pin_2)*%
X102650000Y-102150000D03*
%TO.N,Net-(J6-Pin_3)*%
X102650000Y-98650000D03*
%TD*%
D10*
%TO.N,GND*%
%TO.C,J12*%
X115140000Y-74140000D03*
D11*
%TO.N,+5V*%
X117140000Y-74140000D03*
%TO.N,INA1-*%
X119140000Y-74140000D03*
%TO.N,INA1+*%
X121140000Y-74140000D03*
%TD*%
D21*
%TO.N,+5V*%
%TO.C,J2*%
X169610000Y-139250000D03*
D22*
%TO.N,SDA*%
X169610000Y-141790000D03*
%TO.N,SCK*%
X169610000Y-144330000D03*
%TO.N,unconnected-(J2-Pin_4-Pad4)*%
X169610000Y-146870000D03*
%TO.N,GND*%
X169610000Y-149410000D03*
%TD*%
D15*
%TO.N,GND*%
%TO.C,U5*%
X106350000Y-117030000D03*
X106350000Y-118230000D03*
X106350000Y-119530000D03*
X106350000Y-120630000D03*
X107550000Y-117030000D03*
X107550000Y-118230000D03*
X107550000Y-119530000D03*
X107550000Y-120630000D03*
%TD*%
D18*
%TO.N,*%
%TO.C,J9*%
X167650000Y-113070000D03*
X167650000Y-126070000D03*
D23*
%TO.N,Net-(J9-Pin_1)*%
X157650000Y-116070000D03*
D20*
%TO.N,Net-(J9-Pin_2)*%
X157650000Y-119570000D03*
%TO.N,Net-(J9-Pin_3)*%
X157650000Y-123070000D03*
%TD*%
D24*
%TO.N,GND*%
%TO.C,U3*%
X146355000Y-85460000D03*
X146355000Y-86860000D03*
X147055000Y-84760000D03*
X147055000Y-86160000D03*
X147055000Y-87560000D03*
X147755000Y-85460000D03*
X147755000Y-86860000D03*
X148455000Y-84760000D03*
X148455000Y-86160000D03*
X148455000Y-87560000D03*
X149155000Y-85460000D03*
X149155000Y-86860000D03*
%TD*%
D10*
%TO.N,GND*%
%TO.C,J3*%
X102950000Y-74210000D03*
D11*
%TO.N,24V{slash}3A*%
X104950000Y-74210000D03*
%TO.N,CANH*%
X106950000Y-74210000D03*
%TO.N,CANL*%
X108950000Y-74210000D03*
%TD*%
D21*
%TO.N,GND*%
%TO.C,J5*%
X169290000Y-95990000D03*
D22*
%TO.N,U0_TXD*%
X166750000Y-95990000D03*
%TO.N,U0_RXD*%
X164210000Y-95990000D03*
%TO.N,+3.3V*%
X161670000Y-95990000D03*
%TD*%
D25*
%TO.N,GND*%
%TO.C,J11*%
X169160000Y-101230000D03*
D26*
%TO.N,+5V*%
X169160000Y-103230000D03*
%TO.N,INA2-*%
X169160000Y-105230000D03*
%TO.N,INA2+*%
X169160000Y-107230000D03*
%TD*%
D15*
%TO.N,GND*%
%TO.C,U4*%
X114220000Y-120475000D03*
X114220000Y-121675000D03*
X114220000Y-122975000D03*
X114220000Y-124075000D03*
X115420000Y-120475000D03*
X115420000Y-121675000D03*
X115420000Y-122975000D03*
X115420000Y-124075000D03*
%TD*%
D27*
%TO.N,USB_D-*%
X161520000Y-146110000D03*
%TO.N,USB_D+*%
X162060000Y-148520000D03*
%TO.N,VBUS*%
X159370000Y-147325000D03*
%TO.N,24V{slash}3A*%
X112120000Y-121640000D03*
X149620000Y-143995000D03*
X141830000Y-140880000D03*
%TO.N,GND*%
X107750000Y-124720000D03*
X126200000Y-104730000D03*
X126165000Y-92690000D03*
X114750000Y-133950000D03*
X137362500Y-103770000D03*
X133140000Y-95080000D03*
X161750000Y-104770000D03*
X138140000Y-93810000D03*
X126185000Y-117400000D03*
X151510000Y-144270000D03*
X131080000Y-141660000D03*
X131060000Y-142420000D03*
X149630000Y-98742500D03*
X115940000Y-135530000D03*
X135617500Y-103770000D03*
X136492500Y-116120000D03*
X137365000Y-116120000D03*
X133875000Y-116120000D03*
X164325000Y-138595000D03*
X124440000Y-117400000D03*
X134797500Y-128480000D03*
X154020000Y-145910000D03*
X125312500Y-117400000D03*
X105370000Y-124720000D03*
X159210000Y-99770000D03*
X124455000Y-104730000D03*
X152700000Y-144290000D03*
X125292500Y-92690000D03*
X164325000Y-142745000D03*
X152700000Y-145920000D03*
X158511491Y-127838358D03*
X127930000Y-117400000D03*
X127945000Y-104730000D03*
X106580000Y-123960000D03*
X105370000Y-123120000D03*
X160480000Y-99770000D03*
X157475000Y-138610000D03*
X140505000Y-78440000D03*
X151510000Y-145870000D03*
X158005000Y-78440000D03*
X127910000Y-92690000D03*
X137415000Y-128480000D03*
X154040000Y-144320000D03*
X164970000Y-147325000D03*
X124420000Y-92690000D03*
X105390000Y-123950000D03*
X135620000Y-116120000D03*
X127072500Y-104730000D03*
X114770000Y-134770000D03*
X109142500Y-149890000D03*
X133925000Y-128480000D03*
X165620000Y-89430000D03*
X152915000Y-135950000D03*
X136490000Y-103770000D03*
X113580000Y-134760000D03*
X151530000Y-145100000D03*
X95440000Y-92255000D03*
X133872500Y-103770000D03*
X132250000Y-142420000D03*
X106560000Y-124720000D03*
X158570000Y-147325000D03*
X107750000Y-123090000D03*
X118190000Y-80025000D03*
X134745000Y-103770000D03*
X113560000Y-133930000D03*
X107770000Y-123935000D03*
X138140000Y-92540000D03*
X164200400Y-108709728D03*
X96080000Y-112380000D03*
X129890000Y-141650000D03*
X134747500Y-116120000D03*
X115940000Y-133900000D03*
X106560000Y-123140000D03*
X94470000Y-77430000D03*
X115960000Y-134745000D03*
X127037500Y-92690000D03*
X127057500Y-117400000D03*
X132270000Y-141635000D03*
X129870000Y-142420000D03*
X157475000Y-142760000D03*
X136542500Y-128480000D03*
X114750000Y-135530000D03*
X161780000Y-111010000D03*
X125327500Y-104730000D03*
X135670000Y-128480000D03*
X113560000Y-135530000D03*
X152690000Y-145130000D03*
X154040000Y-145125000D03*
%TO.N,VCC*%
X149508000Y-138935000D03*
X152915000Y-141350000D03*
%TO.N,+3.3V*%
X96130000Y-119550000D03*
X140880707Y-113680707D03*
X134965000Y-88050000D03*
X118190000Y-81975000D03*
X165800000Y-81460000D03*
X100020000Y-113980000D03*
X123330000Y-115400000D03*
X156360000Y-108070000D03*
X157870000Y-133780000D03*
X94180000Y-85420000D03*
X161190984Y-102569016D03*
X99795000Y-116970000D03*
X133130000Y-96990000D03*
X147335000Y-90620000D03*
X149570000Y-101440000D03*
X99800000Y-91890000D03*
%TO.N,+5V*%
X121127500Y-120260000D03*
X115410000Y-81320000D03*
X164320000Y-99630000D03*
X138150000Y-95060000D03*
%TO.N,Net-(Q4-SR)*%
X126205000Y-112295000D03*
X122710000Y-112700000D03*
%TO.N,Net-(Q5-SR)*%
X122625000Y-99860000D03*
X126150000Y-99650000D03*
%TO.N,Net-(Q6-IS)*%
X122685000Y-85488000D03*
X126205000Y-86325000D03*
%TO.N,Net-(Q6-SR)*%
X122635000Y-87402000D03*
X126205000Y-87595000D03*
%TO.N,Net-(U4-SS{slash}PGOOD)*%
X117520000Y-122910000D03*
%TO.N,Net-(U5-SS{slash}PGOOD)*%
X108375000Y-115420000D03*
%TO.N,Net-(Q4-INH)*%
X126205000Y-114835000D03*
X122675000Y-116322000D03*
%TO.N,Net-(Q4-IN)*%
X122675000Y-118140000D03*
X126205000Y-116105000D03*
%TO.N,Net-(Q5-IN)*%
X122675000Y-105350000D03*
X126150000Y-103460000D03*
%TO.N,Net-(Q5-INH)*%
X126150000Y-102190000D03*
X122675000Y-103520000D03*
%TO.N,Net-(Q6-IN)*%
X122660000Y-92885000D03*
X126205000Y-91405000D03*
%TO.N,Net-(Q6-INH)*%
X122685000Y-91230000D03*
X126205000Y-90135000D03*
%TO.N,/mcu/Battery_5V*%
X125787500Y-122470000D03*
X111090000Y-118810000D03*
X147027500Y-113720000D03*
%TO.N,Net-(Q7-SR)*%
X139255000Y-108666000D03*
X135640000Y-108860000D03*
%TO.N,Net-(Q8-SR)*%
X135640000Y-121210000D03*
X139255000Y-120642000D03*
%TO.N,Net-(Q9-IS)*%
X135640000Y-134830000D03*
X139255000Y-134806000D03*
%TO.N,Net-(Q7-INH)*%
X139255000Y-104982000D03*
X135640000Y-106320000D03*
%TO.N,Net-(Q7-IN)*%
X139255000Y-103140000D03*
X135640000Y-105050000D03*
%TO.N,/foc1/A2*%
X122645000Y-110920000D03*
X126205000Y-111025000D03*
%TO.N,/foc1/A3*%
X126150000Y-98380000D03*
X122675000Y-98030000D03*
%TO.N,/foc2/A2*%
X135640000Y-110130000D03*
X139305000Y-110508000D03*
%TO.N,/foc2/A3*%
X139305000Y-122410000D03*
X135640000Y-122480000D03*
%TO.N,/foc1/A1*%
X100700000Y-90310000D03*
X140505000Y-82250000D03*
%TO.N,/foc1/A0*%
X97930000Y-111730000D03*
X140505000Y-83520000D03*
%TO.N,/foc2/A0*%
X140505000Y-84790000D03*
X157277500Y-109740000D03*
%TO.N,/foc2/A1*%
X140505000Y-86060000D03*
X160090000Y-114430000D03*
%TO.N,/foc1/IN_3*%
X122660000Y-94535000D03*
X144810000Y-96200000D03*
%TO.N,/foc1/IN_2*%
X146080000Y-96200000D03*
X122610000Y-107045000D03*
%TO.N,/foc1/IN_1*%
X122580000Y-119755000D03*
X147350000Y-96200000D03*
%TO.N,/foc2/IN_3*%
X139230000Y-126225000D03*
X148620000Y-96200000D03*
%TO.N,/foc2/IN_1*%
X151165000Y-96285000D03*
X139350000Y-101455000D03*
%TO.N,/foc2/IN_2*%
X139300000Y-113975000D03*
X149890000Y-96200000D03*
%TO.N,Net-(U4-BOOT)*%
X112120000Y-120370000D03*
%TO.N,Net-(U5-BOOT)*%
X104250000Y-116925000D03*
%TO.N,Net-(U6-SS{slash}PGOOD)*%
X154185000Y-135950000D03*
%TO.N,Net-(U6-BOOT)*%
X149620000Y-142445000D03*
%TO.N,Net-(D11-K)*%
X114750000Y-127942500D03*
X125787500Y-133570000D03*
X117520000Y-120370000D03*
%TO.N,Net-(D12-K)*%
X151645000Y-135950000D03*
X152735000Y-151915000D03*
%TO.N,Net-(D13-K)*%
X162790000Y-135190000D03*
%TO.N,Net-(D14-K)*%
X119700000Y-120255000D03*
%TO.N,Net-(D16-K)*%
X96140000Y-130650000D03*
X106620000Y-130687500D03*
X109650000Y-116925000D03*
%TO.N,Net-(D17-K)*%
X90562500Y-117280000D03*
%TO.N,Net-(U4-RT{slash}YNC)*%
X112120000Y-124130000D03*
%TO.N,Net-(U5-RT{slash}YNC)*%
X104290000Y-120720000D03*
%TO.N,Net-(U4-FB)*%
X117520000Y-124180000D03*
%TO.N,Net-(U5-FB)*%
X103020000Y-122815000D03*
%TO.N,Net-(U6-RT{slash}YNC)*%
X155455000Y-141350000D03*
%TO.N,Net-(U6-FB)*%
X146560000Y-138770000D03*
%TO.N,Net-(U1-INA+)*%
X135050000Y-92100000D03*
%TO.N,Net-(U1-INA-)*%
X136622500Y-92117500D03*
%TO.N,VBUS*%
X164170000Y-147325000D03*
%TO.N,Net-(U9-INA+)*%
X155400000Y-99770000D03*
%TO.N,Net-(U9-INA-)*%
X156670000Y-99750000D03*
%TO.N,EN*%
X148950000Y-90610000D03*
X159680000Y-138580000D03*
%TO.N,IO0*%
X166475000Y-138595000D03*
X157950000Y-94960000D03*
X155900000Y-148935000D03*
%TO.N,USB_D-*%
X141460000Y-101340000D03*
%TO.N,USB_D+*%
X145410000Y-101190000D03*
%TO.N,Net-(D6-A)*%
X152720000Y-100327500D03*
%TO.N,Net-(D7-A)*%
X149630000Y-100317500D03*
%TO.N,Net-(D10-K)*%
X143890000Y-100297500D03*
%TO.N,SDA*%
X157980000Y-88570000D03*
%TO.N,IRQ*%
X158005000Y-79710000D03*
X142870000Y-91390000D03*
%TO.N,SCK*%
X158010000Y-87380000D03*
%TO.N,MISO*%
X142270000Y-96200000D03*
%TO.N,RST*%
X158005000Y-80980000D03*
X143668771Y-91434376D03*
%TO.N,MOSI*%
X140510000Y-92400000D03*
%TO.N,Net-(J4-CC2)*%
X166420000Y-143975000D03*
%TO.N,Net-(J4-CC1)*%
X159660000Y-144285000D03*
%TO.N,U0_TXD*%
X157980000Y-82270000D03*
%TO.N,U0_RXD*%
X158060000Y-83550000D03*
%TO.N,INA1+*%
X135005000Y-93690000D03*
%TO.N,INA1-*%
X135015000Y-95300000D03*
%TO.N,RXD_SENSOR*%
X114130000Y-80760000D03*
X140500000Y-89910000D03*
%TO.N,/foc1/MOT_A*%
X158005000Y-89870000D03*
X94200000Y-83400000D03*
%TO.N,/foc1/MOT_B*%
X94200000Y-81400000D03*
X158005000Y-86060000D03*
%TO.N,/foc2/MOT_B*%
X165620000Y-85430000D03*
%TO.N,/foc2/MOT_A*%
X165620000Y-83430000D03*
%TO.N,/foc1/MOT_C*%
X157990000Y-84780000D03*
X94200000Y-79400000D03*
%TO.N,/foc2/MOT_C*%
X165620000Y-87430000D03*
%TO.N,Net-(Q9-SR)*%
X135640000Y-133560000D03*
X139305000Y-133098000D03*
%TO.N,Net-(Q8-IN)*%
X135640000Y-117400000D03*
X139300000Y-115625000D03*
%TO.N,Net-(Q8-INH)*%
X135640000Y-118670000D03*
X139255000Y-117276000D03*
%TO.N,Net-(Q9-INH)*%
X135640000Y-131020000D03*
X139255000Y-129682000D03*
%TO.N,Net-(Q9-IN)*%
X135640000Y-129750000D03*
X139255000Y-127974000D03*
%TO.N,Net-(D9-K)*%
X146750000Y-100287500D03*
%TO.N,MOTO_POWER*%
X139360000Y-125195265D03*
X121810000Y-121410000D03*
X143480000Y-96180000D03*
%TD*%
D28*
%TO.N,IO0*%
X165874000Y-139196000D02*
X166475000Y-138595000D01*
X163770057Y-139196000D02*
X165874000Y-139196000D01*
X155900000Y-147066057D02*
X163770057Y-139196000D01*
X155900000Y-148935000D02*
X155900000Y-147066057D01*
%TO.N,GND*%
X161750000Y-110980000D02*
X161750000Y-104770000D01*
X161780000Y-111010000D02*
X161750000Y-110980000D01*
%TO.N,+3.3V*%
X139051057Y-114576000D02*
X138699000Y-114223943D01*
X139984000Y-114576000D02*
X139051057Y-114576000D01*
X140879293Y-113680707D02*
X139984000Y-114576000D01*
X140880707Y-113680707D02*
X140879293Y-113680707D01*
X124506057Y-114223943D02*
X123330000Y-115400000D01*
X138699000Y-114223943D02*
X124506057Y-114223943D01*
%TO.N,+5V*%
X125527000Y-113822943D02*
X124057114Y-113822943D01*
X137153000Y-96047000D02*
X137153000Y-98871200D01*
X121120000Y-116760057D02*
X121120000Y-120260000D01*
X137153000Y-98871200D02*
X133271500Y-102752700D01*
X133271500Y-102752700D02*
X133271500Y-106078443D01*
X133271500Y-106078443D02*
X125527000Y-113822943D01*
X124057114Y-113822943D02*
X121120000Y-116760057D01*
X138150000Y-95060000D02*
X138140000Y-95060000D01*
X138140000Y-95060000D02*
X137153000Y-96047000D01*
%TO.N,/foc1/A1*%
X118674943Y-96090000D02*
X121624943Y-99040000D01*
X135950000Y-91250000D02*
X137120000Y-90080000D01*
X135950000Y-98372900D02*
X135950000Y-91250000D01*
X104000000Y-96090000D02*
X118674943Y-96090000D01*
X100700000Y-92790000D02*
X104000000Y-96090000D01*
X137120000Y-85635000D02*
X140505000Y-82250000D01*
X121624943Y-99040000D02*
X135282900Y-99040000D01*
X100700000Y-90310000D02*
X100700000Y-92790000D01*
X137120000Y-90080000D02*
X137120000Y-85635000D01*
X135282900Y-99040000D02*
X135950000Y-98372900D01*
%TO.N,/foc1/A0*%
X136351000Y-95441957D02*
X136351000Y-98539000D01*
X139802100Y-83520000D02*
X137521000Y-85801100D01*
X136351000Y-98539000D02*
X123208578Y-111681422D01*
X137223500Y-90543600D02*
X137223500Y-94569457D01*
X123208578Y-111681422D02*
X97978578Y-111681422D01*
X140505000Y-83520000D02*
X139802100Y-83520000D01*
X137521000Y-90246100D02*
X137223500Y-90543600D01*
X137223500Y-94569457D02*
X136351000Y-95441957D01*
X137521000Y-85801100D02*
X137521000Y-90246100D01*
%TO.N,/foc2/A0*%
X157010000Y-109590000D02*
X151766000Y-104346000D01*
X151766000Y-104346000D02*
X151766000Y-96036057D01*
X157127500Y-109590000D02*
X157010000Y-109590000D01*
X151766000Y-96036057D02*
X140519943Y-84790000D01*
X140519943Y-84790000D02*
X140505000Y-84790000D01*
X157277500Y-109740000D02*
X157127500Y-109590000D01*
%TO.N,/foc2/A1*%
X160090000Y-113670000D02*
X150564000Y-104144000D01*
X160090000Y-114430000D02*
X160090000Y-113670000D01*
X150564000Y-104144000D02*
X150564000Y-95819000D01*
X140805000Y-86060000D02*
X140505000Y-86060000D01*
X150564000Y-95819000D02*
X140805000Y-86060000D01*
%TO.N,EN*%
X155867000Y-93827000D02*
X152167000Y-93827000D01*
X163391000Y-101351000D02*
X155867000Y-93827000D01*
X159680000Y-138580000D02*
X159760000Y-138580000D01*
X152167000Y-93827000D02*
X148950000Y-90610000D01*
X162545029Y-135794971D02*
X162541057Y-135791000D01*
X162541057Y-135791000D02*
X163038943Y-135791000D01*
X163391000Y-135438943D02*
X163391000Y-101351000D01*
X163038943Y-135791000D02*
X163391000Y-135438943D01*
X159760000Y-138580000D02*
X162545029Y-135794971D01*
%TO.N,IO0*%
X166475000Y-138595000D02*
X170360000Y-134710000D01*
X170360000Y-109979206D02*
X164480000Y-104099206D01*
X170360000Y-134710000D02*
X170360000Y-109979206D01*
X164480000Y-101490000D02*
X157950000Y-94960000D01*
X164480000Y-104099206D02*
X164480000Y-101490000D01*
%TO.N,SDA*%
X158632900Y-88570000D02*
X158965100Y-88570000D01*
X159544900Y-88804900D02*
X161345100Y-90605100D01*
X166453000Y-90851000D02*
X166785200Y-90851000D01*
X158965100Y-88570000D02*
X158977800Y-88570000D01*
X161345100Y-90605100D02*
X161580000Y-90840000D01*
X166109800Y-90840000D02*
X166442000Y-90840000D01*
X167323842Y-90851000D02*
X170761000Y-94288158D01*
X161580000Y-90840000D02*
X161912200Y-90840000D01*
X157980000Y-88570000D02*
X158632900Y-88570000D01*
X166442000Y-90840000D02*
X166453000Y-90851000D01*
X166785200Y-90851000D02*
X167323842Y-90851000D01*
X161912200Y-90840000D02*
X166109800Y-90840000D01*
X159310000Y-88570000D02*
X159544900Y-88804900D01*
X170761000Y-140639000D02*
X169610000Y-141790000D01*
X170761000Y-94288158D02*
X170761000Y-140639000D01*
X158977800Y-88570000D02*
X159310000Y-88570000D01*
%TO.N,IRQ*%
X122770000Y-150730000D02*
X123946000Y-149554000D01*
X142870000Y-134062900D02*
X142870000Y-91390000D01*
X127378900Y-149554000D02*
X142870000Y-134062900D01*
X123946000Y-149554000D02*
X127378900Y-149554000D01*
%TO.N,SCK*%
X169610000Y-144330000D02*
X170800000Y-143140000D01*
X170800000Y-141167100D02*
X171162000Y-140805100D01*
X158799000Y-88169000D02*
X158010000Y-87380000D01*
X166619100Y-90450000D02*
X166608100Y-90439000D01*
X166608100Y-90439000D02*
X161746100Y-90439000D01*
X159476100Y-88169000D02*
X158799000Y-88169000D01*
X167489942Y-90450000D02*
X166619100Y-90450000D01*
X171162000Y-94122058D02*
X167489942Y-90450000D01*
X161746100Y-90439000D02*
X159476100Y-88169000D01*
X171162000Y-140805100D02*
X171162000Y-94122058D01*
X170800000Y-143140000D02*
X170800000Y-141167100D01*
%TO.N,MISO*%
X123779900Y-149153000D02*
X127212800Y-149153000D01*
X123378900Y-149554000D02*
X123779900Y-149153000D01*
X121946000Y-149554000D02*
X123378900Y-149554000D01*
X142270000Y-134095800D02*
X142270000Y-96200000D01*
X127212800Y-149153000D02*
X142270000Y-134095800D01*
X120770000Y-150730000D02*
X121946000Y-149554000D01*
%TO.N,RST*%
X143271000Y-134229000D02*
X126770000Y-150730000D01*
X144200000Y-97450000D02*
X143271000Y-98379000D01*
X144200000Y-97450000D02*
X144200000Y-91965605D01*
X144200000Y-91965605D02*
X143668771Y-91434376D01*
X143271000Y-98379000D02*
X143271000Y-134229000D01*
%TO.N,MOSI*%
X123374678Y-112082422D02*
X136752000Y-98705100D01*
X118770000Y-150730000D02*
X118770000Y-118542957D01*
X138398943Y-94459000D02*
X140457943Y-92400000D01*
X140457943Y-92400000D02*
X140510000Y-92400000D01*
X123374678Y-113938279D02*
X123374678Y-112082422D01*
X137901057Y-94459000D02*
X138398943Y-94459000D01*
X136752000Y-95608057D02*
X137901057Y-94459000D01*
X118770000Y-118542957D02*
X123374678Y-113938279D01*
X136752000Y-98705100D02*
X136752000Y-95608057D01*
%TO.N,INA1+*%
X121140000Y-79825000D02*
X135005000Y-93690000D01*
X121140000Y-74140000D02*
X121140000Y-79825000D01*
%TO.N,INA1-*%
X119140000Y-81093057D02*
X125604000Y-87557057D01*
X134194000Y-94479000D02*
X135015000Y-95300000D01*
X132239057Y-94479000D02*
X134194000Y-94479000D01*
X125604000Y-87843943D02*
X132239057Y-94479000D01*
X119140000Y-74140000D02*
X119140000Y-81093057D01*
X125604000Y-87557057D02*
X125604000Y-87843943D01*
%TO.N,RXD_SENSOR*%
X141106000Y-83836943D02*
X140753943Y-84189000D01*
X126911694Y-79658900D02*
X138763843Y-79658900D01*
X139904000Y-84541057D02*
X139904000Y-89314000D01*
X114130000Y-78897206D02*
X118239000Y-74788206D01*
X114130000Y-80760000D02*
X114130000Y-78897206D01*
X118239000Y-73491794D02*
X118766794Y-72964000D01*
X139904000Y-89314000D02*
X140500000Y-89910000D01*
X140256057Y-84189000D02*
X139904000Y-84541057D01*
X122041000Y-73491794D02*
X122041000Y-74788206D01*
X121513206Y-72964000D02*
X122041000Y-73491794D01*
X140753943Y-84189000D02*
X140256057Y-84189000D01*
X138763843Y-79658900D02*
X141106000Y-82001057D01*
X118239000Y-74788206D02*
X118239000Y-73491794D01*
X118766794Y-72964000D02*
X121513206Y-72964000D01*
X141106000Y-82001057D02*
X141106000Y-83836943D01*
X122041000Y-74788206D02*
X126911694Y-79658900D01*
%TO.N,MOTO_POWER*%
X126320000Y-125920000D02*
X121810000Y-121410000D01*
X139354735Y-125190000D02*
X137540000Y-125190000D01*
X136810000Y-125920000D02*
X126320000Y-125920000D01*
X137540000Y-125190000D02*
X136810000Y-125920000D01*
X139360000Y-125195265D02*
X139354735Y-125190000D01*
%TD*%
M02*
