%TF.GenerationSoftware,KiCad,Pcbnew,9.99.0-701-g151cb01795*%
%TF.CreationDate,2025-04-01T21:42:42+08:00*%
%TF.ProjectId,skateboard,736b6174-6562-46f6-9172-642e6b696361,rev?*%
%TF.SameCoordinates,Original*%
%TF.FileFunction,Legend,Top*%
%TF.FilePolarity,Positive*%
%FSLAX46Y46*%
G04 Gerber Fmt 4.6, Leading zero omitted, Abs format (unit mm)*
G04 Created by KiCad (PCBNEW 9.99.0-701-g151cb01795) date 2025-04-01 21:42:42*
%MOMM*%
%LPD*%
G01*
G04 APERTURE LIST*
%ADD10C,0.150000*%
%ADD11C,0.120000*%
G04 APERTURE END LIST*
D10*
X134831695Y-93286619D02*
X134831695Y-94096142D01*
X134831695Y-94096142D02*
X134879314Y-94191380D01*
X134879314Y-94191380D02*
X134926933Y-94239000D01*
X134926933Y-94239000D02*
X135022171Y-94286619D01*
X135022171Y-94286619D02*
X135212647Y-94286619D01*
X135212647Y-94286619D02*
X135307885Y-94239000D01*
X135307885Y-94239000D02*
X135355504Y-94191380D01*
X135355504Y-94191380D02*
X135403123Y-94096142D01*
X135403123Y-94096142D02*
X135403123Y-93286619D01*
X136403123Y-94286619D02*
X135831695Y-94286619D01*
X136117409Y-94286619D02*
X136117409Y-93286619D01*
X136117409Y-93286619D02*
X136022171Y-93429476D01*
X136022171Y-93429476D02*
X135926933Y-93524714D01*
X135926933Y-93524714D02*
X135831695Y-93572333D01*
X121436666Y-147284819D02*
X121436666Y-147999104D01*
X121436666Y-147999104D02*
X121389047Y-148141961D01*
X121389047Y-148141961D02*
X121293809Y-148237200D01*
X121293809Y-148237200D02*
X121150952Y-148284819D01*
X121150952Y-148284819D02*
X121055714Y-148284819D01*
X122436666Y-148284819D02*
X121865238Y-148284819D01*
X122150952Y-148284819D02*
X122150952Y-147284819D01*
X122150952Y-147284819D02*
X122055714Y-147427676D01*
X122055714Y-147427676D02*
X121960476Y-147522914D01*
X121960476Y-147522914D02*
X121865238Y-147570533D01*
X121955086Y-120317466D02*
X122716991Y-120317466D01*
X122336038Y-120698419D02*
X122336038Y-119936514D01*
X123669371Y-119698419D02*
X123193181Y-119698419D01*
X123193181Y-119698419D02*
X123145562Y-120174609D01*
X123145562Y-120174609D02*
X123193181Y-120126990D01*
X123193181Y-120126990D02*
X123288419Y-120079371D01*
X123288419Y-120079371D02*
X123526514Y-120079371D01*
X123526514Y-120079371D02*
X123621752Y-120126990D01*
X123621752Y-120126990D02*
X123669371Y-120174609D01*
X123669371Y-120174609D02*
X123716990Y-120269847D01*
X123716990Y-120269847D02*
X123716990Y-120507942D01*
X123716990Y-120507942D02*
X123669371Y-120603180D01*
X123669371Y-120603180D02*
X123621752Y-120650800D01*
X123621752Y-120650800D02*
X123526514Y-120698419D01*
X123526514Y-120698419D02*
X123288419Y-120698419D01*
X123288419Y-120698419D02*
X123193181Y-120650800D01*
X123193181Y-120650800D02*
X123145562Y-120603180D01*
X124002705Y-119698419D02*
X124336038Y-120698419D01*
X124336038Y-120698419D02*
X124669371Y-119698419D01*
X99276666Y-150154819D02*
X99276666Y-150869104D01*
X99276666Y-150869104D02*
X99229047Y-151011961D01*
X99229047Y-151011961D02*
X99133809Y-151107200D01*
X99133809Y-151107200D02*
X98990952Y-151154819D01*
X98990952Y-151154819D02*
X98895714Y-151154819D01*
X99895714Y-150583390D02*
X99800476Y-150535771D01*
X99800476Y-150535771D02*
X99752857Y-150488152D01*
X99752857Y-150488152D02*
X99705238Y-150392914D01*
X99705238Y-150392914D02*
X99705238Y-150345295D01*
X99705238Y-150345295D02*
X99752857Y-150250057D01*
X99752857Y-150250057D02*
X99800476Y-150202438D01*
X99800476Y-150202438D02*
X99895714Y-150154819D01*
X99895714Y-150154819D02*
X100086190Y-150154819D01*
X100086190Y-150154819D02*
X100181428Y-150202438D01*
X100181428Y-150202438D02*
X100229047Y-150250057D01*
X100229047Y-150250057D02*
X100276666Y-150345295D01*
X100276666Y-150345295D02*
X100276666Y-150392914D01*
X100276666Y-150392914D02*
X100229047Y-150488152D01*
X100229047Y-150488152D02*
X100181428Y-150535771D01*
X100181428Y-150535771D02*
X100086190Y-150583390D01*
X100086190Y-150583390D02*
X99895714Y-150583390D01*
X99895714Y-150583390D02*
X99800476Y-150631009D01*
X99800476Y-150631009D02*
X99752857Y-150678628D01*
X99752857Y-150678628D02*
X99705238Y-150773866D01*
X99705238Y-150773866D02*
X99705238Y-150964342D01*
X99705238Y-150964342D02*
X99752857Y-151059580D01*
X99752857Y-151059580D02*
X99800476Y-151107200D01*
X99800476Y-151107200D02*
X99895714Y-151154819D01*
X99895714Y-151154819D02*
X100086190Y-151154819D01*
X100086190Y-151154819D02*
X100181428Y-151107200D01*
X100181428Y-151107200D02*
X100229047Y-151059580D01*
X100229047Y-151059580D02*
X100276666Y-150964342D01*
X100276666Y-150964342D02*
X100276666Y-150773866D01*
X100276666Y-150773866D02*
X100229047Y-150678628D01*
X100229047Y-150678628D02*
X100181428Y-150631009D01*
X100181428Y-150631009D02*
X100086190Y-150583390D01*
X105438571Y-135664700D02*
X106581429Y-135664700D01*
X93138571Y-135664700D02*
X94281429Y-135664700D01*
X93710000Y-136236128D02*
X93710000Y-135093271D01*
X157411905Y-107694819D02*
X157411905Y-108504342D01*
X157411905Y-108504342D02*
X157459524Y-108599580D01*
X157459524Y-108599580D02*
X157507143Y-108647200D01*
X157507143Y-108647200D02*
X157602381Y-108694819D01*
X157602381Y-108694819D02*
X157792857Y-108694819D01*
X157792857Y-108694819D02*
X157888095Y-108647200D01*
X157888095Y-108647200D02*
X157935714Y-108599580D01*
X157935714Y-108599580D02*
X157983333Y-108504342D01*
X157983333Y-108504342D02*
X157983333Y-107694819D01*
X158983333Y-108694819D02*
X158411905Y-108694819D01*
X158697619Y-108694819D02*
X158697619Y-107694819D01*
X158697619Y-107694819D02*
X158602381Y-107837676D01*
X158602381Y-107837676D02*
X158507143Y-107932914D01*
X158507143Y-107932914D02*
X158411905Y-107980533D01*
X159602381Y-107694819D02*
X159697619Y-107694819D01*
X159697619Y-107694819D02*
X159792857Y-107742438D01*
X159792857Y-107742438D02*
X159840476Y-107790057D01*
X159840476Y-107790057D02*
X159888095Y-107885295D01*
X159888095Y-107885295D02*
X159935714Y-108075771D01*
X159935714Y-108075771D02*
X159935714Y-108313866D01*
X159935714Y-108313866D02*
X159888095Y-108504342D01*
X159888095Y-108504342D02*
X159840476Y-108599580D01*
X159840476Y-108599580D02*
X159792857Y-108647200D01*
X159792857Y-108647200D02*
X159697619Y-108694819D01*
X159697619Y-108694819D02*
X159602381Y-108694819D01*
X159602381Y-108694819D02*
X159507143Y-108647200D01*
X159507143Y-108647200D02*
X159459524Y-108599580D01*
X159459524Y-108599580D02*
X159411905Y-108504342D01*
X159411905Y-108504342D02*
X159364286Y-108313866D01*
X159364286Y-108313866D02*
X159364286Y-108075771D01*
X159364286Y-108075771D02*
X159411905Y-107885295D01*
X159411905Y-107885295D02*
X159459524Y-107790057D01*
X159459524Y-107790057D02*
X159507143Y-107742438D01*
X159507143Y-107742438D02*
X159602381Y-107694819D01*
X153924095Y-136462419D02*
X153924095Y-137271942D01*
X153924095Y-137271942D02*
X153971714Y-137367180D01*
X153971714Y-137367180D02*
X154019333Y-137414800D01*
X154019333Y-137414800D02*
X154114571Y-137462419D01*
X154114571Y-137462419D02*
X154305047Y-137462419D01*
X154305047Y-137462419D02*
X154400285Y-137414800D01*
X154400285Y-137414800D02*
X154447904Y-137367180D01*
X154447904Y-137367180D02*
X154495523Y-137271942D01*
X154495523Y-137271942D02*
X154495523Y-136462419D01*
X155400285Y-136462419D02*
X155209809Y-136462419D01*
X155209809Y-136462419D02*
X155114571Y-136510038D01*
X155114571Y-136510038D02*
X155066952Y-136557657D01*
X155066952Y-136557657D02*
X154971714Y-136700514D01*
X154971714Y-136700514D02*
X154924095Y-136890990D01*
X154924095Y-136890990D02*
X154924095Y-137271942D01*
X154924095Y-137271942D02*
X154971714Y-137367180D01*
X154971714Y-137367180D02*
X155019333Y-137414800D01*
X155019333Y-137414800D02*
X155114571Y-137462419D01*
X155114571Y-137462419D02*
X155305047Y-137462419D01*
X155305047Y-137462419D02*
X155400285Y-137414800D01*
X155400285Y-137414800D02*
X155447904Y-137367180D01*
X155447904Y-137367180D02*
X155495523Y-137271942D01*
X155495523Y-137271942D02*
X155495523Y-137033847D01*
X155495523Y-137033847D02*
X155447904Y-136938609D01*
X155447904Y-136938609D02*
X155400285Y-136890990D01*
X155400285Y-136890990D02*
X155305047Y-136843371D01*
X155305047Y-136843371D02*
X155114571Y-136843371D01*
X155114571Y-136843371D02*
X155019333Y-136890990D01*
X155019333Y-136890990D02*
X154971714Y-136938609D01*
X154971714Y-136938609D02*
X154924095Y-137033847D01*
X165314780Y-108897657D02*
X165362400Y-108945276D01*
X165362400Y-108945276D02*
X165410019Y-109088133D01*
X165410019Y-109088133D02*
X165410019Y-109183371D01*
X165410019Y-109183371D02*
X165362400Y-109326228D01*
X165362400Y-109326228D02*
X165267161Y-109421466D01*
X165267161Y-109421466D02*
X165171923Y-109469085D01*
X165171923Y-109469085D02*
X164981447Y-109516704D01*
X164981447Y-109516704D02*
X164838590Y-109516704D01*
X164838590Y-109516704D02*
X164648114Y-109469085D01*
X164648114Y-109469085D02*
X164552876Y-109421466D01*
X164552876Y-109421466D02*
X164457638Y-109326228D01*
X164457638Y-109326228D02*
X164410019Y-109183371D01*
X164410019Y-109183371D02*
X164410019Y-109088133D01*
X164410019Y-109088133D02*
X164457638Y-108945276D01*
X164457638Y-108945276D02*
X164505257Y-108897657D01*
X164410019Y-107992895D02*
X164410019Y-108469085D01*
X164410019Y-108469085D02*
X164886209Y-108516704D01*
X164886209Y-108516704D02*
X164838590Y-108469085D01*
X164838590Y-108469085D02*
X164790971Y-108373847D01*
X164790971Y-108373847D02*
X164790971Y-108135752D01*
X164790971Y-108135752D02*
X164838590Y-108040514D01*
X164838590Y-108040514D02*
X164886209Y-107992895D01*
X164886209Y-107992895D02*
X164981447Y-107945276D01*
X164981447Y-107945276D02*
X165219542Y-107945276D01*
X165219542Y-107945276D02*
X165314780Y-107992895D01*
X165314780Y-107992895D02*
X165362400Y-108040514D01*
X165362400Y-108040514D02*
X165410019Y-108135752D01*
X165410019Y-108135752D02*
X165410019Y-108373847D01*
X165410019Y-108373847D02*
X165362400Y-108469085D01*
X165362400Y-108469085D02*
X165314780Y-108516704D01*
X165410019Y-107469085D02*
X165410019Y-107278609D01*
X165410019Y-107278609D02*
X165362400Y-107183371D01*
X165362400Y-107183371D02*
X165314780Y-107135752D01*
X165314780Y-107135752D02*
X165171923Y-107040514D01*
X165171923Y-107040514D02*
X164981447Y-106992895D01*
X164981447Y-106992895D02*
X164600495Y-106992895D01*
X164600495Y-106992895D02*
X164505257Y-107040514D01*
X164505257Y-107040514D02*
X164457638Y-107088133D01*
X164457638Y-107088133D02*
X164410019Y-107183371D01*
X164410019Y-107183371D02*
X164410019Y-107373847D01*
X164410019Y-107373847D02*
X164457638Y-107469085D01*
X164457638Y-107469085D02*
X164505257Y-107516704D01*
X164505257Y-107516704D02*
X164600495Y-107564323D01*
X164600495Y-107564323D02*
X164838590Y-107564323D01*
X164838590Y-107564323D02*
X164933828Y-107516704D01*
X164933828Y-107516704D02*
X164981447Y-107469085D01*
X164981447Y-107469085D02*
X165029066Y-107373847D01*
X165029066Y-107373847D02*
X165029066Y-107183371D01*
X165029066Y-107183371D02*
X164981447Y-107088133D01*
X164981447Y-107088133D02*
X164933828Y-107040514D01*
X164933828Y-107040514D02*
X164838590Y-106992895D01*
X153261219Y-108952857D02*
X152785028Y-109286190D01*
X153261219Y-109524285D02*
X152261219Y-109524285D01*
X152261219Y-109524285D02*
X152261219Y-109143333D01*
X152261219Y-109143333D02*
X152308838Y-109048095D01*
X152308838Y-109048095D02*
X152356457Y-109000476D01*
X152356457Y-109000476D02*
X152451695Y-108952857D01*
X152451695Y-108952857D02*
X152594552Y-108952857D01*
X152594552Y-108952857D02*
X152689790Y-109000476D01*
X152689790Y-109000476D02*
X152737409Y-109048095D01*
X152737409Y-109048095D02*
X152785028Y-109143333D01*
X152785028Y-109143333D02*
X152785028Y-109524285D01*
X152261219Y-108095714D02*
X152261219Y-108286190D01*
X152261219Y-108286190D02*
X152308838Y-108381428D01*
X152308838Y-108381428D02*
X152356457Y-108429047D01*
X152356457Y-108429047D02*
X152499314Y-108524285D01*
X152499314Y-108524285D02*
X152689790Y-108571904D01*
X152689790Y-108571904D02*
X153070742Y-108571904D01*
X153070742Y-108571904D02*
X153165980Y-108524285D01*
X153165980Y-108524285D02*
X153213600Y-108476666D01*
X153213600Y-108476666D02*
X153261219Y-108381428D01*
X153261219Y-108381428D02*
X153261219Y-108190952D01*
X153261219Y-108190952D02*
X153213600Y-108095714D01*
X153213600Y-108095714D02*
X153165980Y-108048095D01*
X153165980Y-108048095D02*
X153070742Y-108000476D01*
X153070742Y-108000476D02*
X152832647Y-108000476D01*
X152832647Y-108000476D02*
X152737409Y-108048095D01*
X152737409Y-108048095D02*
X152689790Y-108095714D01*
X152689790Y-108095714D02*
X152642171Y-108190952D01*
X152642171Y-108190952D02*
X152642171Y-108381428D01*
X152642171Y-108381428D02*
X152689790Y-108476666D01*
X152689790Y-108476666D02*
X152737409Y-108524285D01*
X152737409Y-108524285D02*
X152832647Y-108571904D01*
X152261219Y-107095714D02*
X152261219Y-107571904D01*
X152261219Y-107571904D02*
X152737409Y-107619523D01*
X152737409Y-107619523D02*
X152689790Y-107571904D01*
X152689790Y-107571904D02*
X152642171Y-107476666D01*
X152642171Y-107476666D02*
X152642171Y-107238571D01*
X152642171Y-107238571D02*
X152689790Y-107143333D01*
X152689790Y-107143333D02*
X152737409Y-107095714D01*
X152737409Y-107095714D02*
X152832647Y-107048095D01*
X152832647Y-107048095D02*
X153070742Y-107048095D01*
X153070742Y-107048095D02*
X153165980Y-107095714D01*
X153165980Y-107095714D02*
X153213600Y-107143333D01*
X153213600Y-107143333D02*
X153261219Y-107238571D01*
X153261219Y-107238571D02*
X153261219Y-107476666D01*
X153261219Y-107476666D02*
X153213600Y-107571904D01*
X153213600Y-107571904D02*
X153165980Y-107619523D01*
X108880476Y-137244819D02*
X108880476Y-137959104D01*
X108880476Y-137959104D02*
X108832857Y-138101961D01*
X108832857Y-138101961D02*
X108737619Y-138197200D01*
X108737619Y-138197200D02*
X108594762Y-138244819D01*
X108594762Y-138244819D02*
X108499524Y-138244819D01*
X109880476Y-138244819D02*
X109309048Y-138244819D01*
X109594762Y-138244819D02*
X109594762Y-137244819D01*
X109594762Y-137244819D02*
X109499524Y-137387676D01*
X109499524Y-137387676D02*
X109404286Y-137482914D01*
X109404286Y-137482914D02*
X109309048Y-137530533D01*
X110785238Y-137244819D02*
X110309048Y-137244819D01*
X110309048Y-137244819D02*
X110261429Y-137721009D01*
X110261429Y-137721009D02*
X110309048Y-137673390D01*
X110309048Y-137673390D02*
X110404286Y-137625771D01*
X110404286Y-137625771D02*
X110642381Y-137625771D01*
X110642381Y-137625771D02*
X110737619Y-137673390D01*
X110737619Y-137673390D02*
X110785238Y-137721009D01*
X110785238Y-137721009D02*
X110832857Y-137816247D01*
X110832857Y-137816247D02*
X110832857Y-138054342D01*
X110832857Y-138054342D02*
X110785238Y-138149580D01*
X110785238Y-138149580D02*
X110737619Y-138197200D01*
X110737619Y-138197200D02*
X110642381Y-138244819D01*
X110642381Y-138244819D02*
X110404286Y-138244819D01*
X110404286Y-138244819D02*
X110309048Y-138197200D01*
X110309048Y-138197200D02*
X110261429Y-138149580D01*
X92444819Y-132066666D02*
X92444819Y-132542856D01*
X92444819Y-132542856D02*
X91444819Y-132542856D01*
X91540057Y-131780951D02*
X91492438Y-131733332D01*
X91492438Y-131733332D02*
X91444819Y-131638094D01*
X91444819Y-131638094D02*
X91444819Y-131399999D01*
X91444819Y-131399999D02*
X91492438Y-131304761D01*
X91492438Y-131304761D02*
X91540057Y-131257142D01*
X91540057Y-131257142D02*
X91635295Y-131209523D01*
X91635295Y-131209523D02*
X91730533Y-131209523D01*
X91730533Y-131209523D02*
X91873390Y-131257142D01*
X91873390Y-131257142D02*
X92444819Y-131828570D01*
X92444819Y-131828570D02*
X92444819Y-131209523D01*
X100463095Y-90674819D02*
X100463095Y-91484342D01*
X100463095Y-91484342D02*
X100510714Y-91579580D01*
X100510714Y-91579580D02*
X100558333Y-91627200D01*
X100558333Y-91627200D02*
X100653571Y-91674819D01*
X100653571Y-91674819D02*
X100844047Y-91674819D01*
X100844047Y-91674819D02*
X100939285Y-91627200D01*
X100939285Y-91627200D02*
X100986904Y-91579580D01*
X100986904Y-91579580D02*
X101034523Y-91484342D01*
X101034523Y-91484342D02*
X101034523Y-90674819D01*
X101653571Y-91103390D02*
X101558333Y-91055771D01*
X101558333Y-91055771D02*
X101510714Y-91008152D01*
X101510714Y-91008152D02*
X101463095Y-90912914D01*
X101463095Y-90912914D02*
X101463095Y-90865295D01*
X101463095Y-90865295D02*
X101510714Y-90770057D01*
X101510714Y-90770057D02*
X101558333Y-90722438D01*
X101558333Y-90722438D02*
X101653571Y-90674819D01*
X101653571Y-90674819D02*
X101844047Y-90674819D01*
X101844047Y-90674819D02*
X101939285Y-90722438D01*
X101939285Y-90722438D02*
X101986904Y-90770057D01*
X101986904Y-90770057D02*
X102034523Y-90865295D01*
X102034523Y-90865295D02*
X102034523Y-90912914D01*
X102034523Y-90912914D02*
X101986904Y-91008152D01*
X101986904Y-91008152D02*
X101939285Y-91055771D01*
X101939285Y-91055771D02*
X101844047Y-91103390D01*
X101844047Y-91103390D02*
X101653571Y-91103390D01*
X101653571Y-91103390D02*
X101558333Y-91151009D01*
X101558333Y-91151009D02*
X101510714Y-91198628D01*
X101510714Y-91198628D02*
X101463095Y-91293866D01*
X101463095Y-91293866D02*
X101463095Y-91484342D01*
X101463095Y-91484342D02*
X101510714Y-91579580D01*
X101510714Y-91579580D02*
X101558333Y-91627200D01*
X101558333Y-91627200D02*
X101653571Y-91674819D01*
X101653571Y-91674819D02*
X101844047Y-91674819D01*
X101844047Y-91674819D02*
X101939285Y-91627200D01*
X101939285Y-91627200D02*
X101986904Y-91579580D01*
X101986904Y-91579580D02*
X102034523Y-91484342D01*
X102034523Y-91484342D02*
X102034523Y-91293866D01*
X102034523Y-91293866D02*
X101986904Y-91198628D01*
X101986904Y-91198628D02*
X101939285Y-91151009D01*
X101939285Y-91151009D02*
X101844047Y-91103390D01*
X91724819Y-101793333D02*
X92439104Y-101793333D01*
X92439104Y-101793333D02*
X92581961Y-101840952D01*
X92581961Y-101840952D02*
X92677200Y-101936190D01*
X92677200Y-101936190D02*
X92724819Y-102079047D01*
X92724819Y-102079047D02*
X92724819Y-102174285D01*
X91724819Y-100888571D02*
X91724819Y-101079047D01*
X91724819Y-101079047D02*
X91772438Y-101174285D01*
X91772438Y-101174285D02*
X91820057Y-101221904D01*
X91820057Y-101221904D02*
X91962914Y-101317142D01*
X91962914Y-101317142D02*
X92153390Y-101364761D01*
X92153390Y-101364761D02*
X92534342Y-101364761D01*
X92534342Y-101364761D02*
X92629580Y-101317142D01*
X92629580Y-101317142D02*
X92677200Y-101269523D01*
X92677200Y-101269523D02*
X92724819Y-101174285D01*
X92724819Y-101174285D02*
X92724819Y-100983809D01*
X92724819Y-100983809D02*
X92677200Y-100888571D01*
X92677200Y-100888571D02*
X92629580Y-100840952D01*
X92629580Y-100840952D02*
X92534342Y-100793333D01*
X92534342Y-100793333D02*
X92296247Y-100793333D01*
X92296247Y-100793333D02*
X92201009Y-100840952D01*
X92201009Y-100840952D02*
X92153390Y-100888571D01*
X92153390Y-100888571D02*
X92105771Y-100983809D01*
X92105771Y-100983809D02*
X92105771Y-101174285D01*
X92105771Y-101174285D02*
X92153390Y-101269523D01*
X92153390Y-101269523D02*
X92201009Y-101317142D01*
X92201009Y-101317142D02*
X92296247Y-101364761D01*
X95254819Y-75333333D02*
X95969104Y-75333333D01*
X95969104Y-75333333D02*
X96111961Y-75380952D01*
X96111961Y-75380952D02*
X96207200Y-75476190D01*
X96207200Y-75476190D02*
X96254819Y-75619047D01*
X96254819Y-75619047D02*
X96254819Y-75714285D01*
X95254819Y-74952380D02*
X95254819Y-74285714D01*
X95254819Y-74285714D02*
X96254819Y-74714285D01*
X145834819Y-100416666D02*
X145358628Y-100749999D01*
X145834819Y-100988094D02*
X144834819Y-100988094D01*
X144834819Y-100988094D02*
X144834819Y-100607142D01*
X144834819Y-100607142D02*
X144882438Y-100511904D01*
X144882438Y-100511904D02*
X144930057Y-100464285D01*
X144930057Y-100464285D02*
X145025295Y-100416666D01*
X145025295Y-100416666D02*
X145168152Y-100416666D01*
X145168152Y-100416666D02*
X145263390Y-100464285D01*
X145263390Y-100464285D02*
X145311009Y-100511904D01*
X145311009Y-100511904D02*
X145358628Y-100607142D01*
X145358628Y-100607142D02*
X145358628Y-100988094D01*
X144834819Y-100083332D02*
X145834819Y-99416666D01*
X144834819Y-99416666D02*
X145834819Y-100083332D01*
X145834819Y-99035713D02*
X144834819Y-99035713D01*
X144834819Y-99035713D02*
X144834819Y-98797618D01*
X144834819Y-98797618D02*
X144882438Y-98654761D01*
X144882438Y-98654761D02*
X144977676Y-98559523D01*
X144977676Y-98559523D02*
X145072914Y-98511904D01*
X145072914Y-98511904D02*
X145263390Y-98464285D01*
X145263390Y-98464285D02*
X145406247Y-98464285D01*
X145406247Y-98464285D02*
X145596723Y-98511904D01*
X145596723Y-98511904D02*
X145691961Y-98559523D01*
X145691961Y-98559523D02*
X145787200Y-98654761D01*
X145787200Y-98654761D02*
X145834819Y-98797618D01*
X145834819Y-98797618D02*
X145834819Y-99035713D01*
X168760876Y-129730019D02*
X168760876Y-130444304D01*
X168760876Y-130444304D02*
X168713257Y-130587161D01*
X168713257Y-130587161D02*
X168618019Y-130682400D01*
X168618019Y-130682400D02*
X168475162Y-130730019D01*
X168475162Y-130730019D02*
X168379924Y-130730019D01*
X169760876Y-130730019D02*
X169189448Y-130730019D01*
X169475162Y-130730019D02*
X169475162Y-129730019D01*
X169475162Y-129730019D02*
X169379924Y-129872876D01*
X169379924Y-129872876D02*
X169284686Y-129968114D01*
X169284686Y-129968114D02*
X169189448Y-130015733D01*
X170094210Y-129730019D02*
X170760876Y-129730019D01*
X170760876Y-129730019D02*
X170332305Y-130730019D01*
X111354819Y-74239523D02*
X112069104Y-74239523D01*
X112069104Y-74239523D02*
X112211961Y-74287142D01*
X112211961Y-74287142D02*
X112307200Y-74382380D01*
X112307200Y-74382380D02*
X112354819Y-74525237D01*
X112354819Y-74525237D02*
X112354819Y-74620475D01*
X112354819Y-73239523D02*
X112354819Y-73810951D01*
X112354819Y-73525237D02*
X111354819Y-73525237D01*
X111354819Y-73525237D02*
X111497676Y-73620475D01*
X111497676Y-73620475D02*
X111592914Y-73715713D01*
X111592914Y-73715713D02*
X111640533Y-73810951D01*
X111450057Y-72858570D02*
X111402438Y-72810951D01*
X111402438Y-72810951D02*
X111354819Y-72715713D01*
X111354819Y-72715713D02*
X111354819Y-72477618D01*
X111354819Y-72477618D02*
X111402438Y-72382380D01*
X111402438Y-72382380D02*
X111450057Y-72334761D01*
X111450057Y-72334761D02*
X111545295Y-72287142D01*
X111545295Y-72287142D02*
X111640533Y-72287142D01*
X111640533Y-72287142D02*
X111783390Y-72334761D01*
X111783390Y-72334761D02*
X112354819Y-72906189D01*
X112354819Y-72906189D02*
X112354819Y-72287142D01*
X100368095Y-111369819D02*
X100368095Y-112179342D01*
X100368095Y-112179342D02*
X100415714Y-112274580D01*
X100415714Y-112274580D02*
X100463333Y-112322200D01*
X100463333Y-112322200D02*
X100558571Y-112369819D01*
X100558571Y-112369819D02*
X100749047Y-112369819D01*
X100749047Y-112369819D02*
X100844285Y-112322200D01*
X100844285Y-112322200D02*
X100891904Y-112274580D01*
X100891904Y-112274580D02*
X100939523Y-112179342D01*
X100939523Y-112179342D02*
X100939523Y-111369819D01*
X101320476Y-111369819D02*
X101987142Y-111369819D01*
X101987142Y-111369819D02*
X101558571Y-112369819D01*
X126970476Y-78044819D02*
X126970476Y-78759104D01*
X126970476Y-78759104D02*
X126922857Y-78901961D01*
X126922857Y-78901961D02*
X126827619Y-78997200D01*
X126827619Y-78997200D02*
X126684762Y-79044819D01*
X126684762Y-79044819D02*
X126589524Y-79044819D01*
X127970476Y-79044819D02*
X127399048Y-79044819D01*
X127684762Y-79044819D02*
X127684762Y-78044819D01*
X127684762Y-78044819D02*
X127589524Y-78187676D01*
X127589524Y-78187676D02*
X127494286Y-78282914D01*
X127494286Y-78282914D02*
X127399048Y-78330533D01*
X128827619Y-78378152D02*
X128827619Y-79044819D01*
X128589524Y-77997200D02*
X128351429Y-78711485D01*
X128351429Y-78711485D02*
X128970476Y-78711485D01*
X169276666Y-135934819D02*
X169276666Y-136649104D01*
X169276666Y-136649104D02*
X169229047Y-136791961D01*
X169229047Y-136791961D02*
X169133809Y-136887200D01*
X169133809Y-136887200D02*
X168990952Y-136934819D01*
X168990952Y-136934819D02*
X168895714Y-136934819D01*
X169705238Y-136030057D02*
X169752857Y-135982438D01*
X169752857Y-135982438D02*
X169848095Y-135934819D01*
X169848095Y-135934819D02*
X170086190Y-135934819D01*
X170086190Y-135934819D02*
X170181428Y-135982438D01*
X170181428Y-135982438D02*
X170229047Y-136030057D01*
X170229047Y-136030057D02*
X170276666Y-136125295D01*
X170276666Y-136125295D02*
X170276666Y-136220533D01*
X170276666Y-136220533D02*
X170229047Y-136363390D01*
X170229047Y-136363390D02*
X169657619Y-136934819D01*
X169657619Y-136934819D02*
X170276666Y-136934819D01*
X102974876Y-78804419D02*
X102974876Y-79518704D01*
X102974876Y-79518704D02*
X102927257Y-79661561D01*
X102927257Y-79661561D02*
X102832019Y-79756800D01*
X102832019Y-79756800D02*
X102689162Y-79804419D01*
X102689162Y-79804419D02*
X102593924Y-79804419D01*
X103974876Y-79804419D02*
X103403448Y-79804419D01*
X103689162Y-79804419D02*
X103689162Y-78804419D01*
X103689162Y-78804419D02*
X103593924Y-78947276D01*
X103593924Y-78947276D02*
X103498686Y-79042514D01*
X103498686Y-79042514D02*
X103403448Y-79090133D01*
X104308210Y-78804419D02*
X104927257Y-78804419D01*
X104927257Y-78804419D02*
X104593924Y-79185371D01*
X104593924Y-79185371D02*
X104736781Y-79185371D01*
X104736781Y-79185371D02*
X104832019Y-79232990D01*
X104832019Y-79232990D02*
X104879638Y-79280609D01*
X104879638Y-79280609D02*
X104927257Y-79375847D01*
X104927257Y-79375847D02*
X104927257Y-79613942D01*
X104927257Y-79613942D02*
X104879638Y-79709180D01*
X104879638Y-79709180D02*
X104832019Y-79756800D01*
X104832019Y-79756800D02*
X104736781Y-79804419D01*
X104736781Y-79804419D02*
X104451067Y-79804419D01*
X104451067Y-79804419D02*
X104355829Y-79756800D01*
X104355829Y-79756800D02*
X104308210Y-79709180D01*
X150744819Y-100801904D02*
X151554342Y-100801904D01*
X151554342Y-100801904D02*
X151649580Y-100754285D01*
X151649580Y-100754285D02*
X151697200Y-100706666D01*
X151697200Y-100706666D02*
X151744819Y-100611428D01*
X151744819Y-100611428D02*
X151744819Y-100420952D01*
X151744819Y-100420952D02*
X151697200Y-100325714D01*
X151697200Y-100325714D02*
X151649580Y-100278095D01*
X151649580Y-100278095D02*
X151554342Y-100230476D01*
X151554342Y-100230476D02*
X150744819Y-100230476D01*
X151697200Y-99801904D02*
X151744819Y-99659047D01*
X151744819Y-99659047D02*
X151744819Y-99420952D01*
X151744819Y-99420952D02*
X151697200Y-99325714D01*
X151697200Y-99325714D02*
X151649580Y-99278095D01*
X151649580Y-99278095D02*
X151554342Y-99230476D01*
X151554342Y-99230476D02*
X151459104Y-99230476D01*
X151459104Y-99230476D02*
X151363866Y-99278095D01*
X151363866Y-99278095D02*
X151316247Y-99325714D01*
X151316247Y-99325714D02*
X151268628Y-99420952D01*
X151268628Y-99420952D02*
X151221009Y-99611428D01*
X151221009Y-99611428D02*
X151173390Y-99706666D01*
X151173390Y-99706666D02*
X151125771Y-99754285D01*
X151125771Y-99754285D02*
X151030533Y-99801904D01*
X151030533Y-99801904D02*
X150935295Y-99801904D01*
X150935295Y-99801904D02*
X150840057Y-99754285D01*
X150840057Y-99754285D02*
X150792438Y-99706666D01*
X150792438Y-99706666D02*
X150744819Y-99611428D01*
X150744819Y-99611428D02*
X150744819Y-99373333D01*
X150744819Y-99373333D02*
X150792438Y-99230476D01*
X151221009Y-98468571D02*
X151268628Y-98325714D01*
X151268628Y-98325714D02*
X151316247Y-98278095D01*
X151316247Y-98278095D02*
X151411485Y-98230476D01*
X151411485Y-98230476D02*
X151554342Y-98230476D01*
X151554342Y-98230476D02*
X151649580Y-98278095D01*
X151649580Y-98278095D02*
X151697200Y-98325714D01*
X151697200Y-98325714D02*
X151744819Y-98420952D01*
X151744819Y-98420952D02*
X151744819Y-98801904D01*
X151744819Y-98801904D02*
X150744819Y-98801904D01*
X150744819Y-98801904D02*
X150744819Y-98468571D01*
X150744819Y-98468571D02*
X150792438Y-98373333D01*
X150792438Y-98373333D02*
X150840057Y-98325714D01*
X150840057Y-98325714D02*
X150935295Y-98278095D01*
X150935295Y-98278095D02*
X151030533Y-98278095D01*
X151030533Y-98278095D02*
X151125771Y-98325714D01*
X151125771Y-98325714D02*
X151173390Y-98373333D01*
X151173390Y-98373333D02*
X151221009Y-98468571D01*
X151221009Y-98468571D02*
X151221009Y-98801904D01*
X110444819Y-91862857D02*
X109968628Y-92196190D01*
X110444819Y-92434285D02*
X109444819Y-92434285D01*
X109444819Y-92434285D02*
X109444819Y-92053333D01*
X109444819Y-92053333D02*
X109492438Y-91958095D01*
X109492438Y-91958095D02*
X109540057Y-91910476D01*
X109540057Y-91910476D02*
X109635295Y-91862857D01*
X109635295Y-91862857D02*
X109778152Y-91862857D01*
X109778152Y-91862857D02*
X109873390Y-91910476D01*
X109873390Y-91910476D02*
X109921009Y-91958095D01*
X109921009Y-91958095D02*
X109968628Y-92053333D01*
X109968628Y-92053333D02*
X109968628Y-92434285D01*
X109778152Y-91005714D02*
X110444819Y-91005714D01*
X109397200Y-91243809D02*
X110111485Y-91481904D01*
X110111485Y-91481904D02*
X110111485Y-90862857D01*
X109444819Y-90005714D02*
X109444819Y-90481904D01*
X109444819Y-90481904D02*
X109921009Y-90529523D01*
X109921009Y-90529523D02*
X109873390Y-90481904D01*
X109873390Y-90481904D02*
X109825771Y-90386666D01*
X109825771Y-90386666D02*
X109825771Y-90148571D01*
X109825771Y-90148571D02*
X109873390Y-90053333D01*
X109873390Y-90053333D02*
X109921009Y-90005714D01*
X109921009Y-90005714D02*
X110016247Y-89958095D01*
X110016247Y-89958095D02*
X110254342Y-89958095D01*
X110254342Y-89958095D02*
X110349580Y-90005714D01*
X110349580Y-90005714D02*
X110397200Y-90053333D01*
X110397200Y-90053333D02*
X110444819Y-90148571D01*
X110444819Y-90148571D02*
X110444819Y-90386666D01*
X110444819Y-90386666D02*
X110397200Y-90481904D01*
X110397200Y-90481904D02*
X110349580Y-90529523D01*
X134844819Y-150276666D02*
X134844819Y-150752856D01*
X134844819Y-150752856D02*
X133844819Y-150752856D01*
X133844819Y-150038570D02*
X133844819Y-149419523D01*
X133844819Y-149419523D02*
X134225771Y-149752856D01*
X134225771Y-149752856D02*
X134225771Y-149609999D01*
X134225771Y-149609999D02*
X134273390Y-149514761D01*
X134273390Y-149514761D02*
X134321009Y-149467142D01*
X134321009Y-149467142D02*
X134416247Y-149419523D01*
X134416247Y-149419523D02*
X134654342Y-149419523D01*
X134654342Y-149419523D02*
X134749580Y-149467142D01*
X134749580Y-149467142D02*
X134797200Y-149514761D01*
X134797200Y-149514761D02*
X134844819Y-149609999D01*
X134844819Y-149609999D02*
X134844819Y-149895713D01*
X134844819Y-149895713D02*
X134797200Y-149990951D01*
X134797200Y-149990951D02*
X134749580Y-150038570D01*
X90097009Y-114322342D02*
X90144628Y-114179485D01*
X90144628Y-114179485D02*
X90192247Y-114131866D01*
X90192247Y-114131866D02*
X90287485Y-114084247D01*
X90287485Y-114084247D02*
X90430342Y-114084247D01*
X90430342Y-114084247D02*
X90525580Y-114131866D01*
X90525580Y-114131866D02*
X90573200Y-114179485D01*
X90573200Y-114179485D02*
X90620819Y-114274723D01*
X90620819Y-114274723D02*
X90620819Y-114655675D01*
X90620819Y-114655675D02*
X89620819Y-114655675D01*
X89620819Y-114655675D02*
X89620819Y-114322342D01*
X89620819Y-114322342D02*
X89668438Y-114227104D01*
X89668438Y-114227104D02*
X89716057Y-114179485D01*
X89716057Y-114179485D02*
X89811295Y-114131866D01*
X89811295Y-114131866D02*
X89906533Y-114131866D01*
X89906533Y-114131866D02*
X90001771Y-114179485D01*
X90001771Y-114179485D02*
X90049390Y-114227104D01*
X90049390Y-114227104D02*
X90097009Y-114322342D01*
X90097009Y-114322342D02*
X90097009Y-114655675D01*
X89620819Y-113465199D02*
X89620819Y-113274723D01*
X89620819Y-113274723D02*
X89668438Y-113179485D01*
X89668438Y-113179485D02*
X89763676Y-113084247D01*
X89763676Y-113084247D02*
X89954152Y-113036628D01*
X89954152Y-113036628D02*
X90287485Y-113036628D01*
X90287485Y-113036628D02*
X90477961Y-113084247D01*
X90477961Y-113084247D02*
X90573200Y-113179485D01*
X90573200Y-113179485D02*
X90620819Y-113274723D01*
X90620819Y-113274723D02*
X90620819Y-113465199D01*
X90620819Y-113465199D02*
X90573200Y-113560437D01*
X90573200Y-113560437D02*
X90477961Y-113655675D01*
X90477961Y-113655675D02*
X90287485Y-113703294D01*
X90287485Y-113703294D02*
X89954152Y-113703294D01*
X89954152Y-113703294D02*
X89763676Y-113655675D01*
X89763676Y-113655675D02*
X89668438Y-113560437D01*
X89668438Y-113560437D02*
X89620819Y-113465199D01*
X89620819Y-112417580D02*
X89620819Y-112227104D01*
X89620819Y-112227104D02*
X89668438Y-112131866D01*
X89668438Y-112131866D02*
X89763676Y-112036628D01*
X89763676Y-112036628D02*
X89954152Y-111989009D01*
X89954152Y-111989009D02*
X90287485Y-111989009D01*
X90287485Y-111989009D02*
X90477961Y-112036628D01*
X90477961Y-112036628D02*
X90573200Y-112131866D01*
X90573200Y-112131866D02*
X90620819Y-112227104D01*
X90620819Y-112227104D02*
X90620819Y-112417580D01*
X90620819Y-112417580D02*
X90573200Y-112512818D01*
X90573200Y-112512818D02*
X90477961Y-112608056D01*
X90477961Y-112608056D02*
X90287485Y-112655675D01*
X90287485Y-112655675D02*
X89954152Y-112655675D01*
X89954152Y-112655675D02*
X89763676Y-112608056D01*
X89763676Y-112608056D02*
X89668438Y-112512818D01*
X89668438Y-112512818D02*
X89620819Y-112417580D01*
X89620819Y-111703294D02*
X89620819Y-111131866D01*
X90620819Y-111417580D02*
X89620819Y-111417580D01*
X107814819Y-112122857D02*
X107338628Y-112456190D01*
X107814819Y-112694285D02*
X106814819Y-112694285D01*
X106814819Y-112694285D02*
X106814819Y-112313333D01*
X106814819Y-112313333D02*
X106862438Y-112218095D01*
X106862438Y-112218095D02*
X106910057Y-112170476D01*
X106910057Y-112170476D02*
X107005295Y-112122857D01*
X107005295Y-112122857D02*
X107148152Y-112122857D01*
X107148152Y-112122857D02*
X107243390Y-112170476D01*
X107243390Y-112170476D02*
X107291009Y-112218095D01*
X107291009Y-112218095D02*
X107338628Y-112313333D01*
X107338628Y-112313333D02*
X107338628Y-112694285D01*
X107148152Y-111265714D02*
X107814819Y-111265714D01*
X106767200Y-111503809D02*
X107481485Y-111741904D01*
X107481485Y-111741904D02*
X107481485Y-111122857D01*
X107148152Y-110313333D02*
X107814819Y-110313333D01*
X106767200Y-110551428D02*
X107481485Y-110789523D01*
X107481485Y-110789523D02*
X107481485Y-110170476D01*
X157921905Y-128624819D02*
X157921905Y-129434342D01*
X157921905Y-129434342D02*
X157969524Y-129529580D01*
X157969524Y-129529580D02*
X158017143Y-129577200D01*
X158017143Y-129577200D02*
X158112381Y-129624819D01*
X158112381Y-129624819D02*
X158302857Y-129624819D01*
X158302857Y-129624819D02*
X158398095Y-129577200D01*
X158398095Y-129577200D02*
X158445714Y-129529580D01*
X158445714Y-129529580D02*
X158493333Y-129434342D01*
X158493333Y-129434342D02*
X158493333Y-128624819D01*
X159493333Y-129624819D02*
X158921905Y-129624819D01*
X159207619Y-129624819D02*
X159207619Y-128624819D01*
X159207619Y-128624819D02*
X159112381Y-128767676D01*
X159112381Y-128767676D02*
X159017143Y-128862914D01*
X159017143Y-128862914D02*
X158921905Y-128910533D01*
X160445714Y-129624819D02*
X159874286Y-129624819D01*
X160160000Y-129624819D02*
X160160000Y-128624819D01*
X160160000Y-128624819D02*
X160064762Y-128767676D01*
X160064762Y-128767676D02*
X159969524Y-128862914D01*
X159969524Y-128862914D02*
X159874286Y-128910533D01*
X153564819Y-130052857D02*
X153088628Y-130386190D01*
X153564819Y-130624285D02*
X152564819Y-130624285D01*
X152564819Y-130624285D02*
X152564819Y-130243333D01*
X152564819Y-130243333D02*
X152612438Y-130148095D01*
X152612438Y-130148095D02*
X152660057Y-130100476D01*
X152660057Y-130100476D02*
X152755295Y-130052857D01*
X152755295Y-130052857D02*
X152898152Y-130052857D01*
X152898152Y-130052857D02*
X152993390Y-130100476D01*
X152993390Y-130100476D02*
X153041009Y-130148095D01*
X153041009Y-130148095D02*
X153088628Y-130243333D01*
X153088628Y-130243333D02*
X153088628Y-130624285D01*
X152564819Y-129195714D02*
X152564819Y-129386190D01*
X152564819Y-129386190D02*
X152612438Y-129481428D01*
X152612438Y-129481428D02*
X152660057Y-129529047D01*
X152660057Y-129529047D02*
X152802914Y-129624285D01*
X152802914Y-129624285D02*
X152993390Y-129671904D01*
X152993390Y-129671904D02*
X153374342Y-129671904D01*
X153374342Y-129671904D02*
X153469580Y-129624285D01*
X153469580Y-129624285D02*
X153517200Y-129576666D01*
X153517200Y-129576666D02*
X153564819Y-129481428D01*
X153564819Y-129481428D02*
X153564819Y-129290952D01*
X153564819Y-129290952D02*
X153517200Y-129195714D01*
X153517200Y-129195714D02*
X153469580Y-129148095D01*
X153469580Y-129148095D02*
X153374342Y-129100476D01*
X153374342Y-129100476D02*
X153136247Y-129100476D01*
X153136247Y-129100476D02*
X153041009Y-129148095D01*
X153041009Y-129148095D02*
X152993390Y-129195714D01*
X152993390Y-129195714D02*
X152945771Y-129290952D01*
X152945771Y-129290952D02*
X152945771Y-129481428D01*
X152945771Y-129481428D02*
X152993390Y-129576666D01*
X152993390Y-129576666D02*
X153041009Y-129624285D01*
X153041009Y-129624285D02*
X153136247Y-129671904D01*
X152564819Y-128243333D02*
X152564819Y-128433809D01*
X152564819Y-128433809D02*
X152612438Y-128529047D01*
X152612438Y-128529047D02*
X152660057Y-128576666D01*
X152660057Y-128576666D02*
X152802914Y-128671904D01*
X152802914Y-128671904D02*
X152993390Y-128719523D01*
X152993390Y-128719523D02*
X153374342Y-128719523D01*
X153374342Y-128719523D02*
X153469580Y-128671904D01*
X153469580Y-128671904D02*
X153517200Y-128624285D01*
X153517200Y-128624285D02*
X153564819Y-128529047D01*
X153564819Y-128529047D02*
X153564819Y-128338571D01*
X153564819Y-128338571D02*
X153517200Y-128243333D01*
X153517200Y-128243333D02*
X153469580Y-128195714D01*
X153469580Y-128195714D02*
X153374342Y-128148095D01*
X153374342Y-128148095D02*
X153136247Y-128148095D01*
X153136247Y-128148095D02*
X153041009Y-128195714D01*
X153041009Y-128195714D02*
X152993390Y-128243333D01*
X152993390Y-128243333D02*
X152945771Y-128338571D01*
X152945771Y-128338571D02*
X152945771Y-128529047D01*
X152945771Y-128529047D02*
X152993390Y-128624285D01*
X152993390Y-128624285D02*
X153041009Y-128671904D01*
X153041009Y-128671904D02*
X153136247Y-128719523D01*
X96962895Y-116230619D02*
X96962895Y-117040142D01*
X96962895Y-117040142D02*
X97010514Y-117135380D01*
X97010514Y-117135380D02*
X97058133Y-117183000D01*
X97058133Y-117183000D02*
X97153371Y-117230619D01*
X97153371Y-117230619D02*
X97343847Y-117230619D01*
X97343847Y-117230619D02*
X97439085Y-117183000D01*
X97439085Y-117183000D02*
X97486704Y-117135380D01*
X97486704Y-117135380D02*
X97534323Y-117040142D01*
X97534323Y-117040142D02*
X97534323Y-116230619D01*
X98486704Y-116230619D02*
X98010514Y-116230619D01*
X98010514Y-116230619D02*
X97962895Y-116706809D01*
X97962895Y-116706809D02*
X98010514Y-116659190D01*
X98010514Y-116659190D02*
X98105752Y-116611571D01*
X98105752Y-116611571D02*
X98343847Y-116611571D01*
X98343847Y-116611571D02*
X98439085Y-116659190D01*
X98439085Y-116659190D02*
X98486704Y-116706809D01*
X98486704Y-116706809D02*
X98534323Y-116802047D01*
X98534323Y-116802047D02*
X98534323Y-117040142D01*
X98534323Y-117040142D02*
X98486704Y-117135380D01*
X98486704Y-117135380D02*
X98439085Y-117183000D01*
X98439085Y-117183000D02*
X98343847Y-117230619D01*
X98343847Y-117230619D02*
X98105752Y-117230619D01*
X98105752Y-117230619D02*
X98010514Y-117183000D01*
X98010514Y-117183000D02*
X97962895Y-117135380D01*
X148333866Y-101502380D02*
X148333866Y-100740476D01*
X148714819Y-101121428D02*
X147952914Y-101121428D01*
X147714819Y-100359523D02*
X147714819Y-99740476D01*
X147714819Y-99740476D02*
X148095771Y-100073809D01*
X148095771Y-100073809D02*
X148095771Y-99930952D01*
X148095771Y-99930952D02*
X148143390Y-99835714D01*
X148143390Y-99835714D02*
X148191009Y-99788095D01*
X148191009Y-99788095D02*
X148286247Y-99740476D01*
X148286247Y-99740476D02*
X148524342Y-99740476D01*
X148524342Y-99740476D02*
X148619580Y-99788095D01*
X148619580Y-99788095D02*
X148667200Y-99835714D01*
X148667200Y-99835714D02*
X148714819Y-99930952D01*
X148714819Y-99930952D02*
X148714819Y-100216666D01*
X148714819Y-100216666D02*
X148667200Y-100311904D01*
X148667200Y-100311904D02*
X148619580Y-100359523D01*
X148619580Y-99311904D02*
X148667200Y-99264285D01*
X148667200Y-99264285D02*
X148714819Y-99311904D01*
X148714819Y-99311904D02*
X148667200Y-99359523D01*
X148667200Y-99359523D02*
X148619580Y-99311904D01*
X148619580Y-99311904D02*
X148714819Y-99311904D01*
X147714819Y-98930952D02*
X147714819Y-98311905D01*
X147714819Y-98311905D02*
X148095771Y-98645238D01*
X148095771Y-98645238D02*
X148095771Y-98502381D01*
X148095771Y-98502381D02*
X148143390Y-98407143D01*
X148143390Y-98407143D02*
X148191009Y-98359524D01*
X148191009Y-98359524D02*
X148286247Y-98311905D01*
X148286247Y-98311905D02*
X148524342Y-98311905D01*
X148524342Y-98311905D02*
X148619580Y-98359524D01*
X148619580Y-98359524D02*
X148667200Y-98407143D01*
X148667200Y-98407143D02*
X148714819Y-98502381D01*
X148714819Y-98502381D02*
X148714819Y-98788095D01*
X148714819Y-98788095D02*
X148667200Y-98883333D01*
X148667200Y-98883333D02*
X148619580Y-98930952D01*
X148048152Y-97978571D02*
X148714819Y-97740476D01*
X148714819Y-97740476D02*
X148048152Y-97502381D01*
X159744819Y-118993333D02*
X160459104Y-118993333D01*
X160459104Y-118993333D02*
X160601961Y-119040952D01*
X160601961Y-119040952D02*
X160697200Y-119136190D01*
X160697200Y-119136190D02*
X160744819Y-119279047D01*
X160744819Y-119279047D02*
X160744819Y-119374285D01*
X160744819Y-118469523D02*
X160744819Y-118279047D01*
X160744819Y-118279047D02*
X160697200Y-118183809D01*
X160697200Y-118183809D02*
X160649580Y-118136190D01*
X160649580Y-118136190D02*
X160506723Y-118040952D01*
X160506723Y-118040952D02*
X160316247Y-117993333D01*
X160316247Y-117993333D02*
X159935295Y-117993333D01*
X159935295Y-117993333D02*
X159840057Y-118040952D01*
X159840057Y-118040952D02*
X159792438Y-118088571D01*
X159792438Y-118088571D02*
X159744819Y-118183809D01*
X159744819Y-118183809D02*
X159744819Y-118374285D01*
X159744819Y-118374285D02*
X159792438Y-118469523D01*
X159792438Y-118469523D02*
X159840057Y-118517142D01*
X159840057Y-118517142D02*
X159935295Y-118564761D01*
X159935295Y-118564761D02*
X160173390Y-118564761D01*
X160173390Y-118564761D02*
X160268628Y-118517142D01*
X160268628Y-118517142D02*
X160316247Y-118469523D01*
X160316247Y-118469523D02*
X160363866Y-118374285D01*
X160363866Y-118374285D02*
X160363866Y-118183809D01*
X160363866Y-118183809D02*
X160316247Y-118088571D01*
X160316247Y-118088571D02*
X160268628Y-118040952D01*
X160268628Y-118040952D02*
X160173390Y-117993333D01*
X122674819Y-131936666D02*
X122674819Y-132412856D01*
X122674819Y-132412856D02*
X121674819Y-132412856D01*
X122674819Y-131079523D02*
X122674819Y-131650951D01*
X122674819Y-131365237D02*
X121674819Y-131365237D01*
X121674819Y-131365237D02*
X121817676Y-131460475D01*
X121817676Y-131460475D02*
X121912914Y-131555713D01*
X121912914Y-131555713D02*
X121960533Y-131650951D01*
X139055695Y-138859466D02*
X139817600Y-138859466D01*
X139436647Y-139240419D02*
X139436647Y-138478514D01*
X140246171Y-138335657D02*
X140293790Y-138288038D01*
X140293790Y-138288038D02*
X140389028Y-138240419D01*
X140389028Y-138240419D02*
X140627123Y-138240419D01*
X140627123Y-138240419D02*
X140722361Y-138288038D01*
X140722361Y-138288038D02*
X140769980Y-138335657D01*
X140769980Y-138335657D02*
X140817599Y-138430895D01*
X140817599Y-138430895D02*
X140817599Y-138526133D01*
X140817599Y-138526133D02*
X140769980Y-138668990D01*
X140769980Y-138668990D02*
X140198552Y-139240419D01*
X140198552Y-139240419D02*
X140817599Y-139240419D01*
X141674742Y-138573752D02*
X141674742Y-139240419D01*
X141436647Y-138192800D02*
X141198552Y-138907085D01*
X141198552Y-138907085D02*
X141817599Y-138907085D01*
X142055695Y-138240419D02*
X142389028Y-139240419D01*
X142389028Y-139240419D02*
X142722361Y-138240419D01*
X140574761Y-101640057D02*
X140479523Y-101592438D01*
X140479523Y-101592438D02*
X140384285Y-101497200D01*
X140384285Y-101497200D02*
X140241428Y-101354342D01*
X140241428Y-101354342D02*
X140146190Y-101306723D01*
X140146190Y-101306723D02*
X140050952Y-101306723D01*
X140098571Y-101544819D02*
X140003333Y-101497200D01*
X140003333Y-101497200D02*
X139908095Y-101401961D01*
X139908095Y-101401961D02*
X139860476Y-101211485D01*
X139860476Y-101211485D02*
X139860476Y-100878152D01*
X139860476Y-100878152D02*
X139908095Y-100687676D01*
X139908095Y-100687676D02*
X140003333Y-100592438D01*
X140003333Y-100592438D02*
X140098571Y-100544819D01*
X140098571Y-100544819D02*
X140289047Y-100544819D01*
X140289047Y-100544819D02*
X140384285Y-100592438D01*
X140384285Y-100592438D02*
X140479523Y-100687676D01*
X140479523Y-100687676D02*
X140527142Y-100878152D01*
X140527142Y-100878152D02*
X140527142Y-101211485D01*
X140527142Y-101211485D02*
X140479523Y-101401961D01*
X140479523Y-101401961D02*
X140384285Y-101497200D01*
X140384285Y-101497200D02*
X140289047Y-101544819D01*
X140289047Y-101544819D02*
X140098571Y-101544819D01*
X140860476Y-100544819D02*
X141527142Y-100544819D01*
X141527142Y-100544819D02*
X141098571Y-101544819D01*
X123901295Y-83274819D02*
X123901295Y-84084342D01*
X123901295Y-84084342D02*
X123948914Y-84179580D01*
X123948914Y-84179580D02*
X123996533Y-84227200D01*
X123996533Y-84227200D02*
X124091771Y-84274819D01*
X124091771Y-84274819D02*
X124282247Y-84274819D01*
X124282247Y-84274819D02*
X124377485Y-84227200D01*
X124377485Y-84227200D02*
X124425104Y-84179580D01*
X124425104Y-84179580D02*
X124472723Y-84084342D01*
X124472723Y-84084342D02*
X124472723Y-83274819D01*
X124901295Y-83370057D02*
X124948914Y-83322438D01*
X124948914Y-83322438D02*
X125044152Y-83274819D01*
X125044152Y-83274819D02*
X125282247Y-83274819D01*
X125282247Y-83274819D02*
X125377485Y-83322438D01*
X125377485Y-83322438D02*
X125425104Y-83370057D01*
X125425104Y-83370057D02*
X125472723Y-83465295D01*
X125472723Y-83465295D02*
X125472723Y-83560533D01*
X125472723Y-83560533D02*
X125425104Y-83703390D01*
X125425104Y-83703390D02*
X124853676Y-84274819D01*
X124853676Y-84274819D02*
X125472723Y-84274819D01*
X124774761Y-107780057D02*
X124679523Y-107732438D01*
X124679523Y-107732438D02*
X124584285Y-107637200D01*
X124584285Y-107637200D02*
X124441428Y-107494342D01*
X124441428Y-107494342D02*
X124346190Y-107446723D01*
X124346190Y-107446723D02*
X124250952Y-107446723D01*
X124298571Y-107684819D02*
X124203333Y-107637200D01*
X124203333Y-107637200D02*
X124108095Y-107541961D01*
X124108095Y-107541961D02*
X124060476Y-107351485D01*
X124060476Y-107351485D02*
X124060476Y-107018152D01*
X124060476Y-107018152D02*
X124108095Y-106827676D01*
X124108095Y-106827676D02*
X124203333Y-106732438D01*
X124203333Y-106732438D02*
X124298571Y-106684819D01*
X124298571Y-106684819D02*
X124489047Y-106684819D01*
X124489047Y-106684819D02*
X124584285Y-106732438D01*
X124584285Y-106732438D02*
X124679523Y-106827676D01*
X124679523Y-106827676D02*
X124727142Y-107018152D01*
X124727142Y-107018152D02*
X124727142Y-107351485D01*
X124727142Y-107351485D02*
X124679523Y-107541961D01*
X124679523Y-107541961D02*
X124584285Y-107637200D01*
X124584285Y-107637200D02*
X124489047Y-107684819D01*
X124489047Y-107684819D02*
X124298571Y-107684819D01*
X125631904Y-106684819D02*
X125155714Y-106684819D01*
X125155714Y-106684819D02*
X125108095Y-107161009D01*
X125108095Y-107161009D02*
X125155714Y-107113390D01*
X125155714Y-107113390D02*
X125250952Y-107065771D01*
X125250952Y-107065771D02*
X125489047Y-107065771D01*
X125489047Y-107065771D02*
X125584285Y-107113390D01*
X125584285Y-107113390D02*
X125631904Y-107161009D01*
X125631904Y-107161009D02*
X125679523Y-107256247D01*
X125679523Y-107256247D02*
X125679523Y-107494342D01*
X125679523Y-107494342D02*
X125631904Y-107589580D01*
X125631904Y-107589580D02*
X125584285Y-107637200D01*
X125584285Y-107637200D02*
X125489047Y-107684819D01*
X125489047Y-107684819D02*
X125250952Y-107684819D01*
X125250952Y-107684819D02*
X125155714Y-107637200D01*
X125155714Y-107637200D02*
X125108095Y-107589580D01*
X124914761Y-95380057D02*
X124819523Y-95332438D01*
X124819523Y-95332438D02*
X124724285Y-95237200D01*
X124724285Y-95237200D02*
X124581428Y-95094342D01*
X124581428Y-95094342D02*
X124486190Y-95046723D01*
X124486190Y-95046723D02*
X124390952Y-95046723D01*
X124438571Y-95284819D02*
X124343333Y-95237200D01*
X124343333Y-95237200D02*
X124248095Y-95141961D01*
X124248095Y-95141961D02*
X124200476Y-94951485D01*
X124200476Y-94951485D02*
X124200476Y-94618152D01*
X124200476Y-94618152D02*
X124248095Y-94427676D01*
X124248095Y-94427676D02*
X124343333Y-94332438D01*
X124343333Y-94332438D02*
X124438571Y-94284819D01*
X124438571Y-94284819D02*
X124629047Y-94284819D01*
X124629047Y-94284819D02*
X124724285Y-94332438D01*
X124724285Y-94332438D02*
X124819523Y-94427676D01*
X124819523Y-94427676D02*
X124867142Y-94618152D01*
X124867142Y-94618152D02*
X124867142Y-94951485D01*
X124867142Y-94951485D02*
X124819523Y-95141961D01*
X124819523Y-95141961D02*
X124724285Y-95237200D01*
X124724285Y-95237200D02*
X124629047Y-95284819D01*
X124629047Y-95284819D02*
X124438571Y-95284819D01*
X125724285Y-94284819D02*
X125533809Y-94284819D01*
X125533809Y-94284819D02*
X125438571Y-94332438D01*
X125438571Y-94332438D02*
X125390952Y-94380057D01*
X125390952Y-94380057D02*
X125295714Y-94522914D01*
X125295714Y-94522914D02*
X125248095Y-94713390D01*
X125248095Y-94713390D02*
X125248095Y-95094342D01*
X125248095Y-95094342D02*
X125295714Y-95189580D01*
X125295714Y-95189580D02*
X125343333Y-95237200D01*
X125343333Y-95237200D02*
X125438571Y-95284819D01*
X125438571Y-95284819D02*
X125629047Y-95284819D01*
X125629047Y-95284819D02*
X125724285Y-95237200D01*
X125724285Y-95237200D02*
X125771904Y-95189580D01*
X125771904Y-95189580D02*
X125819523Y-95094342D01*
X125819523Y-95094342D02*
X125819523Y-94856247D01*
X125819523Y-94856247D02*
X125771904Y-94761009D01*
X125771904Y-94761009D02*
X125724285Y-94713390D01*
X125724285Y-94713390D02*
X125629047Y-94665771D01*
X125629047Y-94665771D02*
X125438571Y-94665771D01*
X125438571Y-94665771D02*
X125343333Y-94713390D01*
X125343333Y-94713390D02*
X125295714Y-94761009D01*
X125295714Y-94761009D02*
X125248095Y-94856247D01*
X126217142Y-136109580D02*
X126169523Y-136157200D01*
X126169523Y-136157200D02*
X126026666Y-136204819D01*
X126026666Y-136204819D02*
X125931428Y-136204819D01*
X125931428Y-136204819D02*
X125788571Y-136157200D01*
X125788571Y-136157200D02*
X125693333Y-136061961D01*
X125693333Y-136061961D02*
X125645714Y-135966723D01*
X125645714Y-135966723D02*
X125598095Y-135776247D01*
X125598095Y-135776247D02*
X125598095Y-135633390D01*
X125598095Y-135633390D02*
X125645714Y-135442914D01*
X125645714Y-135442914D02*
X125693333Y-135347676D01*
X125693333Y-135347676D02*
X125788571Y-135252438D01*
X125788571Y-135252438D02*
X125931428Y-135204819D01*
X125931428Y-135204819D02*
X126026666Y-135204819D01*
X126026666Y-135204819D02*
X126169523Y-135252438D01*
X126169523Y-135252438D02*
X126217142Y-135300057D01*
X127074285Y-135538152D02*
X127074285Y-136204819D01*
X126836190Y-135157200D02*
X126598095Y-135871485D01*
X126598095Y-135871485D02*
X127217142Y-135871485D01*
X127740952Y-135633390D02*
X127645714Y-135585771D01*
X127645714Y-135585771D02*
X127598095Y-135538152D01*
X127598095Y-135538152D02*
X127550476Y-135442914D01*
X127550476Y-135442914D02*
X127550476Y-135395295D01*
X127550476Y-135395295D02*
X127598095Y-135300057D01*
X127598095Y-135300057D02*
X127645714Y-135252438D01*
X127645714Y-135252438D02*
X127740952Y-135204819D01*
X127740952Y-135204819D02*
X127931428Y-135204819D01*
X127931428Y-135204819D02*
X128026666Y-135252438D01*
X128026666Y-135252438D02*
X128074285Y-135300057D01*
X128074285Y-135300057D02*
X128121904Y-135395295D01*
X128121904Y-135395295D02*
X128121904Y-135442914D01*
X128121904Y-135442914D02*
X128074285Y-135538152D01*
X128074285Y-135538152D02*
X128026666Y-135585771D01*
X128026666Y-135585771D02*
X127931428Y-135633390D01*
X127931428Y-135633390D02*
X127740952Y-135633390D01*
X127740952Y-135633390D02*
X127645714Y-135681009D01*
X127645714Y-135681009D02*
X127598095Y-135728628D01*
X127598095Y-135728628D02*
X127550476Y-135823866D01*
X127550476Y-135823866D02*
X127550476Y-136014342D01*
X127550476Y-136014342D02*
X127598095Y-136109580D01*
X127598095Y-136109580D02*
X127645714Y-136157200D01*
X127645714Y-136157200D02*
X127740952Y-136204819D01*
X127740952Y-136204819D02*
X127931428Y-136204819D01*
X127931428Y-136204819D02*
X128026666Y-136157200D01*
X128026666Y-136157200D02*
X128074285Y-136109580D01*
X128074285Y-136109580D02*
X128121904Y-136014342D01*
X128121904Y-136014342D02*
X128121904Y-135823866D01*
X128121904Y-135823866D02*
X128074285Y-135728628D01*
X128074285Y-135728628D02*
X128026666Y-135681009D01*
X128026666Y-135681009D02*
X127931428Y-135633390D01*
X90016209Y-118814094D02*
X90016209Y-118480761D01*
X90540019Y-118337904D02*
X90540019Y-118814094D01*
X90540019Y-118814094D02*
X89540019Y-118814094D01*
X89540019Y-118814094D02*
X89540019Y-118337904D01*
X90540019Y-117909332D02*
X89540019Y-117909332D01*
X89540019Y-117909332D02*
X90540019Y-117337904D01*
X90540019Y-117337904D02*
X89540019Y-117337904D01*
X149028095Y-82774819D02*
X149028095Y-83584342D01*
X149028095Y-83584342D02*
X149075714Y-83679580D01*
X149075714Y-83679580D02*
X149123333Y-83727200D01*
X149123333Y-83727200D02*
X149218571Y-83774819D01*
X149218571Y-83774819D02*
X149409047Y-83774819D01*
X149409047Y-83774819D02*
X149504285Y-83727200D01*
X149504285Y-83727200D02*
X149551904Y-83679580D01*
X149551904Y-83679580D02*
X149599523Y-83584342D01*
X149599523Y-83584342D02*
X149599523Y-82774819D01*
X149980476Y-82774819D02*
X150599523Y-82774819D01*
X150599523Y-82774819D02*
X150266190Y-83155771D01*
X150266190Y-83155771D02*
X150409047Y-83155771D01*
X150409047Y-83155771D02*
X150504285Y-83203390D01*
X150504285Y-83203390D02*
X150551904Y-83251009D01*
X150551904Y-83251009D02*
X150599523Y-83346247D01*
X150599523Y-83346247D02*
X150599523Y-83584342D01*
X150599523Y-83584342D02*
X150551904Y-83679580D01*
X150551904Y-83679580D02*
X150504285Y-83727200D01*
X150504285Y-83727200D02*
X150409047Y-83774819D01*
X150409047Y-83774819D02*
X150123333Y-83774819D01*
X150123333Y-83774819D02*
X150028095Y-83727200D01*
X150028095Y-83727200D02*
X149980476Y-83679580D01*
X110632419Y-80278266D02*
X110156228Y-80611599D01*
X110632419Y-80849694D02*
X109632419Y-80849694D01*
X109632419Y-80849694D02*
X109632419Y-80468742D01*
X109632419Y-80468742D02*
X109680038Y-80373504D01*
X109680038Y-80373504D02*
X109727657Y-80325885D01*
X109727657Y-80325885D02*
X109822895Y-80278266D01*
X109822895Y-80278266D02*
X109965752Y-80278266D01*
X109965752Y-80278266D02*
X110060990Y-80325885D01*
X110060990Y-80325885D02*
X110108609Y-80373504D01*
X110108609Y-80373504D02*
X110156228Y-80468742D01*
X110156228Y-80468742D02*
X110156228Y-80849694D01*
X109632419Y-79944932D02*
X109632419Y-79325885D01*
X109632419Y-79325885D02*
X110013371Y-79659218D01*
X110013371Y-79659218D02*
X110013371Y-79516361D01*
X110013371Y-79516361D02*
X110060990Y-79421123D01*
X110060990Y-79421123D02*
X110108609Y-79373504D01*
X110108609Y-79373504D02*
X110203847Y-79325885D01*
X110203847Y-79325885D02*
X110441942Y-79325885D01*
X110441942Y-79325885D02*
X110537180Y-79373504D01*
X110537180Y-79373504D02*
X110584800Y-79421123D01*
X110584800Y-79421123D02*
X110632419Y-79516361D01*
X110632419Y-79516361D02*
X110632419Y-79802075D01*
X110632419Y-79802075D02*
X110584800Y-79897313D01*
X110584800Y-79897313D02*
X110537180Y-79944932D01*
X99194819Y-73073333D02*
X99909104Y-73073333D01*
X99909104Y-73073333D02*
X100051961Y-73120952D01*
X100051961Y-73120952D02*
X100147200Y-73216190D01*
X100147200Y-73216190D02*
X100194819Y-73359047D01*
X100194819Y-73359047D02*
X100194819Y-73454285D01*
X99194819Y-72692380D02*
X99194819Y-72073333D01*
X99194819Y-72073333D02*
X99575771Y-72406666D01*
X99575771Y-72406666D02*
X99575771Y-72263809D01*
X99575771Y-72263809D02*
X99623390Y-72168571D01*
X99623390Y-72168571D02*
X99671009Y-72120952D01*
X99671009Y-72120952D02*
X99766247Y-72073333D01*
X99766247Y-72073333D02*
X100004342Y-72073333D01*
X100004342Y-72073333D02*
X100099580Y-72120952D01*
X100099580Y-72120952D02*
X100147200Y-72168571D01*
X100147200Y-72168571D02*
X100194819Y-72263809D01*
X100194819Y-72263809D02*
X100194819Y-72549523D01*
X100194819Y-72549523D02*
X100147200Y-72644761D01*
X100147200Y-72644761D02*
X100099580Y-72692380D01*
X136674761Y-114040057D02*
X136579523Y-113992438D01*
X136579523Y-113992438D02*
X136484285Y-113897200D01*
X136484285Y-113897200D02*
X136341428Y-113754342D01*
X136341428Y-113754342D02*
X136246190Y-113706723D01*
X136246190Y-113706723D02*
X136150952Y-113706723D01*
X136198571Y-113944819D02*
X136103333Y-113897200D01*
X136103333Y-113897200D02*
X136008095Y-113801961D01*
X136008095Y-113801961D02*
X135960476Y-113611485D01*
X135960476Y-113611485D02*
X135960476Y-113278152D01*
X135960476Y-113278152D02*
X136008095Y-113087676D01*
X136008095Y-113087676D02*
X136103333Y-112992438D01*
X136103333Y-112992438D02*
X136198571Y-112944819D01*
X136198571Y-112944819D02*
X136389047Y-112944819D01*
X136389047Y-112944819D02*
X136484285Y-112992438D01*
X136484285Y-112992438D02*
X136579523Y-113087676D01*
X136579523Y-113087676D02*
X136627142Y-113278152D01*
X136627142Y-113278152D02*
X136627142Y-113611485D01*
X136627142Y-113611485D02*
X136579523Y-113801961D01*
X136579523Y-113801961D02*
X136484285Y-113897200D01*
X136484285Y-113897200D02*
X136389047Y-113944819D01*
X136389047Y-113944819D02*
X136198571Y-113944819D01*
X137198571Y-113373390D02*
X137103333Y-113325771D01*
X137103333Y-113325771D02*
X137055714Y-113278152D01*
X137055714Y-113278152D02*
X137008095Y-113182914D01*
X137008095Y-113182914D02*
X137008095Y-113135295D01*
X137008095Y-113135295D02*
X137055714Y-113040057D01*
X137055714Y-113040057D02*
X137103333Y-112992438D01*
X137103333Y-112992438D02*
X137198571Y-112944819D01*
X137198571Y-112944819D02*
X137389047Y-112944819D01*
X137389047Y-112944819D02*
X137484285Y-112992438D01*
X137484285Y-112992438D02*
X137531904Y-113040057D01*
X137531904Y-113040057D02*
X137579523Y-113135295D01*
X137579523Y-113135295D02*
X137579523Y-113182914D01*
X137579523Y-113182914D02*
X137531904Y-113278152D01*
X137531904Y-113278152D02*
X137484285Y-113325771D01*
X137484285Y-113325771D02*
X137389047Y-113373390D01*
X137389047Y-113373390D02*
X137198571Y-113373390D01*
X137198571Y-113373390D02*
X137103333Y-113421009D01*
X137103333Y-113421009D02*
X137055714Y-113468628D01*
X137055714Y-113468628D02*
X137008095Y-113563866D01*
X137008095Y-113563866D02*
X137008095Y-113754342D01*
X137008095Y-113754342D02*
X137055714Y-113849580D01*
X137055714Y-113849580D02*
X137103333Y-113897200D01*
X137103333Y-113897200D02*
X137198571Y-113944819D01*
X137198571Y-113944819D02*
X137389047Y-113944819D01*
X137389047Y-113944819D02*
X137484285Y-113897200D01*
X137484285Y-113897200D02*
X137531904Y-113849580D01*
X137531904Y-113849580D02*
X137579523Y-113754342D01*
X137579523Y-113754342D02*
X137579523Y-113563866D01*
X137579523Y-113563866D02*
X137531904Y-113468628D01*
X137531904Y-113468628D02*
X137484285Y-113421009D01*
X137484285Y-113421009D02*
X137389047Y-113373390D01*
X115204819Y-132556785D02*
X114204819Y-132556785D01*
X114204819Y-132556785D02*
X114204819Y-132318690D01*
X114204819Y-132318690D02*
X114252438Y-132175833D01*
X114252438Y-132175833D02*
X114347676Y-132080595D01*
X114347676Y-132080595D02*
X114442914Y-132032976D01*
X114442914Y-132032976D02*
X114633390Y-131985357D01*
X114633390Y-131985357D02*
X114776247Y-131985357D01*
X114776247Y-131985357D02*
X114966723Y-132032976D01*
X114966723Y-132032976D02*
X115061961Y-132080595D01*
X115061961Y-132080595D02*
X115157200Y-132175833D01*
X115157200Y-132175833D02*
X115204819Y-132318690D01*
X115204819Y-132318690D02*
X115204819Y-132556785D01*
X115204819Y-131032976D02*
X115204819Y-131604404D01*
X115204819Y-131318690D02*
X114204819Y-131318690D01*
X114204819Y-131318690D02*
X114347676Y-131413928D01*
X114347676Y-131413928D02*
X114442914Y-131509166D01*
X114442914Y-131509166D02*
X114490533Y-131604404D01*
X115204819Y-130080595D02*
X115204819Y-130652023D01*
X115204819Y-130366309D02*
X114204819Y-130366309D01*
X114204819Y-130366309D02*
X114347676Y-130461547D01*
X114347676Y-130461547D02*
X114442914Y-130556785D01*
X114442914Y-130556785D02*
X114490533Y-130652023D01*
X95036819Y-91727257D02*
X94560628Y-92060590D01*
X95036819Y-92298685D02*
X94036819Y-92298685D01*
X94036819Y-92298685D02*
X94036819Y-91917733D01*
X94036819Y-91917733D02*
X94084438Y-91822495D01*
X94084438Y-91822495D02*
X94132057Y-91774876D01*
X94132057Y-91774876D02*
X94227295Y-91727257D01*
X94227295Y-91727257D02*
X94370152Y-91727257D01*
X94370152Y-91727257D02*
X94465390Y-91774876D01*
X94465390Y-91774876D02*
X94513009Y-91822495D01*
X94513009Y-91822495D02*
X94560628Y-91917733D01*
X94560628Y-91917733D02*
X94560628Y-92298685D01*
X94036819Y-90870114D02*
X94036819Y-91060590D01*
X94036819Y-91060590D02*
X94084438Y-91155828D01*
X94084438Y-91155828D02*
X94132057Y-91203447D01*
X94132057Y-91203447D02*
X94274914Y-91298685D01*
X94274914Y-91298685D02*
X94465390Y-91346304D01*
X94465390Y-91346304D02*
X94846342Y-91346304D01*
X94846342Y-91346304D02*
X94941580Y-91298685D01*
X94941580Y-91298685D02*
X94989200Y-91251066D01*
X94989200Y-91251066D02*
X95036819Y-91155828D01*
X95036819Y-91155828D02*
X95036819Y-90965352D01*
X95036819Y-90965352D02*
X94989200Y-90870114D01*
X94989200Y-90870114D02*
X94941580Y-90822495D01*
X94941580Y-90822495D02*
X94846342Y-90774876D01*
X94846342Y-90774876D02*
X94608247Y-90774876D01*
X94608247Y-90774876D02*
X94513009Y-90822495D01*
X94513009Y-90822495D02*
X94465390Y-90870114D01*
X94465390Y-90870114D02*
X94417771Y-90965352D01*
X94417771Y-90965352D02*
X94417771Y-91155828D01*
X94417771Y-91155828D02*
X94465390Y-91251066D01*
X94465390Y-91251066D02*
X94513009Y-91298685D01*
X94513009Y-91298685D02*
X94608247Y-91346304D01*
X94370152Y-89917733D02*
X95036819Y-89917733D01*
X93989200Y-90155828D02*
X94703485Y-90393923D01*
X94703485Y-90393923D02*
X94703485Y-89774876D01*
X155235419Y-150061685D02*
X154235419Y-150061685D01*
X154235419Y-150061685D02*
X154235419Y-149823590D01*
X154235419Y-149823590D02*
X154283038Y-149680733D01*
X154283038Y-149680733D02*
X154378276Y-149585495D01*
X154378276Y-149585495D02*
X154473514Y-149537876D01*
X154473514Y-149537876D02*
X154663990Y-149490257D01*
X154663990Y-149490257D02*
X154806847Y-149490257D01*
X154806847Y-149490257D02*
X154997323Y-149537876D01*
X154997323Y-149537876D02*
X155092561Y-149585495D01*
X155092561Y-149585495D02*
X155187800Y-149680733D01*
X155187800Y-149680733D02*
X155235419Y-149823590D01*
X155235419Y-149823590D02*
X155235419Y-150061685D01*
X155235419Y-148537876D02*
X155235419Y-149109304D01*
X155235419Y-148823590D02*
X154235419Y-148823590D01*
X154235419Y-148823590D02*
X154378276Y-148918828D01*
X154378276Y-148918828D02*
X154473514Y-149014066D01*
X154473514Y-149014066D02*
X154521133Y-149109304D01*
X154330657Y-148156923D02*
X154283038Y-148109304D01*
X154283038Y-148109304D02*
X154235419Y-148014066D01*
X154235419Y-148014066D02*
X154235419Y-147775971D01*
X154235419Y-147775971D02*
X154283038Y-147680733D01*
X154283038Y-147680733D02*
X154330657Y-147633114D01*
X154330657Y-147633114D02*
X154425895Y-147585495D01*
X154425895Y-147585495D02*
X154521133Y-147585495D01*
X154521133Y-147585495D02*
X154663990Y-147633114D01*
X154663990Y-147633114D02*
X155235419Y-148204542D01*
X155235419Y-148204542D02*
X155235419Y-147585495D01*
X161414419Y-87067123D02*
X162128704Y-87067123D01*
X162128704Y-87067123D02*
X162271561Y-87114742D01*
X162271561Y-87114742D02*
X162366800Y-87209980D01*
X162366800Y-87209980D02*
X162414419Y-87352837D01*
X162414419Y-87352837D02*
X162414419Y-87448075D01*
X162414419Y-86067123D02*
X162414419Y-86638551D01*
X162414419Y-86352837D02*
X161414419Y-86352837D01*
X161414419Y-86352837D02*
X161557276Y-86448075D01*
X161557276Y-86448075D02*
X161652514Y-86543313D01*
X161652514Y-86543313D02*
X161700133Y-86638551D01*
X161414419Y-85448075D02*
X161414419Y-85352837D01*
X161414419Y-85352837D02*
X161462038Y-85257599D01*
X161462038Y-85257599D02*
X161509657Y-85209980D01*
X161509657Y-85209980D02*
X161604895Y-85162361D01*
X161604895Y-85162361D02*
X161795371Y-85114742D01*
X161795371Y-85114742D02*
X162033466Y-85114742D01*
X162033466Y-85114742D02*
X162223942Y-85162361D01*
X162223942Y-85162361D02*
X162319180Y-85209980D01*
X162319180Y-85209980D02*
X162366800Y-85257599D01*
X162366800Y-85257599D02*
X162414419Y-85352837D01*
X162414419Y-85352837D02*
X162414419Y-85448075D01*
X162414419Y-85448075D02*
X162366800Y-85543313D01*
X162366800Y-85543313D02*
X162319180Y-85590932D01*
X162319180Y-85590932D02*
X162223942Y-85638551D01*
X162223942Y-85638551D02*
X162033466Y-85686170D01*
X162033466Y-85686170D02*
X161795371Y-85686170D01*
X161795371Y-85686170D02*
X161604895Y-85638551D01*
X161604895Y-85638551D02*
X161509657Y-85590932D01*
X161509657Y-85590932D02*
X161462038Y-85543313D01*
X161462038Y-85543313D02*
X161414419Y-85448075D01*
X88484819Y-138333332D02*
X89484819Y-137999999D01*
X89484819Y-137999999D02*
X88484819Y-137666666D01*
X89389580Y-136761904D02*
X89437200Y-136809523D01*
X89437200Y-136809523D02*
X89484819Y-136952380D01*
X89484819Y-136952380D02*
X89484819Y-137047618D01*
X89484819Y-137047618D02*
X89437200Y-137190475D01*
X89437200Y-137190475D02*
X89341961Y-137285713D01*
X89341961Y-137285713D02*
X89246723Y-137333332D01*
X89246723Y-137333332D02*
X89056247Y-137380951D01*
X89056247Y-137380951D02*
X88913390Y-137380951D01*
X88913390Y-137380951D02*
X88722914Y-137333332D01*
X88722914Y-137333332D02*
X88627676Y-137285713D01*
X88627676Y-137285713D02*
X88532438Y-137190475D01*
X88532438Y-137190475D02*
X88484819Y-137047618D01*
X88484819Y-137047618D02*
X88484819Y-136952380D01*
X88484819Y-136952380D02*
X88532438Y-136809523D01*
X88532438Y-136809523D02*
X88580057Y-136761904D01*
X89389580Y-135761904D02*
X89437200Y-135809523D01*
X89437200Y-135809523D02*
X89484819Y-135952380D01*
X89484819Y-135952380D02*
X89484819Y-136047618D01*
X89484819Y-136047618D02*
X89437200Y-136190475D01*
X89437200Y-136190475D02*
X89341961Y-136285713D01*
X89341961Y-136285713D02*
X89246723Y-136333332D01*
X89246723Y-136333332D02*
X89056247Y-136380951D01*
X89056247Y-136380951D02*
X88913390Y-136380951D01*
X88913390Y-136380951D02*
X88722914Y-136333332D01*
X88722914Y-136333332D02*
X88627676Y-136285713D01*
X88627676Y-136285713D02*
X88532438Y-136190475D01*
X88532438Y-136190475D02*
X88484819Y-136047618D01*
X88484819Y-136047618D02*
X88484819Y-135952380D01*
X88484819Y-135952380D02*
X88532438Y-135809523D01*
X88532438Y-135809523D02*
X88580057Y-135761904D01*
X161151219Y-94059333D02*
X161865504Y-94059333D01*
X161865504Y-94059333D02*
X162008361Y-94106952D01*
X162008361Y-94106952D02*
X162103600Y-94202190D01*
X162103600Y-94202190D02*
X162151219Y-94345047D01*
X162151219Y-94345047D02*
X162151219Y-94440285D01*
X161151219Y-93106952D02*
X161151219Y-93583142D01*
X161151219Y-93583142D02*
X161627409Y-93630761D01*
X161627409Y-93630761D02*
X161579790Y-93583142D01*
X161579790Y-93583142D02*
X161532171Y-93487904D01*
X161532171Y-93487904D02*
X161532171Y-93249809D01*
X161532171Y-93249809D02*
X161579790Y-93154571D01*
X161579790Y-93154571D02*
X161627409Y-93106952D01*
X161627409Y-93106952D02*
X161722647Y-93059333D01*
X161722647Y-93059333D02*
X161960742Y-93059333D01*
X161960742Y-93059333D02*
X162055980Y-93106952D01*
X162055980Y-93106952D02*
X162103600Y-93154571D01*
X162103600Y-93154571D02*
X162151219Y-93249809D01*
X162151219Y-93249809D02*
X162151219Y-93487904D01*
X162151219Y-93487904D02*
X162103600Y-93583142D01*
X162103600Y-93583142D02*
X162055980Y-93630761D01*
X141904819Y-101104404D02*
X141904819Y-100532976D01*
X142904819Y-100818690D02*
X141904819Y-100818690D01*
X141904819Y-100294880D02*
X142904819Y-99628214D01*
X141904819Y-99628214D02*
X142904819Y-100294880D01*
X142904819Y-99247261D02*
X141904819Y-99247261D01*
X141904819Y-99247261D02*
X141904819Y-99009166D01*
X141904819Y-99009166D02*
X141952438Y-98866309D01*
X141952438Y-98866309D02*
X142047676Y-98771071D01*
X142047676Y-98771071D02*
X142142914Y-98723452D01*
X142142914Y-98723452D02*
X142333390Y-98675833D01*
X142333390Y-98675833D02*
X142476247Y-98675833D01*
X142476247Y-98675833D02*
X142666723Y-98723452D01*
X142666723Y-98723452D02*
X142761961Y-98771071D01*
X142761961Y-98771071D02*
X142857200Y-98866309D01*
X142857200Y-98866309D02*
X142904819Y-99009166D01*
X142904819Y-99009166D02*
X142904819Y-99247261D01*
X167310476Y-97684819D02*
X167310476Y-98399104D01*
X167310476Y-98399104D02*
X167262857Y-98541961D01*
X167262857Y-98541961D02*
X167167619Y-98637200D01*
X167167619Y-98637200D02*
X167024762Y-98684819D01*
X167024762Y-98684819D02*
X166929524Y-98684819D01*
X168310476Y-98684819D02*
X167739048Y-98684819D01*
X168024762Y-98684819D02*
X168024762Y-97684819D01*
X168024762Y-97684819D02*
X167929524Y-97827676D01*
X167929524Y-97827676D02*
X167834286Y-97922914D01*
X167834286Y-97922914D02*
X167739048Y-97970533D01*
X169262857Y-98684819D02*
X168691429Y-98684819D01*
X168977143Y-98684819D02*
X168977143Y-97684819D01*
X168977143Y-97684819D02*
X168881905Y-97827676D01*
X168881905Y-97827676D02*
X168786667Y-97922914D01*
X168786667Y-97922914D02*
X168691429Y-97970533D01*
X104527600Y-124025866D02*
X105289505Y-124025866D01*
X104908552Y-124406819D02*
X104908552Y-123644914D01*
X105670457Y-123406819D02*
X106289504Y-123406819D01*
X106289504Y-123406819D02*
X105956171Y-123787771D01*
X105956171Y-123787771D02*
X106099028Y-123787771D01*
X106099028Y-123787771D02*
X106194266Y-123835390D01*
X106194266Y-123835390D02*
X106241885Y-123883009D01*
X106241885Y-123883009D02*
X106289504Y-123978247D01*
X106289504Y-123978247D02*
X106289504Y-124216342D01*
X106289504Y-124216342D02*
X106241885Y-124311580D01*
X106241885Y-124311580D02*
X106194266Y-124359200D01*
X106194266Y-124359200D02*
X106099028Y-124406819D01*
X106099028Y-124406819D02*
X105813314Y-124406819D01*
X105813314Y-124406819D02*
X105718076Y-124359200D01*
X105718076Y-124359200D02*
X105670457Y-124311580D01*
X106718076Y-124311580D02*
X106765695Y-124359200D01*
X106765695Y-124359200D02*
X106718076Y-124406819D01*
X106718076Y-124406819D02*
X106670457Y-124359200D01*
X106670457Y-124359200D02*
X106718076Y-124311580D01*
X106718076Y-124311580D02*
X106718076Y-124406819D01*
X107099028Y-123406819D02*
X107718075Y-123406819D01*
X107718075Y-123406819D02*
X107384742Y-123787771D01*
X107384742Y-123787771D02*
X107527599Y-123787771D01*
X107527599Y-123787771D02*
X107622837Y-123835390D01*
X107622837Y-123835390D02*
X107670456Y-123883009D01*
X107670456Y-123883009D02*
X107718075Y-123978247D01*
X107718075Y-123978247D02*
X107718075Y-124216342D01*
X107718075Y-124216342D02*
X107670456Y-124311580D01*
X107670456Y-124311580D02*
X107622837Y-124359200D01*
X107622837Y-124359200D02*
X107527599Y-124406819D01*
X107527599Y-124406819D02*
X107241885Y-124406819D01*
X107241885Y-124406819D02*
X107146647Y-124359200D01*
X107146647Y-124359200D02*
X107099028Y-124311580D01*
X108003790Y-123406819D02*
X108337123Y-124406819D01*
X108337123Y-124406819D02*
X108670456Y-123406819D01*
X136784761Y-126240057D02*
X136689523Y-126192438D01*
X136689523Y-126192438D02*
X136594285Y-126097200D01*
X136594285Y-126097200D02*
X136451428Y-125954342D01*
X136451428Y-125954342D02*
X136356190Y-125906723D01*
X136356190Y-125906723D02*
X136260952Y-125906723D01*
X136308571Y-126144819D02*
X136213333Y-126097200D01*
X136213333Y-126097200D02*
X136118095Y-126001961D01*
X136118095Y-126001961D02*
X136070476Y-125811485D01*
X136070476Y-125811485D02*
X136070476Y-125478152D01*
X136070476Y-125478152D02*
X136118095Y-125287676D01*
X136118095Y-125287676D02*
X136213333Y-125192438D01*
X136213333Y-125192438D02*
X136308571Y-125144819D01*
X136308571Y-125144819D02*
X136499047Y-125144819D01*
X136499047Y-125144819D02*
X136594285Y-125192438D01*
X136594285Y-125192438D02*
X136689523Y-125287676D01*
X136689523Y-125287676D02*
X136737142Y-125478152D01*
X136737142Y-125478152D02*
X136737142Y-125811485D01*
X136737142Y-125811485D02*
X136689523Y-126001961D01*
X136689523Y-126001961D02*
X136594285Y-126097200D01*
X136594285Y-126097200D02*
X136499047Y-126144819D01*
X136499047Y-126144819D02*
X136308571Y-126144819D01*
X137213333Y-126144819D02*
X137403809Y-126144819D01*
X137403809Y-126144819D02*
X137499047Y-126097200D01*
X137499047Y-126097200D02*
X137546666Y-126049580D01*
X137546666Y-126049580D02*
X137641904Y-125906723D01*
X137641904Y-125906723D02*
X137689523Y-125716247D01*
X137689523Y-125716247D02*
X137689523Y-125335295D01*
X137689523Y-125335295D02*
X137641904Y-125240057D01*
X137641904Y-125240057D02*
X137594285Y-125192438D01*
X137594285Y-125192438D02*
X137499047Y-125144819D01*
X137499047Y-125144819D02*
X137308571Y-125144819D01*
X137308571Y-125144819D02*
X137213333Y-125192438D01*
X137213333Y-125192438D02*
X137165714Y-125240057D01*
X137165714Y-125240057D02*
X137118095Y-125335295D01*
X137118095Y-125335295D02*
X137118095Y-125573390D01*
X137118095Y-125573390D02*
X137165714Y-125668628D01*
X137165714Y-125668628D02*
X137213333Y-125716247D01*
X137213333Y-125716247D02*
X137308571Y-125763866D01*
X137308571Y-125763866D02*
X137499047Y-125763866D01*
X137499047Y-125763866D02*
X137594285Y-125716247D01*
X137594285Y-125716247D02*
X137641904Y-125668628D01*
X137641904Y-125668628D02*
X137689523Y-125573390D01*
X156980476Y-131554819D02*
X156980476Y-132269104D01*
X156980476Y-132269104D02*
X156932857Y-132411961D01*
X156932857Y-132411961D02*
X156837619Y-132507200D01*
X156837619Y-132507200D02*
X156694762Y-132554819D01*
X156694762Y-132554819D02*
X156599524Y-132554819D01*
X157980476Y-132554819D02*
X157409048Y-132554819D01*
X157694762Y-132554819D02*
X157694762Y-131554819D01*
X157694762Y-131554819D02*
X157599524Y-131697676D01*
X157599524Y-131697676D02*
X157504286Y-131792914D01*
X157504286Y-131792914D02*
X157409048Y-131840533D01*
X158837619Y-131554819D02*
X158647143Y-131554819D01*
X158647143Y-131554819D02*
X158551905Y-131602438D01*
X158551905Y-131602438D02*
X158504286Y-131650057D01*
X158504286Y-131650057D02*
X158409048Y-131792914D01*
X158409048Y-131792914D02*
X158361429Y-131983390D01*
X158361429Y-131983390D02*
X158361429Y-132364342D01*
X158361429Y-132364342D02*
X158409048Y-132459580D01*
X158409048Y-132459580D02*
X158456667Y-132507200D01*
X158456667Y-132507200D02*
X158551905Y-132554819D01*
X158551905Y-132554819D02*
X158742381Y-132554819D01*
X158742381Y-132554819D02*
X158837619Y-132507200D01*
X158837619Y-132507200D02*
X158885238Y-132459580D01*
X158885238Y-132459580D02*
X158932857Y-132364342D01*
X158932857Y-132364342D02*
X158932857Y-132126247D01*
X158932857Y-132126247D02*
X158885238Y-132031009D01*
X158885238Y-132031009D02*
X158837619Y-131983390D01*
X158837619Y-131983390D02*
X158742381Y-131935771D01*
X158742381Y-131935771D02*
X158551905Y-131935771D01*
X158551905Y-131935771D02*
X158456667Y-131983390D01*
X158456667Y-131983390D02*
X158409048Y-132031009D01*
X158409048Y-132031009D02*
X158361429Y-132126247D01*
X89704819Y-141362857D02*
X89228628Y-141696190D01*
X89704819Y-141934285D02*
X88704819Y-141934285D01*
X88704819Y-141934285D02*
X88704819Y-141553333D01*
X88704819Y-141553333D02*
X88752438Y-141458095D01*
X88752438Y-141458095D02*
X88800057Y-141410476D01*
X88800057Y-141410476D02*
X88895295Y-141362857D01*
X88895295Y-141362857D02*
X89038152Y-141362857D01*
X89038152Y-141362857D02*
X89133390Y-141410476D01*
X89133390Y-141410476D02*
X89181009Y-141458095D01*
X89181009Y-141458095D02*
X89228628Y-141553333D01*
X89228628Y-141553333D02*
X89228628Y-141934285D01*
X88704819Y-140458095D02*
X88704819Y-140934285D01*
X88704819Y-140934285D02*
X89181009Y-140981904D01*
X89181009Y-140981904D02*
X89133390Y-140934285D01*
X89133390Y-140934285D02*
X89085771Y-140839047D01*
X89085771Y-140839047D02*
X89085771Y-140600952D01*
X89085771Y-140600952D02*
X89133390Y-140505714D01*
X89133390Y-140505714D02*
X89181009Y-140458095D01*
X89181009Y-140458095D02*
X89276247Y-140410476D01*
X89276247Y-140410476D02*
X89514342Y-140410476D01*
X89514342Y-140410476D02*
X89609580Y-140458095D01*
X89609580Y-140458095D02*
X89657200Y-140505714D01*
X89657200Y-140505714D02*
X89704819Y-140600952D01*
X89704819Y-140600952D02*
X89704819Y-140839047D01*
X89704819Y-140839047D02*
X89657200Y-140934285D01*
X89657200Y-140934285D02*
X89609580Y-140981904D01*
X88704819Y-139553333D02*
X88704819Y-139743809D01*
X88704819Y-139743809D02*
X88752438Y-139839047D01*
X88752438Y-139839047D02*
X88800057Y-139886666D01*
X88800057Y-139886666D02*
X88942914Y-139981904D01*
X88942914Y-139981904D02*
X89133390Y-140029523D01*
X89133390Y-140029523D02*
X89514342Y-140029523D01*
X89514342Y-140029523D02*
X89609580Y-139981904D01*
X89609580Y-139981904D02*
X89657200Y-139934285D01*
X89657200Y-139934285D02*
X89704819Y-139839047D01*
X89704819Y-139839047D02*
X89704819Y-139648571D01*
X89704819Y-139648571D02*
X89657200Y-139553333D01*
X89657200Y-139553333D02*
X89609580Y-139505714D01*
X89609580Y-139505714D02*
X89514342Y-139458095D01*
X89514342Y-139458095D02*
X89276247Y-139458095D01*
X89276247Y-139458095D02*
X89181009Y-139505714D01*
X89181009Y-139505714D02*
X89133390Y-139553333D01*
X89133390Y-139553333D02*
X89085771Y-139648571D01*
X89085771Y-139648571D02*
X89085771Y-139839047D01*
X89085771Y-139839047D02*
X89133390Y-139934285D01*
X89133390Y-139934285D02*
X89181009Y-139981904D01*
X89181009Y-139981904D02*
X89276247Y-140029523D01*
X115100267Y-79001600D02*
X115243124Y-79049219D01*
X115243124Y-79049219D02*
X115481219Y-79049219D01*
X115481219Y-79049219D02*
X115576457Y-79001600D01*
X115576457Y-79001600D02*
X115624076Y-78953980D01*
X115624076Y-78953980D02*
X115671695Y-78858742D01*
X115671695Y-78858742D02*
X115671695Y-78763504D01*
X115671695Y-78763504D02*
X115624076Y-78668266D01*
X115624076Y-78668266D02*
X115576457Y-78620647D01*
X115576457Y-78620647D02*
X115481219Y-78573028D01*
X115481219Y-78573028D02*
X115290743Y-78525409D01*
X115290743Y-78525409D02*
X115195505Y-78477790D01*
X115195505Y-78477790D02*
X115147886Y-78430171D01*
X115147886Y-78430171D02*
X115100267Y-78334933D01*
X115100267Y-78334933D02*
X115100267Y-78239695D01*
X115100267Y-78239695D02*
X115147886Y-78144457D01*
X115147886Y-78144457D02*
X115195505Y-78096838D01*
X115195505Y-78096838D02*
X115290743Y-78049219D01*
X115290743Y-78049219D02*
X115528838Y-78049219D01*
X115528838Y-78049219D02*
X115671695Y-78096838D01*
X116005029Y-78049219D02*
X116243124Y-79049219D01*
X116243124Y-79049219D02*
X116433600Y-78334933D01*
X116433600Y-78334933D02*
X116624076Y-79049219D01*
X116624076Y-79049219D02*
X116862172Y-78049219D01*
X117766933Y-79049219D02*
X117195505Y-79049219D01*
X117481219Y-79049219D02*
X117481219Y-78049219D01*
X117481219Y-78049219D02*
X117385981Y-78192076D01*
X117385981Y-78192076D02*
X117290743Y-78287314D01*
X117290743Y-78287314D02*
X117195505Y-78334933D01*
X166127580Y-129776457D02*
X166175200Y-129824076D01*
X166175200Y-129824076D02*
X166222819Y-129966933D01*
X166222819Y-129966933D02*
X166222819Y-130062171D01*
X166222819Y-130062171D02*
X166175200Y-130205028D01*
X166175200Y-130205028D02*
X166079961Y-130300266D01*
X166079961Y-130300266D02*
X165984723Y-130347885D01*
X165984723Y-130347885D02*
X165794247Y-130395504D01*
X165794247Y-130395504D02*
X165651390Y-130395504D01*
X165651390Y-130395504D02*
X165460914Y-130347885D01*
X165460914Y-130347885D02*
X165365676Y-130300266D01*
X165365676Y-130300266D02*
X165270438Y-130205028D01*
X165270438Y-130205028D02*
X165222819Y-130062171D01*
X165222819Y-130062171D02*
X165222819Y-129966933D01*
X165222819Y-129966933D02*
X165270438Y-129824076D01*
X165270438Y-129824076D02*
X165318057Y-129776457D01*
X165556152Y-128919314D02*
X166222819Y-128919314D01*
X165175200Y-129157409D02*
X165889485Y-129395504D01*
X165889485Y-129395504D02*
X165889485Y-128776457D01*
X166222819Y-127871695D02*
X166222819Y-128443123D01*
X166222819Y-128157409D02*
X165222819Y-128157409D01*
X165222819Y-128157409D02*
X165365676Y-128252647D01*
X165365676Y-128252647D02*
X165460914Y-128347885D01*
X165460914Y-128347885D02*
X165508533Y-128443123D01*
X106834819Y-131469285D02*
X105834819Y-131469285D01*
X105834819Y-131469285D02*
X105834819Y-131231190D01*
X105834819Y-131231190D02*
X105882438Y-131088333D01*
X105882438Y-131088333D02*
X105977676Y-130993095D01*
X105977676Y-130993095D02*
X106072914Y-130945476D01*
X106072914Y-130945476D02*
X106263390Y-130897857D01*
X106263390Y-130897857D02*
X106406247Y-130897857D01*
X106406247Y-130897857D02*
X106596723Y-130945476D01*
X106596723Y-130945476D02*
X106691961Y-130993095D01*
X106691961Y-130993095D02*
X106787200Y-131088333D01*
X106787200Y-131088333D02*
X106834819Y-131231190D01*
X106834819Y-131231190D02*
X106834819Y-131469285D01*
X106834819Y-129945476D02*
X106834819Y-130516904D01*
X106834819Y-130231190D02*
X105834819Y-130231190D01*
X105834819Y-130231190D02*
X105977676Y-130326428D01*
X105977676Y-130326428D02*
X106072914Y-130421666D01*
X106072914Y-130421666D02*
X106120533Y-130516904D01*
X105834819Y-129088333D02*
X105834819Y-129278809D01*
X105834819Y-129278809D02*
X105882438Y-129374047D01*
X105882438Y-129374047D02*
X105930057Y-129421666D01*
X105930057Y-129421666D02*
X106072914Y-129516904D01*
X106072914Y-129516904D02*
X106263390Y-129564523D01*
X106263390Y-129564523D02*
X106644342Y-129564523D01*
X106644342Y-129564523D02*
X106739580Y-129516904D01*
X106739580Y-129516904D02*
X106787200Y-129469285D01*
X106787200Y-129469285D02*
X106834819Y-129374047D01*
X106834819Y-129374047D02*
X106834819Y-129183571D01*
X106834819Y-129183571D02*
X106787200Y-129088333D01*
X106787200Y-129088333D02*
X106739580Y-129040714D01*
X106739580Y-129040714D02*
X106644342Y-128993095D01*
X106644342Y-128993095D02*
X106406247Y-128993095D01*
X106406247Y-128993095D02*
X106311009Y-129040714D01*
X106311009Y-129040714D02*
X106263390Y-129088333D01*
X106263390Y-129088333D02*
X106215771Y-129183571D01*
X106215771Y-129183571D02*
X106215771Y-129374047D01*
X106215771Y-129374047D02*
X106263390Y-129469285D01*
X106263390Y-129469285D02*
X106311009Y-129516904D01*
X106311009Y-129516904D02*
X106406247Y-129564523D01*
X159223895Y-101562819D02*
X159223895Y-102372342D01*
X159223895Y-102372342D02*
X159271514Y-102467580D01*
X159271514Y-102467580D02*
X159319133Y-102515200D01*
X159319133Y-102515200D02*
X159414371Y-102562819D01*
X159414371Y-102562819D02*
X159604847Y-102562819D01*
X159604847Y-102562819D02*
X159700085Y-102515200D01*
X159700085Y-102515200D02*
X159747704Y-102467580D01*
X159747704Y-102467580D02*
X159795323Y-102372342D01*
X159795323Y-102372342D02*
X159795323Y-101562819D01*
X160319133Y-102562819D02*
X160509609Y-102562819D01*
X160509609Y-102562819D02*
X160604847Y-102515200D01*
X160604847Y-102515200D02*
X160652466Y-102467580D01*
X160652466Y-102467580D02*
X160747704Y-102324723D01*
X160747704Y-102324723D02*
X160795323Y-102134247D01*
X160795323Y-102134247D02*
X160795323Y-101753295D01*
X160795323Y-101753295D02*
X160747704Y-101658057D01*
X160747704Y-101658057D02*
X160700085Y-101610438D01*
X160700085Y-101610438D02*
X160604847Y-101562819D01*
X160604847Y-101562819D02*
X160414371Y-101562819D01*
X160414371Y-101562819D02*
X160319133Y-101610438D01*
X160319133Y-101610438D02*
X160271514Y-101658057D01*
X160271514Y-101658057D02*
X160223895Y-101753295D01*
X160223895Y-101753295D02*
X160223895Y-101991390D01*
X160223895Y-101991390D02*
X160271514Y-102086628D01*
X160271514Y-102086628D02*
X160319133Y-102134247D01*
X160319133Y-102134247D02*
X160414371Y-102181866D01*
X160414371Y-102181866D02*
X160604847Y-102181866D01*
X160604847Y-102181866D02*
X160700085Y-102134247D01*
X160700085Y-102134247D02*
X160747704Y-102086628D01*
X160747704Y-102086628D02*
X160795323Y-101991390D01*
X110964761Y-116160057D02*
X110869523Y-116112438D01*
X110869523Y-116112438D02*
X110774285Y-116017200D01*
X110774285Y-116017200D02*
X110631428Y-115874342D01*
X110631428Y-115874342D02*
X110536190Y-115826723D01*
X110536190Y-115826723D02*
X110440952Y-115826723D01*
X110488571Y-116064819D02*
X110393333Y-116017200D01*
X110393333Y-116017200D02*
X110298095Y-115921961D01*
X110298095Y-115921961D02*
X110250476Y-115731485D01*
X110250476Y-115731485D02*
X110250476Y-115398152D01*
X110250476Y-115398152D02*
X110298095Y-115207676D01*
X110298095Y-115207676D02*
X110393333Y-115112438D01*
X110393333Y-115112438D02*
X110488571Y-115064819D01*
X110488571Y-115064819D02*
X110679047Y-115064819D01*
X110679047Y-115064819D02*
X110774285Y-115112438D01*
X110774285Y-115112438D02*
X110869523Y-115207676D01*
X110869523Y-115207676D02*
X110917142Y-115398152D01*
X110917142Y-115398152D02*
X110917142Y-115731485D01*
X110917142Y-115731485D02*
X110869523Y-115921961D01*
X110869523Y-115921961D02*
X110774285Y-116017200D01*
X110774285Y-116017200D02*
X110679047Y-116064819D01*
X110679047Y-116064819D02*
X110488571Y-116064819D01*
X111774285Y-115398152D02*
X111774285Y-116064819D01*
X111536190Y-115017200D02*
X111298095Y-115731485D01*
X111298095Y-115731485D02*
X111917142Y-115731485D01*
X109575695Y-118530019D02*
X109575695Y-119339542D01*
X109575695Y-119339542D02*
X109623314Y-119434780D01*
X109623314Y-119434780D02*
X109670933Y-119482400D01*
X109670933Y-119482400D02*
X109766171Y-119530019D01*
X109766171Y-119530019D02*
X109956647Y-119530019D01*
X109956647Y-119530019D02*
X110051885Y-119482400D01*
X110051885Y-119482400D02*
X110099504Y-119434780D01*
X110099504Y-119434780D02*
X110147123Y-119339542D01*
X110147123Y-119339542D02*
X110147123Y-118530019D01*
X111051885Y-118863352D02*
X111051885Y-119530019D01*
X110813790Y-118482400D02*
X110575695Y-119196685D01*
X110575695Y-119196685D02*
X111194742Y-119196685D01*
X169423219Y-129827257D02*
X168947028Y-130160590D01*
X169423219Y-130398685D02*
X168423219Y-130398685D01*
X168423219Y-130398685D02*
X168423219Y-130017733D01*
X168423219Y-130017733D02*
X168470838Y-129922495D01*
X168470838Y-129922495D02*
X168518457Y-129874876D01*
X168518457Y-129874876D02*
X168613695Y-129827257D01*
X168613695Y-129827257D02*
X168756552Y-129827257D01*
X168756552Y-129827257D02*
X168851790Y-129874876D01*
X168851790Y-129874876D02*
X168899409Y-129922495D01*
X168899409Y-129922495D02*
X168947028Y-130017733D01*
X168947028Y-130017733D02*
X168947028Y-130398685D01*
X168423219Y-128970114D02*
X168423219Y-129160590D01*
X168423219Y-129160590D02*
X168470838Y-129255828D01*
X168470838Y-129255828D02*
X168518457Y-129303447D01*
X168518457Y-129303447D02*
X168661314Y-129398685D01*
X168661314Y-129398685D02*
X168851790Y-129446304D01*
X168851790Y-129446304D02*
X169232742Y-129446304D01*
X169232742Y-129446304D02*
X169327980Y-129398685D01*
X169327980Y-129398685D02*
X169375600Y-129351066D01*
X169375600Y-129351066D02*
X169423219Y-129255828D01*
X169423219Y-129255828D02*
X169423219Y-129065352D01*
X169423219Y-129065352D02*
X169375600Y-128970114D01*
X169375600Y-128970114D02*
X169327980Y-128922495D01*
X169327980Y-128922495D02*
X169232742Y-128874876D01*
X169232742Y-128874876D02*
X168994647Y-128874876D01*
X168994647Y-128874876D02*
X168899409Y-128922495D01*
X168899409Y-128922495D02*
X168851790Y-128970114D01*
X168851790Y-128970114D02*
X168804171Y-129065352D01*
X168804171Y-129065352D02*
X168804171Y-129255828D01*
X168804171Y-129255828D02*
X168851790Y-129351066D01*
X168851790Y-129351066D02*
X168899409Y-129398685D01*
X168899409Y-129398685D02*
X168994647Y-129446304D01*
X168423219Y-128541542D02*
X168423219Y-127874876D01*
X168423219Y-127874876D02*
X169423219Y-128303447D01*
D11*
%TO.C,U1*%
X135483600Y-88801800D02*
X133533600Y-88801800D01*
X135483600Y-88801800D02*
X137433600Y-88801800D01*
X135483600Y-98921800D02*
X133533600Y-98921800D01*
X135483600Y-98921800D02*
X137433600Y-98921800D01*
X132758600Y-88856800D02*
X132518600Y-88526800D01*
X132998600Y-88526800D01*
X132758600Y-88856800D01*
G36*
X132758600Y-88856800D02*
G01*
X132518600Y-88526800D01*
X132998600Y-88526800D01*
X132758600Y-88856800D01*
G37*
%TO.C,J1*%
X112410000Y-148620000D02*
X112410000Y-149870000D01*
X112710000Y-148920000D02*
X112710000Y-153640000D01*
X112710000Y-150230000D02*
X113320000Y-150230000D01*
X112710000Y-151530000D02*
X113320000Y-151530000D01*
X112710000Y-153640000D02*
X130830000Y-153640000D01*
X113320000Y-149530000D02*
X113320000Y-153030000D01*
X113320000Y-153030000D02*
X130220000Y-153030000D01*
X113660000Y-148620000D02*
X112410000Y-148620000D01*
X114170000Y-148720000D02*
X114170000Y-148920000D01*
X114470000Y-148720000D02*
X114170000Y-148720000D01*
X114470000Y-148820000D02*
X114170000Y-148820000D01*
X114470000Y-148920000D02*
X114470000Y-148720000D01*
X115270000Y-148920000D02*
X115270000Y-149530000D01*
X115270000Y-149530000D02*
X113320000Y-149530000D01*
X115670000Y-152530000D02*
X115870000Y-152530000D01*
X115670000Y-153030000D02*
X115670000Y-152530000D01*
X115770000Y-153030000D02*
X115770000Y-152530000D01*
X115870000Y-152530000D02*
X115870000Y-153030000D01*
X117670000Y-152530000D02*
X117870000Y-152530000D01*
X117670000Y-153030000D02*
X117670000Y-152530000D01*
X117770000Y-153030000D02*
X117770000Y-152530000D01*
X117870000Y-152530000D02*
X117870000Y-153030000D01*
X119670000Y-152530000D02*
X119870000Y-152530000D01*
X119670000Y-153030000D02*
X119670000Y-152530000D01*
X119770000Y-153030000D02*
X119770000Y-152530000D01*
X119870000Y-152530000D02*
X119870000Y-153030000D01*
X121670000Y-152530000D02*
X121870000Y-152530000D01*
X121670000Y-153030000D02*
X121670000Y-152530000D01*
X121770000Y-153030000D02*
X121770000Y-152530000D01*
X121870000Y-152530000D02*
X121870000Y-153030000D01*
X123670000Y-152530000D02*
X123870000Y-152530000D01*
X123670000Y-153030000D02*
X123670000Y-152530000D01*
X123770000Y-153030000D02*
X123770000Y-152530000D01*
X123870000Y-152530000D02*
X123870000Y-153030000D01*
X125670000Y-152530000D02*
X125870000Y-152530000D01*
X125670000Y-153030000D02*
X125670000Y-152530000D01*
X125770000Y-153030000D02*
X125770000Y-152530000D01*
X125870000Y-152530000D02*
X125870000Y-153030000D01*
X127670000Y-152530000D02*
X127870000Y-152530000D01*
X127670000Y-153030000D02*
X127670000Y-152530000D01*
X127770000Y-153030000D02*
X127770000Y-152530000D01*
X127870000Y-152530000D02*
X127870000Y-153030000D01*
X128270000Y-149530000D02*
X128270000Y-148920000D01*
X130220000Y-149530000D02*
X128270000Y-149530000D01*
X130220000Y-153030000D02*
X130220000Y-149530000D01*
X130830000Y-148920000D02*
X112710000Y-148920000D01*
X130830000Y-150230000D02*
X130220000Y-150230000D01*
X130830000Y-151530000D02*
X130220000Y-151530000D01*
X130830000Y-153640000D02*
X130830000Y-148920000D01*
%TO.C,D14*%
X118707800Y-119407000D02*
X118707800Y-120877000D01*
X118707800Y-120877000D02*
X120992800Y-120877000D01*
X120992800Y-119407000D02*
X118707800Y-119407000D01*
%TO.C,J8*%
X91750000Y-154510000D02*
X91750000Y-140200000D01*
X100900000Y-136090000D02*
X97160000Y-136090000D01*
X107470000Y-154510000D02*
X91750000Y-154510000D01*
X107470000Y-154510000D02*
X107470000Y-140200000D01*
X91750000Y-140200000D02*
G75*
G02*
X94658352Y-136269587I4110000J0D01*
G01*
X105476806Y-136677042D02*
G75*
G02*
X107470000Y-140200000I-2116805J-3522957D01*
G01*
%TO.C,U10*%
X158660000Y-106685000D02*
X156460000Y-106685000D01*
X158660000Y-106685000D02*
X160860000Y-106685000D01*
X158660000Y-109905000D02*
X156460000Y-109905000D01*
X158660000Y-109905000D02*
X160860000Y-109905000D01*
X155760000Y-106860000D02*
X155520000Y-106530000D01*
X156000000Y-106530000D01*
X155760000Y-106860000D01*
G36*
X155760000Y-106860000D02*
G01*
X155520000Y-106530000D01*
X156000000Y-106530000D01*
X155760000Y-106860000D01*
G37*
D10*
%TO.C,U6*%
X154435000Y-138210000D02*
X150285000Y-138210000D01*
X154435000Y-143360000D02*
X150285000Y-143360000D01*
D11*
X155100000Y-143615000D02*
X154620000Y-143615000D01*
X154860000Y-143285000D01*
X155100000Y-143615000D01*
G36*
X155100000Y-143615000D02*
G01*
X154620000Y-143615000D01*
X154860000Y-143285000D01*
X155100000Y-143615000D01*
G37*
%TO.C,C59*%
X163015200Y-108114220D02*
X163015200Y-108395380D01*
X164035200Y-108114220D02*
X164035200Y-108395380D01*
%TO.C,J4*%
X157190000Y-149200000D02*
X157190000Y-151120000D01*
X157190000Y-154835000D02*
X157190000Y-153130000D01*
X166350000Y-151120000D02*
X166350000Y-149200000D01*
X166350000Y-153130000D02*
X166350000Y-154835000D01*
X166350000Y-154835000D02*
X157190000Y-154835000D01*
%TO.C,R65*%
X151096400Y-110487064D02*
X151096400Y-106132936D01*
X154516400Y-110487064D02*
X154516400Y-106132936D01*
%TO.C,L2*%
X89390000Y-134900000D02*
X89390000Y-131900000D01*
X89770000Y-121780000D02*
X94290000Y-121780000D01*
X89770000Y-134520000D02*
X89770000Y-121780000D01*
X89770000Y-134520000D02*
X94290000Y-134520000D01*
X92390000Y-134900000D02*
X89390000Y-134900000D01*
X97990000Y-121780000D02*
X102510000Y-121780000D01*
X97990000Y-134520000D02*
X102510000Y-134520000D01*
X102510000Y-134520000D02*
X102510000Y-121780000D01*
%TO.C,U8*%
X101280000Y-89630000D02*
X99080000Y-89630000D01*
X101280000Y-89630000D02*
X103480000Y-89630000D01*
X101280000Y-92850000D02*
X99080000Y-92850000D01*
X101280000Y-92850000D02*
X103480000Y-92850000D01*
X104420000Y-93005000D02*
X103940000Y-93005000D01*
X104180000Y-92675000D01*
X104420000Y-93005000D01*
G36*
X104420000Y-93005000D02*
G01*
X103940000Y-93005000D01*
X104180000Y-92675000D01*
X104420000Y-93005000D01*
G37*
%TO.C,J6*%
X89360000Y-95600000D02*
X91560000Y-95600000D01*
X89360000Y-107320000D02*
X89360000Y-95600000D01*
X89360000Y-107320000D02*
X91560000Y-107320000D01*
X91560000Y-95600000D02*
X91560000Y-94760000D01*
X91560000Y-108160000D02*
X91560000Y-107320000D01*
X93780000Y-95600000D02*
X93780000Y-94760000D01*
X93780000Y-95600000D02*
X98580000Y-95600000D01*
X93780000Y-107320000D02*
X98580000Y-107320000D01*
X93780000Y-108160000D02*
X93780000Y-107320000D01*
X98580000Y-107320000D02*
X98580000Y-95600000D01*
X91560000Y-94760000D02*
G75*
G02*
X93780000Y-94760000I1110000J0D01*
G01*
X93780000Y-108160000D02*
G75*
G02*
X91560000Y-108160000I-1110000J0D01*
G01*
%TO.C,J7*%
X89320000Y-74155000D02*
X90170000Y-74155000D01*
X89320000Y-88325000D02*
X89320000Y-74155000D01*
X90170000Y-88325000D02*
X89320000Y-88325000D01*
X93690000Y-74155000D02*
X94540000Y-74155000D01*
X93690000Y-88325000D02*
X94540000Y-88325000D01*
X94540000Y-74155000D02*
X94540000Y-76480000D01*
X94540000Y-86000000D02*
X96930000Y-86000000D01*
X94540000Y-88325000D02*
X94540000Y-86000000D01*
%TO.C,D9*%
X146005000Y-98700000D02*
X146005000Y-100985000D01*
X146005000Y-100985000D02*
X147475000Y-100985000D01*
X147475000Y-100985000D02*
X147475000Y-98700000D01*
%TO.C,J17*%
X168240400Y-134315200D02*
X168240400Y-136915200D01*
X168240400Y-134315200D02*
X170900400Y-134315200D01*
X168240400Y-136915200D02*
X170900400Y-136915200D01*
X169570400Y-131715200D02*
X170900400Y-131715200D01*
X170900400Y-131715200D02*
X170900400Y-133045200D01*
X170900400Y-134315200D02*
X170900400Y-136915200D01*
%TO.C,J12*%
X112780000Y-72030000D02*
X112780000Y-73280000D01*
X113080000Y-72330000D02*
X113080000Y-77050000D01*
X113080000Y-73640000D02*
X113690000Y-73640000D01*
X113080000Y-74940000D02*
X113690000Y-74940000D01*
X113080000Y-77050000D02*
X123200000Y-77050000D01*
X113690000Y-72940000D02*
X113690000Y-76440000D01*
X113690000Y-76440000D02*
X122590000Y-76440000D01*
X114030000Y-72030000D02*
X112780000Y-72030000D01*
X114540000Y-72130000D02*
X114540000Y-72330000D01*
X114840000Y-72130000D02*
X114540000Y-72130000D01*
X114840000Y-72230000D02*
X114540000Y-72230000D01*
X114840000Y-72330000D02*
X114840000Y-72130000D01*
X115640000Y-72330000D02*
X115640000Y-72940000D01*
X115640000Y-72940000D02*
X113690000Y-72940000D01*
X116040000Y-75940000D02*
X116240000Y-75940000D01*
X116040000Y-76440000D02*
X116040000Y-75940000D01*
X116140000Y-76440000D02*
X116140000Y-75940000D01*
X116240000Y-75940000D02*
X116240000Y-76440000D01*
X118040000Y-75940000D02*
X118240000Y-75940000D01*
X118040000Y-76440000D02*
X118040000Y-75940000D01*
X118140000Y-76440000D02*
X118140000Y-75940000D01*
X118240000Y-75940000D02*
X118240000Y-76440000D01*
X120040000Y-75940000D02*
X120240000Y-75940000D01*
X120040000Y-76440000D02*
X120040000Y-75940000D01*
X120140000Y-76440000D02*
X120140000Y-75940000D01*
X120240000Y-75940000D02*
X120240000Y-76440000D01*
X120640000Y-72940000D02*
X120640000Y-72330000D01*
X122590000Y-72940000D02*
X120640000Y-72940000D01*
X122590000Y-76440000D02*
X122590000Y-72940000D01*
X123200000Y-72330000D02*
X113080000Y-72330000D01*
X123200000Y-73640000D02*
X122590000Y-73640000D01*
X123200000Y-74940000D02*
X122590000Y-74940000D01*
X123200000Y-77050000D02*
X123200000Y-72330000D01*
%TO.C,U7*%
X101290000Y-110120000D02*
X99090000Y-110120000D01*
X101290000Y-110120000D02*
X103490000Y-110120000D01*
X101290000Y-113340000D02*
X99090000Y-113340000D01*
X101290000Y-113340000D02*
X103490000Y-113340000D01*
X104430000Y-113495000D02*
X103950000Y-113495000D01*
X104190000Y-113165000D01*
X104430000Y-113495000D01*
G36*
X104430000Y-113495000D02*
G01*
X103950000Y-113495000D01*
X104190000Y-113165000D01*
X104430000Y-113495000D01*
G37*
%TO.C,J2*%
X168280000Y-140520000D02*
X168280000Y-150740000D01*
X168280000Y-140520000D02*
X170940000Y-140520000D01*
X168280000Y-150740000D02*
X170940000Y-150740000D01*
X169610000Y-137920000D02*
X170940000Y-137920000D01*
X170940000Y-137920000D02*
X170940000Y-139250000D01*
X170940000Y-140520000D02*
X170940000Y-150740000D01*
%TO.C,D6*%
X151985000Y-98055000D02*
X151985000Y-100340000D01*
X153455000Y-98055000D02*
X151985000Y-98055000D01*
X153455000Y-100340000D02*
X153455000Y-98055000D01*
%TO.C,R45*%
X105660000Y-89042936D02*
X105660000Y-93397064D01*
X109080000Y-89042936D02*
X109080000Y-93397064D01*
%TO.C,L3*%
X135090000Y-153110000D02*
X135090000Y-150110000D01*
X135470000Y-139990000D02*
X139990000Y-139990000D01*
X135470000Y-152730000D02*
X135470000Y-139990000D01*
X135470000Y-152730000D02*
X139990000Y-152730000D01*
X138090000Y-153110000D02*
X135090000Y-153110000D01*
X143690000Y-139990000D02*
X148210000Y-139990000D01*
X143690000Y-152730000D02*
X148210000Y-152730000D01*
X148210000Y-152730000D02*
X148210000Y-139990000D01*
%TO.C,SW2*%
X91526000Y-111025200D02*
X91526000Y-111145200D01*
X91526000Y-112155200D02*
X91526000Y-113295200D01*
X91526000Y-114305200D02*
X91526000Y-114425200D01*
X91526000Y-114425200D02*
X95926000Y-114425200D01*
X95926000Y-111025200D02*
X91526000Y-111025200D01*
X95926000Y-111145200D02*
X95926000Y-111025200D01*
X95926000Y-113295200D02*
X95926000Y-112155200D01*
X95926000Y-114425200D02*
X95926000Y-114305200D01*
%TO.C,R44*%
X105600000Y-109402936D02*
X105600000Y-113757064D01*
X109020000Y-109402936D02*
X109020000Y-113757064D01*
%TO.C,U11*%
X159310000Y-127470000D02*
X157110000Y-127470000D01*
X159310000Y-127470000D02*
X161510000Y-127470000D01*
X159310000Y-130690000D02*
X157110000Y-130690000D01*
X159310000Y-130690000D02*
X161510000Y-130690000D01*
X156410000Y-127645000D02*
X156170000Y-127315000D01*
X156650000Y-127315000D01*
X156410000Y-127645000D01*
G36*
X156410000Y-127645000D02*
G01*
X156170000Y-127315000D01*
X156650000Y-127315000D01*
X156410000Y-127645000D01*
G37*
%TO.C,R66*%
X151560000Y-131527064D02*
X151560000Y-127172936D01*
X154980000Y-131527064D02*
X154980000Y-127172936D01*
D10*
%TO.C,U5*%
X101259800Y-116220800D02*
X105409800Y-116220800D01*
X101259800Y-121370800D02*
X105409800Y-121370800D01*
D11*
X100834800Y-116295800D02*
X100594800Y-115965800D01*
X101074800Y-115965800D01*
X100834800Y-116295800D01*
G36*
X100834800Y-116295800D02*
G01*
X100594800Y-115965800D01*
X101074800Y-115965800D01*
X100834800Y-116295800D01*
G37*
%TO.C,D7*%
X148895000Y-98055000D02*
X148895000Y-100340000D01*
X150365000Y-98055000D02*
X148895000Y-98055000D01*
X150365000Y-100340000D02*
X150365000Y-98055000D01*
%TO.C,J9*%
X161610000Y-112830000D02*
X161610000Y-124550000D01*
X166410000Y-111990000D02*
X166410000Y-112830000D01*
X166410000Y-112830000D02*
X161610000Y-112830000D01*
X166410000Y-124550000D02*
X161610000Y-124550000D01*
X166410000Y-124550000D02*
X166410000Y-125390000D01*
X168630000Y-111990000D02*
X168630000Y-112830000D01*
X168630000Y-124550000D02*
X168630000Y-125390000D01*
X170830000Y-112830000D02*
X168630000Y-112830000D01*
X170830000Y-112830000D02*
X170830000Y-124550000D01*
X170830000Y-124550000D02*
X168630000Y-124550000D01*
X166410000Y-111990000D02*
G75*
G02*
X168630000Y-111990000I1110000J0D01*
G01*
X168630000Y-125390000D02*
G75*
G02*
X166410000Y-125390000I-1110000J0D01*
G01*
%TO.C,L1*%
X119037500Y-134770000D02*
X119037500Y-131770000D01*
X119417500Y-121650000D02*
X123937500Y-121650000D01*
X119417500Y-134390000D02*
X119417500Y-121650000D01*
X119417500Y-134390000D02*
X123937500Y-134390000D01*
X122037500Y-134770000D02*
X119037500Y-134770000D01*
X127637500Y-121650000D02*
X132157500Y-121650000D01*
X127637500Y-134390000D02*
X132157500Y-134390000D01*
X132157500Y-134390000D02*
X132157500Y-121650000D01*
%TO.C,D13*%
X135827400Y-138101400D02*
X135827400Y-139571400D01*
X135827400Y-139571400D02*
X138112400Y-139571400D01*
X138112400Y-138101400D02*
X135827400Y-138101400D01*
%TO.C,Q7*%
X138465000Y-102390000D02*
X138465000Y-103080000D01*
X138465000Y-112790000D02*
X138465000Y-112100000D01*
X139830000Y-102390000D02*
X138465000Y-102390000D01*
X139830000Y-112790000D02*
X138465000Y-112790000D01*
X135640000Y-103120000D02*
X135300000Y-102650000D01*
X135980000Y-102650000D01*
X135640000Y-103120000D01*
G36*
X135640000Y-103120000D02*
G01*
X135300000Y-102650000D01*
X135980000Y-102650000D01*
X135640000Y-103120000D01*
G37*
%TO.C,U2*%
X125175600Y-79253800D02*
X122175600Y-79253800D01*
X125175600Y-82473800D02*
X122175600Y-82473800D01*
X125695600Y-82613800D02*
X125695600Y-82133800D01*
X126175600Y-82133800D01*
X125695600Y-82613800D01*
G36*
X125695600Y-82613800D02*
G01*
X125695600Y-82133800D01*
X126175600Y-82133800D01*
X125695600Y-82613800D01*
G37*
%TO.C,Q5*%
X121960000Y-95720000D02*
X123325000Y-95720000D01*
X121960000Y-106120000D02*
X123325000Y-106120000D01*
X123325000Y-95720000D02*
X123325000Y-96410000D01*
X123325000Y-106120000D02*
X123325000Y-105430000D01*
X126490000Y-105860000D02*
X125810000Y-105860000D01*
X126150000Y-105390000D01*
X126490000Y-105860000D01*
G36*
X126490000Y-105860000D02*
G01*
X125810000Y-105860000D01*
X126150000Y-105390000D01*
X126490000Y-105860000D01*
G37*
%TO.C,Q6*%
X122015000Y-83665000D02*
X123380000Y-83665000D01*
X122015000Y-94065000D02*
X123380000Y-94065000D01*
X123380000Y-83665000D02*
X123380000Y-84355000D01*
X123380000Y-94065000D02*
X123380000Y-93375000D01*
X126545000Y-93805000D02*
X125865000Y-93805000D01*
X126205000Y-93335000D01*
X126545000Y-93805000D01*
G36*
X126545000Y-93805000D02*
G01*
X125865000Y-93805000D01*
X126205000Y-93335000D01*
X126545000Y-93805000D01*
G37*
%TO.C,C48*%
X120010000Y-139290000D02*
X121260000Y-139290000D01*
X120635000Y-138665000D02*
X120635000Y-139915000D01*
X121500000Y-137754437D02*
X121500000Y-140540000D01*
X121500000Y-137754437D02*
X122564437Y-136690000D01*
X121500000Y-146345563D02*
X121500000Y-143560000D01*
X121500000Y-146345563D02*
X122564437Y-147410000D01*
X122564437Y-136690000D02*
X132220000Y-136690000D01*
X122564437Y-147410000D02*
X132220000Y-147410000D01*
X132220000Y-136690000D02*
X132220000Y-140540000D01*
X132220000Y-147410000D02*
X132220000Y-143560000D01*
%TO.C,SW3*%
X91475200Y-116156000D02*
X91475200Y-116276000D01*
X91475200Y-117286000D02*
X91475200Y-118426000D01*
X91475200Y-119436000D02*
X91475200Y-119556000D01*
X91475200Y-119556000D02*
X95875200Y-119556000D01*
X95875200Y-116156000D02*
X91475200Y-116156000D01*
X95875200Y-116276000D02*
X95875200Y-116156000D01*
X95875200Y-118426000D02*
X95875200Y-117286000D01*
X95875200Y-119556000D02*
X95875200Y-119436000D01*
%TO.C,U3*%
X140055000Y-70800000D02*
X140055000Y-77000000D01*
X140055000Y-70800000D02*
X158455000Y-70800000D01*
X140055000Y-95650000D02*
X140055000Y-96650000D01*
X140055000Y-96650000D02*
X141555000Y-96650000D01*
X158455000Y-70800000D02*
X158455000Y-77000000D01*
X158455000Y-96650000D02*
X156955000Y-96650000D01*
X158455000Y-96650000D02*
X158455000Y-95650000D01*
X140055000Y-77675000D02*
X139555000Y-77675000D01*
X140055000Y-77175000D01*
X140055000Y-77675000D01*
G36*
X140055000Y-77675000D02*
G01*
X139555000Y-77675000D01*
X140055000Y-77175000D01*
X140055000Y-77675000D01*
G37*
%TO.C,R3*%
X111085100Y-80348858D02*
X111085100Y-79874342D01*
X112130100Y-80348858D02*
X112130100Y-79874342D01*
%TO.C,J3*%
X100590000Y-72100000D02*
X100590000Y-73350000D01*
X100890000Y-72400000D02*
X100890000Y-77120000D01*
X100890000Y-73710000D02*
X101500000Y-73710000D01*
X100890000Y-75010000D02*
X101500000Y-75010000D01*
X100890000Y-77120000D02*
X111010000Y-77120000D01*
X101500000Y-73010000D02*
X101500000Y-76510000D01*
X101500000Y-76510000D02*
X110400000Y-76510000D01*
X101840000Y-72100000D02*
X100590000Y-72100000D01*
X102350000Y-72200000D02*
X102350000Y-72400000D01*
X102650000Y-72200000D02*
X102350000Y-72200000D01*
X102650000Y-72300000D02*
X102350000Y-72300000D01*
X102650000Y-72400000D02*
X102650000Y-72200000D01*
X103450000Y-72400000D02*
X103450000Y-73010000D01*
X103450000Y-73010000D02*
X101500000Y-73010000D01*
X103850000Y-76010000D02*
X104050000Y-76010000D01*
X103850000Y-76510000D02*
X103850000Y-76010000D01*
X103950000Y-76510000D02*
X103950000Y-76010000D01*
X104050000Y-76010000D02*
X104050000Y-76510000D01*
X105850000Y-76010000D02*
X106050000Y-76010000D01*
X105850000Y-76510000D02*
X105850000Y-76010000D01*
X105950000Y-76510000D02*
X105950000Y-76010000D01*
X106050000Y-76010000D02*
X106050000Y-76510000D01*
X107850000Y-76010000D02*
X108050000Y-76010000D01*
X107850000Y-76510000D02*
X107850000Y-76010000D01*
X107950000Y-76510000D02*
X107950000Y-76010000D01*
X108050000Y-76010000D02*
X108050000Y-76510000D01*
X108450000Y-73010000D02*
X108450000Y-72400000D01*
X110400000Y-73010000D02*
X108450000Y-73010000D01*
X110400000Y-76510000D02*
X110400000Y-73010000D01*
X111010000Y-72400000D02*
X100890000Y-72400000D01*
X111010000Y-73710000D02*
X110400000Y-73710000D01*
X111010000Y-75010000D02*
X110400000Y-75010000D01*
X111010000Y-77120000D02*
X111010000Y-72400000D01*
%TO.C,Q8*%
X138465000Y-114740000D02*
X138465000Y-115430000D01*
X138465000Y-125140000D02*
X138465000Y-124450000D01*
X139830000Y-114740000D02*
X138465000Y-114740000D01*
X139830000Y-125140000D02*
X138465000Y-125140000D01*
X135640000Y-115470000D02*
X135300000Y-115000000D01*
X135980000Y-115000000D01*
X135640000Y-115470000D01*
G36*
X135640000Y-115470000D02*
G01*
X135300000Y-115000000D01*
X135980000Y-115000000D01*
X135640000Y-115470000D01*
G37*
%TO.C,D11*%
X111500000Y-126432500D02*
X111500000Y-134942500D01*
X111500000Y-126432500D02*
X118000000Y-126432500D01*
X118000000Y-126432500D02*
X118000000Y-134942500D01*
%TO.C,R64*%
X95489500Y-91321658D02*
X95489500Y-90847142D01*
X96534500Y-91321658D02*
X96534500Y-90847142D01*
%TO.C,D12*%
X149505600Y-143832400D02*
X149505600Y-152342400D01*
X149505600Y-143832400D02*
X156005600Y-143832400D01*
X156005600Y-143832400D02*
X156005600Y-152342400D01*
%TO.C,J10*%
X165639600Y-79172600D02*
X165639600Y-81497600D01*
X165639600Y-81497600D02*
X163249600Y-81497600D01*
X165639600Y-93342600D02*
X165639600Y-91017600D01*
X166489600Y-79172600D02*
X165639600Y-79172600D01*
X166489600Y-93342600D02*
X165639600Y-93342600D01*
X170009600Y-79172600D02*
X170859600Y-79172600D01*
X170859600Y-79172600D02*
X170859600Y-93342600D01*
X170859600Y-93342600D02*
X170009600Y-93342600D01*
%TO.C,3.3V4*%
X89665000Y-135755000D02*
X89665000Y-138040000D01*
X91135000Y-135755000D02*
X89665000Y-135755000D01*
X91135000Y-138040000D02*
X91135000Y-135755000D01*
%TO.C,J5*%
X160458000Y-94631200D02*
X160458000Y-97291200D01*
X168138000Y-94631200D02*
X160458000Y-94631200D01*
X168138000Y-94631200D02*
X168138000Y-97291200D01*
X168138000Y-97291200D02*
X160458000Y-97291200D01*
X169408000Y-94631200D02*
X170738000Y-94631200D01*
X170738000Y-94631200D02*
X170738000Y-95961200D01*
%TO.C,D10*%
X143155000Y-98700000D02*
X143155000Y-100985000D01*
X143155000Y-100985000D02*
X144625000Y-100985000D01*
X144625000Y-100985000D02*
X144625000Y-98700000D01*
%TO.C,J11*%
X166250000Y-99170000D02*
X166250000Y-109290000D01*
X166250000Y-109290000D02*
X170970000Y-109290000D01*
X166860000Y-99780000D02*
X166860000Y-108680000D01*
X166860000Y-102130000D02*
X167360000Y-102130000D01*
X166860000Y-102230000D02*
X167360000Y-102230000D01*
X166860000Y-104130000D02*
X167360000Y-104130000D01*
X166860000Y-104230000D02*
X167360000Y-104230000D01*
X166860000Y-106130000D02*
X167360000Y-106130000D01*
X166860000Y-106230000D02*
X167360000Y-106230000D01*
X166860000Y-108680000D02*
X170360000Y-108680000D01*
X167360000Y-102130000D02*
X167360000Y-102330000D01*
X167360000Y-102330000D02*
X166860000Y-102330000D01*
X167360000Y-104130000D02*
X167360000Y-104330000D01*
X167360000Y-104330000D02*
X166860000Y-104330000D01*
X167360000Y-106130000D02*
X167360000Y-106330000D01*
X167360000Y-106330000D02*
X166860000Y-106330000D01*
X168360000Y-99170000D02*
X168360000Y-99780000D01*
X168360000Y-109290000D02*
X168360000Y-108680000D01*
X169660000Y-99170000D02*
X169660000Y-99780000D01*
X169660000Y-109290000D02*
X169660000Y-108680000D01*
X170360000Y-99780000D02*
X166860000Y-99780000D01*
X170360000Y-101730000D02*
X170360000Y-99780000D01*
X170360000Y-106730000D02*
X170970000Y-106730000D01*
X170360000Y-108680000D02*
X170360000Y-106730000D01*
X170970000Y-99170000D02*
X166250000Y-99170000D01*
X170970000Y-100930000D02*
X171170000Y-100930000D01*
X170970000Y-101730000D02*
X170360000Y-101730000D01*
X170970000Y-109290000D02*
X170970000Y-99170000D01*
X171070000Y-100930000D02*
X171070000Y-100630000D01*
X171170000Y-100630000D02*
X170970000Y-100630000D01*
X171170000Y-100930000D02*
X171170000Y-100630000D01*
X171270000Y-98870000D02*
X170020000Y-98870000D01*
X171270000Y-100120000D02*
X171270000Y-98870000D01*
%TO.C,D17*%
X105676800Y-123061400D02*
X107961800Y-123061400D01*
X107961800Y-121591400D02*
X105676800Y-121591400D01*
X107961800Y-123061400D02*
X107961800Y-121591400D01*
%TO.C,Q9*%
X138465000Y-127090000D02*
X138465000Y-127780000D01*
X138465000Y-137490000D02*
X138465000Y-136800000D01*
X139830000Y-127090000D02*
X138465000Y-127090000D01*
X139830000Y-137490000D02*
X138465000Y-137490000D01*
X135640000Y-127820000D02*
X135300000Y-127350000D01*
X135980000Y-127350000D01*
X135640000Y-127820000D01*
G36*
X135640000Y-127820000D02*
G01*
X135300000Y-127350000D01*
X135980000Y-127350000D01*
X135640000Y-127820000D01*
G37*
%TO.C,R56*%
X89847500Y-141037258D02*
X89847500Y-140562742D01*
X90892500Y-141037258D02*
X90892500Y-140562742D01*
%TO.C,SW1*%
X113093600Y-80244400D02*
X113673600Y-80244400D01*
X113673600Y-79594400D02*
X113673600Y-80244400D01*
X113673600Y-79594400D02*
X119193600Y-79594400D01*
X113673600Y-82254400D02*
X113673600Y-81544400D01*
X113673600Y-82254400D02*
X119193600Y-82254400D01*
X119193600Y-79594400D02*
X119193600Y-80304400D01*
X119193600Y-82254400D02*
X119193600Y-81544400D01*
%TO.C,C41*%
X163828000Y-128993020D02*
X163828000Y-129274180D01*
X164848000Y-128993020D02*
X164848000Y-129274180D01*
%TO.C,D16*%
X103400000Y-134510000D02*
X103400000Y-126000000D01*
X109900000Y-134510000D02*
X103400000Y-134510000D01*
X109900000Y-134510000D02*
X109900000Y-126000000D01*
%TO.C,U9*%
X155010800Y-102108000D02*
X155010800Y-100158000D01*
X155010800Y-102108000D02*
X155010800Y-104058000D01*
X165130800Y-102108000D02*
X165130800Y-100158000D01*
X165130800Y-102108000D02*
X165130800Y-104058000D01*
X155065800Y-104833000D02*
X154735800Y-105073000D01*
X154735800Y-104593000D01*
X155065800Y-104833000D01*
G36*
X155065800Y-104833000D02*
G01*
X154735800Y-105073000D01*
X154735800Y-104593000D01*
X155065800Y-104833000D01*
G37*
%TO.C,Q4*%
X122015000Y-108365000D02*
X123380000Y-108365000D01*
X122015000Y-118765000D02*
X123380000Y-118765000D01*
X123380000Y-108365000D02*
X123380000Y-109055000D01*
X123380000Y-118765000D02*
X123380000Y-118075000D01*
X126545000Y-118505000D02*
X125865000Y-118505000D01*
X126205000Y-118035000D01*
X126545000Y-118505000D01*
G36*
X126545000Y-118505000D02*
G01*
X125865000Y-118505000D01*
X126205000Y-118035000D01*
X126545000Y-118505000D01*
G37*
D10*
%TO.C,U4*%
X112745000Y-119700000D02*
X116895000Y-119700000D01*
X112745000Y-124850000D02*
X116895000Y-124850000D01*
D11*
X112320000Y-119775000D02*
X112080000Y-119445000D01*
X112560000Y-119445000D01*
X112320000Y-119775000D01*
G36*
X112320000Y-119775000D02*
G01*
X112080000Y-119445000D01*
X112560000Y-119445000D01*
X112320000Y-119775000D01*
G37*
%TO.C,R67*%
X167015900Y-128947142D02*
X167015900Y-129421658D01*
X168060900Y-128947142D02*
X168060900Y-129421658D01*
%TD*%
M02*
